-0.054576 0.155190 -0.233053
-0.166877 0.187824 -0.168128
0.216286 -0.420551 0.313251
-0.158249 0.153956 0.192156
-0.157248 0.181983 -0.166610
-0.149307 0.160494 0.180766
-0.173991 0.180886 -0.170653
-0.193630 0.175470 -0.125804
-0.253490 -0.439953 0.226147
-0.117323 0.179165 0.172975
0.452262 -0.218582 -0.124020
-0.181389 0.176801 -0.155111
-0.143004 0.174484 0.160515
-0.101423 0.168008 0.146844
-0.133591 0.167533 0.177241
-0.147024 0.165863 -0.166166
0.270212 -0.423023 -0.375358
-0.113064 0.176024 -0.131408
-0.242488 0.097546 -0.231930
-0.179470 0.191012 -0.148708
-0.230026 0.204810 -0.127297
-0.131751 0.160808 0.138391
-0.286740 0.254817 0.032121
-0.169701 0.183978 -0.129205
-0.380960 0.745560 -0.099067
-0.155643 0.169329 0.183297
-0.159759 0.181283 -0.167063
0.027077 0.164595 0.101849
-0.169611 0.180373 -0.145233
-0.000253 0.161531 0.201281
0.047292 0.161601 0.193672
-0.363703 0.494245 0.191898
-0.093513 0.164241 0.175797
-0.150459 0.165768 0.135154
-0.115870 0.172953 0.177382
-0.364899 0.447230 -0.094450
-0.172895 0.194878 -0.171125
-0.149500 0.184720 -0.172493
-0.285146 0.300084 0.195466
0.477732 0.063767 0.037230
-0.143757 0.168497 0.175971
-0.196139 0.186450 -0.154981
-0.017650 0.089380 0.044975
-0.193282 0.178151 -0.170153
-0.176393 0.182325 -0.126116
-0.046855 0.166709 0.072700
-0.189862 0.149316 -0.210477
-0.298949 0.205075 -0.152408
-0.133250 0.155475 0.179366
-0.011522 0.162717 0.196619
-0.121118 0.167264 0.165471
-0.211333 0.183863 -0.173047
-0.130419 0.180936 -0.156362
0.199944 -0.368696 0.248312
-0.310436 0.177887 0.089540
0.426663 -0.342117 0.139833
-0.168694 0.193664 -0.176473
-0.247778 0.182202 0.039712
0.097621 0.129386 -0.075211
-0.127535 0.171091 0.169270
0.163482 0.045001 -0.058161
-0.131199 0.166584 0.176060
-0.114028 0.163460 0.165950
-0.093090 0.148395 0.204997
-0.082890 -0.437932 0.162574
0.358302 0.073349 0.156362
-0.150718 0.176681 0.164121
0.321299 -0.542065 0.305260
-0.194237 0.194278 -0.152332
-0.263892 0.157866 0.164003
-0.128146 0.168321 0.151820
-0.124518 0.177299 0.177490
0.376775 0.040381 0.200475
-0.148438 0.169720 0.175630
-0.123854 0.179748 -0.172596
0.024091 0.171554 -0.106615
-0.169891 0.172954 -0.180559
0.325434 0.138387 0.183070
-0.053672 0.157579 0.174559
-0.181261 0.199351 0.146916
-0.166459 0.192435 -0.168524
-0.179960 0.186838 -0.028655
-0.132681 0.152250 -0.144713
-0.357896 0.516299 -0.172043
-0.321716 0.113458 0.071798
-0.136793 0.178493 0.190400
-0.127123 0.157638 0.178290
0.436415 -0.287341 0.111569
0.073217 -0.423321 -0.255692
0.177553 0.150685 0.020645
0.009618 0.131199 -0.265012
-0.196242 0.173968 -0.162907
-0.137103 0.170503 0.172747
-0.158644 0.178185 0.175917
-0.175393 0.169020 -0.166946
-0.215315 0.155340 -0.050426
-0.143614 0.165888 0.173898
0.030636 0.168469 -0.269947
-0.283695 0.209861 0.255878
-0.094439 0.159781 -0.150367
-0.153462 0.190473 -0.168205
0.412778 -0.272814 0.293979
-0.104634 0.166891 -0.162344
0.003479 0.161499 0.239204
-0.165483 0.191974 -0.202189
0.443074 0.064507 -0.073272
-0.344650 0.529828 -0.221649
-0.315540 0.282195 -0.177849
-0.129373 0.168912 0.178211
-0.309845 0.366188 0.068087
-0.162626 0.179704 -0.179648
-0.180457 0.181084 -0.178339
-0.153028 0.169683 -0.175617
0.168972 0.166086 -0.290782
-0.140207 0.175181 0.163506
-0.032280 0.147452 -0.178460
0.411855 0.165571 -0.105444
-0.110242 0.188575 -0.182220
-0.400033 0.534953 0.120225
-0.145345 0.175124 0.190578
-0.127323 0.149766 0.210110
-0.166287 0.160653 -0.196451
-0.136514 0.171687 0.134566
-0.113433 0.177040 0.144875
-0.175259 0.170007 -0.154312
-0.375057 0.726988 -0.333882
-0.129367 0.168322 0.158215
-0.054912 0.154453 -0.153977
-0.237874 0.150432 -0.155548
-0.115875 0.158395 0.180561
-0.135410 0.175257 -0.172592
-0.125062 0.167917 0.182340
-0.132449 0.165629 0.177171
-0.121165 0.175061 -0.184778
-0.141073 0.167927 0.160179
0.377839 0.017105 0.051892
0.129022 0.213998 -0.186142
0.352124 -0.453007 0.201697
-0.192153 0.193903 -0.164410
-0.113250 0.179218 -0.187325
-0.133675 0.181963 0.177697
-0.062172 0.153894 0.029330
-0.150135 0.173900 0.182404
-0.169900 0.191369 -0.161792
0.480491 -0.071589 -0.193073
-0.149389 0.170655 -0.173234
-0.258983 0.440660 0.283314
0.142234 -0.454297 -0.296237
-0.178624 0.168805 0.240998
-0.171863 0.153719 -0.117619
-0.097544 0.160892 0.124757
-0.132380 0.164347 0.153722
-0.158754 0.184600 -0.148449
-0.093271 0.162768 0.156064
-0.142434 0.181761 0.162800
-0.368828 0.354514 -0.057254
-0.096740 0.172795 0.148371
-0.146759 0.175406 -0.147787
-0.164962 0.183664 -0.156358
0.332745 0.178720 -0.120872
-0.290348 0.256068 0.154606
-0.142271 0.160232 -0.185860
-0.134274 0.162107 -0.166977
-0.102186 0.159614 0.123031
-0.135169 0.174880 0.168793
0.450218 0.148919 -0.208381
-0.127447 0.170439 0.167713
-0.089667 0.147622 -0.108625
0.133019 0.172483 0.171224
-0.216979 0.171534 -0.321753
0.433767 -0.356828 0.257269
-0.087224 0.145024 0.215012
-0.174978 0.191068 -0.168797
-0.149839 0.181975 -0.176765
-0.097791 0.178587 -0.166847
-0.154833 0.137725 0.079911
-0.111137 0.163743 -0.131531
0.460383 0.079114 0.186083
-0.132257 0.176003 -0.147054
-0.069037 0.133349 0.068409
-0.180176 0.188722 -0.150170
-0.372264 0.582416 0.163895
-0.259009 0.185435 -0.161168
-0.057038 0.173724 -0.133879
0.414409 0.069787 0.222389
-0.127053 0.171839 0.176789
-0.090365 0.162570 0.174827
0.218315 0.215881 -0.204282
-0.149535 0.126345 -0.047728
-0.122484 0.167981 0.168992
0.123192 0.164070 0.022144
-0.308780 0.266804 -0.131887
-0.102461 0.169957 0.157585
-0.165628 0.205563 0.093743
-0.028427 0.148433 0.029459
-0.203512 0.176817 -0.174711
0.414152 -0.070344 0.319505
-0.100717 0.137278 -0.222018
-0.190231 0.179758 -0.129816
-0.141834 0.172474 0.176539
-0.139641 0.175101 0.167344
-0.202796 0.176675 -0.162052
-0.161308 0.179102 -0.171102
-0.119479 0.174538 0.182838
0.144112 0.181463 0.084508
-0.338234 0.333812 0.134358
-0.133906 0.172854 0.179555
-0.150462 0.171843 -0.158739
-0.143010 0.185875 -0.152727
-0.119273 0.159136 -0.133445
-0.059950 0.153999 0.136768
-0.136310 0.161692 0.179927
-0.181872 0.180408 -0.169157
-0.117549 0.166352 0.183786
-0.151524 0.182656 -0.165029
-0.165431 0.178977 -0.181297
-0.153070 0.148473 -0.254801
-0.302526 -0.409642 -0.295470
-0.255840 0.144202 0.217762
-0.138375 0.161891 -0.161244
-0.108981 0.166534 0.163227
0.436945 0.028699 -0.161331
-0.154285 0.185009 -0.183912
0.175491 0.227987 0.275865
-0.421559 0.591840 -0.193947
-0.168097 0.181995 -0.145302
-0.212902 0.086011 -0.257923
-0.104959 0.162088 -0.167838
0.336093 0.119231 0.102562
0.088792 0.170443 -0.346507
-0.116371 0.117079 -0.098753
-0.173996 0.140459 0.173308
-0.166041 0.166639 0.184596
0.466674 -0.231116 -0.242500
-0.151679 0.182867 -0.151992
0.021211 0.096545 -0.044718
-0.141211 0.155923 -0.131529
-0.147001 0.179057 -0.154253
0.062258 0.135866 -0.146019
-0.432702 0.827611 0.086433
-0.176442 0.177990 -0.162020
-0.159267 0.178851 0.169490
-0.439242 0.731536 -0.248543
0.572541 -0.412880 0.190253
-0.151904 0.164700 0.182584
-0.001869 0.197960 -0.058781
-0.162061 0.184656 -0.163252
-0.067758 0.170552 0.187570
-0.183314 0.178821 0.215640
0.418210 -0.277997 -0.086845
-0.134164 0.187685 -0.133255
-0.090908 0.151744 0.161880
-0.167514 0.180501 -0.148401
-0.138767 0.165479 0.174041
-0.156820 0.157093 0.189023
-0.119256 0.170185 0.160578
-0.128246 0.175454 0.184676
-0.158508 0.173657 0.189816
0.382829 0.115534 0.221429
-0.099926 -0.010741 0.150046
-0.154518 0.172579 -0.155621
-0.188182 0.193221 -0.159640
-0.143546 0.156671 0.155915
-0.305072 -0.379744 -0.189708
-0.166652 0.176160 -0.163865
-0.115368 0.171883 0.176036
-0.141702 0.179637 -0.140420
0.421303 0.161542 -0.229702
-0.148317 0.179910 -0.144962
-0.118936 0.166037 0.156354
-0.130680 0.166093 -0.140776
-0.114689 0.178000 -0.089720
0.466393 -0.030247 -0.332941
-0.191574 0.187857 -0.158530
-0.080955 0.167168 0.196921
-0.095594 0.145636 0.184077
-0.161596 0.175792 -0.163198
-0.137821 0.166923 0.145705
-0.176757 0.189280 -0.162374
-0.113954 0.172231 0.165152
-0.175507 0.176675 -0.162577
-0.157839 0.160099 -0.167524
0.494118 0.037527 -0.280657
-0.199432 0.198918 0.206573
-0.136483 0.169087 0.172103
-0.137482 0.191916 -0.159891
0.375334 0.166019 0.346047
-0.109776 0.167436 0.186407
0.026858 0.167064 -0.170389
-0.121273 0.180277 -0.154856
0.097607 0.121023 0.004936
-0.376999 0.545246 -0.315778
-0.213574 0.121866 0.175586
0.196489 -0.445519 -0.168391
-0.154336 0.162359 -0.190444
-0.127749 0.176965 0.160393
-0.206920 0.187777 -0.162940
0.656003 -0.060443 0.063004
-0.008342 0.158212 -0.283375
-0.096302 0.173331 -0.161996
0.295731 -0.449420 0.141963
-0.137368 0.169502 0.164499
0.094912 0.183282 -0.299273
-0.143911 0.185358 0.135695
-0.354998 0.586901 0.244811
-0.167260 0.175450 -0.165098
-0.128830 0.172557 0.175864
-0.387089 0.763914 -0.225692
-0.128302 0.184540 -0.162879
-0.153524 0.160569 -0.165177
-0.152479 0.154286 0.150497
-0.167252 0.182497 -0.167442
-0.047687 0.127380 0.304470
-0.181494 -0.406382 -0.226003
-0.151551 0.182130 -0.164614
-0.138741 0.181881 0.153923
-0.120494 0.168744 0.179070
0.215062 0.109069 -0.266845
-0.193580 0.168908 -0.181871
-0.172867 0.183996 -0.156492
-0.088988 0.166853 0.142153
0.203752 0.178556 -0.343061
-0.072105 0.172765 0.178036
0.311312 -0.369428 -0.224395
-0.052683 0.123534 0.108803
-0.367019 0.389035 -0.162597
-0.155710 0.168982 -0.158701
-0.262814 0.189907 -0.194646
0.043303 0.172764 0.166710
-0.176531 0.179653 -0.166692
-0.220087 -0.459828 -0.310260
-0.140533 0.164426 0.251878
-0.145910 0.170706 0.157663
-0.186220 0.185333 -0.160161
-0.182526 0.172452 -0.177729
-0.149466 0.176142 -0.164106
0.244061 0.146814 0.242548
-0.022656 0.171770 -0.301734
-0.196111 0.201526 -0.164927
-0.179337 0.179086 -0.153165
0.602332 -0.237484 -0.145666
0.379240 0.159093 0.238538
-0.190280 0.184376 -0.167132
-0.210916 0.200353 -0.137016
-0.139456 0.165861 0.173787
-0.127660 0.168831 0.175916
-0.361966 0.185597 0.301613
-0.161119 0.174918 -0.172389
0.075619 0.171694 -0.222281
-0.176246 0.178885 -0.172578
-0.143495 0.171287 0.155564
-0.198697 0.191418 -0.131104
0.096006 -0.422196 -0.103549
-0.212318 0.185508 -0.157678
0.173703 0.200256 0.331083
-0.153082 0.172076 0.176948
-0.131159 0.175336 0.165414
0.112017 0.040236 0.311358
-0.155979 0.159803 0.184832
-0.176726 0.181785 -0.190603
-0.351740 0.287945 -0.123137
-0.162375 0.170606 0.157837
-0.099027 0.157196 0.152040
-0.125081 0.175406 0.170602
-0.155273 0.179860 -0.168187
-0.131554 0.175939 0.178780
-0.151976 0.184708 -0.173953
0.065108 -0.312189 0.126555
-0.134292 0.165554 0.181032
-0.255428 0.149428 -0.214348
-0.128275 0.176779 0.171062
0.010081 0.075946 -0.139975
0.453356 -0.142090 0.261388
-0.411314 -0.388634 0.230457
-0.172316 0.187696 -0.167398
-0.259914 -0.406108 0.130129
0.321129 0.162134 -0.329704
-0.145315 0.178275 -0.169135
-0.214936 0.190577 -0.166197
-0.158769 0.186859 -0.181666
-0.267362 0.198738 -0.248791
-0.238602 0.309999 -0.196248
-0.370776 0.433527 0.012366
-0.146625 0.175727 0.170950
0.451915 0.022868 0.143155
0.073725 0.198175 -0.078093
-0.141366 0.193389 -0.171549
0.083145 -0.443384 0.320541
0.385588 -0.331462 -0.210002
-0.262064 0.239641 -0.171518
-0.148173 0.169648 -0.151105
-0.150110 0.147583 -0.141282
-0.227987 0.124265 0.076029
-0.163555 0.166286 0.129244
-0.099572 0.166087 -0.117397
0.307972 -0.251245 0.209989
-0.088914 0.160646 0.187877
-0.106236 0.171488 0.160101
0.074143 0.202195 0.060280
0.398492 -0.255205 -0.343478
-0.168531 0.182725 -0.166407
-0.005499 0.154296 0.029072
0.018704 0.155360 0.229176
-0.433618 0.753024 0.174267
-0.170691 0.178732 -0.169145
-0.288035 -0.362321 0.293740
0.441373 -0.441656 0.288523
-0.139467 0.187166 -0.157628
-0.301988 0.049270 -0.238993
-0.182472 0.178762 -0.165356
-0.155738 0.181152 0.169565
-0.214620 0.145774 -0.168016
-0.125828 0.173905 0.172845
-0.151796 0.181885 0.138571
-0.133668 0.150794 0.119247
-0.182157 0.186475 -0.167346
-0.174200 0.147638 0.137754
-0.128655 0.159221 0.189670
-0.198351 0.190693 -0.178393
-0.123364 0.168692 0.182720
-0.331317 0.261747 0.196709
-0.154608 0.179247 -0.163731
-0.142133 0.168857 -0.154220
-0.141349 0.180693 -0.178333
-0.148637 0.179499 -0.165056
0.200761 0.207901 0.047889
-0.132882 0.142391 0.243117
-0.169490 0.183824 -0.143446
0.227120 0.202100 0.218869
-0.163770 0.179080 -0.165442
-0.392798 0.463937 -0.160564
-0.146529 0.165961 0.194222
-0.430726 0.660716 -0.026824
-0.365346 0.765484 0.055956
-0.138494 -0.434297 -0.137829
-0.129560 0.170155 0.168773
-0.359051 0.352860 0.104899
-0.145155 0.179794 -0.143345
-0.139101 0.162174 -0.145686
-0.223823 0.193759 0.243656
-0.162529 0.178751 -0.155268
-0.375620 0.746544 -0.179898
-0.142599 0.176742 -0.175466
-0.349753 0.515811 0.033483
-0.166343 0.193315 -0.162336
-0.147401 0.179152 0.173431
-0.270841 0.241682 0.208783
0.386356 0.104941 -0.152816
-0.133515 0.168637 -0.180653
-0.182901 0.194818 0.144864
-0.159736 0.185992 -0.165661
-0.127480 0.166927 0.186563
-0.339774 0.606469 -0.312281
0.038876 0.213274 -0.152707
0.396512 0.081046 -0.228870
0.212368 -0.428889 0.072278
0.452576 -0.323121 -0.303320
-0.280554 0.254598 -0.208120
-0.159086 0.171601 0.136449
-0.160966 0.180893 -0.163785
-0.153979 0.163011 0.175678
-0.217219 0.195168 -0.144115
-0.158066 0.176920 -0.148623
-0.257560 0.183825 0.067701
0.085940 0.169033 0.154454
-0.006043 0.139902 -0.014796
-0.170581 0.174519 -0.165577
0.086953 -0.216801 -0.110769
-0.240083 0.196577 -0.209719
-0.193261 -0.418675 0.122559
-0.149518 0.176243 0.166142
-0.144002 0.178457 -0.149496
-0.287360 0.343502 -0.095395
-0.136881 0.179368 -0.170220
0.149132 -0.417757 0.373549
-0.059748 0.174837 0.169135
-0.170985 0.179816 -0.143820
-0.172256 0.180754 -0.171508
-0.149789 0.155245 -0.140829
-0.347830 0.323764 -0.303102
-0.183877 0.172329 0.197587
-0.105797 -0.338802 -0.243877
-0.127344 0.160383 0.193764
-0.095619 0.176923 0.183597
-0.159790 0.185956 -0.161124
-0.293721 0.222352 -0.276151
-0.383814 0.822775 -0.208686
0.079081 0.202243 0.321585
0.444673 0.081673 -0.285213
-0.170203 0.144893 0.204347
-0.151863 0.169998 0.144014
-0.114029 0.159453 0.154394
-0.369275 -0.417677 0.158253
-0.217841 0.213283 -0.088889
0.127499 -0.446940 0.031097
-0.203193 0.183156 -0.165923
-0.141157 0.194872 -0.188772
-0.073585 0.177422 0.151047
-0.113923 0.175279 0.162665
-0.418491 0.617660 0.087482
-0.131982 0.176242 0.169113
0.254796 0.145113 -0.150078
-0.127036 0.168326 -0.170633
-0.143365 0.160403 0.192142
-0.116656 0.169955 0.148385
-0.162721 0.196783 -0.176662
-0.114335 0.171756 0.172350
-0.087987 0.161201 0.161972
-0.160043 0.183648 -0.155113
-0.145025 0.175555 0.149411
0.361217 0.142226 0.209271
-0.131811 0.183741 -0.190079
0.401579 -0.153823 0.110963
-0.123891 0.180002 -0.161924
-0.393633 -0.315363 -0.257074
-0.077774 0.169772 0.182655
0.041329 0.083551 0.080453
-0.209171 0.189120 -0.180849
-0.115546 0.179371 0.171732
-0.178220 0.172453 0.121733
-0.121807 0.161834 0.190861
-0.235111 0.007281 -0.128694
-0.120388 0.170058 -0.137243
-0.093560 0.196618 -0.169492
-0.235249 0.194156 -0.179907
-0.258270 0.200965 -0.008614
-0.135302 0.170521 0.176331
-0.126938 0.172451 0.181473
-0.157527 0.171003 -0.182297
0.061830 0.191210 0.184112
0.454824 -0.122919 -0.264712
-0.093751 0.171365 0.184660
-0.418724 0.627491 0.187916
0.274515 -0.429732 -0.213497
-0.045030 0.170112 -0.216486
-0.199237 -0.330156 0.299949
-0.170831 0.182562 -0.190466
0.065040 0.125614 -0.088427
0.074191 0.158201 0.036659
-0.186673 0.168451 -0.183514
0.397289 0.002098 -0.188033
0.458256 -0.382046 -0.310213
0.024852 0.193362 -0.330088
-0.132141 0.175261 -0.143931
-0.132252 0.173335 0.166998
-0.162709 0.188772 -0.173739
-0.185656 0.176513 -0.153508
-0.039157 0.150523 -0.156190
-0.118293 0.169766 0.186508
-0.155245 0.161053 -0.161111
-0.127235 0.175769 0.166519
-0.164043 0.180898 -0.124506
-0.076759 0.167573 0.191325
-0.106623 0.165599 0.170778
-0.138540 0.174014 0.180380
-0.162059 0.161441 -0.069862
-0.357382 0.429821 0.257738
-0.121280 0.160783 -0.175991
-0.186298 0.173187 -0.169883
0.183049 0.121709 -0.079299
0.535000 -0.392177 -0.219333
-0.139010 0.168406 -0.136226
-0.439252 0.802570 -0.168019
0.093498 -0.290383 -0.320212
-0.188736 0.180531 -0.175790
-0.307513 0.246374 0.283114
-0.176762 0.191193 -0.154729
-0.129796 0.167223 -0.183424
-0.151337 0.179307 -0.165678
-0.141748 0.181754 0.165775
-0.130762 0.140439 0.130312
-0.002808 -0.471473 0.247205
-0.086626 0.147349 0.105045
-0.141740 0.156882 -0.169964
0.008152 0.175205 0.049788
-0.066531 0.186725 0.127271
-0.134155 0.178950 0.185299
-0.139213 0.167330 -0.169485
-0.159226 0.068097 -0.109744
-0.147694 0.174451 0.187209
-0.185985 0.181479 -0.130410
-0.026057 0.147172 -0.161270
-0.082122 0.160210 0.184388
0.451743 -0.178478 0.169727
-0.177851 0.183374 -0.168404
-0.116506 0.169783 -0.194516
-0.119947 0.158283 0.183476
-0.119247 0.167750 0.155044
-0.322026 0.393705 -0.040916
-0.181369 0.182356 -0.171805
-0.166587 0.116026 -0.131484
0.425721 0.035721 0.271096
-0.283870 0.178691 -0.038581
0.187613 0.222420 -0.262897
-0.110349 0.176412 0.163248
-0.119638 0.175596 0.152629
-0.064727 0.183060 -0.136127
-0.158685 0.172251 -0.150449
-0.166998 0.166345 -0.159708
-0.146725 0.178331 -0.174428
-0.063175 0.154967 -0.107638
-0.089098 0.158918 -0.151938
-0.425571 0.702251 -0.170980
-0.188869 -0.274952 0.063819
-0.192118 0.192155 -0.169302
-0.110601 0.169222 0.153517
-0.165156 0.154675 0.167529
-0.115140 0.179461 -0.174230
-0.126532 0.167199 -0.159240
-0.082741 0.148388 -0.125455
-0.151081 0.173902 -0.172633
-0.184653 0.148726 -0.159053
-0.166879 0.184123 -0.128720
-0.271081 0.041690 0.256259
-0.141446 0.158529 -0.147783
-0.147991 0.171062 0.175635
0.436278 -0.302746 -0.207606
-0.096300 0.179612 0.187357
0.254667 0.150558 -0.066308
-0.339627 0.219807 -0.047767
-0.122274 0.176155 -0.149274
-0.129458 0.173056 0.167200
-0.128993 0.166983 0.174902
-0.129790 0.174955 0.158297
0.017481 0.172031 0.109431
0.299839 -0.457888 -0.034844
-0.140483 0.175934 0.166120
-0.164251 0.166281 -0.141794
-0.143901 0.177395 0.172580
-0.321574 0.077022 0.100231
-0.121401 0.166734 0.141308
-0.161782 0.176158 0.164774
-0.094059 0.150877 -0.024426
0.382271 0.117171 -0.316622
-0.129354 0.169385 0.168348
-0.118511 0.165962 -0.156384
0.024134 0.203610 0.296871
-0.065953 0.162179 -0.326808
-0.109522 0.175216 0.178121
0.492186 -0.323275 0.317969
-0.185409 0.175396 -0.159843
0.351253 0.131928 0.316148
-0.173028 0.189921 -0.157227
-0.180454 0.180405 -0.162449
-0.021031 -0.414558 0.034764
-0.131104 0.171372 0.171774
-0.026108 0.130355 0.299664
-0.181082 0.182126 -0.131033
-0.144981 0.167571 -0.167356
-0.039661 0.155322 0.098735
-0.014257 0.183464 0.046853
-0.167593 0.072972 -0.197258
-0.138666 0.186150 0.175184
-0.148812 0.180477 -0.160925
-0.013076 0.149714 0.125962
-0.162123 0.174559 -0.190251
-0.171376 0.189381 -0.167679
-0.292200 0.283053 0.157233
-0.171468 0.157673 -0.182667
-0.137800 0.179637 0.191871
-0.251095 0.152769 0.147876
-0.129931 0.178253 0.172722
-0.256549 0.164234 0.221509
-0.116717 0.173085 0.160881
0.046760 0.141319 0.133365
-0.155488 0.165501 -0.153589
-0.128701 0.169126 0.189058
-0.142172 0.175358 0.181638
-0.139794 0.164815 0.068002
-0.130307 0.180978 0.179437
-0.176376 0.183298 -0.168675
-0.320769 0.283629 -0.255913
-0.130528 0.173555 0.177561
-0.142645 0.176452 -0.164200
-0.151816 0.173483 -0.154027
0.529242 -0.112319 0.263197
-0.113905 0.163575 0.164793
-0.187492 0.173611 0.182264
-0.147541 0.167108 0.178527
-0.192035 0.187124 -0.161958
-0.151042 0.177098 -0.164867
-0.220056 0.162831 -0.223961
-0.151072 0.180249 -0.169659
-0.221979 0.189110 -0.162034
-0.167870 0.183810 -0.166975
0.449937 -0.020052 -0.027351
-0.255853 -0.349109 0.177690
-0.126630 0.176962 0.190675
-0.113865 0.162591 0.188072
-0.160753 0.176744 -0.169758
-0.150844 0.177569 -0.142056
-0.149586 0.188557 -0.161682
-0.152417 0.185683 -0.162556
-0.131863 0.164633 0.168186
-0.162557 0.161982 0.147738
-0.221600 0.087715 -0.037136
-0.169611 0.188705 -0.120987
-0.084764 0.160722 0.186684
-0.121014 0.172079 0.163790
-0.156870 0.179365 -0.185920
-0.154800 0.169943 -0.175941
-0.182919 0.187695 -0.158236
-0.124507 0.173021 0.181127
0.306022 -0.258627 -0.228201
-0.391191 0.709953 0.194366
-0.321821 0.168664 0.205907
-0.131446 0.168827 -0.171905
-0.242585 0.202596 0.055301
-0.121090 0.191866 -0.162650
0.146542 0.133098 -0.128524
-0.021009 0.123684 -0.328428
-0.210571 0.176855 -0.159578
-0.204598 0.183488 -0.164395
0.289685 -0.353860 0.070306
-0.135597 0.167757 0.138633
0.416495 -0.123409 -0.078501
-0.115217 0.151694 0.178501
-0.096770 0.132517 -0.238815
0.441969 0.144539 0.196523
-0.145393 0.155693 0.155346
-0.102615 0.182125 0.164724
-0.273460 -0.435260 -0.151676
-0.155404 0.147054 -0.303636
0.115882 0.129981 -0.014826
-0.332929 0.460044 -0.225343
-0.164497 0.189973 -0.151575
0.032962 0.151883 0.022462
-0.160537 0.154274 -0.140982
-0.145229 0.186081 -0.168240
-0.179362 0.161838 0.154095
-0.144272 0.169839 -0.163690
-0.197934 0.196795 -0.105845
-0.200855 0.157064 0.192173
-0.145284 0.176731 0.166797
-0.149317 0.174171 0.141832
-0.152795 0.166119 -0.160599
0.462717 -0.035658 0.204955
-0.103200 0.159577 0.176189
-0.181677 0.185393 -0.200323
-0.157601 0.198676 -0.152023
0.426959 -0.018427 0.106053
-0.532072 -0.448871 0.274366
-0.320984 0.229352 -0.169867
-0.130523 0.136061 0.131432
-0.142428 0.137570 -0.229936
-0.245165 0.139132 -0.189404
0.274612 -0.060155 0.027178
-0.153083 0.168645 -0.170904
-0.330239 0.154513 -0.099314
0.047357 0.151976 -0.114625
-0.359657 -0.454869 0.302522
-0.017497 0.171589 0.218029
-0.159381 0.140673 0.322945
-0.173855 0.182266 -0.170887
-0.156207 0.179436 0.196292
-0.157992 0.186580 0.080257
-0.150696 0.178206 -0.154025
-0.190784 0.179755 -0.163689
0.107141 0.165242 -0.115214
-0.184542 0.190515 -0.161831
-0.157268 0.157327 0.174697
-0.160494 0.181523 0.179467
-0.127634 0.178415 -0.165803
-0.099963 0.161563 0.144888
-0.099772 0.153229 -0.153639
-0.142993 0.175159 0.175761
-0.105537 0.157126 0.179974
-0.190072 0.185355 -0.182069
0.137341 0.401436 -0.360781
-0.010972 0.169240 -0.204351
-0.307405 0.000126 -0.101297
0.145654 0.167932 0.223248
0.039536 0.115005 0.037966
-0.205109 0.191420 -0.171523
-0.148117 0.189719 0.168814
0.066040 0.139842 0.282912
0.017996 0.139222 0.206653
-0.408799 0.523565 -0.134066
-0.178728 0.175863 -0.165637
-0.131195 0.168572 0.156388
-0.141517 0.176389 0.191255
0.012487 0.120915 -0.090926
-0.116107 0.167606 0.151227
-0.381414 0.707388 -0.008404
0.129123 0.159307 0.268284
-0.132669 0.167582 0.173018
-0.164629 0.160057 0.200077
0.101153 0.144110 0.127365
0.070131 0.159255 -0.031281
0.474265 -0.119601 0.137114
-0.173911 0.186326 -0.175660
-0.120532 0.173918 0.189529
-0.190202 0.172856 -0.205637
-0.188470 0.172756 0.144925
0.188508 0.143850 0.198557
-0.135038 0.178059 0.176445
-0.133098 0.154909 0.144160
0.285964 0.173760 0.291099
-0.232312 0.196703 -0.015790
-0.198452 0.178174 -0.162497
0.207543 0.148558 0.109726
0.022431 0.162577 0.131500
-0.106769 0.181124 -0.142186
-0.026730 0.195230 0.228183
-0.123849 0.141515 -0.313378
-0.184753 0.190926 -0.186094
0.217789 -0.479218 -0.065674
0.038644 0.146414 -0.153150
0.117773 0.185181 -0.249075
-0.177951 0.191152 -0.171150
-0.151259 0.153994 0.128038
-0.132881 0.173467 0.180186
-0.024224 0.153869 0.204687
-0.280281 0.249295 0.087683
-0.059983 0.157182 -0.000673
0.320935 0.080701 0.243113
-0.158023 0.179480 -0.164787
-0.138833 0.167948 0.181032
-0.108540 0.161660 0.166128
-0.178246 0.197894 -0.160858
0.005543 0.135285 -0.192220
-0.142551 0.172632 -0.160628
-0.210765 0.169645 -0.229141
-0.103156 0.164912 0.171204
-0.108200 0.168102 -0.167112
-0.144759 0.167755 0.165387
-0.149930 0.178971 -0.160855
-0.142606 0.183970 -0.180976
-0.344871 0.432895 0.318334
-0.134678 0.167216 0.171126
0.414473 0.081341 -0.348559
-0.153228 0.176795 0.174625
-0.249113 -0.159551 -0.280790
-0.139942 0.168028 0.179161
-0.190636 0.175823 -0.175933
-0.201258 0.726949 0.329978
-0.333087 0.129544 0.283780
-0.063754 0.168609 -0.143169
-0.137455 0.163513 0.181368
-0.158662 0.175866 -0.175375
-0.126527 0.162330 0.184598
-0.089400 0.166678 0.152057
-0.186739 0.186873 -0.113902
-0.170065 0.180551 -0.157531
-0.304468 0.120064 -0.193733
-0.150926 0.172660 -0.150875
-0.146677 0.189855 0.149433
-0.196636 0.197085 -0.135504
0.432506 -0.213495 0.032341
-0.143723 0.179747 0.172972
-0.190691 0.168815 0.074248
-0.137788 0.182417 -0.148119
-0.202081 0.188813 -0.165127
-0.135342 0.171196 -0.185183
-0.249523 0.176469 0.164382
-0.254365 0.420389 -0.280483
-0.132297 0.168925 0.166344
-0.450407 -0.361894 -0.130234
-0.159295 0.191549 -0.140569
-0.309251 0.266064 0.142067
0.250810 0.219062 -0.066673
-0.162049 0.173272 -0.111362
-0.083410 0.146176 -0.135880
0.454501 0.027830 0.240323
-0.206901 0.189934 -0.175942
0.139762 0.190839 -0.077645
-0.136860 0.166951 0.148755
-0.187335 0.172379 -0.171696
-0.129654 0.183200 -0.167345
-0.155661 0.184837 -0.164389
-0.028064 0.146582 0.199155
-0.373970 0.555815 -0.073734
0.331170 -0.179579 0.088128
-0.152727 0.172581 0.176565
-0.132370 0.162992 0.168916
0.444066 -0.419756 0.062380
0.027979 0.178375 0.337796
-0.198680 0.199390 -0.099776
-0.143578 0.183896 0.168696
-0.113959 0.166510 0.175000
-0.173822 0.190820 -0.149222
0.045741 0.159978 -0.308332
-0.122591 0.152974 0.165208
-0.016160 0.136998 0.175634
-0.316219 0.340477 -0.311154
-0.484963 -0.266210 0.128113
-0.402547 0.601520 0.261675
-0.130281 0.169701 0.169261
-0.081667 0.156798 0.193480
-0.122412 0.168162 0.170366
-0.324191 0.318823 -0.001272
0.425824 0.162706 0.260591
0.029082 -0.464349 -0.267807
-0.014390 0.184305 -0.205905
-0.363588 0.678181 -0.188902
-0.033248 -0.420533 0.249157
-0.168301 0.182838 -0.153167
-0.168332 0.191960 -0.162036
0.134176 0.098230 0.179888
-0.009065 0.195227 0.311872
-0.127672 0.141120 0.011872
-0.431506 0.806778 -0.061905
-0.425743 0.795731 -0.279589
-0.118933 0.191943 0.187132
-0.305489 -0.505519 -0.257267
0.457595 0.140460 0.047137
-0.157063 0.171308 0.165832
-0.077096 0.176961 -0.344529
-0.124473 0.166601 0.170966
-0.127014 0.171981 0.180621
0.374036 -0.424233 -0.055771
-0.111764 0.172727 0.166270
-0.134659 0.155154 -0.147432
-0.181752 0.184212 -0.176748
0.337127 0.164884 0.047920
-0.147270 0.167349 0.160460
-0.060924 0.161068 0.242841
0.232135 -0.424314 0.178612
-0.106473 0.181743 -0.139341
-0.357808 0.534954 0.286972
-0.397726 0.643993 -0.213712
0.373662 -0.260051 0.249168
0.532642 -0.176700 -0.287473
-0.044722 0.164030 -0.276872
-0.004001 0.186377 -0.109704
-0.170968 0.173910 -0.167195
-0.125638 0.168529 0.176912
0.383706 0.087826 -0.176777
0.039685 0.152438 0.176174
0.132956 0.109709 0.063334
-0.131100 0.153370 0.162319
-0.156184 0.171921 -0.111826
-0.137609 0.175299 0.174150
-0.020304 0.189197 -0.071388
0.028295 0.155038 -0.192101
0.099550 -0.347440 -0.061525
-0.068851 0.159538 0.196525
0.221092 -0.416284 -0.253787
-0.148331 0.175625 -0.124627
-0.330280 0.407016 -0.212695
0.439290 0.106319 -0.222558
-0.374070 -0.039088 0.225955
-0.119157 0.155487 0.138209
-0.129820 0.173440 0.178837
-0.061459 0.176841 -0.102862
-0.163904 0.168903 0.182255
-0.148411 0.184106 -0.159738
0.227719 0.190476 -0.315860
0.453322 -0.154075 -0.344029
-0.108538 0.174072 -0.093899
-0.062713 0.116116 -0.008665
-0.147860 0.166187 0.170231
-0.149840 0.188360 -0.150185
-0.148788 0.174421 0.160671
-0.131623 0.168454 0.178307
-0.097624 0.163769 0.162791
-0.037998 0.171877 0.172941
-0.185174 0.197047 -0.085805
0.163905 0.157713 -0.190169
-0.143353 0.168240 0.168701
0.233721 0.078576 0.288262
-0.158808 0.203042 0.251624
-0.148689 0.170754 -0.173711
-0.142168 0.183604 -0.154723
-0.334775 0.367073 -0.261722
-0.368486 0.748713 0.141109
-0.351623 0.438883 -0.320866
-0.107838 0.192682 -0.046740
-0.225720 0.097646 -0.246176
-0.172748 0.168509 -0.169425
-0.182579 0.161415 0.291395
-0.129119 0.167085 0.171968
-0.107508 0.177323 -0.174009
0.371020 0.096275 -0.245286
-0.159199 0.153876 0.026188
-0.144277 0.169643 -0.160059
0.407661 0.136867 0.123986
-0.167846 0.173941 -0.151425
0.107553 0.138981 0.290510
-0.196750 0.179972 -0.150119
-0.154033 0.184963 -0.137121
-0.120136 0.161040 0.177102
-0.174298 0.176545 0.173828
-0.141309 0.168368 -0.166332
-0.002894 0.178378 -0.111719
-0.120651 0.175259 0.155087
-0.340005 0.498920 0.149154
0.145993 0.189821 0.259057
-0.152231 0.165086 0.186690
-0.179589 0.180521 -0.161804
-0.187432 0.165692 0.211135
-0.382409 0.606188 0.042216
-0.120985 0.183847 -0.203944
0.263681 0.180705 -0.261767
-0.108870 0.166407 0.166777
0.297852 0.186824 -0.037023
-0.148417 0.166509 -0.139747
-0.341106 0.574488 -0.161914
-0.385492 0.112791 -0.140365
-0.093852 0.179247 -0.022058
0.354714 0.165375 0.164861
-0.236053 0.177061 0.206994
0.412931 -0.414631 -0.288029
-0.118601 0.173574 0.176499
-0.137492 0.162626 0.143847
-0.128517 0.152052 0.144270
-0.177890 0.185648 -0.171475
-0.149180 0.163386 0.189185
-0.139143 0.176656 0.188579
-0.163734 0.180626 -0.176653
-0.142093 0.173928 -0.173011
-0.233668 0.153013 -0.340648
-0.262507 0.209248 -0.052976
-0.110191 0.158291 0.188069
0.079251 0.144897 -0.140126
-0.061327 0.213408 -0.227762
0.261143 -0.439750 0.280027
0.398283 0.094051 -0.226688
-0.104958 0.175573 -0.188607
-0.134898 0.187100 -0.175668
-0.158456 0.171312 -0.138381
-0.311956 0.226486 0.153205
0.327155 0.152698 -0.231635
-0.047604 0.148186 0.210355
-0.126889 0.154665 0.144274
-0.173180 0.181584 -0.140757
-0.185267 0.187845 -0.159036
-0.386150 -0.520566 0.221388
-0.157451 0.194479 -0.169148
-0.006198 0.141685 0.201503
-0.121853 0.175969 0.179546
-0.140354 0.175462 0.178816
0.404231 0.075923 0.249137
-0.154264 0.183061 -0.164608
-0.227063 0.173783 0.118002
-0.142079 0.170696 0.171291
-0.137778 0.168998 0.193600
-0.168688 0.156627 -0.176706
-0.136257 0.179807 0.184833
-0.134718 0.169169 -0.151356
-0.193824 0.177374 -0.169541
-0.154376 0.179465 -0.169744
-0.425360 0.638372 0.131364
-0.149101 0.174454 -0.166695
0.102036 -0.411852 0.189538
0.020798 -0.445222 -0.086127
-0.158247 0.173122 -0.176592
-0.014856 0.146308 -0.240149
-0.273308 0.187923 0.010117
-0.346764 0.389906 0.178963
-0.134247 0.177657 -0.161361
-0.198399 0.180163 -0.157485
-0.132938 0.149135 0.153341
-0.140025 0.174055 -0.182679
-0.343521 0.273026 0.292717
-0.134939 0.150888 -0.150780
-0.448473 0.732253 0.104679
0.466980 0.029059 -0.245362
0.090785 0.216666 0.230335
-0.055454 0.188237 0.180064
-0.103881 0.189111 -0.176156
-0.188731 0.198150 -0.169316
-0.055252 0.164868 0.045995
-0.454896 0.686951 0.231090
-0.092290 0.138071 0.172113
-0.154208 0.177006 -0.156047
-0.197663 0.181503 -0.156719
-0.153624 0.175869 -0.154818
-0.107089 0.160314 0.176998
-0.119753 0.172569 0.170349
-0.123176 0.174658 -0.153168
-0.117359 0.172418 0.161368
-0.123832 0.155211 0.168654
-0.157573 0.178769 -0.170951
-0.177182 0.185102 -0.195393
-0.140455 0.177577 0.180322
-0.117578 0.164003 0.151857
-0.385769 0.487035 0.305242
-0.123803 0.156493 -0.135948
-0.318524 -0.058422 0.269001
-0.195629 0.152839 -0.166573
-0.149589 0.190390 -0.175217
-0.128401 0.166710 0.169382
-0.116220 -0.303191 -0.121435
-0.129171 0.180722 0.174941
-0.113752 0.160292 0.156643
-0.045243 0.147574 0.254051
-0.156021 0.173195 -0.159292
-0.186992 0.182585 -0.164438
-0.121517 0.181037 -0.140930
-0.149560 0.171569 0.166662
-0.049871 0.167530 0.056357
-0.395527 0.538098 0.210970
-0.360515 0.126793 -0.271105
-0.139327 0.177965 -0.143413
-0.224006 -0.314767 -0.076678
-0.154149 0.165330 -0.168091
0.007464 0.188766 0.182404
-0.106569 0.144798 -0.150125
-0.147683 0.186325 0.174454
0.367454 -0.443039 -0.294844
-0.177477 0.167777 -0.185662
-0.152818 0.169306 -0.154373
-0.152335 0.163066 0.180432
-0.202661 0.200020 -0.081485
-0.142588 0.163438 -0.135103
-0.181552 0.182328 -0.154934
-0.139480 0.154215 0.220420
-0.013001 0.149586 -0.085650
-0.147099 0.182056 -0.138824
0.037222 0.166457 0.004683
-0.309344 0.218119 0.123784
0.153764 0.366885 0.351978
-0.301210 0.140001 0.142172
-0.163388 0.166899 -0.069367
-0.165995 0.177932 -0.160659
0.047441 0.159072 0.330991
0.457374 0.068802 -0.166280
-0.158306 0.172507 -0.170122
-0.143539 0.181393 0.137873
-0.139565 0.175595 -0.160632
-0.135554 0.172250 0.171984
-0.087750 0.171502 0.173546
-0.234248 0.183811 -0.233054
-0.120818 0.173710 0.172426
-0.130401 0.167144 0.158797
0.160938 -0.507977 -0.225525
-0.401150 0.615013 -0.267704
-0.279101 0.224737 0.005588
-0.137789 0.186931 -0.156892
-0.162685 0.173538 -0.153989
-0.085053 0.159362 -0.251044
-0.101384 0.158420 0.163604
-0.111439 0.154098 0.175692
-0.162841 0.179098 -0.169266
0.122065 0.217684 -0.010112
-0.336152 0.336968 -0.179881
-0.066815 -0.276856 0.023868
-0.113979 0.186955 -0.175539
-0.134657 -0.459160 -0.215408
-0.104376 0.168576 0.180697
-0.112293 0.158941 0.179224
-0.031627 0.155395 -0.087364
-0.162166 0.165000 0.186539
-0.180721 0.178352 -0.112114
0.280970 0.154841 0.150679
-0.166396 0.181753 -0.159789
-0.033564 0.165893 0.081204
-0.342227 0.516754 -0.282601
-0.091160 0.174944 0.165925
0.225119 0.155225 -0.169501
-0.034382 0.211779 0.024344
-0.258619 0.166825 0.319659
-0.170618 0.174244 0.157703
-0.324611 0.507357 -0.091608
-0.147589 0.177333 -0.168063
0.081274 0.164290 0.088359
-0.162997 0.178617 -0.175130
-0.336738 0.198001 0.008309
-0.130139 0.167983 0.160837
-0.144009 0.170303 0.179078
-0.109740 0.171505 0.179098
-0.157812 0.163018 0.180365
-0.285982 0.251116 -0.096394
-0.145030 0.155680 -0.171705
-0.119756 0.152979 0.173655
-0.145569 0.163586 -0.163748
0.160366 0.139062 -0.327828
-0.328221 0.469678 -0.022870
-0.235507 0.061690 -0.250145
-0.194520 0.191629 -0.168526
-0.011575 0.143427 0.132476
-0.108453 0.177999 0.133829
0.122661 0.155145 0.135979
0.410917 -0.433201 -0.123852
-0.166170 0.186052 -0.165578
-0.129512 0.180226 0.179739
-0.126599 0.151439 -0.312754
-0.343584 0.188737 -0.154499
-0.127196 0.169586 0.175242
-0.302717 0.192737 0.335769
-0.315966 0.235341 -0.139396
-0.123754 0.176743 -0.166916
-0.172102 0.186414 -0.155010
-0.170621 -0.393826 0.216183
-0.117595 0.174803 0.174659
0.366011 0.102259 -0.079682
-0.145692 0.181983 -0.160198
-0.051400 0.168530 0.151867
-0.152205 0.182045 -0.174521
-0.319362 0.386843 -0.154041
-0.147712 0.165212 -0.158459
-0.183379 0.183625 -0.164218
-0.071311 0.144378 -0.309865
-0.143240 0.172989 0.177409
-0.079947 0.022491 -0.065823
-0.146655 0.185963 -0.169160
-0.139527 0.169717 -0.144298
-0.102236 0.165774 0.148301
0.531842 -0.077500 -0.294743
-0.106264 0.157189 0.108772
-0.152657 0.169862 0.171952
-0.116394 0.176395 0.182281
-0.176961 0.154595 -0.172026
-0.374700 0.368680 0.207912
-0.147490 0.191861 -0.149049
-0.188883 0.173287 -0.166205
-0.130058 0.162589 0.144282
-0.128527 0.186367 0.183065
-0.028786 0.153620 0.103699
-0.146827 0.158817 0.186226
0.339170 0.182219 -0.273186
-0.057827 0.166777 0.190549
0.259385 0.228747 0.144838
0.389611 -0.151572 -0.046488
-0.139416 0.174491 -0.146059
0.398827 0.070196 -0.193793
-0.128816 0.189159 -0.211610
-0.137094 0.176942 -0.152541
-0.109703 0.167080 0.174482
-0.161370 0.168410 -0.170065
-0.165105 0.169013 -0.158404
-0.080987 0.172133 0.165571
0.452251 -0.001558 -0.204454
-0.062058 0.153622 0.227438
-0.140168 0.191659 -0.162212
-0.291747 0.423943 0.136348
-0.108333 0.166423 0.186280
-0.191723 0.179842 -0.188629
0.254760 0.156790 -0.307357
-0.086859 0.181983 0.222712
-0.113678 0.171352 0.168829
-0.128184 0.178463 -0.139419
-0.102869 0.171027 -0.184575
-0.165573 0.166598 -0.165454
-0.153576 0.184387 -0.163791
-0.029734 0.165307 0.156856
-0.105798 0.145049 0.188706
-0.129579 0.177428 0.168853
-0.176062 0.184053 -0.180749
-0.382083 0.691098 0.106006
-0.369538 0.267132 0.151937
-0.129382 0.163449 0.188849
-0.290862 0.366894 0.217137
-0.138655 0.165423 -0.067637
-0.189059 0.109348 -0.334880
-0.105404 -0.290428 0.201296
-0.152124 0.181529 -0.169368
0.412204 0.106866 -0.148415
-0.139552 0.177746 -0.164436
-0.134596 0.152783 -0.133693
-0.151427 0.164191 -0.170876
0.215965 0.155372 0.161831
-0.289167 0.287399 -0.073176
-0.032893 0.157396 0.224124
0.368884 0.194364 0.115505
-0.340008 0.265947 -0.312885
-0.063135 0.205449 0.279409
-0.159998 0.187771 -0.166011
-0.118339 0.174063 -0.142110
-0.062995 0.186749 0.145214
-0.129094 0.171027 0.177365
-0.163129 0.201624 -0.158030
-0.153099 0.177591 0.199761
-0.162602 0.166024 -0.159762
0.408178 0.140343 -0.307313
0.444134 -0.064195 -0.088278
-0.136251 0.172196 -0.118410
-0.237618 -0.363475 -0.306590
-0.143054 0.172079 0.178760
-0.156999 0.167757 -0.102355
-0.107176 0.176816 0.167925
-0.169557 0.185216 -0.173228
-0.122159 0.173074 0.171196
-0.142952 0.180027 -0.162177
-0.134933 0.154909 0.095703
-0.194812 0.166649 -0.164398
-0.156616 0.181913 -0.170729
-0.120106 0.185762 0.169250
0.023766 0.135583 -0.116210
-0.136478 0.186441 0.188666
0.392136 0.030281 -0.090077
-0.335630 0.233835 -0.229532
-0.139399 0.175659 0.291702
-0.197192 0.183607 -0.160710
0.200999 -0.410848 0.141273
-0.401578 0.618996 -0.025217
-0.133908 0.178994 0.129021
-0.306576 0.199164 0.123049
-0.122181 0.164635 0.123248
0.086048 0.109935 0.139782
-0.145750 0.171055 -0.180936
-0.165101 0.160190 -0.148558
-0.432986 0.637319 -0.123395
-0.116912 0.099042 0.149877
-0.131327 0.197991 -0.179082
-0.138901 0.162010 0.157780
-0.155514 -0.441454 0.285201
-0.034139 0.182961 0.191560
-0.082785 0.163270 0.166046
-0.090647 0.150837 -0.108246
-0.159505 0.182178 -0.172684
-0.127353 0.172911 0.170612
-0.182359 0.182144 -0.171894
-0.113739 0.170191 0.170192
-0.153797 0.179339 -0.172974
-0.152410 0.183573 -0.171064
-0.139697 0.174664 -0.177958
-0.169582 0.181749 -0.178481
-0.300472 0.217872 -0.062198
-0.165897 0.175611 -0.063897
0.236126 0.023487 -0.278156
-0.117797 0.162671 0.156212
-0.153019 0.182839 -0.147644
-0.151256 0.168050 0.179306
-0.350444 0.405097 0.068637
-0.194706 0.197336 -0.160747
-0.159429 0.167487 0.222560
-0.156633 0.187209 -0.152217
-0.145653 0.166965 0.174381
-0.297675 0.329242 0.154137
0.016774 0.158891 -0.191064
0.399344 0.044101 0.313665
-0.170455 0.165344 0.114205
-0.150978 0.188269 -0.154304
-0.397166 0.821492 0.250219
-0.273542 0.209047 0.094097
0.325509 -0.395524 -0.307308
-0.194589 0.188570 -0.104715
-0.122757 0.165364 0.153109
0.347377 -0.437248 -0.241109
-0.151617 0.183712 -0.163139
0.441281 0.087811 0.312316
0.311963 0.065400 -0.225512
-0.049144 0.153670 -0.108148
-0.140904 0.160823 0.179459
0.361973 -0.372685 0.190453
-0.201246 0.177970 0.210756
-0.177860 0.180542 -0.177547
-0.381678 0.481528 -0.272560
-0.107886 0.174185 0.198264
-0.209487 0.167358 -0.122037
-0.344478 0.666936 0.067955
-0.138216 0.163918 -0.169571
0.091988 0.104259 -0.268475
-0.152036 0.164928 -0.066314
-0.127638 0.161252 -0.126740
0.313618 0.142479 0.336079
-0.163469 0.166208 -0.166133
-0.223609 0.133130 0.136291
-0.109558 0.173688 0.165185
0.451555 -0.109519 -0.025411
-0.139411 0.180582 -0.158850
-0.148804 0.183677 -0.159052
-0.197932 0.179996 -0.169495
-0.115681 0.172770 0.162982
0.380460 0.073628 -0.287796
-0.153230 0.182602 -0.149250
0.195573 0.125058 0.304903
-0.040227 0.152817 0.213029
0.268256 0.169882 -0.153065
-0.126227 0.145520 0.143427
-0.066450 0.133556 -0.077933
-0.117161 0.161475 0.159262
0.398786 -0.056582 0.236170
0.409414 0.084400 0.108846
-0.113130 0.165682 -0.139256
-0.171922 0.185822 -0.168572
-0.107661 0.161308 0.109670
0.184080 0.198207 0.129133
-0.230177 0.159177 0.097588
-0.369475 0.245692 -0.201094
-0.148905 0.175582 0.178634
0.137516 0.172092 -0.151536
0.110151 0.085809 -0.175703
-0.099006 0.177453 0.165612
0.263926 0.178470 0.270723
-0.169785 0.174435 -0.180852
-0.326626 0.340468 0.270364
-0.131761 0.181564 -0.148249
-0.134196 0.180573 -0.169248
-0.178389 0.175338 0.147511
-0.045936 0.191363 0.366008
-0.141765 0.161675 -0.168931
0.283591 -0.188270 -0.063669
-0.379291 0.398885 -0.274758
-0.187815 0.186497 -0.167619
0.087176 0.086550 -0.204081
-0.131726 0.173364 0.170724
-0.239946 0.191565 0.210531
-0.145455 0.182510 -0.163677
-0.265063 0.199044 -0.088822
0.170522 0.043580 0.066934
-0.118051 0.171355 0.183828
-0.082251 0.145246 -0.116846
-0.120297 0.175073 -0.123791
-0.141329 0.179311 -0.146276
-0.153060 0.132693 0.198556
0.211905 0.121719 -0.000602
-0.157818 0.156793 -0.146704
-0.146361 0.188247 -0.157098
-0.169688 0.170339 -0.166395
-0.112103 0.202161 0.137233
-0.095394 0.156599 0.151918
-0.367544 0.251751 0.032852
-0.148573 0.175167 -0.146492
0.375693 -0.438615 0.287739
-0.204968 0.187444 -0.129670
-0.090945 0.181452 0.149926
-0.119779 0.184645 -0.154707
-0.154541 0.163015 -0.185298
-0.127738 0.163687 -0.128205
-0.319873 0.632508 0.238633
-0.102360 0.173613 0.178655
-0.203110 0.188340 -0.172829
0.195871 0.222285 -0.181849
-0.341709 0.365127 0.305212
-0.157326 0.176390 -0.176452
-0.180877 0.186784 -0.164039
-0.130893 0.167772 0.179934
0.107128 -0.392038 -0.319839
-0.419485 0.530371 0.037404
-0.326531 0.544016 0.225413
-0.134028 0.170781 -0.149197
-0.151989 0.171834 -0.149522
0.319544 0.137408 -0.257658
0.007644 0.177380 -0.343572
-0.124104 0.174273 0.173403
-0.069808 0.157877 0.135773
-0.195869 0.183805 -0.175705
-0.150293 0.174683 -0.170727
-0.175479 0.199065 -0.153407
-0.393076 0.870582 0.018458
-0.173354 0.182016 -0.159345
-0.147307 0.170845 -0.169907
-0.425668 0.131968 0.130598
-0.181571 0.187767 -0.150482
-0.167831 0.193902 -0.162736
-0.014675 0.008857 0.198154
-0.304190 0.081517 -0.291153
-0.342696 0.553688 0.317412
-0.068611 0.170158 -0.124844
-0.302840 -0.071622 -0.223548
-0.120528 0.166733 0.192624
0.386420 -0.354272 -0.160640
-0.090740 0.193348 0.119468
-0.130872 0.090597 0.182409
0.096372 0.144575 -0.231494
-0.017735 0.166389 0.156712
0.412443 -0.366578 0.301594
-0.146685 0.173690 -0.163662
-0.178072 0.145467 0.213388
-0.195326 0.193673 -0.176417
-0.006007 0.164973 -0.143183
-0.143249 0.180149 0.202796
-0.175539 0.162099 -0.161855
-0.136573 0.171226 0.186800
-0.158033 0.125080 0.143652
-0.150396 0.176939 0.168620
-0.152175 0.182895 -0.175787
-0.178611 0.193198 -0.174116
-0.408949 -0.482555 -0.236440
-0.118878 0.162259 0.181703
0.141355 -0.260910 0.060697
-0.241263 0.207064 -0.215725
-0.438771 0.780217 0.023381
-0.145398 0.171416 0.169270
-0.394333 0.706186 0.267033
-0.352589 0.611057 -0.125271
-0.172571 0.183745 -0.175731
-0.204347 0.185581 -0.166618
-0.142134 0.128432 -0.157932
-0.133999 0.176105 0.180529
-0.139595 0.169777 -0.176072
-0.036276 0.162370 -0.223599
-0.021579 0.134044 0.000111
-0.126451 0.173909 0.171218
-0.120188 0.161822 0.154071
-0.156701 0.169269 -0.168175
-0.057724 0.138016 0.195809
-0.181850 0.166508 -0.155448
0.481264 -0.242273 0.252313
-0.137204 0.158516 0.183777
-0.051333 0.163203 -0.203023
0.143918 0.146216 0.075257
0.293365 0.197774 0.239267
-0.302385 0.148300 -0.096487
-0.142123 0.178193 0.174477
0.368589 -0.555382 -0.299409
-0.135474 0.169198 0.178392
-0.071694 0.119694 0.098461
-0.276254 0.197007 0.191187
-0.134933 0.177621 -0.133515
-0.117959 0.166017 0.152379
0.519991 -0.007028 -0.105198
-0.178942 0.187429 -0.173958
-0.146596 0.165232 0.180157
-0.045493 0.168567 0.116113
-0.119589 0.152599 -0.161810
-0.111012 0.179351 -0.166983
0.334250 -0.151022 0.321103
-0.178405 0.193423 -0.160993
-0.005364 0.167935 -0.272942
-0.056198 0.167205 -0.216316
-0.167043 0.181601 -0.164237
-0.202623 -0.389284 -0.032515
-0.159881 0.185833 0.144758
-0.341034 0.345150 -0.121770
-0.137145 0.172597 0.184883
-0.167361 0.159247 -0.166593
-0.199708 0.185685 -0.175047
-0.165087 0.179048 -0.167634
-0.413327 0.721762 0.338580
-0.163433 0.177231 -0.169658
-0.115170 0.166575 0.163155
-0.260267 0.686053 -0.322654
-0.128625 0.167488 0.180002
-0.043929 0.149260 -0.221842
-0.076236 0.181790 0.258843
-0.166169 0.177362 0.186755
-0.144045 0.166674 -0.179389
-0.123022 0.174512 0.171703
-0.367319 -0.394290 0.197843
-0.151817 0.158145 0.178118
-0.117502 0.171545 -0.176832
-0.154711 0.169179 -0.159435
-0.166040 0.170880 -0.151697
0.496470 -0.025354 0.282595
-0.136566 0.170753 0.171187
-0.045320 0.121004 -0.264219
-0.099872 -0.400840 0.313228
-0.217558 0.194813 -0.126156
-0.094701 0.173641 0.151155
-0.122485 0.178450 -0.162040
-0.188115 0.156157 0.208316
0.368375 -0.388506 0.114010
-0.119312 0.174887 0.177904
-0.199143 0.032906 0.245675
-0.366053 0.475435 0.221969
-0.138965 0.179570 -0.164219
-0.169494 0.061535 0.092065
-0.394897 0.858660 -0.090475
-0.147973 0.181233 0.158274
0.181093 -0.411050 0.299499
-0.175098 0.171913 0.202041
-0.057030 0.152345 0.173232
-0.129396 0.180290 -0.160829
-0.176073 0.179917 -0.298889
-0.106967 -0.401587 0.075223
-0.271560 0.160100 0.151937
0.424004 0.111770 0.195346
0.383565 0.140403 -0.041572
-0.081836 0.170253 0.165197
-0.364578 0.421902 0.174190
-0.147261 0.176614 -0.153611
-0.122592 0.169108 0.177703
-0.122728 0.178720 0.174904
-0.068295 0.166892 -0.182294
-0.037587 0.185463 -0.107740
-0.159869 0.181086 -0.181280
-0.141514 0.187536 0.164951
-0.151550 0.164922 0.171947
-0.164611 0.182665 -0.171359
-0.121477 0.168783 0.157298
-0.041182 0.180274 0.197810
-0.071831 0.122270 0.000251
-0.195917 0.166407 -0.109052
0.517443 0.044755 0.231547
0.283415 0.115306 -0.019750
0.431810 -0.090312 -0.136460
-0.149357 0.184849 -0.145260
0.291411 -0.437468 -0.125836
-0.178904 0.186810 -0.168521
-0.376231 -0.404318 -0.054371
-0.165615 0.186447 -0.166342
-0.368875 0.482989 0.170075
-0.093479 0.185867 -0.165991
-0.163528 0.189877 -0.163207
-0.115619 0.164796 0.163764
0.004795 -0.406134 -0.332847
0.198602 0.040430 0.223618
-0.098711 0.174958 -0.172055
-0.136912 0.192174 -0.143440
-0.163147 0.172136 -0.173530
-0.109266 0.176318 -0.141041
-0.159382 0.182263 -0.167385
-0.262379 0.202265 0.074706
-0.142999 0.177866 0.186569
-0.142863 0.160915 0.167997
-0.184617 0.175230 -0.119622
0.064366 0.153773 0.228845
-0.342035 0.448634 -0.255600
-0.137041 0.182735 -0.156883
-0.135272 0.182355 -0.170302
0.364165 -0.351037 0.263953
-0.136059 0.172549 0.176356
-0.222944 0.181709 -0.166520
-0.076620 0.177840 -0.157295
-0.164457 0.160971 0.179665
-0.342354 0.693432 0.327508
-0.045294 0.170639 0.186198
-0.164658 0.183613 -0.178613
-0.101235 0.174141 0.157384
-0.125605 0.153852 -0.209220
-0.166538 0.205214 0.184265
-0.055136 0.132783 0.051501
0.263887 0.184956 -0.213052
-0.166806 0.186211 -0.155063
-0.139231 0.161945 0.177425
-0.115191 0.165316 0.174644
0.361447 0.119407 0.264316
-0.312506 0.114935 -0.131563
-0.172511 0.185935 -0.147707
-0.220477 0.208576 -0.190751
-0.124359 0.193216 -0.167224
-0.146407 0.177733 -0.177506
-0.242460 0.206933 0.201315
-0.161510 0.181122 -0.157605
-0.125696 0.184402 -0.166849
-0.184233 0.169604 -0.171033
-0.189874 0.189058 -0.162127
-0.170092 0.177157 -0.180195
-0.160545 0.162597 0.342175
-0.121980 0.162920 0.183302
-0.128980 0.167606 0.167045
-0.337712 0.194284 -0.084758
-0.310782 0.172795 0.282464
0.416917 0.069833 -0.018363
-0.125490 0.168267 0.157908
-0.048903 0.160683 0.320904
-0.219819 0.186196 -0.153013
-0.163044 0.183875 -0.172712
-0.172311 0.181267 -0.106654
-0.284276 0.251094 0.244695
0.248200 -0.193769 0.193545
-0.159714 0.183462 0.178835
-0.185589 0.181284 -0.163798
-0.110897 0.162387 0.197379
0.390347 0.119404 0.308120
-0.422611 0.678448 0.010322
-0.187962 0.172169 -0.159615
-0.340296 -0.365461 0.059743
0.312014 0.218069 -0.245300
-0.055171 0.142929 0.157401
-0.116093 0.181233 -0.154773
-0.069993 0.152227 0.062268
0.032658 0.184723 -0.119417
-0.188240 0.190775 -0.181306
-0.334578 0.212563 0.248411
-0.370450 0.690007 -0.266932
-0.140904 0.160932 0.130475
-0.210861 0.011239 0.027789
0.312035 -0.407881 0.292199
0.290815 0.195171 0.061122
0.332300 0.092881 -0.299853
-0.145768 0.155087 0.176676
-0.097780 0.163364 0.144796
-0.161202 0.174498 -0.188739
-0.147997 0.138728 0.146529
-0.120474 0.166467 0.180617
-0.166052 0.181181 -0.175557
-0.002430 0.164153 -0.058728
-0.143770 0.169674 0.162799
0.476195 0.017380 0.324639
0.037002 0.145911 0.264748
-0.114744 0.164461 -0.140038
-0.143502 0.155445 0.181511
-0.161858 0.171293 -0.166330
-0.166919 0.182742 -0.186052
-0.088695 0.189688 -0.001839
-0.150038 0.174964 -0.167605
-0.136113 0.164257 0.175847
-0.154390 0.189804 -0.171331
-0.163791 0.181001 -0.172522
-0.205249 0.185169 0.126072
0.064707 0.144127 -0.307610
0.436107 -0.171833 0.304782
0.131786 0.138366 0.339120
-0.104842 0.164633 0.182204
-0.316236 0.175192 -0.214241
-0.123562 0.163696 0.172992
-0.168381 0.193607 -0.172875
-0.040619 0.156941 -0.207371
-0.148300 0.166132 -0.170731
0.069840 0.219602 -0.243832
0.030857 -0.185778 0.094958
-0.294866 0.192588 -0.253227
0.006451 -0.303669 0.313791
-0.170783 0.187232 -0.134546
-0.309724 -0.451228 -0.015593
0.342141 0.213786 -0.166634
-0.061375 0.144417 -0.126976
0.062783 0.154578 -0.063051
-0.102599 0.175556 0.177812
0.171656 0.162936 -0.122246
-0.102812 0.156402 0.149165
-0.127185 0.176860 0.152820
-0.363178 0.061805 -0.055657
-0.163217 0.180660 -0.176414
-0.024753 0.149103 0.182317
-0.135902 0.161221 0.184908
0.433526 0.046274 0.236304
-0.020995 0.153254 -0.185936
-0.061378 0.144654 0.172477
-0.170031 0.188065 -0.171040
-0.151471 0.182535 -0.140164
-0.116073 0.170146 0.172563
0.233842 -0.383176 -0.033356
0.264447 0.134107 0.211217
-0.160153 0.181995 -0.165683
-0.358504 0.649894 -0.034246
-0.106824 0.145871 0.173283
-0.185870 0.162806 0.155618
0.297282 0.149822 -0.239602
-0.178448 0.180607 -0.146278
-0.166036 0.177053 -0.188746
0.264967 0.125798 0.073773
-0.301398 0.240260 -0.220859
-0.009261 0.197590 -0.208199
-0.155197 0.173157 0.169475
-0.142807 0.172870 -0.154881
-0.394237 -0.430229 -0.217007
-0.039481 0.179867 -0.048419
-0.174270 0.086994 -0.196829
-0.310203 0.229868 -0.326948
-0.028106 0.152611 0.120012
-0.151566 0.166016 0.224766
-0.282887 0.149802 -0.248455
-0.116620 0.148715 0.182764
-0.124491 0.183708 -0.163398
-0.413004 0.541259 -0.228945
0.438324 0.028342 -0.124384
-0.198076 0.183656 -0.081484
-0.183930 0.115249 -0.160661
-0.143859 0.148696 -0.170398
-0.164188 0.135845 0.050559
-0.132197 0.157829 0.176341
-0.021299 0.162472 -0.208516
-0.155717 0.181273 -0.170314
-0.177811 0.183333 -0.173599
-0.167344 0.180145 -0.164406
0.184361 -0.251892 -0.181319
-0.147507 0.183136 -0.144761
-0.139419 0.105380 0.019002
-0.134383 0.183360 -0.143919
-0.359930 0.606455 0.100809
-0.142369 0.174978 0.141249
-0.170765 0.175018 -0.170531
-0.042555 0.170227 0.205640
-0.171936 0.168229 -0.233174
0.195882 -0.235082 0.299087
-0.045842 0.181037 0.284901
-0.389418 0.673566 0.304648
-0.145963 0.169365 -0.162245
-0.137369 0.189737 -0.151648
-0.150744 0.168253 0.176054
-0.136982 0.141374 0.202378
-0.138333 0.183994 -0.158321
-0.149705 0.167188 0.186471
0.017315 0.130495 -0.067021
0.426195 -0.041478 -0.268368
-0.127563 0.178475 0.185249
-0.152737 0.170464 -0.158819
-0.122290 0.171615 0.191334
-0.157676 0.176543 -0.175027
-0.123369 0.182563 0.165997
-0.385430 0.689747 -0.102459
-0.145782 0.172230 0.141207
-0.303618 0.330078 -0.220637
0.089244 0.187412 0.142561
-0.054743 0.167753 0.004950
-0.114071 0.161309 0.167516
0.390300 0.104852 0.063986
-0.289746 0.227441 -0.069765
-0.391829 0.427509 0.110866
-0.161744 0.170551 -0.166884
-0.108396 0.158539 0.143082
-0.133737 0.173021 0.184424
-0.126345 0.172501 0.179508
0.304156 0.098657 -0.170511
-0.151312 0.167101 0.191907
-0.125201 0.180951 0.180733
-0.138490 0.181013 -0.150605
-0.170830 0.176261 -0.155627
-0.164524 0.169447 0.172023
-0.160699 0.166393 -0.168459
-0.279112 0.107005 0.176486
-0.302536 0.021608 0.148288
-0.175675 0.154831 0.175647
-0.081213 0.199509 0.112112
0.059930 0.145975 0.139409
0.435742 -0.160774 -0.220208
-0.148334 0.170295 -0.149070
-0.156505 0.171446 0.177658
-0.538933 -0.438776 -0.295621
0.306261 0.104203 -0.287067
-0.115239 0.121054 0.352722
0.028320 0.170266 -0.253686
-0.172958 0.167734 -0.158796
-0.187787 0.200394 -0.183387
-0.317675 0.414066 0.287489
0.251170 0.165138 0.321563
-0.165904 0.181087 -0.133200
-0.407750 0.652451 -0.359143
-0.212991 0.131753 -0.062911
-0.149316 0.178845 -0.162079
-0.202506 0.177067 0.073232
-0.306474 0.107410 0.282202
-0.041625 -0.428261 -0.207548
0.389174 0.045382 0.102945
-0.034482 0.168226 -0.063901
-0.143901 0.181065 0.183268
-0.127476 0.167880 0.167194
-0.136909 0.174170 0.168782
-0.182357 0.184740 -0.077958
-0.159615 0.175247 -0.169296
-0.168549 0.155935 -0.127944
-0.156012 0.163111 -0.181442
0.020568 0.203153 0.120409
-0.131631 0.170006 0.187790
-0.261477 -0.352901 -0.130304
-0.103714 0.185342 -0.162579
-0.146551 0.188132 -0.170541
0.143617 0.188492 0.196878
-0.142872 0.178737 -0.150604
-0.321671 0.141297 0.197598
-0.152375 0.168800 -0.166941
-0.172199 0.172892 -0.169564
0.037014 0.123056 -0.170091
0.198079 0.086352 0.158542
-0.268535 0.308838 0.116504
-0.117246 0.165707 0.180046
-0.110362 0.170434 0.061038
-0.175804 0.158464 -0.159601
-0.135319 0.155562 -0.208587
-0.120942 0.163449 0.174882
-0.184305 0.181206 -0.164671
-0.114446 0.166878 -0.152157
0.440148 0.114681 0.132705
-0.206559 0.185224 -0.180037
-0.116143 0.160775 0.156902
-0.322193 0.170813 -0.303511
-0.194028 0.190241 -0.172195
0.347998 0.146800 -0.197328
-0.124005 0.182408 -0.140556
-0.008308 0.185928 0.214177
-0.125342 0.179679 0.183181
0.393808 -0.010986 -0.326245
-0.197129 0.160314 -0.104762
-0.119001 0.155100 0.197354
-0.225090 0.183519 -0.147402
-0.033446 0.153905 -0.129841
-0.182673 0.181129 -0.155286
-0.162328 0.150328 0.183882
-0.140149 0.147376 0.179757
0.276879 -0.052703 -0.179386
-0.259897 0.224241 0.264026
-0.171228 0.175888 0.183469
-0.027969 0.145910 0.136225
-0.326446 0.331460 -0.189167
-0.209132 0.201113 -0.161874
-0.081970 -0.398031 -0.091357
-0.180821 0.193571 -0.167407
0.048059 0.174289 0.210890
-0.134445 0.172812 0.151223
-0.363958 -0.423100 -0.131391
-0.169175 0.183384 -0.164113
-0.379028 0.637110 -0.161044
-0.108795 0.163885 0.176715
-0.129587 0.174279 0.173732
0.058346 -0.458549 -0.194976
-0.111443 0.176862 -0.168237
-0.226891 0.230384 -0.118244
-0.066669 0.201637 -0.266736
-0.181573 0.185854 -0.154076
-0.142413 0.183746 0.192568
-0.081727 0.140629 0.268929
-0.203514 0.192867 -0.174025
-0.360953 0.770777 -0.024948
0.117133 0.127525 0.193043
0.048168 -0.027129 0.015303
-0.132680 0.171372 0.172403
0.287910 0.109711 -0.117547
-0.097421 0.161574 0.163034
-0.165295 0.156329 -0.143717
-0.329350 0.312343 0.193935
-0.141708 0.176946 -0.133789
0.487027 0.130478 -0.104634
-0.121282 0.166980 -0.141378
-0.214845 -0.089392 0.174787
-0.139337 0.176323 0.167607
-0.220093 -0.061098 0.240654
0.175515 0.180414 -0.255644
-0.134872 0.170319 0.170132
0.448633 -0.075480 0.060385
-0.117378 0.165074 0.159964
-0.134877 0.180677 -0.171600
-0.386674 0.568461 0.312146
-0.160645 0.188172 -0.156746
-0.095895 0.170747 0.180053
-0.167988 0.175682 -0.165690
-0.156304 0.184310 -0.163894
-0.175826 0.185195 -0.180097
0.192590 -0.473564 0.268555
-0.085101 0.176226 -0.100659
-0.373196 0.671221 0.233788
-0.338513 0.422239 -0.168176
-0.320211 0.272189 0.210936
0.050194 -0.440022 0.144202
-0.390896 0.516900 -0.048422
-0.081825 0.151339 0.220733
-0.163569 0.170920 0.154010
-0.172196 0.179038 -0.171175
-0.132646 0.179473 0.177025
-0.094213 0.168537 0.156901
-0.152383 0.184829 -0.165871
-0.144626 0.181914 -0.167455
-0.159353 0.170282 0.100235
-0.146962 0.186555 -0.189619
-0.186158 0.163630 -0.163885
-0.116347 0.167597 0.159706
-0.323579 0.202739 0.183825
-0.215345 0.138264 0.135237
-0.151728 0.164389 -0.120955
-0.130063 0.185401 -0.126150
-0.161476 0.189789 -0.158615
-0.200529 0.185439 -0.176819
-0.075524 0.157805 0.158529
-0.171065 0.189674 0.233184
-0.138812 0.171622 0.184863
-0.179507 0.194794 -0.146998
0.080413 0.179297 -0.211385
-0.296648 0.303179 0.303449
-0.038882 0.167820 0.172224
-0.150635 0.168248 -0.184863
-0.176275 0.188935 -0.158416
-0.101714 0.154582 0.200034
-0.130039 0.175758 -0.161192
-0.117831 0.177210 -0.172777
-0.107614 0.179651 -0.130533
-0.146579 0.173185 0.073526
0.132453 0.130022 -0.032127
-0.090822 0.159783 0.172844
0.024938 0.103200 0.236922
-0.114838 0.164362 -0.176816
0.031139 0.199148 0.245715
-0.136343 0.175496 -0.172727
-0.416919 -0.405954 0.064513
-0.127371 0.182740 -0.161745
-0.158774 0.182902 -0.166297
-0.238585 0.154548 -0.093155
0.045059 -0.346167 -0.185571
-0.015981 0.180940 0.214809
-0.193828 0.127260 0.297155
-0.159451 0.178412 -0.168286
-0.164241 0.178114 -0.166938
-0.140480 0.158699 -0.123307
-0.164528 0.169437 0.188107
-0.107863 0.152864 0.124341
-0.127886 0.172534 0.178759
-0.286410 0.476783 -0.192161
-0.161784 0.112057 -0.161917
0.477047 0.057804 0.236787
0.309659 -0.144410 -0.287933
-0.130392 0.174411 0.122036
-0.173973 0.180269 -0.191760
-0.167224 0.189457 -0.152023
-0.161132 0.187545 -0.161133
-0.140429 0.162110 -0.159340
-0.100041 0.178438 0.169884
-0.194875 0.180178 -0.172100
-0.187301 0.186226 -0.151144
-0.329309 0.273236 -0.069496
-0.154957 0.190220 0.182834
0.349515 0.103985 -0.166155
-0.322856 0.212021 0.056959
0.058173 0.164857 -0.109596
-0.075796 0.154686 0.175092
-0.176262 0.104725 0.263015
-0.178721 0.180550 0.165035
0.087302 -0.479147 0.197781
-0.188502 0.186521 -0.156791
-0.194655 0.176239 -0.141299
-0.165712 0.173108 -0.176685
-0.360328 0.615070 -0.237947
-0.331573 0.307560 0.087962
-0.167297 0.179636 -0.162251
-0.157716 0.184146 0.178231
-0.315800 0.597801 -0.261746
-0.091802 0.138093 -0.202679
0.329475 -0.333291 -0.286841
-0.091425 0.142747 -0.089472
-0.174305 0.173786 -0.167954
-0.157620 0.166803 -0.153875
-0.264731 0.171835 0.193014
-0.125000 0.180125 0.182479
-0.030014 0.118906 0.236207
-0.113571 0.169419 0.174065
-0.202002 0.171528 -0.181737
0.188038 0.162033 -0.033114
-0.433918 0.733453 -0.094557
-0.343623 0.661376 0.194264
-0.397886 0.848894 0.128769
-0.122552 0.189745 -0.144341
0.355649 0.146485 -0.120331
-0.018546 -0.038559 -0.225344
-0.373105 0.762867 0.216145
-0.175819 0.182249 -0.158645
-0.177699 0.156977 0.136765
-0.165758 0.185889 -0.170961
-0.439943 0.783114 0.243529
-0.108630 0.170469 0.166450
0.427352 -0.368021 0.026027
-0.308323 0.285748 0.105645
-0.284869 0.290147 -0.225987
-0.057358 0.222121 -0.377089
0.472604 -0.303274 0.213775
-0.169776 0.177815 -0.162787
-0.154440 0.178678 0.166926
-0.127106 -0.409050 -0.281123
-0.165449 0.147616 -0.157865
-0.129158 0.180209 -0.105001
-0.131610 0.138903 0.238543
-0.233793 0.179348 0.153013
-0.138293 0.160336 -0.096490
-0.066212 0.155754 -0.096757
-0.164520 0.151481 0.199442
0.305170 0.176032 0.248466
-0.137915 0.172653 0.173939
0.044993 0.160393 0.066208
0.371845 -0.388452 -0.335112
0.387077 0.162978 -0.295859
-0.347744 0.495639 0.097747
-0.128709 0.187656 0.187058
-0.146284 0.123222 -0.162040
-0.046262 0.114795 0.074679
-0.160211 0.192525 -0.193857
-0.183503 0.185789 -0.146625
-0.270206 0.219021 -0.138035
-0.177256 0.188302 -0.175315
-0.337666 0.369355 0.207930
-0.156049 0.166188 -0.133032
0.377339 -0.062126 -0.166174
-0.299364 0.444976 0.221539
-0.169991 0.178392 -0.176861
-0.093953 0.142021 -0.241243
-0.248182 -0.425851 0.295770
-0.122035 0.173746 0.187442
