0.110759 -0.051624 -0.327724
-0.168240 -0.044250 -0.440264
0.391074 -0.404509 0.471348
-0.198713 -0.048053 0.431169
-0.168736 -0.054916 -0.426382
-0.190937 -0.043687 0.429684
-0.162046 -0.041932 -0.431664
-0.194957 -0.051230 -0.433994
-0.113616 -0.783249 0.425640
-0.200830 -0.027816 0.425576
0.425375 -0.040759 -0.351225
-0.190227 -0.039398 -0.433525
-0.190190 -0.023348 0.415455
-0.184089 -0.007104 0.426505
-0.196395 -0.053386 0.425028
-0.166589 -0.049686 -0.434956
0.184883 -0.740037 -0.444880
-0.099960 -0.061359 -0.430842
-0.166586 -0.114439 -0.465282
-0.179451 -0.045386 -0.439646
-0.222546 -0.002649 -0.294558
-0.178997 -0.048307 0.423808
-0.232556 0.401542 0.015229
-0.147410 -0.052380 -0.432388
-0.309470 0.654025 -0.168343
-0.201035 -0.050348 0.422197
-0.164075 -0.058235 -0.440777
-0.010661 0.005676 0.137870
-0.128029 -0.044974 -0.423846
0.049077 -0.048301 0.406090
0.087113 -0.001224 0.422416
-0.213134 0.514036 0.331802
-0.164434 -0.059147 0.424275
-0.206082 -0.069661 0.432199
-0.164962 -0.035936 0.430425
-0.258649 0.517600 -0.093134
-0.147989 -0.045005 -0.453969
-0.153771 -0.051758 -0.440505
-0.168828 0.438595 0.388395
0.516160 0.006674 -0.012748
-0.186778 -0.032419 0.427467
-0.177355 -0.064280 -0.433370
-0.005136 -0.049240 0.018049
-0.171925 -0.050892 -0.413509
-0.165057 -0.047662 -0.439974
0.014279 -0.008309 0.106606
-0.174701 -0.029817 -0.451614
-0.265179 0.313357 -0.334243
-0.184953 -0.037400 0.429505
0.076294 -0.031111 0.396170
-0.165936 -0.046664 0.431368
-0.167307 -0.057809 -0.436875
-0.179365 -0.048195 -0.436325
0.320532 -0.302002 0.440656
-0.268946 0.189520 0.125817
0.395776 -0.082838 0.213953
-0.175838 -0.031109 -0.436922
-0.229616 0.041998 0.008958
0.213141 -0.044846 -0.117317
-0.186260 -0.057466 0.429447
0.197923 -0.049569 -0.064546
-0.196598 -0.032887 0.429467
-0.222361 -0.051938 0.421494
-0.128664 -0.026799 0.436519
-0.186853 -0.717488 0.450411
0.292031 -0.062340 0.168456
-0.192357 -0.050756 0.422698
0.387066 -0.759328 0.456887
-0.174722 -0.045638 -0.430932
-0.234272 0.286710 0.277063
-0.190834 -0.031388 0.425263
-0.205237 -0.045781 0.419900
0.349788 -0.008148 0.301953
-0.217704 -0.040345 0.418510
-0.126790 -0.038147 -0.439423
0.070086 -0.060536 -0.114789
-0.156409 -0.057610 -0.433099
0.333148 -0.015524 0.288117
-0.194894 -0.038998 0.426145
-0.183808 -0.042791 0.427408
-0.179948 -0.043315 -0.449310
-0.194841 0.083972 -0.059648
-0.125639 -0.047128 -0.432215
-0.255007 0.503593 -0.200815
-0.270056 0.002389 -0.009064
-0.188089 -0.039568 0.420354
-0.199038 -0.033728 0.426932
0.466224 -0.048952 0.139932
0.180705 -0.637130 -0.445873
0.255235 0.026023 0.011004
0.182656 -0.020495 -0.411498
-0.191911 -0.060258 -0.443075
-0.170198 -0.048685 0.431224
-0.204554 -0.065753 0.420092
-0.150992 -0.043993 -0.434513
-0.192948 0.023515 -0.100782
-0.201160 -0.033884 0.417646
0.051931 0.254331 -0.430196
-0.243303 0.279715 0.453576
0.130756 -0.020719 -0.422879
-0.172827 -0.051742 -0.438543
0.421312 -0.156264 0.435797
-0.123866 -0.046802 -0.430068
0.134689 0.013231 0.398675
-0.067964 0.047142 -0.444879
0.402254 -0.018925 -0.136495
-0.198577 0.565488 -0.311956
-0.267222 0.400585 -0.368778
-0.198193 -0.043222 0.423296
-0.196662 0.449451 0.005933
-0.156199 -0.031090 -0.430186
-0.159694 -0.030877 -0.439663
-0.151042 -0.050922 -0.439877
0.245343 -0.013142 -0.419104
-0.206319 -0.059336 0.416898
0.094610 -0.029215 -0.413672
0.378361 0.004858 -0.105267
-0.164600 -0.048892 -0.435570
-0.246093 0.532120 0.181286
-0.176980 -0.041508 0.425833
-0.096155 0.009127 0.226722
-0.181659 0.038687 -0.429200
-0.147423 -0.042189 0.431404
-0.194204 -0.043091 0.419060
-0.121617 -0.064421 -0.427833
-0.264427 0.653450 -0.456962
-0.203572 -0.043448 0.420073
-0.021124 -0.049121 -0.371356
-0.216437 -0.042872 -0.195110
-0.189900 -0.035595 0.423173
-0.153507 -0.052813 -0.436935
-0.175410 -0.034785 0.412561
-0.197706 -0.045077 0.427069
-0.191338 -0.048975 -0.438368
-0.215844 -0.026232 0.324140
0.358164 -0.053695 0.080285
0.169517 0.019195 -0.300055
0.425852 -0.623156 0.409516
-0.171570 -0.049665 -0.431567
-0.169438 -0.047534 -0.425035
-0.182550 -0.061315 0.414289
-0.109860 -0.039382 -0.023985
-0.221726 -0.032646 0.420887
-0.178756 -0.052849 -0.437926
0.448726 -0.043510 -0.248377
-0.147885 -0.039250 -0.355905
-0.134677 0.568668 0.458265
0.043165 -0.727397 -0.421828
-0.150097 -0.010524 0.217332
-0.199843 0.115080 -0.226483
-0.204925 -0.055570 0.413272
-0.205570 -0.053768 0.432864
-0.207539 -0.039385 -0.430084
-0.019350 -0.035327 0.429746
-0.200322 -0.049371 0.423214
-0.292934 0.454769 -0.074539
-0.078016 -0.052044 0.431061
-0.161788 -0.042401 -0.440641
-0.147015 -0.042990 -0.435812
0.319425 0.024266 -0.123957
-0.232554 0.316178 0.336231
-0.171783 -0.045008 -0.432816
-0.151815 -0.056281 -0.429710
-0.087233 -0.029974 0.136543
-0.200619 -0.034734 0.427898
0.459644 0.015269 -0.258292
-0.196196 -0.034049 0.415612
-0.093314 -0.039156 -0.245803
0.264064 -0.029192 0.286560
-0.180793 0.265980 -0.444760
0.525734 -0.617376 0.422282
-0.171733 0.179267 0.406303
-0.162643 -0.031697 -0.447966
-0.130606 -0.047767 -0.428672
-0.172885 -0.056825 -0.422934
-0.102832 -0.037356 0.159835
-0.191104 0.046205 -0.226054
0.410640 -0.006206 0.207921
-0.169511 -0.056208 -0.437447
-0.121453 -0.060406 0.102215
-0.172495 -0.039917 -0.436355
-0.274044 0.569637 0.239590
-0.270273 0.266820 -0.312983
0.063504 -0.043727 -0.341049
0.378865 0.019903 0.290789
-0.205904 -0.047263 0.438444
-0.106967 -0.007023 0.392494
0.290331 0.019167 -0.230063
-0.179008 -0.019134 -0.134212
-0.209106 -0.051637 0.424031
0.212030 -0.011144 0.013900
-0.230739 0.399348 -0.194197
-0.155449 -0.029568 0.449581
-0.160164 -0.052322 0.443332
-0.044383 -0.021552 0.046791
-0.169837 -0.048270 -0.447406
0.376712 -0.007463 0.429175
0.038758 -0.033057 -0.442892
-0.176310 -0.052431 -0.434857
-0.171221 -0.048332 0.418038
-0.164470 0.017438 0.341774
-0.180185 -0.043424 -0.434771
-0.157219 -0.054206 -0.440500
-0.191741 -0.027483 0.418998
0.218053 0.009114 0.139488
-0.267109 0.403894 0.305954
-0.194851 -0.043765 0.425074
-0.165598 -0.052009 -0.441898
-0.104859 -0.056358 -0.439803
-0.194902 -0.043500 -0.426194
-0.045967 0.000495 0.195332
-0.159763 -0.045840 0.436251
-0.171616 -0.049719 -0.447992
-0.149102 -0.064124 0.426336
-0.196460 -0.049038 -0.436590
-0.142332 -0.054644 -0.443323
-0.184974 -0.080143 -0.438706
-0.283700 -0.675050 -0.410524
-0.222687 -0.050229 0.424576
-0.177974 -0.048249 -0.411679
-0.188217 -0.052867 0.429910
0.385538 0.012116 -0.357323
-0.182502 -0.043526 -0.445758
0.259967 0.019155 0.402594
-0.295354 0.560059 -0.209256
-0.182198 -0.054519 -0.442991
-0.072525 -0.124883 -0.429915
-0.146973 -0.037465 -0.432988
0.319032 0.004107 0.156298
0.189071 -0.032289 -0.475145
-0.183535 -0.041979 -0.258028
-0.164960 -0.056252 0.439214
-0.198948 -0.036580 0.422674
0.409088 -0.087737 -0.427623
-0.169353 -0.041135 -0.439804
0.072021 -0.057935 -0.057235
-0.172005 -0.051910 -0.431861
-0.128860 0.011119 -0.386981
0.161349 -0.025044 -0.278937
-0.303449 0.656852 0.100384
-0.151004 -0.052054 -0.428759
-0.258808 -0.001474 0.300581
-0.316595 0.599884 -0.277311
0.426667 -0.155713 0.312984
-0.208272 -0.055881 0.435551
0.030273 0.008449 -0.053832
-0.168123 -0.039179 -0.437204
-0.189297 -0.007468 0.432889
-0.192644 0.249961 0.425850
0.418490 -0.047967 -0.060923
-0.143814 -0.058886 -0.453570
-0.182888 -0.075550 0.421060
-0.182084 -0.043841 -0.437817
-0.124106 -0.048478 0.434625
-0.204922 -0.048290 0.435243
-0.165515 -0.049773 0.422794
-0.186552 -0.041548 0.433339
-0.185086 -0.037049 0.413658
0.327494 -0.002872 0.400878
-0.191883 -0.164275 0.365075
-0.159859 -0.043208 -0.437443
-0.128855 -0.053315 -0.466886
-0.137715 -0.031345 0.401595
-0.260977 -0.754356 -0.403772
-0.150677 -0.050277 -0.445970
-0.187670 -0.058082 0.428995
-0.142661 -0.029280 -0.427704
0.384307 0.041831 -0.282314
-0.173035 -0.051141 -0.434946
-0.194378 -0.053997 0.422663
-0.132745 -0.062874 -0.442500
-0.042278 -0.036796 -0.432148
0.429631 -0.028443 -0.449378
-0.188427 -0.045314 -0.440164
-0.112923 -0.027268 0.443228
-0.215664 -0.047911 0.436113
-0.157362 -0.064263 -0.448512
-0.212464 -0.056073 0.445176
-0.163427 -0.048774 -0.436855
-0.177430 -0.039493 0.431090
-0.168145 -0.031956 -0.444551
-0.150378 -0.038881 -0.423191
0.517552 -0.056146 -0.310529
-0.098047 0.014160 0.343858
-0.182988 -0.044253 0.430641
-0.145885 -0.023154 -0.441140
0.330834 0.047699 0.435647
-0.168775 -0.048714 0.461068
0.140000 0.021166 -0.450634
-0.045070 0.014588 -0.388008
0.163182 -0.059428 0.029890
-0.275666 0.540633 -0.434417
-0.211153 -0.069325 0.416394
0.321458 -0.237993 -0.419934
-0.156682 -0.056763 -0.423541
-0.187901 -0.041991 0.420598
-0.195621 -0.048148 -0.443503
0.525323 -0.023802 0.098583
0.129980 -0.031895 -0.396063
-0.019833 -0.016492 -0.260968
0.291792 -0.783821 0.418064
-0.191954 -0.052459 0.422693
0.168572 0.128799 -0.445268
-0.174219 -0.018056 0.431921
-0.265722 0.591394 0.383337
-0.159386 -0.062018 -0.434870
-0.200823 -0.035036 0.424605
-0.262476 0.650714 -0.313823
-0.146200 -0.048960 -0.440011
-0.162876 -0.048290 -0.434009
-0.173706 -0.014960 0.409625
-0.196281 -0.051403 -0.441327
0.158828 -0.062699 0.443229
-0.228712 -0.338923 -0.429249
-0.193335 -0.048753 -0.439305
-0.203626 -0.053945 0.404507
-0.192092 -0.037765 0.423731
0.230683 -0.034137 -0.321949
-0.186419 -0.045276 -0.430942
-0.164610 -0.042670 -0.442493
-0.182652 -0.053416 0.418329
0.254577 0.031056 -0.453725
-0.163912 -0.047137 0.417172
0.439322 -0.573214 -0.416474
0.003920 -0.045958 0.255412
-0.296600 0.507023 -0.260318
-0.147400 -0.033620 -0.437116
-0.211343 0.300734 -0.434182
0.099985 0.002048 0.186623
-0.171946 -0.054617 -0.444658
-0.056049 -0.789751 -0.415423
-0.181371 -0.078969 0.311211
-0.187972 -0.072241 0.433866
-0.182346 -0.049643 -0.437773
-0.190718 -0.046862 -0.422078
-0.172973 -0.048067 -0.453566
0.263782 -0.046098 0.434000
-0.037740 0.211240 -0.453394
-0.190820 -0.051055 -0.438128
-0.173508 -0.050023 -0.441629
0.424714 -0.025731 -0.200957
0.360010 0.013980 0.408246
-0.203724 -0.043654 -0.440505
-0.088874 -0.043178 -0.448949
-0.188492 -0.030880 0.422357
-0.187037 -0.036527 0.431823
-0.283538 0.221647 0.441063
-0.171115 -0.042881 -0.451493
0.068183 -0.038306 -0.411547
-0.175346 -0.050003 -0.433689
-0.201442 -0.042361 0.422378
-0.190641 -0.041298 -0.430904
0.340942 -0.515107 -0.446660
-0.170185 -0.034140 -0.441034
0.144222 0.180985 0.449345
-0.180665 -0.040724 0.407082
-0.199452 -0.036507 0.412983
0.183178 -0.094905 0.441903
-0.204496 -0.042422 0.419918
-0.148307 -0.046102 -0.453641
-0.282775 0.440642 -0.185335
-0.207331 -0.057463 0.423545
-0.191228 -0.047463 0.428256
-0.192831 -0.037607 0.433012
-0.163721 -0.045237 -0.438405
-0.199643 -0.026837 0.419974
-0.166930 -0.044513 -0.438345
0.136581 -0.018535 0.351154
-0.218970 -0.059003 0.413064
-0.197911 -0.097667 -0.414779
-0.168486 -0.038991 0.423459
0.031299 -0.042773 -0.324364
0.382420 -0.042672 0.414110
-0.252515 -0.486995 0.415016
-0.173060 -0.047726 -0.447180
-0.246961 -0.673693 0.316968
0.283761 0.022885 -0.442509
-0.168350 -0.058066 -0.424814
-0.181795 -0.030741 -0.432488
-0.170152 -0.048689 -0.441334
-0.288813 0.080866 -0.427137
-0.187930 0.449398 -0.250147
-0.247176 0.461708 -0.011033
-0.236676 0.064571 0.363328
0.431691 -0.019963 0.146151
0.146674 0.018357 -0.081791
-0.169527 -0.040050 -0.448975
0.216006 -0.306273 0.449148
0.321696 -0.094437 -0.355839
-0.220958 0.371443 -0.284905
-0.160170 -0.061605 -0.434347
-0.036428 -0.018381 -0.332054
-0.242721 -0.079636 0.061154
-0.162698 -0.004339 0.283174
-0.208559 -0.035217 -0.444785
0.348188 -0.085537 0.414771
-0.206269 -0.044731 0.423566
-0.189370 -0.046601 0.426885
0.157301 0.011235 0.117295
0.403613 -0.181716 -0.471030
-0.166497 -0.067027 -0.439930
0.015002 -0.014876 0.037621
0.020457 0.069487 0.428825
-0.311650 0.641291 0.200508
-0.183240 -0.045139 -0.439455
-0.257720 -0.283835 0.437819
0.507556 -0.719269 0.393141
-0.143572 -0.045381 -0.436334
-0.243649 -0.144065 -0.426910
-0.180084 -0.051357 -0.435727
-0.201613 -0.034103 0.428200
-0.219084 0.295619 -0.307467
-0.186481 -0.037798 0.430578
-0.167432 -0.047720 0.439127
-0.226665 -0.058974 0.430057
-0.198788 -0.030500 -0.430463
-0.178408 -0.025166 0.419115
-0.189409 -0.043933 0.418381
-0.176728 -0.055322 -0.433123
-0.197441 -0.052116 0.429580
-0.278259 0.371023 0.373401
-0.158573 -0.047839 -0.442392
-0.143864 -0.061568 -0.451880
-0.179729 -0.049145 -0.442376
-0.164684 -0.044660 -0.434455
0.274709 0.025648 0.117554
-0.073726 0.276193 0.472027
-0.151992 -0.054605 -0.434835
0.314789 0.004017 0.351138
-0.154955 -0.048504 -0.454639
-0.300536 0.493195 -0.180492
-0.171618 -0.046922 0.429028
-0.331745 0.570195 -0.036044
-0.264246 0.652903 0.008531
-0.202093 -0.500436 -0.402312
-0.187973 -0.051246 0.418234
-0.261565 0.444212 0.132413
-0.151281 -0.054194 -0.442477
-0.147926 -0.042673 -0.434405
-0.184283 -0.040020 0.429492
-0.161402 -0.049362 -0.439837
-0.272345 0.662943 -0.263427
-0.146258 -0.043646 -0.446693
-0.222731 0.520822 0.052605
-0.175889 -0.021415 -0.442317
-0.204838 -0.067155 0.414009
-0.207756 -0.048613 0.398097
0.384448 -0.009663 -0.249880
-0.174330 -0.061311 -0.443515
-0.194947 -0.039541 0.417965
-0.164946 -0.026823 -0.440728
-0.164648 -0.058804 0.426891
-0.243215 0.595896 -0.413597
0.109796 0.027440 -0.182331
0.319888 -0.012371 -0.433419
0.258281 -0.761136 0.375939
0.507409 -0.230112 -0.417893
-0.189646 0.367747 -0.346959
-0.160757 -0.045421 0.426583
-0.125522 -0.035452 -0.419184
-0.171653 -0.040513 0.423140
-0.181150 -0.049850 -0.436188
-0.160750 -0.051413 -0.431857
-0.188955 0.099234 0.122034
0.209462 -0.040177 0.308743
-0.023849 -0.011565 -0.083785
-0.174138 -0.052072 -0.443995
0.142779 -0.044247 -0.179450
-0.167408 -0.098375 -0.451366
-0.169646 -0.716565 0.432868
-0.214916 -0.043088 0.417860
-0.115583 -0.049651 -0.431127
-0.225811 0.417255 -0.151037
-0.136440 -0.046949 -0.435225
0.327310 -0.630228 0.449716
0.111627 -0.006990 0.404847
-0.184068 -0.037919 -0.447744
-0.158850 -0.052362 -0.447610
-0.024922 -0.058627 -0.246802
-0.265240 0.438023 -0.435700
-0.183591 -0.053950 0.427376
-0.179194 -0.194933 -0.406916
-0.193187 -0.038619 0.431179
-0.119451 -0.013877 0.455558
-0.165770 -0.052369 -0.432018
-0.165432 0.381270 -0.453704
-0.287139 0.732013 -0.391376
0.230682 -0.005330 0.424307
0.499860 -0.005700 -0.416850
-0.167980 -0.072355 0.414596
-0.183736 -0.032930 0.430716
-0.203823 -0.046864 0.429576
-0.253221 -0.755445 0.303223
-0.189736 -0.051980 -0.434851
0.315164 -0.135549 0.263316
-0.190813 -0.036062 -0.432979
0.018481 -0.003719 -0.460071
-0.127048 0.006134 0.162684
-0.188236 -0.038236 0.420643
-0.324309 0.570108 0.069875
-0.201503 -0.022306 0.428862
0.251434 0.000466 -0.252996
-0.106278 0.013940 -0.223916
-0.204435 -0.036346 0.406095
-0.185321 -0.037702 0.428226
-0.152320 -0.042034 -0.446737
-0.177594 -0.024349 0.427334
-0.150645 -0.036102 0.420522
-0.185429 -0.047694 -0.433248
-0.193860 -0.044976 0.419280
0.334868 -0.007593 0.361087
-0.181102 0.023329 -0.442186
0.381047 -0.012089 0.375271
-0.151021 -0.053708 -0.430622
-0.269141 -0.197769 -0.424075
-0.172168 -0.040729 0.425827
0.053203 -0.052840 0.151846
-0.193822 -0.037457 -0.442025
-0.193708 -0.040024 0.424091
-0.178187 -0.066579 0.423927
-0.216294 -0.034798 0.440412
-0.211998 -0.128143 -0.408594
-0.150812 -0.056123 -0.422158
0.024030 -0.020361 -0.425601
-0.172728 -0.059945 -0.430222
-0.194189 -0.012982 -0.038545
-0.193498 -0.036273 0.421771
-0.169512 -0.038503 0.424716
-0.170956 -0.000709 -0.421350
0.145444 0.010040 0.188977
0.441413 -0.017386 -0.393134
-0.180890 -0.042965 0.434408
-0.310312 0.547692 0.190478
0.357107 -0.737856 -0.440820
0.104623 -0.047445 -0.447208
-0.208478 -0.244121 0.455415
-0.161872 -0.056113 -0.438391
0.183058 0.007786 -0.205822
0.160227 -0.008739 0.045446
-0.186165 -0.054021 -0.430627
0.366735 -0.018251 -0.425109
0.517525 -0.405166 -0.432074
0.144791 -0.016780 -0.423806
-0.188366 -0.041818 -0.434597
-0.207417 -0.042707 0.423890
-0.158190 -0.046629 -0.440562
-0.168279 -0.044107 -0.435974
0.029882 -0.024831 -0.433801
-0.187923 -0.055447 0.412670
-0.076048 -0.019315 -0.430148
-0.171006 -0.050895 0.415447
-0.167075 -0.059494 -0.423553
-0.179973 -0.040109 0.441370
-0.211890 -0.043746 0.419928
-0.200664 -0.023999 0.429980
-0.141901 -0.066300 -0.444489
-0.215374 0.537597 0.421258
-0.138808 -0.055429 -0.430178
-0.164264 -0.042758 -0.434624
0.257415 -0.031694 -0.117209
0.533421 -0.565489 -0.430771
-0.178973 -0.066799 -0.425300
-0.305483 0.704111 -0.290829
0.199089 -0.132946 -0.437202
-0.143004 -0.057285 -0.429585
-0.197822 0.407619 0.449507
-0.188484 -0.055550 -0.437500
-0.168069 -0.039906 -0.430761
-0.134540 -0.039723 -0.424744
-0.190768 -0.022022 0.426107
-0.183663 0.050471 0.170470
0.098672 -0.747701 0.416270
-0.148185 -0.007165 0.089634
-0.140573 -0.049957 -0.432751
0.098573 0.001989 0.064865
-0.019445 -0.007806 0.433582
-0.189209 -0.043653 0.425438
-0.154384 -0.059102 -0.451414
-0.181941 -0.048116 -0.182394
-0.171946 -0.047761 0.426617
-0.179577 -0.041791 -0.444006
-0.059210 -0.043539 -0.169083
-0.148994 -0.041899 0.427296
0.360298 -0.037165 0.278598
-0.150358 -0.046109 -0.442680
-0.114115 0.015111 -0.381708
-0.192242 -0.039800 0.439521
-0.191374 -0.071196 0.421580
-0.224105 0.467743 -0.091898
-0.187456 -0.040261 -0.451833
-0.222260 0.149786 -0.359988
0.365962 -0.015117 0.411604
-0.268456 -0.023799 -0.085769
0.214664 0.000981 -0.428453
-0.180541 -0.065105 0.421821
-0.167685 -0.077962 0.430912
-0.120689 -0.036914 -0.432093
-0.143087 -0.020824 -0.415779
-0.168323 -0.058209 -0.432483
-0.165963 -0.045111 -0.456939
-0.067713 0.005065 -0.146242
0.015121 -0.004708 -0.419193
-0.288727 0.619940 -0.237111
-0.059199 -0.075652 0.026099
-0.186999 -0.043233 -0.434946
-0.169007 -0.016606 0.416470
-0.183981 -0.061471 0.431399
-0.172344 -0.044023 -0.438159
-0.155996 -0.072677 -0.451438
-0.219230 -0.071591 -0.326385
-0.181158 -0.055189 -0.444499
-0.155178 -0.060139 -0.346968
-0.180290 -0.052019 -0.433268
-0.223792 -0.117397 0.460934
-0.191397 -0.060934 -0.439501
-0.207074 -0.037877 0.426417
0.378605 -0.131375 -0.435717
-0.221022 -0.025855 0.429066
0.315874 -0.013071 -0.090283
-0.281789 0.358988 -0.059710
-0.055296 0.006044 -0.249204
-0.202764 -0.018273 0.426438
-0.198837 -0.038374 0.426224
-0.199340 -0.024034 0.432497
0.111938 -0.016803 0.129488
0.402401 -0.473374 0.345665
-0.200728 -0.056058 0.420714
-0.169039 -0.052815 -0.437202
-0.203521 -0.040509 0.427825
-0.201551 -0.097085 0.155314
-0.196298 -0.030657 0.433806
-0.196284 -0.057868 0.414782
-0.182539 -0.026570 -0.095320
0.378561 -0.004820 -0.451195
-0.177574 -0.030816 0.418388
-0.068021 -0.028977 -0.427241
0.198617 0.027510 0.413863
-0.013593 -0.042481 -0.458231
-0.185735 -0.032413 0.427846
0.505355 -0.218697 0.433963
-0.163309 -0.024414 -0.431490
0.376555 -0.000860 0.465319
-0.170915 -0.054383 -0.447858
-0.133458 -0.052586 -0.265460
-0.215435 -0.131141 0.233462
-0.212847 -0.049003 0.430727
-0.018676 0.179902 0.445068
-0.195626 -0.038941 -0.433583
-0.138748 -0.057249 -0.433896
0.046926 -0.032720 0.228493
-0.020646 0.006059 0.054216
-0.218718 -0.078238 -0.395170
-0.183798 -0.037571 0.424526
-0.165168 -0.044896 -0.438042
-0.023075 -0.048610 0.207728
-0.189090 -0.055601 -0.436539
-0.199347 -0.030637 -0.437366
-0.209715 0.378092 0.265470
-0.144245 -0.079897 -0.413736
-0.140056 -0.058719 0.443938
-0.247428 -0.007361 0.430505
-0.187547 -0.045831 0.423831
-0.284538 -0.004559 0.412646
-0.185845 -0.051937 0.415678
0.111397 -0.021520 0.173769
-0.136868 -0.044288 -0.436831
-0.194748 -0.042473 0.415227
-0.187994 -0.049177 0.427419
-0.193944 -0.011774 0.153780
-0.181237 -0.025735 0.434162
-0.176171 -0.047876 -0.433599
-0.222784 0.379152 -0.434617
-0.187682 -0.034654 0.423512
-0.167876 -0.043817 -0.427914
-0.169982 -0.050454 -0.443909
0.483595 -0.064298 0.341227
-0.190449 -0.038299 0.428134
-0.156284 0.011571 0.408046
-0.198321 -0.038324 0.428894
-0.136852 -0.047745 -0.444298
-0.181958 -0.041331 -0.432977
-0.247537 0.140585 -0.398124
-0.161429 -0.039117 -0.427899
-0.164025 -0.047101 -0.435225
-0.182000 -0.040906 -0.436853
0.458517 -0.046084 -0.082543
-0.226069 -0.177582 0.396763
-0.171257 -0.026245 0.428186
-0.201722 -0.051691 0.428583
-0.159597 -0.048533 -0.438187
-0.150607 -0.059624 -0.451123
-0.176230 -0.053870 -0.445861
-0.157441 -0.044346 -0.430513
-0.192044 -0.047632 0.429205
-0.156877 -0.041117 0.438453
-0.201959 -0.050278 -0.038010
-0.170286 -0.043415 -0.429926
-0.113282 -0.043662 0.396867
-0.200018 -0.039242 0.425648
-0.176299 -0.033493 -0.437315
-0.172465 -0.046067 -0.448876
-0.178792 -0.046884 -0.448163
-0.191333 -0.037990 0.440681
0.287850 -0.199799 -0.466799
-0.259166 0.605460 0.150647
-0.233363 0.073616 0.252520
-0.154749 -0.050358 -0.429441
-0.219035 0.250142 0.046414
-0.134339 -0.045051 -0.426491
0.215450 -0.042965 -0.194231
0.090904 -0.050490 -0.437447
-0.180310 -0.047930 -0.433248
-0.171853 -0.055858 -0.436910
0.358443 -0.023618 0.132103
-0.176689 -0.051728 0.434193
0.364818 -0.033639 -0.267954
-0.181690 -0.055824 0.440831
-0.125119 -0.019707 -0.154109
0.484679 0.024895 0.239405
-0.209127 -0.010803 0.425375
-0.194835 -0.037137 0.421329
-0.248652 -0.739444 -0.312165
-0.097582 0.286388 -0.475101
0.216517 0.028379 -0.039709
-0.224949 0.523405 -0.327987
-0.030575 -0.038602 -0.429111
0.080893 -0.008422 0.019267
-0.112558 -0.026305 -0.428743
-0.158433 -0.053718 -0.451977
-0.188501 -0.014265 0.383047
-0.167134 -0.054618 -0.444267
-0.077834 0.001717 -0.355206
-0.201246 0.220961 0.323092
-0.181341 -0.041602 0.434085
-0.136242 -0.027283 0.412051
-0.132246 -0.045177 -0.435036
0.418054 -0.025814 0.317862
-0.150851 -0.048147 0.424298
-0.169654 -0.023176 -0.446366
-0.161323 -0.055485 -0.439499
0.374717 -0.011306 0.170933
-0.455111 -0.727693 0.394852
-0.283124 0.367301 -0.258198
-0.153104 -0.026987 0.388858
-0.208167 0.053071 -0.294142
-0.281666 -0.090379 -0.397110
0.289215 -0.013142 0.067733
-0.066794 -0.059253 -0.436127
-0.271708 0.086072 -0.076432
-0.017357 -0.035352 -0.165474
-0.243535 -0.776622 0.405444
0.084221 0.017458 0.346596
-0.183506 0.024361 0.447295
-0.185550 -0.056267 -0.427297
-0.094413 -0.007237 0.427164
-0.150877 -0.038546 0.424123
-0.031803 0.010083 -0.353254
-0.177954 -0.037304 -0.432902
0.198481 -0.022997 -0.167505
-0.161133 -0.038544 -0.418813
-0.184050 -0.042036 0.423972
-0.177928 -0.050149 0.428477
-0.161521 -0.046432 -0.443135
0.023782 -0.042830 0.426638
-0.134890 -0.047748 -0.442296
-0.196571 -0.030491 0.417620
-0.210064 -0.037334 0.433191
-0.273686 0.183183 -0.352129
0.168152 0.324506 -0.461355
0.117212 0.008022 -0.246146
-0.206585 -0.109243 -0.145742
0.251519 0.029153 0.345202
0.119687 -0.051467 0.076519
-0.169360 -0.060543 -0.437043
-0.169444 -0.019620 0.439688
0.049298 0.266710 0.448096
-0.030479 -0.062742 0.409873
-0.245406 0.569541 -0.163854
-0.186450 -0.043387 -0.437925
-0.187696 -0.046491 0.424207
-0.230863 -0.045243 0.417406
0.004948 -0.051179 -0.175474
-0.226351 -0.056894 0.428317
-0.284874 0.602374 -0.056140
0.233650 0.008773 0.383711
-0.188681 -0.038043 0.417916
-0.121159 0.021453 0.430130
0.131160 -0.034108 0.440194
0.156726 0.009364 -0.016400
0.416769 -0.035985 0.255219
-0.180403 -0.033654 -0.435478
0.010219 -0.027148 0.402447
-0.089348 -0.007160 -0.488991
-0.180142 0.286103 0.297953
0.284036 -0.020922 0.391869
-0.185102 -0.033418 0.438022
-0.143227 -0.059798 0.413776
0.351503 0.287175 0.447871
-0.237845 0.179910 -0.044187
-0.173656 -0.058019 -0.454164
0.265723 0.007990 0.178843
0.086430 -0.015496 0.274339
-0.134039 -0.050925 -0.449641
-0.043622 -0.003333 0.311825
-0.163214 0.191699 -0.439622
-0.209994 -0.004526 -0.409404
0.381730 -0.521523 -0.304313
0.094260 -0.040616 -0.174939
0.221032 0.010216 -0.385164
-0.190588 -0.043884 -0.433387
-0.220349 0.020252 0.273406
-0.202006 -0.020471 0.425322
0.078910 0.016834 0.318404
-0.263807 0.277135 0.151917
-0.097740 0.006479 0.006427
0.334583 -0.062211 0.458058
-0.180436 -0.055990 -0.440221
-0.190264 -0.054534 0.422469
-0.171164 -0.039895 0.424211
-0.166753 -0.061272 -0.445888
0.088106 -0.048325 -0.221686
-0.177144 -0.052757 -0.433765
-0.255261 0.017851 -0.423404
-0.185355 -0.042800 0.426310
-0.046093 -0.045207 -0.434659
-0.201596 -0.050634 0.419184
-0.148956 -0.018978 -0.425044
-0.057333 -0.023826 -0.419673
-0.227476 0.540327 0.489809
-0.210996 -0.038559 0.433366
0.413726 -0.002539 -0.451094
-0.200609 -0.038679 0.425482
-0.208869 -0.205253 -0.437360
-0.207641 -0.066087 0.423827
-0.182578 -0.032232 -0.441072
-0.255201 0.647769 0.403585
-0.286114 0.066198 0.425921
-0.146131 -0.036215 -0.428043
-0.190895 -0.052134 0.421645
-0.172577 -0.057187 -0.455923
-0.161211 -0.028266 0.425340
-0.107005 0.009744 0.331965
-0.152206 -0.040787 -0.435569
-0.169891 -0.048109 -0.445988
-0.269305 -0.053928 -0.262160
-0.200048 -0.042124 -0.432597
-0.109649 0.016543 0.360707
-0.181333 -0.050583 -0.430337
0.432034 -0.072279 0.049896
-0.169541 -0.057867 0.430909
-0.192777 0.156566 0.024677
-0.177791 -0.047343 -0.445850
-0.157479 -0.065458 -0.431545
-0.157130 -0.052294 -0.430514
-0.258309 -0.016752 0.210591
-0.129600 0.599592 -0.430983
-0.192332 -0.071594 0.420711
-0.229775 -0.208267 -0.325048
0.043007 0.004096 -0.357678
-0.259788 0.350679 0.275154
0.256867 0.019243 -0.155550
-0.236649 0.065149 -0.367448
0.030670 -0.032588 -0.427012
0.404949 0.022478 0.406287
-0.171935 -0.054468 -0.432502
0.217837 0.031448 -0.166486
-0.182449 -0.052692 0.430583
-0.143538 -0.033387 -0.440728
-0.181017 -0.039933 -0.434424
-0.193133 -0.033081 -0.435682
-0.102228 -0.022485 0.227495
-0.268412 0.558033 -0.090673
0.348363 -0.013835 0.240128
-0.192144 -0.025191 0.428466
-0.178883 -0.053102 0.422927
0.401733 -0.778891 0.313099
0.122615 0.005997 0.450432
-0.182132 -0.047679 -0.438800
-0.183246 -0.051831 0.425691
-0.195281 -0.040952 0.427219
-0.185014 -0.053575 -0.430275
0.136606 -0.044578 -0.451268
-0.206345 -0.038981 0.422745
0.189083 -0.041835 0.395052
-0.226961 0.484286 -0.444132
-0.223511 -0.146458 -0.001093
-0.278173 0.567669 0.314667
-0.183498 -0.051281 0.433905
-0.193774 -0.032130 0.432105
-0.208505 -0.035923 0.420753
-0.245964 0.425870 -0.049910
0.422823 0.003634 0.328374
0.055993 -0.753024 -0.407492
0.035180 0.093209 -0.443663
-0.234092 0.621697 -0.269078
-0.139770 -0.235268 0.430490
-0.148663 -0.045823 -0.435283
-0.137759 -0.054402 -0.451009
0.247910 -0.066138 0.348349
-0.015910 0.031480 0.468569
-0.140303 -0.033585 -0.083475
-0.313036 0.660698 -0.049821
-0.322210 0.628270 -0.370358
-0.073472 -0.000318 0.293897
-0.158720 -0.782539 -0.408051
0.441224 0.029993 0.042147
-0.187081 -0.048730 0.419872
0.079229 0.012132 -0.476281
-0.200108 -0.039738 0.419739
-0.181161 -0.052101 0.426281
0.459387 -0.668838 -0.393118
-0.187651 -0.014339 0.423122
-0.160425 -0.046023 -0.442613
-0.164029 -0.053066 -0.428349
0.387589 -0.002667 0.014809
-0.194757 -0.053610 0.421547
-0.106830 0.003889 0.433585
0.225895 -0.731373 0.455179
-0.122531 -0.045282 -0.442942
-0.234975 0.570054 0.360531
-0.260684 0.593300 -0.295468
0.355502 -0.186432 0.483298
0.473601 -0.130795 -0.420351
0.111476 0.022423 -0.396109
-0.014437 0.013491 -0.123432
-0.177679 -0.062286 -0.429023
-0.175537 -0.054648 0.424448
0.299678 -0.051140 -0.413498
0.170660 -0.002114 0.239569
0.261194 -0.006108 0.137506
-0.183415 -0.071136 0.421044
-0.143882 -0.035152 -0.412565
-0.213682 -0.045309 0.424919
-0.101225 0.006481 -0.324925
-0.124356 -0.016430 -0.317409
0.214418 -0.035582 -0.208039
0.000941 -0.012096 0.400702
0.303358 -0.625555 -0.459750
-0.141992 -0.046046 -0.435374
-0.214496 0.467995 -0.340656
0.462711 0.017087 -0.332579
-0.270885 -0.103676 0.434222
-0.193839 -0.043740 0.424281
-0.185700 -0.038304 0.428234
-0.183539 0.007359 -0.333847
-0.184415 -0.064266 0.415818
-0.152677 -0.044114 -0.434706
0.283046 0.151535 -0.442159
0.411157 -0.087706 -0.457589
-0.185205 0.082588 -0.152844
-0.126934 -0.055377 -0.126200
-0.176882 -0.047771 0.441739
-0.190217 -0.050043 -0.444960
-0.169014 -0.061230 0.435322
-0.194275 -0.037100 0.422490
-0.199514 -0.066829 0.426525
0.053794 -0.004369 0.274491
-0.150211 -0.035277 -0.442578
0.231258 0.000809 -0.292867
-0.207253 -0.060355 0.423394
0.250204 -0.063451 0.454628
0.032355 -0.047495 0.414504
-0.173021 -0.042743 -0.440644
-0.155285 -0.050197 -0.431002
-0.227930 0.479931 -0.380980
-0.280492 0.652592 0.120620
-0.217311 0.540956 -0.476208
-0.108663 0.001791 -0.156328
-0.173262 -0.048037 -0.429130
-0.156743 -0.041482 -0.434159
-0.126391 0.368985 0.467519
-0.190788 -0.041678 0.410915
-0.116953 -0.031312 -0.445454
0.306854 0.016875 -0.461151
-0.232862 -0.029002 0.029986
-0.176592 -0.062787 -0.427794
0.358212 -0.004436 0.239420
-0.183923 -0.053151 -0.443268
0.247427 -0.041692 0.435391
-0.187346 -0.024932 -0.436995
-0.171830 -0.047727 -0.447361
-0.192132 -0.052467 0.429325
-0.213814 -0.036512 0.419291
-0.160170 -0.067744 -0.446075
0.090937 -0.007417 -0.089367
-0.095517 -0.045205 0.399183
-0.229038 0.553663 0.208229
0.239537 0.040806 0.463530
-0.234159 -0.035283 0.415395
-0.196407 -0.041703 -0.439209
-0.187629 0.274259 0.384930
-0.280187 0.558953 0.091590
-0.003181 -0.021217 -0.437942
0.271253 -0.005576 -0.420635
-0.189204 -0.031296 0.428123
0.342207 0.014536 -0.034572
-0.157205 -0.049329 -0.455187
-0.270072 0.560515 -0.254901
-0.266061 -0.034378 -0.189231
-0.205495 0.000957 0.006160
0.328334 0.006281 0.248397
-0.270886 0.045387 0.428068
0.480136 -0.734716 -0.392031
-0.170336 -0.040308 0.432849
-0.216861 -0.048376 0.432271
-0.152823 -0.035917 0.337028
-0.055697 -0.037313 -0.462385
-0.200536 -0.052441 0.425841
-0.185742 -0.030885 0.430508
-0.150758 -0.046499 -0.438959
-0.161868 -0.081389 -0.425073
-0.239178 0.143926 -0.455949
-0.273401 0.281411 -0.114960
-0.204231 -0.059845 0.423992
0.177462 -0.045453 -0.365562
0.008406 -0.006936 -0.305313
0.324182 -0.735269 0.466090
0.410425 0.018686 -0.384581
-0.171126 0.001109 -0.437133
-0.164173 -0.031987 -0.443523
-0.131551 -0.025460 -0.250732
-0.213150 0.381672 0.345957
0.339533 0.015353 -0.300157
0.090235 0.011768 0.221247
-0.127685 -0.053955 0.446296
-0.170106 -0.045711 -0.428125
-0.156836 -0.047402 -0.444555
-0.361873 -0.741792 0.295497
-0.177065 -0.052924 -0.445195
-0.194033 -0.042602 0.423807
-0.204944 -0.028091 0.436709
-0.197746 -0.041518 0.436150
0.429067 0.131499 0.440788
-0.174344 -0.037586 -0.430095
-0.230813 0.132075 0.197115
-0.195976 -0.044291 0.419640
-0.179874 -0.054107 0.426448
-0.178558 -0.050939 -0.428418
-0.185215 -0.054029 0.429654
-0.160238 -0.051963 -0.429484
-0.195120 -0.055192 -0.442070
-0.184956 -0.052382 -0.432641
-0.286110 0.545460 0.138886
-0.164384 -0.045229 -0.441404
0.311113 -0.470438 0.444468
0.152035 -0.093686 -0.117365
-0.169198 -0.042903 -0.443320
0.173470 -0.008864 -0.379070
-0.270960 0.121036 0.033299
-0.235324 0.479565 0.227454
-0.137090 -0.045346 -0.449417
-0.191803 -0.052536 -0.446566
-0.104585 -0.066917 0.457054
0.036491 -0.021078 -0.427267
-0.286895 0.421679 0.441051
-0.177148 -0.041669 -0.432981
-0.317233 0.615589 0.130661
0.381560 -0.041471 -0.428257
0.190091 0.007074 0.300307
0.051850 -0.008409 0.435747
-0.134176 -0.053028 -0.433093
-0.169340 -0.045093 -0.444567
-0.102103 -0.015099 0.051673
-0.296795 0.579881 0.230450
-0.188662 -0.030424 0.334552
-0.082129 -0.038902 -0.430239
-0.172514 -0.024731 -0.445659
-0.185917 -0.039344 -0.434896
-0.198477 -0.041588 0.419270
-0.200379 -0.028374 0.422217
-0.133982 -0.047040 -0.435738
-0.189171 -0.040926 0.414706
-0.107619 -0.008630 0.436075
-0.138306 -0.040252 -0.441125
-0.169791 -0.054260 -0.430387
-0.203991 -0.079029 0.427133
-0.202450 -0.066639 0.412113
-0.293486 0.520488 0.421024
-0.137939 -0.059488 -0.440859
-0.269149 -0.205862 0.462075
-0.139162 -0.028319 -0.442388
-0.179063 -0.046274 -0.441167
-0.197129 -0.049262 0.427925
-0.166827 -0.045323 -0.372437
-0.194706 -0.042522 0.431763
-0.203331 -0.058559 0.419585
0.089678 0.004112 0.452848
-0.163266 -0.060537 -0.435260
-0.162429 -0.045028 -0.437205
-0.154459 -0.057766 -0.440690
-0.183213 -0.046506 0.426139
-0.141564 0.008051 0.020074
-0.268835 0.532362 0.271718
-0.296099 -0.032669 -0.435398
-0.130075 -0.067347 -0.438708
-0.178367 -0.116560 -0.259677
-0.145822 -0.034309 -0.444055
0.063034 0.038031 0.211852
-0.164746 -0.061256 -0.429467
-0.195671 -0.025692 0.423003
0.271545 -0.772237 -0.430300
-0.143239 -0.060929 -0.437396
-0.184309 -0.058321 -0.441519
-0.228159 -0.039480 0.434412
-0.074745 -0.043244 -0.464381
-0.109230 -0.052902 -0.426070
-0.145671 -0.045111 -0.431631
-0.200445 0.145829 0.473127
0.033215 -0.000602 -0.109084
-0.183820 -0.043507 -0.428175
0.028395 -0.033095 -0.031144
-0.206770 0.352605 0.185799
0.192092 0.332317 0.445207
-0.300540 -0.059838 0.091910
-0.122523 -0.051969 -0.413316
-0.164046 -0.050760 -0.437177
0.159753 -0.027151 0.465530
0.499790 -0.008014 -0.199656
-0.183695 -0.050461 -0.436195
-0.152326 -0.020446 0.430431
-0.105131 -0.020256 -0.425190
-0.198612 -0.038578 0.422023
-0.206229 -0.059386 0.429270
-0.166771 0.321309 -0.388511
-0.191685 -0.039751 0.424409
-0.186200 -0.062271 0.416803
0.284895 -0.773752 -0.376895
-0.286292 0.532000 -0.359635
-0.238042 0.318840 -0.015331
-0.163472 -0.043502 -0.439738
-0.152000 -0.041795 -0.443675
0.011162 -0.052217 -0.424256
-0.032367 -0.048992 0.426576
-0.182141 -0.069237 0.433413
-0.168471 -0.057996 -0.436819
0.215193 0.106372 0.040946
-0.265278 0.456749 -0.250904
0.078307 -0.100457 0.039272
0.020397 0.032457 -0.412283
-0.058115 -0.713661 -0.441789
-0.191372 -0.061354 0.431119
-0.101330 -0.047677 0.430217
-0.111645 -0.014353 -0.098428
-0.184816 -0.041597 0.434603
-0.177210 -0.051282 -0.445979
0.306912 -0.016873 0.188959
-0.158389 -0.039917 -0.440753
-0.078554 -0.041302 0.111281
-0.229973 0.545107 -0.369009
-0.194486 -0.046219 0.423704
0.277535 -0.002960 -0.289472
0.067059 0.000105 0.018774
-0.252921 0.129469 0.454123
-0.197197 -0.037694 0.425208
-0.215569 0.578777 -0.130181
-0.125620 -0.071446 -0.433829
0.185730 -0.041647 0.118469
-0.177154 -0.049685 -0.442739
-0.292872 0.250992 -0.012457
-0.199815 -0.051692 0.429328
-0.215777 -0.038728 0.418810
-0.176657 -0.052215 0.424454
-0.193950 -0.049821 0.431564
-0.289127 0.304568 -0.213746
-0.185802 -0.039892 -0.438321
-0.222576 -0.040409 0.426489
-0.144604 -0.044131 -0.440298
0.248875 -0.042676 -0.459836
-0.233144 0.558126 -0.037986
-0.165053 -0.134603 -0.428806
-0.193434 -0.042250 -0.433640
0.041740 -0.019874 0.188113
-0.208142 -0.037716 0.433438
0.229155 -0.032701 0.199749
0.358942 -0.348449 -0.422079
-0.171538 -0.048206 -0.437129
-0.174541 -0.048627 0.435069
-0.131295 -0.112030 -0.467337
-0.258924 0.189011 -0.233626
-0.190988 -0.040787 0.430746
-0.235773 0.362971 0.461452
-0.223254 0.419285 -0.293293
-0.150438 -0.040003 -0.433960
-0.166655 -0.061239 -0.435950
-0.201040 -0.358379 0.421131
-0.207875 -0.029705 0.420531
0.379090 -0.069527 -0.069837
-0.166027 -0.039885 -0.433344
0.002564 0.000124 0.421314
-0.168215 -0.051116 -0.452063
-0.227035 0.497758 -0.180637
-0.152263 -0.053072 -0.434949
-0.151432 -0.050687 -0.446724
0.020437 -0.070101 -0.451731
-0.200946 -0.037585 0.425776
-0.090863 -0.059034 -0.055332
-0.160710 -0.028848 -0.441944
-0.128167 -0.039076 -0.435195
-0.184734 -0.057257 0.417811
0.497578 -0.085067 -0.451781
-0.071071 -0.014032 0.373084
-0.188272 -0.037489 0.426619
-0.184353 -0.038652 0.432421
-0.189611 -0.055531 -0.428552
-0.290534 0.478263 0.279003
-0.169924 -0.041162 -0.444194
-0.176127 -0.037837 -0.438259
-0.159776 -0.032911 0.407455
-0.170405 -0.047194 0.423957
-0.016073 -0.006938 0.213494
-0.212223 -0.043026 0.414590
0.319701 0.287261 -0.431022
0.018389 -0.005923 0.333389
0.311307 0.012557 0.218961
0.358729 -0.022899 0.014384
-0.174385 -0.034793 -0.423832
0.355087 0.005705 -0.362928
-0.103335 -0.042356 -0.444884
-0.170063 -0.058546 -0.433184
-0.186274 -0.037850 0.431534
-0.174153 -0.052050 -0.440738
-0.177725 -0.027441 -0.431337
-0.187833 -0.042608 0.425835
0.412566 -0.015048 -0.312356
0.058034 -0.031948 0.381402
-0.168108 -0.041915 -0.450792
-0.233196 0.498365 0.135668
-0.199806 -0.033989 0.423839
-0.186291 -0.014114 -0.380140
0.278543 0.028197 -0.418286
-0.035870 -0.009580 0.439274
-0.153980 -0.040764 0.430901
-0.175340 -0.047809 -0.440905
-0.117593 -0.028356 -0.452256
-0.169797 -0.051693 -0.434197
-0.177886 -0.050557 -0.435960
-0.217034 -0.071370 0.426224
-0.206857 -0.019414 0.422613
-0.218433 -0.028054 0.431232
-0.159509 -0.047720 -0.450024
-0.291434 0.600043 0.070287
-0.287087 0.421776 0.227853
-0.191019 -0.033423 0.424947
-0.208312 0.435421 0.303773
-0.124303 0.003766 -0.102863
-0.229092 -0.016439 -0.474870
-0.087017 -0.072952 0.341399
-0.191983 -0.053098 -0.440536
0.436445 0.006550 -0.161293
-0.161689 -0.047176 -0.437427
-0.081746 -0.008095 -0.314355
-0.199682 -0.054191 -0.440964
0.274504 0.011239 0.275886
-0.202058 0.375119 -0.073944
0.098560 -0.030297 0.442386
0.376003 0.034470 0.197547
-0.269872 0.343919 -0.435132
-0.008579 0.461970 0.463373
-0.172516 -0.039271 -0.459181
-0.141382 -0.050742 -0.448340
-0.041561 -0.023992 0.235989
-0.194012 -0.044563 0.427479
-0.178384 -0.034343 -0.439220
-0.075302 -0.035929 0.400831
-0.145733 -0.006976 -0.414395
0.427084 0.155883 -0.430675
0.390042 -0.019342 -0.188106
-0.226241 -0.041894 -0.391245
-0.206587 -0.280453 -0.429135
-0.200519 -0.042570 0.434621
-0.205331 0.029438 -0.170857
-0.200872 -0.057435 0.423886
-0.177785 -0.047176 -0.437847
-0.185513 -0.034070 0.419742
-0.170788 -0.034323 -0.436954
-0.197561 -0.060188 0.052675
-0.144145 -0.049580 -0.445976
-0.187784 -0.041729 -0.430922
-0.181598 -0.051112 0.417060
0.041530 0.005267 -0.163479
-0.176210 -0.019717 0.449766
0.357972 -0.078941 -0.127507
-0.295970 0.293097 -0.396740
-0.013360 -0.045560 0.453500
-0.113175 -0.047654 -0.437561
0.318930 -0.226483 0.406831
-0.272252 0.551999 0.001081
-0.127214 -0.027813 0.138953
-0.268824 0.206854 0.213234
-0.178436 0.006718 0.229498
0.210402 -0.046918 0.217499
-0.168594 -0.060372 -0.433318
-0.111557 -0.045358 -0.455851
-0.308659 0.531312 -0.120601
-0.054476 -0.021039 0.170745
-0.068721 0.004010 -0.291279
-0.212436 -0.031057 0.420074
-0.024474 -0.734887 0.431351
-0.044925 0.003889 0.200925
-0.210646 -0.038944 0.434621
-0.196426 0.014764 -0.380489
-0.162044 -0.055040 -0.440422
-0.208815 -0.038103 0.419525
-0.195543 -0.035845 -0.431699
-0.196410 -0.039548 0.422508
-0.158787 -0.053217 -0.427640
-0.121527 -0.054461 -0.434799
-0.182459 -0.041320 -0.436629
-0.145981 -0.044937 -0.446474
-0.271760 0.220342 -0.141215
-0.235155 0.244134 -0.193280
0.253847 -0.065836 -0.402707
-0.210723 -0.045951 0.418637
-0.162174 -0.045710 -0.451318
-0.210783 -0.044729 0.424470
-0.258722 0.445374 0.055065
-0.145075 -0.060555 -0.437545
-0.200230 0.005508 0.380309
-0.173580 -0.041272 -0.437936
-0.182246 -0.023965 0.431782
-0.219295 0.454690 0.192226
0.041829 -0.040690 -0.455212
0.357093 0.013662 0.469641
-0.212501 -0.060962 0.264963
-0.180886 -0.054772 -0.455156
-0.283936 0.737967 0.377327
-0.250455 0.376297 0.134401
0.426028 -0.670197 -0.436570
-0.135966 -0.047831 -0.453022
-0.211852 -0.046124 0.432688
0.356369 -0.776513 -0.405998
-0.153912 -0.047187 -0.440388
0.409155 -0.048819 0.430761
0.281522 -0.032180 -0.356324
0.035488 -0.019741 -0.218889
-0.221044 -0.049278 0.415106
0.390594 -0.286864 0.418047
-0.210699 0.038920 0.388327
-0.169388 -0.052872 -0.439116
-0.237242 0.523726 -0.429005
-0.173167 -0.034411 0.427307
-0.211435 0.342009 -0.249232
-0.222935 0.602810 0.044114
-0.180711 -0.059323 -0.436711
0.182572 -0.075862 -0.469558
-0.149065 0.152837 -0.274149
-0.183357 -0.043758 -0.436315
0.325920 -0.009227 0.466458
-0.174052 -0.061362 -0.441946
-0.155383 -0.088458 0.398756
-0.190358 -0.025070 0.426397
0.494069 -0.041796 -0.016259
-0.170766 -0.029998 -0.438657
-0.179496 -0.046280 -0.440394
-0.176474 -0.043253 -0.433549
-0.194503 -0.033175 0.424836
0.432296 0.014820 -0.418200
-0.145316 -0.039728 -0.435733
0.298695 0.004651 0.450244
0.036392 0.015338 0.372817
0.300175 -0.011147 -0.187749
-0.184654 -0.035400 0.240186
-0.012865 -0.056091 -0.089760
-0.199746 -0.063751 0.419702
0.317166 -0.058172 0.406222
0.438462 -0.000941 0.154908
-0.177245 -0.036837 -0.438231
-0.158360 -0.040095 -0.442449
-0.046562 -0.012910 0.426422
0.287279 0.069387 0.349983
-0.182294 0.022819 0.079878
-0.274256 0.390810 -0.295633
-0.194065 -0.036754 0.424702
0.215365 0.006551 -0.237896
0.214295 -0.030630 -0.265227
-0.167060 -0.035834 0.437714
0.277507 -0.013701 0.422593
-0.175620 -0.046058 -0.432738
-0.240813 0.464345 0.462076
-0.175020 -0.053634 -0.445694
-0.185249 -0.035046 -0.433524
-0.215002 -0.034541 0.426892
0.147434 -0.008442 0.449970
-0.140416 -0.049489 -0.438633
0.304223 -0.022583 -0.036613
-0.301817 0.476343 -0.385193
-0.165150 -0.059452 -0.435715
0.100887 -0.121235 -0.441117
-0.202250 -0.045177 0.420496
-0.096689 -0.100517 0.436010
-0.157599 -0.040151 -0.439127
-0.194857 0.094963 -0.131993
0.235914 -0.037500 0.062898
-0.091196 0.009851 0.308323
-0.196956 0.077636 -0.311483
-0.151676 -0.066453 -0.436783
-0.174589 -0.062274 -0.440196
-0.177777 -0.071338 0.452024
0.263180 -0.055712 -0.018609
-0.149606 -0.039423 -0.430858
-0.178492 -0.056203 -0.436476
-0.203299 -0.040948 -0.432579
-0.133770 0.007213 0.129199
-0.159811 -0.044867 0.421038
-0.297431 0.391245 0.019013
-0.108756 -0.049895 -0.441949
0.416481 -0.695126 0.448395
-0.153932 -0.039304 -0.448902
-0.162016 -0.027660 0.428595
-0.139279 -0.031678 -0.439329
-0.156988 -0.054980 -0.429586
-0.093934 -0.018224 -0.280703
-0.234626 0.621128 0.316464
-0.182442 -0.034116 0.427840
-0.170087 -0.048398 -0.437896
0.268206 0.032960 -0.399376
-0.276539 0.492406 0.449184
-0.194980 -0.037534 -0.440181
-0.167911 -0.052376 -0.449749
-0.189105 -0.045565 0.428082
0.321849 -0.413668 -0.449372
-0.306558 0.494402 0.035061
-0.248954 0.587520 0.294110
-0.147753 -0.047487 -0.431047
-0.165191 -0.055772 -0.431471
0.354814 0.030000 -0.413041
0.136287 -0.029528 -0.446297
-0.185430 -0.037954 0.428104
-0.119960 -0.014490 0.421939
-0.176020 -0.035419 -0.435099
-0.163548 -0.059525 -0.443015
-0.112120 -0.037384 -0.429721
-0.313744 0.742349 0.029726
-0.151586 -0.057609 -0.436976
-0.186606 -0.025377 -0.434164
-0.278508 0.338274 0.196193
-0.151966 -0.048034 -0.428431
-0.173885 -0.042732 -0.444929
-0.012981 -0.082384 0.428204
-0.258667 -0.119065 -0.426623
-0.227827 0.598315 0.436814
-0.014512 -0.045952 -0.406427
-0.207382 -0.126329 -0.362535
-0.184241 -0.034803 0.430525
0.395650 -0.262437 -0.421977
-0.023320 0.017888 0.260362
-0.130145 -0.070461 0.420607
0.252006 -0.020487 -0.373844
0.059961 -0.016563 0.327384
0.522741 -0.407527 0.432212
-0.162771 -0.040579 -0.451986
-0.216429 0.196677 0.432167
-0.190371 -0.046928 -0.432645
0.053577 0.008944 -0.255139
-0.207743 -0.045520 0.411283
-0.149639 -0.050907 -0.455273
-0.178951 -0.042971 0.431067
-0.163135 -0.031964 0.324481
-0.209007 -0.040924 0.426224
-0.175427 -0.039904 -0.440067
-0.174453 -0.039134 -0.438867
-0.350186 -0.755536 -0.281759
-0.194328 -0.046151 0.417090
0.242262 -0.052108 0.049162
-0.198798 0.101677 -0.453787
-0.314335 0.625060 0.015192
-0.189302 -0.021325 0.436921
-0.295863 0.634207 0.341866
-0.237755 0.613891 -0.144033
-0.167813 -0.058685 -0.439120
-0.184399 -0.056953 -0.449303
-0.176369 0.154621 -0.414741
-0.187932 -0.028350 0.431748
-0.174892 -0.040782 -0.445809
-0.109053 -0.052286 -0.427148
-0.047288 -0.024912 -0.026457
-0.202795 -0.042182 0.429476
-0.234368 -0.046302 0.414952
-0.116729 -0.027278 -0.432754
-0.193192 0.126004 0.269417
-0.167036 -0.044644 -0.443549
0.476711 -0.092620 0.417307
-0.190455 -0.047404 0.419238
0.004694 0.007144 -0.198263
0.203742 0.002867 0.086398
0.346078 0.029602 0.350960
-0.288654 -0.050759 -0.135744
-0.186048 -0.037996 0.422563
0.155368 -0.769535 -0.442449
-0.194294 -0.047875 0.422748
-0.005087 -0.025428 0.140738
-0.253048 0.244024 0.401742
-0.136698 -0.052941 -0.437344
-0.190325 -0.042705 0.425123
0.511577 -0.043294 -0.147673
-0.182684 -0.041037 -0.441883
-0.192993 -0.065744 0.426205
-0.013387 0.024375 0.263755
-0.158254 -0.043895 -0.431377
-0.157531 -0.053892 -0.444479
0.367788 -0.063089 0.485743
-0.201227 -0.040887 -0.435137
0.060962 0.006001 -0.440793
0.057180 -0.003548 -0.310462
-0.189074 -0.041740 -0.426172
-0.232986 -0.350524 -0.078727
-0.227803 0.002076 0.387120
-0.253042 0.475100 -0.140502
-0.180114 -0.045819 0.410527
-0.185806 -0.019787 -0.415701
-0.155083 -0.043263 -0.401222
-0.109088 -0.055555 -0.448249
-0.298638 0.671239 0.437868
-0.176223 -0.046006 -0.433977
-0.097540 -0.065712 0.407108
-0.257323 0.652070 -0.405529
-0.173759 -0.039712 0.420696
0.123616 -0.057014 -0.425720
0.015174 -0.007232 0.469528
-0.189475 -0.031046 0.420477
-0.124022 -0.068136 -0.425643
-0.189103 -0.053757 0.425674
-0.194100 -0.256514 0.349830
-0.205488 -0.072257 0.423256
-0.128169 -0.058208 -0.440999
-0.178901 -0.054188 -0.443502
-0.130187 -0.025494 -0.383697
0.453735 -0.042455 0.447209
-0.193035 -0.027462 0.417805
-0.195025 0.093839 -0.411958
-0.161685 -0.617256 0.388733
-0.155585 -0.035727 -0.434296
-0.188347 -0.024158 0.427637
-0.171032 -0.062320 -0.448868
-0.174472 -0.036065 0.443057
0.452451 -0.477767 0.434652
-0.192378 -0.033107 0.429746
-0.217748 -0.140493 0.444831
-0.265135 0.524053 0.329766
-0.014654 0.025446 -0.440823
-0.178117 -0.067150 0.105820
-0.310632 0.735435 -0.171146
-0.206239 -0.054301 0.422779
0.088727 -0.740254 0.433034
-0.166533 -0.049857 0.432088
-0.142788 -0.058537 0.168398
-0.176167 -0.045783 -0.440218
-0.069438 -0.033138 -0.436868
-0.213350 -0.330819 0.376143
-0.257897 0.175049 0.325947
0.404159 0.021889 0.267058
0.424792 0.001523 -0.039166
-0.143065 -0.016772 0.413664
-0.224188 0.511311 0.274941
-0.088457 -0.016303 -0.423234
-0.196476 -0.044464 0.423417
-0.181102 -0.041958 0.429438
0.136459 -0.046094 -0.459948
-0.044543 0.001852 -0.224650
-0.152559 -0.053029 -0.444073
-0.190002 -0.028489 0.414659
-0.189252 -0.040746 0.425214
-0.167495 -0.049625 -0.449903
-0.199141 -0.065886 0.419714
0.018482 0.007243 0.378657
-0.099574 -0.035737 -0.051213
-0.124698 -0.008959 -0.437025
0.517797 -0.044668 0.234198
0.303421 -0.014478 -0.009883
0.377839 -0.000527 -0.312770
-0.174396 -0.039359 -0.443103
0.302347 -0.701026 -0.429517
-0.155977 -0.032329 -0.441025
-0.237723 -0.398353 -0.353211
-0.170776 -0.053616 -0.440477
-0.280295 0.507822 0.208116
0.075649 0.007277 -0.350115
-0.159055 -0.042885 -0.446227
-0.190505 -0.049721 0.425068
0.213208 -0.283366 -0.446601
0.315539 -0.055815 0.338695
-0.149898 -0.038595 -0.418418
-0.187431 -0.044331 -0.432065
-0.168101 -0.056870 -0.444718
-0.170861 -0.050255 -0.434887
-0.165562 -0.037059 -0.431543
-0.254248 0.018364 0.098453
-0.198298 -0.028151 0.426977
-0.211753 -0.055132 0.421627
-0.144479 -0.033180 -0.413600
0.195155 0.011716 0.426943
-0.200432 0.523486 -0.419861
-0.166656 -0.056513 -0.448341
-0.158593 -0.052471 -0.448467
0.433785 -0.287544 0.458858
-0.191071 -0.029047 0.427217
-0.150900 -0.056025 -0.437637
-0.143161 0.026253 -0.210096
-0.198755 -0.041885 0.426143
-0.251053 0.653002 0.452003
-0.019257 -0.005132 0.414073
-0.184340 -0.040011 -0.440793
-0.186132 -0.004828 0.432315
-0.131115 -0.074249 -0.416932
-0.081675 -0.051622 0.466981
-0.012980 -0.021006 0.103044
0.325218 -0.021736 -0.333830
-0.167259 -0.047633 -0.444496
-0.196257 -0.051688 0.425220
-0.025065 -0.009426 0.407177
0.350036 -0.001601 0.413119
-0.250716 -0.084188 -0.263280
-0.160339 -0.053743 -0.431589
-0.097772 -0.003301 -0.438645
-0.148922 -0.043487 -0.437900
-0.186457 -0.039938 -0.428649
-0.187466 0.307500 0.435908
-0.184864 -0.040765 -0.442860
-0.092733 -0.034014 -0.435669
-0.133777 -0.050273 -0.437541
-0.168929 -0.045187 -0.436054
-0.177781 -0.057560 -0.436058
-0.163232 0.216355 0.438842
-0.194291 -0.047504 0.426222
-0.196082 -0.042942 0.431821
-0.299112 0.372771 -0.164419
-0.266061 0.140406 0.388148
0.445888 -0.031230 0.002576
-0.219227 -0.055280 0.433021
0.047693 -0.037978 0.435854
-0.183147 -0.029889 -0.445338
-0.132033 -0.009704 -0.410082
-0.175958 -0.055591 -0.434089
-0.210930 0.361695 0.413637
0.270962 -0.015266 0.234559
-0.193164 -0.029955 0.429312
-0.170219 -0.055108 -0.433883
-0.160087 -0.043172 0.446438
0.446442 0.027472 0.445934
-0.257505 0.589616 0.001895
-0.178615 -0.051110 -0.433566
-0.235607 -0.288429 0.210102
0.328202 -0.001601 -0.362427
0.036402 0.022100 0.217194
-0.065559 -0.038191 -0.417724
-0.118035 -0.017371 0.036277
0.160443 0.009613 -0.209566
-0.145516 -0.042456 -0.436771
-0.271520 0.327296 0.421128
-0.287301 0.607994 -0.352965
-0.169481 -0.024947 0.468428
-0.170111 -0.086856 -0.016142
0.420205 -0.539610 0.442630
0.321341 0.021496 0.060402
0.284730 -0.024470 -0.458819
-0.194680 -0.051805 0.424554
-0.213101 -0.025303 0.449200
-0.159121 -0.056323 -0.450592
-0.190609 0.098090 0.305554
-0.200772 -0.043635 0.423502
-0.168754 -0.062129 -0.446645
0.095303 -0.009908 -0.045172
-0.215668 -0.040080 0.429277
0.514393 -0.012246 0.416184
0.121234 -0.053430 0.358621
-0.112576 -0.045932 -0.447686
-0.213151 -0.050968 0.430662
-0.159540 -0.044937 -0.433518
-0.152076 -0.048268 -0.438690
-0.155285 0.046183 0.023960
-0.195279 -0.036241 -0.429048
-0.178540 -0.029034 0.412701
-0.135935 -0.036137 -0.445121
-0.147558 -0.050818 -0.438061
-0.203891 -0.049094 0.441030
0.199497 -0.058957 -0.399684
0.432693 -0.114360 0.468434
0.235936 -0.006337 0.469338
-0.210602 -0.027549 0.433663
-0.274697 0.106240 -0.305578
-0.187945 -0.029267 0.424632
-0.166581 -0.050306 -0.448777
0.035116 -0.027892 -0.449778
-0.197014 -0.053312 -0.428936
0.186519 -0.006634 -0.448956
0.211923 -0.056522 0.146103
-0.208776 0.341515 -0.382322
0.011280 -0.186792 0.422313
-0.176976 -0.043591 -0.446705
-0.278151 -0.614375 -0.277533
0.376891 0.019259 -0.210935
0.032920 -0.048997 -0.266972
0.151897 -0.031485 -0.094586
-0.185944 -0.040472 0.425978
0.286189 -0.016276 -0.133742
-0.196644 -0.057765 0.429106
-0.103231 0.002391 0.430783
-0.263811 -0.059111 -0.030384
-0.148332 -0.053036 -0.435864
0.169735 -0.001621 0.342237
-0.182168 0.023133 0.287738
0.390756 0.003481 0.367944
-0.059467 -0.051293 -0.429446
-0.155511 0.035300 0.411069
-0.178864 -0.056786 -0.435213
-0.148794 -0.060763 -0.448729
-0.197594 -0.044211 0.427749
0.410519 -0.116164 -0.282171
0.289248 0.011870 0.323950
-0.169165 -0.049858 -0.437061
-0.237279 0.621686 -0.070670
-0.133323 -0.029170 0.351044
-0.191704 -0.004559 0.186657
0.335232 0.005138 -0.400116
-0.161804 -0.035002 -0.437534
-0.181620 0.040580 -0.381051
0.271670 0.009623 0.068869
-0.235203 0.263879 -0.401453
0.115373 0.002486 -0.309383
-0.191566 -0.069865 0.424377
-0.179585 -0.047129 -0.439250
-0.269541 -0.281729 -0.427013
-0.052821 -0.006546 -0.039660
-0.181681 -0.083634 -0.424602
-0.244419 0.290371 -0.488922
-0.111140 -0.007267 0.400680
-0.130100 0.003949 0.424485
-0.213425 -0.081831 -0.447161
-0.220986 -0.053911 0.425372
-0.173858 -0.055926 -0.441174
-0.256198 0.534618 -0.297669
0.398572 -0.022352 -0.230770
-0.190260 -0.035272 -0.431618
-0.176523 -0.059369 -0.364351
-0.138657 0.002437 -0.291410
-0.198764 -0.063861 0.198264
-0.189827 -0.049437 0.427510
0.114958 -0.025084 -0.404789
-0.194852 -0.038393 -0.441658
-0.139060 -0.041379 -0.445700
-0.180053 -0.046859 -0.441805
0.285859 -0.031054 -0.427527
-0.173760 -0.033770 -0.430394
-0.127525 -0.006494 0.020038
-0.167612 -0.057974 -0.439195
-0.227604 0.601841 0.132496
-0.189637 -0.038996 0.422319
-0.164506 -0.055408 -0.430044
0.112504 0.033312 0.433446
-0.209874 0.202537 -0.419951
0.232056 -0.165615 0.458936
0.077200 -0.025183 0.417585
-0.288825 0.598872 0.376420
-0.162765 -0.053382 -0.445848
-0.180297 -0.049938 -0.441963
-0.217252 -0.042523 0.415554
0.158597 -0.005177 0.326374
-0.146144 -0.050874 -0.454188
-0.201065 -0.032659 0.427996
-0.091729 -0.040306 -0.147492
0.370231 -0.045321 -0.452455
-0.168952 -0.028857 0.429177
-0.195270 -0.056370 -0.426176
-0.190229 -0.031254 0.430762
-0.176465 -0.045457 -0.434253
-0.158528 -0.033782 0.424950
-0.285421 0.604030 -0.114343
-0.192408 -0.044412 0.417021
-0.237085 0.426383 -0.375712
0.162632 -0.024064 0.163230
-0.024964 -0.008748 -0.012382
-0.215990 -0.044124 0.442629
0.380715 0.000980 0.090273
-0.221566 0.336516 -0.149598
-0.296987 0.479918 0.133154
-0.269767 -0.003891 -0.370997
-0.197676 -0.039008 0.417777
-0.207600 -0.055437 0.422418
-0.189198 -0.041968 0.435698
0.312168 -0.064332 -0.282069
-0.192501 -0.035609 0.424377
-0.175377 -0.038806 0.422726
-0.152792 -0.059324 -0.442627
-0.177853 -0.044196 -0.434766
-0.218974 -0.040274 0.425179
-0.132048 -0.055630 -0.441952
-0.268779 -0.037626 0.366528
-0.238271 -0.088092 0.280924
-0.203469 -0.046487 0.425250
-0.055765 0.003928 0.099670
0.150881 -0.053853 0.240306
0.386996 -0.021417 -0.369816
-0.122884 -0.032518 -0.433540
-0.220839 -0.051544 0.419555
-0.443756 -0.712708 -0.369111
0.271350 -0.028363 -0.459499
-0.105805 0.117055 0.429425
0.212425 0.009551 -0.336876
-0.154461 -0.050129 -0.446646
-0.199623 0.245824 -0.378916
-0.234614 0.498811 0.404838
0.269236 0.167376 0.463003
-0.139918 -0.046716 -0.438314
-0.304098 0.574386 -0.409687
-0.220203 -0.069921 -0.105795
-0.127391 -0.028509 -0.424245
-0.206032 -0.030966 0.115779
-0.275698 -0.053177 0.444032
-0.130969 -0.215962 -0.413881
0.335005 -0.000400 0.159113
-0.155772 0.015215 -0.030489
-0.185377 -0.044676 0.422435
-0.167732 -0.046498 0.418407
-0.192245 -0.046741 0.424006
-0.189847 0.228212 -0.101484
-0.154850 -0.068359 -0.433413
-0.139222 -0.051893 -0.427949
-0.089708 -0.049619 -0.453893
0.051469 0.011873 0.134317
-0.194066 -0.036201 0.425357
-0.219249 -0.265477 -0.343927
0.075603 0.002673 -0.404969
-0.192275 -0.040009 -0.438444
0.216611 0.018778 0.222054
-0.160565 -0.046900 -0.435273
-0.272289 -0.044000 0.229229
-0.162764 -0.045022 -0.449847
-0.173885 -0.041774 -0.438726
0.145987 -0.033490 -0.419944
0.258731 -0.006452 0.245510
-0.220627 0.446669 0.108988
-0.033103 -0.024973 0.448781
-0.180743 0.211050 0.170939
-0.204698 -0.049505 -0.429250
-0.125426 -0.007751 -0.402799
-0.184342 -0.048265 0.425780
-0.168327 -0.039698 -0.434205
-0.132419 -0.011374 -0.445035
0.406076 0.025854 0.171876
-0.188982 -0.037310 -0.431926
-0.159091 -0.049464 0.423645
-0.283416 0.229031 -0.429233
-0.180733 -0.045406 -0.424475
0.313695 0.018599 -0.261774
-0.177670 -0.046158 -0.439518
-0.050893 -0.028842 0.456497
-0.020448 -0.013206 0.375464
0.363033 -0.021613 -0.478258
-0.130276 -0.054585 -0.448319
-0.109592 -0.032222 0.408219
-0.257037 0.028575 -0.251546
0.020572 -0.024396 -0.360692
-0.166893 -0.058126 -0.448681
-0.064243 0.033273 0.364542
-0.218372 -0.051957 0.414959
0.254568 -0.000307 -0.222441
-0.190698 0.262062 0.460175
-0.202192 -0.048392 0.412615
-0.002649 -0.053956 0.427909
-0.273154 0.447095 -0.307690
-0.168671 -0.050128 -0.454395
-0.149465 -0.091034 -0.353643
-0.176362 -0.050858 -0.447600
0.221248 -0.004989 0.302825
-0.196211 -0.049497 0.429424
-0.288565 -0.714784 -0.090748
-0.168644 -0.055468 -0.441471
-0.258557 0.603370 -0.200960
-0.186730 -0.049229 0.429184
-0.180556 -0.048337 0.422254
0.004896 -0.408582 -0.414059
-0.158596 -0.050110 -0.434290
-0.079397 -0.011269 -0.332152
-0.010528 0.430205 -0.439423
-0.155228 -0.050241 -0.446800
-0.197516 -0.004152 0.423179
0.108291 -0.040580 0.412693
-0.165520 -0.038419 -0.428663
-0.275997 0.659787 -0.090377
0.228926 -0.041743 0.390610
0.119985 -0.052343 -0.032192
-0.213958 -0.040361 0.423433
0.290122 -0.065365 -0.184200
-0.196183 -0.041684 0.427573
-0.158406 -0.051450 -0.425308
-0.280618 0.461377 0.371581
-0.065124 -0.034319 -0.452010
0.507754 0.017121 -0.118483
-0.135149 -0.058367 -0.435527
-0.193979 -0.097107 0.320766
-0.189562 -0.047015 0.425261
-0.179797 -0.154484 0.441597
0.288296 0.002103 -0.368949
-0.202474 -0.040556 0.417364
0.463048 -0.018626 0.078921
-0.206833 -0.061159 0.427127
-0.156923 -0.050949 -0.450408
-0.288860 0.580508 0.447922
-0.128998 -0.028033 -0.421105
-0.188024 -0.047121 0.425510
-0.140552 -0.036289 -0.444180
-0.174924 -0.029778 -0.450026
-0.163451 -0.046017 -0.434641
0.179401 -0.769035 0.451138
-0.146069 -0.042251 -0.441248
-0.241959 0.623655 0.247773
-0.235613 0.493713 -0.281629
-0.247377 0.411455 0.411314
-0.001791 -0.384050 0.416533
-0.301742 0.481562 -0.026680
0.052245 -0.049131 0.472366
-0.196629 -0.041732 0.424180
-0.172254 -0.057030 -0.431849
-0.178315 -0.030874 0.427752
-0.203321 -0.055828 0.434895
-0.168805 -0.045266 -0.446190
-0.138863 -0.032454 -0.438310
-0.136728 -0.006185 0.354405
-0.076491 -0.018416 -0.461460
-0.208175 -0.054304 -0.423806
-0.200470 -0.052117 0.434817
-0.263129 0.277513 0.311072
-0.226915 -0.039827 0.157609
-0.243186 0.207352 -0.309549
-0.186741 -0.073285 -0.429755
-0.171407 -0.043830 -0.427361
-0.196805 -0.040764 -0.435794
-0.071684 -0.035908 0.407423
-0.183583 0.110976 0.412236
-0.188553 -0.061053 0.413093
-0.144804 -0.054331 -0.436841
0.154367 0.007750 -0.354314
-0.192784 0.493444 0.448356
0.145007 -0.022764 0.437323
-0.157447 -0.050319 -0.434989
-0.155485 -0.037383 -0.438975
-0.206244 0.062563 0.460449
-0.183181 -0.025657 -0.433509
-0.106970 -0.045167 -0.426648
0.101437 -0.045619 -0.371300
-0.208384 0.350463 0.080936
0.205383 0.014780 -0.091516
-0.179242 -0.048020 0.432623
0.192655 -0.039847 0.446414
-0.095466 0.007347 -0.425026
0.125516 -0.004265 0.272578
-0.162964 -0.047051 -0.439149
-0.312453 -0.694916 0.099789
-0.160984 -0.044959 -0.439761
-0.155613 -0.037537 -0.439951
-0.250091 -0.006378 -0.128255
0.120362 -0.050576 -0.306345
-0.071752 -0.026712 0.294689
-0.193821 0.133809 0.414131
-0.147185 -0.040425 -0.443066
-0.163378 -0.043350 -0.427715
-0.161165 -0.058107 -0.432042
-0.201488 -0.058169 0.418795
-0.182873 -0.057769 0.416157
-0.131723 -0.038857 0.432726
-0.232890 0.547426 -0.242079
-0.196838 -0.018524 -0.238508
0.498355 -0.009074 0.307320
0.334758 -0.106041 -0.463188
-0.177744 -0.051455 0.455116
-0.173196 -0.054347 -0.449730
-0.169721 -0.028650 -0.431630
-0.176230 -0.035920 -0.433388
-0.175796 -0.026313 -0.436538
-0.140358 -0.021499 0.422879
-0.138163 -0.044176 -0.433324
-0.165026 -0.041015 -0.432398
-0.272671 0.402624 -0.109328
-0.192371 0.045917 0.380989
0.322709 -0.008795 -0.247185
-0.281634 0.315569 0.064648
0.126085 -0.006310 -0.149963
-0.014989 0.002302 0.328969
-0.213439 -0.067804 0.451282
-0.208317 -0.047038 0.419081
0.170894 -0.634642 0.436778
-0.181075 -0.046557 -0.435212
-0.137343 0.016042 -0.229008
-0.129130 -0.039708 -0.423758
-0.256445 0.587484 -0.374096
-0.299076 0.383246 0.104510
-0.143834 -0.043407 -0.442926
-0.190160 -0.047199 0.425895
-0.236931 0.607295 -0.377559
-0.158530 -0.016412 -0.247388
0.437570 -0.296247 -0.459141
0.001239 -0.023121 -0.121470
-0.180588 -0.046636 -0.440149
-0.121453 -0.027652 -0.432511
-0.237773 -0.083114 0.361429
-0.214167 -0.037861 0.425070
0.096563 -0.092060 0.457275
-0.204392 -0.040049 0.425463
-0.188947 -0.053111 -0.436925
0.263823 0.007179 -0.050820
-0.320023 0.610378 -0.149043
-0.256177 0.616628 0.210611
-0.305400 0.730419 0.198335
-0.149610 -0.052094 -0.433413
0.364462 -0.068019 -0.196179
0.005413 -0.131242 -0.412484
-0.278098 0.662014 0.276422
-0.191181 -0.050536 -0.436146
-0.187368 -0.016888 0.447348
-0.186807 -0.033546 -0.437353
-0.295856 0.636992 0.285474
-0.174382 -0.045542 0.432459
0.392499 -0.194308 0.000096
-0.251079 0.409973 0.199206
-0.182872 0.444027 -0.434601
-0.106482 0.126186 -0.426747
0.408391 -0.050518 0.404875
-0.178340 -0.054240 -0.454579
-0.210089 -0.047684 0.420504
-0.173169 -0.726338 -0.423496
-0.151369 -0.031619 -0.451604
-0.148927 -0.050756 -0.445505
0.004089 -0.045243 0.324943
-0.241241 0.060721 0.157289
-0.019392 -0.032765 -0.415292
-0.068406 -0.011142 -0.109028
-0.127491 -0.020682 0.294535
0.314696 0.017794 0.430117
-0.197060 -0.043186 0.430364
0.056615 -0.012211 0.085913
0.459427 -0.458175 -0.440903
0.361097 0.060857 -0.448023
-0.237896 0.496553 0.112333
-0.195614 -0.029119 0.415815
-0.059118 -0.049147 -0.193202
-0.065117 -0.057882 0.178267
-0.163246 -0.047569 -0.442394
-0.184409 -0.039236 -0.432713
-0.251477 0.103761 -0.175707
-0.181782 -0.043244 -0.432625
-0.230730 0.450729 0.346822
-0.202525 -0.051086 -0.429180
0.340664 -0.056703 -0.411789
-0.208229 0.538215 0.353801
-0.046274 -0.076106 -0.388940
-0.126498 0.241612 -0.386520
-0.282660 -0.695542 0.434547
-0.202039 -0.038031 0.425608
