0.368510 -0.093361 -0.459212
-0.181768 -0.142801 -0.470467
0.534175 -0.254340 0.601865
-0.324346 -0.167906 0.608889
-0.177918 -0.141256 -0.464463
-0.167246 -0.140154 0.459367
-0.186192 -0.129573 -0.481359
-0.194800 -0.123694 -0.488814
-0.347842 -0.467554 0.561693
-0.162387 -0.111509 0.472031
0.529234 -0.183199 -0.287424
-0.204201 -0.126791 -0.464451
-0.164717 -0.115567 0.478308
-0.116259 -0.216687 0.459434
-0.185812 -0.121505 0.457794
-0.188612 -0.130819 -0.521766
0.523044 -0.373182 -0.587740
-0.157004 -0.151609 -0.559189
-0.289249 -0.182119 -0.490368
-0.091856 -0.108945 -0.529339
-0.390134 0.011572 -0.322275
-0.146850 -0.103773 0.463187
-0.379517 0.260029 -0.016584
-0.136709 0.027926 -0.588244
-0.413086 0.495758 -0.172318
-0.149667 -0.124194 0.471020
-0.181648 -0.134459 -0.485215
0.002239 -0.091991 0.269279
-0.242264 -0.192007 -0.504791
0.078988 -0.144685 0.519675
0.122103 -0.216832 0.513737
-0.404368 0.304436 0.395798
-0.107220 -0.127700 0.542225
-0.193373 -0.087984 0.563879
-0.133170 -0.124642 0.480199
-0.426411 0.338470 -0.118461
-0.175465 -0.113357 -0.493662
-0.205876 -0.127273 -0.472776
-0.302120 0.308557 0.465387
0.632491 -0.094362 -0.037920
-0.135807 -0.128627 0.469900
-0.115246 -0.147071 -0.550144
0.108079 -0.204808 0.026857
-0.233851 -0.014263 -0.527297
-0.195562 -0.124638 -0.484316
-0.022531 -0.086924 0.141612
-0.050264 -0.117520 -0.587948
-0.446596 0.226762 -0.384252
-0.075943 -0.169758 0.481852
0.118372 -0.162169 0.471572
-0.159803 -0.164851 0.468425
-0.199509 -0.137201 -0.482269
-0.178152 -0.141508 -0.462374
0.450261 -0.257816 0.527014
-0.424146 0.030632 0.100545
0.585843 -0.259104 0.124968
-0.167742 -0.125215 -0.556886
-0.321457 0.046009 -0.069242
0.269594 -0.188587 -0.181028
-0.157733 -0.172566 0.420439
0.257587 -0.199980 -0.048901
-0.190154 -0.136721 0.444272
-0.138772 -0.136480 0.474324
-0.049545 -0.131167 0.529992
-0.156984 -0.274191 0.497934
0.352724 -0.183536 0.207664
-0.159636 -0.129221 0.468598
0.575150 -0.379049 0.607987
-0.187662 -0.147851 -0.469468
-0.376421 0.174085 0.266727
-0.166565 -0.138394 0.449346
-0.148275 -0.124628 0.494297
0.534045 -0.188543 0.246027
-0.193997 -0.135798 0.433021
-0.229167 -0.134232 -0.613707
0.164881 -0.120930 -0.205377
-0.094641 -0.144553 -0.557232
0.428868 -0.065045 0.441427
-0.177019 -0.117358 0.477295
-0.165035 -0.122771 0.471343
-0.190059 -0.136269 -0.474191
-0.228400 0.046027 -0.055241
-0.202163 -0.155612 -0.514188
-0.463144 0.329666 -0.279231
-0.413329 -0.069416 -0.034148
-0.159404 -0.113098 0.465426
-0.184527 -0.128476 0.454428
0.650379 -0.185318 0.099202
0.452909 -0.239592 -0.465857
0.351237 -0.080060 -0.038522
0.370006 -0.192150 -0.559770
-0.213584 -0.151816 -0.477111
-0.167275 -0.104519 0.528744
-0.096784 -0.133262 0.547259
-0.138682 -0.155189 -0.564088
-0.330424 -0.036891 -0.053065
-0.130989 -0.130979 0.477333
0.123015 0.278247 -0.514244
-0.351176 0.213521 0.535080
0.140377 -0.250373 -0.556739
-0.181208 -0.134988 -0.454737
0.518793 -0.105730 0.560927
-0.104879 -0.217408 -0.541328
0.170107 -0.178165 0.563381
-0.036953 0.161540 -0.548665
0.584607 -0.122413 -0.181051
-0.361622 0.382616 -0.408047
-0.391411 0.259350 -0.495318
-0.142499 -0.124702 0.467631
-0.345943 0.338765 0.039572
-0.116025 -0.133548 -0.576991
-0.173897 -0.142797 -0.485257
-0.183947 -0.136265 -0.494847
0.392757 -0.060512 -0.560359
-0.127635 -0.144064 0.567376
0.221800 -0.084553 -0.468206
0.515965 -0.095565 -0.178875
-0.174093 -0.147263 -0.468147
-0.450015 0.380546 0.249280
-0.137453 -0.126136 0.462813
-0.088802 -0.080151 0.254902
-0.380662 0.094572 -0.604472
0.042548 -0.228560 0.547104
-0.050173 -0.185757 0.509685
0.079941 -0.113374 -0.575813
-0.498124 0.568441 -0.540334
-0.155840 -0.114894 0.465177
0.209962 -0.206919 -0.498586
-0.287313 -0.178250 -0.182198
-0.098866 -0.233051 0.559804
-0.192592 -0.135714 -0.471335
-0.251203 -0.149943 0.364292
-0.145050 -0.145672 0.478200
-0.176256 -0.160906 -0.463691
-0.384122 0.010076 0.547194
0.426549 -0.162489 0.051306
0.233586 0.080673 -0.486931
0.469111 -0.177759 0.381622
-0.190785 -0.146587 -0.487880
-0.187931 -0.097218 -0.515410
-0.119622 -0.163548 0.565509
-0.134865 -0.147989 0.017050
-0.196370 -0.130921 0.462172
-0.182817 -0.143767 -0.490487
0.678375 -0.195830 -0.304242
-0.170882 -0.053307 -0.290689
-0.300065 0.417856 0.587043
0.300218 -0.360093 -0.563780
-0.181048 -0.082882 0.232474
-0.359936 0.082834 -0.462797
-0.143006 -0.210613 0.493613
-0.141976 -0.134934 0.485690
-0.212801 -0.148351 -0.486138
0.026955 -0.177993 0.583561
-0.143820 -0.120317 0.491240
-0.463369 0.291104 -0.078854
-0.034533 -0.214114 0.630495
-0.174614 -0.135795 -0.465388
-0.159328 -0.143347 -0.494357
0.454542 -0.073896 -0.237716
-0.386438 0.242824 0.454647
-0.107747 -0.173305 -0.565118
-0.064452 -0.138288 -0.525768
-0.053402 -0.161867 0.196765
-0.142224 -0.132995 0.472551
0.614765 -0.027485 -0.270232
-0.163425 -0.110369 0.470273
-0.071219 -0.206801 -0.211918
0.291715 -0.085055 0.452543
-0.371663 0.184963 -0.569705
0.563561 -0.207862 0.603421
-0.169914 0.135412 0.441300
-0.178171 -0.129429 -0.507201
-0.123009 -0.143469 -0.531333
-0.088924 -0.122256 -0.540397
-0.183985 -0.143914 0.179796
-0.209787 0.062865 -0.332228
0.549481 -0.125842 0.176558
-0.196288 -0.128499 -0.478366
-0.072378 -0.200898 0.047331
-0.158238 -0.116406 -0.504165
-0.443736 0.350080 0.285470
-0.434232 0.187878 -0.290289
0.119380 -0.217296 -0.435867
0.553168 -0.089487 0.321887
-0.001067 -0.239012 0.493324
-0.172789 -0.099176 0.520468
0.414898 -0.047022 -0.361543
-0.207721 -0.122946 -0.147475
-0.146445 -0.128561 0.483426
0.230074 -0.095642 -0.014545
-0.354096 0.272183 -0.221348
-0.068941 -0.220320 0.569862
-0.152027 -0.062865 0.738487
-0.081506 -0.188799 -0.044951
-0.215038 -0.113693 -0.467810
0.497194 0.020743 0.479319
0.232451 -0.103987 -0.566503
-0.172114 -0.141864 -0.469346
-0.197008 -0.137958 0.452324
-0.411840 0.205316 0.501804
-0.160451 -0.133520 -0.480109
-0.170064 -0.153926 -0.478507
-0.141434 -0.119915 0.471429
0.263375 -0.079983 0.222071
-0.459685 0.252519 0.326666
-0.143497 -0.124970 0.479288
-0.196897 -0.141081 -0.492144
-0.165335 -0.078995 -0.572928
-0.088386 -0.106504 -0.529347
0.006583 -0.189531 0.242548
-0.158512 -0.189597 0.549720
-0.198421 -0.115312 -0.484554
-0.175460 -0.113297 0.546468
-0.181658 -0.140572 -0.481420
-0.164634 -0.149155 -0.489049
-0.073342 -0.142568 -0.543067
-0.456446 -0.272685 -0.564181
-0.363727 -0.152597 0.472166
-0.074816 -0.172954 -0.540689
-0.058052 -0.109053 0.555660
0.571280 0.014112 -0.357625
-0.191858 -0.128167 -0.485810
0.294563 -0.019489 0.470712
-0.498904 0.406360 -0.224997
-0.194679 -0.138638 -0.476683
-0.014440 -0.279369 -0.566660
-0.145661 -0.145186 -0.552156
0.445275 -0.089785 0.141131
0.314477 -0.054198 -0.596815
-0.252254 -0.211522 -0.218358
-0.314739 -0.087470 0.487202
-0.209363 -0.126124 0.449285
0.642211 -0.128532 -0.469272
-0.191855 -0.132038 -0.474857
0.135189 -0.190033 -0.124560
-0.153987 -0.199295 -0.541798
-0.321240 0.095617 -0.551831
0.255922 -0.160633 -0.378523
-0.541749 0.639943 0.166247
-0.135258 -0.114373 -0.555799
-0.311718 -0.069696 0.251889
-0.529482 0.504374 -0.309678
0.587274 -0.232645 0.296175
-0.015919 -0.246130 0.490339
-0.054805 -0.126502 -0.125332
-0.185230 -0.139222 -0.471162
0.040691 -0.096141 0.549714
-0.208694 0.199932 0.568612
0.504132 -0.221741 -0.098931
-0.190411 -0.126800 -0.504398
-0.090952 -0.146851 0.558497
-0.193968 -0.114793 -0.478207
-0.208292 -0.224330 0.508658
-0.178092 -0.173667 0.605403
-0.144647 -0.113602 0.477750
-0.140805 -0.122079 0.487979
-0.132019 -0.133357 0.495899
0.355457 -0.062474 0.583229
-0.158633 -0.212401 0.227138
-0.174685 -0.116901 -0.454853
-0.174527 -0.149567 -0.499294
-0.163078 -0.229026 0.469115
-0.382117 -0.347029 -0.639591
-0.078931 -0.165027 -0.565224
-0.132959 -0.135738 0.562595
-0.169133 -0.179182 -0.495462
0.616379 0.172171 -0.468221
-0.191065 -0.147013 -0.466143
-0.050273 -0.195043 0.519252
-0.243858 -0.176680 -0.501217
0.148940 -0.156649 -0.441071
0.644080 0.030924 -0.488427
-0.190318 -0.143267 -0.478821
-0.017152 -0.195275 0.589353
-0.091316 -0.163723 0.547656
-0.184629 -0.137648 -0.476159
-0.186523 -0.141033 0.480557
-0.186316 -0.140255 -0.486050
-0.124970 -0.119170 0.483175
-0.181953 -0.149321 -0.462215
0.054850 -0.209649 -0.409149
0.656072 -0.065495 -0.359874
-0.190433 0.092926 0.489806
-0.155761 -0.123089 0.464596
-0.174645 -0.129674 -0.475608
0.491136 0.226385 0.679128
-0.335784 -0.129141 0.766159
0.293932 -0.078324 -0.468423
-0.023538 -0.043740 -0.507459
0.220631 -0.190663 0.059935
-0.455406 0.410943 -0.556998
-0.407171 0.078576 0.529320
0.483596 -0.246145 -0.497792
-0.122183 -0.169909 -0.568831
-0.108823 -0.134940 0.475586
-0.209234 -0.137156 -0.480576
0.661807 -0.138230 0.049576
0.073253 -0.107565 -0.451527
-0.043476 -0.133924 -0.291779
0.567261 -0.437346 0.491297
-0.184439 -0.148974 0.527595
0.285269 0.227674 -0.518697
0.054396 0.045010 0.598691
-0.430709 0.396091 0.503874
-0.115326 -0.138281 -0.539992
-0.158627 -0.129527 0.484403
-0.456777 0.513865 -0.344274
-0.164021 -0.142197 -0.468716
-0.101980 -0.158740 -0.559386
-0.177411 -0.181799 0.343235
-0.117563 -0.146141 -0.555862
0.181588 -0.208194 0.582771
-0.320443 -0.282814 -0.575222
-0.204397 -0.130831 -0.467150
-0.160111 -0.097824 0.522146
-0.166717 -0.121450 0.471285
0.402048 -0.068579 -0.464097
-0.141481 -0.148393 -0.539690
-0.184876 -0.133702 -0.483047
-0.161348 -0.116144 0.473382
0.323594 0.099409 -0.633682
-0.100030 0.073010 0.626958
0.625430 -0.226451 -0.478030
-0.056773 -0.132507 0.353338
-0.449364 0.334670 -0.349284
-0.150548 -0.141722 -0.543347
-0.448197 0.212805 -0.503718
0.186522 -0.159111 0.363547
-0.193042 -0.134712 -0.471375
-0.230344 -0.379243 -0.541273
-0.233511 -0.197355 0.413959
-0.120452 -0.075780 0.464435
-0.175116 -0.140791 -0.448826
-0.196947 -0.121591 -0.472669
-0.198282 -0.139740 -0.467021
0.344961 -0.182836 0.471141
0.061964 0.215202 -0.585273
-0.205410 -0.139906 -0.479160
-0.207260 -0.119723 -0.477667
0.558274 -0.233535 -0.174813
0.485616 0.074699 0.583245
-0.211702 -0.150126 -0.491142
-0.345811 -0.017798 -0.531947
-0.133057 -0.127243 0.461471
-0.132631 -0.127745 0.477733
-0.451583 0.105822 0.577023
-0.195829 -0.129718 -0.488665
0.233929 -0.197855 -0.492203
-0.213617 -0.127173 -0.482412
-0.175005 -0.126065 0.455810
-0.211167 -0.129420 -0.472090
0.418001 -0.231468 -0.352511
-0.206520 -0.138864 -0.482422
0.175883 0.221724 0.659350
-0.172193 -0.122754 0.450682
-0.103075 -0.160987 0.403879
0.279866 -0.223578 0.569441
-0.111322 -0.208655 0.506504
-0.180830 -0.141479 -0.488153
-0.440830 0.272247 -0.225412
-0.040340 -0.164686 0.537247
-0.024082 -0.234803 0.536870
-0.162981 -0.126069 0.470301
-0.161926 -0.183338 -0.524985
-0.162761 -0.129370 0.470305
-0.193311 -0.123927 -0.468719
0.138961 -0.212657 0.258086
-0.096064 -0.131547 0.565287
-0.261073 -0.011119 -0.503136
-0.178178 -0.133495 0.448549
0.066668 -0.212251 -0.441399
0.504283 -0.134129 0.393597
-0.444334 -0.266002 0.608131
-0.178847 -0.141514 -0.466040
-0.224381 -0.223879 0.440056
0.478749 0.157055 -0.577965
-0.048630 -0.120634 -0.572093
-0.194216 -0.125708 -0.482104
-0.190880 -0.128975 -0.495334
-0.462633 0.068388 -0.588546
-0.353097 0.291807 -0.342800
-0.442105 0.328928 -0.004912
-0.407599 -0.052156 0.390582
0.563564 -0.112384 0.112888
0.235968 -0.099946 -0.151216
-0.193712 -0.120095 -0.470355
0.221274 -0.220639 0.498062
0.526925 -0.172732 -0.440351
-0.350259 0.213985 -0.288810
-0.143772 -0.154445 -0.547144
0.017593 -0.174986 -0.373767
-0.258825 -0.191976 0.006562
-0.330726 0.048102 0.403753
-0.390474 -0.062991 -0.474875
0.473295 -0.026246 0.611470
-0.193191 -0.137700 0.452605
-0.140257 -0.121555 0.472587
0.129617 -0.109709 0.269902
0.604648 -0.122411 -0.616921
-0.193923 -0.129362 -0.484524
-0.063244 -0.128714 0.026527
0.135955 0.159595 0.536802
-0.458338 0.502530 0.258961
-0.218380 -0.135892 -0.472120
-0.346090 -0.235052 0.427199
0.617894 -0.297447 0.569155
-0.197575 -0.125625 -0.461282
-0.314260 -0.049194 -0.624596
-0.204454 -0.129836 -0.465056
-0.075886 -0.113742 0.507134
-0.382612 0.157834 -0.459734
-0.145058 -0.111434 0.467576
-0.206891 -0.013742 0.517388
-0.013611 -0.252580 0.550023
-0.168814 -0.146423 -0.481300
-0.188798 -0.127765 0.259265
-0.172709 -0.115447 0.560676
-0.076236 -0.115345 -0.528657
-0.166843 -0.121854 0.467388
-0.433658 0.186936 0.421120
-0.158350 -0.148036 -0.470536
-0.193265 -0.144121 -0.481992
-0.189257 -0.132998 -0.486280
-0.072772 -0.168356 -0.541225
0.382240 -0.090821 0.115372
0.015435 0.231292 0.508812
-0.173242 -0.120331 -0.481477
0.365979 0.093987 0.497673
-0.210851 -0.127857 -0.478293
-0.474309 0.350774 -0.189930
-0.254023 -0.102210 0.615390
-0.541930 0.466087 -0.024265
-0.456399 0.528404 0.114845
-0.188101 -0.258057 -0.299119
-0.133524 -0.134464 0.454065
-0.429870 0.284573 0.185953
-0.184918 -0.146396 -0.480947
-0.188453 -0.141794 -0.492137
-0.022486 -0.173669 0.594781
-0.177375 -0.143088 -0.466439
-0.401654 0.540841 -0.270857
-0.188418 -0.121658 -0.478922
-0.413418 0.362819 0.037998
-0.109953 -0.144830 -0.413086
-0.089139 -0.144843 0.545884
-0.381003 -0.014328 0.392149
0.558982 -0.099449 -0.379663
-0.193610 -0.133335 -0.483982
-0.175484 -0.122237 0.454306
-0.190164 -0.135170 -0.482722
-0.113645 -0.125578 0.582824
-0.393004 0.459892 -0.563324
0.243887 -0.093857 -0.442838
0.454603 -0.108156 -0.546421
0.424405 -0.231000 0.464724
0.646670 -0.141973 -0.593039
-0.289855 0.247543 -0.444737
-0.123010 -0.228772 0.520977
-0.040792 -0.095382 -0.497563
-0.143467 -0.196955 0.540888
-0.182636 -0.141060 -0.484140
-0.137213 -0.150763 -0.547009
-0.270451 0.038448 0.102845
0.196389 -0.181349 0.451271
-0.122030 -0.087302 -0.159571
-0.207476 -0.139599 -0.475709
0.186869 -0.238770 -0.131438
-0.213610 -0.148220 -0.538530
-0.179913 -0.191031 0.332130
-0.125511 -0.191401 0.547349
-0.230981 -0.010471 -0.509935
-0.305553 0.295854 -0.177720
-0.179266 -0.141687 -0.463354
0.435425 -0.235810 0.598578
0.118689 -0.086141 0.554334
-0.196091 -0.122204 -0.477183
-0.185311 -0.135029 -0.497021
-0.044852 -0.183632 -0.303640
-0.411802 0.298091 -0.611116
-0.067832 -0.216116 0.544230
-0.087177 -0.263266 -0.366243
-0.083905 -0.203458 0.549922
-0.063001 -0.008099 0.667887
-0.160498 -0.147732 -0.512389
-0.360281 0.252339 -0.599591
-0.459432 0.599331 -0.388501
0.264729 -0.035974 0.583188
0.672957 0.079181 -0.558917
-0.207085 -0.046330 0.573010
-0.203796 -0.193164 0.547291
-0.153239 -0.133056 0.465112
-0.312409 -0.293517 0.524282
-0.215294 -0.135669 -0.471703
0.302016 -0.186556 0.079207
-0.206085 -0.124569 -0.472580
0.125483 -0.135183 -0.470603
-0.208659 -0.069890 0.189128
-0.166378 -0.127644 0.459959
-0.521262 0.446971 0.149476
-0.114878 -0.148362 0.460256
0.419843 -0.179065 -0.372378
-0.161128 0.012641 -0.429407
-0.151794 -0.126231 0.469248
-0.176411 -0.126971 0.472071
-0.216588 -0.119750 -0.483453
-0.160984 -0.148727 0.468593
0.009767 -0.143097 0.482367
-0.187156 -0.131484 -0.461085
-0.099125 -0.196941 0.542363
0.400103 -0.027873 0.533718
-0.226051 0.151970 -0.547885
0.564838 -0.158789 0.282385
-0.212727 -0.134394 -0.468210
-0.432047 -0.088316 -0.618031
-0.115437 -0.125749 0.459791
0.066492 -0.242107 0.125978
-0.199606 -0.108965 -0.497034
-0.143998 -0.117935 0.455721
-0.161172 -0.186866 0.565773
-0.052285 -0.091912 0.570339
-0.210459 -0.181542 -0.340613
-0.096206 -0.169016 -0.540952
0.135494 -0.123815 -0.457147
-0.386901 -0.218624 -0.616857
-0.294895 -0.165043 -0.061300
-0.161159 -0.124445 0.479790
-0.175789 -0.121255 0.483229
-0.239265 0.152722 -0.464502
0.175117 -0.074460 0.397325
0.600818 -0.107929 -0.518579
-0.138651 -0.115462 0.470010
-0.490988 0.411257 0.336255
0.570220 -0.386978 -0.523397
0.260589 -0.058998 -0.543793
-0.146395 -0.281784 0.429307
-0.197129 -0.125093 -0.478858
0.156803 -0.204796 -0.235868
0.173984 -0.109656 0.028413
-0.160599 -0.154499 -0.505090
0.542692 -0.163010 -0.437514
0.677008 -0.191207 -0.475286
0.196626 0.235227 -0.640466
-0.175833 -0.132071 -0.502399
-0.119047 -0.114494 0.562230
-0.177829 -0.121487 -0.477749
-0.186720 -0.124004 -0.479060
0.197687 -0.205699 -0.470577
-0.134438 -0.171105 0.531360
-0.252338 0.124800 -0.532795
-0.136313 -0.122147 0.465661
-0.159482 -0.140072 -0.477085
-0.001072 -0.158065 0.495152
-0.109878 -0.133241 0.564120
-0.131202 -0.124961 0.473704
-0.189986 -0.258849 -0.419051
-0.398553 0.313986 0.495389
-0.205011 -0.085493 -0.527850
-0.190940 -0.162020 -0.545470
0.306757 -0.160928 -0.168125
0.623256 -0.231477 -0.568042
-0.121111 -0.207999 -0.497306
-0.528546 0.627668 -0.251832
0.362232 -0.230744 -0.481618
-0.132103 -0.144219 -0.551038
-0.379160 0.262128 0.612280
-0.211999 -0.155894 -0.470736
-0.176930 -0.113221 -0.557174
-0.084805 -0.134813 -0.549994
-0.160187 -0.111393 0.470321
-0.189285 0.042911 0.194967
-0.058916 -0.347924 0.603806
-0.191117 -0.069320 0.144015
-0.203989 -0.126928 -0.517902
0.078967 -0.101043 0.133923
-0.124873 0.031645 0.537696
-0.168124 -0.118370 0.481273
-0.199964 -0.140201 -0.482752
-0.188291 -0.227353 -0.162332
-0.156990 -0.133889 0.471020
-0.179620 -0.137772 -0.483762
-0.013661 -0.205056 -0.266948
-0.004474 -0.145573 0.559215
0.490250 -0.237879 0.248102
-0.201595 -0.132356 -0.480082
-0.097131 -0.131457 -0.412940
-0.076054 -0.188225 0.570330
-0.030020 -0.046564 0.579452
-0.365893 0.353806 -0.088059
-0.178784 -0.135718 -0.473695
-0.310364 0.208514 -0.465324
0.460312 -0.114736 0.636316
-0.351057 -0.143384 -0.094065
0.287902 0.012375 -0.518001
-0.019547 -0.128446 0.561280
-0.155893 -0.096434 0.570518
-0.187830 -0.120017 -0.544285
0.081160 -0.125689 -0.595757
-0.215128 -0.100164 -0.474647
-0.200941 -0.138055 -0.499415
-0.127140 -0.054174 -0.166549
0.152570 -0.054245 -0.521157
-0.494544 0.460012 -0.249485
-0.086468 -0.241923 0.009818
-0.174670 -0.127107 -0.469330
-0.175111 -0.158558 0.498019
-0.122585 -0.096354 0.562893
-0.192243 -0.126472 -0.474618
-0.169629 -0.152622 -0.494683
-0.298892 -0.137510 -0.289212
-0.191036 -0.148135 -0.481364
-0.307988 0.015845 -0.459064
-0.187448 -0.129386 -0.466618
-0.261821 -0.281282 0.615196
-0.185268 -0.137859 -0.477302
-0.158944 -0.119650 0.484765
0.598683 -0.175217 -0.582472
-0.043759 -0.153833 0.571080
0.379348 -0.114326 -0.274120
-0.429061 0.205928 -0.040184
-0.071965 -0.060659 -0.399865
-0.157018 -0.113666 0.480219
-0.158235 -0.129531 0.482074
-0.208855 -0.153088 0.476902
0.168373 -0.169303 0.265479
0.360840 -0.199138 0.224937
-0.123177 -0.112181 0.554688
-0.241034 -0.170191 -0.515482
-0.138939 -0.118264 0.466304
-0.393930 -0.276597 0.168328
-0.013351 -0.125193 0.507387
-0.136182 -0.215641 0.546287
-0.208182 -0.142599 -0.036134
0.566675 0.212421 -0.662639
-0.168320 -0.123086 0.462324
-0.079923 -0.160596 -0.557146
0.227280 -0.078407 0.619853
0.047474 0.015899 -0.584603
-0.144070 -0.115297 0.466747
0.634854 -0.107972 0.563076
-0.211975 -0.154660 -0.531429
0.487392 0.051556 0.646781
-0.208393 -0.131241 -0.470293
-0.225357 -0.178886 -0.195828
-0.024512 -0.236503 0.044035
-0.126394 -0.126773 0.476168
0.061642 0.234223 0.627025
-0.188239 -0.138906 -0.477572
-0.190167 -0.168797 -0.536030
0.033357 -0.206442 0.202077
-0.126324 -0.074682 0.105316
-0.268384 -0.169544 -0.594362
-0.119580 -0.120059 0.475335
-0.026997 -0.094798 -0.550965
-0.158121 -0.101174 0.148145
-0.194121 -0.154328 -0.479766
-0.201313 -0.127959 -0.472103
-0.382579 0.192629 0.297387
-0.215140 -0.168574 -0.441282
-0.204960 -0.036907 0.430798
-0.406017 -0.075742 0.493986
-0.181514 -0.139601 0.436694
-0.407313 -0.165729 0.438296
-0.089944 -0.100240 0.552976
0.170332 -0.186050 0.172118
-0.215397 -0.153392 -0.490202
-0.149265 -0.115812 0.473024
-0.211948 -0.074202 0.484912
-0.272404 -0.127112 0.109024
-0.298998 0.098184 0.600347
-0.181877 -0.126719 -0.483547
-0.381444 0.219931 -0.561619
-0.149785 -0.134186 0.469173
-0.193788 -0.140645 -0.462939
-0.185836 -0.131956 -0.471597
0.663643 -0.207914 0.406908
-0.146184 -0.123033 0.477558
-0.360740 0.152688 0.471510
-0.185988 -0.217797 0.527756
-0.177146 -0.135388 -0.494753
-0.193144 -0.132091 -0.466504
-0.382644 0.138111 -0.524966
-0.199131 -0.133722 -0.468300
-0.175916 -0.136962 -0.480892
-0.189464 -0.145870 -0.479386
0.708305 -0.181819 -0.124188
-0.257030 -0.194756 0.481523
-0.173477 -0.118227 0.473647
-0.088557 -0.156080 0.518815
-0.203723 -0.128325 -0.469996
-0.200242 -0.125962 -0.487018
-0.196403 -0.126216 -0.487122
-0.189400 -0.135017 -0.472307
-0.140856 -0.122263 0.472424
-0.264721 -0.214659 0.570570
-0.233298 -0.223779 -0.069774
-0.180497 -0.134083 -0.492330
-0.078687 -0.239576 0.352556
-0.151224 -0.137300 0.473839
-0.187538 -0.137600 -0.470158
-0.194957 -0.140796 -0.476947
-0.200971 -0.138690 -0.490799
-0.068729 -0.130640 0.506625
0.423260 -0.177702 -0.522583
-0.481358 0.457327 0.263920
-0.411514 -0.068929 0.296094
-0.155762 -0.140700 -0.545676
-0.399793 0.155438 0.072114
-0.133443 -0.078459 -0.556672
0.369763 -0.146581 -0.452352
0.151360 -0.220397 -0.523201
-0.208724 -0.118977 -0.464319
-0.115269 -0.154354 -0.549074
0.413732 -0.212415 0.053114
-0.160495 -0.262387 0.380142
0.417956 -0.189188 -0.252681
0.006152 -0.217986 0.459015
-0.195657 -0.187983 -0.137761
0.620383 -0.091211 0.240188
-0.151486 -0.224777 0.409481
-0.199095 -0.130354 0.449599
-0.302110 -0.250948 -0.496352
-0.142979 0.368699 -0.610355
0.299484 -0.065978 -0.127320
-0.444384 0.297270 -0.432384
-0.195313 -0.150755 -0.560910
0.068264 -0.145934 0.038324
-0.217874 -0.128274 -0.406492
-0.195014 -0.141353 -0.490644
-0.273103 -0.071001 0.368181
-0.185887 -0.139669 -0.490295
-0.193186 -0.093022 -0.364038
-0.285740 0.235698 0.391995
0.012717 -0.231897 0.513114
-0.227442 -0.016172 0.281152
-0.290597 -0.170285 -0.515806
0.644064 -0.146293 0.304501
-0.167033 -0.195731 0.511520
-0.308213 -0.027506 -0.565091
-0.174421 -0.131629 -0.488033
0.577797 -0.179239 0.143614
-0.442284 -0.314705 0.510456
-0.451200 0.183080 -0.254208
-0.161672 -0.242162 0.276146
-0.235504 0.200992 -0.571406
-0.403665 -0.163429 -0.433307
0.341825 -0.193347 0.089488
0.081661 -0.148355 -0.487143
-0.432891 0.009623 -0.117975
-0.008383 -0.095331 -0.320680
-0.341446 -0.334525 0.610609
0.078233 -0.012096 0.510904
-0.248051 0.145603 0.639443
-0.183943 -0.138254 -0.483613
-0.032200 -0.180079 0.525135
0.044021 -0.155630 0.498218
-0.234899 0.110682 -0.531351
-0.133801 -0.155350 -0.547088
0.276606 -0.132222 -0.365651
-0.214042 0.003884 -0.561906
-0.151140 -0.113372 0.541954
-0.121303 -0.124342 0.483562
-0.193101 -0.132899 -0.484188
-0.239505 -0.015877 0.367286
-0.109141 -0.172370 -0.544113
-0.158575 -0.115543 0.483894
-0.055802 -0.150886 0.564483
-0.439628 0.125029 -0.383860
0.269926 0.341308 -0.595986
0.281584 -0.096942 -0.485672
-0.340769 -0.272531 -0.183217
0.267490 -0.078983 0.551278
0.159429 -0.184850 0.073850
-0.187985 -0.136558 -0.480926
-0.346031 0.018882 0.566771
0.127651 0.265107 0.533675
0.016090 -0.242029 0.500952
-0.444964 0.337022 -0.230871
-0.179591 -0.130812 -0.485595
-0.188315 -0.125985 0.458417
-0.086167 -0.127846 0.557997
0.158285 -0.192068 -0.193611
-0.182344 -0.010204 0.577442
-0.491997 0.499961 -0.034439
0.272920 -0.204235 0.379860
-0.183487 -0.124362 0.443508
-0.216806 0.169812 0.538320
0.128698 -0.220503 0.416934
0.101664 -0.117943 -0.054094
0.622590 -0.196466 0.213566
-0.210038 -0.144120 -0.473295
0.040277 -0.151143 0.496950
-0.069613 -0.017662 -0.618697
-0.262508 0.250869 0.302027
0.281045 -0.236129 0.454636
-0.166370 -0.104258 0.469663
-0.217631 0.068861 0.486450
0.429894 0.334382 0.625673
-0.368173 0.166041 -0.114489
-0.195007 -0.144721 -0.498520
0.294412 -0.079905 0.249368
0.148063 -0.173654 0.411939
-0.036011 -0.143249 -0.511636
0.031396 0.061747 0.462020
-0.221912 0.245530 -0.620561
-0.299063 -0.045070 -0.561205
0.427759 -0.184780 -0.200738
0.191728 -0.095530 -0.416633
0.356202 -0.046871 -0.537588
-0.164912 -0.122224 -0.466484
-0.346722 0.043343 0.292122
-0.156317 -0.115584 0.464777
0.104379 -0.090856 0.458629
-0.386005 0.097499 0.154830
-0.154914 -0.071374 0.007076
0.351435 -0.196594 0.510333
-0.205282 -0.141463 -0.479030
-0.178971 -0.118655 0.481970
-0.164454 -0.109924 0.470961
-0.190559 -0.152310 -0.495284
0.165810 -0.156144 -0.428116
-0.190084 -0.139226 -0.468145
-0.393412 -0.019903 -0.522285
-0.179345 -0.127525 0.465309
0.133491 -0.129943 -0.544379
-0.178715 -0.137716 0.543513
-0.167737 -0.221652 -0.505050
0.050369 -0.088613 -0.494478
-0.406876 0.352044 0.585398
-0.208158 -0.181163 0.549839
0.598029 0.002719 -0.599019
-0.177738 -0.121456 0.455566
-0.355926 -0.107222 -0.604469
-0.071445 -0.139070 0.549533
-0.209452 -0.121351 -0.481810
-0.388477 0.478383 0.504451
-0.447649 -0.020155 0.578754
-0.113156 -0.118704 -0.560819
-0.152661 -0.128497 0.479755
-0.173917 -0.138887 -0.511330
-0.120297 -0.122792 0.476740
-0.131193 -0.062947 0.294348
-0.129030 -0.042368 -0.569686
-0.190984 -0.144770 -0.496015
-0.394068 -0.157478 -0.274405
-0.185905 -0.138240 -0.494163
-0.117446 -0.149550 0.261222
-0.199648 -0.136607 -0.473601
0.519676 -0.197354 0.023040
-0.257021 -0.072737 0.528427
-0.234931 0.147187 0.025309
-0.197476 -0.134053 -0.497733
-0.126860 -0.136926 -0.503601
-0.122054 -0.151343 -0.542912
-0.399820 -0.063517 0.165873
-0.251621 0.378361 -0.550914
-0.132859 -0.159661 0.551596
-0.294337 -0.265023 -0.503272
-0.162706 -0.147642 -0.230775
-0.433663 0.192239 0.262569
0.363952 -0.047288 -0.270141
-0.365780 0.157313 -0.566235
-0.105375 -0.187764 -0.521879
0.547059 -0.066784 0.500293
-0.029193 -0.126706 -0.591911
0.332058 -0.096756 -0.384694
-0.177632 -0.215425 0.513299
-0.194888 -0.144840 -0.468936
-0.192878 -0.131006 -0.467096
-0.297251 -0.036123 -0.537331
-0.105788 -0.172259 0.108144
-0.446315 0.394136 -0.085129
0.411559 -0.205391 0.191519
-0.183431 -0.127199 0.455994
-0.143844 -0.133358 0.486419
0.560485 -0.198985 0.388847
0.161122 0.076123 0.577178
-0.187755 -0.134937 -0.483917
-0.179427 -0.117143 0.466358
-0.172314 -0.122632 0.461148
-0.172547 -0.133239 -0.479963
0.247359 -0.179406 -0.576526
-0.155430 -0.116805 0.472848
0.203611 -0.201406 0.574457
-0.319906 0.335881 -0.622250
-0.405750 -0.349521 -0.021238
-0.457416 0.371202 0.399012
-0.180499 -0.121074 0.461532
-0.193337 -0.137341 0.474332
-0.183923 -0.133816 0.449792
-0.431898 0.279610 -0.060892
0.609133 0.082157 0.465774
-0.038500 -0.340411 -0.581913
0.098022 0.147063 -0.468575
-0.385270 0.421634 -0.325196
0.043062 -0.258433 0.503320
-0.180248 -0.127812 -0.477902
-0.185738 -0.137241 -0.492400
0.225021 -0.203869 0.363770
0.068095 -0.031012 0.650392
-0.162651 -0.204643 -0.035291
-0.567180 0.630939 -0.058189
-0.541701 0.560713 -0.434402
-0.163770 -0.064220 0.315143
-0.324672 -0.428940 -0.530982
0.514850 -0.046794 -0.007877
-0.195972 -0.128072 0.548337
0.097633 -0.053333 -0.656575
-0.053179 -0.163889 0.555436
-0.133469 -0.134994 0.485830
0.579446 -0.269955 -0.301081
-0.174355 -0.120588 0.463855
-0.195019 -0.149267 -0.494097
-0.175269 -0.129053 -0.483934
0.495205 -0.170164 -0.047198
-0.204225 -0.105916 0.566124
0.109961 -0.157075 0.549863
0.433953 -0.338816 0.525824
0.015214 -0.195143 -0.538115
-0.363468 0.367771 0.483777
-0.498694 0.413776 -0.371993
0.403554 -0.166451 0.496707
0.711057 -0.165241 -0.431290
0.180080 -0.002482 -0.565892
-0.026308 -0.070071 -0.221771
-0.217128 -0.039191 -0.509766
-0.162579 -0.117138 0.475543
0.442764 -0.106966 -0.451834
0.225784 -0.100081 0.423425
0.282956 -0.158296 0.167457
-0.177413 -0.080322 0.504481
-0.250477 -0.086973 -0.556389
-0.142945 -0.162483 0.534127
-0.135611 0.094977 -0.470182
-0.178404 -0.086599 -0.461032
0.241575 -0.230522 -0.240316
-0.054168 -0.069418 0.495703
0.477239 -0.267110 -0.592944
-0.255948 -0.189917 -0.373434
-0.320369 0.391907 -0.431022
0.664824 -0.033989 -0.460681
-0.466872 -0.192015 0.553564
-0.151758 -0.135293 0.476562
-0.168906 -0.122753 0.463674
-0.311483 0.087988 -0.443216
-0.151494 -0.154784 0.551377
-0.180833 -0.142401 -0.479437
0.386928 0.299861 -0.652528
0.608105 -0.067777 -0.599988
-0.184437 0.014483 -0.212756
-0.131028 -0.217168 -0.113684
-0.220309 -0.018064 0.542790
-0.199545 -0.125718 -0.478172
-0.166339 -0.123937 0.484501
-0.153175 -0.123681 0.465617
-0.174416 -0.138677 0.558349
0.068542 -0.064007 0.437790
-0.180177 -0.115741 -0.483175
0.350379 -0.008644 -0.570170
-0.104620 -0.151974 0.564353
0.327815 -0.123568 0.605267
0.141016 -0.119102 0.540281
-0.206263 -0.120611 -0.474844
-0.146445 -0.151179 -0.540424
-0.351332 0.308723 -0.545744
-0.416320 0.564536 0.171292
-0.382503 0.354503 -0.572471
-0.210148 -0.013372 -0.302419
-0.377235 -0.218402 -0.472439
-0.105334 -0.147059 -0.541293
-0.197629 0.344857 0.640627
-0.189011 -0.127090 0.453485
-0.168014 -0.161768 -0.569296
0.532856 -0.063580 -0.572214
-0.328474 -0.101957 -0.014091
-0.117970 -0.180343 -0.537778
0.463916 -0.152032 0.225260
-0.196141 -0.129671 -0.482167
0.304937 -0.134085 0.533108
-0.186342 -0.135181 -0.471384
-0.170443 -0.150709 -0.491746
-0.079810 -0.128166 0.493226
-0.172195 -0.139722 0.474404
-0.193060 -0.116384 -0.511950
0.067292 -0.102186 -0.254054
-0.160124 -0.140791 0.306106
-0.400098 0.325322 0.254334
0.285543 0.088551 0.547610
-0.181543 -0.132597 0.478873
-0.204192 -0.126490 -0.471171
-0.287201 0.241952 0.523787
-0.442601 0.374076 0.131985
0.056992 -0.240236 -0.526190
0.386846 0.111082 -0.546413
-0.161658 -0.122433 0.487229
0.446394 -0.094753 -0.074891
-0.314834 -0.097454 -0.461002
-0.460632 0.378245 -0.338053
-0.400070 -0.102763 -0.170304
-0.261586 -0.093413 0.007006
0.416658 -0.023048 0.415704
-0.403675 -0.028191 0.613677
0.633539 -0.328966 -0.557802
-0.153143 -0.120770 0.470723
-0.138238 -0.180204 0.542088
-0.264950 -0.114218 0.237672
0.067993 -0.234773 -0.578070
-0.172855 -0.141295 0.468385
-0.169642 -0.119340 0.460121
-0.177795 -0.133306 -0.491463
-0.135370 -0.158341 -0.449253
-0.375696 0.153798 -0.614698
-0.448621 0.166504 -0.141001
-0.026530 -0.147324 0.543747
0.261469 -0.207370 -0.457283
0.079163 -0.007039 -0.464002
0.452230 -0.406598 0.616945
0.548309 -0.085940 -0.493350
-0.167254 -0.217049 -0.601343
-0.170803 -0.113530 -0.484920
-0.123112 -0.199521 -0.322897
-0.434446 0.221863 0.382112
0.570220 0.000606 -0.473428
0.136113 -0.099498 0.453038
-0.347480 0.047352 0.475446
-0.225417 -0.085834 -0.477414
-0.192195 -0.139979 -0.481326
-0.488541 -0.446648 0.564144
-0.191499 -0.131683 -0.480632
-0.119082 -0.113373 0.482992
-0.100772 -0.097134 0.563916
-0.201172 -0.108341 0.451776
0.587179 0.305096 0.586111
-0.167380 -0.147057 -0.481699
-0.315930 -0.042916 0.159337
-0.180337 -0.115230 0.464236
-0.130690 -0.118324 0.460531
-0.236062 -0.120929 -0.543992
-0.126736 -0.130147 0.473844
-0.205519 -0.168695 -0.531987
-0.133223 -0.104117 -0.484479
-0.211665 -0.126025 -0.475821
-0.484723 0.401356 0.208095
-0.204206 -0.146695 -0.480747
0.396143 -0.234943 0.390458
0.124482 -0.223865 -0.042819
-0.183379 -0.142615 -0.484545
0.327434 -0.129829 -0.556474
-0.406022 0.051630 0.002046
-0.426311 0.284660 0.307028
-0.186664 -0.120458 -0.495916
-0.197093 -0.143503 -0.474714
-0.240559 -0.233092 0.492630
-0.134940 -0.038327 -0.465133
-0.459591 0.203161 0.578734
-0.234949 -0.117008 -0.453776
-0.525417 0.548714 0.256668
0.605042 -0.083300 -0.465629
0.192903 0.070205 0.486520
0.116183 -0.149303 0.536042
-0.117090 -0.147453 -0.542688
-0.208229 -0.099063 -0.464167
-0.111762 -0.160920 0.028287
-0.499928 0.495959 0.354033
-0.056000 -0.184414 0.312361
0.160585 -0.176278 -0.522195
-0.206315 -0.120037 -0.568425
-0.195086 -0.126031 -0.478348
-0.185423 -0.122526 0.467008
-0.161379 -0.106312 0.467119
-0.150627 -0.136226 -0.545851
-0.163911 -0.123154 0.467196
-0.193748 -0.121243 0.490844
-0.192165 -0.151712 -0.482825
-0.128789 -0.169934 -0.539428
-0.099054 -0.084013 0.527924
-0.108899 -0.195098 0.545161
-0.469437 0.332001 0.500974
-0.195955 -0.074411 -0.526149
-0.355383 -0.210867 0.607883
-0.345283 -0.178074 -0.517390
-0.188468 -0.133252 -0.472378
-0.197931 -0.128472 0.462239
-0.017218 -0.240700 -0.291793
-0.146037 -0.126809 0.466176
-0.192726 -0.057044 0.539310
0.104335 0.005484 0.561999
-0.095564 -0.127548 -0.526716
-0.191007 -0.131240 -0.487549
-0.173301 -0.152707 -0.472181
-0.101895 -0.149636 0.408067
-0.189969 -0.075085 0.018202
-0.451729 0.314863 0.350509
-0.448992 0.010679 -0.562510
-0.141768 -0.155568 -0.510683
-0.090518 -0.240228 -0.251511
-0.191783 -0.166843 -0.566503
0.143643 -0.093775 0.321806
-0.099725 -0.161969 -0.553504
-0.153179 -0.110912 0.472173
0.457663 -0.408134 -0.589758
-0.082301 -0.141822 -0.563564
-0.196775 -0.142961 -0.483479
-0.074928 -0.160159 0.576489
-0.308353 -0.191516 -0.439139
-0.223866 -0.204128 -0.541914
-0.173532 -0.121150 -0.479272
-0.231143 0.245534 0.634018
-0.007245 -0.148620 -0.239241
-0.185177 -0.134342 -0.468817
-0.015656 -0.089996 -0.048861
-0.405783 0.217282 0.182383
0.224710 0.333713 0.615766
-0.412813 -0.193964 0.048255
-0.057164 -0.211416 -0.503775
-0.175656 -0.118975 -0.476879
0.244142 -0.113467 0.592010
0.617153 -0.113449 -0.248328
-0.182523 -0.136785 -0.485071
-0.220091 -0.111910 0.458975
-0.161173 -0.126360 -0.389072
-0.180038 -0.115685 0.467674
-0.092394 -0.187395 0.533604
-0.309008 0.251985 -0.572011
-0.194729 -0.123773 0.465602
-0.168882 -0.098445 0.526779
0.552799 -0.335030 -0.417772
-0.486157 0.355143 -0.478876
-0.395730 0.162908 0.009567
-0.185078 -0.124824 -0.468747
-0.192785 -0.137660 -0.480574
0.107740 -0.232826 -0.485488
-0.039618 -0.209279 0.558647
-0.118452 -0.164757 0.573768
-0.173024 -0.131232 -0.492359
0.245728 -0.108048 -0.059290
-0.435350 0.297614 -0.290286
0.229678 -0.243633 -0.004339
0.138521 -0.092762 -0.493975
-0.169061 -0.224127 -0.386868
-0.175723 -0.050357 0.491126
-0.163689 -0.170295 0.558082
-0.158690 -0.123815 -0.060366
-0.145806 -0.135734 0.464433
-0.188661 -0.129130 -0.484413
0.374851 -0.070950 0.356720
-0.089980 -0.156928 -0.546311
-0.071086 -0.151359 0.106184
-0.391300 0.401824 -0.476341
-0.137939 -0.111320 0.468158
0.385021 0.036062 -0.441689
0.017988 -0.098595 0.045119
-0.345715 0.089976 0.707308
-0.156818 -0.124107 0.474134
-0.404970 0.360219 -0.210669
-0.116428 -0.162527 -0.548120
0.178312 -0.066253 0.158728
-0.184828 -0.150044 -0.481966
-0.413504 0.089580 -0.047552
-0.186849 -0.149652 0.472212
-0.191686 -0.121608 0.454171
-0.160452 -0.117542 0.477619
-0.098540 -0.040307 0.565639
-0.407988 0.215514 -0.217132
-0.144073 -0.185556 -0.549835
-0.205751 -0.015959 0.501005
-0.142484 -0.169526 -0.560656
0.337952 -0.224637 -0.570533
-0.321607 0.412701 -0.002749
-0.077284 -0.191562 -0.585457
-0.203392 -0.129503 -0.488953
0.106460 -0.183889 0.319790
-0.153476 -0.251057 0.485995
0.252661 -0.019379 0.404817
0.584420 -0.231344 -0.412028
-0.184290 -0.139568 -0.481343
-0.136471 -0.123370 0.466877
-0.101813 -0.265494 -0.544188
-0.412525 0.047832 -0.300025
-0.151563 -0.110713 0.465435
-0.322931 0.256177 0.776564
-0.389397 0.200395 -0.437386
-0.139074 -0.198203 -0.539445
-0.178886 -0.133960 -0.481390
-0.231634 -0.236291 0.529446
-0.164180 -0.121164 0.463249
0.422714 -0.191100 -0.121915
-0.175864 -0.138994 -0.481069
0.068131 -0.188240 0.384780
-0.187472 -0.138133 -0.493710
-0.432283 0.343718 -0.289228
-0.112439 -0.145298 -0.557267
-0.184555 -0.142170 -0.485668
0.142836 -0.186265 -0.592550
-0.150523 -0.124282 0.478698
0.018908 -0.195950 -0.128798
-0.192319 -0.141583 -0.474170
-0.187901 -0.163988 -0.542920
-0.293280 -0.195635 0.539442
0.655417 -0.056294 -0.552473
-0.167406 -0.173119 0.165063
-0.169280 -0.120595 0.474136
-0.144863 -0.111183 0.477906
-0.144897 -0.164932 -0.539706
-0.449317 0.276167 0.453659
-0.212322 -0.041254 -0.527037
-0.223560 -0.099404 -0.416925
-0.183527 -0.104932 0.460782
-0.118619 -0.138385 0.473303
-0.027117 -0.060420 0.443094
-0.161058 -0.198829 0.529001
0.499794 0.331461 -0.607535
-0.060037 -0.167613 0.412256
0.424954 -0.079043 0.242726
0.421942 -0.231796 -0.050018
0.005180 -0.161994 -0.519835
0.508846 -0.123182 -0.491269
-0.109286 -0.168113 -0.543336
-0.178024 -0.130842 -0.476089
-0.164987 -0.126381 0.479451
-0.190169 -0.135988 -0.472510
-0.184263 -0.266971 -0.528811
-0.159018 -0.120868 0.469198
0.603794 -0.154649 -0.402151
0.120611 -0.155364 0.441330
-0.191402 -0.124849 -0.468813
-0.336984 0.400836 0.154802
-0.023620 -0.108616 0.567573
-0.303831 -0.031561 -0.545451
0.398986 -0.107338 -0.434214
0.044443 -0.099594 0.582746
-0.223571 -0.010474 0.535435
-0.182812 -0.128555 -0.493961
-0.053699 0.014301 -0.518327
-0.161529 -0.197278 -0.544096
-0.201832 -0.124914 -0.476963
-0.124569 -0.099382 0.548699
-0.006345 -0.228500 0.523354
-0.051369 -0.137866 0.483055
-0.196289 -0.117911 -0.496704
-0.500829 0.494985 0.193858
-0.439949 0.261215 0.249112
-0.162803 -0.126343 0.505956
-0.342225 0.307700 0.397599
-0.217987 -0.014346 -0.147568
-0.212227 0.140113 -0.606641
-0.110213 -0.247658 0.242644
-0.199858 -0.140731 -0.472852
0.560248 -0.079621 -0.253496
-0.191644 -0.149986 -0.492354
-0.157446 -0.149434 -0.316315
-0.172097 -0.126838 -0.483660
0.324807 -0.102980 0.365427
-0.311980 0.273529 -0.044915
0.190716 -0.173023 0.470870
0.495123 -0.038304 0.164925
-0.469287 0.241517 -0.518756
0.000271 0.385076 0.625671
-0.179711 -0.124403 -0.495433
-0.195489 -0.141569 -0.488083
-0.026857 -0.204824 0.270758
-0.156945 -0.117939 0.468970
-0.055680 -0.166232 -0.513651
0.064274 -0.091710 0.476685
-0.230689 -0.084915 -0.314902
0.614220 0.258434 -0.599464
0.610763 -0.189467 -0.193997
-0.392324 0.067803 -0.495057
-0.194950 -0.240603 -0.580670
-0.191691 -0.123190 0.467365
-0.305234 -0.001419 -0.237010
-0.096223 -0.102801 0.607753
-0.182749 -0.111138 -0.482684
-0.165199 -0.105162 0.471346
-0.078617 -0.167563 -0.536878
-0.210169 -0.194980 0.052566
-0.211703 0.016098 -0.500705
-0.176941 -0.139704 -0.477219
-0.166703 -0.120965 0.473536
0.144016 -0.109572 -0.301703
-0.251102 -0.096668 0.471244
0.485838 -0.195312 -0.214363
-0.424591 0.180935 -0.405090
0.034496 -0.230047 0.572118
-0.228328 -0.097064 -0.431769
0.439062 -0.199305 0.299896
-0.476862 0.398851 -0.003776
-0.215988 -0.167395 0.096977
-0.417436 0.099247 0.256908
-0.208553 -0.057866 0.181241
0.243067 -0.181510 0.260591
0.030510 -0.089508 -0.523140
-0.196817 -0.093431 -0.501217
-0.516265 0.435711 -0.140773
-0.100166 -0.185300 0.200540
0.122547 -0.083040 -0.453939
-0.106810 -0.203672 0.511143
-0.272477 -0.410591 0.551048
-0.116977 -0.084368 0.289271
-0.023292 -0.142720 0.545247
-0.315453 0.179755 -0.495884
-0.197005 -0.149682 -0.468455
-0.150274 -0.112657 0.464080
0.056454 -0.218921 -0.484691
-0.152832 -0.127161 0.471392
-0.190086 -0.141746 -0.474830
0.055510 -0.163385 -0.581313
-0.193269 -0.118921 -0.490918
-0.190905 -0.134455 -0.486015
-0.417103 0.100341 -0.217938
-0.242548 0.149569 -0.209596
0.365047 -0.180190 -0.401064
-0.204588 -0.131121 0.463014
-0.196570 -0.139297 -0.462135
-0.178429 -0.143520 0.472752
-0.401226 0.284705 0.070480
-0.221285 -0.035057 -0.516830
-0.344340 0.091529 0.544060
-0.184344 -0.132872 -0.478747
-0.069396 -0.218971 0.442740
-0.282975 0.273571 0.177190
0.132628 -0.185846 -0.563417
0.547940 -0.056155 0.639143
-0.330514 -0.178373 0.265906
-0.182638 -0.146384 -0.490221
-0.453140 0.599755 0.487886
-0.373970 0.212303 0.106348
0.518183 -0.294569 -0.548976
-0.210420 -0.043620 -0.517310
-0.181685 -0.200100 0.442098
0.589490 -0.418006 -0.560482
-0.196912 -0.136730 -0.478854
0.573730 0.008816 0.603487
0.389100 -0.151810 -0.522721
0.100100 -0.193575 -0.323037
-0.081209 -0.141901 0.547790
0.506558 -0.164708 0.569982
-0.339675 0.143288 0.421453
-0.183198 -0.121581 -0.488455
-0.421697 0.337752 -0.476515
-0.127384 -0.124774 0.490876
-0.269205 0.258759 -0.286159
-0.369250 0.449155 0.074853
-0.125630 -0.155420 -0.549497
0.275778 -0.226809 -0.595667
-0.244738 0.144242 -0.360869
-0.137506 -0.142634 -0.556440
0.407584 -0.110962 0.616316
-0.156147 -0.172480 -0.556405
-0.037762 -0.182662 0.564218
-0.162486 -0.120771 0.476261
0.614000 -0.176862 -0.026068
-0.176019 -0.133471 -0.473208
-0.175804 -0.127129 -0.492873
-0.184825 -0.148249 -0.486288
-0.165524 -0.138002 0.471595
0.578649 0.132013 -0.605435
-0.140434 -0.131436 -0.529564
0.302229 0.065206 0.637073
0.055036 -0.091960 0.497070
0.444921 -0.105943 -0.339496
-0.181242 -0.214639 0.177137
0.019361 -0.191667 -0.116798
-0.079266 -0.140524 0.551190
0.406012 -0.151599 0.459605
0.616467 -0.085513 0.078217
-0.063263 -0.162923 -0.541697
-0.199846 -0.138518 -0.498430
-0.282535 -0.016357 0.455637
0.267871 0.251614 0.518609
-0.290815 -0.057668 0.055617
-0.433866 0.240916 -0.334098
-0.137481 -0.114190 0.476073
0.358345 -0.104479 -0.410134
0.239325 -0.165975 -0.274353
-0.115157 -0.137453 0.476368
0.392202 0.027831 0.596027
-0.073937 -0.152881 -0.593408
-0.386960 0.277719 0.554678
-0.198960 -0.145325 -0.484852
-0.178166 -0.121901 -0.489095
-0.137792 -0.125560 0.471248
0.150767 -0.068655 0.640658
-0.127508 -0.169969 -0.555431
0.351682 -0.209576 -0.159361
-0.471003 0.304838 -0.570715
-0.193181 -0.138960 -0.463657
0.222482 -0.251436 -0.552496
-0.149898 -0.120727 0.467837
-0.172889 -0.263163 0.587365
-0.184021 -0.136206 -0.477922
-0.371621 0.052851 -0.148551
0.290218 -0.090820 0.035024
-0.011160 -0.109341 0.460680
-0.368629 0.089939 -0.355598
-0.127790 -0.175908 -0.556814
-0.185727 -0.134970 -0.481107
-0.293951 -0.026913 0.607566
0.347587 -0.179721 -0.018885
-0.123087 -0.187637 -0.483448
-0.201611 -0.106080 -0.492628
-0.198824 -0.127228 -0.480369
-0.166483 -0.099900 0.068900
-0.156574 -0.115885 0.436851
-0.466322 0.236416 0.028636
-0.152397 -0.081007 -0.508772
0.472536 -0.288410 0.601718
-0.188574 -0.133769 -0.480075
-0.117886 -0.195281 0.525368
-0.180105 -0.138267 -0.534616
-0.300695 -0.225521 -0.587325
-0.144911 -0.109362 -0.302106
-0.352938 0.415323 0.378916
-0.182134 -0.099684 0.505940
-0.186200 -0.135088 -0.480098
0.429343 0.250665 -0.526281
-0.457358 0.278205 0.593535
-0.204044 -0.134384 -0.486951
-0.187855 -0.145851 -0.477748
-0.126097 -0.130321 0.474280
0.441942 -0.248473 -0.561771
-0.486224 0.352405 0.057197
-0.372417 0.371256 0.361244
-0.126812 -0.132384 -0.546107
-0.194785 -0.150132 -0.482690
0.527951 0.068165 -0.527148
0.194889 0.021934 -0.630462
-0.109421 -0.110423 0.502302
0.001756 -0.204105 0.446932
-0.193340 -0.129155 -0.479875
-0.294295 -0.120436 -0.536443
-0.148867 -0.174394 -0.503702
-0.457956 0.599082 0.035679
-0.203636 -0.129336 -0.478106
-0.204142 -0.134334 -0.484240
-0.449383 0.198746 0.182779
-0.183643 -0.146612 -0.462695
-0.190470 -0.124992 -0.485902
0.053785 -0.251923 0.489993
-0.365123 0.010985 -0.608094
-0.383053 0.442607 0.540629
0.077932 -0.186851 -0.564804
-0.326198 -0.195630 -0.335206
-0.153818 -0.136449 0.477994
0.607967 -0.204207 -0.497955
-0.211543 0.052127 0.489282
-0.302577 -0.118179 0.519158
0.276938 -0.145766 -0.435872
0.054156 -0.200120 0.315650
0.606625 -0.223655 0.502303
-0.175126 -0.104387 -0.456234
-0.400251 0.195692 0.580815
-0.179387 -0.141051 -0.484526
0.134954 -0.107688 -0.406580
-0.128535 -0.151088 0.478110
-0.241187 -0.128755 -0.539110
-0.149344 -0.135807 0.474224
-0.138308 -0.236298 0.133119
-0.120917 -0.108232 0.546089
-0.181668 -0.146139 -0.477621
-0.200903 -0.123353 -0.491381
-0.421938 -0.481746 -0.552663
-0.151979 -0.124982 0.545135
0.333016 -0.211513 -0.022694
-0.354474 0.088120 -0.583619
-0.571025 0.549914 0.071032
-0.180875 -0.126575 0.347983
-0.456175 0.448683 0.427144
-0.342842 0.409265 -0.144177
-0.201242 -0.133985 -0.490471
-0.230380 -0.141873 -0.470698
-0.305572 0.196105 -0.588387
-0.148755 -0.109166 0.474115
-0.188857 -0.145576 -0.475656
-0.146015 -0.144927 -0.565400
0.034043 -0.188331 -0.021966
-0.149846 -0.131103 0.483175
-0.102321 -0.108501 0.542234
-0.091903 -0.178144 -0.548274
-0.235122 0.096606 0.301069
-0.166996 -0.159690 -0.483710
0.558160 -0.192742 0.417205
-0.181098 -0.123151 0.442135
0.178114 -0.042883 -0.422607
0.288234 -0.102855 0.116384
0.491060 0.202856 0.513802
-0.378998 -0.216937 -0.149690
-0.154869 -0.138549 0.465146
0.538425 -0.490868 -0.556418
-0.147805 -0.123034 0.471151
0.001785 -0.193305 0.176546
-0.415380 0.125756 0.439293
-0.189014 -0.115310 -0.476165
-0.130292 -0.178460 0.559184
0.692526 -0.107096 -0.218845
-0.186254 -0.135841 -0.498977
-0.124330 -0.150564 0.573394
0.062917 -0.110845 0.395385
-0.080227 -0.122065 -0.533210
-0.091162 -0.139846 -0.551845
0.435500 -0.192322 0.618198
-0.189806 -0.137254 -0.480723
0.077744 0.118066 -0.591653
0.209428 -0.091795 -0.498496
-0.197660 -0.139286 -0.476969
-0.114584 -0.274538 -0.130312
-0.321416 0.148321 0.589280
-0.452457 0.267649 -0.169887
-0.139106 -0.120786 0.465244
-0.161898 -0.155607 -0.386177
-0.283061 0.039708 -0.564914
-0.086506 -0.132268 -0.632708
-0.543800 0.518482 0.467033
-0.184972 -0.143971 -0.486505
-0.228040 -0.122836 0.430397
-0.422271 0.520329 -0.491473
-0.155069 -0.129327 0.473816
0.264941 -0.171755 -0.627240
0.017380 -0.143727 0.697343
-0.124932 -0.160807 0.440097
-0.057832 -0.042228 -0.560996
-0.141564 -0.138403 0.469995
-0.406161 -0.237997 0.329889
-0.123819 -0.127801 0.549437
-0.073728 -0.133634 -0.546292
-0.197792 -0.133044 -0.496434
-0.199522 -0.146725 -0.284130
0.603707 -0.102195 0.429531
-0.152113 -0.127294 0.478517
-0.132570 0.243606 -0.598307
-0.016385 -0.210227 0.519172
-0.216751 -0.109022 -0.476187
-0.148951 -0.126089 0.462130
-0.192408 -0.140568 -0.462597
-0.200679 -0.182905 0.464474
0.506698 -0.182098 0.496577
-0.190282 -0.120251 0.459952
-0.108975 -0.217494 0.502457
-0.442123 0.312579 0.427493
-0.160014 0.049319 -0.505713
-0.252141 -0.237287 0.097329
-0.436374 0.620645 -0.131656
-0.091748 -0.092343 0.538368
0.273605 -0.387553 0.606154
-0.243686 0.037263 0.556003
-0.191010 -0.206170 0.113250
-0.194681 -0.136688 -0.489490
0.066270 -0.209730 -0.461398
-0.308508 -0.235203 0.336377
-0.422859 0.049815 0.337362
0.524685 -0.067223 0.264279
0.545870 -0.089556 -0.081144
0.017542 -0.135398 0.476964
-0.293648 0.341840 0.302437
-0.133927 -0.134217 -0.542923
-0.151407 -0.135182 0.476654
-0.125594 -0.132385 0.484293
0.273143 -0.105579 -0.462996
0.112880 -0.073837 -0.436897
-0.188550 -0.142113 -0.503006
-0.108843 -0.214640 0.406780
-0.130132 -0.238505 0.558417
-0.195008 -0.131369 -0.496083
-0.120866 -0.138656 0.557263
0.087014 -0.142092 0.450431
-0.113023 -0.111086 -0.078698
-0.290026 0.014746 -0.556828
0.692912 -0.135057 0.189585
0.370902 -0.136852 -0.152942
0.551524 -0.170804 -0.358298
-0.186423 -0.141530 -0.461627
0.544167 -0.235090 -0.494771
-0.194875 -0.143090 -0.485552
-0.426510 -0.220381 -0.376993
-0.196441 -0.121840 -0.490134
-0.469021 0.349545 0.224967
0.157947 -0.069392 -0.519303
-0.192703 -0.129897 -0.478471
-0.140966 -0.129290 0.469090
0.257179 -0.235205 -0.522658
0.361605 -0.148425 0.382991
-0.174198 -0.099988 -0.348007
-0.188765 -0.135751 -0.488333
-0.170703 -0.133380 -0.485075
-0.191293 -0.134015 -0.482113
-0.170249 -0.142346 -0.467598
-0.384336 -0.066427 0.060310
-0.146416 -0.166386 0.442101
-0.147815 -0.128689 0.499218
-0.312676 -0.059818 -0.436550
0.242493 -0.145106 0.507793
-0.311265 0.330032 -0.488026
-0.183839 -0.136572 -0.477084
-0.193963 -0.147671 -0.477867
0.584404 -0.172295 0.627082
-0.180440 -0.106782 0.473984
-0.184782 -0.189204 -0.441104
-0.212150 -0.085866 -0.162676
-0.151693 -0.126004 0.472561
-0.450992 0.517997 0.544897
-0.004664 -0.106355 0.470765
-0.197411 -0.125648 -0.484915
-0.181180 -0.083772 0.515700
-0.272663 -0.247199 -0.545197
-0.104525 -0.246712 0.608509
0.012808 -0.191452 0.063104
0.440335 -0.021675 -0.464549
-0.210554 -0.136487 -0.493346
-0.120586 -0.247041 0.540134
0.023127 -0.098142 0.415264
0.414707 -0.111070 0.531528
-0.301278 -0.227134 -0.253994
-0.184400 -0.135486 -0.468807
-0.115569 0.115456 -0.602767
-0.162383 -0.128228 -0.481543
-0.100524 -0.155120 -0.539803
-0.159887 0.260867 0.526907
-0.190598 -0.134026 -0.477802
-0.162723 -0.158135 -0.563381
-0.130559 -0.147014 -0.537172
-0.180253 -0.112815 -0.519067
-0.198025 -0.143109 -0.480486
-0.102032 0.219159 0.603926
-0.161648 -0.140461 0.460101
-0.146597 -0.129153 0.473932
-0.442191 0.237570 -0.128249
-0.441427 0.041925 0.469086
0.574823 -0.186191 -0.101377
-0.089477 -0.199486 0.536267
0.121386 -0.211883 0.576205
-0.177803 -0.140327 -0.475721
-0.126277 -0.111684 -0.554280
-0.066203 -0.184374 -0.377181
-0.287400 0.265112 0.488855
0.292848 -0.174650 0.273741
-0.160561 -0.141062 0.470699
-0.180925 -0.139099 -0.478281
-0.163689 -0.052239 0.569966
0.594309 0.172909 0.594952
-0.492249 0.439482 0.073587
-0.192853 -0.136336 -0.486252
-0.214234 -0.251731 0.244198
0.520726 0.080626 -0.465870
0.001361 -0.063734 0.309417
-0.095451 -0.129005 -0.558318
-0.131007 -0.237143 0.008666
0.301695 -0.058731 -0.364285
-0.189023 -0.144578 -0.477218
-0.429682 0.165615 0.493662
-0.482843 0.469352 -0.447692
-0.131518 -0.232859 0.370719
-0.182654 -0.237464 -0.018096
0.456539 -0.246887 0.475566
0.419914 -0.067213 0.044337
0.428151 -0.109781 -0.619487
-0.066792 -0.167978 0.559413
-0.145295 -0.114259 0.482015
-0.207238 -0.137490 -0.485885
-0.238724 0.185029 0.468084
-0.157631 -0.052575 0.538735
-0.172061 -0.132175 -0.499506
0.048531 -0.063767 -0.175869
-0.235308 -0.062164 0.502469
0.657210 0.009633 0.526237
0.154553 -0.189196 0.507418
-0.196540 0.069449 -0.465734
-0.087205 -0.208197 0.546191
-0.206502 -0.132255 -0.481716
-0.073272 -0.128480 -0.532784
-0.212415 0.000206 0.038696
-0.223670 -0.049254 -0.551183
-0.187367 -0.133859 0.449313
-0.057920 -0.191882 -0.547853
-0.201321 -0.143640 -0.477737
-0.328536 -0.084247 0.563708
0.310412 -0.216603 -0.524193
0.472668 -0.118259 0.500077
0.293984 -0.060942 0.614044
-0.160380 -0.124942 0.470913
-0.410698 0.047363 -0.428056
-0.133401 -0.123482 0.471214
-0.214964 -0.122090 -0.493101
0.261110 -0.151549 -0.593966
-0.128455 -0.136809 -0.557908
0.227898 0.128500 -0.571119
0.229603 -0.207921 0.144837
-0.315288 0.163764 -0.531492
0.103588 -0.306873 0.551065
-0.169979 -0.130536 -0.468154
-0.180659 -0.217543 -0.193052
0.490177 -0.070901 -0.284219
0.038169 -0.107746 -0.394443
0.177914 -0.128611 -0.076355
-0.137535 -0.111737 0.469859
0.359153 -0.158503 -0.268016
-0.161012 -0.133019 0.558063
-0.283788 0.069837 0.566105
-0.383553 -0.201075 -0.029454
-0.173674 -0.124985 -0.494656
0.172240 -0.137415 0.589386
-0.218069 0.081549 0.397318
0.617948 -0.017813 0.385930
-0.255066 0.045752 -0.612721
-0.364288 0.185874 0.561861
-0.179455 -0.127890 -0.483632
-0.196416 -0.133844 -0.491788
-0.140551 -0.135403 0.474060
0.491834 -0.241819 -0.219122
0.376717 -0.070223 0.476698
-0.181618 -0.134148 -0.479425
-0.380731 0.454597 -0.071183
-0.146293 -0.108053 0.300494
-0.281118 -0.114195 0.195556
0.492823 -0.020158 -0.567431
-0.185815 -0.139063 -0.471832
-0.286392 0.105300 -0.595619
0.391347 -0.157016 0.032078
-0.427818 0.142590 -0.449445
0.198836 0.013218 -0.527848
-0.128788 -0.155200 0.568712
-0.190465 -0.132088 -0.456268
-0.437486 -0.168921 -0.553786
-0.190959 -0.041474 -0.077919
-0.311532 -0.009552 -0.421154
-0.437965 0.201293 -0.638017
-0.304397 0.161990 0.504607
-0.099201 -0.125385 0.433594
-0.284090 -0.044671 -0.538052
-0.144835 -0.153743 0.548197
-0.199280 -0.139443 -0.484551
-0.438815 0.334993 -0.398954
0.572521 -0.179950 -0.270333
-0.214248 -0.145840 -0.482499
-0.175324 -0.174417 -0.257198
-0.240528 -0.105273 -0.221924
-0.243223 -0.182217 0.199781
-0.164761 -0.131973 0.468922
0.367998 -0.177144 -0.505493
-0.206005 -0.130232 -0.482911
-0.242562 -0.007908 -0.500101
-0.197542 -0.138109 -0.486060
0.279037 -0.178938 -0.358081
-0.189480 -0.137111 -0.463922
-0.050597 -0.246567 -0.026832
-0.186359 -0.126216 -0.488922
-0.397249 0.470887 0.172433
-0.195484 -0.133261 0.451303
-0.134022 -0.175233 -0.543754
0.171218 -0.053353 0.574160
-0.407019 0.181438 -0.524730
0.330799 -0.226068 0.598289
0.090738 -0.200059 0.541897
-0.505755 0.415576 0.433006
-0.191811 -0.133549 -0.486771
-0.182166 -0.113377 -0.485472
-0.095688 -0.203227 0.534928
0.178627 -0.072663 0.502954
-0.178760 -0.144694 -0.482864
-0.149744 -0.116687 0.478152
-0.083183 -0.084008 -0.253452
0.551169 -0.030372 -0.578532
-0.172372 -0.134541 0.475267
-0.148119 -0.134671 -0.551539
-0.154042 -0.136392 0.482340
-0.204495 -0.126187 -0.482093
-0.051376 -0.148403 0.388510
-0.451557 0.379782 -0.168790
-0.100449 -0.144569 0.556891
-0.328026 0.234191 -0.540000
0.206666 -0.084138 0.304722
-0.098867 -0.096144 0.006146
-0.092357 -0.186689 0.460152
0.508929 -0.108645 0.079700
-0.391777 0.217855 -0.113068
-0.464461 0.289695 0.121302
-0.377398 -0.087345 -0.387597
-0.134846 -0.214425 0.506090
-0.205326 -0.139754 0.456795
-0.155047 -0.133854 0.469477
0.444215 -0.217843 -0.439884
-0.171527 -0.109794 0.477399
-0.165129 -0.114485 0.473404
-0.189695 -0.131430 -0.474510
-0.174041 -0.161307 -0.523671
-0.166541 -0.117348 0.467276
-0.265259 -0.088503 -0.498656
-0.342518 -0.166458 0.362164
-0.307869 -0.233180 0.238281
-0.124954 -0.132926 0.546061
-0.094318 -0.108381 0.191356
0.215924 -0.180639 0.334839
0.522795 -0.176817 -0.371027
-0.255325 0.080143 -0.559769
-0.160615 -0.127698 0.455375
-0.461604 -0.386687 -0.544960
0.497342 -0.044840 -0.600058
0.028367 0.126417 0.601432
0.313392 0.002444 -0.444131
-0.170203 -0.142392 -0.526926
-0.219802 0.238413 -0.516832
-0.369221 0.314772 0.525310
0.307680 0.230726 0.616799
-0.189081 -0.146678 -0.480552
-0.523786 0.459426 -0.500148
-0.260001 -0.215870 -0.108238
-0.151830 -0.146794 -0.560397
-0.254085 -0.092166 0.058813
-0.423050 -0.128910 0.629884
-0.120762 -0.258451 -0.468225
0.452458 -0.169758 0.134057
-0.204472 -0.084668 -0.042121
-0.143504 -0.110761 0.483953
-0.093278 -0.191499 0.573701
-0.158593 -0.128999 0.463438
-0.233953 0.218876 -0.099961
-0.199192 -0.174932 -0.544596
-0.221932 -0.059556 -0.526183
-0.035460 -0.137801 -0.557921
0.041937 -0.100148 0.242418
-0.168372 -0.125144 0.475239
-0.209547 -0.263708 -0.495635
0.233131 -0.145593 -0.410355
-0.205620 -0.139089 -0.474362
0.254867 -0.018971 0.504871
-0.178990 -0.130073 -0.494519
-0.408177 -0.181067 0.240121
-0.191897 -0.112787 -0.497422
-0.163478 -0.135199 -0.492634
0.219213 -0.190670 -0.519987
0.314423 -0.162228 0.320888
-0.374544 0.312890 0.171114
0.010442 -0.208979 0.542805
-0.261247 0.159739 0.199272
-0.197559 -0.179031 -0.497276
-0.138402 -0.099616 -0.509822
-0.177846 -0.125805 0.463374
-0.169752 -0.133878 -0.487300
-0.288799 0.072901 -0.510121
0.571428 -0.085549 0.164345
-0.207649 -0.131768 -0.487634
-0.187001 -0.101280 0.479077
-0.447261 0.169130 -0.540360
-0.163000 -0.131052 -0.531709
0.470215 -0.044400 -0.404413
-0.192400 -0.131004 -0.478290
-0.197890 -0.107348 0.524545
-0.126939 -0.095867 0.402071
0.533018 0.054073 -0.647514
-0.075043 -0.199549 -0.396827
-0.167753 -0.164231 0.515373
-0.407364 -0.066554 -0.294854
-0.020326 -0.095360 -0.405796
-0.188979 -0.145076 -0.479132
-0.224223 0.152550 0.487295
-0.100381 -0.210802 0.570908
0.351894 -0.185679 -0.299602
-0.297750 0.283511 0.598184
-0.193807 -0.113748 0.451829
0.063888 -0.149499 0.519355
-0.456353 0.253037 -0.381661
-0.214099 -0.125556 -0.493775
0.043085 -0.215810 -0.207638
-0.196212 -0.134352 -0.499838
0.215887 -0.085036 0.474577
-0.165529 -0.118028 0.465181
-0.343847 -0.281636 -0.502348
-0.164899 -0.132871 -0.468447
-0.391278 0.401538 -0.253195
-0.129463 -0.120133 0.473294
-0.147568 -0.132600 0.473555
-0.001642 -0.236297 -0.457494
-0.189629 -0.131899 -0.470488
-0.042651 -0.042663 -0.499059
0.062571 0.367682 -0.605528
-0.189355 -0.134465 -0.479801
-0.113733 -0.206459 0.543741
0.087002 -0.234860 0.528890
-0.169480 -0.125223 -0.614850
-0.411644 0.530776 -0.072969
0.257473 -0.172273 0.496173
0.154079 -0.200937 -0.040697
-0.191491 -0.124947 0.468633
0.406507 -0.148135 -0.234369
-0.159976 -0.141407 0.450603
-0.184782 -0.267169 -0.480328
-0.446549 0.215169 0.497138
-0.015408 -0.152883 -0.483793
0.656399 -0.052782 -0.117630
-0.113747 -0.172915 -0.550072
-0.153899 -0.246969 0.067018
-0.166829 -0.112658 0.459365
-0.169551 -0.224798 0.651302
0.442119 -0.008438 -0.611193
-0.155815 -0.109387 0.467549
0.543467 -0.150741 0.051623
-0.052835 -0.128794 0.549048
-0.188831 -0.127573 -0.491749
-0.467863 0.430508 0.581045
-0.144962 -0.108540 -0.398364
-0.170150 -0.115632 0.449878
-0.153363 -0.065641 -0.494859
-0.200967 -0.139475 -0.485848
-0.178698 -0.129834 -0.467934
0.536309 -0.487304 0.568010
-0.136625 -0.191544 -0.468310
-0.420790 0.417465 0.373941
-0.363356 0.308668 -0.470861
-0.403406 0.193630 0.560132
0.001228 -0.230482 0.358883
-0.488490 0.359887 -0.064180
0.120254 -0.186340 0.608441
-0.162950 -0.123083 0.472128
-0.184979 -0.131978 -0.481090
-0.127570 -0.117216 0.483588
-0.044148 -0.176060 0.566385
-0.201842 -0.133423 -0.473054
-0.174095 -0.140906 -0.476327
-0.206562 -0.202343 0.239306
0.007886 -0.202965 -0.623611
-0.188932 -0.081538 -0.543191
-0.050701 -0.227322 0.555118
-0.434729 0.162014 0.364424
-0.360673 -0.168465 0.131520
-0.356258 0.118410 -0.266394
-0.116296 -0.150065 -0.504708
-0.218365 -0.097871 -0.510494
-0.192842 -0.122929 -0.477398
0.048418 -0.204967 0.475940
-0.075038 0.186834 0.625218
-0.162324 -0.099955 0.476966
-0.194246 -0.126341 -0.474651
0.297493 -0.063483 -0.568507
-0.341646 0.341668 0.603294
0.183093 -0.136929 0.485812
-0.154355 -0.129449 -0.558236
-0.201528 -0.121915 -0.475829
-0.381950 0.129449 0.610660
-0.082300 -0.152793 -0.562360
-0.157937 -0.173843 -0.541721
0.182900 -0.214681 -0.401089
-0.292741 0.270473 0.057027
0.299863 -0.079686 -0.232919
-0.137864 -0.136947 0.483290
0.270064 -0.158643 0.406985
0.050297 -0.047856 -0.591504
0.173008 -0.053523 0.480228
-0.168469 -0.146854 -0.489664
-0.337765 -0.247784 0.517094
-0.190745 -0.143181 -0.487483
-0.098514 -0.117560 -0.553617
-0.273470 -0.061859 -0.156631
0.183083 -0.211559 -0.324761
0.001148 -0.219670 0.402894
-0.337864 0.216150 0.618384
-0.099412 -0.176773 -0.554176
-0.172375 -0.131497 -0.483505
-0.128053 -0.147685 -0.554095
-0.131283 -0.143612 0.553689
-0.247131 -0.014070 0.484216
-0.270436 -0.153659 0.509440
-0.295924 0.359783 -0.274720
-0.326396 -0.092635 -0.255694
0.685679 -0.089801 0.409771
0.558235 -0.154171 -0.607372
-0.283309 -0.136187 0.438447
-0.203272 -0.137066 -0.482781
-0.077686 -0.225722 -0.500645
-0.192116 -0.140886 -0.471830
-0.127364 -0.152006 -0.571946
-0.151257 -0.091043 0.383494
-0.125534 -0.151877 -0.561396
-0.170829 -0.143949 -0.461755
-0.413523 0.245833 -0.143438
-0.260925 0.139392 0.573675
0.539194 -0.109473 -0.443094
-0.410748 0.128742 0.057286
0.209683 -0.082841 -0.283577
-0.067775 -0.099056 0.307540
-0.340766 -0.131550 0.539525
-0.123996 -0.151370 0.455693
0.310166 -0.228116 0.516765
-0.199955 -0.129855 -0.470573
-0.108460 -0.066610 -0.389986
-0.261734 -0.169997 -0.553369
-0.446338 0.394859 -0.471538
-0.432900 0.218524 0.109314
-0.107571 -0.212075 -0.548121
-0.142444 -0.109405 0.547004
-0.369910 0.466885 -0.445214
-0.187045 -0.109931 -0.195459
0.513090 -0.246109 -0.613868
-0.058189 -0.184014 -0.184266
-0.205648 -0.144327 -0.476150
-0.212329 -0.108156 -0.517715
-0.221125 -0.200607 0.291250
-0.144777 -0.108567 0.464643
0.172340 -0.265889 0.522210
-0.175833 -0.123791 0.465361
-0.189644 -0.126413 -0.489363
0.393844 -0.074077 -0.158770
-0.534609 0.550392 -0.165253
-0.375851 0.437746 0.276325
-0.445867 0.588405 0.284131
-0.170715 -0.114136 -0.467434
0.565421 -0.111961 -0.283876
0.112053 -0.307419 -0.584024
-0.415832 0.531146 0.381622
-0.093337 -0.085248 -0.533719
-0.336701 0.074748 0.525862
-0.209476 -0.127823 -0.469965
-0.520744 0.633278 0.359585
-0.076734 -0.141797 0.591447
0.575967 -0.279463 -0.048088
-0.337169 0.292763 0.270004
-0.215797 0.277937 -0.510386
-0.014173 0.242317 -0.656563
0.588422 -0.188270 0.370894
-0.199725 -0.138794 -0.494544
-0.150348 -0.116941 0.465633
-0.162351 -0.284866 -0.554034
-0.306990 -0.222219 -0.422651
-0.050279 -0.135045 -0.527158
0.138180 -0.203937 0.493466
-0.386816 0.020110 0.224247
-0.102578 -0.110709 -0.380330
-0.132926 -0.146553 -0.163546
-0.293732 0.084254 0.456424
0.413438 0.161134 0.619651
-0.138831 -0.138490 0.463031
0.066937 -0.182961 0.171345
0.566299 -0.258091 -0.599469
0.519666 0.240830 -0.545082
-0.413102 0.344323 0.165649
-0.083292 -0.114871 0.552310
-0.081155 -0.157451 -0.237720
-0.024022 -0.233645 0.132648
-0.073115 -0.097301 -0.511933
-0.203786 -0.139712 -0.461091
-0.399916 0.006115 -0.222437
-0.198877 -0.144493 -0.461737
-0.333857 0.269339 0.501636
-0.197254 -0.214756 -0.402987
0.560278 -0.144034 -0.522454
-0.316702 0.354012 0.471245
-0.010679 -0.209515 -0.471422
-0.012542 0.233337 -0.499761
-0.319948 -0.236915 0.623517
-0.162843 -0.126423 0.469745
