0.102817 -0.007438 -0.199097
-0.163629 -0.007009 -0.338255
0.385219 -0.514425 0.355315
-0.167001 0.017763 0.334094
-0.162856 -0.014588 -0.328039
-0.169584 -0.027218 0.323512
-0.163446 -0.003297 -0.329751
-0.178040 -0.016330 -0.327235
-0.235776 -0.813158 0.340226
-0.181639 -0.009770 0.321629
0.383823 -0.109191 -0.270733
-0.178793 -0.017388 -0.333523
-0.187135 -0.013806 0.321385
-0.170981 -0.010182 0.327295
-0.164756 -0.019534 0.322516
-0.176960 0.002921 -0.324079
0.363158 -0.694386 -0.364760
-0.147337 -0.011586 -0.312158
-0.198026 -0.335716 -0.359790
-0.162965 -0.022235 -0.324777
-0.219739 0.013868 -0.215392
-0.176445 -0.016073 0.319257
-0.243169 0.359812 0.026762
-0.167509 0.002882 -0.321312
-0.242725 0.682706 -0.132924
-0.182968 -0.020474 0.318837
-0.168125 -0.010942 -0.333054
-0.009263 0.056359 0.082610
-0.184268 -0.007739 -0.321023
0.108969 0.013724 0.323797
0.193440 0.045020 0.335396
-0.222496 0.519160 0.275561
-0.156889 -0.008467 0.321256
-0.193493 -0.019064 0.324559
-0.155532 -0.002540 0.324630
-0.237004 0.528373 -0.100269
-0.152081 -0.007138 -0.336950
-0.165929 -0.006479 -0.331781
-0.178316 0.384032 0.294345
0.441414 0.019204 0.009928
-0.167571 -0.010406 0.321577
-0.175723 -0.004748 -0.326656
0.012273 0.001912 0.022951
-0.226633 -0.089867 -0.330194
-0.158704 -0.007690 -0.331382
0.036475 0.037998 0.055030
-0.238730 -0.212371 -0.301179
-0.249690 0.328445 -0.283858
-0.207203 -0.233388 0.355285
0.092207 0.040441 0.265624
-0.148362 -0.013820 0.314211
-0.149291 -0.012611 -0.327866
-0.154885 -0.005117 -0.328786
0.365401 -0.453947 0.338143
-0.235141 0.135256 0.118081
0.408782 -0.148143 0.256221
-0.170977 0.007141 -0.327357
-0.223865 0.037443 0.009617
0.220407 -0.011298 -0.095147
-0.171549 -0.017524 0.315726
0.174409 -0.015156 -0.027176
-0.167759 -0.022604 0.327004
-0.189408 -0.020001 0.322335
-0.143640 -0.157304 0.306687
-0.240190 -0.714625 0.376279
0.300761 -0.005870 0.119017
-0.175096 -0.018746 0.319242
0.412620 -0.810573 0.326414
-0.162946 -0.016152 -0.329189
-0.188604 0.242496 0.209717
-0.176320 -0.008189 0.326548
-0.181838 -0.020189 0.321841
0.357478 -0.035140 0.270087
-0.178105 -0.021260 0.314865
-0.164917 -0.000766 -0.322662
0.103783 -0.001103 -0.089217
-0.179966 -0.008332 -0.328543
0.352418 0.032864 0.240664
-0.172864 -0.020497 0.323607
-0.165207 -0.007656 0.323348
-0.168423 -0.013733 -0.335164
-0.176583 0.059995 -0.040526
-0.149325 -0.017499 -0.319068
-0.248294 0.508507 -0.202698
-0.263440 0.019872 -0.012800
-0.186349 -0.019713 0.319803
-0.157142 -0.022295 0.322376
0.414507 -0.019915 0.117141
0.344377 -0.587168 -0.329285
0.270114 0.057628 0.028726
0.215326 0.021203 -0.333387
-0.177283 -0.020580 -0.332921
-0.166633 -0.008302 0.316663
-0.177386 -0.016029 0.322553
-0.166866 -0.005837 -0.325831
-0.212203 0.025228 -0.067130
-0.172010 -0.024755 0.318401
-0.142770 0.190647 -0.352103
-0.237394 0.226835 0.344979
0.120623 0.039552 -0.300497
-0.164103 -0.013377 -0.328673
0.403037 -0.339986 0.307601
-0.146069 -0.007745 -0.318880
0.151550 0.054829 0.282773
-0.115846 0.021955 -0.357174
0.395870 0.022299 -0.063774
-0.194344 0.559528 -0.279249
-0.241688 0.385691 -0.295022
-0.162645 -0.025642 0.319258
-0.199613 0.440579 0.046221
-0.159575 -0.006541 -0.326512
-0.180261 -0.010943 -0.337953
-0.120090 -0.002985 -0.335392
0.246847 0.019423 -0.310631
-0.176839 -0.016441 0.318736
0.081854 0.014606 -0.323401
0.383453 0.048313 -0.058809
-0.160678 -0.009848 -0.328385
-0.246415 0.540788 0.170599
-0.173054 -0.009187 0.323219
-0.145972 0.043949 0.210057
-0.220921 0.037355 -0.336352
-0.163374 0.044804 0.318575
-0.159431 -0.016240 0.321972
-0.179534 -0.121562 -0.322800
-0.225198 0.617096 -0.345784
-0.186081 -0.015910 0.321143
-0.021544 -0.013839 -0.269224
-0.219957 -0.018802 -0.170967
-0.183629 -0.015941 0.316992
-0.165481 -0.009170 -0.331323
-0.199606 -0.083487 0.328305
-0.175967 -0.024087 0.325432
-0.183416 -0.011146 -0.340717
-0.234503 0.000180 0.263483
0.366875 0.038361 0.072657
0.187582 0.048540 -0.185842
0.391369 -0.617931 0.304678
-0.179897 -0.001577 -0.334818
-0.168759 -0.003676 -0.325397
-0.187866 -0.002572 0.316061
-0.183005 0.026143 -0.006943
-0.184919 -0.020389 0.320361
-0.151904 -0.006392 -0.327937
0.433526 -0.002250 -0.190322
-0.118155 0.017160 -0.242736
-0.160608 0.561654 0.347779
0.296811 -0.763863 -0.357262
-0.147914 0.025479 0.189092
-0.235687 0.071973 -0.187387
-0.187497 -0.004073 0.319347
-0.190359 -0.024445 0.317239
-0.185473 -0.023663 -0.327994
-0.025893 0.008689 0.338532
-0.178229 -0.017436 0.324754
-0.239211 0.476187 -0.104351
-0.081516 0.010891 0.345886
-0.154269 -0.011251 -0.332448
-0.176857 -0.012540 -0.328623
0.335440 0.048483 -0.068228
-0.235413 0.286578 0.280548
-0.154110 -0.005973 -0.327357
-0.164560 -0.012306 -0.318060
-0.101725 -0.001553 0.109343
-0.184391 -0.004836 0.324738
0.447342 0.042177 -0.180644
-0.168376 -0.009906 0.327888
-0.121152 -0.015483 -0.185771
0.254933 0.030636 0.232047
-0.211556 0.192283 -0.354998
0.451217 -0.600133 0.318827
-0.187480 0.107805 0.292320
-0.164774 -0.002266 -0.335251
-0.151489 -0.010420 -0.320730
-0.182449 -0.017690 -0.320825
-0.145571 -0.006355 0.155809
-0.163221 0.018263 -0.162056
0.406628 -0.005814 0.198704
-0.164098 -0.008409 -0.332466
-0.132779 -0.016401 0.087350
-0.167125 -0.001911 -0.331826
-0.209168 0.615176 0.209928
-0.233709 0.233594 -0.249972
0.039518 -0.002349 -0.210584
0.387968 -0.036766 0.283625
-0.161961 0.019819 0.337699
-0.200035 0.037098 0.289113
0.288608 0.067977 -0.177297
-0.207498 0.003010 -0.122575
-0.173702 -0.017971 0.325698
0.234904 0.039001 -0.009258
-0.197176 0.368524 -0.188609
-0.119900 0.008968 0.328764
-0.172181 -0.014895 0.331965
-0.067369 0.039281 0.032321
-0.169576 -0.003397 -0.338491
0.359692 -0.199222 0.343973
0.067254 0.003310 -0.350186
-0.174356 -0.013748 -0.327367
-0.173297 0.000248 0.321532
-0.184866 0.002879 0.232766
-0.185014 -0.011611 -0.332647
-0.153695 -0.008989 -0.331541
-0.178202 -0.009088 0.321044
0.215466 0.057944 0.079628
-0.235983 0.402605 0.271268
-0.166478 -0.017894 0.322594
-0.156920 -0.014299 -0.334650
-0.159622 -0.000972 -0.313664
-0.165706 -0.003235 -0.319120
-0.061628 0.032142 0.128731
-0.160292 -0.002437 0.321172
-0.169465 -0.004036 -0.332249
-0.163214 -0.004984 0.325350
-0.171603 -0.016371 -0.329305
-0.157008 -0.011404 -0.327960
-0.204203 -0.259744 -0.286974
-0.272493 -0.633286 -0.356091
-0.256710 -0.134929 0.327080
-0.163216 -0.009929 -0.308662
-0.165145 -0.008770 0.317560
0.416960 -0.054944 -0.266465
-0.170441 -0.020856 -0.339515
0.282135 0.057019 0.293135
-0.246106 0.581392 -0.191878
-0.179614 -0.005866 -0.335108
-0.189572 -0.270863 -0.352734
-0.157527 -0.002942 -0.327643
0.332515 0.044426 0.116680
0.239800 0.027495 -0.351869
-0.193608 -0.039550 -0.231821
-0.234146 -0.227359 0.319828
-0.180727 -0.021081 0.324305
0.415612 -0.208204 -0.286054
-0.160419 -0.001377 -0.332847
0.066069 -0.021658 -0.042290
-0.196153 -0.004358 -0.319042
-0.195009 -0.013277 -0.266651
0.151539 -0.000539 -0.196625
-0.267108 0.707796 0.082654
-0.169548 -0.014191 -0.324970
-0.251019 0.011157 0.243395
-0.260010 0.649850 -0.264506
0.432025 -0.244252 0.296085
-0.195944 0.001706 0.325102
0.000409 0.055038 -0.061344
-0.171742 -0.015086 -0.334611
-0.157709 -0.030641 0.336553
-0.173809 0.202358 0.297804
0.391831 -0.027279 -0.022861
-0.154936 -0.007535 -0.327897
-0.191834 -0.018111 0.323639
-0.174678 -0.010943 -0.332554
-0.174900 0.014148 0.324011
-0.177316 -0.017636 0.320363
-0.151205 -0.016922 0.319256
-0.171485 -0.014732 0.326591
-0.180286 -0.010508 0.323361
0.348603 -0.016530 0.298742
-0.218515 -0.413740 0.308305
-0.179329 -0.014073 -0.331477
-0.152281 -0.015952 -0.335055
-0.206407 -0.006987 0.314682
-0.276379 -0.727502 -0.378561
-0.163870 -0.007431 -0.327118
-0.159338 -0.009055 0.321202
-0.157001 -0.005496 -0.320808
0.403633 0.041459 -0.215877
-0.165411 -0.006025 -0.333367
-0.172407 -0.006736 0.323019
-0.159828 -0.014387 -0.327631
-0.113878 -0.034364 -0.316033
0.425029 -0.136197 -0.339511
-0.161817 -0.008073 -0.329818
-0.133572 -0.017576 0.332716
-0.171607 0.003092 0.330586
-0.151457 -0.015075 -0.330325
-0.162756 -0.000851 0.327596
-0.159865 -0.010546 -0.333982
-0.159007 -0.016963 0.324409
-0.166306 0.009898 -0.335158
-0.153552 -0.047342 -0.282831
0.451820 0.000174 -0.239979
-0.137622 0.025831 0.247769
-0.179191 -0.025472 0.324875
-0.137717 0.004294 -0.331359
0.391656 0.047533 0.327595
-0.149812 0.009390 0.339272
0.170615 0.060858 -0.304080
-0.011559 0.051158 -0.296080
0.196810 -0.008232 0.025033
-0.227586 0.569424 -0.343979
-0.178634 -0.326095 0.304489
0.365630 -0.386947 -0.325107
-0.153692 -0.005221 -0.324625
-0.165486 -0.007218 0.319967
-0.185419 -0.011580 -0.336922
0.455713 0.011295 0.082953
0.162636 0.036353 -0.276878
0.019650 0.009760 -0.195738
0.382326 -0.764109 0.311802
-0.160654 -0.007583 0.319320
0.103728 0.030780 -0.333478
-0.166864 -0.068429 0.309923
-0.192131 0.597564 0.310431
-0.175321 -0.008160 -0.333914
-0.178593 -0.015910 0.321897
-0.236508 0.684500 -0.263677
-0.126339 -0.023076 -0.330174
-0.143986 -0.017516 -0.324387
-0.196056 -0.028393 0.315840
-0.166663 -0.007191 -0.328248
0.152934 -0.019484 0.311225
-0.225484 -0.561490 -0.357778
-0.178769 -0.014150 -0.334805
-0.184066 -0.010877 0.315461
-0.165863 -0.009012 0.318422
0.268942 0.000985 -0.191809
-0.179573 -0.002259 -0.333649
-0.162647 -0.002024 -0.334419
-0.153087 -0.018196 0.320310
0.304633 0.021589 -0.334476
-0.173177 0.012491 0.312964
0.461861 -0.597412 -0.351661
-0.018207 0.025740 0.208149
-0.240244 0.482399 -0.247063
-0.169838 -0.006296 -0.326144
-0.217388 0.297194 -0.345441
0.100568 0.039496 0.093183
-0.177091 -0.004813 -0.338133
-0.204592 -0.771850 -0.354765
-0.216619 -0.034382 0.257632
-0.167762 -0.026537 0.325152
-0.168623 -0.013298 -0.328975
-0.176720 -0.003540 -0.326286
-0.174945 -0.010065 -0.333605
0.329126 -0.004364 0.336334
-0.176661 0.116307 -0.346847
-0.163745 -0.010378 -0.336363
-0.173021 -0.015065 -0.334031
0.407729 -0.003378 -0.154692
0.390646 0.042990 0.269358
-0.187596 -0.012747 -0.327684
-0.129625 0.045319 -0.328922
-0.175647 -0.010627 0.325295
-0.186260 -0.011447 0.327044
-0.258085 0.162430 0.346393
-0.152885 -0.012383 -0.336995
0.089869 0.050888 -0.336625
-0.185871 -0.016167 -0.328756
-0.180909 -0.015406 0.322584
-0.176059 -0.004330 -0.328892
0.380543 -0.536815 -0.309065
-0.190925 0.001562 -0.327396
0.041329 0.041228 0.315240
-0.175932 -0.015401 0.323086
-0.182081 -0.007931 0.317985
0.179879 -0.045610 0.304874
-0.176064 -0.011720 0.316878
-0.157464 -0.012271 -0.334136
-0.233319 0.394153 -0.177936
-0.187420 0.004022 0.320257
-0.162765 -0.007614 0.303512
-0.159680 -0.009156 0.326083
-0.176997 -0.004188 -0.327255
-0.176906 -0.005182 0.320753
-0.161016 0.004014 -0.329783
0.163650 0.053263 0.214824
-0.191504 -0.011572 0.310703
-0.227045 -0.323439 -0.354821
-0.157475 -0.018656 0.319605
-0.017556 0.001037 -0.203570
0.405888 -0.248439 0.348204
-0.295829 -0.586740 0.351624
-0.171327 -0.012939 -0.335836
-0.253365 -0.606247 0.306934
0.355221 0.009863 -0.345884
-0.153343 0.000260 -0.314425
-0.172673 -0.005009 -0.328632
-0.162566 -0.004662 -0.338397
-0.259892 0.087428 -0.331579
-0.184390 0.442564 -0.202398
-0.246671 0.481737 -0.019965
-0.240742 0.070761 0.296167
0.399323 0.013131 0.107213
0.127393 0.056811 -0.052628
-0.158191 -0.010767 -0.330905
0.324577 -0.178765 0.338899
0.376616 -0.257070 -0.295335
-0.187859 0.294880 -0.224123
-0.163716 -0.013129 -0.322086
-0.080074 0.003391 -0.209741
-0.226241 -0.016723 0.038795
-0.201994 -0.010695 0.232115
-0.231953 -0.011940 -0.329379
0.371595 -0.213472 0.292970
-0.179979 -0.018599 0.325011
-0.157163 -0.017628 0.322877
0.151524 0.056751 0.047416
0.381016 -0.349550 -0.362761
-0.160089 -0.017355 -0.330671
0.001809 0.043248 0.018195
0.015345 0.033928 0.320842
-0.263825 0.666901 0.166647
-0.164691 -0.003986 -0.333080
-0.303354 -0.537199 0.341479
0.472232 -0.742206 0.326098
-0.158146 -0.004393 -0.329522
-0.259952 -0.384301 -0.366088
-0.177720 -0.016425 -0.336579
-0.166775 -0.003550 0.314006
-0.211434 0.269067 -0.287041
-0.185673 0.018581 0.328651
-0.158007 -0.009301 0.321896
-0.195100 -0.010486 0.316591
-0.148388 0.001110 -0.334768
-0.180498 -0.013863 0.335954
-0.193908 -0.002460 0.322394
-0.173258 -0.016526 -0.335149
-0.174414 -0.024145 0.324411
-0.243251 0.376483 0.309339
-0.166736 -0.012340 -0.336276
-0.161974 -0.014540 -0.337133
-0.173979 -0.005657 -0.338711
-0.160650 -0.002122 -0.318997
0.283751 0.066529 0.083425
-0.193247 0.242613 0.366639
-0.161043 -0.003685 -0.334434
0.318335 0.053732 0.249436
-0.173158 -0.010504 -0.339500
-0.239532 0.488189 -0.160209
-0.172699 -0.007362 0.319587
-0.266587 0.594361 -0.053024
-0.217170 0.688987 0.030170
-0.214059 -0.631323 -0.349230
-0.161418 -0.024502 0.322969
-0.246956 0.447931 0.171228
-0.144600 -0.014246 -0.333889
-0.150151 -0.008561 -0.317239
-0.156446 -0.008018 0.323095
-0.156144 -0.012737 -0.333407
-0.219013 0.702627 -0.209185
-0.162883 -0.008416 -0.332523
-0.192185 0.508027 0.057296
-0.183569 -0.000824 -0.332243
-0.191731 -0.002138 0.316374
-0.233768 -0.259992 0.305530
0.394017 0.038782 -0.154877
-0.173751 -0.014745 -0.330489
-0.167139 -0.017474 0.319864
-0.156058 -0.005054 -0.329145
-0.146638 -0.011777 0.323891
-0.191858 0.596208 -0.344126
0.096678 0.050311 -0.137147
0.365846 -0.059274 -0.332081
0.393256 -0.683080 0.316083
0.453791 -0.364152 -0.357351
-0.169494 0.383149 -0.288635
-0.167200 -0.005818 0.325311
-0.130126 0.011029 -0.322679
-0.170984 -0.006911 0.320328
-0.172369 -0.013289 -0.331798
-0.170047 -0.021892 -0.324773
-0.234833 0.060251 0.085416
0.205336 0.013281 0.197627
-0.035396 0.041867 -0.048336
-0.166892 -0.010514 -0.335011
0.155345 0.014874 -0.118458
-0.246154 -0.283574 -0.362096
-0.247149 -0.675514 0.338118
-0.171087 0.003828 0.320425
-0.141576 -0.026003 -0.324032
-0.196392 0.402716 -0.127358
-0.149710 -0.006550 -0.332074
0.381671 -0.647084 0.357476
0.120690 0.048496 0.282706
-0.159823 0.000619 -0.334182
-0.146681 -0.014666 -0.330230
-0.048296 -0.003926 -0.166347
-0.238603 0.415779 -0.326190
-0.186524 -0.014271 0.317468
-0.200959 -0.400562 -0.314976
-0.182131 -0.038691 0.334281
-0.103958 0.049666 0.364090
-0.159638 -0.003104 -0.325397
-0.193669 0.344046 -0.356259
-0.231719 0.755604 -0.305112
0.232624 0.032728 0.316533
0.443823 -0.047565 -0.302814
-0.186853 -0.294778 0.352874
-0.160098 -0.015155 0.321194
-0.164625 -0.020745 0.320061
-0.260693 -0.747181 0.317209
-0.170896 -0.014271 -0.335446
0.417320 -0.091790 0.276252
-0.168412 -0.012078 -0.334956
0.045748 0.052169 -0.360897
-0.090223 0.053410 0.139025
-0.170401 -0.013417 0.318654
-0.270784 0.585282 0.054915
-0.173455 -0.003482 0.325191
0.258497 0.039502 -0.149240
-0.128796 0.037375 -0.170770
-0.188703 -0.017172 0.313931
-0.151220 -0.009760 0.328804
-0.142772 -0.004345 -0.334197
-0.158151 -0.014085 0.317991
-0.165121 -0.031339 0.318040
-0.173408 -0.011730 -0.329826
-0.184065 0.000817 0.317426
0.365143 0.002059 0.301147
-0.194755 0.015732 -0.349118
0.399990 -0.086944 0.303020
-0.146415 -0.005112 -0.326397
-0.308359 -0.458055 -0.359454
-0.142126 -0.014501 0.322507
0.012416 0.023616 0.083254
-0.173603 -0.006728 -0.335602
-0.175670 -0.014842 0.319170
-0.182735 -0.012105 0.318108
-0.180909 -0.012251 0.323980
-0.237762 -0.341321 -0.299862
-0.163845 -0.005397 -0.324278
0.038844 0.002569 -0.321338
-0.190636 -0.012554 -0.360574
-0.223751 0.016715 -0.037875
-0.179355 -0.009434 0.322148
-0.178027 -0.003115 0.329998
-0.139775 0.009621 -0.316195
0.120705 0.052652 0.145095
0.428588 -0.145133 -0.284606
-0.148418 -0.014583 0.326545
-0.255127 0.590826 0.193553
0.421231 -0.733364 -0.364828
0.136685 -0.006443 -0.352660
-0.252276 -0.466757 0.382400
-0.167816 -0.011440 -0.336889
0.152558 0.022442 -0.150036
0.167949 0.041054 -0.000453
-0.177812 -0.018740 -0.326795
0.364003 -0.145791 -0.338181
0.454517 -0.456785 -0.342383
0.053034 -0.002093 -0.338331
-0.174830 -0.018156 -0.332463
-0.177495 -0.007014 0.322907
-0.173297 0.006364 -0.329172
-0.169059 -0.003447 -0.335962
0.030373 0.004339 -0.286411
-0.171297 -0.025231 0.318518
-0.175831 -0.115391 -0.285889
-0.161203 -0.016233 0.320936
-0.141566 -0.026451 -0.329717
-0.176742 -0.003654 0.312418
-0.187499 -0.013041 0.318400
-0.180895 -0.010512 0.324171
-0.202773 -0.145943 -0.273581
-0.212620 0.508520 0.324396
-0.168194 -0.002171 -0.324413
-0.184273 -0.009230 -0.324036
0.233068 -0.004651 -0.055009
0.460168 -0.545512 -0.311348
-0.193107 -0.013594 -0.329808
-0.259194 0.737105 -0.210492
0.307689 -0.060806 -0.331586
-0.164416 -0.010907 -0.324324
-0.189721 0.409523 0.349589
-0.171849 -0.013291 -0.327104
-0.188849 0.007725 -0.326426
-0.168376 -0.011673 -0.314521
-0.169243 -0.004085 0.327289
-0.205298 0.024650 0.155984
-0.135680 -0.744622 0.330871
-0.185612 0.013789 0.080296
-0.169940 -0.005843 -0.325168
0.106986 0.036747 0.026953
-0.048744 0.044713 0.310144
-0.158211 -0.020705 0.320399
-0.153446 -0.004162 -0.337914
-0.179867 -0.008074 -0.154070
-0.166448 -0.018968 0.320801
-0.163361 -0.017425 -0.333982
-0.114663 -0.012710 -0.103774
-0.164400 0.008715 0.327251
0.373292 -0.116684 0.293242
-0.166018 -0.013483 -0.324700
-0.102306 0.054234 -0.255635
-0.153532 -0.001451 0.327157
-0.155296 -0.020950 0.321919
-0.194143 0.464567 -0.043194
-0.167122 -0.024217 -0.337490
-0.207898 0.090476 -0.289764
0.386030 -0.133480 0.344314
-0.244306 -0.002811 -0.062303
0.261844 0.055294 -0.334617
-0.160229 0.003905 0.321988
-0.175291 -0.014865 0.324320
-0.148542 -0.000095 -0.321518
-0.133639 -0.019809 -0.313563
-0.170906 -0.023286 -0.333613
-0.160412 -0.015289 -0.338715
-0.069285 0.036472 -0.077522
0.068953 0.060690 -0.317497
-0.255325 0.656209 -0.197403
-0.098997 -0.010560 0.080377
-0.169301 -0.010880 -0.330544
-0.132558 -0.032386 0.267964
-0.159792 -0.022660 0.326333
-0.171505 0.002240 -0.339528
-0.165149 -0.008431 -0.325640
-0.214016 -0.054630 -0.242935
-0.161381 -0.014629 -0.337103
-0.218607 -0.057229 -0.270000
-0.168153 -0.013376 -0.326802
-0.274218 -0.344825 0.361428
-0.173095 -0.029905 -0.331007
-0.178756 -0.013216 0.322191
0.400583 -0.329661 -0.295448
-0.159788 0.010540 0.324711
0.294296 -0.012336 -0.067642
-0.241659 0.325875 -0.060308
-0.038979 0.043296 -0.181556
-0.179958 -0.000103 0.316716
-0.174925 -0.023033 0.320767
-0.170180 -0.017004 0.320719
0.121534 0.037439 0.075480
0.372901 -0.493832 0.266749
-0.188754 0.001305 0.319607
-0.179030 -0.002385 -0.342605
-0.176152 -0.010553 0.322154
-0.232702 -0.017162 0.135537
-0.199613 -0.132408 0.350722
-0.189128 -0.003123 0.315004
-0.170004 -0.000280 -0.077080
0.400644 -0.008105 -0.327615
-0.174931 -0.006539 0.320798
-0.062785 0.053957 -0.304392
0.205580 0.050924 0.317702
-0.015725 -0.028194 -0.340738
-0.171631 -0.009519 0.319607
0.450248 -0.385298 0.344379
-0.184508 -0.000312 -0.328761
0.394336 0.008462 0.336048
-0.167213 -0.013082 -0.333026
-0.177424 -0.010425 -0.212711
-0.239657 -0.069567 0.209904
-0.188097 -0.009877 0.322530
-0.188565 0.090752 0.311545
-0.174294 -0.009375 -0.329353
-0.142139 -0.001475 -0.332776
0.048235 0.002674 0.164840
-0.045145 0.061874 0.060023
-0.243013 -0.306870 -0.293836
-0.169096 -0.014463 0.322860
-0.179461 -0.000935 -0.321969
-0.067362 0.028574 0.174481
-0.163829 -0.021399 -0.330247
-0.165748 0.005600 -0.327534
-0.175891 0.351616 0.231856
-0.168064 -0.229968 -0.333390
-0.145460 -0.019651 0.339063
-0.245626 -0.076918 0.342646
-0.158338 -0.015281 0.321963
-0.249379 -0.013351 0.303113
-0.182116 -0.015942 0.317000
0.099171 -0.010563 0.084702
-0.185970 0.002247 -0.345221
-0.177144 -0.014826 0.319879
-0.161299 -0.006944 0.331402
-0.201707 0.029619 0.131859
-0.132619 0.027647 0.345231
-0.160350 -0.009725 -0.334139
-0.220622 0.377224 -0.341059
-0.161183 -0.011030 0.326007
-0.167611 -0.004133 -0.328948
-0.158808 -0.004802 -0.336117
0.445336 -0.152069 0.284245
-0.162984 -0.016404 0.324504
-0.204837 -0.006715 0.339505
-0.190525 -0.013521 0.319958
-0.153580 -0.008985 -0.325704
-0.180839 -0.002796 -0.328780
-0.233470 0.114202 -0.310418
-0.155310 -0.011494 -0.327356
-0.173746 -0.016152 -0.334616
-0.160626 -0.013603 -0.322241
0.423065 -0.001536 -0.035657
-0.265779 -0.408512 0.314444
-0.161479 0.000135 0.330227
-0.174160 -0.005137 0.325885
-0.165511 -0.005889 -0.330518
-0.159743 -0.016483 -0.334141
-0.170410 -0.006812 -0.330119
-0.142783 -0.016034 -0.319423
-0.172387 -0.017861 0.321313
-0.176307 -0.008989 0.319763
-0.189391 -0.016246 -0.031430
-0.161105 -0.012320 -0.325667
-0.142769 -0.008661 0.265542
-0.180799 -0.023363 0.318221
-0.162911 -0.010993 -0.335313
-0.169174 -0.024039 -0.333859
-0.167718 -0.017775 -0.333992
-0.178308 -0.008321 0.312893
0.352231 -0.317510 -0.330950
-0.244831 0.637123 0.152126
-0.236992 0.049856 0.231893
-0.172825 0.000386 -0.325537
-0.235020 0.187053 0.051285
-0.173272 0.004469 -0.317843
0.224144 0.037825 -0.110317
0.090928 -0.017290 -0.329491
-0.163200 -0.014578 -0.333529
-0.178231 -0.001941 -0.328039
0.367500 -0.011370 0.159883
-0.168388 -0.008186 0.306021
0.351477 0.006550 -0.219100
-0.150962 -0.024263 0.330996
-0.157273 -0.007415 -0.096695
0.444664 0.035477 0.170042
-0.194162 -0.126131 0.277750
-0.178538 -0.004566 0.316847
-0.274305 -0.678510 -0.326257
-0.168170 0.250332 -0.353626
0.196061 0.021044 -0.038476
-0.229649 0.518355 -0.291880
-0.065784 0.020255 -0.331976
0.084070 -0.004550 0.002401
-0.163235 -0.012414 -0.333887
-0.113806 -0.018777 -0.343800
-0.218405 -0.050788 0.294533
-0.144511 -0.016466 -0.334263
-0.063815 0.040947 -0.283308
-0.192858 0.153494 0.235194
-0.142730 -0.008938 0.338837
-0.150106 0.029975 0.299054
-0.155483 -0.001504 -0.325338
0.409649 -0.035131 0.265916
-0.158521 0.021932 0.323377
-0.157095 -0.082600 -0.292190
-0.177109 -0.015195 -0.337744
0.387240 -0.000869 0.166279
-0.344936 -0.670705 0.339106
-0.242043 0.299580 -0.202879
-0.192098 -0.203903 0.289059
-0.217122 0.016438 -0.274051
-0.258585 -0.097742 -0.299746
0.321326 0.008812 0.057239
-0.099779 0.025488 -0.330970
-0.248866 0.038748 -0.063889
-0.045128 0.030760 -0.138941
-0.325121 -0.725826 0.379215
0.092459 0.058439 0.219686
-0.220420 0.031425 0.356206
-0.167632 -0.007828 -0.328602
-0.111503 -0.003568 0.298147
-0.133366 -0.000570 0.325545
-0.023651 0.043885 -0.237750
-0.178194 -0.004347 -0.331164
0.182487 0.033128 -0.080524
-0.165160 0.003558 -0.321673
-0.167664 -0.012951 0.321819
-0.150658 -0.010014 0.315407
-0.149035 0.001232 -0.333262
-0.014437 0.006437 0.339463
-0.124347 -0.010056 -0.321978
-0.179125 -0.006237 0.318042
-0.153101 -0.012123 0.327652
-0.242499 0.157376 -0.284192
0.133103 0.115623 -0.328904
0.122704 0.043022 -0.174154
-0.232359 -0.039109 -0.134112
0.248770 0.058982 0.276405
0.143214 0.001346 0.047146
-0.141881 -0.005284 -0.329014
-0.198320 -0.177459 0.366005
-0.191663 0.182909 0.345322
-0.069671 -0.017259 0.308592
-0.239198 0.533615 -0.160898
-0.169941 -0.006098 -0.331875
-0.176571 -0.019726 0.322253
-0.188875 -0.001327 0.333296
0.022608 0.008636 -0.101441
-0.185733 -0.026343 0.323616
-0.251745 0.643674 -0.047092
0.269582 0.034081 0.304845
-0.167612 -0.016295 0.322023
-0.150028 0.030879 0.316053
0.165604 0.029508 0.271081
0.115174 0.052135 -0.027741
0.422023 -0.041506 0.244176
-0.169909 -0.000630 -0.324073
0.027428 -0.000095 0.287165
-0.145091 0.039269 -0.364758
-0.189682 0.271459 0.290084
0.274779 0.015644 0.259350
-0.168730 -0.009423 0.323641
-0.158391 -0.014140 0.317364
0.330062 0.093163 0.312495
-0.248178 0.097809 -0.030183
-0.166812 -0.018575 -0.334382
0.274323 0.039346 0.121676
0.112144 -0.000235 0.154839
-0.156526 -0.010410 -0.327909
-0.041108 0.036741 0.158150
-0.187600 0.141946 -0.352449
-0.229869 -0.006699 -0.287711
0.387555 -0.563833 -0.284092
0.088829 -0.009043 -0.132729
0.236486 0.058041 -0.271327
-0.145281 -0.007290 -0.326861
-0.213425 0.008083 0.208347
-0.168626 -0.002704 0.329118
0.055831 0.007149 0.206101
-0.244157 0.238547 0.133755
-0.106034 0.029992 -0.015376
0.349417 -0.057480 0.333143
-0.167747 -0.011933 -0.335129
-0.160737 -0.020801 0.322258
-0.158918 -0.012464 0.329585
-0.161229 -0.016220 -0.334331
0.071170 -0.012665 -0.165699
-0.151762 -0.010690 -0.330781
-0.244624 0.014611 -0.335279
-0.160133 -0.018418 0.332560
-0.068439 0.004772 -0.354408
-0.182264 -0.002906 0.315894
-0.133647 -0.033110 -0.322564
-0.169423 -0.019888 -0.278709
-0.204258 0.516248 0.348067
-0.211580 0.010384 0.314575
0.405098 -0.031253 -0.345798
-0.183394 -0.012554 0.315164
-0.242907 -0.460391 -0.384711
-0.163892 -0.013838 0.318581
-0.176885 -0.012916 -0.329740
-0.204549 0.670930 0.319941
-0.252875 0.054462 0.359595
-0.161892 0.005199 -0.313515
-0.165650 -0.021327 0.317650
-0.162121 -0.015601 -0.339275
-0.155026 -0.015640 0.325186
-0.118691 0.046073 0.246019
-0.174339 -0.006275 -0.334895
-0.158800 -0.021828 -0.340259
-0.257000 0.002861 -0.218814
-0.177361 -0.015452 -0.333318
-0.107272 -0.006337 0.267226
-0.166723 -0.002708 -0.327312
0.397076 -0.010205 0.066868
-0.180804 -0.012744 0.313710
-0.189083 0.114096 0.036085
-0.166267 -0.003083 -0.332680
-0.168513 -0.014211 -0.330768
-0.149722 -0.012034 -0.327797
-0.244445 0.014617 0.163524
-0.163337 0.515193 -0.369015
-0.187325 -0.006367 0.320078
-0.258856 -0.471404 -0.304382
0.016074 0.002414 -0.232192
-0.243238 0.339116 0.267005
0.297126 0.063423 -0.091825
-0.226344 0.031909 -0.288159
0.170687 0.003262 -0.327500
0.428482 -0.154841 0.346340
-0.179803 -0.011820 -0.318664
0.202493 0.058587 -0.097165
-0.172500 -0.000419 0.329854
-0.166934 -0.021060 -0.336338
-0.169338 -0.010789 -0.328009
-0.080001 0.032613 -0.335303
-0.150196 -0.008480 0.221493
-0.230267 0.584959 -0.063059
0.362687 0.010280 0.237343
-0.167819 -0.000287 0.329128
-0.175575 -0.024496 0.312899
0.430892 -0.695032 0.336007
0.160972 0.046115 0.308960
-0.170864 -0.003761 -0.328027
-0.176514 -0.005757 0.319993
-0.170548 -0.018833 0.325531
-0.163231 -0.014523 -0.322700
0.190808 -0.006082 -0.351618
-0.172411 -0.020769 0.325814
0.193584 0.031608 0.250253
-0.222644 0.438556 -0.356525
-0.240478 -0.061971 0.016323
-0.249708 0.568652 0.289084
-0.174427 -0.015053 0.324238
-0.181203 -0.023079 0.318510
-0.179101 -0.016710 0.319488
-0.263115 0.420905 -0.041280
0.430757 0.043102 0.248342
-0.135525 -0.746586 -0.334768
0.001871 0.042173 -0.339915
-0.209826 0.647182 -0.217353
-0.194440 -0.442877 0.356845
-0.151986 -0.016549 -0.328139
-0.138587 -0.017856 -0.331585
0.237274 0.002953 0.220464
-0.048779 0.055250 0.336958
-0.144068 -0.014614 -0.037441
-0.272406 0.699903 -0.056498
-0.250522 0.672318 -0.329509
-0.149027 0.018491 0.209262
-0.251721 -0.816548 -0.331213
0.425770 0.050504 0.037809
-0.180199 -0.001318 0.321696
0.143893 0.055882 -0.341578
-0.193993 -0.007533 0.302612
-0.155493 -0.017920 0.319020
0.439194 -0.635264 -0.306829
-0.144528 0.005006 0.317638
-0.162649 -0.010177 -0.325906
-0.167210 -0.015121 -0.322736
0.369093 0.060145 0.010999
-0.192126 -0.016098 0.315902
-0.139768 -0.117199 0.361344
0.372097 -0.716625 0.365900
-0.140288 0.003747 -0.317915
-0.203879 0.558193 0.320483
-0.257737 0.602278 -0.237819
0.351621 -0.356776 0.350586
0.449636 -0.312421 -0.304302
0.087269 0.056803 -0.267537
-0.005055 0.066778 -0.119815
-0.196851 -0.012650 -0.331564
-0.171089 -0.032765 0.322744
0.369724 -0.040135 -0.286158
0.164611 0.043323 0.164904
0.240050 -0.000353 0.095536
-0.188734 -0.021477 0.322707
-0.169474 0.003961 -0.312429
-0.174144 -0.016891 0.317223
-0.123153 0.027267 -0.204307
-0.142556 0.037173 -0.260360
0.308889 0.023018 -0.178072
0.058638 0.008924 0.330610
0.383473 -0.612219 -0.355063
-0.171855 -0.066900 -0.334145
-0.182109 0.471307 -0.284967
0.436136 0.035511 -0.250905
-0.267176 -0.318714 0.318717
-0.168644 -0.006181 0.323587
-0.171809 -0.011711 0.328157
-0.212149 0.039949 -0.241097
-0.188518 -0.015196 0.315648
-0.159429 -0.011000 -0.327764
0.311371 0.012877 -0.340062
0.420179 -0.268404 -0.341820
-0.157100 0.047187 -0.132420
-0.158880 -0.017101 -0.067249
-0.176890 -0.023882 0.331872
-0.172436 -0.003893 -0.337203
-0.165215 -0.018434 0.322108
-0.180739 -0.007718 0.321702
-0.170403 -0.011272 0.319759
0.039610 0.048275 0.180162
-0.156461 -0.004264 -0.328217
0.229170 0.043077 -0.202143
-0.184791 -0.010211 0.311913
0.300815 -0.027293 0.323904
0.026208 -0.021116 0.317474
-0.176165 -0.016815 -0.334741
-0.161806 -0.009481 -0.326076
-0.216709 0.456167 -0.326618
-0.217499 0.699614 0.108376
-0.218618 0.509933 -0.338347
-0.114738 0.055841 -0.123027
-0.176086 -0.123765 -0.342802
-0.169004 0.002224 -0.331666
-0.205710 0.309079 0.348708
-0.189718 -0.031374 0.317735
-0.136409 -0.005741 -0.327446
0.378356 -0.027423 -0.346317
-0.233044 -0.014592 -0.003304
-0.174591 -0.006084 -0.328161
0.397007 0.010601 0.254440
-0.168354 -0.010526 -0.336558
0.244028 -0.028005 0.325345
-0.167951 -0.000980 -0.328050
-0.171867 -0.013093 -0.337960
-0.164021 -0.018853 0.318299
-0.188605 -0.018370 0.316782
-0.162575 -0.018888 -0.335078
0.068708 0.051067 -0.083278
-0.084268 -0.005310 0.339074
-0.195031 0.558083 0.184204
0.252713 0.048468 0.342904
-0.193067 -0.019936 0.318852
-0.179524 -0.008166 -0.332274
-0.216883 0.199008 0.271720
-0.226522 0.575355 0.068682
0.000375 0.007378 -0.323902
0.342959 0.027806 -0.329821
-0.147669 -0.009191 0.325275
0.322476 0.057463 -0.020221
-0.227473 -0.146151 -0.287301
-0.210740 0.574424 -0.211039
-0.249028 0.007999 -0.141481
-0.200251 0.020675 -0.012347
0.357875 0.054723 0.197854
-0.252494 -0.010049 0.340627
0.468502 -0.728733 -0.324773
-0.153058 -0.009311 0.324943
-0.177168 0.010740 0.318892
-0.200326 -0.020621 0.278352
-0.061095 -0.000917 -0.325834
-0.190815 -0.015376 0.324150
-0.163331 -0.003295 0.328551
-0.165075 -0.010405 -0.332177
-0.192257 0.010983 -0.333015
-0.236708 0.134460 -0.342238
-0.243251 0.239854 -0.105908
-0.185384 -0.012961 0.320584
0.203950 0.007095 -0.229342
-0.013222 0.061569 -0.221389
0.429256 -0.773637 0.370935
0.414230 0.040770 -0.289934
-0.162207 -0.051361 -0.308432
-0.154893 -0.001155 -0.334625
-0.159386 -0.001199 -0.220901
-0.196228 0.326341 0.288257
0.358854 0.010573 -0.249203
0.072852 0.039518 0.155431
-0.105125 -0.027594 0.344727
-0.148404 -0.011684 -0.330628
-0.166604 -0.007020 -0.332424
-0.295271 -0.796377 0.352663
-0.171699 -0.013207 -0.332836
-0.153852 0.000952 0.339518
-0.184808 -0.009181 0.323953
-0.163796 0.002242 0.324679
0.421137 -0.023247 0.308851
-0.180516 -0.002674 -0.336833
-0.240775 0.057932 0.158757
-0.170769 -0.015120 0.317254
-0.160585 -0.016398 0.316563
-0.189666 -0.202662 -0.346246
-0.150511 -0.018808 0.323761
-0.167014 -0.014604 -0.321306
-0.190409 -0.012689 -0.333907
-0.153341 -0.020356 -0.330336
-0.256010 0.579134 0.141212
-0.172668 -0.014051 -0.334825
0.372934 -0.501919 0.318196
0.000310 0.013355 -0.195695
-0.162919 -0.009189 -0.336779
0.187884 0.012605 -0.286962
-0.246499 0.077276 0.032249
-0.244545 0.439607 0.233092
-0.146012 -0.014278 -0.333458
-0.161724 -0.010212 -0.325779
-0.215987 -0.093160 0.304531
0.045288 0.024690 -0.300242
-0.246924 0.404688 0.348159
-0.168109 -0.011427 -0.333631
-0.264274 0.638955 0.104240
0.410359 -0.070583 -0.329158
0.196268 0.050262 0.142710
0.098837 0.047863 0.318842
-0.138984 -0.007652 -0.333355
-0.169281 0.001432 -0.331063
-0.120758 0.030050 0.050969
-0.252873 0.645151 0.236046
-0.203750 -0.173458 0.296167
-0.142468 0.014181 -0.317522
-0.168993 -0.009696 -0.320741
-0.164322 -0.024035 -0.328730
-0.162392 -0.001335 0.322976
-0.178075 -0.010941 0.322524
-0.144577 0.003600 -0.318463
-0.176236 -0.014380 0.314952
-0.091774 -0.018860 0.310165
-0.159460 -0.001376 -0.328852
-0.188110 -0.000908 -0.318929
-0.190576 -0.007842 0.317697
-0.172943 -0.014285 0.314127
-0.254016 0.527684 0.343586
-0.152699 -0.007228 -0.330134
-0.286742 -0.443794 0.366674
-0.223076 -0.140048 -0.351208
-0.166779 -0.006001 -0.336597
-0.169601 -0.023090 0.326052
-0.221806 -0.029127 -0.326840
-0.179743 -0.011866 0.320200
-0.172087 -0.006033 0.316102
0.102802 0.019043 0.351698
-0.174671 -0.023426 -0.329860
-0.161158 -0.012576 -0.331339
-0.166838 -0.007599 -0.330720
-0.189415 -0.022859 0.319041
-0.191467 0.051116 0.040474
-0.238735 0.549441 0.244353
-0.249325 -0.037605 -0.319743
-0.137947 -0.015148 -0.314214
-0.229046 -0.125467 -0.298879
-0.164905 -0.005691 -0.316725
0.041984 0.058008 0.113819
-0.148714 -0.014200 -0.318565
-0.180595 0.001721 0.318193
0.416471 -0.790465 -0.358463
-0.168811 -0.004753 -0.325076
-0.175390 -0.022567 -0.330573
-0.182728 -0.004076 0.315947
-0.028997 0.040150 -0.328561
-0.162006 -0.000551 -0.320843
-0.154089 -0.016596 -0.327512
-0.176258 0.079932 0.357489
0.045042 -0.015193 -0.070565
-0.163933 -0.005055 -0.329866
0.025590 0.036575 -0.032716
-0.199538 0.320068 0.160994
0.093010 0.115936 0.312322
-0.268786 0.001773 0.046919
-0.145136 -0.019024 -0.300884
-0.149056 -0.016741 -0.325058
0.216989 0.027411 0.367472
0.446457 0.015911 -0.119674
-0.178659 -0.015209 -0.334314
-0.094213 0.039673 0.337446
-0.126657 0.038229 -0.303308
-0.173032 -0.011131 0.326089
-0.180897 -0.005987 0.318933
-0.197452 0.262545 -0.308683
-0.167835 -0.007094 0.320219
-0.152541 -0.013453 0.317915
0.386500 -0.746113 -0.317425
-0.254206 0.560380 -0.282776
-0.190281 0.277847 -0.032284
-0.179044 -0.004354 -0.328478
-0.162171 -0.012807 -0.334325
-0.081637 0.022815 -0.267417
-0.020131 0.007870 0.344726
-0.138103 0.008794 0.323708
-0.169248 -0.016859 -0.331288
0.211282 0.073822 -0.024552
-0.248432 0.454867 -0.228108
0.089905 0.001542 0.045213
0.022841 0.041518 -0.277258
-0.243774 -0.693381 -0.298756
-0.158570 -0.031062 0.318883
-0.198531 -0.017412 0.321680
-0.110615 0.026688 -0.081382
-0.175219 -0.020561 0.329696
-0.162918 -0.010324 -0.334152
0.330617 0.007721 0.174132
-0.178927 0.005356 -0.327385
-0.076525 0.024524 0.074792
-0.195263 0.543966 -0.311016
-0.165106 -0.000615 0.320564
0.301584 0.026457 -0.216473
0.049328 0.057706 0.015597
-0.232747 0.106822 0.350220
-0.171729 -0.016439 0.324233
-0.193693 0.575465 -0.110872
-0.172785 -0.004021 -0.348878
0.189719 0.033663 0.061384
-0.154492 -0.013188 -0.331946
-0.238332 0.196924 -0.032569
-0.184111 -0.014673 0.328464
-0.196865 -0.020556 0.318067
-0.159907 -0.022587 0.320222
-0.173301 -0.005204 0.321061
-0.245829 0.219364 -0.163511
-0.177378 -0.006494 -0.329344
-0.188978 -0.193339 0.336143
-0.179382 -0.013484 -0.324280
0.283840 0.007893 -0.349236
-0.192129 0.555450 -0.033597
-0.214235 -0.399714 -0.357331
-0.172160 -0.001361 -0.328676
0.041597 0.010557 0.112724
-0.174472 0.035530 0.341223
0.231481 0.036058 0.137126
0.408047 -0.471364 -0.305591
-0.158165 -0.013070 -0.330931
-0.150705 -0.011052 0.322906
-0.244564 -0.247123 -0.362772
-0.238944 0.140347 -0.216526
-0.163974 -0.022804 0.327790
-0.214154 0.336850 0.352067
-0.195573 0.405526 -0.251099
-0.123945 0.038728 -0.319716
-0.169527 -0.008236 -0.335984
-0.237728 -0.552616 0.366960
-0.174725 -0.012551 0.313264
0.362563 0.020589 -0.029437
-0.164181 0.000354 -0.328084
0.010593 0.006134 0.308202
-0.175301 -0.015601 -0.334436
-0.189248 0.482349 -0.145659
-0.173945 -0.008175 -0.326782
-0.168655 -0.015249 -0.334089
0.023409 -0.018541 -0.334414
-0.196827 -0.019003 0.311731
-0.107507 0.022932 -0.024532
-0.168799 -0.008647 -0.332337
-0.156213 -0.001045 -0.328040
-0.215884 -0.023511 0.315924
0.454456 -0.225710 -0.342419
-0.023765 0.024871 0.247431
-0.172229 -0.011774 0.324982
-0.169890 -0.017222 0.330347
-0.155981 0.049055 -0.329524
-0.244488 0.465741 0.282538
-0.151472 -0.013980 -0.329255
-0.144020 -0.024875 -0.314074
-0.193659 -0.070287 0.327577
-0.161993 -0.004332 0.321621
0.012448 0.045754 0.138906
-0.170676 -0.010373 0.320483
0.357088 0.081319 -0.324421
0.031658 0.004169 0.241910
0.329825 0.046046 0.153475
0.366155 0.001797 0.036738
-0.165890 -0.011371 -0.323951
0.396285 -0.098529 -0.317832
-0.134583 -0.006919 -0.330179
-0.168590 -0.018677 -0.330699
-0.149540 -0.009260 0.325346
-0.166605 -0.016690 -0.330353
-0.185163 0.000673 -0.319968
-0.151170 -0.008999 0.327950
0.410422 0.027032 -0.226499
0.057452 -0.009837 0.318953
-0.164779 -0.015826 -0.336735
-0.200289 0.512419 0.124510
-0.176257 0.001322 0.325048
-0.143222 0.049657 -0.312339
0.317356 0.018036 -0.323690
-0.095903 0.046638 0.321715
-0.164002 0.000217 0.318999
-0.174009 -0.007349 -0.334835
-0.170821 -0.014730 -0.324387
-0.182086 -0.007664 -0.332554
-0.169405 -0.014446 -0.335925
-0.168541 -0.018274 0.309700
-0.153578 -0.011850 0.323689
-0.186044 0.002536 0.316940
-0.148084 -0.003535 -0.338165
-0.218586 0.633906 0.083804
-0.235843 0.392321 0.191594
-0.159182 -0.014148 0.323303
-0.174744 0.446316 0.241395
-0.145804 0.025020 -0.082024
-0.250625 -0.224648 -0.324313
-0.209362 -0.062702 0.285398
-0.177576 -0.013241 -0.329103
0.414038 0.045525 -0.109815
-0.136347 -0.016576 -0.330065
-0.063697 0.001911 -0.215029
-0.149371 0.008258 -0.330186
0.291911 0.044821 0.203051
-0.194513 0.374535 -0.053971
0.132906 -0.003729 0.341442
0.380617 0.057946 0.158855
-0.241932 0.325434 -0.345472
-0.113280 0.351685 0.381256
-0.166949 -0.000873 -0.338908
-0.160387 -0.011750 -0.330917
-0.046686 0.009081 0.180242
-0.168864 -0.014673 0.323154
-0.171171 0.002691 -0.323875
-0.094500 0.029308 0.295195
-0.208144 -0.107031 -0.344917
0.451176 0.003490 -0.325156
0.377756 0.014051 -0.111524
-0.223864 -0.019720 -0.255949
-0.222346 -0.497707 -0.357889
-0.179722 -0.021885 0.322360
-0.203354 0.032816 -0.140328
-0.178210 -0.012325 0.319714
-0.164029 -0.004068 -0.319993
-0.177895 -0.014826 0.321743
-0.177314 -0.000109 -0.327114
-0.205435 -0.010760 0.040413
-0.165011 0.003209 -0.321137
-0.169259 0.001814 -0.331562
-0.163913 -0.013368 0.315042
0.030187 0.039555 -0.116420
-0.193315 -0.096455 0.335010
0.366058 -0.000568 -0.066772
-0.245786 0.278039 -0.321806
-0.042370 -0.003653 0.345428
-0.159526 0.002113 -0.331168
0.368205 -0.304730 0.293322
-0.245804 0.562937 0.010595
-0.193017 -0.002329 0.113860
-0.226732 0.176322 0.202824
-0.155049 0.025681 0.167867
0.200732 -0.007910 0.154638
-0.166270 -0.009978 -0.323762
-0.158004 -0.009160 -0.336468
-0.252773 0.567657 -0.121384
-0.104168 -0.025395 0.175565
-0.137295 -0.045707 -0.239184
-0.191077 -0.007732 0.322650
-0.217247 -0.764456 0.361290
-0.057815 0.050483 0.117140
-0.150526 0.008483 0.321796
-0.200458 0.021877 -0.284132
-0.158810 -0.008787 -0.335595
-0.177377 -0.017494 0.320562
-0.172490 0.009155 -0.324372
-0.171943 -0.012514 0.320471
-0.154080 -0.012158 -0.326731
-0.168160 -0.002487 -0.317915
-0.168803 -0.014368 -0.336541
-0.163579 -0.010660 -0.329863
-0.237052 0.123764 -0.121461
-0.187379 0.149198 -0.165763
0.286275 -0.016097 -0.267411
-0.177104 -0.009250 0.316158
-0.133782 -0.015699 -0.336458
-0.172691 -0.017055 0.322504
-0.246955 0.478391 0.092520
-0.165255 -0.012091 -0.326374
-0.168114 0.050180 0.312578
-0.165872 -0.008774 -0.334789
-0.167095 0.002436 0.323334
-0.194536 0.451321 0.151710
0.061778 0.035900 -0.316810
0.393166 -0.086470 0.349536
-0.233106 -0.016251 0.224983
-0.164009 -0.016472 -0.336478
-0.234109 0.762003 0.300116
-0.249311 0.333563 0.126474
0.430716 -0.672116 -0.354084
-0.157056 -0.007307 -0.333020
-0.163512 -0.005945 0.325749
0.426338 -0.774129 -0.290590
-0.172538 -0.012473 -0.331685
0.418418 -0.044822 0.336969
0.326705 -0.030818 -0.272369
0.013555 0.012403 -0.158163
-0.194933 -0.014213 0.314786
0.414683 -0.427262 0.299820
-0.220207 0.018764 0.274515
-0.173738 -0.018855 -0.336966
-0.251223 0.531495 -0.320103
-0.163401 -0.017680 0.326751
-0.200481 0.235550 -0.173984
-0.187330 0.629016 0.029946
-0.155897 -0.005987 -0.318739
0.227793 -0.030601 -0.333453
-0.193697 0.117423 -0.257650
-0.176361 0.002190 -0.326972
0.365088 0.024544 0.355734
-0.172740 -0.009365 -0.326174
-0.225149 -0.345759 0.294734
-0.157693 -0.002804 0.322075
0.436079 -0.002543 0.024252
-0.182684 -0.014903 -0.336198
-0.173216 -0.016359 -0.332491
-0.161103 -0.028526 -0.323067
-0.172622 -0.004828 0.325186
0.399180 -0.048708 -0.271860
-0.166989 -0.023322 -0.323711
0.282814 0.023538 0.343412
0.050522 0.055708 0.267485
0.309816 0.041419 -0.132846
-0.162722 -0.040057 0.198936
-0.012700 -0.017743 -0.056832
-0.175475 -0.008700 0.319742
0.351874 -0.086552 0.323511
0.439831 0.047826 0.107977
-0.172492 -0.001355 -0.332126
-0.161886 -0.008280 -0.331243
-0.135809 -0.030177 0.337122
0.278709 0.031377 0.229529
-0.178078 0.027977 0.091631
-0.246656 0.385456 -0.243996
-0.172430 -0.014402 0.321969
0.207306 0.021963 -0.140302
0.217969 -0.013136 -0.176587
-0.142741 -0.008657 0.328624
0.321877 0.026133 0.325857
-0.185249 -0.011448 -0.333219
-0.196970 0.447886 0.345978
-0.161824 -0.010224 -0.330675
-0.170683 -0.008164 -0.331121
-0.193231 -0.024992 0.327476
0.155346 0.000776 0.348531
-0.158089 -0.016364 -0.322958
0.335231 0.033161 0.000832
-0.254993 0.481794 -0.326897
-0.160779 -0.006805 -0.325247
0.152140 -0.034949 -0.310978
-0.176525 -0.019397 0.324395
-0.147555 -0.010752 0.335571
-0.148383 0.002577 -0.336704
-0.219912 0.065865 -0.111147
0.243572 0.008794 0.061054
-0.188124 -0.020164 0.237621
-0.194400 0.023966 -0.222543
-0.163782 -0.009617 -0.323071
-0.167168 -0.013638 -0.331210
-0.233035 -0.321715 0.360731
0.261458 -0.011392 -0.002401
-0.165586 -0.017796 -0.335131
-0.172065 -0.001859 -0.323799
-0.195336 -0.015693 -0.334690
-0.166173 0.046735 0.121298
-0.134212 -0.030215 0.319575
-0.251322 0.430679 0.041704
-0.140141 -0.016245 -0.339722
0.453236 -0.674980 0.348072
-0.159251 -0.009673 -0.341040
-0.163825 0.014176 0.317720
-0.155353 -0.015063 -0.325839
-0.165574 -0.137156 -0.341241
-0.164781 0.014557 -0.225198
-0.187456 0.627958 0.258459
-0.165363 -0.007764 0.334734
-0.174057 -0.006855 -0.329212
0.296414 0.018834 -0.272907
-0.246444 0.472885 0.345820
-0.171739 0.002234 -0.329762
-0.163477 -0.010856 -0.338496
-0.160282 -0.019586 0.327998
0.360382 -0.501063 -0.346057
-0.249877 0.514345 0.034532
-0.199294 0.569855 0.268261
-0.166762 -0.005386 -0.317041
-0.153564 -0.000776 -0.326272
0.371665 0.005723 -0.303881
0.174018 0.010379 -0.346230
-0.177840 -0.001610 0.314545
-0.064066 0.018532 0.334545
-0.160107 -0.002063 -0.327550
-0.165607 -0.004338 -0.328308
-0.138966 0.000980 -0.323987
-0.246186 0.770085 0.023746
-0.166977 -0.007253 -0.333441
-0.180782 0.004469 -0.329759
-0.234931 0.292209 0.207652
-0.155513 -0.008311 -0.321337
-0.166581 -0.012585 -0.334756
-0.064437 -0.016194 0.314790
-0.269535 -0.334318 -0.351347
-0.207405 0.593622 0.360528
-0.001732 0.007028 -0.295960
-0.266116 -0.403151 -0.320441
-0.151143 -0.025730 0.329571
0.422867 -0.395073 -0.308997
-0.057301 0.059345 0.199842
-0.163137 -0.248134 0.336335
0.249626 -0.005079 -0.223724
0.077378 0.017598 0.244509
0.456811 -0.499235 0.341937
-0.150350 0.000471 -0.323607
-0.194801 0.146306 0.303623
-0.176007 -0.003199 -0.334951
0.054427 0.051256 -0.169993
-0.195357 -0.010576 0.311498
-0.171423 -0.019088 -0.330079
-0.167882 -0.019791 0.324763
-0.216391 -0.046980 0.291286
-0.179518 0.001023 0.324443
-0.179656 -0.007988 -0.329274
-0.168506 -0.004489 -0.331928
-0.302179 -0.794596 -0.354351
-0.181285 -0.014697 0.320682
0.280242 0.016946 0.058930
-0.220362 0.093447 -0.348831
-0.268319 0.668044 0.025515
-0.177754 -0.015355 0.334306
-0.218225 0.655171 0.280528
-0.200028 0.658667 -0.109872
-0.164848 -0.012396 -0.328997
-0.182710 -0.017240 -0.331555
-0.186234 0.113980 -0.326241
-0.170769 -0.014956 0.326477
-0.179999 -0.014239 -0.334090
-0.149995 0.008394 -0.330919
-0.034742 -0.004769 -0.016111
-0.180115 -0.009232 0.321325
-0.188148 -0.010932 0.313478
-0.154447 0.001463 -0.326806
-0.193368 0.100243 0.174516
-0.178701 -0.011310 -0.332820
0.454991 -0.306972 0.326980
-0.174885 -0.018015 0.323474
-0.005277 0.052542 -0.143422
0.210153 0.051669 0.036379
0.363659 0.035759 0.236107
-0.267567 0.008115 -0.105742
-0.177741 -0.014473 0.325666
0.365576 -0.819790 -0.338578
-0.186589 -0.026888 0.323245
-0.016917 -0.028054 0.105048
-0.247138 0.186372 0.301325
-0.146985 -0.004790 -0.326629
-0.180530 0.000106 0.318722
0.436803 -0.005666 -0.083155
-0.171472 -0.005314 -0.327565
-0.174133 -0.018984 0.317983
0.019742 0.059879 0.205049
-0.166312 -0.004801 -0.324753
-0.154771 0.012051 -0.327397
0.364750 -0.268533 0.343953
-0.162603 -0.011240 -0.326655
-0.002111 0.017344 -0.342929
0.053791 0.045435 -0.216192
-0.166690 -0.007083 -0.327133
-0.238136 -0.155665 -0.168070
-0.235405 0.009173 0.313869
-0.233595 0.437729 -0.147878
-0.167958 -0.018529 0.320051
-0.190701 0.000332 -0.316128
-0.170497 -0.021547 -0.332371
-0.162612 -0.007707 -0.325972
-0.255025 0.672209 0.317556
-0.172507 -0.013276 -0.327536
-0.001464 0.006795 0.320261
-0.207186 0.669381 -0.322906
-0.173585 -0.021804 0.321088
0.124854 -0.014578 -0.302727
0.069874 0.042781 0.349881
-0.165661 -0.009651 0.321087
-0.169468 -0.016756 -0.315529
-0.161579 -0.015513 0.324924
-0.254612 -0.467622 0.301724
-0.185870 -0.027377 0.323855
-0.155888 -0.014088 -0.329725
-0.179656 -0.015840 -0.336010
-0.171981 -0.155163 -0.295922
0.444475 -0.219645 0.345206
-0.173608 -0.019030 0.324575
-0.191772 0.069781 -0.291570
-0.213336 -0.600443 0.348228
-0.180116 -0.010136 -0.329188
-0.157576 -0.003906 0.321394
-0.158339 -0.018609 -0.330866
-0.232174 -0.209361 0.361400
0.433571 -0.533177 0.314121
-0.170160 0.003598 0.324410
-0.238955 -0.390690 0.368618
-0.250467 0.516694 0.296641
0.015253 0.028474 -0.308910
-0.186441 -0.026785 0.098759
-0.248412 0.772202 -0.114712
-0.173957 -0.014722 0.315608
0.293059 -0.750409 0.342069
-0.183808 -0.011179 0.332036
-0.167146 0.004322 0.157639
-0.155837 -0.010605 -0.329676
-0.137270 -0.040043 -0.309888
-0.224343 -0.525214 0.309427
-0.224585 0.108444 0.244790
0.405699 0.049070 0.198551
0.406177 0.055823 -0.001998
-0.112650 0.014513 0.321564
-0.191193 0.495268 0.205130
-0.084352 -0.004616 -0.302611
-0.173881 -0.019727 0.320040
-0.146289 -0.024132 0.327947
0.157793 -0.018417 -0.332215
-0.079369 0.065099 -0.125420
-0.156047 -0.016484 -0.335073
-0.179980 -0.008068 0.322117
-0.207970 -0.006458 0.325269
-0.159620 -0.005421 -0.334894
-0.177753 -0.021566 0.316110
0.069668 0.054876 0.316638
-0.078502 0.001600 -0.023166
-0.188020 -0.023428 -0.291865
0.447224 0.003261 0.161473
0.311705 0.041113 0.010077
0.398333 -0.047700 -0.253516
-0.178440 -0.012262 -0.338518
0.398844 -0.665262 -0.311805
-0.153911 -0.009222 -0.335009
-0.304415 -0.578109 -0.338843
-0.155452 -0.006098 -0.330606
-0.249562 0.501171 0.208849
0.130097 0.042173 -0.265299
-0.170656 -0.008427 -0.337038
-0.169736 -0.020029 0.324526
0.312603 -0.125883 -0.332669
0.310850 0.004434 0.240550
-0.155710 -0.021640 -0.321696
-0.170917 -0.012189 -0.318699
-0.162770 -0.016985 -0.332984
-0.156495 -0.010839 -0.327042
-0.155069 -0.014266 -0.329446
-0.233324 0.015590 0.039907
-0.165974 -0.008283 0.325099
-0.182561 -0.021516 0.321303
-0.208990 -0.147708 -0.324055
0.188947 0.043754 0.346464
-0.185381 0.477626 -0.329100
-0.158870 -0.013624 -0.332328
-0.169303 -0.012611 -0.330540
0.410585 -0.423632 0.353656
-0.170655 -0.005780 0.322138
-0.167443 -0.000624 -0.337190
-0.174230 0.008384 -0.150049
-0.170368 -0.018388 0.324929
-0.217108 0.628998 0.343044
0.050408 0.028631 0.340920
-0.182478 -0.019960 -0.331937
-0.153252 -0.037661 0.332750
-0.204085 -0.177738 -0.295233
-0.124851 0.025663 0.339393
-0.041034 -0.008953 0.039404
0.353215 0.045708 -0.262070
-0.151656 -0.013031 -0.331121
-0.190043 -0.007608 0.324760
-0.070610 -0.004983 0.248778
0.383546 -0.021267 0.326931
-0.246582 -0.067672 -0.241576
-0.145742 -0.003063 -0.326927
-0.169334 0.006941 -0.331307
-0.146372 -0.011035 -0.328214
-0.169137 -0.001776 -0.327223
-0.216251 0.261291 0.317358
-0.174893 -0.008840 -0.331307
-0.112687 -0.009650 -0.318025
-0.142279 -0.000579 -0.323407
-0.174980 -0.011518 -0.334941
-0.179013 -0.019933 -0.327743
-0.197764 0.156208 0.342546
-0.151629 -0.020408 0.320036
-0.168644 -0.011846 0.320981
-0.232547 0.336824 -0.133874
-0.249629 0.126366 0.303273
0.402075 0.017312 0.012970
-0.176798 -0.023348 0.332399
0.078148 -0.010617 0.333056
-0.178155 -0.012101 -0.330270
-0.179614 0.054037 -0.301934
-0.175157 -0.019320 -0.311856
-0.192372 0.352230 0.327114
0.296976 0.001378 0.168655
-0.182535 -0.006579 0.323989
-0.170047 -0.011870 -0.328543
-0.194575 -0.079978 0.341064
0.438344 0.005302 0.329589
-0.247232 0.634550 0.008183
-0.170367 -0.019076 -0.323176
-0.239753 -0.431112 0.253927
0.338590 0.056417 -0.293413
0.003980 0.004343 0.157999
-0.082133 0.030256 -0.323231
-0.158190 -0.015475 0.041873
0.168944 0.058991 -0.134424
-0.165341 -0.011198 -0.332575
-0.250759 0.309323 0.335707
-0.220791 0.628584 -0.270068
-0.079655 0.032661 0.340585
-0.145590 -0.014947 0.016173
0.417933 -0.587739 0.351040
0.341274 0.076199 0.079997
0.357123 -0.089506 -0.309767
-0.178400 -0.013877 0.318657
-0.166056 -0.118935 0.318757
-0.161247 -0.008889 -0.336962
-0.206414 0.093126 0.266097
-0.186696 0.001469 0.326766
-0.165746 -0.018275 -0.332475
0.064239 0.048724 -0.046520
-0.167948 0.000025 0.317519
0.447701 -0.077543 0.304584
0.120177 -0.002885 0.231497
-0.163907 -0.021743 -0.324301
-0.179073 -0.001821 0.319824
-0.174249 -0.005230 -0.326624
-0.158660 -0.008731 -0.323399
-0.134623 0.041594 0.019471
-0.199039 -0.002028 -0.329553
-0.166438 -0.016115 0.318444
-0.163416 0.038464 -0.326631
-0.171952 -0.009680 -0.335664
-0.090603 -0.002545 0.320250
0.228213 -0.010841 -0.291254
0.393189 -0.312138 0.349046
0.267457 -0.006085 0.328373
-0.173785 -0.013236 0.322799
-0.242349 0.083655 -0.264153
-0.182544 -0.013141 0.322861
-0.165390 -0.008137 -0.329421
0.079411 0.027632 -0.372386
-0.188183 -0.018777 -0.322455
0.205957 0.047320 -0.333655
0.183818 -0.001813 0.096521
-0.184349 0.325799 -0.287457
-0.006632 -0.045778 0.316996
-0.156934 -0.012132 -0.334543
-0.264952 -0.576441 -0.289902
0.362736 0.065118 -0.129950
0.057018 0.026189 -0.181250
0.141806 -0.020459 -0.036179
-0.170520 -0.011397 0.321462
0.265615 0.020829 -0.081768
-0.154039 0.023913 0.324309
-0.199088 -0.118943 0.351528
-0.250439 -0.029319 -0.037425
-0.157077 -0.010612 -0.326159
0.180213 0.046950 0.219489
-0.180867 0.044360 0.214911
0.432250 -0.006450 0.288382
-0.081505 0.033693 -0.296924
-0.166062 0.011747 0.302039
-0.169040 -0.006422 -0.333627
-0.156040 -0.022148 -0.338466
-0.180364 -0.021632 0.321957
0.390794 -0.081482 -0.245017
0.304767 0.019327 0.241059
-0.163155 -0.013896 -0.330716
-0.199634 0.637254 -0.032949
-0.150058 -0.005192 0.270872
-0.190401 0.014598 0.176479
0.364457 -0.017031 -0.324420
-0.165076 -0.017743 -0.329311
-0.170977 0.032062 -0.313565
0.279956 0.035811 0.056318
-0.235901 0.234973 -0.311088
0.092942 0.055302 -0.222249
-0.176428 -0.017880 0.318719
-0.164286 -0.008963 -0.336648
-0.288520 -0.533439 -0.365784
-0.094873 0.052510 -0.041288
-0.189403 -0.307968 -0.332333
-0.224911 0.236565 -0.349321
-0.051997 0.027935 0.311457
-0.213920 -0.154604 0.347752
-0.264761 -0.271335 -0.325942
-0.190337 -0.013366 0.313509
-0.170064 -0.019409 -0.332632
-0.255180 0.534324 -0.253953
0.405289 0.002174 -0.172188
-0.176822 -0.014152 -0.324781
-0.257348 -0.204769 -0.314641
-0.199335 0.012748 -0.260970
-0.221353 0.002126 0.145311
-0.171813 -0.029450 0.318328
0.156507 0.026578 -0.319526
-0.177989 -0.010239 -0.335817
-0.159078 -0.023119 -0.322108
-0.173726 -0.004427 -0.330470
0.352542 -0.024887 -0.267922
-0.165644 -0.012345 -0.327712
-0.101963 0.004224 0.039124
-0.166408 -0.008061 -0.325267
-0.203550 0.598673 0.107290
-0.160303 -0.016690 0.319726
-0.177354 -0.001931 -0.324527
0.142560 0.049471 0.344383
-0.211059 0.152786 -0.327435
0.343309 -0.164067 0.331462
0.089100 0.013001 0.293836
-0.248880 0.618505 0.295290
-0.164827 -0.011030 -0.337136
-0.164195 -0.006218 -0.332577
-0.218537 -0.000365 0.305793
0.137532 0.021618 0.212270
-0.161786 -0.009953 -0.338380
-0.166639 -0.016571 0.322906
-0.122550 -0.037897 -0.126298
0.392092 -0.204664 -0.348123
-0.159872 -0.006724 0.321628
-0.195437 -0.021023 -0.319738
-0.168241 0.009286 0.330098
-0.171789 -0.019805 -0.331758
-0.137385 0.022102 0.326169
-0.237345 0.623200 -0.111129
-0.178422 0.002189 0.315843
-0.204962 0.422296 -0.286260
0.162312 0.051918 0.104667
-0.037330 0.057870 -0.001895
-0.168485 -0.027196 0.325931
0.397204 0.052954 0.095531
-0.191114 0.308704 -0.135577
-0.250469 0.494541 0.128207
-0.253740 0.021341 -0.280861
-0.169728 -0.008530 0.332465
-0.177966 -0.008877 0.322256
-0.163205 -0.012705 0.324287
0.344127 -0.000239 -0.233963
-0.157640 -0.006628 0.323977
-0.156348 -0.001796 0.321619
-0.151594 -0.011143 -0.335031
-0.176074 0.003535 -0.324287
-0.183631 -0.011985 0.322368
-0.176017 -0.010644 -0.327831
-0.251356 -0.066340 0.296090
-0.245999 -0.137326 0.289504
-0.177664 -0.013979 0.323238
-0.094075 0.055481 0.076102
0.154118 0.003320 0.114407
0.379464 -0.158135 -0.292402
-0.206470 0.024053 -0.329761
-0.192613 -0.020747 0.318825
-0.376671 -0.674899 -0.364898
0.322851 -0.021373 -0.343242
-0.157349 0.051054 0.335316
0.213556 0.038691 -0.229984
-0.165577 -0.019641 -0.337537
-0.197533 0.204158 -0.292549
-0.184163 0.462688 0.303592
0.312533 0.013731 0.343478
-0.132680 -0.013614 -0.329204
-0.259975 0.587961 -0.323790
-0.217772 -0.010531 -0.077845
-0.155262 0.001481 -0.322171
-0.223988 -0.005057 0.085423
-0.272388 -0.229962 0.308119
-0.211198 -0.291930 -0.331025
0.337416 0.008127 0.143235
-0.139557 0.048488 -0.034031
-0.169712 -0.006849 0.324061
-0.137894 0.001216 0.324837
-0.182479 -0.013056 0.320781
-0.184047 0.167586 -0.069967
-0.165413 -0.019902 -0.331656
-0.176312 -0.003859 -0.320450
-0.056999 0.015720 -0.356615
0.073998 0.060236 0.060065
-0.163502 -0.019425 0.323290
-0.226256 -0.543713 -0.292238
0.061877 -0.017079 -0.286596
-0.166290 -0.006012 -0.332081
0.259869 0.060044 0.167468
-0.147724 -0.003932 -0.327565
-0.251565 -0.026562 0.211493
-0.151317 -0.017528 -0.328887
-0.169863 -0.021937 -0.330993
0.142854 -0.009788 -0.251550
0.259777 0.012629 0.171991
-0.180460 0.364416 0.084109
0.016175 0.035983 0.347693
-0.189237 0.188464 0.128675
-0.203535 0.001183 -0.315818
-0.186092 -0.001857 -0.254872
-0.166595 -0.021873 0.323894
-0.173548 -0.014467 -0.335090
-0.119222 0.022014 -0.325864
0.400310 0.032330 0.140793
-0.193504 -0.009390 -0.334925
-0.159090 -0.020413 0.326454
-0.258330 0.185322 -0.326917
-0.169691 -0.005116 -0.329826
0.350505 0.055219 -0.189271
-0.157423 -0.016038 -0.321906
-0.052963 0.029601 0.341568
0.021251 0.033733 0.270221
0.380965 -0.150817 -0.347410
-0.157731 -0.013097 -0.322129
-0.130343 -0.062946 0.258610
-0.234601 0.029424 -0.221727
0.049802 0.048123 -0.257552
-0.165280 -0.016687 -0.340148
-0.062130 0.040037 0.253046
-0.188242 -0.003651 0.311028
0.280173 0.021976 -0.157348
-0.211407 0.192523 0.353329
-0.181475 -0.015703 0.316920
0.052816 -0.001719 0.338143
-0.235144 0.433202 -0.257543
-0.172973 -0.006191 -0.331297
-0.225428 -0.032987 -0.316024
-0.159565 -0.008551 -0.333861
0.214461 0.058847 0.213668
-0.177863 -0.012479 0.321994
-0.286231 -0.735468 -0.294721
-0.162881 -0.012480 -0.327603
-0.208409 0.626105 -0.157802
-0.174724 -0.026044 0.327075
-0.172286 -0.011502 0.314797
-0.210854 -0.416775 -0.342644
-0.160565 -0.007920 -0.329607
-0.079999 0.041605 -0.214499
-0.150389 0.371923 -0.372469
-0.170227 -0.002541 -0.335034
-0.216953 0.038178 0.287060
0.111247 -0.016027 0.288647
-0.163467 -0.011391 -0.324854
-0.216652 0.705351 -0.047682
0.233194 -0.003339 0.277716
0.134110 -0.006865 0.006426
-0.181826 -0.021982 0.323386
0.318206 -0.004963 -0.120148
-0.152089 -0.008308 0.320279
-0.116101 -0.016786 -0.333940
-0.248111 0.434995 0.311001
-0.109565 -0.009992 -0.338259
0.442160 0.034142 -0.053154
-0.165247 -0.012390 -0.324594
-0.249658 -0.153447 0.292170
-0.163738 -0.025424 0.320524
-0.202972 -0.356329 0.356152
0.279036 0.032293 -0.262747
-0.159099 -0.014428 0.322961
0.427187 0.020387 0.070042
-0.187082 -0.003739 0.318019
-0.159762 -0.011733 -0.338428
-0.247268 0.587937 0.336654
-0.169214 -0.015758 -0.321555
-0.171283 -0.019380 0.316298
-0.142317 -0.032533 -0.333255
-0.175992 -0.011561 -0.337805
-0.161364 -0.011862 -0.336298
0.357941 -0.809547 0.352827
-0.191990 0.020271 -0.331317
-0.250602 0.602993 0.261794
-0.192141 0.507586 -0.243192
-0.212978 0.400329 0.337605
-0.205645 -0.398709 0.368831
-0.249119 0.527080 -0.054303
0.070992 0.004419 0.354196
-0.168566 -0.016369 0.320598
-0.147601 -0.014410 -0.327268
-0.156544 0.002531 0.321964
-0.163995 -0.007294 0.316656
-0.156070 -0.005561 -0.337699
-0.152206 -0.011474 -0.332296
-0.167328 0.018002 0.232021
-0.151160 0.002941 -0.340623
-0.229871 -0.029725 -0.343241
-0.149218 -0.001139 0.320606
-0.243556 0.234686 0.265593
-0.250757 -0.003329 0.102109
-0.186605 0.180989 -0.252009
-0.175825 -0.019190 -0.331312
-0.143733 -0.004640 -0.326179
-0.178690 -0.014346 -0.327496
-0.061563 -0.000878 0.263065
-0.199370 0.045288 0.291147
-0.168354 -0.012831 0.319918
-0.165707 -0.010906 -0.328108
0.161492 0.059194 -0.232074
-0.168017 0.479216 0.346810
0.175413 0.018764 0.321863
-0.157298 -0.002745 -0.324387
-0.151167 -0.001963 -0.329994
-0.199481 0.039364 0.350819
-0.153158 -0.022540 -0.328788
-0.136754 -0.016488 -0.322791
0.089779 0.019475 -0.261710
-0.201265 0.267801 0.078973
0.213619 0.053436 -0.060866
-0.159131 -0.015115 0.328227
0.204126 -0.004665 0.334415
-0.110952 -0.003240 -0.300598
0.119451 0.055457 0.179246
-0.151357 -0.010524 -0.327486
-0.290639 -0.713109 0.288768
-0.158616 -0.004872 -0.331991
-0.129601 -0.001679 -0.316532
-0.221445 0.000100 -0.088970
0.061163 0.024869 -0.246051
-0.095843 0.013824 0.204176
-0.210593 0.099805 0.352948
-0.190912 -0.009601 -0.328342
-0.164973 -0.019750 -0.333542
-0.170379 -0.016514 -0.317380
-0.183713 0.005692 0.321124
-0.165399 -0.018773 0.331881
-0.135210 -0.012594 0.321207
-0.170541 0.525240 -0.183342
-0.215087 0.010818 -0.179634
0.440776 0.005344 0.236138
0.366674 -0.262414 -0.353663
-0.164838 0.037153 0.354708
-0.163199 -0.019324 -0.341760
-0.149551 0.016473 -0.325242
-0.163405 -0.013698 -0.324873
-0.183650 -0.039256 -0.322290
-0.175181 0.040264 0.320527
-0.170185 -0.008858 -0.330241
-0.171701 -0.006714 -0.329762
-0.253209 0.399433 -0.111410
-0.180400 0.025956 0.266032
0.344745 0.014622 -0.156346
-0.235796 0.287709 0.028226
0.118371 0.048545 -0.103710
0.013830 0.056462 0.244012
-0.251825 -0.286268 0.352307
-0.160265 -0.015100 0.325817
0.351135 -0.575061 0.339342
-0.173929 0.001031 -0.330732
-0.101652 0.036104 -0.176241
-0.123404 -0.010767 -0.337847
-0.223134 0.589036 -0.290913
-0.231742 0.408558 0.103210
-0.096817 -0.009555 -0.335291
-0.187475 -0.024881 0.324892
-0.173581 0.614490 -0.293308
-0.165648 0.036495 -0.232050
0.394404 -0.415347 -0.365669
-0.022255 -0.006035 -0.101702
-0.163464 -0.014098 -0.328818
-0.235809 -0.038826 -0.341296
-0.204211 -0.246954 0.299140
-0.163583 -0.021202 0.324000
0.109200 -0.030907 0.315522
-0.167635 -0.009148 0.321554
-0.193731 -0.006150 -0.334483
0.273090 0.052040 -0.023625
-0.261176 0.640383 -0.130163
-0.204553 0.655242 0.168877
-0.253021 0.768680 0.141856
-0.128874 -0.009912 -0.331063
0.376463 0.021529 -0.103689
-0.104397 -0.056555 -0.305475
-0.219161 0.709913 0.222239
-0.169897 -0.015542 -0.320670
-0.192721 -0.042588 0.343827
-0.163412 -0.004445 -0.325134
-0.251814 0.702111 0.242626
-0.156554 -0.003720 0.323885
0.396580 -0.057649 0.074476
-0.199750 0.389044 0.171722
-0.183985 0.431626 -0.353617
-0.185944 0.075460 -0.354094
0.433356 -0.188887 0.297924
-0.171699 -0.018206 -0.336582
-0.180924 -0.014756 0.321889
-0.239995 -0.686740 -0.369641
-0.230684 -0.187648 -0.360191
-0.168914 -0.005264 -0.317839
-0.029718 0.001788 0.219297
-0.237415 0.025625 0.100300
-0.034000 0.021965 -0.302262
-0.071047 -0.009486 -0.070718
-0.112845 -0.016349 0.223495
0.353893 0.039174 0.298864
-0.177112 -0.016580 0.322777
0.050594 -0.001929 0.056929
0.408604 -0.510580 -0.354553
0.388950 0.045792 -0.345362
-0.251480 0.536800 0.102835
-0.175116 0.001628 0.320221
-0.085903 0.005623 -0.171526
-0.088766 0.001588 0.133564
-0.158968 0.002745 -0.331628
-0.169864 -0.005911 -0.325428
-0.239255 0.032284 -0.139213
-0.176796 -0.008115 -0.325397
-0.212502 0.436562 0.283382
-0.193875 -0.069666 -0.302026
0.364307 -0.205722 -0.312386
-0.173601 0.524470 0.290414
-0.122062 0.003206 -0.264769
-0.209625 0.176067 -0.308691
-0.278624 -0.641726 0.372118
-0.182560 -0.017016 0.326169
