0.117654 -0.109885 -0.354011
-0.140689 -0.119699 -0.506984
0.497161 -0.418336 0.518215
-0.180030 -0.123943 0.515074
-0.142559 -0.112372 -0.509029
-0.139347 -0.118479 0.496301
-0.140566 -0.112068 -0.500697
-0.171614 -0.113725 -0.510403
-0.184349 -0.700561 0.381648
-0.142932 -0.099734 0.496844
0.540827 -0.244373 -0.272696
-0.179690 -0.111617 -0.507389
-0.158851 -0.121084 0.504408
-0.171299 -0.203423 0.506294
-0.145563 -0.104355 0.493729
-0.163640 -0.129555 -0.500091
0.447510 -0.576900 -0.501525
-0.152738 -0.129319 -0.504981
-0.180545 -0.356834 -0.496026
-0.157657 -0.114893 -0.512208
-0.288983 0.025549 -0.287470
-0.132476 -0.102270 0.480774
-0.274042 0.378943 0.047536
-0.160022 -0.099000 -0.498512
-0.169930 0.699669 -0.182584
-0.145908 -0.114986 0.491036
-0.168047 -0.110114 -0.518425
-0.054709 -0.095270 0.147759
-0.196372 -0.205338 -0.511760
0.064733 -0.128274 0.502592
0.107963 -0.127854 0.499371
-0.200800 0.528606 0.330103
-0.140907 -0.094573 0.492778
-0.159047 -0.106204 0.508929
-0.123812 -0.105799 0.502072
-0.271172 0.532136 -0.130571
-0.162944 -0.109334 -0.515612
-0.177581 -0.105029 -0.511941
-0.133260 0.443120 0.379484
0.595581 -0.124658 -0.016459
-0.131639 -0.110492 0.493444
-0.161522 -0.131018 -0.500055
-0.007202 -0.202970 0.023677
-0.287278 -0.140634 -0.430916
-0.151613 -0.099637 -0.509667
-0.032457 -0.095916 0.087104
-0.189499 -0.231796 -0.435086
-0.286646 0.354207 -0.347586
-0.208539 -0.260709 0.499004
0.087723 -0.110559 0.416991
-0.135780 -0.110164 0.501469
-0.154899 -0.114058 -0.510368
-0.144055 -0.103922 -0.500932
0.448016 -0.363688 0.481680
-0.283224 0.198646 0.133100
0.528378 -0.229416 0.214813
-0.186966 -0.110026 -0.511295
-0.175039 0.135016 0.029507
0.231005 -0.182773 -0.160468
-0.148815 -0.118587 0.505222
0.219176 -0.208916 -0.034348
-0.152691 -0.108167 0.500677
-0.151400 -0.116848 0.493747
-0.123653 -0.225039 0.457489
-0.157063 -0.569075 0.490440
0.335909 -0.175945 0.163648
-0.133618 -0.115899 0.495141
0.523163 -0.646992 0.455182
-0.168561 -0.112585 -0.507094
-0.185077 0.293475 0.230591
-0.143063 -0.104932 0.503814
-0.143188 -0.106898 0.494659
0.421025 -0.205478 0.326390
-0.160384 -0.116183 0.480668
-0.193909 -0.112948 -0.519767
0.080782 -0.194605 -0.162318
-0.154210 -0.110326 -0.508416
0.426933 -0.088140 0.317313
-0.143121 -0.125436 0.504405
-0.141614 -0.108852 0.494197
-0.166577 -0.107556 -0.512210
-0.144005 0.151641 -0.060666
-0.174956 -0.122431 -0.502269
-0.287694 0.556682 -0.257624
-0.290678 0.083306 -0.014287
-0.135620 -0.121910 0.496168
-0.154144 -0.106044 0.486880
0.559159 -0.179643 0.134695
0.389679 -0.472826 -0.467148
0.312043 -0.099184 0.027966
0.245208 -0.148684 -0.509851
-0.163553 -0.133054 -0.502637
-0.144398 -0.118365 0.497685
-0.162955 -0.123811 0.505233
-0.181257 -0.101277 -0.512970
-0.161110 0.076855 -0.062278
-0.141989 -0.119782 0.489653
-0.078441 0.152029 -0.465856
-0.242809 0.327318 0.498502
0.100507 -0.158829 -0.500767
-0.145571 -0.097733 -0.505152
0.498181 -0.310011 0.399189
-0.151593 -0.129596 -0.506693
0.182863 -0.098066 0.452072
-0.195452 -0.026007 -0.495242
0.525460 -0.161210 -0.121471
-0.170265 0.577385 -0.349519
-0.267668 0.412518 -0.402898
-0.137514 -0.115108 0.489287
-0.164815 0.464372 0.049463
-0.124853 -0.127852 -0.505456
-0.158169 -0.154786 -0.509700
-0.158158 -0.114177 -0.507451
0.279663 -0.140615 -0.501923
-0.172471 -0.120402 0.514590
0.041959 -0.140861 -0.495389
0.486199 -0.107067 -0.113995
-0.155350 -0.102909 -0.502393
-0.296788 0.561986 0.232773
-0.139577 -0.108789 0.495266
-0.171393 -0.092619 0.276169
-0.263629 0.142566 -0.513473
-0.209777 -0.022774 0.531733
-0.150441 -0.090351 0.508729
-0.166186 -0.243987 -0.502960
-0.243555 0.699617 -0.515253
-0.131725 -0.115261 0.484900
-0.042372 -0.164830 -0.483304
-0.266240 -0.178588 -0.198325
-0.164781 -0.110319 0.501485
-0.183012 -0.118927 -0.493410
-0.330688 -0.162360 0.449532
-0.141203 -0.109879 0.507059
-0.192734 -0.118146 -0.512347
-0.289598 -0.056183 0.334202
0.475627 -0.101581 0.072087
0.207112 -0.087468 -0.347831
0.451956 -0.466509 0.362469
-0.152515 -0.111807 -0.505541
-0.170317 -0.119894 -0.498702
-0.146768 -0.104767 0.492157
-0.193402 -0.063666 -0.003833
-0.156643 -0.112142 0.492807
-0.127442 -0.140269 -0.509608
0.554732 -0.187928 -0.221607
-0.142553 -0.099082 -0.371278
-0.131021 0.594903 0.449564
0.407200 -0.618850 -0.475295
-0.159276 -0.000320 0.267224
-0.301582 0.157514 -0.253714
-0.173504 -0.116982 0.493533
-0.151853 -0.110631 0.493825
-0.192963 -0.119265 -0.510334
-0.031210 -0.147314 0.530722
-0.143552 -0.115900 0.497027
-0.295631 0.458002 -0.084629
-0.106873 -0.168828 0.524289
-0.159162 -0.113586 -0.505740
-0.162532 -0.112765 -0.505467
0.383403 -0.102063 -0.128983
-0.265702 0.357972 0.401424
-0.131090 -0.120917 -0.502628
-0.147958 -0.104713 -0.494688
-0.173779 -0.115681 0.136809
-0.155571 -0.111384 0.490784
0.536589 -0.113175 -0.277056
-0.167095 -0.125581 0.497662
-0.163596 -0.162549 -0.251604
0.295738 -0.111864 0.356944
-0.169297 0.314141 -0.527249
0.542993 -0.500834 0.446622
-0.128243 0.195297 0.398904
-0.166445 -0.105426 -0.514678
-0.138074 -0.141473 -0.497383
-0.176906 -0.121988 -0.487346
-0.211612 -0.117712 0.218178
-0.171551 0.110662 -0.241088
0.547980 -0.139732 0.207207
-0.171112 -0.105378 -0.507879
-0.174669 -0.183754 0.095235
-0.130086 -0.096968 -0.491762
-0.181927 0.641737 0.266631
-0.289632 0.294595 -0.288692
0.016625 -0.206607 -0.357542
0.504154 -0.109401 0.341619
-0.155223 -0.146836 0.487315
-0.246972 -0.087009 0.417983
0.374719 -0.095759 -0.280826
-0.286254 -0.059647 -0.158056
-0.143331 -0.111497 0.492680
0.261760 -0.095303 -0.023291
-0.189614 0.406470 -0.161388
-0.104261 -0.190934 0.544799
-0.239615 -0.088615 0.571200
-0.138221 -0.107110 0.044086
-0.172998 -0.100878 -0.510148
0.514397 -0.204499 0.476257
0.102206 -0.162846 -0.530658
-0.178230 -0.117457 -0.504305
-0.149991 -0.109111 0.489248
-0.211411 0.050854 0.370586
-0.128462 -0.101000 -0.507942
-0.130794 -0.124725 -0.507049
-0.142735 -0.109283 0.487965
0.262106 -0.096801 0.151961
-0.290977 0.380407 0.322092
-0.140261 -0.112677 0.496342
-0.144294 -0.118071 -0.513685
-0.163232 -0.118452 -0.487759
-0.146132 -0.114626 -0.504535
-0.076405 -0.127948 0.206407
-0.146287 -0.121429 0.503448
-0.175927 -0.106779 -0.508482
-0.135420 -0.106270 0.500862
-0.165903 -0.104670 -0.507963
-0.141849 -0.131236 -0.517489
-0.206321 -0.276978 -0.404840
-0.259568 -0.527090 -0.495984
-0.290371 -0.159160 0.416810
-0.136815 -0.126263 -0.495228
-0.155348 -0.109401 0.505540
0.543814 -0.127005 -0.369829
-0.171678 -0.105523 -0.518797
0.358106 -0.098821 0.432028
-0.303830 0.629331 -0.241490
-0.169520 -0.114011 -0.507459
-0.143239 -0.296602 -0.494046
-0.132950 -0.119515 -0.505878
0.390522 -0.097883 0.163101
0.250126 -0.109121 -0.534503
-0.217187 -0.209303 -0.245897
-0.252556 -0.237529 0.402305
-0.156022 -0.108025 0.487898
0.549384 -0.211620 -0.384604
-0.170781 -0.104237 -0.503018
0.064066 -0.211668 -0.065934
-0.191104 -0.146891 -0.502534
-0.283877 -0.051297 -0.429022
0.182848 -0.172584 -0.296842
-0.257365 0.776808 0.125228
-0.177100 -0.096201 -0.502771
-0.284712 0.036940 0.314945
-0.283882 0.659261 -0.381411
0.560615 -0.257725 0.316116
-0.170062 -0.131385 0.503028
-0.025724 -0.097965 -0.104489
-0.150499 -0.120683 -0.506563
-0.173465 -0.141082 0.510397
-0.165043 0.272281 0.393976
0.482990 -0.235399 -0.049051
-0.166114 -0.101799 -0.519288
-0.145279 -0.112280 0.499869
-0.179909 -0.100580 -0.511844
-0.144775 -0.144231 0.501854
-0.198345 -0.118043 0.509773
-0.130514 -0.103026 0.495886
-0.134988 -0.114763 0.498475
-0.145202 -0.118872 0.495801
0.371864 -0.176713 0.432779
-0.170224 -0.363098 0.339280
-0.134172 -0.110291 -0.511451
-0.145710 -0.123120 -0.520376
-0.194851 -0.191628 0.506082
-0.278112 -0.605731 -0.505263
-0.163584 -0.118232 -0.502377
-0.135162 -0.093597 0.511728
-0.147728 -0.131491 -0.508852
0.499642 -0.076445 -0.336872
-0.137858 -0.114049 -0.502005
-0.151832 -0.107519 0.498948
-0.104161 -0.148211 -0.509463
-0.087504 -0.111223 -0.483996
0.538528 -0.173858 -0.494110
-0.171700 -0.112337 -0.514781
-0.178090 -0.146015 0.521239
-0.181704 -0.080171 0.505077
-0.149383 -0.110128 -0.508346
-0.148103 -0.104455 0.509088
-0.175683 -0.108642 -0.513360
-0.138552 -0.110000 0.496096
-0.154861 -0.105065 -0.496575
-0.111783 -0.170127 -0.445451
0.589544 -0.131061 -0.309394
-0.162817 -0.004571 0.339949
-0.142671 -0.105484 0.489498
-0.132264 -0.105686 -0.515021
0.461581 -0.067000 0.514436
-0.268156 -0.080731 0.537335
0.178683 -0.087217 -0.482358
-0.090884 -0.095939 -0.482660
0.207074 -0.184121 0.061659
-0.248908 0.610115 -0.511792
-0.167872 -0.294254 0.416482
0.443166 -0.342312 -0.382546
-0.114114 -0.119508 -0.503906
-0.138099 -0.102300 0.488846
-0.191988 -0.114068 -0.513386
0.593156 -0.117647 0.082780
0.101365 -0.101676 -0.431558
-0.070037 -0.120107 -0.284845
0.471679 -0.626621 0.384911
-0.183423 -0.069009 0.503330
0.076605 -0.064387 -0.484856
-0.148367 -0.159560 0.500668
-0.194015 0.646696 0.426808
-0.165923 -0.120031 -0.508422
-0.149575 -0.112481 0.501211
-0.274293 0.715711 -0.321883
-0.157457 -0.103673 -0.520705
-0.136810 -0.115611 -0.504660
-0.128904 -0.141984 0.465032
-0.172606 -0.132419 -0.504348
0.221944 -0.172778 0.508644
-0.205832 -0.519361 -0.512332
-0.178257 -0.102781 -0.499019
-0.164446 -0.097600 0.478805
-0.143769 -0.109800 0.488566
0.263458 -0.180984 -0.290433
-0.161955 -0.120286 -0.499057
-0.160877 -0.108854 -0.512300
-0.145526 -0.105625 0.483850
0.323854 -0.107958 -0.530969
-0.241389 -0.099623 0.485923
0.537184 -0.430882 -0.482434
-0.071141 -0.098064 0.302761
-0.293645 0.510137 -0.299427
-0.187283 -0.106287 -0.505758
-0.221186 0.354629 -0.491489
0.082831 -0.089710 0.208955
-0.166855 -0.102409 -0.504220
-0.191377 -0.672276 -0.485497
-0.278640 -0.132054 0.290319
-0.199365 -0.092551 0.502889
-0.160207 -0.107669 -0.501916
-0.153457 -0.112827 -0.489133
-0.163480 -0.117519 -0.509665
0.397775 -0.136878 0.498706
-0.157269 0.146513 -0.495587
-0.158970 -0.103709 -0.501427
-0.152307 -0.111373 -0.509122
0.531978 -0.222225 -0.119247
0.488454 -0.089911 0.448573
-0.177119 -0.130147 -0.515593
-0.199798 -0.097725 -0.511315
-0.141716 -0.116517 0.493586
-0.143011 -0.108032 0.498385
-0.282301 0.252669 0.491555
-0.151713 -0.122146 -0.511662
0.048978 -0.171018 -0.514744
-0.179502 -0.110219 -0.509425
-0.145060 -0.114126 0.489148
-0.183413 -0.114958 -0.501032
0.449518 -0.424846 -0.392112
-0.184367 -0.108749 -0.506932
0.016964 -0.079098 0.490374
-0.147116 -0.119110 0.491564
-0.150597 -0.090256 0.475975
0.282317 -0.218691 0.480715
-0.124430 -0.136354 0.499283
-0.165515 -0.096568 -0.517126
-0.295498 0.436233 -0.213277
-0.156067 -0.098607 0.493363
-0.129301 -0.135801 0.517260
-0.143373 -0.105844 0.491880
-0.168126 -0.120548 -0.497703
-0.161003 -0.107669 0.492749
-0.150605 -0.102405 -0.507450
0.138521 -0.216089 0.240176
-0.165383 -0.101687 0.499056
-0.189803 -0.318872 -0.498809
-0.140876 -0.118233 0.491376
0.011365 -0.201483 -0.310207
0.489406 -0.224473 0.429853
-0.282895 -0.504046 0.497821
-0.152680 -0.108100 -0.483947
-0.243040 -0.504550 0.379854
0.443902 -0.087660 -0.496306
-0.136350 -0.090541 -0.486274
-0.170026 -0.097419 -0.515804
-0.155770 -0.114223 -0.511715
-0.302467 0.189687 -0.479016
-0.151641 0.463259 -0.237000
-0.283692 0.495795 -0.006146
-0.289333 0.150944 0.367896
0.520017 -0.145104 0.145847
0.134578 -0.094967 -0.105834
-0.152274 -0.112477 -0.503922
0.301148 -0.205424 0.443078
0.440256 -0.253459 -0.355747
-0.162824 0.368636 -0.238991
-0.163505 -0.117368 -0.502666
-0.068039 -0.209255 -0.305693
-0.310118 -0.179641 0.014500
-0.283202 0.005465 0.277753
-0.279566 0.030210 -0.502621
0.430197 -0.164572 0.400823
-0.153445 -0.118395 0.492535
-0.132882 -0.104202 0.491567
0.143122 -0.102802 0.107117
0.481294 -0.305400 -0.504392
-0.161605 -0.110870 -0.509905
-0.059382 -0.103075 0.031834
-0.067130 -0.053151 0.436061
-0.263120 0.711934 0.221537
-0.139497 -0.108984 -0.518184
-0.291926 -0.435211 0.440075
0.554221 -0.592142 0.405668
-0.171696 -0.112438 -0.506894
-0.267623 -0.355925 -0.511019
-0.179167 -0.110861 -0.510319
-0.167305 -0.080724 0.509852
-0.168696 0.301828 -0.331088
-0.175030 -0.086391 0.506879
-0.146334 -0.092513 0.506967
-0.179347 -0.094589 0.502319
-0.127880 -0.105880 -0.511771
-0.170366 -0.095092 0.474375
-0.153804 -0.120342 0.514391
-0.127897 -0.125934 -0.517411
-0.147832 -0.114617 0.489843
-0.286136 0.421985 0.404943
-0.158358 -0.116112 -0.508748
-0.156814 -0.113076 -0.515306
-0.144506 -0.110876 -0.513766
-0.165222 -0.110001 -0.505142
0.344117 -0.107394 0.139227
-0.112861 0.299273 0.466625
-0.169753 -0.098784 -0.509706
0.385441 -0.094621 0.368596
-0.169080 -0.117546 -0.506955
-0.293449 0.535565 -0.203391
-0.146909 -0.110854 0.513218
-0.314856 0.659952 -0.056441
-0.183739 0.710382 0.036660
-0.139321 -0.503089 -0.384287
-0.141426 -0.117481 0.485733
-0.271582 0.472891 0.191464
-0.149561 -0.116458 -0.510523
-0.163982 -0.127981 -0.495923
-0.154062 -0.119346 0.509902
-0.150385 -0.115660 -0.504546
-0.183692 0.715338 -0.272445
-0.165656 -0.104312 -0.505532
-0.177434 0.531010 0.048539
-0.165475 -0.087250 -0.499347
-0.170334 -0.099033 0.499672
-0.287786 -0.237384 0.362197
0.479557 -0.113881 -0.280684
-0.158796 -0.124932 -0.505739
-0.140478 -0.120325 0.481883
-0.171618 -0.112247 -0.506063
-0.135223 -0.107960 0.496748
-0.183853 0.644092 -0.512401
0.127600 -0.110956 -0.259687
0.460198 -0.171127 -0.513747
0.436308 -0.550630 0.404498
0.567803 -0.301799 -0.496528
-0.132749 0.369773 -0.341380
-0.212993 -0.128589 0.505121
-0.135007 -0.123499 -0.507015
-0.147718 -0.193925 0.499552
-0.152965 -0.124866 -0.506768
-0.166622 -0.118436 -0.503770
-0.178689 0.227760 0.149191
0.202489 -0.202654 0.309083
-0.085385 -0.095441 -0.079620
-0.166065 -0.120136 -0.510373
0.150215 -0.228670 -0.134049
-0.251736 -0.296450 -0.498905
-0.161728 -0.556380 0.385937
-0.181356 -0.077692 0.498036
-0.124747 -0.111014 -0.503378
-0.141740 0.449377 -0.119203
-0.134507 -0.113867 -0.513374
0.475000 -0.499748 0.498708
0.129168 -0.109289 0.499572
-0.135003 -0.108245 -0.508348
-0.141260 -0.117491 -0.516502
-0.080772 -0.192335 -0.234500
-0.265046 0.453521 -0.508782
-0.155404 -0.107596 0.505762
-0.140781 -0.369863 -0.363823
-0.194792 -0.166475 0.504011
-0.208325 -0.060272 0.516495
-0.159091 -0.102938 -0.502347
-0.177499 0.411184 -0.521250
-0.221197 0.753911 -0.359567
0.286437 -0.108592 0.480271
0.596771 -0.139348 -0.457085
-0.162072 -0.309014 0.468913
-0.183066 -0.104831 0.509105
-0.141092 -0.109241 0.481476
-0.244377 -0.629011 0.396224
-0.169782 -0.115210 -0.518272
0.348737 -0.234344 0.140958
-0.169997 -0.099235 -0.507435
-0.002190 -0.109115 -0.530985
-0.147544 -0.093347 0.217617
-0.146828 -0.103815 0.496110
-0.307288 0.611155 0.094746
-0.164661 -0.075442 0.499499
0.320383 -0.106966 -0.276032
-0.163080 -0.041004 -0.273166
-0.157018 -0.121605 0.497379
-0.141986 -0.114813 0.497552
-0.161940 -0.102250 -0.515229
-0.121300 -0.105316 0.489286
-0.139909 -0.080966 0.486379
-0.177399 -0.104911 -0.502698
-0.154225 -0.112855 0.504592
0.455717 -0.126774 0.460716
-0.214565 0.093019 -0.520445
0.505956 -0.156798 0.340148
-0.178254 -0.109033 -0.502513
-0.299704 -0.391775 -0.479084
-0.121120 -0.108436 0.489486
0.007858 -0.218208 0.115245
-0.171884 -0.099570 -0.509556
-0.146167 -0.110727 0.486257
-0.144225 -0.102874 0.505060
-0.158453 -0.109977 0.499873
-0.226429 -0.358664 -0.375045
-0.162158 -0.121328 -0.501588
0.004738 -0.193941 -0.471884
-0.211162 -0.253632 -0.503580
-0.260487 -0.070279 -0.068991
-0.150317 -0.106702 0.490104
-0.144997 -0.114452 0.502663
-0.160931 0.045604 -0.434607
0.112445 -0.093238 0.220931
0.569226 -0.168360 -0.392449
-0.149508 -0.101737 0.485050
-0.300016 0.619802 0.267259
0.513014 -0.590136 -0.473431
0.152752 -0.137488 -0.519740
-0.235381 -0.427760 0.494372
-0.153012 -0.105543 -0.512608
0.166067 -0.177984 -0.194151
0.168626 -0.108259 0.020458
-0.136826 -0.125841 -0.507115
0.488548 -0.201992 -0.452413
0.576781 -0.387600 -0.461453
-0.017691 -0.104796 -0.511275
-0.146021 -0.127510 -0.516158
-0.154933 -0.095887 0.505588
-0.156158 -0.126371 -0.501744
-0.150562 -0.102981 -0.504218
-0.003710 -0.201903 -0.437880
-0.130126 -0.106436 0.498587
-0.246489 -0.114139 -0.510467
-0.135114 -0.118143 0.491309
-0.130009 -0.124173 -0.505081
-0.118565 -0.110947 0.504408
-0.152565 -0.112287 0.507507
-0.154065 -0.111951 0.493134
-0.164763 -0.221343 -0.352311
-0.215279 0.566724 0.484899
-0.163211 -0.129265 -0.499174
-0.182661 -0.102666 -0.506568
0.276199 -0.198435 -0.109769
0.562731 -0.468985 -0.432679
-0.191131 -0.144844 -0.497327
-0.245271 0.765554 -0.260729
0.330013 -0.234077 -0.463062
-0.157536 -0.093037 -0.497421
-0.164786 0.448107 0.489386
-0.148232 -0.113390 -0.520636
-0.167450 -0.083396 -0.509868
-0.175345 -0.105605 -0.497160
-0.144651 -0.097735 0.496565
-0.183783 0.140507 0.200352
-0.142263 -0.600868 0.459033
-0.206011 0.062275 0.120703
-0.152309 -0.109644 -0.502439
0.087229 -0.106122 0.040547
-0.136511 -0.099186 0.449465
-0.144776 -0.106308 0.491570
-0.164822 -0.116790 -0.514333
-0.187673 -0.214813 -0.178673
-0.134701 -0.113075 0.489209
-0.145863 -0.108730 -0.514402
-0.115371 -0.203374 -0.157916
-0.125221 -0.108539 0.495965
0.475218 -0.223845 0.287287
-0.155702 -0.118483 -0.512683
-0.188952 -0.043489 -0.458909
-0.165001 -0.101796 0.495318
-0.185300 -0.149667 0.518434
-0.194114 0.493102 -0.062892
-0.148914 -0.117306 -0.502232
-0.162490 0.238232 -0.341598
0.470462 -0.178443 0.514705
-0.308778 -0.112666 -0.079574
0.292719 -0.084522 -0.490652
-0.117411 -0.110226 0.500618
-0.154351 -0.102551 0.500852
-0.143041 -0.128183 -0.495846
-0.083961 -0.140929 -0.526614
-0.165352 -0.119887 -0.508255
-0.159912 -0.115670 -0.517387
-0.134999 -0.093898 -0.123426
0.025888 -0.094635 -0.495214
-0.279428 0.674107 -0.238159
-0.128357 -0.204005 0.060805
-0.156357 -0.100129 -0.505973
-0.193863 -0.172981 0.507552
-0.144103 -0.098995 0.503381
-0.161984 -0.100855 -0.506416
-0.158210 -0.128264 -0.512583
-0.295888 -0.152320 -0.288917
-0.165246 -0.116368 -0.513944
-0.274715 -0.125512 -0.365629
-0.166472 -0.106273 -0.504436
-0.270972 -0.364281 0.506152
-0.172911 -0.112558 -0.512550
-0.163973 -0.109401 0.489913
0.494422 -0.289361 -0.406419
-0.156566 -0.092967 0.499739
0.361730 -0.198332 -0.095612
-0.284419 0.332200 -0.031427
-0.114422 -0.091921 -0.327376
-0.142833 -0.097878 0.497269
-0.146796 -0.117702 0.501586
-0.140143 -0.112704 0.494626
0.111642 -0.109748 0.143008
0.449778 -0.330216 0.338304
-0.153661 -0.115889 0.507727
-0.278777 -0.135196 -0.526646
-0.130513 -0.101721 0.485080
-0.262945 -0.238063 0.154041
-0.211781 -0.204443 0.520371
-0.149332 -0.111800 0.506478
-0.254219 -0.002106 -0.095209
0.502171 -0.099579 -0.529910
-0.131798 -0.098425 0.486195
-0.128660 -0.111378 -0.496524
0.250783 -0.086329 0.478492
0.002327 -0.155021 -0.500519
-0.128550 -0.107864 0.480961
0.555008 -0.304610 0.477290
-0.193825 -0.100379 -0.499135
0.495841 -0.111015 0.518293
-0.178307 -0.102557 -0.510501
-0.256118 -0.068627 -0.306193
-0.182397 -0.217794 0.068931
-0.144985 -0.117525 0.486867
-0.157575 0.127270 0.485796
-0.170151 -0.104438 -0.509111
-0.156859 -0.135161 -0.505863
0.032018 -0.211020 0.223965
-0.097125 -0.091440 0.073592
-0.260804 -0.267477 -0.418208
-0.129454 -0.109078 0.495933
-0.178836 -0.126194 -0.505936
-0.092980 -0.108930 0.244042
-0.150393 -0.120660 -0.514713
-0.163086 -0.103920 -0.510313
-0.162328 0.398320 0.241156
-0.125655 -0.248559 -0.452864
-0.154419 -0.108174 0.505277
-0.287787 -0.035335 0.445657
-0.160229 -0.106940 0.503079
-0.272731 -0.092021 0.382953
-0.156048 -0.096093 0.495365
0.089647 -0.199662 0.151820
-0.208892 -0.136852 -0.483058
-0.138998 -0.109680 0.484778
-0.151884 -0.109613 0.498273
-0.297561 -0.055809 0.169428
-0.201872 -0.032442 0.519817
-0.171013 -0.102630 -0.504826
-0.209321 0.438696 -0.489687
-0.144221 -0.104663 0.487579
-0.143188 -0.109474 -0.498980
-0.138635 -0.115471 -0.507676
0.572515 -0.198227 0.388832
-0.147154 -0.112681 0.495617
-0.271005 -0.005399 0.471827
-0.174452 -0.159628 0.516071
-0.163427 -0.110066 -0.510038
-0.170922 -0.106292 -0.496940
-0.275052 0.214066 -0.417534
-0.157600 -0.115616 -0.504248
-0.160310 -0.099042 -0.515154
-0.151388 -0.117255 -0.511404
0.545292 -0.186912 -0.061275
-0.276287 -0.334736 0.383805
-0.138527 -0.097688 0.499482
-0.161917 -0.110045 0.514620
-0.167441 -0.106767 -0.504858
-0.151964 -0.123101 -0.509079
-0.150549 -0.103503 -0.513334
-0.132318 -0.116178 -0.505513
-0.138330 -0.119026 0.490097
-0.223009 -0.173449 0.513460
-0.261757 -0.187628 -0.050873
-0.145924 -0.124384 -0.511210
-0.103383 -0.211762 0.376423
-0.146615 -0.123258 0.493359
-0.154129 -0.115672 -0.512129
-0.167125 -0.111956 -0.513343
-0.138390 -0.118571 -0.502554
-0.183335 -0.072997 0.518464
0.396877 -0.276798 -0.470312
-0.280460 0.663751 0.222083
-0.277268 0.143743 0.277657
-0.169053 -0.103864 -0.504072
-0.270493 0.229250 0.073757
-0.177363 -0.107169 -0.499944
0.281761 -0.094062 -0.234497
0.064393 -0.214316 -0.486192
-0.150971 -0.108540 -0.503774
-0.176843 -0.103422 -0.504829
0.423002 -0.218866 0.098085
-0.162535 -0.180551 0.482655
0.375882 -0.202968 -0.278261
-0.108469 -0.120162 0.489775
-0.204694 -0.118627 -0.185047
0.540198 -0.115164 0.265530
-0.172724 -0.229206 0.423387
-0.156666 -0.096243 0.478106
-0.248903 -0.577526 -0.418208
-0.152601 0.283538 -0.479605
0.211155 -0.173008 -0.082586
-0.279089 0.522445 -0.405827
-0.163246 -0.114625 -0.498332
0.067602 -0.180491 0.011821
-0.147652 -0.123311 -0.526294
-0.154965 -0.131804 -0.511158
-0.277744 -0.119916 0.372263
-0.150940 -0.128618 -0.511533
-0.110106 -0.102981 -0.448851
-0.179563 0.244573 0.291701
-0.147118 -0.140411 0.508481
-0.213962 -0.040101 0.415563
-0.191417 -0.114154 -0.509081
0.550414 -0.161973 0.336824
-0.138016 -0.107533 0.507407
-0.165401 -0.205346 -0.514672
-0.153321 -0.114526 -0.512079
0.499466 -0.211823 0.157245
-0.295031 -0.572730 0.467104
-0.279016 0.375570 -0.241812
-0.159243 -0.247458 0.349448
-0.194816 0.118171 -0.353207
-0.297933 -0.169192 -0.353429
0.332215 -0.195939 0.058746
-0.105585 -0.099578 -0.481962
-0.277339 0.164615 -0.085351
-0.088712 -0.113898 -0.200780
-0.255892 -0.614958 0.511974
0.045205 -0.087018 0.377397
-0.275330 0.075556 0.524117
-0.172672 -0.119465 -0.506316
-0.148055 -0.162534 0.500714
-0.099178 -0.118363 0.502172
-0.104224 -0.062608 -0.387861
-0.160691 -0.121647 -0.506961
0.212979 -0.098173 -0.166709
-0.155827 -0.107426 -0.496253
-0.157804 -0.091130 0.498820
-0.136072 -0.101454 0.499980
-0.154863 -0.106498 -0.515914
-0.159889 -0.094860 0.475399
-0.144724 -0.121977 -0.497876
-0.147337 -0.112233 0.504747
-0.151050 -0.102108 0.508421
-0.273409 0.225497 -0.337897
0.206217 0.084642 -0.470913
0.164555 -0.112052 -0.322061
-0.263432 -0.264367 -0.155585
0.281283 -0.086303 0.403827
0.150552 -0.196213 0.086173
-0.141089 -0.111787 -0.510728
-0.263038 -0.228805 0.525486
-0.089836 0.160866 0.461889
-0.063795 -0.206649 0.525028
-0.254259 0.590852 -0.191151
-0.123187 -0.108940 -0.511411
-0.146369 -0.104922 0.495342
-0.178434 -0.101328 0.505486
0.010360 -0.205370 -0.154843
-0.168144 -0.109609 0.510093
-0.220998 0.670828 -0.033384
0.283769 -0.137810 0.476086
-0.151355 -0.106000 0.495094
-0.189313 0.045497 0.490668
0.145849 -0.216040 0.341785
0.107295 -0.107699 -0.036073
0.558946 -0.179316 0.270672
-0.155731 -0.104366 -0.506034
0.003232 -0.191969 0.470037
-0.208052 0.006690 -0.536728
-0.146728 0.327746 0.283185
0.290778 -0.196248 0.420454
-0.148811 -0.101948 0.496137
-0.145469 -0.074143 0.478375
0.391019 0.072265 0.467737
-0.180246 0.239624 -0.059468
-0.162949 -0.120894 -0.519044
0.294624 -0.103640 0.225245
0.101682 -0.173886 0.278447
-0.129369 -0.094912 -0.511330
-0.096064 -0.079882 0.317619
-0.166323 0.209255 -0.497963
-0.273713 0.063451 -0.430513
0.502742 -0.416428 -0.367227
0.069005 -0.107445 -0.186010
0.275738 -0.102595 -0.424272
-0.150483 -0.118223 -0.499412
-0.278991 0.089266 0.273509
-0.141660 -0.099006 0.492060
0.011212 -0.188162 0.400767
-0.272761 0.270076 0.156377
-0.181770 0.011938 0.030058
0.415927 -0.181212 0.490597
-0.173723 -0.119504 -0.513271
-0.144722 -0.113646 0.498742
-0.133166 -0.097758 0.488636
-0.161215 -0.134739 -0.514987
0.066063 -0.183730 -0.267913
-0.142462 -0.108688 -0.505073
-0.277215 0.076104 -0.495276
-0.149534 -0.105547 0.494836
-0.004595 -0.145379 -0.515174
-0.156882 -0.107594 0.492586
-0.175269 -0.198014 -0.503248
-0.245930 -0.110906 -0.389578
-0.187588 0.588970 0.522974
-0.163795 -0.158655 0.507708
0.538115 -0.110692 -0.515222
-0.159642 -0.113479 0.488797
-0.263674 -0.433605 -0.519198
-0.162510 -0.101309 0.499622
-0.150720 -0.105062 -0.509959
-0.168539 0.697076 0.397269
-0.299672 0.101458 0.466389
-0.169543 -0.065841 -0.492717
-0.143640 -0.111413 0.498345
-0.160610 -0.122511 -0.519899
-0.127096 -0.087912 0.490976
-0.157587 -0.083354 0.367109
-0.174303 -0.111206 -0.502940
-0.152328 -0.106672 -0.519010
-0.292908 -0.093485 -0.234788
-0.169293 -0.117536 -0.516688
-0.114564 -0.093782 0.407103
-0.177407 -0.101285 -0.503706
0.527294 -0.181352 0.061265
-0.167998 -0.102206 0.510372
-0.160796 0.226077 0.045844
-0.163740 -0.109380 -0.511731
-0.162222 -0.136546 -0.521776
-0.128253 -0.137297 -0.500919
-0.279310 0.049465 0.203291
-0.112027 0.566784 -0.495553
-0.154891 -0.104406 0.496173
-0.269345 -0.423493 -0.403741
-0.025243 -0.166168 -0.366510
-0.269701 0.347584 0.254519
0.313939 -0.094503 -0.186452
-0.281398 0.130150 -0.419683
0.038393 -0.189321 -0.499369
0.540607 -0.158613 0.452693
-0.144592 -0.104952 -0.493864
0.233518 -0.099018 -0.226854
-0.169337 -0.173636 0.493555
-0.155985 -0.112045 -0.500389
-0.153580 -0.109453 -0.509029
-0.201987 -0.092183 -0.486609
-0.189521 -0.172190 0.220440
-0.195934 0.577705 -0.071842
0.399148 -0.197591 0.229897
-0.154897 -0.093094 0.480061
-0.138037 -0.113845 0.497567
0.504697 -0.549549 0.331755
0.176339 -0.072008 0.577267
-0.145523 -0.109888 -0.501000
-0.140517 -0.107348 0.505813
-0.143919 -0.098103 0.478829
-0.167457 -0.113100 -0.502789
0.212071 -0.203116 -0.515764
-0.146182 -0.108142 0.473439
0.212407 -0.109374 0.418752
-0.192978 0.491500 -0.515839
-0.244097 -0.281228 0.040670
-0.281560 0.584453 0.375987
-0.143527 -0.108881 0.496319
-0.146531 -0.113977 0.486007
-0.152740 -0.110719 0.482658
-0.253765 0.392628 -0.070897
0.543541 -0.102577 0.351597
-0.125097 -0.592859 -0.464906
-0.056451 -0.057505 -0.469242
-0.190648 0.662521 -0.296607
-0.176540 -0.376076 0.466624
-0.149356 -0.109360 -0.501229
-0.133984 -0.118850 -0.520446
0.265290 -0.220947 0.327779
-0.074754 -0.087829 0.531106
-0.204755 -0.135765 -0.042200
-0.277850 0.737383 -0.063600
-0.251614 0.731479 -0.431248
-0.163565 0.103164 0.292789
-0.180199 -0.708988 -0.393311
0.523020 -0.115259 0.017996
-0.140538 -0.105528 0.497871
0.112176 -0.099109 -0.528109
-0.193791 -0.101634 0.495923
-0.122167 -0.111103 0.502533
0.533686 -0.529768 -0.362755
-0.144139 -0.102489 0.489118
-0.159016 -0.102090 -0.505166
-0.157714 -0.099240 -0.504445
0.465110 -0.098562 -0.000791
-0.143586 -0.102742 0.503417
-0.154428 -0.208215 0.486158
0.463469 -0.584122 0.506630
-0.122609 -0.120847 -0.503101
-0.178426 0.584790 0.433032
-0.280635 0.624200 -0.340322
0.433037 -0.292272 0.473093
0.573250 -0.272693 -0.386049
0.057037 -0.102270 -0.394249
-0.092930 -0.080409 -0.152058
-0.189778 -0.129190 -0.501294
-0.142823 -0.124994 0.498388
0.391214 -0.189111 -0.373049
0.139767 -0.109799 0.284797
0.266946 -0.191114 0.142241
-0.139586 -0.117961 0.507465
-0.191368 -0.120359 -0.512749
-0.158422 -0.104518 0.502980
-0.121504 0.092156 -0.376936
-0.178593 -0.051640 -0.376243
0.314159 -0.231137 -0.165462
-0.033825 -0.102493 0.508090
0.471172 -0.448571 -0.491836
-0.195595 -0.215144 -0.471108
-0.123888 0.510548 -0.372500
0.552164 -0.109211 -0.359202
-0.278346 -0.302633 0.461129
-0.134441 -0.111602 0.499387
-0.140233 -0.107492 0.489900
-0.270940 -0.003276 -0.387533
-0.143203 -0.095570 0.492920
-0.147357 -0.112319 -0.505676
0.346020 -0.053501 -0.494313
0.530915 -0.260982 -0.484978
-0.156806 0.147610 -0.166955
-0.190880 -0.229116 -0.093872
-0.144696 -0.112775 0.527009
-0.167888 -0.105161 -0.506562
-0.134645 -0.102154 0.502701
-0.148066 -0.109934 0.486155
-0.130930 -0.103711 0.502915
0.019667 -0.094898 0.296681
-0.152312 -0.107328 -0.505478
0.274870 -0.101474 -0.365674
-0.161530 -0.105345 0.510150
0.354287 -0.177795 0.520192
0.058818 -0.192141 0.495095
-0.172196 -0.099662 -0.508694
-0.135460 -0.112003 -0.492584
-0.253786 0.488207 -0.482447
-0.178594 0.727193 0.127853
-0.199239 0.564091 -0.525923
-0.169669 -0.019209 -0.201893
-0.312840 -0.210073 -0.449472
-0.104092 -0.149960 -0.502024
-0.182549 0.366704 0.500154
-0.169373 -0.140206 0.486857
-0.151733 -0.112218 -0.504218
0.464342 -0.110336 -0.501075
-0.277427 -0.111657 -0.007564
-0.176832 -0.132037 -0.498958
0.444945 -0.171929 0.234825
-0.167130 -0.107103 -0.506504
0.316568 -0.171484 0.507320
-0.172940 -0.113769 -0.503761
-0.145776 -0.122149 -0.515081
-0.143343 -0.099023 0.499305
-0.169934 -0.100809 0.491592
-0.163280 -0.106630 -0.499991
0.076881 -0.101321 -0.135015
-0.122528 -0.095316 0.476693
-0.132435 0.579989 0.233913
0.308105 -0.075723 0.492194
-0.156469 -0.123730 0.483474
-0.185318 -0.106902 -0.505752
-0.248570 0.262802 0.368665
-0.173846 0.604097 0.050938
-0.008394 -0.194548 -0.516591
0.381174 -0.087286 -0.483172
-0.133773 -0.119521 0.500937
0.374000 -0.108228 -0.034949
-0.276310 -0.165648 -0.402093
-0.183544 0.598853 -0.287273
-0.286147 0.019720 -0.187202
-0.279801 0.009536 -0.004165
0.428232 -0.098736 0.276974
-0.296837 0.036829 0.480055
0.550305 -0.596208 -0.475183
-0.133493 -0.112147 0.495334
-0.178001 -0.101555 0.494085
-0.243834 -0.070830 0.318449
-0.072613 -0.210807 -0.493368
-0.144672 -0.114526 0.497099
-0.147156 -0.094073 0.491815
-0.169226 -0.112490 -0.511856
-0.161367 -0.115060 -0.466643
-0.265660 0.250154 -0.511480
-0.264959 0.277274 -0.083667
-0.149948 -0.120732 0.515351
0.225393 -0.204665 -0.341454
-0.066105 -0.096216 -0.342478
0.498810 -0.641606 0.503176
0.487934 -0.106875 -0.395231
-0.215769 -0.194114 -0.531234
-0.160540 -0.097486 -0.509719
-0.150265 -0.136776 -0.321805
-0.172638 0.388140 0.325003
0.457155 -0.166227 -0.337112
0.057783 -0.107219 0.283987
-0.217325 -0.122555 0.499541
-0.150376 -0.120137 -0.508264
-0.171068 -0.100420 -0.516821
-0.275076 -0.664122 0.450378
-0.163070 -0.101816 -0.517673
-0.158957 -0.093305 0.518093
-0.187284 -0.079510 0.494764
-0.166286 -0.084380 0.471035
0.520047 -0.058190 0.470037
-0.164659 -0.106384 -0.509064
-0.269146 0.197611 0.216299
-0.148911 -0.107352 0.483185
-0.134799 -0.111365 0.484159
-0.260272 -0.273185 -0.514225
-0.134434 -0.108098 0.496438
-0.159959 -0.124120 -0.496325
-0.149595 -0.103084 -0.513951
-0.163505 -0.112964 -0.508807
-0.284082 0.610800 0.173187
-0.176686 -0.120724 -0.511709
0.441049 -0.367226 0.417623
0.022625 -0.203308 -0.068135
-0.154132 -0.123929 -0.510824
0.205430 -0.169565 -0.490837
-0.285613 0.153851 0.029932
-0.281528 0.440383 0.316905
-0.158894 -0.107931 -0.515947
-0.179041 -0.105209 -0.502418
-0.264058 -0.183785 0.393797
-0.011649 -0.104942 -0.413732
-0.281494 0.449831 0.512638
-0.168399 -0.110050 -0.511054
-0.296541 0.691732 0.160256
0.510273 -0.137249 -0.468818
0.184726 -0.100382 0.327605
0.048740 -0.090697 0.486374
-0.138583 -0.129601 -0.494719
-0.161460 -0.093348 -0.509129
-0.165481 -0.060857 0.078332
-0.284129 0.682423 0.306738
-0.229660 -0.193369 0.355038
-0.084988 -0.111019 -0.493059
-0.198605 -0.150661 -0.513831
-0.153692 -0.127944 -0.513222
-0.148245 -0.096717 0.494137
-0.146556 -0.119846 0.491364
-0.155750 -0.108408 -0.492392
-0.125157 -0.106710 0.490504
-0.121560 -0.129612 0.514205
-0.158201 -0.108203 -0.514712
-0.145115 -0.142330 -0.502537
-0.185129 -0.092885 0.511248
-0.184528 -0.057095 0.496131
-0.286023 0.571333 0.481086
-0.163405 -0.112702 -0.514931
-0.292984 -0.406772 0.492515
-0.282344 -0.173673 -0.505280
-0.157976 -0.104932 -0.501719
-0.146221 -0.107719 0.490513
-0.161900 -0.229037 -0.313468
-0.142977 -0.104166 0.496273
-0.124727 -0.120478 0.500471
0.104172 -0.104584 0.493858
-0.139359 -0.136436 -0.503506
-0.153088 -0.106010 -0.515557
-0.160776 -0.120661 -0.507238
-0.145602 -0.111304 0.488886
-0.224900 -0.069973 0.042581
-0.279170 0.546588 0.325844
-0.303980 -0.056784 -0.458888
-0.127364 -0.119521 -0.495892
-0.222388 -0.255815 -0.273183
-0.166867 -0.119711 -0.503681
0.011987 -0.100562 0.198074
-0.143943 -0.129862 -0.492404
-0.148565 -0.106558 0.487013
0.482011 -0.648738 -0.494986
-0.151055 -0.106276 -0.509474
-0.173378 -0.122953 -0.507878
-0.199786 -0.099824 0.504127
-0.100816 -0.132179 -0.511177
-0.202687 -0.170694 -0.513015
-0.144938 -0.107664 -0.511063
-0.199140 0.165132 0.536989
0.007520 -0.103293 -0.135977
-0.169099 -0.104855 -0.506513
-0.014103 -0.092309 -0.035651
-0.156714 0.367701 0.171744
0.150453 0.049957 0.473400
-0.305509 -0.077637 0.048756
-0.127623 -0.155973 -0.518733
-0.156799 -0.103489 -0.502811
0.288781 -0.142583 0.532789
0.580916 -0.125002 -0.187184
-0.160541 -0.118640 -0.510859
-0.139271 -0.109787 0.500716
-0.144108 -0.084564 -0.452631
-0.149285 -0.104417 0.489356
-0.166656 -0.108911 0.505342
-0.160725 0.358506 -0.423491
-0.138409 -0.103902 0.497673
-0.128121 -0.104869 0.506124
0.481949 -0.626852 -0.346399
-0.284660 0.590963 -0.425052
-0.168629 0.326590 -0.020319
-0.154389 -0.110385 -0.509146
-0.150564 -0.122780 -0.515270
-0.055093 -0.202255 -0.392946
-0.052634 -0.136509 0.508168
-0.135101 -0.102136 0.509224
-0.141508 -0.108428 -0.504855
0.197752 -0.102765 -0.054011
-0.276506 0.479285 -0.257970
0.103329 -0.222866 0.062231
-0.047709 -0.099402 -0.442192
-0.192763 -0.593285 -0.358284
-0.129924 -0.127470 0.502811
-0.226551 -0.095145 0.497047
-0.160607 -0.093581 -0.116433
-0.144363 -0.111802 0.501428
-0.162173 -0.118663 -0.516686
0.358032 -0.161821 0.235498
-0.170974 -0.111219 -0.494637
-0.129615 -0.077765 0.133557
-0.167164 0.612975 -0.429403
-0.125281 -0.105200 0.485299
0.334541 -0.110109 -0.333953
0.010956 -0.101711 0.058719
-0.268978 0.202093 0.519069
-0.142126 -0.129418 0.483418
-0.144664 0.588162 -0.150654
-0.197879 -0.068551 -0.500745
0.205161 -0.091157 0.141542
-0.136190 -0.124981 -0.510639
-0.286836 0.252501 -0.032707
-0.142977 -0.127433 0.493684
-0.164353 -0.121160 0.498205
-0.133122 -0.109728 0.488467
-0.162109 -0.097581 0.495215
-0.268034 0.299211 -0.182014
-0.181947 -0.098855 -0.510219
-0.174423 -0.247377 0.492991
-0.174698 -0.099107 -0.503471
0.328562 -0.168476 -0.512627
-0.144143 0.544760 -0.031989
-0.192844 -0.398343 -0.490592
-0.172012 -0.106316 -0.515664
-0.006182 -0.185285 0.188858
-0.168673 -0.144089 0.474597
0.227512 -0.101321 0.218148
0.541178 -0.417389 -0.369098
-0.155942 -0.117709 -0.511696
-0.124800 -0.100676 0.483318
-0.198203 -0.296567 -0.486082
-0.279992 0.227571 -0.241051
-0.133088 -0.117732 0.503450
-0.211954 0.419356 0.552984
-0.177195 0.424768 -0.300409
-0.159931 -0.138058 -0.495080
-0.144674 -0.118290 -0.510956
-0.227572 -0.463644 0.505728
-0.146013 -0.105414 0.480225
0.450544 -0.110757 -0.065763
-0.144473 -0.104175 -0.505330
0.009636 -0.148952 0.450860
-0.181288 -0.115834 -0.509218
-0.176246 0.508898 -0.192625
-0.154036 -0.117793 -0.497471
-0.156198 -0.117978 -0.516031
0.003038 -0.218732 -0.512851
-0.142818 -0.113290 0.494831
-0.096932 -0.209082 -0.059672
-0.148632 -0.109680 -0.510144
-0.162448 -0.119143 -0.502098
-0.238347 -0.164650 0.502769
0.562699 -0.210474 -0.470838
-0.134779 -0.108986 0.307181
-0.145656 -0.110631 0.495393
-0.125402 -0.112155 0.498074
-0.187948 -0.022714 -0.505302
-0.291296 0.486006 0.361025
-0.145204 -0.124045 -0.520188
-0.115205 -0.107027 -0.513445
-0.163755 -0.180284 0.483961
-0.139106 -0.102730 0.504135
-0.032931 -0.096064 0.231375
-0.161440 -0.112313 0.493023
0.411952 0.056108 -0.473029
-0.049934 -0.194639 0.416243
0.388005 -0.106196 0.231121
0.427241 -0.202765 0.012751
-0.138852 -0.150083 -0.503339
0.455993 -0.163739 -0.430853
-0.110789 -0.130745 -0.500251
-0.162884 -0.113977 -0.504912
-0.140178 -0.111705 0.501382
-0.169678 -0.107271 -0.507130
-0.232763 -0.213508 -0.499894
-0.141008 -0.109650 0.489532
0.537329 -0.165166 -0.313043
0.062465 -0.131799 0.450861
-0.141080 -0.102460 -0.503719
-0.155764 0.549982 0.136712
-0.161504 -0.108712 0.508012
-0.173696 0.057665 -0.484401
0.367732 -0.115643 -0.473824
-0.169151 -0.042729 0.500542
-0.181039 -0.084763 0.511107
-0.176970 -0.103031 -0.517408
-0.159016 -0.123124 -0.511332
-0.156404 -0.147799 -0.510508
-0.175970 -0.107281 -0.507686
-0.149114 -0.107795 0.495787
-0.170713 -0.095282 0.501054
-0.158807 -0.090765 0.500233
-0.174097 -0.107759 -0.508993
-0.229683 0.686367 0.116555
-0.294894 0.409315 0.226100
-0.148361 -0.113890 0.520787
-0.153981 0.470773 0.284245
-0.155979 0.063947 -0.147203
-0.286134 -0.168348 -0.507825
-0.103276 -0.201014 0.266202
-0.161076 -0.115013 -0.498562
0.527385 -0.113808 -0.171839
-0.151125 -0.117833 -0.509121
-0.072178 -0.194536 -0.329263
-0.169179 -0.063279 -0.515548
0.334760 -0.097673 0.292270
-0.152498 0.405895 -0.034061
0.178569 -0.191144 0.516859
0.436391 -0.111542 0.189508
-0.279046 0.407283 -0.481111
-0.105024 0.400794 0.463061
-0.161411 -0.099309 -0.513796
-0.172765 -0.110626 -0.508827
-0.052666 -0.199217 0.240655
-0.139437 -0.102115 0.492548
-0.191501 -0.065194 -0.490173
-0.072975 -0.095635 0.464191
-0.238280 -0.147792 -0.459498
0.520338 -0.051738 -0.500619
0.491479 -0.212427 -0.189560
-0.283071 -0.076386 -0.342060
-0.175052 -0.456680 -0.504177
-0.148375 -0.119103 0.496310
-0.248867 0.034711 -0.172448
-0.159767 -0.094746 0.507389
-0.155097 -0.099926 -0.510487
-0.156322 -0.102501 0.483890
-0.130530 -0.129050 -0.500102
-0.282841 -0.118470 0.081846
-0.138971 -0.110819 -0.508929
-0.157050 -0.116256 -0.499955
-0.138272 -0.114784 0.500311
0.004410 -0.109102 -0.211674
-0.195394 -0.185958 0.509498
0.440621 -0.199294 -0.090910
-0.277229 0.344789 -0.407238
0.008695 -0.202478 0.519938
-0.133716 -0.111770 -0.504505
0.435969 -0.234878 0.367147
-0.282265 0.609353 -0.010695
-0.245311 -0.120470 0.142038
-0.280012 0.270035 0.262056
-0.154773 0.066039 0.185211
0.230895 -0.190609 0.232012
-0.131068 -0.125514 -0.508811
-0.192361 -0.149536 -0.520054
-0.303995 0.620811 -0.129827
-0.136940 -0.194871 0.196534
-0.179606 -0.128829 -0.354974
-0.147121 -0.113195 0.497574
-0.189886 -0.670630 0.482194
-0.118856 -0.005122 0.198277
-0.130852 -0.107620 0.475063
-0.242984 0.056498 -0.425670
-0.146137 -0.121787 -0.516117
-0.156897 -0.103351 0.486401
-0.095065 -0.189027 -0.499535
-0.142666 -0.114538 0.503219
-0.163299 -0.112826 -0.507099
-0.136480 -0.127505 -0.516836
-0.160600 -0.112007 -0.516582
-0.155963 -0.110216 -0.513333
-0.279382 0.236224 -0.153856
-0.179562 0.251949 -0.151465
0.326168 -0.209041 -0.409770
-0.162009 -0.106430 0.495481
-0.141912 -0.116308 -0.506412
-0.148288 -0.108347 0.491543
-0.274975 0.470501 0.088371
-0.161104 -0.093666 -0.509211
-0.214927 0.086003 0.470569
-0.156081 -0.114306 -0.511938
-0.139179 -0.097513 0.489578
-0.155914 0.489444 0.185797
0.017137 -0.110159 -0.491707
0.513380 -0.151879 0.512577
-0.280708 -0.055728 0.257154
-0.147442 -0.110437 -0.506801
-0.233266 0.765968 0.382382
-0.197774 0.338403 0.102052
0.524814 -0.533458 -0.486995
-0.134159 -0.114348 -0.508998
-0.139188 -0.111937 0.499544
0.532710 -0.640599 -0.429425
-0.151701 -0.127929 -0.509161
0.540733 -0.147339 0.492402
0.373465 -0.177737 -0.441123
-0.014072 -0.197306 -0.228614
-0.143672 -0.108482 0.493540
0.534876 -0.357972 0.411998
-0.272853 0.117056 0.359937
-0.162138 -0.108178 -0.511141
-0.275778 0.571226 -0.486469
-0.144361 -0.103765 0.503277
-0.156855 0.320246 -0.166268
-0.154711 0.645168 0.089133
-0.174341 -0.123347 -0.511855
0.266568 -0.199806 -0.501628
-0.151853 0.234809 -0.245032
-0.187633 -0.119614 -0.503419
0.435378 -0.112846 0.516125
-0.159718 -0.122177 -0.501955
-0.197413 -0.355527 0.407274
-0.144436 -0.098673 0.493383
0.565116 -0.185595 0.023431
-0.159491 -0.122536 -0.519902
-0.162217 -0.115420 -0.515905
-0.154491 -0.127885 -0.508830
-0.136489 -0.116646 0.504426
0.546354 -0.091381 -0.448582
-0.126565 -0.118755 -0.519605
0.368943 -0.071395 0.575344
-0.008831 -0.084219 0.403611
0.346819 -0.099673 -0.211723
-0.267174 -0.220378 0.221146
-0.026683 -0.196799 -0.066240
-0.129759 -0.128852 0.497718
0.432118 -0.199317 0.438461
0.542553 -0.117943 0.157968
-0.119115 -0.126745 -0.511985
-0.170902 -0.119673 -0.510214
-0.241261 -0.133434 0.484214
0.334597 -0.078106 0.393306
-0.168786 0.129091 0.112209
-0.280580 0.425192 -0.316562
-0.141837 -0.105520 0.486719
0.241700 -0.094021 -0.288898
0.226930 -0.212453 -0.245577
-0.130521 -0.104279 0.495869
0.381240 -0.107176 0.498844
-0.126771 -0.126715 -0.495183
-0.205091 0.497389 0.492281
-0.165751 -0.117663 -0.514912
-0.159332 -0.107560 -0.509552
-0.143314 -0.134607 0.517449
0.219788 -0.137643 0.528312
-0.148065 -0.125590 -0.496124
0.359001 -0.199432 -0.034070
-0.289127 0.516193 -0.492178
-0.165666 -0.107637 -0.502124
0.140836 -0.233645 -0.480203
-0.147813 -0.114490 0.497763
-0.117365 -0.241575 0.510134
-0.118687 -0.114807 -0.505320
-0.222883 0.168111 -0.132467
0.291777 -0.113312 0.100498
-0.214185 -0.154951 0.298826
-0.182672 0.146511 -0.268748
-0.159552 -0.121916 -0.508980
-0.168066 -0.115019 -0.508791
-0.226166 -0.295582 0.516840
0.315061 -0.176941 -0.005647
-0.159133 -0.120657 -0.500423
-0.164969 -0.103803 -0.510883
-0.176126 -0.114049 -0.512714
-0.191711 -0.038832 0.149801
-0.136129 -0.111292 0.505014
-0.298892 0.424906 0.011314
-0.137018 -0.107167 -0.498790
0.546107 -0.559696 0.495703
-0.152109 -0.114260 -0.503652
-0.140670 -0.180340 0.515873
-0.165954 -0.098472 -0.505009
-0.163031 -0.247478 -0.517613
-0.212349 -0.012213 -0.320492
-0.162160 0.646991 0.325854
-0.139981 -0.100812 0.482784
-0.160612 -0.107126 -0.505709
0.351812 -0.076716 -0.406755
-0.271304 0.527057 0.513305
-0.158816 -0.116524 -0.512712
-0.163341 -0.119679 -0.513667
-0.146776 -0.103648 0.498118
0.421965 -0.372178 -0.493260
-0.297103 0.550305 0.033098
-0.173261 0.586891 0.341861
-0.159995 -0.114689 -0.505643
-0.168469 -0.114049 -0.500437
0.452531 -0.090917 -0.456047
0.189965 -0.128770 -0.519808
-0.147505 -0.074331 0.499576
-0.121156 -0.113747 0.492790
-0.164364 -0.107303 -0.498724
-0.160032 -0.132703 -0.518111
-0.163603 -0.123466 -0.506845
-0.227553 0.800396 0.015877
-0.146890 -0.105720 -0.502454
-0.165624 -0.112473 -0.501365
-0.278140 0.347033 0.163767
-0.155543 -0.106749 -0.499773
-0.161587 -0.104156 -0.514351
-0.002490 -0.224607 0.461144
-0.281657 -0.298411 -0.477822
-0.166498 0.646045 0.504309
-0.047519 -0.153260 -0.506256
-0.262437 -0.336473 -0.380438
-0.135816 -0.116893 0.502800
0.543631 -0.336717 -0.392535
-0.111910 -0.044682 0.298064
-0.154425 -0.292334 0.493225
0.270754 -0.171024 -0.385618
0.045758 -0.205900 0.331173
0.567473 -0.411483 0.479732
-0.113300 -0.099033 -0.494146
-0.224326 0.270913 0.484783
-0.168811 -0.101513 -0.512019
0.038567 -0.106821 -0.277944
-0.163513 -0.103968 0.485003
-0.176921 -0.118053 -0.497441
-0.135866 -0.117701 0.510461
-0.187614 -0.189763 0.285692
-0.153677 -0.090106 0.490323
-0.152234 -0.113655 -0.511787
-0.170213 -0.097745 -0.512771
-0.265043 -0.673525 -0.453722
-0.157191 -0.081155 0.503187
0.282030 -0.204706 0.047331
-0.231701 0.192673 -0.522948
-0.285383 0.729588 0.052211
-0.217708 -0.110735 0.473637
-0.210522 0.691343 0.362316
-0.165552 0.626857 -0.136816
-0.192014 -0.115370 -0.509125
-0.166059 -0.124444 -0.512850
-0.183197 0.228797 -0.398043
-0.155280 -0.130744 0.502870
-0.169710 -0.123184 -0.512553
-0.127487 -0.106419 -0.503512
-0.084586 -0.193414 -0.013687
-0.148832 -0.113723 0.489997
-0.172895 -0.103910 0.500324
-0.152912 -0.146962 -0.502883
-0.134854 0.208513 0.225298
-0.167729 -0.121368 -0.510041
0.558926 -0.263664 0.404911
-0.149648 -0.108828 0.481538
-0.066744 -0.085829 -0.255636
0.232909 -0.106652 0.069269
0.458924 -0.071311 0.395804
-0.307261 -0.171897 -0.174548
-0.154000 -0.110724 0.487708
0.454200 -0.708457 -0.413501
-0.149625 -0.109385 0.488850
-0.044350 -0.170509 0.115046
-0.289891 0.292713 0.419765
-0.146036 -0.100268 -0.509031
-0.140721 -0.111986 0.494828
0.576872 -0.165606 -0.134487
-0.168710 -0.105299 -0.513317
-0.155256 -0.133327 0.508554
-0.022664 -0.094907 0.311188
-0.175910 -0.106498 -0.502264
-0.151719 -0.130870 -0.499444
0.474073 -0.245217 0.513133
-0.175899 -0.110160 -0.506115
-0.092228 -0.108978 -0.498027
0.038750 -0.120958 -0.338721
-0.148329 -0.102859 -0.499189
-0.195804 -0.220949 -0.117446
-0.277567 0.041796 0.390512
-0.268826 0.476106 -0.174690
-0.144409 -0.094154 0.489153
-0.163372 -0.082556 -0.469919
-0.222459 -0.099358 -0.511694
-0.130311 -0.120165 -0.512782
-0.271993 0.700979 0.443999
-0.166338 -0.109146 -0.515144
-0.076558 -0.111382 0.468667
-0.173642 0.727133 -0.467252
-0.148068 -0.109368 0.486272
0.159720 -0.204669 -0.455332
0.036831 -0.120347 0.540193
-0.143803 -0.098061 0.471235
-0.174048 -0.128003 -0.501329
-0.148133 -0.105000 0.485410
-0.252263 -0.400928 0.361289
-0.150761 -0.118339 0.495874
-0.132820 -0.119983 -0.505226
-0.173628 -0.120980 -0.511461
-0.156776 -0.197126 -0.396497
0.575100 -0.197414 0.484518
-0.151853 -0.111686 0.496084
-0.175007 0.175019 -0.383466
-0.155480 -0.455171 0.467529
-0.179122 -0.094373 -0.499629
-0.141176 -0.106717 0.483122
-0.165636 -0.119508 -0.501317
-0.274132 -0.224515 0.481754
0.546923 -0.419584 0.371931
-0.137833 -0.117304 0.499482
-0.231855 -0.374973 0.513003
-0.285087 0.540077 0.420910
-0.098320 -0.057977 -0.492367
-0.266259 -0.201807 0.079893
-0.228139 0.795417 -0.144798
-0.169006 -0.077082 0.494297
0.405923 -0.617462 0.477626
-0.228763 -0.126919 0.525860
-0.179820 -0.211447 0.157837
-0.165713 -0.114157 -0.512341
-0.108534 -0.182927 -0.461806
-0.185768 -0.440952 0.389904
-0.270136 0.218041 0.320820
0.493268 -0.107187 0.275101
0.525083 -0.101136 -0.054459
-0.112035 -0.103928 0.464327
-0.182144 0.528929 0.241293
-0.146691 -0.182695 -0.504545
-0.151016 -0.115686 0.496207
-0.127403 -0.106946 0.495038
0.155036 -0.171500 -0.504562
-0.112161 -0.041782 -0.186656
-0.152054 -0.126245 -0.507012
-0.129986 -0.103064 0.488776
-0.145291 -0.139035 0.508032
-0.170087 -0.106138 -0.515287
-0.142288 -0.087996 0.495300
0.001659 -0.089288 0.450956
-0.131504 -0.113614 -0.063676
-0.147023 -0.188190 -0.518721
0.590642 -0.132135 0.202968
0.400763 -0.115589 -0.006921
0.476533 -0.194226 -0.269089
-0.154834 -0.114587 -0.509065
0.452636 -0.526389 -0.385862
-0.142130 -0.111443 -0.516095
-0.256247 -0.492118 -0.370343
-0.170406 -0.111610 -0.508334
-0.292016 0.508305 0.253376
0.040025 -0.086550 -0.426984
-0.142443 -0.127889 -0.501527
-0.140728 -0.117081 0.490831
0.183594 -0.218996 -0.441491
0.346647 -0.183705 0.334460
-0.157323 -0.085036 -0.494205
-0.163154 -0.106707 -0.508551
-0.154993 -0.121473 -0.509763
-0.157000 -0.110117 -0.505768
-0.155022 -0.112979 -0.505819
-0.291736 0.059857 0.070989
-0.150901 -0.110417 0.476477
-0.187173 -0.097476 0.496079
-0.233913 -0.205955 -0.472197
0.252884 -0.111849 0.503982
-0.166484 0.539756 -0.423616
-0.130798 -0.114682 -0.505237
-0.181830 -0.115407 -0.511793
0.499771 -0.335555 0.509125
-0.161625 -0.102296 0.482227
-0.148251 -0.108763 -0.501859
-0.241910 -0.102858 -0.216168
-0.151709 -0.115469 0.495402
-0.208085 0.738246 0.506156
0.024732 -0.125847 0.497022
-0.160669 -0.116006 -0.506468
-0.155916 -0.129700 0.495772
-0.147024 -0.244781 -0.412929
-0.160293 -0.106312 0.501481
-0.055719 -0.192185 0.068426
0.407719 -0.098652 -0.365540
-0.158796 -0.128466 -0.514293
-0.156675 -0.119869 0.507940
-0.084116 -0.167317 0.485179
0.468640 -0.136872 0.505777
-0.284991 -0.211531 -0.255184
-0.158612 -0.112474 -0.500739
-0.210975 -0.122556 -0.516284
-0.150771 -0.108103 -0.507692
-0.155845 -0.116200 -0.501454
-0.164019 0.318087 0.369637
-0.159328 -0.108820 -0.509557
-0.084839 -0.133826 -0.500933
-0.150938 -0.119168 -0.509377
-0.166583 -0.105842 -0.509410
-0.182385 -0.109496 -0.511353
-0.138907 0.236832 0.493521
-0.143735 -0.116037 0.479784
-0.140390 -0.113512 0.496445
-0.284695 0.343148 -0.130585
-0.279866 0.209213 0.421392
0.532405 -0.137143 -0.015230
-0.158484 -0.141598 0.509357
0.111467 -0.202988 0.488614
-0.163287 -0.109894 -0.512419
-0.124095 -0.095087 -0.493972
-0.139695 -0.113140 -0.496359
-0.167832 0.382237 0.419561
0.325676 -0.196400 0.225656
-0.148706 -0.107254 0.494328
-0.154283 -0.116760 -0.516222
-0.247170 -0.163411 0.505815
0.546548 -0.077587 0.491353
-0.280145 0.662119 0.054126
-0.170034 -0.125869 -0.514453
-0.224018 -0.444646 0.356069
0.411448 -0.085156 -0.412370
0.012140 -0.185117 0.275359
-0.186605 -0.131163 -0.506340
-0.226441 -0.172525 0.049555
0.193088 -0.101019 -0.243092
-0.132051 -0.109191 -0.512259
-0.281920 0.381060 0.481822
-0.187237 0.700368 -0.372493
-0.096730 -0.157653 0.462047
-0.242298 -0.217706 0.005627
0.512642 -0.474395 0.489102
0.433346 -0.083218 0.095056
0.397719 -0.174251 -0.520068
-0.150625 -0.134268 0.511879
-0.172427 -0.198162 0.517411
-0.172284 -0.108889 -0.511139
-0.193233 0.200849 0.355969
-0.144932 -0.104452 0.498697
-0.168471 -0.106903 -0.508829
0.042904 -0.099447 -0.066534
-0.157779 -0.085061 0.507658
0.591535 -0.122589 0.463164
0.078589 -0.191488 0.369251
-0.137601 -0.103114 -0.482249
-0.166047 -0.103566 0.504423
-0.162626 -0.093633 -0.506246
-0.179448 -0.092895 -0.494158
-0.146054 0.095608 0.054022
-0.157388 -0.116568 -0.508596
-0.146142 -0.111889 0.495683
-0.192327 -0.097397 -0.512285
-0.147710 -0.122871 -0.501409
-0.163648 -0.098261 0.519541
0.217980 -0.217130 -0.425396
0.531288 -0.260295 0.500851
0.339146 -0.123334 0.524073
-0.145028 -0.113259 0.498741
-0.270145 0.150899 -0.346114
-0.148601 -0.111866 0.486058
-0.166355 -0.118970 -0.512083
0.077213 -0.116806 -0.514657
-0.173205 -0.137322 -0.505586
0.242665 -0.084440 -0.492699
0.197291 -0.215137 0.145345
-0.190107 0.368646 -0.366482
0.153326 -0.249016 0.462116
-0.142934 -0.112462 -0.505723
-0.229817 -0.413468 -0.358431
0.450336 -0.100415 -0.205482
-0.012373 -0.100518 -0.254958
0.103753 -0.149926 -0.090463
-0.134718 -0.113735 0.494240
0.315581 -0.097576 -0.138335
-0.156942 -0.023955 0.492591
-0.294781 -0.181931 0.521133
-0.288429 -0.176177 -0.091242
-0.148686 -0.115378 -0.501653
0.200348 -0.101699 0.378729
-0.179334 0.165436 0.298974
0.558933 -0.098883 0.414839
-0.230946 -0.043301 -0.514881
-0.155925 0.085727 0.456234
-0.141049 -0.116287 -0.507110
-0.160317 -0.113396 -0.505543
-0.136745 -0.114339 0.491842
0.465553 -0.207454 -0.178930
0.339471 -0.163404 0.380994
-0.150616 -0.098178 -0.508601
-0.159970 0.652961 -0.034913
-0.157143 -0.087318 0.406997
-0.301850 -0.119273 0.186767
0.431672 -0.150652 -0.485675
-0.155970 -0.117546 -0.511641
-0.171688 0.125320 -0.448336
0.355959 -0.101011 0.068792
-0.265723 0.279575 -0.391369
0.079454 -0.106006 -0.321864
-0.149739 -0.108390 0.509342
-0.162105 -0.111863 -0.501791
-0.287058 -0.475560 -0.482528
-0.144760 0.014065 -0.052357
-0.176758 -0.283483 -0.353520
-0.271266 0.339009 -0.523475
-0.170788 -0.055325 0.484645
-0.222871 -0.209758 0.434932
-0.257384 -0.230665 -0.472901
-0.149642 -0.127158 0.505085
-0.167732 -0.121348 -0.508762
-0.280209 0.558621 -0.372495
0.527626 -0.138531 -0.225979
-0.184699 -0.122189 -0.504026
-0.277787 -0.220040 -0.353173
-0.223210 -0.108044 -0.367838
-0.263359 -0.176177 0.144714
-0.149162 -0.112830 0.496632
0.136214 -0.115067 -0.479374
-0.178742 -0.110602 -0.516026
-0.129273 -0.127380 -0.523393
-0.170732 -0.109831 -0.515542
0.318527 -0.216738 -0.348206
-0.152231 -0.095499 -0.503339
-0.163290 -0.210461 -0.021523
-0.163939 -0.105250 -0.505433
-0.184425 0.623118 0.170474
-0.146502 -0.116073 0.492659
-0.171713 -0.118784 -0.499900
0.174942 -0.094946 0.485387
-0.220771 0.265896 -0.497987
0.409967 -0.258682 0.478829
0.090812 -0.201216 0.438894
-0.281261 0.653515 0.398112
-0.157259 -0.109426 -0.514771
-0.172738 -0.109360 -0.511137
-0.170272 -0.111624 0.491896
0.126370 -0.112380 0.390940
-0.151870 -0.118312 -0.516490
-0.151272 -0.098020 0.494805
-0.141284 -0.108957 -0.190158
0.482361 -0.212953 -0.507677
-0.125105 -0.114266 0.505614
-0.184934 -0.113686 -0.494011
-0.139861 -0.108866 0.497247
-0.137943 -0.109715 -0.507643
-0.133417 -0.111186 0.481211
-0.264519 0.665773 -0.134514
-0.157513 -0.086008 0.497724
-0.191123 0.457443 -0.372535
0.176315 -0.099923 0.219337
-0.098566 -0.099801 0.003680
-0.146842 -0.103211 0.501138
0.480899 -0.104135 0.128232
-0.179182 0.349805 -0.103607
-0.293753 0.526846 0.154613
-0.279111 0.071343 -0.370126
-0.149558 -0.117284 0.502601
-0.152657 -0.110200 0.496720
-0.139810 -0.106571 0.492834
0.381932 -0.176377 -0.325660
-0.142076 -0.096940 0.487029
-0.136005 -0.110355 0.501008
-0.146983 -0.112451 -0.510344
-0.157203 -0.123199 -0.506772
-0.157619 -0.108033 0.484849
-0.176431 -0.114323 -0.520067
-0.301479 -0.162349 0.322732
-0.278073 -0.217099 0.287959
-0.132931 -0.100948 0.499515
-0.161026 0.005154 0.118038
0.171121 -0.196298 0.214475
0.472922 -0.220866 -0.338582
-0.255744 0.007623 -0.502531
-0.173625 -0.100320 0.481322
-0.290624 -0.606447 -0.458396
0.388813 -0.135602 -0.528294
-0.143102 0.079480 0.507788
0.227425 -0.091504 -0.398117
-0.157387 -0.116399 -0.518767
-0.182602 0.313499 -0.399394
-0.161647 0.525341 0.412311
0.370357 -0.060745 0.488612
-0.148637 -0.109787 -0.509631
-0.290303 0.646398 -0.452149
-0.279868 -0.156482 -0.127200
-0.152406 -0.099589 -0.500408
-0.279196 -0.010879 0.128854
-0.318930 -0.208925 0.459591
-0.161604 -0.297904 -0.418505
0.432595 -0.172980 0.166194
-0.161414 -0.019234 -0.069263
-0.141691 -0.103543 0.494797
-0.149955 -0.133552 0.499084
-0.143174 -0.107379 0.488574
-0.140894 0.285349 -0.083126
-0.159511 -0.141436 -0.509544
-0.158224 -0.109541 -0.495955
-0.052719 -0.111201 -0.498441
0.037111 -0.098461 0.114634
-0.138422 -0.114015 0.491177
-0.163541 -0.441073 -0.433080
0.083201 -0.178634 -0.405128
-0.154921 -0.112117 -0.514974
0.236750 -0.099210 0.284551
-0.160847 -0.121650 -0.505929
-0.297074 -0.167032 0.231823
-0.160581 -0.119478 -0.508304
-0.144616 -0.113525 -0.513909
0.147532 -0.216101 -0.385434
0.290515 -0.187450 0.296012
-0.158828 0.395954 0.082475
-0.046806 -0.114380 0.506750
-0.160166 0.295994 0.125740
-0.134527 -0.144980 -0.512135
-0.258715 -0.212240 -0.328042
-0.134947 -0.107753 0.492936
-0.155529 -0.121903 -0.511235
-0.240700 -0.070433 -0.495605
0.498288 -0.099144 0.189942
-0.192580 -0.106108 -0.508489
-0.137581 -0.112334 0.496478
-0.287640 0.298079 -0.456001
-0.153492 -0.112573 -0.492002
0.430983 -0.101011 -0.287952
-0.162881 -0.113234 -0.508885
-0.193988 -0.105491 0.510797
-0.049376 -0.085377 0.449868
0.500949 -0.145582 -0.523165
-0.161958 -0.144616 -0.475431
-0.139329 -0.200879 0.369851
-0.282485 0.081635 -0.247197
-0.022296 -0.092938 -0.383359
-0.167943 -0.117738 -0.510573
-0.121094 0.040790 0.384998
-0.198117 -0.103328 0.506364
0.346320 -0.193438 -0.240336
-0.201549 0.300290 0.539531
-0.167699 -0.090646 0.485822
0.052940 -0.164119 0.510651
-0.287956 0.466526 -0.391617
-0.178240 -0.116860 -0.513506
-0.124509 -0.221654 -0.251196
-0.162423 -0.114761 -0.517580
0.229295 -0.098138 0.361048
-0.147714 -0.114412 0.490855
-0.228656 -0.620793 -0.370167
-0.153261 -0.119500 -0.512816
-0.179858 0.636648 -0.208663
-0.123960 -0.109565 0.498461
-0.147823 -0.105099 0.495500
-0.078610 -0.396354 -0.451866
-0.158808 -0.108337 -0.509305
-0.164964 -0.021481 -0.349026
-0.121338 0.373121 -0.484355
-0.158229 -0.107827 -0.506090
-0.177836 0.030324 0.451673
0.148881 -0.214043 0.431985
-0.192114 -0.095173 -0.513964
-0.185906 0.730087 -0.085622
0.204254 -0.193114 0.397690
0.138959 -0.197134 -0.019736
-0.149036 -0.118039 0.490461
0.393321 -0.179247 -0.162318
-0.132496 -0.091438 0.507704
-0.200320 -0.128487 -0.501662
-0.281740 0.481530 0.453522
-0.181128 -0.123194 -0.506463
0.560481 -0.130638 -0.100016
-0.166922 -0.122960 -0.505917
-0.200376 -0.249682 0.220548
-0.159407 -0.107468 0.484131
-0.181292 -0.374015 0.502343
0.328217 -0.101834 -0.446961
-0.162104 -0.105654 0.482220
0.537900 -0.109310 0.082397
-0.157510 -0.100783 0.497280
-0.156717 -0.128183 -0.517565
-0.266466 0.635795 0.501016
-0.121011 -0.095672 -0.484569
-0.135895 -0.104048 0.488549
-0.134016 -0.093587 -0.494175
-0.153369 -0.123096 -0.521848
-0.141391 -0.102896 -0.502312
0.459224 -0.706940 0.426930
-0.164402 -0.097400 -0.492837
-0.274419 0.617340 0.346497
-0.195897 0.516118 -0.296756
-0.218094 0.445793 0.478566
-0.103876 -0.405649 0.453260
-0.299893 0.551411 -0.073742
0.109681 -0.164567 0.530325
-0.151966 -0.111961 0.490887
-0.151177 -0.109327 -0.501971
-0.129066 -0.093374 0.498271
-0.137061 -0.108320 0.509865
-0.169619 -0.111836 -0.507780
-0.158683 -0.111519 -0.506569
-0.170141 -0.157786 0.368649
-0.121329 -0.186125 -0.540355
-0.266661 -0.093707 -0.481076
-0.126854 -0.120896 0.508498
-0.281157 0.326659 0.319674
-0.313892 -0.151920 0.117412
-0.181183 0.287785 -0.252815
-0.167310 -0.124003 -0.512062
-0.143957 -0.094612 -0.501423
-0.157046 -0.123789 -0.515064
-0.088118 -0.137335 0.426045
-0.182265 0.138838 0.425189
-0.130423 -0.107001 0.498634
-0.158029 -0.104409 -0.505867
0.155998 -0.110171 -0.403227
-0.143547 0.540474 0.500361
0.191537 -0.137306 0.493277
-0.171016 -0.106260 -0.505851
-0.148403 -0.103710 -0.508807
-0.249588 0.132838 0.516491
-0.165458 -0.175685 -0.511996
-0.155528 -0.115773 -0.495187
0.103701 -0.214815 -0.324977
-0.170101 0.308055 0.041157
0.237349 -0.099963 -0.108740
-0.121770 -0.117474 0.504477
0.267561 -0.148998 0.489604
-0.244774 -0.140679 -0.509938
0.111202 -0.103408 0.338586
-0.146044 -0.114730 -0.502461
-0.218040 -0.576665 0.391469
-0.143773 -0.112177 -0.506021
-0.149893 -0.089240 -0.497985
-0.284419 0.047532 -0.104750
0.122472 -0.216523 -0.259739
-0.072935 -0.192942 0.322923
-0.221999 0.196018 0.476166
-0.170935 -0.106163 -0.500683
-0.152308 -0.126030 -0.518102
-0.172566 -0.115287 -0.508176
-0.148663 -0.089290 0.500577
-0.156522 -0.098322 0.474327
-0.196644 -0.127123 0.504555
-0.137004 0.578744 -0.251864
-0.285277 -0.019861 -0.250406
0.589544 -0.131953 0.320590
0.472270 -0.259372 -0.501117
-0.243457 0.047477 0.520114
-0.166813 -0.118314 -0.513542
-0.155745 -0.172438 -0.507136
-0.166015 -0.113938 -0.505415
-0.191343 -0.148075 -0.506955
-0.187498 -0.079213 0.454755
-0.170183 -0.113469 -0.505622
-0.155099 -0.120713 -0.503018
-0.289468 0.392354 -0.149202
-0.159976 0.098712 0.383817
0.425718 -0.173124 -0.226000
-0.292072 0.300574 0.067683
0.136365 -0.096216 -0.187329
-0.052975 -0.102633 0.362201
-0.286098 -0.284874 0.524161
-0.149184 -0.101287 0.479302
0.380467 -0.440886 0.477128
-0.151586 -0.107946 -0.498949
-0.159973 0.032403 -0.253769
-0.171338 -0.132531 -0.504027
-0.216384 0.649537 -0.421284
-0.299329 0.403554 0.134161
-0.074232 -0.221418 -0.507266
-0.149389 -0.143639 0.502131
-0.154796 0.650971 -0.380604
-0.179193 0.065391 -0.372282
0.479455 -0.355275 -0.504328
-0.053966 -0.191643 -0.139912
-0.154555 -0.108496 -0.518370
-0.250442 -0.124610 -0.501909
-0.242180 -0.299237 0.327721
-0.148431 -0.099150 0.490004
0.224603 -0.211690 0.495673
-0.150859 -0.105539 0.490773
-0.151792 -0.119045 -0.505009
0.306396 -0.099948 -0.068963
-0.285872 0.730514 -0.168183
-0.170859 0.673643 0.233492
-0.219591 0.785548 0.202018
-0.116809 -0.120286 -0.507815
0.430729 -0.112664 -0.154712
0.032041 -0.220990 -0.444499
-0.193140 0.726519 0.284057
-0.199672 -0.147489 -0.516911
-0.299477 -0.111220 0.522594
-0.154129 -0.103310 -0.503436
-0.257340 0.732985 0.311361
-0.139527 -0.096054 0.507128
0.509377 -0.244392 0.074602
-0.190577 0.439043 0.166545
-0.144584 0.465023 -0.477013
-0.159514 0.097394 -0.511106
0.526104 -0.227756 0.367470
-0.180562 -0.107253 -0.514640
-0.166556 -0.106356 0.485749
-0.171826 -0.580536 -0.474289
-0.285719 -0.226260 -0.479235
-0.119778 -0.122758 -0.505219
-0.015925 -0.214534 0.357961
-0.271783 0.118968 0.163506
-0.133615 -0.069200 -0.419509
-0.126240 -0.176442 -0.107993
-0.170219 -0.056530 0.334632
0.422742 -0.085177 0.467107
-0.152499 -0.114561 0.489209
0.044199 -0.177491 0.101961
0.524090 -0.405572 -0.503279
0.470441 -0.062895 -0.485436
-0.231932 0.574295 0.116348
-0.142637 -0.096090 0.493830
-0.131849 -0.113270 -0.252318
-0.106163 -0.211285 0.150519
-0.144141 -0.090069 -0.479361
-0.182357 -0.107095 -0.507762
-0.286014 0.132466 -0.159126
-0.189056 -0.117077 -0.503219
-0.195844 0.453293 0.359963
-0.242046 -0.221454 -0.507888
0.443784 -0.214006 -0.445925
-0.137296 0.560844 0.358379
-0.077100 -0.195323 -0.416874
-0.116746 0.236326 -0.413329
-0.221455 -0.544298 0.509788
-0.151287 -0.114998 0.496813
