0.195081 -0.105840 -0.425207
-0.091559 -0.050273 -0.439052
0.602751 -0.273989 0.482630
-0.189951 -0.063079 0.443406
-0.084729 -0.057931 -0.431082
-0.069427 -0.039249 0.431259
-0.087233 -0.041293 -0.431625
-0.092268 -0.038267 -0.428525
-0.281747 -0.369516 0.396225
-0.095853 -0.008568 0.419122
0.604399 -0.256970 -0.240560
-0.100966 -0.034849 -0.435725
-0.080482 -0.019272 0.432222
0.007861 -0.247071 0.426248
-0.063117 -0.014334 0.434347
-0.112435 -0.031124 -0.420416
0.605834 -0.289256 -0.429494
-0.157420 -0.031879 -0.423738
-0.222856 -0.132522 -0.452421
-0.088491 -0.102773 -0.429692
-0.284133 0.086770 -0.354191
-0.081014 -0.027512 0.431414
-0.421404 0.214349 0.025376
-0.151219 -0.018241 -0.427841
-0.508680 0.540491 -0.136938
-0.095432 -0.020338 0.434777
-0.095356 -0.047435 -0.433139
0.015114 -0.037940 0.297706
-0.194921 -0.138008 -0.404223
-0.010017 -0.083315 0.430636
0.099379 -0.157496 0.436675
-0.429280 0.361301 0.328910
-0.096483 -0.025291 0.431608
-0.118762 -0.027375 0.429011
-0.064531 -0.029285 0.421147
-0.558761 0.379348 -0.097994
-0.098921 -0.023898 -0.436529
-0.106773 -0.028917 -0.428263
-0.269381 0.331549 0.321359
0.795373 -0.076803 0.006704
-0.089267 -0.041212 0.430845
-0.140692 -0.029565 -0.424795
0.066265 -0.229150 -0.025893
-0.138493 -0.088677 -0.434632
-0.086673 -0.035570 -0.431129
-0.006743 -0.046829 0.162424
-0.057009 -0.108347 -0.438229
-0.414717 0.310989 -0.329787
-0.087261 -0.070208 0.436819
0.188140 -0.100557 0.438433
-0.099895 -0.091283 0.440506
-0.117296 -0.041110 -0.439631
-0.067042 -0.040059 -0.431119
0.554841 -0.253084 0.411317
-0.486511 0.010131 0.118598
0.669349 -0.272344 0.132965
-0.149195 -0.019337 -0.434591
-0.352566 0.096618 -0.047535
0.279387 -0.169681 -0.174074
-0.090171 -0.041161 0.425680
0.317916 -0.245623 -0.101299
-0.089464 -0.036558 0.448612
-0.078579 -0.031210 0.436466
-0.096132 -0.024895 0.443294
-0.113005 -0.323734 0.386353
0.496488 -0.144879 0.159534
-0.078024 -0.030177 0.432137
0.723871 -0.349449 0.453420
-0.098907 -0.042353 -0.422955
-0.325992 0.168580 0.192125
-0.068927 -0.037352 0.428764
-0.088423 -0.044665 0.443754
0.659576 -0.111075 0.194369
-0.107844 -0.041446 0.431581
-0.115212 -0.040855 -0.432366
0.158808 -0.069426 -0.204387
-0.123820 -0.064474 -0.437184
0.614832 -0.022995 0.276935
-0.097461 -0.019092 0.425897
-0.073244 -0.017676 0.434673
-0.074970 -0.045788 -0.436736
-0.197133 0.155198 -0.088693
-0.140345 -0.101810 -0.429048
-0.577196 0.327388 -0.242392
-0.472286 -0.105792 0.027390
-0.071328 -0.024366 0.426173
-0.080366 -0.026713 0.425410
0.812920 -0.204823 0.100254
0.316631 -0.322380 -0.345774
0.497053 -0.009274 -0.018915
0.277799 -0.167348 -0.437354
-0.075456 -0.055391 -0.440638
-0.106883 -0.016083 0.430533
-0.124841 -0.038509 0.428633
-0.122685 -0.042340 -0.435207
-0.267251 0.119343 -0.095463
-0.094604 -0.035613 0.429465
0.064352 0.204834 -0.450364
-0.339402 0.198690 0.479025
0.062981 -0.171245 -0.432092
-0.082806 -0.038144 -0.423299
0.717008 -0.071710 0.414034
-0.096175 -0.115159 -0.426794
0.173541 -0.196866 0.433701
-0.073343 0.045636 -0.422901
0.791194 -0.086963 -0.088291
-0.432193 0.448436 -0.278071
-0.491094 0.276726 -0.397398
-0.075664 -0.014823 0.426332
-0.307611 0.374789 0.029278
-0.127996 -0.053526 -0.429461
-0.070381 -0.060544 -0.433645
-0.080999 -0.038421 -0.442099
0.353390 -0.125291 -0.423765
-0.091745 -0.051667 0.434460
0.135340 -0.161604 -0.420194
0.712967 0.010394 -0.116527
-0.098370 -0.042127 -0.424543
-0.573613 0.432216 0.167590
-0.081264 -0.012322 0.424396
-0.067991 0.021330 0.365230
-0.248736 0.082807 -0.443845
-0.019280 -0.108958 0.458275
-0.028636 -0.057026 0.444391
0.101314 -0.149815 -0.406797
-0.534804 0.592230 -0.410313
-0.089468 -0.016143 0.426228
0.160071 -0.159379 -0.427006
-0.277273 -0.193782 -0.182874
-0.077430 -0.071487 0.427031
-0.074720 -0.038144 -0.436250
-0.177545 -0.071731 0.439256
-0.082941 -0.040176 0.432215
-0.129354 -0.049007 -0.435003
-0.354249 0.014674 0.410890
0.626389 -0.188355 0.000678
0.218706 -0.052571 -0.360264
0.570715 -0.242647 0.180572
-0.075990 -0.048819 -0.434833
-0.129600 -0.069562 -0.425256
-0.100427 -0.036312 0.426016
-0.181806 -0.054722 0.025525
-0.106560 -0.025601 0.430849
-0.087305 -0.044644 -0.450193
0.788234 -0.187298 -0.240304
-0.103357 0.031435 -0.416268
-0.346892 0.387370 0.431118
0.244354 -0.374861 -0.445719
-0.144652 -0.011995 0.338606
-0.274187 0.128556 -0.351192
-0.128913 -0.079357 0.446864
-0.091820 -0.043406 0.438903
-0.085042 -0.052529 -0.434968
0.035561 -0.112159 0.425483
-0.094739 -0.005172 0.433338
-0.581794 0.281505 -0.077809
0.035731 -0.206201 0.398292
-0.075464 -0.044425 -0.431359
-0.125001 -0.030304 -0.419926
0.574137 0.000758 -0.148109
-0.387513 0.204719 0.382341
-0.125170 -0.037419 -0.425669
-0.111165 -0.048384 -0.434388
-0.067855 -0.024556 0.219106
-0.092667 -0.021713 0.432896
0.792621 0.033126 -0.224723
-0.089830 -0.009583 0.435653
-0.102483 -0.149984 -0.307167
0.360094 -0.094913 0.369713
-0.351950 0.236302 -0.420892
0.778137 -0.201714 0.420994
-0.178924 0.163624 0.321150
-0.092759 -0.035386 -0.437269
-0.074499 -0.064736 -0.423716
-0.068722 -0.034346 -0.418617
-0.177278 -0.035568 0.207686
-0.193059 0.159753 -0.294038
0.759773 -0.118134 0.165808
-0.098587 -0.041672 -0.433036
-0.092059 -0.155258 0.134043
-0.096017 -0.018788 -0.439110
-0.524306 0.422728 0.254148
-0.418197 0.218442 -0.281870
0.042441 -0.238638 -0.390980
0.705763 -0.000651 0.288172
0.015953 -0.151734 0.438198
-0.096150 -0.054274 0.445593
0.511773 0.015372 -0.284082
-0.260739 -0.017244 -0.140718
-0.100886 -0.014318 0.421046
0.369493 -0.059699 0.016578
-0.378593 0.321485 -0.159475
-0.064781 -0.133219 0.426124
-0.085027 -0.027497 0.443424
-0.129061 -0.027182 0.046202
-0.111670 -0.053735 -0.429296
0.690429 -0.028144 0.344656
0.123191 -0.159778 -0.421980
-0.080657 -0.037550 -0.426793
-0.082795 -0.020045 0.439410
-0.264184 0.154376 0.445374
-0.085175 -0.031717 -0.447641
-0.077806 -0.061938 -0.430957
-0.079915 -0.016045 0.433618
0.350139 0.004708 0.185186
-0.512712 0.254621 0.306368
-0.085458 -0.028325 0.438408
-0.078340 -0.027654 -0.443372
-0.131159 -0.045955 -0.424670
-0.081180 -0.025910 -0.424002
0.035189 -0.152891 0.358191
-0.135099 -0.078986 0.424294
-0.102422 -0.031533 -0.443244
-0.057038 -0.034480 0.418668
-0.072737 -0.041554 -0.439524
-0.083601 -0.057172 -0.443023
-0.069885 -0.141156 -0.414625
-0.446258 -0.261144 -0.410561
-0.347726 -0.130968 0.391264
-0.089880 -0.026733 -0.416671
-0.097549 -0.038276 0.440150
0.733221 -0.003041 -0.276935
-0.097177 -0.031166 -0.437502
0.388779 -0.012461 0.406483
-0.660408 0.411913 -0.246491
-0.115679 -0.043242 -0.430979
0.012721 -0.285617 -0.403257
-0.122522 -0.041664 -0.434131
0.597656 -0.026941 0.110812
0.300733 -0.087749 -0.422527
-0.204982 -0.242853 -0.193749
-0.247082 -0.054150 0.450728
-0.095099 -0.001350 0.438503
0.785166 -0.156180 -0.316590
-0.074417 -0.043230 -0.431255
0.151831 -0.195252 -0.082627
-0.164330 -0.108172 -0.412892
-0.209415 0.054824 -0.423091
0.173194 -0.127708 -0.341857
-0.606519 0.624573 0.163114
-0.117886 -0.049075 -0.426588
-0.243564 0.031818 0.306843
-0.647870 0.518868 -0.277038
0.768754 -0.338079 0.179382
-0.071195 -0.140886 0.432219
-0.050421 -0.028322 -0.137778
-0.083311 -0.056499 -0.430600
-0.044127 -0.009856 0.410824
-0.196731 0.187490 0.440876
0.576066 -0.232147 -0.083527
-0.115922 -0.029812 -0.437887
-0.129147 -0.024284 0.433153
-0.091465 -0.032377 -0.436144
-0.143515 -0.078831 0.447470
-0.132330 -0.049107 0.444608
-0.076463 -0.028581 0.427061
-0.076626 -0.020118 0.437320
-0.105045 -0.029747 0.434697
0.470574 -0.071439 0.355445
-0.149667 -0.288566 0.252367
-0.098681 -0.016796 -0.435604
-0.076178 -0.041681 -0.426054
-0.143419 -0.162971 0.436845
-0.343549 -0.318184 -0.375573
-0.113476 -0.005453 -0.425614
-0.080713 -0.017155 0.426675
-0.141002 -0.076798 -0.422811
0.734076 0.005605 -0.336048
-0.083949 -0.055183 -0.429978
-0.111996 -0.037456 0.416387
-0.154918 -0.096889 -0.409558
0.089685 -0.144617 -0.417471
0.763728 -0.035091 -0.417570
-0.108023 -0.040756 -0.438839
-0.032398 -0.052056 0.426764
-0.075188 -0.036642 0.436879
-0.110530 -0.039481 -0.436441
-0.077401 -0.050839 0.449058
-0.076482 -0.049557 -0.438135
-0.084988 -0.014357 0.431572
-0.084894 -0.049092 -0.420521
0.028490 -0.162098 -0.432870
0.870892 -0.016962 -0.232361
-0.143422 0.003066 0.443767
-0.090744 -0.025232 0.424447
-0.062853 -0.019626 -0.431741
0.540542 0.062512 0.464096
-0.216112 -0.129345 0.399801
0.159279 -0.086303 -0.417045
-0.021623 -0.073065 -0.424141
0.328129 -0.205397 0.051678
-0.571370 0.441588 -0.450306
-0.299844 0.072064 0.439079
0.520720 -0.261092 -0.346408
-0.115591 -0.046098 -0.433452
-0.100677 -0.025978 0.441311
-0.101876 -0.044651 -0.437867
0.917930 -0.144746 0.006284
0.040664 -0.047572 -0.412269
-0.055328 -0.034660 -0.359421
0.660384 -0.343496 0.278283
-0.107261 -0.060340 0.430397
0.231239 0.115830 -0.363120
-0.021348 -0.051552 0.396083
-0.558455 0.452659 0.390475
-0.090372 -0.031468 -0.435489
-0.107703 -0.030379 0.430983
-0.535125 0.575512 -0.267587
-0.089391 -0.032765 -0.436208
-0.104682 -0.042202 -0.429882
-0.073388 -0.124125 0.433585
-0.128494 -0.044576 -0.421760
0.178339 -0.208963 0.418569
-0.311839 -0.306387 -0.418195
-0.070332 -0.044787 -0.428035
-0.129749 -0.046794 0.437506
-0.090818 -0.032740 0.435588
0.420276 -0.062168 -0.413175
-0.136701 -0.038915 -0.428228
-0.082296 -0.043057 -0.428666
-0.099291 -0.024112 0.433005
0.350330 -0.018447 -0.413486
-0.081640 -0.040289 0.428024
0.624841 -0.272178 -0.353537
-0.058971 0.004595 0.387507
-0.621419 0.320295 -0.304832
-0.148224 -0.045017 -0.424333
-0.494742 0.278248 -0.417521
0.183942 -0.152326 0.315571
-0.089655 -0.043146 -0.434499
-0.187761 -0.370086 -0.449825
-0.210817 -0.097862 0.370692
-0.107080 -0.049021 0.439360
-0.068360 -0.046483 -0.425032
-0.090711 -0.037803 -0.439676
-0.059385 -0.046606 -0.422955
0.420282 -0.120835 0.391317
-0.034088 0.128363 -0.471931
-0.104659 -0.036968 -0.440624
-0.084986 -0.039846 -0.443925
0.755486 -0.247801 -0.148900
0.645027 0.020549 0.408885
-0.096674 -0.077207 -0.433096
-0.181862 -0.002119 -0.456856
-0.081884 -0.029656 0.420675
-0.089766 -0.034137 0.443880
-0.586119 0.074896 0.412505
-0.065658 -0.039479 -0.440054
0.213036 -0.186806 -0.393644
-0.101243 -0.036289 -0.434985
-0.087597 -0.017371 0.425025
-0.080103 -0.042860 -0.434447
0.482324 -0.281689 -0.249554
-0.130673 -0.052462 -0.432778
0.164973 0.089334 0.454591
-0.083721 -0.021172 0.420092
-0.102599 -0.031043 0.435685
0.269752 -0.171971 0.433864
-0.062731 -0.081320 0.433330
-0.091600 -0.048421 -0.438370
-0.608166 0.252428 -0.176647
-0.094556 -0.032513 0.428521
-0.050092 -0.099170 0.440624
-0.095534 -0.034391 0.423512
-0.127784 -0.041297 -0.420340
-0.077693 -0.038334 0.436458
-0.063971 -0.047827 -0.427112
0.248375 -0.265543 0.274257
-0.153182 -0.057664 0.440632
-0.165675 -0.103342 -0.422449
-0.085734 -0.028119 0.420119
0.048686 -0.275291 -0.248199
0.727549 -0.171337 0.295280
-0.570877 -0.254395 0.440040
-0.057691 -0.020727 -0.435517
-0.212118 -0.296973 0.320071
0.476352 -0.018218 -0.463474
-0.074974 -0.051392 -0.440012
-0.106077 -0.052001 -0.425423
-0.104467 -0.042481 -0.442865
-0.494893 0.141786 -0.451310
-0.300965 0.346244 -0.248287
-0.551084 0.351029 -0.012100
-0.433998 0.056352 0.338829
0.823322 -0.161998 0.108255
0.207498 -0.022330 -0.185346
-0.091568 -0.036559 -0.425872
0.304632 -0.277656 0.426614
0.594467 -0.192386 -0.368715
-0.312063 0.238500 -0.221650
-0.136048 -0.032471 -0.425766
0.005217 -0.184823 -0.405059
-0.298330 -0.192138 0.051871
-0.295836 0.067371 0.411437
-0.320760 -0.014523 -0.451231
0.575640 -0.022918 0.418104
-0.085229 -0.039754 0.428269
-0.090080 -0.016920 0.437049
0.174198 -0.040362 0.200059
0.620216 -0.126175 -0.443131
-0.124359 -0.043932 -0.441257
-0.065416 -0.053751 0.044743
0.005425 0.108822 0.372001
-0.545391 0.549853 0.254478
-0.095306 -0.025489 -0.433168
-0.441495 -0.291103 0.365814
0.781272 -0.313856 0.372987
-0.100126 -0.035748 -0.428514
-0.305883 -0.081504 -0.438443
-0.100854 -0.037128 -0.433572
-0.062397 -0.020309 0.441420
-0.289191 0.201891 -0.371167
-0.072297 -0.018550 0.422188
-0.074606 -0.045519 0.446634
0.022535 -0.090916 0.418801
-0.096476 -0.034493 -0.439226
-0.139110 -0.029685 0.425330
-0.083966 -0.035582 0.431642
-0.023838 -0.037743 -0.425563
-0.089766 -0.020934 0.427508
-0.511291 0.164740 0.384040
-0.074646 -0.033949 -0.428449
-0.099795 -0.056150 -0.437059
-0.091574 -0.036953 -0.441490
-0.085263 -0.139156 -0.434354
0.488455 0.004637 0.059201
-0.104489 0.197085 0.345422
-0.085752 -0.032256 -0.428587
0.494669 -0.024248 0.329413
-0.106982 -0.030663 -0.437220
-0.607455 0.365169 -0.127075
-0.142463 -0.038403 0.446601
-0.654528 0.469824 -0.051183
-0.499403 0.588894 0.099477
-0.228866 -0.339817 -0.191401
-0.072629 -0.033341 0.424982
-0.538121 0.294842 0.189753
-0.067606 -0.056339 -0.427571
-0.114215 -0.041239 -0.430709
0.022946 -0.056004 0.414717
-0.079911 -0.046845 -0.430632
-0.430741 0.584768 -0.188098
-0.073428 -0.031401 -0.432948
-0.419984 0.364952 0.015478
-0.091814 -0.019669 -0.441184
-0.134575 -0.014932 0.428680
-0.275336 -0.060819 0.371330
0.737577 -0.041928 -0.205016
-0.097242 -0.032361 -0.428534
-0.092539 -0.028293 0.424006
-0.092266 -0.043427 -0.432498
-0.089184 -0.036613 0.444477
-0.455349 0.539390 -0.426880
0.108479 -0.010622 -0.315384
0.474728 -0.122520 -0.382218
0.398158 -0.319598 0.317836
0.749825 -0.151286 -0.451377
-0.229324 0.285384 -0.348151
-0.124804 -0.100511 0.440174
-0.125038 -0.049843 -0.407353
-0.135463 -0.085613 0.429626
-0.100669 -0.042237 -0.434120
-0.126530 -0.009137 -0.427511
-0.291333 0.138270 0.088428
0.252380 -0.202446 0.328472
-0.088657 -0.047353 -0.139059
-0.115594 -0.043041 -0.427545
0.208182 -0.302850 -0.130060
-0.147578 -0.121379 -0.428016
-0.168078 -0.331705 0.244319
-0.104296 -0.032161 0.424000
-0.111187 -0.034584 -0.443845
-0.283311 0.351638 -0.108791
-0.068977 -0.043315 -0.433287
0.460709 -0.249607 0.399026
0.095909 -0.142154 0.450485
-0.078470 -0.035842 -0.434905
-0.091686 -0.051507 -0.439028
0.035202 -0.124790 -0.347717
-0.431373 0.276442 -0.441601
-0.083829 -0.025119 0.426970
-0.114300 -0.300206 -0.316954
-0.061237 -0.035215 0.428593
-0.039418 -0.007704 0.402036
-0.124579 -0.043070 -0.429440
-0.285098 0.254115 -0.453241
-0.541740 0.655948 -0.286928
0.297205 -0.120791 0.399532
0.811518 0.063119 -0.422796
-0.096497 -0.069624 0.429589
-0.162331 -0.106806 0.442958
-0.085799 -0.026517 0.427735
-0.394290 -0.292000 0.361849
-0.081225 -0.039671 -0.439076
0.363472 -0.256614 0.080547
-0.107700 -0.040457 -0.431783
0.088767 -0.084836 -0.423439
-0.102055 0.046907 0.201687
-0.092262 -0.027207 0.429387
-0.658193 0.451714 0.072790
-0.091660 -0.015275 0.434805
0.528951 -0.165824 -0.247663
-0.138351 0.066173 -0.373040
-0.111477 -0.030579 0.432251
-0.079312 -0.032625 0.433959
-0.113435 -0.027396 -0.433304
-0.062568 -0.029534 0.421912
-0.007172 -0.046766 0.409658
-0.090505 -0.037432 -0.434179
-0.054986 -0.046890 0.430022
0.592264 -0.025523 0.348173
-0.155196 0.032062 -0.409286
0.729516 -0.182740 0.229538
-0.109979 -0.044735 -0.430119
-0.515136 -0.081878 -0.444288
-0.063419 -0.026405 0.428585
0.100420 -0.286078 0.100839
-0.106790 -0.019473 -0.438935
-0.105036 -0.013649 0.430127
-0.083500 -0.023544 0.438737
-0.056969 -0.031307 0.424215
-0.218734 -0.246983 -0.257563
-0.154662 -0.047966 -0.418949
0.128701 -0.134236 -0.424251
-0.314417 -0.187780 -0.412902
-0.302205 -0.088662 -0.034493
-0.110733 -0.026122 0.438531
-0.086901 -0.021145 0.433528
-0.174529 0.141209 -0.356005
0.178359 -0.024026 0.310179
0.782132 -0.107933 -0.421253
-0.049795 -0.029039 0.426609
-0.626154 0.439518 0.284277
0.682102 -0.337689 -0.331129
0.102988 -0.125213 -0.417569
-0.169739 -0.331273 0.370014
-0.100831 -0.030384 -0.426732
0.232850 -0.194247 -0.291718
0.208303 -0.032165 0.068392
-0.090190 -0.030606 -0.424391
0.708799 -0.130062 -0.397169
0.813750 -0.163953 -0.396914
0.183755 0.061927 -0.463777
-0.092733 -0.030949 -0.432587
-0.107308 -0.019887 0.423405
-0.110601 -0.032687 -0.433345
-0.074336 -0.035450 -0.430714
0.088679 -0.179275 -0.432016
-0.093274 -0.031393 0.438756
-0.154380 0.094688 -0.446345
-0.071169 -0.032256 0.421514
-0.042337 -0.057613 -0.427695
-0.028033 -0.036977 0.449391
-0.099667 -0.031749 0.433881
-0.088228 -0.026410 0.442248
-0.160224 -0.186832 -0.364053
-0.492505 0.316966 0.415592
-0.158468 -0.051439 -0.432987
-0.101999 -0.067152 -0.425466
0.404474 -0.160175 -0.115042
0.769980 -0.228743 -0.380337
-0.177895 -0.114160 -0.443862
-0.629522 0.617382 -0.222235
0.352535 -0.270673 -0.388595
-0.115945 -0.038298 -0.425805
-0.271554 0.252265 0.429896
-0.090064 -0.016825 -0.437742
-0.141174 -0.055541 -0.424983
-0.139972 -0.019852 -0.419724
-0.102695 -0.015029 0.430618
-0.161225 0.145104 0.137460
0.018155 -0.374482 0.441160
-0.193423 0.081435 0.119597
-0.073790 -0.030877 -0.412137
0.114198 -0.032479 0.154916
-0.077454 -0.026702 0.367764
-0.082299 -0.021263 0.432000
-0.117435 -0.041159 -0.436654
-0.248302 -0.273600 -0.072967
-0.062752 -0.031950 0.432577
-0.095826 -0.033547 -0.433343
-0.073845 -0.203713 -0.203184
-0.051498 -0.058148 0.433679
0.623506 -0.216845 0.157148
-0.114629 -0.038969 -0.434997
-0.106400 -0.000414 -0.422844
-0.114926 -0.039438 0.441461
-0.018828 -0.049145 0.423859
-0.387844 0.331964 -0.024403
-0.091189 -0.041687 -0.428640
-0.256090 0.202124 -0.306350
0.566898 -0.143134 0.433647
-0.377444 -0.078823 -0.078879
0.353335 -0.019219 -0.325913
-0.060043 -0.047383 0.423385
-0.069764 -0.018795 0.429038
-0.105822 -0.055420 -0.437448
0.033426 -0.134983 -0.446736
-0.112317 -0.031117 -0.430364
-0.090307 -0.045073 -0.440180
-0.133920 -0.006636 -0.185658
0.060433 -0.109124 -0.421470
-0.574452 0.458832 -0.202834
-0.112153 -0.200091 0.013358
-0.082318 -0.047497 -0.429234
-0.086548 -0.051970 0.429534
-0.078449 -0.046833 0.435884
-0.106149 -0.026193 -0.430529
-0.113587 -0.100394 -0.452490
-0.251599 -0.042478 -0.297665
-0.097548 -0.044179 -0.434999
-0.216434 0.009503 -0.438091
-0.071098 -0.031367 -0.427351
-0.256104 -0.292015 0.431466
-0.081368 -0.054624 -0.434677
-0.099205 -0.020503 0.430331
0.653039 -0.180911 -0.408781
-0.071089 -0.030654 0.432820
0.508673 -0.037869 -0.118231
-0.533372 0.205740 -0.030218
-0.040553 -0.029062 -0.412524
-0.079408 -0.019655 0.429319
-0.079037 -0.035332 0.433541
-0.094940 -0.029627 0.410673
0.135795 -0.095724 0.262207
0.445365 -0.261375 0.184382
-0.115426 -0.023126 0.434587
-0.152947 -0.146043 -0.405624
-0.074986 -0.022977 0.431822
-0.371595 -0.274046 0.117827
-0.036073 -0.031550 0.432992
-0.086188 -0.025820 0.445812
-0.261198 0.001388 -0.074743
0.622756 0.055186 -0.489382
-0.085995 -0.014112 0.421403
-0.126602 -0.028222 -0.422442
0.249819 -0.073138 0.446815
0.004551 -0.081393 -0.435497
-0.069607 -0.011461 0.424130
0.848949 -0.099119 0.408583
-0.134448 -0.043800 -0.409539
0.503454 -0.046018 0.441610
-0.129908 -0.039251 -0.427191
-0.164406 0.000694 -0.299953
-0.053934 -0.290917 -0.028806
-0.086268 -0.022310 0.419888
-0.050441 0.167744 0.491736
-0.083433 -0.023699 -0.428915
-0.146030 -0.055014 -0.418842
0.113155 -0.251705 0.187796
-0.124209 0.027465 0.090044
-0.137013 -0.138282 -0.430638
-0.076102 -0.021295 0.430765
-0.080252 -0.055864 -0.414537
-0.134567 -0.001331 0.239543
-0.085352 -0.044580 -0.443770
-0.118184 -0.033764 -0.432015
-0.449480 0.179326 0.252277
-0.141591 -0.048939 -0.433662
-0.060541 -0.030538 0.444061
-0.341591 -0.025530 0.396401
-0.077070 -0.035691 0.447658
-0.446961 -0.085079 0.283579
-0.095238 -0.009045 0.433947
0.261723 -0.175662 0.194212
-0.168996 -0.154992 -0.447272
-0.082769 -0.019240 0.426805
-0.085189 -0.002202 0.436410
-0.318118 -0.033712 0.206225
-0.177606 -0.035760 0.437764
-0.097648 -0.031862 -0.447727
-0.366662 0.270013 -0.439908
-0.104302 -0.030244 0.436066
-0.088496 -0.053072 -0.430841
-0.105127 -0.042704 -0.442681
0.859376 -0.193358 0.306831
-0.068246 -0.037612 0.444085
-0.248398 0.097832 0.435660
-0.144042 -0.098151 0.435909
-0.066363 -0.025791 -0.442354
-0.081119 -0.032823 -0.436202
-0.316895 0.146657 -0.465668
-0.083133 -0.043494 -0.437742
-0.074106 -0.040287 -0.426925
-0.124067 -0.049395 -0.436456
0.854705 -0.162398 -0.059204
-0.280053 -0.279458 0.359579
-0.078947 -0.011540 0.433143
-0.087606 -0.031482 0.451676
-0.097420 -0.040351 -0.426354
-0.081221 -0.048850 -0.429201
-0.093545 -0.039604 -0.427719
-0.099619 -0.042051 -0.419883
-0.085516 -0.032359 0.437138
-0.174704 -0.148279 0.461899
-0.299361 -0.259969 -0.046465
-0.086021 -0.046548 -0.448240
-0.090750 -0.295680 0.314486
-0.092229 -0.028128 0.428053
-0.112889 -0.047136 -0.432661
-0.097603 -0.047997 -0.436891
-0.091046 -0.042418 -0.444512
-0.059369 -0.047319 0.450626
0.490391 -0.193946 -0.420011
-0.608097 0.489299 0.191437
-0.486775 -0.010883 0.322946
-0.144008 -0.032731 -0.437337
-0.415614 0.151000 0.084514
-0.127360 -0.020341 -0.424697
0.403006 -0.135389 -0.325193
0.118236 -0.221228 -0.406504
-0.107903 -0.036171 -0.433280
-0.111825 -0.049688 -0.439130
0.540632 -0.259801 0.019243
-0.126235 -0.173137 0.441510
0.572757 -0.193962 -0.201171
-0.022001 -0.117975 0.448495
-0.227187 -0.107354 -0.158198
0.847336 0.022010 0.181545
-0.120103 -0.185386 0.420292
-0.094884 -0.017050 0.414245
-0.256487 -0.293502 -0.349241
-0.181515 0.294319 -0.442911
0.381906 -0.024989 -0.100297
-0.549644 0.376032 -0.345457
-0.134644 -0.051187 -0.425509
0.103027 -0.072157 0.046355
-0.173923 -0.067236 -0.436153
-0.113378 -0.053735 -0.438681
-0.192036 -0.013183 0.409409
-0.100512 -0.050133 -0.444383
-0.096586 -0.005406 -0.471438
-0.226360 0.181571 0.273573
-0.016792 -0.122614 0.451844
-0.217514 0.074342 0.413590
-0.172400 -0.077136 -0.423562
0.837143 -0.122246 0.266181
-0.057655 -0.013910 0.425913
-0.183021 -0.012862 -0.438702
-0.088318 -0.046027 -0.429899
0.701067 -0.204909 0.124234
-0.528296 -0.376583 0.404933
-0.553766 0.167681 -0.207925
-0.160579 -0.225900 0.311251
-0.229586 0.119213 -0.392071
-0.471341 -0.059943 -0.374070
0.473573 -0.214659 0.080228
0.060083 -0.111119 -0.427432
-0.461208 -0.043876 -0.111685
-0.013560 -0.025256 -0.286797
-0.395940 -0.315747 0.467995
0.059565 -0.088730 0.432710
-0.186741 0.087632 0.459481
-0.068552 -0.056047 -0.443216
-0.046138 -0.039229 0.429886
-0.023462 -0.067408 0.430046
-0.152566 0.001618 -0.417868
-0.125255 -0.044764 -0.432392
0.248362 -0.130471 -0.286608
-0.117501 -0.048464 -0.411829
-0.114195 -0.036636 0.423462
-0.066874 -0.023275 0.432113
-0.063433 -0.031344 -0.435225
-0.166264 -0.018282 0.413064
-0.076066 -0.045792 -0.419313
-0.090017 -0.003927 0.423662
-0.082825 -0.029172 0.439293
-0.453432 0.140773 -0.370350
0.316164 0.206538 -0.476877
0.135610 -0.100570 -0.364167
-0.354032 -0.335545 -0.133421
0.295451 -0.068048 0.356704
0.186294 -0.221283 0.104785
-0.092631 -0.040920 -0.436375
-0.271379 0.000278 0.455899
0.055742 0.214564 0.436344
0.063867 -0.079657 0.426142
-0.577644 0.377595 -0.199048
-0.066094 -0.039684 -0.442921
-0.082790 -0.030483 0.417425
-0.107988 -0.022309 0.429561
0.182302 -0.206374 -0.213813
-0.133490 -0.047169 0.424698
-0.526802 0.556808 -0.013365
0.324311 -0.143066 0.387335
-0.074414 -0.049238 0.429848
-0.159497 0.069946 0.421664
0.204110 -0.255861 0.303347
0.139821 -0.038247 -0.071417
0.798880 -0.191683 0.192311
-0.118376 -0.050439 -0.440094
-0.020070 -0.129985 0.456347
-0.050866 -0.057866 -0.450330
-0.236061 0.273578 0.255844
0.338388 -0.222970 0.350646
-0.074829 -0.022764 0.432994
-0.097551 -0.020537 0.443178
0.472242 0.178435 0.468031
-0.313774 0.229660 -0.080200
-0.092134 -0.048418 -0.447633
0.440040 -0.038443 0.232233
0.126256 -0.206197 0.343194
-0.074434 -0.036596 -0.445874
-0.085736 0.049208 0.382748
-0.197713 0.153341 -0.483552
-0.204875 0.015602 -0.449402
0.466313 -0.255496 -0.090936
0.124199 -0.050299 -0.286602
0.337229 -0.115165 -0.427562
-0.055997 -0.033647 -0.427497
-0.238786 0.128606 0.295768
-0.076342 -0.025456 0.428564
0.036699 -0.068989 0.421370
-0.470657 0.105606 0.119994
-0.123221 0.066432 -0.014607
0.414829 -0.172259 0.360664
-0.104698 -0.044424 -0.430323
-0.092390 -0.007714 0.432188
-0.080077 -0.032181 0.424647
-0.088588 -0.066378 -0.447317
0.158859 -0.218919 -0.325214
-0.087262 -0.044430 -0.431350
-0.452583 0.062904 -0.423334
-0.099152 -0.042739 0.435403
0.100730 -0.165558 -0.409314
-0.112454 -0.028222 0.415447
-0.124723 -0.189265 -0.439223
-0.046916 -0.021042 -0.419166
-0.464624 0.383020 0.442680
-0.165796 -0.132964 0.438052
0.736581 -0.017139 -0.462394
-0.104109 -0.030984 0.428608
-0.384233 -0.144945 -0.434569
-0.133693 -0.052786 0.423731
-0.082707 -0.036470 -0.433012
-0.436338 0.558631 0.361032
-0.566405 -0.052993 0.433254
-0.092104 -0.009703 -0.434732
-0.097890 -0.020052 0.432714
-0.115920 -0.038236 -0.437458
-0.067144 -0.030666 0.444796
-0.088167 -0.021416 0.438455
-0.096570 -0.044261 -0.434816
-0.102568 -0.040899 -0.437874
-0.454332 -0.126362 -0.288638
-0.102088 -0.041790 -0.432739
-0.064522 -0.002251 0.408572
-0.112101 -0.028104 -0.431324
0.659169 -0.243461 0.006702
-0.144366 -0.049658 0.432571
-0.221764 0.182345 0.024647
-0.066931 -0.038391 -0.440724
-0.115253 -0.052590 -0.437093
-0.136248 -0.062126 -0.427735
-0.473862 -0.044634 0.216405
-0.334305 0.383737 -0.450530
-0.109173 -0.032084 0.436289
-0.370624 -0.300508 -0.360834
-0.127965 -0.035506 -0.380241
-0.536473 0.196075 0.185898
0.459446 -0.003233 -0.221342
-0.240175 0.180590 -0.448173
-0.073398 -0.134355 -0.413593
0.744317 -0.005174 0.392361
-0.090432 -0.089427 -0.438187
0.356785 -0.014140 -0.252610
-0.105569 -0.170123 0.452885
-0.102576 -0.039727 -0.427821
-0.095673 -0.047226 -0.434126
-0.162213 -0.022512 -0.420883
-0.144876 -0.029374 0.203324
-0.551058 0.464512 -0.051983
0.575465 -0.206852 0.135596
-0.094090 -0.025773 0.421982
-0.092266 -0.047158 0.427160
0.571761 -0.337629 0.223594
0.178587 -0.062424 0.372683
-0.047222 -0.047398 -0.438418
-0.100874 -0.016567 0.430887
-0.079292 -0.030246 0.427271
-0.074479 -0.034872 -0.431442
0.207701 -0.159893 -0.419044
-0.090334 -0.014794 0.431558
0.214441 -0.245689 0.359713
-0.289136 0.293438 -0.435319
-0.397792 -0.340552 -0.020764
-0.570288 0.434005 0.350486
-0.098585 -0.034303 0.431569
-0.065053 -0.051590 0.422438
-0.095717 -0.046697 0.420199
-0.440354 0.306808 -0.016011
0.768583 0.017313 0.307688
0.020535 -0.348403 -0.456051
0.028279 0.135429 -0.369406
-0.430156 0.517854 -0.292113
0.069084 -0.302322 0.351025
-0.081563 -0.058816 -0.427690
-0.068901 -0.051616 -0.437339
0.327624 -0.215789 0.282977
0.000907 -0.038116 0.441726
-0.195915 -0.139415 -0.042577
-0.647751 0.571119 -0.098825
-0.635148 0.576324 -0.365313
-0.118412 0.086572 0.361176
-0.305272 -0.399127 -0.387037
0.767692 0.036451 -0.008710
-0.146397 -0.075352 0.419363
0.078220 -0.093383 -0.442131
-0.031556 -0.134697 0.428914
-0.079304 -0.033221 0.439549
0.733190 -0.318747 -0.189425
-0.103086 -0.013615 0.428267
-0.084347 -0.040007 -0.454752
-0.050735 -0.033980 -0.442553
0.707316 -0.082815 -0.000905
-0.146837 -0.044342 0.432118
0.073236 -0.170432 0.446467
0.524817 -0.249763 0.374237
-0.046407 -0.111474 -0.413644
-0.475320 0.439159 0.369202
-0.651724 0.450002 -0.325712
0.602788 -0.169018 0.333481
0.884786 -0.150149 -0.317006
0.085547 -0.101003 -0.416977
-0.067833 0.018509 -0.217068
-0.156208 -0.052727 -0.400522
-0.087455 -0.019726 0.428164
0.500886 -0.097355 -0.388822
0.177368 -0.102143 0.366282
0.372360 -0.157749 0.146820
-0.102702 -0.009291 0.428907
-0.125122 -0.062226 -0.412670
-0.124662 -0.016624 0.428354
-0.158752 0.088734 -0.322755
-0.100662 -0.091069 -0.420695
0.320145 -0.272989 -0.177069
-0.017515 -0.054220 0.444137
0.436142 -0.305346 -0.360652
-0.224003 -0.151446 -0.373943
-0.313285 0.372310 -0.362500
0.809394 0.010414 -0.337235
-0.538786 -0.141323 0.401879
-0.068000 -0.044109 0.442773
-0.092514 -0.011428 0.441053
-0.267890 0.099472 -0.411103
-0.089266 -0.027115 0.428477
-0.080651 -0.032694 -0.428331
0.430699 0.097603 -0.473465
0.680830 -0.062939 -0.421505
-0.191679 0.146278 -0.244770
-0.158842 -0.182015 -0.111965
-0.092569 -0.029077 0.473603
-0.078394 -0.042960 -0.427046
-0.088734 -0.017377 0.450014
-0.097595 -0.019138 0.430778
-0.081349 -0.009042 0.439867
0.063641 -0.020946 0.379551
-0.093646 -0.009517 -0.437291
0.372557 -0.093690 -0.415873
-0.101805 -0.032819 0.428443
0.390297 -0.096468 0.401846
0.098785 -0.119924 0.416817
-0.063581 -0.013242 -0.429944
-0.139968 -0.042558 -0.430109
-0.458671 0.341612 -0.435937
-0.402882 0.556326 0.129275
-0.461117 0.380671 -0.423838
-0.156358 0.082029 -0.308292
-0.467111 -0.142182 -0.367742
-0.104044 -0.050395 -0.429726
-0.190104 0.308694 0.470172
-0.089831 -0.023551 0.426599
-0.066129 -0.052565 -0.427273
0.555760 -0.105370 -0.423191
-0.364474 -0.101620 0.003004
-0.131744 -0.048867 -0.421657
0.671243 -0.039709 0.168824
-0.107610 -0.032218 -0.436043
0.333071 -0.153800 0.424780
-0.095865 -0.043775 -0.424429
-0.069842 -0.049735 -0.432246
-0.077725 -0.033675 0.430928
-0.099679 -0.046708 0.435623
-0.058440 -0.032765 -0.421512
0.117474 -0.004407 -0.275795
-0.076820 -0.055040 0.430811
-0.426012 0.361061 0.157646
0.348543 -0.070514 0.353748
-0.094983 -0.033709 0.421145
-0.093218 -0.038526 -0.421350
-0.250158 0.182607 0.418856
-0.575095 0.404540 0.085072
0.042933 -0.152373 -0.430952
0.454542 -0.038135 -0.396457
-0.074466 -0.047124 0.437256
0.621186 0.024547 -0.044989
-0.245527 -0.053836 -0.389950
-0.550537 0.451177 -0.271197
-0.490386 -0.114492 -0.146414
-0.257629 0.019775 -0.000115
0.629411 0.034620 0.249751
-0.382767 -0.000056 0.454409
0.803119 -0.316490 -0.382045
-0.081926 -0.003570 0.437228
-0.041354 -0.148570 0.424238
-0.196356 -0.040223 0.340525
0.046441 -0.186436 -0.417753
-0.080787 -0.041286 0.431336
-0.084768 -0.024362 0.431393
-0.111046 -0.033354 -0.435781
-0.110283 -0.243918 -0.381005
-0.268544 0.175893 -0.467634
-0.456685 0.100282 -0.079054
-0.063992 -0.028061 0.418717
0.263147 -0.189786 -0.324607
-0.073472 -0.035070 -0.378270
0.493232 -0.324683 0.416643
0.656188 -0.023137 -0.407083
-0.130508 -0.062888 -0.430937
-0.055422 -0.035877 -0.437419
-0.002776 -0.195677 -0.418482
-0.397874 0.213533 0.333744
0.624695 0.006649 -0.359214
0.107575 -0.091834 0.358290
-0.221736 -0.039467 0.428632
-0.079335 -0.018877 -0.424677
-0.117312 -0.031267 -0.442007
-0.425863 -0.428769 0.398054
-0.110327 -0.035094 -0.435862
-0.081742 -0.050100 0.429518
-0.101673 -0.000476 0.445197
-0.098502 -0.047277 0.432922
0.670375 0.156320 0.460485
-0.090694 -0.043429 -0.435053
-0.300115 0.097542 0.178407
-0.101813 -0.003234 0.424203
-0.083742 -0.029373 0.429231
-0.114615 -0.083857 -0.417295
-0.081104 -0.021616 0.432074
-0.139436 -0.087529 -0.414905
-0.121948 0.016616 -0.411047
-0.093534 -0.040526 -0.437817
-0.645494 0.400048 0.161551
-0.075886 -0.046962 -0.430469
0.424096 -0.282014 0.301786
0.100112 -0.325207 -0.063890
-0.102771 -0.047404 -0.434884
0.213889 -0.175621 -0.440167
-0.417953 -0.030498 -0.005323
-0.545918 0.294781 0.291868
-0.088032 -0.028975 -0.429397
-0.102083 -0.038942 -0.431160
-0.160267 -0.124860 0.413285
-0.112465 -0.069766 -0.449717
-0.578599 0.217186 0.435855
-0.167702 -0.090885 -0.426200
-0.673362 0.552480 0.205484
0.746301 -0.101954 -0.387284
0.185824 -0.009667 0.351752
0.011643 -0.097322 0.428649
-0.101707 -0.036491 -0.432880
-0.088657 -0.005227 -0.420542
-0.141356 0.032335 0.064132
-0.647111 0.505641 0.330425
-0.060595 -0.188748 0.413758
0.021352 -0.071603 -0.423726
-0.113692 -0.045088 -0.412218
-0.085779 -0.039879 -0.430374
-0.067732 -0.032154 0.431711
-0.095138 -0.015956 0.426443
-0.091569 -0.039358 -0.418025
-0.077719 -0.033958 0.438041
-0.085991 -0.062220 0.441727
-0.092594 -0.049581 -0.436600
-0.122613 -0.051775 -0.424945
-0.079312 -0.051053 0.440406
-0.083790 -0.062406 0.427160
-0.605322 0.314198 0.450381
-0.108972 -0.040761 -0.436052
-0.373319 -0.241977 0.412936
-0.348143 -0.145309 -0.327796
-0.090010 -0.041170 -0.433491
-0.086584 -0.026910 0.428010
-0.028226 -0.283213 -0.271783
-0.094731 -0.023787 0.424925
-0.093110 -0.025963 0.416252
0.081891 -0.088435 0.406101
-0.096747 -0.029051 -0.415090
-0.091096 -0.041238 -0.432083
-0.082805 -0.044291 -0.435671
-0.107953 -0.034237 0.431931
-0.158923 0.020159 0.024704
-0.627202 0.329746 0.338695
-0.568665 0.005775 -0.430932
-0.085063 -0.113285 -0.449036
-0.096446 -0.295898 -0.151331
-0.105105 -0.068361 -0.423000
0.076023 0.004099 0.302814
-0.128923 -0.013186 -0.431445
-0.094897 -0.005708 0.432926
0.482575 -0.382805 -0.431224
-0.142395 -0.047421 -0.433553
-0.071334 -0.065343 -0.426553
-0.066876 -0.039352 0.422722
-0.219728 -0.096757 -0.429669
-0.166164 -0.129715 -0.426431
-0.066888 -0.039754 -0.433224
-0.158089 0.154060 0.455797
0.029459 -0.070973 -0.240182
-0.087507 -0.039043 -0.438961
-0.000006 -0.001829 -0.066760
-0.389213 0.221356 0.155265
0.302384 0.182304 0.488199
-0.414589 -0.096331 0.086455
-0.057030 -0.219060 -0.427044
-0.071441 -0.047967 -0.432192
0.267405 -0.142456 0.430628
0.822782 -0.092620 -0.162657
-0.107927 -0.029719 -0.436747
-0.095453 -0.007529 0.429938
-0.133528 -0.053483 -0.443057
-0.112676 -0.012665 0.437973
-0.095970 -0.026737 0.430872
-0.267327 0.208149 -0.390224
-0.081684 -0.025513 0.428741
-0.073228 -0.026137 0.432598
0.591598 -0.357246 -0.323672
-0.635442 0.378964 -0.381197
-0.482872 0.148753 -0.009340
-0.078920 -0.030562 -0.429254
-0.109918 -0.041060 -0.435171
0.050224 -0.219501 -0.402758
-0.032007 -0.044297 0.418957
-0.052327 -0.031622 0.432664
-0.098397 -0.035233 -0.436481
0.305758 -0.039049 -0.047636
-0.496656 0.313666 -0.194010
0.192821 -0.257719 0.009677
0.060515 -0.067802 -0.447713
-0.150799 -0.311526 -0.322543
-0.087562 -0.038341 0.435482
-0.095132 -0.049176 0.431909
-0.141660 0.007028 -0.133179
-0.079039 -0.036239 0.436148
-0.076587 -0.046637 -0.434720
0.550619 -0.018709 0.208361
-0.138456 -0.038961 -0.423402
-0.095849 -0.004261 0.124605
-0.431223 0.425313 -0.371149
-0.083929 -0.005747 0.439653
0.406056 -0.049288 -0.336520
0.021290 -0.018737 0.059547
-0.457293 0.073433 0.420480
-0.090669 -0.044154 0.435952
-0.415562 0.393915 -0.112759
-0.098838 -0.040374 -0.433784
0.254850 -0.040787 0.164553
-0.085803 -0.053990 -0.432164
-0.491070 0.077263 0.001065
-0.078583 -0.040868 0.435054
-0.111737 -0.019100 0.422424
-0.078171 -0.013329 0.438857
-0.097834 -0.031359 0.430241
-0.485997 0.165092 -0.187176
-0.073142 -0.077313 -0.427424
-0.088531 -0.067212 0.435984
-0.117583 -0.040486 -0.436941
0.335796 -0.180385 -0.414888
-0.357512 0.437201 -0.018055
-0.114591 -0.049890 -0.429995
-0.109156 -0.029982 -0.440305
0.083939 -0.163540 0.280922
-0.075759 -0.221572 0.404991
0.328921 -0.067678 0.274210
0.736417 -0.262725 -0.301963
-0.091509 -0.041970 -0.433422
-0.078806 -0.008318 0.425961
-0.065848 -0.234673 -0.422101
-0.487973 0.102549 -0.283969
-0.085561 -0.017637 0.433045
-0.458333 0.245968 0.479429
-0.296678 0.244807 -0.308872
-0.116796 -0.086447 -0.424062
-0.088823 -0.033626 -0.440918
-0.200585 -0.278256 0.385132
-0.093249 -0.026415 0.430338
0.625637 -0.113119 -0.063671
-0.070951 -0.042048 -0.431228
0.050599 -0.150190 0.425171
-0.095317 -0.053966 -0.439870
-0.436016 0.390375 -0.223597
-0.122487 -0.036209 -0.424060
-0.107252 -0.042539 -0.435755
0.077984 -0.158904 -0.414591
-0.100714 -0.030945 0.426294
0.027597 -0.287421 -0.099094
-0.092250 -0.030433 -0.436405
-0.106654 -0.057460 -0.430575
-0.231950 -0.183540 0.442876
0.857126 -0.064602 -0.404275
-0.098103 -0.016431 0.373226
-0.075159 -0.027448 0.429216
-0.076466 -0.009985 0.431168
-0.130160 -0.069246 -0.426229
-0.561225 0.250463 0.384696
-0.100924 0.001579 -0.441158
-0.114360 -0.026662 -0.446215
-0.041100 -0.057461 0.424056
-0.083791 -0.027177 0.439049
-0.043799 0.014934 0.332225
-0.083685 -0.042972 0.423343
0.502341 0.177957 -0.469389
-0.004104 -0.057961 0.451082
0.539449 0.011874 0.158619
0.524989 -0.203242 -0.080824
0.003101 -0.104147 -0.415393
0.581234 -0.056410 -0.389657
-0.048844 -0.079139 -0.423536
-0.059739 -0.057876 -0.437232
-0.078649 -0.033605 0.435264
-0.123672 -0.047051 -0.426193
-0.119013 -0.067057 -0.411681
-0.068934 -0.030623 0.422805
0.797893 -0.116208 -0.251961
0.134935 -0.166722 0.424298
-0.084047 -0.035059 -0.439388
-0.348163 0.430062 0.149512
-0.057051 -0.030850 0.435958
-0.192066 -0.014434 -0.426917
0.454877 -0.101036 -0.405326
0.054804 -0.108348 0.424977
-0.125587 -0.049042 0.426496
-0.081809 -0.032294 -0.438300
-0.041282 -0.048713 -0.427690
-0.163336 -0.083797 -0.435871
-0.098652 -0.054516 -0.432004
-0.108095 -0.021465 0.415867
-0.023262 -0.101899 0.433833
-0.051508 -0.028244 0.436526
-0.092566 -0.038343 -0.439138
-0.583277 0.503687 0.143693
-0.583033 0.233545 0.245875
-0.073677 -0.038399 0.447224
-0.336542 0.279108 0.295387
-0.189926 0.118578 -0.177369
-0.201108 0.064537 -0.437826
-0.071830 -0.284058 0.224521
-0.086071 -0.042555 -0.431677
0.814057 0.009692 -0.134824
-0.086335 -0.049706 -0.431084
-0.162940 -0.102683 -0.426829
-0.071740 -0.025162 -0.437310
0.396744 0.007650 0.295844
-0.328490 0.272399 -0.026746
0.143169 -0.162781 0.428642
0.722203 0.026670 0.071280
-0.548549 0.259515 -0.455039
-0.079233 0.219337 0.469794
-0.064565 -0.050493 -0.441948
-0.086054 -0.049815 -0.432452
0.028438 -0.240686 0.294339
-0.079779 -0.022182 0.427270
-0.029408 -0.186799 -0.418333
0.019567 -0.015944 0.440839
-0.237977 -0.038499 -0.452475
0.673770 0.154633 -0.439491
0.759059 -0.168676 -0.141215
-0.377445 0.068690 -0.425754
-0.168430 -0.312481 -0.441645
-0.089857 -0.044707 0.429641
-0.269655 0.046462 -0.243825
-0.087375 -0.038123 0.425879
-0.099850 -0.022287 -0.419360
-0.092790 -0.005342 0.426944
-0.160507 -0.017066 -0.445897
-0.261780 -0.094753 0.087454
-0.129781 -0.031168 -0.456154
-0.090781 -0.040192 -0.427715
-0.092130 -0.020164 0.429129
0.080424 -0.055495 -0.296986
-0.199605 -0.020404 0.444630
0.658153 -0.211467 -0.155041
-0.526711 0.184977 -0.308912
0.026558 -0.204204 0.418428
-0.129401 -0.049519 -0.463334
0.571580 -0.194495 0.231927
-0.562266 0.432435 0.022317
-0.195950 -0.080706 0.110783
-0.523174 0.093412 0.230093
-0.202508 0.089789 0.220903
0.329421 -0.166260 0.271615
-0.013114 -0.076474 -0.421535
-0.125813 -0.092988 -0.438163
-0.611729 0.446925 -0.095067
-0.068658 -0.141052 0.304299
0.036871 -0.024509 -0.425013
-0.054548 -0.064866 0.440946
-0.196526 -0.346808 0.439579
-0.070177 0.110680 0.279854
-0.067417 -0.056165 0.422471
-0.234020 0.187276 -0.437300
-0.062602 -0.051992 -0.435204
-0.097925 -0.013495 0.428010
0.068278 -0.151303 -0.417731
-0.087347 -0.025678 0.426362
-0.089615 -0.054022 -0.430597
0.015980 -0.066063 -0.429672
-0.087361 -0.034493 -0.432147
-0.103137 -0.042201 -0.445111
-0.517868 0.060135 -0.153065
-0.258679 0.192685 -0.194909
0.340411 -0.131861 -0.349913
-0.099341 -0.032170 0.441338
-0.076475 -0.045807 -0.429656
-0.125683 -0.047674 0.438093
-0.532082 0.248360 0.059082
-0.116547 -0.033059 -0.443541
-0.216308 0.006455 0.470665
-0.082090 -0.045429 -0.438801
-0.052249 -0.100074 0.432888
-0.286416 0.308228 0.130368
0.126519 -0.169674 -0.432300
0.603703 -0.052313 0.431227
-0.321111 -0.118162 0.277679
-0.071203 -0.038083 -0.434753
-0.490391 0.627267 0.386682
-0.337020 0.226341 0.083884
0.699420 -0.341760 -0.419331
-0.151398 -0.041093 -0.427956
-0.094634 -0.083393 0.443666
0.729189 -0.362854 -0.444685
-0.082910 -0.048995 -0.427198
0.766762 -0.012109 0.428158
0.405212 -0.200605 -0.395187
0.038710 -0.198574 -0.243396
-0.092896 -0.019594 0.426234
0.657510 -0.206201 0.339725
-0.304330 0.186007 0.374386
-0.097359 -0.047419 -0.442835
-0.598806 0.381418 -0.413196
-0.077701 -0.020073 0.441243
-0.231429 0.263215 -0.225363
-0.413964 0.481394 0.058640
-0.119889 -0.014948 -0.405879
0.253129 -0.201395 -0.457296
-0.205121 0.233311 -0.299357
-0.083994 -0.080593 -0.432579
0.494035 -0.109884 0.432747
-0.145384 -0.046835 -0.430899
-0.033763 -0.104706 0.443213
-0.083545 -0.025305 0.432833
0.742477 -0.237683 -0.046747
-0.077935 -0.045008 -0.427544
-0.071615 -0.048273 -0.445095
-0.089705 -0.037318 -0.430659
-0.062274 -0.035768 0.439730
0.661471 0.017685 -0.404169
-0.082775 -0.036685 -0.431788
0.334332 -0.072936 0.379638
-0.003992 -0.052498 0.415988
0.526955 -0.064164 -0.208336
-0.211566 -0.133184 0.314537
0.014292 -0.154051 -0.133967
-0.098455 -0.047981 0.431180
0.507733 -0.163960 0.379259
0.866101 -0.005995 0.041446
-0.132197 -0.056931 -0.433695
-0.099971 -0.045461 -0.433354
-0.200510 -0.018038 0.469275
0.340195 0.093323 0.346387
-0.256672 0.069748 0.031318
-0.572047 0.243747 -0.303958
-0.088426 -0.021059 0.428515
0.344455 -0.056372 -0.312316
0.338766 -0.142779 -0.271673
-0.067726 -0.027394 0.430200
0.454765 -0.071730 0.413854
-0.116943 -0.063274 -0.439705
-0.373265 0.316779 0.466120
-0.094391 -0.048636 -0.435194
-0.078838 -0.033769 -0.439488
-0.091478 -0.016799 0.428072
0.172400 -0.112639 0.414585
-0.077677 -0.030963 -0.430546
0.414593 -0.230020 -0.141115
-0.597351 0.319556 -0.436303
-0.099973 -0.043593 -0.425172
0.215495 -0.250104 -0.408644
-0.110883 -0.011864 0.431051
-0.131788 -0.242143 0.404616
-0.076213 -0.036293 -0.432235
-0.334693 0.133545 -0.151398
0.403475 -0.088514 0.097044
-0.055820 -0.026110 0.431218
-0.380468 0.129247 -0.362393
-0.133372 -0.055304 -0.440331
-0.107805 -0.049438 -0.443483
-0.195727 -0.017743 0.443516
0.462762 -0.154303 -0.016624
-0.102929 -0.038026 -0.440564
-0.099697 -0.027141 -0.431975
-0.079497 -0.037247 -0.438607
-0.155844 0.036220 0.132958
-0.136351 -0.017633 0.453279
-0.592987 0.238171 0.031432
-0.081319 -0.017646 -0.422860
0.689755 -0.281865 0.434175
-0.077293 -0.050695 -0.440811
-0.139358 -0.086005 0.443547
-0.094189 -0.016018 -0.425516
-0.219313 -0.222100 -0.409475
-0.093359 0.037624 -0.436323
-0.419396 0.500293 0.299014
-0.067406 -0.008575 0.441435
-0.098272 -0.049778 -0.438110
0.428244 0.099483 -0.358079
-0.533123 0.298876 0.477312
-0.096455 -0.037032 -0.424529
-0.087855 -0.038779 -0.435199
-0.108263 -0.046037 0.441027
0.384261 -0.257813 -0.460054
-0.598673 0.362738 0.068897
-0.419464 0.381535 0.292722
-0.107477 -0.030459 -0.413076
-0.094856 -0.037460 -0.435099
0.542837 -0.038302 -0.406968
0.181763 -0.163045 -0.412507
-0.098186 0.001561 0.442784
-0.008056 -0.101019 0.428444
-0.080503 -0.045277 -0.437278
-0.206700 -0.056448 -0.418669
-0.154474 -0.059814 -0.423737
-0.528855 0.639988 0.030739
-0.075878 -0.035574 -0.430582
-0.093061 -0.032528 -0.425401
-0.535890 0.151796 0.141308
-0.124262 -0.047768 -0.426998
-0.081551 -0.031460 -0.433903
0.027173 -0.259279 0.403776
-0.380246 -0.016904 -0.428656
-0.412217 0.482464 0.416887
-0.026645 -0.127999 -0.411965
-0.288896 -0.228445 -0.286168
-0.074047 -0.039215 0.428683
0.707252 -0.207717 -0.394629
-0.105793 0.037779 0.377833
-0.200337 -0.130307 0.446926
0.263717 -0.151932 -0.388699
0.073736 -0.226033 0.306583
0.757815 -0.189692 0.428573
-0.110675 -0.029840 -0.441184
-0.393982 0.099991 0.500414
-0.067892 -0.036311 -0.435288
0.090831 -0.134397 -0.379077
-0.111478 -0.040565 0.424207
-0.168169 -0.079404 -0.448085
-0.069465 -0.037835 0.432249
-0.125619 -0.231614 0.211959
-0.142715 -0.014207 0.431017
-0.067251 -0.044183 -0.423186
-0.092794 -0.023462 -0.436647
-0.384344 -0.429291 -0.422012
-0.093968 -0.034795 0.421864
0.377251 -0.281475 0.001019
-0.202654 0.122590 -0.428492
-0.663403 0.603387 0.035189
-0.125175 -0.041119 0.441768
-0.544068 0.508588 0.346391
-0.395137 0.475650 -0.122712
-0.075153 -0.051931 -0.432324
-0.097953 -0.044158 -0.435937
-0.226449 0.171340 -0.436423
-0.108653 -0.015230 0.430817
-0.040872 -0.052696 -0.438281
-0.086526 -0.095108 -0.419326
-0.011398 -0.167735 -0.013683
-0.085498 -0.047009 0.438297
-0.097245 -0.010702 0.422847
-0.113279 -0.013586 -0.413025
-0.147582 0.181336 0.252763
-0.122128 -0.034324 -0.422883
0.785002 -0.200871 0.334249
-0.085355 -0.041682 0.427227
0.031183 0.012397 -0.310393
0.334923 -0.021467 0.104657
0.590924 0.072200 0.349478
-0.414902 -0.216073 -0.137355
-0.091289 -0.031728 0.426368
0.639897 -0.428345 -0.395925
-0.079021 -0.030285 0.429398
0.028697 -0.163024 0.222435
-0.439221 0.168151 0.402048
-0.091064 -0.035099 -0.432785
-0.132095 -0.049220 0.430511
0.903382 -0.166516 -0.175505
-0.099341 -0.040253 -0.436526
-0.093310 -0.059254 0.430133
0.033614 -0.045886 0.355768
-0.116246 -0.037662 -0.418802
-0.119507 -0.042894 -0.434110
0.466501 -0.193046 0.458585
-0.080730 -0.044902 -0.430459
-0.028964 -0.008335 -0.446148
0.104372 -0.075463 -0.405716
-0.091371 -0.047197 -0.435976
-0.096962 -0.310562 -0.073080
-0.215001 0.055922 0.448889
-0.546071 0.308849 -0.122710
-0.079580 -0.026611 0.423130
-0.083515 -0.074600 -0.450243
-0.175476 -0.067286 -0.444310
-0.087349 -0.116318 -0.439956
-0.605466 0.549546 0.419048
-0.105408 -0.046712 -0.429669
-0.106765 -0.026371 0.452302
-0.459423 0.597284 -0.359029
-0.091380 -0.031709 0.441895
0.126129 -0.181616 -0.446620
0.030589 -0.118397 0.400474
-0.077089 -0.033469 0.433734
-0.073048 -0.074794 -0.417339
-0.086263 -0.036708 0.433008
-0.439410 -0.291370 0.298783
-0.138434 -0.042467 0.434884
-0.133520 -0.046862 -0.422937
-0.095248 -0.042321 -0.439213
-0.132768 -0.060270 -0.447748
0.797902 -0.101828 0.357436
-0.113864 -0.025014 0.434113
-0.205510 0.147290 -0.460830
-0.041724 -0.281676 0.405874
-0.105121 -0.027246 -0.428835
-0.109577 -0.021348 0.427482
-0.085185 -0.039598 -0.422022
-0.137895 -0.122459 0.452488
0.555996 -0.255177 0.323706
-0.082699 -0.003963 0.436468
-0.163949 -0.156937 0.434890
-0.554826 0.354930 0.414691
-0.145227 -0.051481 -0.405241
-0.270155 -0.247371 0.118356
-0.514686 0.625080 -0.129134
-0.158389 0.001028 0.426300
0.226983 -0.379610 0.418534
-0.146348 -0.070064 0.440392
-0.240735 -0.207275 0.137691
-0.077638 -0.051867 -0.433229
-0.000312 -0.131281 -0.444210
-0.214241 -0.319480 0.202603
-0.439325 0.099466 0.297999
0.722142 0.032605 0.191010
0.728873 -0.014556 -0.041026
0.014328 -0.029950 0.428860
-0.297318 0.388939 0.254345
-0.152405 -0.064304 -0.418694
-0.100831 -0.034828 0.437078
-0.081611 -0.027443 0.434718
0.201423 -0.183357 -0.419415
-0.056195 0.015579 -0.324401
-0.107910 -0.019975 -0.432620
-0.069340 -0.041437 0.456560
-0.101739 -0.062432 0.431190
-0.116202 -0.027599 -0.440459
-0.121081 -0.063439 0.438138
0.046670 -0.040484 0.419015
-0.089812 -0.014843 -0.081967
-0.171411 0.003755 -0.435585
0.911166 -0.139826 0.174459
0.559079 -0.064109 -0.068414
0.686749 -0.193534 -0.231172
-0.084084 -0.052191 -0.434548
0.561407 -0.241249 -0.310318
-0.088873 -0.045479 -0.430555
-0.485913 -0.258980 -0.313939
-0.075449 -0.040717 -0.428748
-0.606993 0.372930 0.240707
0.131712 -0.057886 -0.435295
-0.097468 -0.048796 -0.433496
-0.088495 -0.036009 0.428789
0.231003 -0.256905 -0.379391
0.486228 -0.115282 0.273931
-0.108580 -0.018005 -0.444413
-0.112398 -0.030709 -0.438197
-0.090983 -0.045555 -0.435273
-0.116485 -0.031467 -0.434733
-0.077155 -0.043112 -0.431158
-0.370876 -0.029239 0.139969
-0.120873 -0.021290 0.430043
-0.134702 -0.042478 0.430988
-0.235741 -0.006544 -0.453863
0.214372 -0.138227 0.414444
-0.345630 0.326551 -0.406958
-0.092309 -0.043069 -0.429288
-0.080149 -0.045156 -0.433479
0.650623 -0.157185 0.446903
-0.113695 -0.018036 0.426549
-0.142197 -0.074419 -0.439575
-0.168431 0.039807 -0.220388
-0.081707 -0.039015 0.428713
-0.494743 0.554009 0.444608
0.038307 -0.066324 0.425531
-0.105094 -0.053190 -0.438766
-0.064344 -0.024357 0.414249
-0.257987 -0.260120 -0.402188
-0.050718 -0.223807 0.425462
0.025306 -0.186983 0.098223
0.526700 -0.061750 -0.328130
-0.088845 -0.051938 -0.440472
-0.092217 -0.040592 0.439880
-0.090810 -0.034337 0.454602
0.530646 -0.084882 0.408083
-0.288777 -0.264065 -0.226922
-0.091867 -0.039947 -0.427218
-0.099417 0.020475 -0.408939
-0.064785 -0.048522 -0.432112
-0.130658 -0.020040 -0.420833
-0.173325 0.244252 0.355265
-0.077393 -0.047567 -0.434550
-0.127071 -0.054495 -0.417046
-0.088759 -0.031507 -0.433623
-0.095907 -0.027814 -0.431216
-0.098954 -0.037571 -0.434445
-0.114397 0.190554 0.493922
-0.086942 -0.016456 0.430141
-0.080448 -0.037645 0.436034
-0.549883 0.157049 -0.095363
-0.539944 0.078080 0.410473
0.710096 -0.178125 -0.061974
-0.087393 -0.008934 0.431321
0.103665 -0.228242 0.407369
-0.096629 -0.044846 -0.430163
-0.124272 -0.056990 -0.425144
-0.073285 -0.032605 -0.411303
-0.223618 0.228974 0.359856
0.380603 -0.248681 0.188759
-0.106313 -0.028550 0.429521
-0.101923 -0.040876 -0.440139
-0.061424 -0.086044 0.426940
0.682505 0.001995 0.464157
-0.571741 0.519802 0.047568
-0.120210 -0.054423 -0.442617
-0.245500 -0.324511 0.128188
0.612415 0.008807 -0.327963
0.042484 -0.057225 0.391060
-0.136339 -0.038690 -0.431514
-0.195967 -0.237267 0.022940
0.235966 -0.042402 -0.339539
-0.106942 -0.029143 -0.432700
-0.492064 0.185548 0.453250
-0.579000 0.495754 -0.328369
-0.071841 -0.202133 0.432999
-0.244420 -0.358222 0.018561
0.615382 -0.290913 0.274228
0.606753 0.004367 0.029705
0.456293 -0.078450 -0.450781
-0.082500 -0.074990 0.432175
-0.084085 -0.026489 0.434313
-0.097570 -0.032901 -0.446277
-0.238371 0.177329 0.390953
-0.069448 -0.013741 0.435708
-0.084239 -0.037845 -0.430636
0.089232 -0.048362 -0.168974
-0.104162 -0.041303 0.424063
0.833126 0.058109 0.385166
0.165443 -0.210135 0.390324
-0.099026 0.020016 -0.437439
-0.094830 -0.021572 0.429188
-0.115449 -0.029704 -0.431440
-0.078668 -0.029252 -0.417378
-0.206012 0.156227 -0.003593
-0.166113 -0.060640 -0.420520
-0.086077 -0.037448 0.433402
-0.128856 -0.038354 -0.426442
-0.095739 -0.047830 -0.432627
-0.285229 0.001235 0.447346
0.249278 -0.178910 -0.401886
0.661803 -0.082084 0.379681
0.394088 -0.107653 0.451705
-0.075135 -0.015407 0.431823
-0.537594 0.070269 -0.350682
-0.083127 -0.016074 0.427473
-0.094329 -0.052678 -0.441759
0.141336 -0.178781 -0.415129
-0.119190 -0.094088 -0.430625
0.225133 -0.076117 -0.426699
0.239771 -0.303922 0.158825
-0.370878 0.221478 -0.419069
0.115493 -0.306234 0.385026
-0.080487 -0.036468 -0.426060
-0.146700 -0.323637 -0.073258
0.652077 0.024530 -0.191913
0.026695 -0.071358 -0.373817
0.231299 -0.059002 -0.106658
-0.080526 -0.004359 0.426918
0.389303 -0.129628 -0.218048
-0.055288 -0.052812 0.433401
-0.199595 -0.053173 0.432898
-0.454959 -0.211477 0.011247
-0.062167 -0.061555 -0.433290
0.142185 -0.137412 0.438076
-0.158716 0.113172 0.308584
0.761531 -0.028546 0.243432
-0.167779 -0.054652 -0.434045
-0.282172 0.093746 0.464938
-0.085056 -0.029564 -0.440090
-0.098037 -0.035700 -0.445132
-0.091870 -0.036096 0.445205
0.575007 -0.332906 -0.163522
0.491773 -0.068626 0.323261
-0.085497 -0.038492 -0.431604
-0.450294 0.511916 -0.028725
-0.116089 0.000554 0.468518
-0.255629 0.036929 0.223536
0.494494 -0.065695 -0.429370
-0.083805 -0.053298 -0.433686
-0.197092 0.068350 -0.423605
0.531940 -0.111840 0.019127
-0.538545 0.207904 -0.392733
0.094291 -0.019716 -0.398627
-0.107585 -0.028176 0.438207
-0.090904 -0.033617 -0.420804
-0.571052 -0.257721 -0.440189
-0.146842 0.068557 -0.099048
-0.179397 -0.023042 -0.429497
-0.470771 0.181918 -0.460358
-0.208850 0.027182 0.463581
-0.012842 -0.055700 0.450110
-0.171913 -0.071076 -0.432308
-0.083686 -0.056045 0.426983
-0.113971 -0.053929 -0.435138
-0.569573 0.382321 -0.298183
0.702229 -0.128580 -0.169459
-0.102100 -0.051489 -0.432947
-0.175349 -0.124592 -0.287918
-0.209533 -0.035058 -0.403922
-0.244894 -0.180573 0.231658
-0.110557 -0.046258 0.429913
0.212104 -0.188756 -0.398950
-0.075561 -0.052051 -0.437794
-0.134495 -0.012280 -0.454618
-0.105948 -0.054162 -0.435230
0.317939 -0.267593 -0.291173
-0.087466 -0.029319 -0.437121
-0.191382 -0.276119 -0.029060
-0.101567 -0.040069 -0.432190
-0.477892 0.491800 0.134867
-0.090233 -0.015735 0.423645
-0.160883 -0.069656 -0.437169
0.144276 -0.125692 0.428816
-0.454311 0.148969 -0.449644
0.394643 -0.261329 0.429769
0.124509 -0.139751 0.435092
-0.640242 0.432571 0.408437
-0.099238 -0.055468 -0.439184
-0.080790 -0.036518 -0.423111
-0.053486 -0.063596 0.429170
0.200383 -0.124274 0.430990
-0.117643 -0.038636 -0.436712
-0.108420 -0.014071 0.429706
-0.076157 -0.009830 -0.232596
0.662399 -0.036116 -0.385191
-0.070538 -0.047301 0.440806
-0.136760 -0.059643 -0.427974
-0.090670 -0.036238 0.451815
-0.092737 -0.050412 -0.436941
-0.066997 -0.006511 0.426295
-0.539010 0.452565 -0.133394
-0.111996 -0.034147 0.443251
-0.308309 0.284353 -0.375887
0.255662 -0.081848 0.245302
-0.067902 0.002584 -0.009577
-0.094269 -0.113125 0.438596
0.749862 -0.038653 0.046910
-0.391550 0.242649 -0.100900
-0.603361 0.309792 0.126004
-0.370879 0.016173 -0.337262
-0.028932 -0.094845 0.431182
-0.086260 -0.040104 0.432251
-0.087301 -0.051110 0.437120
0.425523 -0.249688 -0.276314
-0.096123 -0.019943 0.424354
-0.093007 -0.016410 0.433814
-0.094554 -0.040432 -0.427909
-0.082322 -0.044965 -0.421541
-0.098348 -0.029781 0.421908
-0.179274 -0.056903 -0.447534
-0.373323 -0.197434 0.330044
-0.297658 -0.265040 0.200095
-0.123749 -0.027431 0.429306
-0.026902 0.023416 0.160048
0.195744 -0.180569 0.283393
0.633120 -0.221071 -0.288083
-0.169172 -0.006126 -0.411564
-0.096961 -0.028313 0.430003
-0.558315 -0.388237 -0.418266
0.485124 -0.103968 -0.419862
-0.042841 0.064662 0.430338
0.303252 -0.040877 -0.389311
-0.100760 -0.054253 -0.444859
-0.204558 0.220989 -0.398580
-0.360828 0.327899 0.398695
0.350588 0.087090 0.450243
-0.103955 -0.042696 -0.432702
-0.627337 0.498177 -0.426221
-0.320368 -0.139716 -0.098606
-0.110581 -0.065647 -0.424937
-0.301780 0.017239 0.092954
-0.433836 -0.081229 0.418788
-0.095359 -0.344983 -0.362163
0.603164 -0.124106 0.086202
-0.163907 0.051090 -0.059774
-0.086865 -0.010369 0.434723
-0.084302 -0.048541 0.448278
-0.092771 -0.024355 0.428120
-0.235984 0.269309 -0.111944
-0.117151 -0.094826 -0.417736
-0.109585 -0.056911 -0.418562
-0.053766 -0.064231 -0.425188
0.068925 -0.021794 0.244624
-0.104315 -0.030929 0.430215
-0.198184 -0.304922 -0.377234
0.186165 -0.180248 -0.397935
-0.086861 -0.040836 -0.432812
0.291923 -0.021253 0.292311
-0.070839 -0.043114 -0.437656
-0.482962 -0.189016 0.189034
-0.109770 -0.032269 -0.439055
-0.100589 -0.038542 -0.436310
0.210552 -0.211741 -0.407369
0.412535 -0.182694 0.270162
-0.394723 0.316070 0.089160
-0.013485 -0.076491 0.429745
-0.236200 0.245576 0.120052
-0.169235 -0.091700 -0.434096
-0.068508 -0.088588 -0.441301
-0.078901 -0.029079 0.428693
-0.098342 -0.051162 -0.439986
-0.184611 -0.031560 -0.475295
0.802246 -0.055037 0.136510
-0.098011 -0.041744 -0.437725
-0.088873 -0.022853 0.435051
-0.623380 0.171457 -0.394871
-0.110478 -0.052637 -0.434049
0.596524 0.002832 -0.266660
-0.061830 -0.042295 -0.436364
-0.119513 -0.049474 0.432958
-0.040479 -0.025689 0.481080
0.580939 -0.058906 -0.442775
-0.039440 -0.224467 -0.389091
-0.100245 -0.034520 0.451197
-0.477105 -0.003228 -0.283889
-0.043904 -0.043817 -0.432409
-0.085884 -0.038782 -0.444652
-0.198452 0.100787 0.399767
-0.102113 -0.023193 0.436905
0.408801 -0.212411 -0.246050
-0.243242 0.219363 0.466346
-0.088579 -0.016858 0.431435
0.096473 -0.124864 0.422421
-0.539963 0.308109 -0.370201
-0.122553 -0.037442 -0.431433
0.053234 -0.255855 -0.177339
-0.097964 -0.051652 -0.439355
0.225308 -0.052703 0.401326
-0.074996 -0.014447 0.422521
-0.385135 -0.277178 -0.339466
-0.098139 -0.056548 -0.437933
-0.434627 0.487798 -0.205859
-0.071976 -0.019446 0.429800
-0.072485 -0.039487 0.423294
0.070985 -0.355367 -0.358217
-0.091126 -0.030412 -0.436778
-0.113256 0.030333 -0.396302
-0.085250 0.224522 -0.493344
-0.080152 -0.039988 -0.430448
-0.089747 -0.030584 0.427253
0.097904 -0.227673 0.411869
-0.128978 -0.024098 -0.431119
-0.410439 0.607167 -0.022034
0.315290 -0.215352 0.379634
0.266680 -0.116008 0.018242
-0.105016 -0.030631 0.427790
0.528182 -0.120628 -0.152379
-0.120255 -0.015964 0.450250
-0.133918 -0.111275 -0.411694
-0.457297 0.260138 0.427162
-0.020891 -0.039532 -0.442093
0.871160 0.002715 -0.070694
-0.120466 -0.043788 -0.423893
-0.157410 -0.293981 0.096947
-0.099044 -0.023884 0.425624
-0.168116 -0.247009 0.440685
0.399185 -0.102104 -0.443674
-0.114437 -0.003662 0.430090
0.764626 -0.179062 0.020120
-0.061962 -0.016115 0.422557
-0.086763 -0.034910 -0.437227
-0.576806 0.421889 0.448134
-0.102463 -0.025769 -0.438635
-0.082688 -0.021037 0.428330
-0.115203 -0.019873 -0.448287
-0.101211 -0.049317 -0.437472
-0.074796 -0.042338 -0.424936
0.605005 -0.414828 0.403243
-0.142100 -0.105357 -0.408690
-0.545531 0.472015 0.286675
-0.411929 0.380708 -0.333327
-0.472824 0.266299 0.421269
0.073187 -0.383268 0.258757
-0.638767 0.355506 -0.033081
0.125044 -0.155955 0.441323
-0.104753 -0.032450 0.430533
-0.097807 -0.038581 -0.438201
-0.080351 -0.017602 0.429326
-0.026076 -0.035755 0.434662
-0.078571 -0.038004 -0.438714
-0.059072 -0.057328 -0.431903
-0.171302 -0.137891 0.399014
0.020116 -0.176201 -0.434288
-0.139124 -0.054397 -0.406588
-0.065690 -0.046501 0.448698
-0.533203 0.149706 0.342927
-0.325463 -0.121586 0.168309
-0.282253 0.149601 -0.230006
-0.105044 -0.037956 -0.428081
-0.079451 -0.022921 -0.427828
-0.105629 -0.032296 -0.428719
0.022079 -0.169569 0.428627
-0.151760 0.142508 0.468043
-0.064665 -0.025252 0.461128
-0.092171 -0.029058 -0.430118
0.218114 -0.147748 -0.441796
-0.297506 0.333039 0.453392
0.155103 -0.118257 0.416748
-0.144929 -0.039119 -0.432654
-0.115024 -0.009918 -0.426726
-0.422878 0.133946 0.423299
-0.112490 -0.029954 -0.416766
-0.121421 -0.081246 -0.430895
0.126532 -0.251743 -0.317137
-0.240174 0.261049 0.040196
0.322934 -0.040001 -0.183021
-0.064894 -0.040825 0.425596
0.248146 -0.143570 0.378812
0.016954 -0.102679 -0.435321
0.148795 -0.093833 0.391057
-0.086914 -0.052238 -0.436002
-0.374788 -0.292882 0.322213
-0.083489 -0.047580 -0.425354
-0.141374 -0.036991 -0.427010
-0.364845 0.003164 -0.108834
0.146695 -0.299456 -0.235473
0.068884 -0.274883 0.356221
-0.264104 0.160960 0.480559
-0.127299 -0.042491 -0.428773
-0.098032 -0.047240 -0.438289
-0.115221 -0.045095 -0.423840
-0.106247 0.000253 0.429016
-0.167821 -0.057511 0.451269
-0.150926 -0.103704 0.441615
-0.348500 0.399888 -0.194504
-0.393200 -0.111856 -0.214682
0.852124 -0.042646 0.298066
0.541876 -0.165265 -0.456460
-0.206380 -0.072405 0.437973
-0.093480 -0.033688 -0.434759
-0.054207 -0.124844 -0.440301
-0.106295 -0.039166 -0.431261
-0.158096 -0.064920 -0.440940
-0.046749 -0.027481 0.441215
-0.122637 -0.048208 -0.430331
-0.089368 -0.046068 -0.429783
-0.525278 0.193673 -0.115622
-0.197740 0.092704 0.446170
0.653369 -0.075181 -0.268179
-0.520847 0.149567 0.029010
0.243395 -0.034677 -0.254134
-0.055443 -0.036582 0.431323
-0.284229 -0.132684 0.447052
-0.107891 -0.032631 0.429455
0.268230 -0.331372 0.360489
-0.099733 -0.027189 -0.425895
-0.103167 0.081677 -0.274277
-0.171511 -0.077413 -0.414214
-0.505393 0.470766 -0.383733
-0.541770 0.213668 0.098333
-0.186773 -0.063149 -0.414312
-0.087423 -0.024561 0.438172
-0.391706 0.482728 -0.394365
-0.081846 0.026827 -0.315522
0.565109 -0.282360 -0.496905
-0.067904 -0.055922 -0.265993
-0.109842 -0.028559 -0.431181
-0.151409 -0.049013 -0.438422
-0.255856 -0.238278 0.309931
-0.088121 -0.007957 0.428477
0.198044 -0.251447 0.394718
-0.102586 -0.022696 0.425741
-0.061078 -0.029938 -0.436366
0.448313 0.001173 -0.116958
-0.650187 0.510550 -0.147345
-0.377563 0.478420 0.226118
-0.500504 0.621456 0.212088
-0.079778 -0.034770 -0.432962
0.644582 -0.012897 -0.145713
0.101178 -0.280723 -0.387930
-0.446522 0.566956 0.248627
-0.069062 -0.039216 -0.422323
-0.209636 0.002817 0.441006
-0.096152 -0.035469 -0.435777
-0.616186 0.617435 0.320870
-0.074541 -0.036958 0.445574
0.661846 -0.373038 -0.057052
-0.363102 0.292679 0.208602
-0.259656 0.242768 -0.406787
-0.145056 0.169636 -0.478119
0.700126 -0.263479 0.283295
-0.117524 -0.053926 -0.441740
-0.114820 -0.007838 0.425008
-0.182903 -0.277683 -0.420307
-0.238250 -0.236431 -0.366053
-0.146653 -0.036207 -0.446908
0.084878 -0.183614 0.411959
-0.394616 0.081798 0.206519
-0.081106 -0.025680 -0.401540
-0.134794 -0.039544 -0.149292
-0.176182 0.017866 0.443537
0.461505 0.024332 0.411560
-0.093429 -0.041483 0.420991
0.160952 -0.190073 0.187570
0.668033 -0.280459 -0.467410
0.562166 0.083292 -0.395745
-0.523409 0.354697 0.114916
-0.083439 -0.051380 0.431362
-0.082003 0.008557 -0.329135
0.002886 -0.265306 0.112018
-0.067382 -0.006064 -0.429208
-0.108537 -0.041610 -0.423223
-0.439793 0.025746 -0.208719
-0.082964 -0.049717 -0.432862
-0.305405 0.294036 0.392436
-0.182184 -0.201582 -0.399590
0.595519 -0.115164 -0.382143
-0.356440 0.408642 0.358385
0.004347 -0.278928 -0.334908
-0.129525 0.206327 -0.354620
-0.252775 -0.282908 0.442448
-0.101063 -0.014315 0.430572
