-0.050168 -0.036837 -0.283203
-0.066470 -0.025927 -0.315000
0.273640 -0.567632 0.315389
-0.116459 -0.007447 0.299493
-0.108981 0.005856 -0.320486
-0.098601 -0.022799 0.311083
-0.123952 -0.043193 -0.311246
-0.106631 -0.009854 -0.313350
-0.178422 -0.654521 0.160109
-0.094090 0.007236 0.309730
0.363831 -0.424183 -0.078211
-0.129693 -0.005868 -0.315761
-0.131128 0.002701 0.314731
-0.108463 -0.045869 0.311418
-0.097721 -0.032081 0.309254
-0.109878 -0.061785 -0.300884
0.282591 -0.614384 -0.320960
-0.103078 0.017708 -0.298179
-0.120580 -0.509846 -0.311088
-0.107543 0.021239 -0.307977
-0.247936 0.068520 -0.192740
-0.087684 -0.022165 0.309035
-0.293719 0.483568 0.056541
-0.100562 0.023231 -0.297262
-0.104586 0.901295 -0.104160
-0.109484 -0.023713 0.312696
-0.114156 0.001194 -0.320400
-0.093975 0.084342 0.222926
-0.126561 -0.068421 -0.304127
-0.138617 -0.007306 0.262974
-0.061833 -0.014011 0.304575
-0.260744 0.695923 0.259300
-0.097226 -0.043297 0.296175
-0.098568 -0.022886 0.297345
-0.065221 0.006196 0.312161
-0.105106 0.688509 -0.027964
-0.087628 0.014262 -0.312851
-0.113391 -0.033305 -0.312435
-0.075258 0.572667 0.260878
0.445531 -0.043203 -0.042284
-0.083879 -0.015636 0.302884
-0.099075 0.008030 -0.307783
-0.103346 -0.206771 0.021545
-0.234332 -0.202286 -0.297597
-0.111024 -0.057381 -0.306155
-0.135670 0.100492 0.144618
-0.163725 -0.313299 -0.226585
-0.242920 0.460591 -0.236033
-0.179051 -0.373645 0.298085
-0.058782 -0.042253 0.330688
-0.090157 0.007284 0.286347
-0.116150 -0.028098 -0.314827
-0.116742 -0.045461 -0.311806
0.219101 -0.540409 0.286920
-0.315169 0.329000 0.112758
0.389910 -0.452527 0.071750
-0.112767 -0.019283 -0.296268
-0.264612 0.241636 0.062266
0.123911 -0.027448 -0.170407
-0.098339 -0.032524 0.302546
0.207132 -0.118714 -0.099019
-0.069111 -0.025612 0.318679
-0.100975 -0.020888 0.313491
-0.062257 -0.348045 0.242645
-0.108471 -0.596123 0.150971
0.255263 -0.249980 0.209476
-0.095430 -0.008139 0.308245
0.345854 -0.689300 0.234701
-0.092067 0.009661 -0.315558
-0.118376 0.448751 0.186529
-0.119174 -0.024394 0.309606
-0.089354 -0.005313 0.312742
0.330911 -0.317838 0.197413
-0.107903 -0.031428 0.306307
-0.092734 -0.009843 -0.299330
0.061884 -0.041011 -0.244163
-0.061488 0.015482 -0.291242
0.332435 -0.121415 0.308882
-0.098294 -0.006606 0.308996
-0.117705 0.019001 0.318600
-0.124523 -0.025517 -0.316126
-0.095969 0.275335 -0.014507
-0.032610 0.013304 -0.282735
-0.257138 0.679714 -0.186645
-0.297997 0.223582 0.016927
-0.105130 -0.008158 0.317923
-0.092221 -0.035198 0.316999
0.440946 -0.406480 0.045699
0.162498 -0.624325 -0.225228
0.262668 0.108195 0.009146
0.210733 -0.010122 -0.304888
-0.146862 -0.038722 -0.305717
-0.084612 -0.025387 0.294830
-0.113454 0.014407 0.297340
-0.108912 -0.062796 -0.304758
-0.271398 0.200766 -0.057956
-0.091681 -0.026417 0.309978
-0.018474 0.211886 -0.283357
-0.220772 0.407191 0.308013
-0.098478 -0.014454 -0.301616
-0.086543 -0.010320 -0.311536
0.326838 -0.507641 0.205394
-0.098260 -0.042654 -0.293427
0.016817 0.017137 0.304651
-0.130770 -0.212731 -0.303286
0.397506 -0.052300 -0.113263
-0.083958 0.735680 -0.243148
-0.208970 0.514122 -0.266291
-0.073122 -0.006228 0.316177
-0.127624 0.618271 0.062186
-0.100397 -0.032019 -0.298714
-0.104996 -0.050165 -0.309446
-0.102484 -0.023527 -0.317451
0.266302 -0.043435 -0.293020
-0.139026 0.017255 0.291556
-0.113338 -0.063988 -0.302827
0.402544 0.183409 -0.120448
-0.093276 -0.001334 -0.314573
-0.294007 0.728922 0.184685
-0.084176 -0.014830 0.316438
-0.226067 0.087828 0.309770
-0.215666 0.180004 -0.293947
-0.129345 0.110085 0.310336
-0.081118 0.020963 0.292938
-0.193091 -0.252926 -0.302395
-0.086360 0.924366 -0.282001
-0.087532 -0.017760 0.309992
-0.113823 -0.012364 -0.297479
-0.261786 -0.290649 -0.160176
-0.095522 -0.006438 0.291674
-0.124925 -0.044726 -0.316745
-0.197308 -0.189880 0.287423
-0.087171 -0.029261 0.310945
-0.093059 -0.019324 -0.319497
-0.259666 -0.039449 0.212132
0.401623 -0.142662 0.122643
0.122812 0.092141 -0.268528
0.366190 -0.603239 0.124315
-0.133360 -0.045278 -0.314522
-0.097754 -0.002609 -0.296945
-0.103655 0.031617 0.296122
-0.276597 0.050179 0.003993
-0.094594 -0.010919 0.311500
-0.123493 -0.021094 -0.312550
0.414799 -0.311046 -0.193343
-0.085135 0.024536 -0.314786
-0.009736 0.715559 0.238407
0.266493 -0.633070 -0.278129
-0.108979 0.164895 0.301601
-0.265660 0.269341 -0.185468
-0.123374 -0.014067 0.299217
-0.110584 -0.021192 0.300607
-0.136336 -0.029765 -0.315079
-0.162596 -0.091201 0.304691
-0.100072 -0.025544 0.314202
-0.269648 0.599838 -0.074217
-0.106796 0.028003 0.312015
-0.103721 -0.014250 -0.312788
-0.108500 -0.026524 -0.314645
0.356048 0.072470 -0.160028
-0.212815 0.452721 0.283628
-0.081845 -0.016824 -0.292411
-0.077454 -0.036507 -0.298972
-0.097549 0.149433 0.267285
-0.111961 -0.034389 0.315463
0.425521 0.120254 -0.243790
-0.111380 -0.017572 0.316466
-0.238684 -0.072029 -0.284691
0.223181 -0.022717 0.324623
-0.134304 0.414837 -0.317844
0.405067 -0.549425 0.214297
-0.110850 0.285285 0.323870
-0.099614 -0.003369 -0.318266
-0.061918 -0.011682 -0.300259
-0.070363 0.007148 -0.297601
-0.285310 0.016003 0.266856
-0.099849 0.252117 -0.222500
0.417190 -0.101078 0.197966
-0.128798 -0.060058 -0.318065
-0.211983 -0.006400 0.173529
-0.117423 -0.022766 -0.308529
-0.104900 0.833994 0.123578
-0.292613 0.393805 -0.214468
-0.124957 -0.064503 -0.325003
0.354839 -0.274965 0.308966
-0.123173 0.009776 0.303310
-0.163669 0.022911 0.327164
0.238770 0.139251 -0.212230
-0.271856 -0.019603 -0.161146
-0.098006 -0.037184 0.309745
0.173944 0.063244 0.056671
-0.119556 0.530688 -0.151127
-0.092687 -0.075438 0.281165
-0.146567 0.046844 0.302371
-0.272224 0.080909 0.085883
-0.124690 -0.030509 -0.314468
0.375369 -0.397861 0.309887
-0.022003 -0.090481 -0.289227
-0.104845 -0.023819 -0.311575
-0.068870 -0.003845 0.312892
-0.236495 0.154201 0.300674
-0.109989 -0.031867 -0.317138
-0.103312 -0.027502 -0.310938
-0.095907 -0.017717 0.313847
0.201295 0.158340 0.209279
-0.230026 0.553691 0.195825
-0.091633 -0.029503 0.316609
-0.107545 -0.053674 -0.313035
-0.098227 -0.010575 -0.295324
-0.123184 -0.058074 -0.307356
-0.123955 -0.185981 0.269013
-0.078611 -0.001562 0.285539
-0.131050 -0.042607 -0.317395
-0.064689 -0.004236 0.300655
-0.128514 -0.021489 -0.310566
-0.104567 -0.011960 -0.314671
-0.109750 -0.385572 -0.148449
-0.239110 -0.589630 -0.302037
-0.266735 -0.311813 0.208022
-0.085502 -0.013539 -0.300922
-0.094940 -0.026029 0.303178
0.408979 -0.131910 -0.289511
-0.121599 -0.025936 -0.318536
0.194589 0.028537 0.318121
-0.268815 0.782257 -0.193884
-0.138964 -0.003504 -0.315107
-0.063424 -0.452468 -0.292633
-0.046398 -0.017154 -0.295702
0.324801 0.008841 0.145515
0.219335 0.064259 -0.307909
-0.180782 -0.351538 -0.076790
-0.216660 -0.374892 0.310543
-0.099284 -0.023553 0.320966
0.428470 -0.434899 -0.157360
-0.098612 -0.005929 -0.304071
-0.021705 -0.097937 -0.071724
-0.146771 -0.005480 -0.296615
-0.212729 -0.083592 -0.270413
0.009219 -0.062801 -0.293194
-0.209017 0.940436 0.038157
-0.068751 -0.016813 -0.302660
-0.255552 0.157748 0.240998
-0.262741 0.908338 -0.278391
0.495908 -0.460744 0.151126
-0.092895 -0.028880 0.310277
-0.099171 0.232067 -0.116453
-0.110332 -0.057106 -0.317421
-0.135549 -0.163663 0.312693
-0.078241 0.334122 0.302701
0.375567 -0.345630 -0.019049
-0.104522 -0.003903 -0.317411
-0.109794 -0.005620 0.296418
-0.135729 -0.024450 -0.323201
-0.119099 -0.010423 0.301314
-0.116322 -0.029594 0.286101
-0.074729 -0.033362 0.314658
-0.077447 -0.002405 0.318924
-0.113863 0.011571 0.315391
0.304050 -0.224924 0.294443
-0.136330 -0.550683 0.106754
-0.101914 -0.034375 -0.314153
-0.070761 -0.032213 -0.313662
-0.133365 -0.042528 0.298681
-0.251579 -0.588704 -0.194403
-0.115801 -0.020297 -0.302564
-0.072605 0.002483 0.298045
-0.129408 -0.028481 -0.299673
0.372548 0.146289 -0.263795
-0.107758 -0.032154 -0.321804
-0.120688 -0.028381 0.281982
-0.055151 -0.027489 -0.313432
-0.052514 0.015719 -0.309865
0.428002 -0.341413 -0.265493
-0.111226 -0.015805 -0.317741
-0.129509 -0.028136 0.294339
-0.107530 -0.003889 0.299564
-0.103309 -0.030792 -0.319235
-0.100463 -0.029867 0.301391
-0.109350 -0.006457 -0.321262
-0.079333 0.016038 0.311940
-0.117356 -0.044948 -0.309056
-0.098349 -0.124033 -0.288906
0.430609 -0.126730 -0.239037
-0.095506 0.181419 0.304102
-0.094248 -0.019642 0.316978
-0.083035 -0.030274 -0.303675
0.366580 0.112452 0.317285
-0.183898 0.053282 0.272035
0.072688 0.059791 -0.308658
-0.070623 0.044675 -0.290077
0.149842 -0.028659 0.067981
-0.151457 0.778162 -0.311290
-0.095705 -0.513944 0.153559
0.251511 -0.533044 -0.127600
-0.092144 -0.026673 -0.299000
-0.086166 -0.010736 0.316394
-0.127706 -0.037985 -0.315804
0.460909 -0.112006 0.078267
-0.012025 0.059814 -0.301803
-0.082509 0.040147 -0.306595
0.300711 -0.640386 0.109015
-0.090618 -0.025425 0.292837
0.051463 0.160874 -0.294120
-0.110241 -0.261108 0.293594
-0.089738 0.798528 0.237664
-0.122606 -0.003748 -0.302736
-0.120125 -0.011811 0.307850
-0.223196 0.952241 -0.193569
-0.086621 -0.034677 -0.310906
-0.107275 -0.033077 -0.300978
-0.070762 -0.074300 0.284186
-0.110031 0.001613 -0.301908
0.019096 -0.072085 0.288695
-0.183638 -0.545094 -0.275296
-0.132322 -0.013860 -0.316393
-0.087305 0.010055 0.292858
-0.063005 -0.001791 0.314261
0.226166 -0.149174 -0.308356
-0.113708 -0.061655 -0.297116
-0.112037 0.008078 -0.313244
-0.064623 -0.006402 0.308917
0.253703 0.056345 -0.283029
-0.154430 -0.068000 0.321478
0.301391 -0.526671 -0.289591
-0.117079 -0.042527 0.308519
-0.276091 0.648014 -0.219187
-0.103937 -0.051873 -0.299544
-0.171201 0.461347 -0.312775
0.002512 0.012501 0.228049
-0.128899 -0.017566 -0.312862
-0.170286 -0.631709 -0.259535
-0.253215 -0.162466 0.212235
-0.105208 -0.028818 0.295088
-0.137695 -0.038982 -0.305094
-0.124020 -0.047602 -0.315476
-0.115489 -0.036424 -0.317756
0.303074 -0.112184 0.302520
-0.100347 0.273221 -0.312796
-0.101462 0.017633 -0.312890
-0.128670 -0.071206 -0.315291
0.450898 -0.439956 -0.067325
0.384890 0.048499 0.289200
-0.132379 -0.052279 -0.306812
-0.102186 0.075093 -0.320021
-0.101123 0.005752 0.310830
-0.086388 -0.024292 0.312009
-0.239151 0.330505 0.295413
-0.113530 -0.030258 -0.317434
-0.068141 0.000066 -0.308218
-0.115162 -0.024079 -0.315930
-0.100671 0.007220 0.313876
-0.134189 -0.012375 -0.316262
0.146640 -0.571788 -0.112050
-0.147947 -0.032606 -0.312209
0.058411 0.157486 0.319179
-0.109123 -0.022804 0.315702
-0.095246 -0.018731 0.312325
0.128401 -0.235847 0.288227
-0.079998 -0.014143 0.288514
-0.090755 -0.000197 -0.309319
-0.287499 0.499264 -0.155988
-0.123063 0.047973 0.301922
-0.084282 0.010471 0.306390
-0.098301 -0.006664 0.317084
-0.115500 0.028063 -0.306361
-0.084486 -0.005885 0.315743
-0.129876 -0.043092 -0.317593
0.175759 -0.349484 0.154279
-0.115025 -0.017124 0.295275
-0.189178 -0.475953 -0.295194
-0.071224 -0.013726 0.308467
-0.002069 -0.377902 -0.130624
0.330696 -0.426646 0.317107
-0.280515 -0.583116 0.265770
-0.076751 -0.007920 -0.301282
-0.261222 -0.570824 0.159840
0.326448 -0.017681 -0.283970
-0.080199 0.014160 -0.298780
-0.137411 -0.066007 -0.315266
-0.113185 -0.032994 -0.316968
-0.251817 0.256152 -0.295834
-0.038697 0.592294 -0.168960
-0.285274 0.606549 0.009913
-0.274978 0.254058 0.256350
0.418728 -0.135685 0.175494
0.040127 0.212930 -0.155683
-0.122407 -0.056525 -0.311746
0.169055 -0.459011 0.247863
0.222239 -0.500195 -0.135403
-0.067743 0.454359 -0.173046
-0.078269 -0.002168 -0.300917
-0.037283 -0.270045 -0.250904
-0.267101 -0.103528 0.034462
-0.250086 0.082524 0.245904
-0.219454 0.002953 -0.282558
0.244429 -0.493634 0.195493
-0.099749 -0.016104 0.309304
-0.078623 -0.005730 0.308540
0.064237 0.199429 0.149535
0.349132 -0.511352 -0.298291
-0.120436 -0.058589 -0.309179
-0.129455 -0.036800 0.056271
-0.098699 0.144456 0.295830
-0.230757 0.948177 0.132969
-0.113834 -0.017394 -0.318871
-0.274666 -0.550516 0.263425
0.403078 -0.624535 0.162853
-0.092907 -0.013952 -0.306256
-0.262070 -0.520958 -0.294031
-0.114383 -0.023528 -0.310899
-0.121582 -0.010541 0.309430
-0.084579 0.369676 -0.209430
-0.091569 0.029421 0.319636
-0.109790 -0.017972 0.295043
-0.119516 -0.030576 0.302782
-0.116634 -0.032256 -0.313945
-0.104962 -0.046817 0.320680
-0.115406 -0.039308 0.293213
-0.112766 -0.013228 -0.319653
-0.110700 -0.004300 0.310822
-0.289582 0.512607 0.259603
-0.120902 -0.040513 -0.315593
-0.110525 -0.026015 -0.319678
-0.101095 -0.046174 -0.313550
-0.083669 0.038977 -0.307536
0.257613 0.112928 0.090775
-0.081913 0.361302 0.318006
-0.068825 -0.006419 -0.318562
0.276393 0.080113 0.324628
-0.154131 -0.046863 -0.318898
-0.304824 0.646957 -0.152749
-0.111499 -0.035444 0.298979
-0.290138 0.813642 -0.042772
-0.075509 0.937369 0.011905
-0.108242 -0.582543 -0.139340
-0.088994 -0.012738 0.310288
-0.274225 0.596662 0.142392
-0.105600 -0.009166 -0.314950
-0.108699 -0.048807 -0.308185
-0.074568 -0.016227 0.290337
-0.101967 -0.039268 -0.318375
-0.043422 0.921428 -0.123262
-0.100706 -0.011497 -0.313293
-0.095935 0.722545 0.059048
-0.107351 0.002802 -0.298070
-0.110241 0.037289 0.293310
-0.260801 -0.422107 0.176130
0.408847 -0.111080 -0.245458
-0.089487 -0.029590 -0.314696
-0.084383 0.000184 0.306694
-0.116346 -0.031686 -0.314066
-0.067725 0.003666 0.294577
-0.076183 0.831088 -0.285831
0.009267 0.160305 -0.292897
0.294022 -0.270930 -0.299815
0.217441 -0.583992 0.029898
0.421002 -0.524509 -0.237556
-0.091377 0.494756 -0.216043
-0.112072 -0.017811 0.289568
-0.039700 0.018788 -0.299542
-0.095993 -0.019543 0.290711
-0.113178 -0.027316 -0.310727
-0.125740 -0.057382 -0.296689
-0.279574 0.310952 0.110627
0.137511 -0.030537 0.353050
-0.161875 0.108650 -0.088501
-0.131417 -0.016622 -0.318185
0.096976 -0.251668 -0.127022
-0.222087 -0.373222 -0.292394
-0.140766 -0.586393 0.046743
-0.130749 0.022520 0.291088
-0.109384 -0.010156 -0.316160
-0.093125 0.559505 -0.116212
-0.123839 0.013517 -0.314493
0.182495 -0.595899 0.314595
-0.032782 -0.047395 0.315730
-0.114756 -0.006890 -0.317039
-0.064520 -0.016262 -0.314601
-0.134440 -0.156135 -0.252185
-0.188468 0.568183 -0.287746
-0.107474 -0.021033 0.303229
-0.098803 -0.522777 -0.107731
-0.163548 -0.166890 0.309484
-0.140177 0.055913 0.301800
-0.102119 0.003555 -0.316119
-0.114729 0.524484 -0.303686
-0.118492 0.925491 -0.156807
0.225211 -0.041119 0.288978
0.388861 -0.083583 -0.292898
-0.071350 -0.417372 0.312388
-0.121579 0.019175 0.280940
-0.083933 -0.033770 0.311877
-0.249443 -0.643002 0.081179
-0.077816 0.008352 -0.311199
0.126675 -0.493260 0.050454
-0.108924 0.003739 -0.311831
-0.098490 0.004853 -0.326908
-0.078076 0.133137 0.312607
-0.097107 -0.024413 0.308828
-0.276976 0.786991 0.065317
-0.101480 -0.032107 0.313002
0.235759 -0.092872 -0.266841
-0.126740 0.121309 -0.302114
-0.131588 -0.021312 0.306624
-0.082358 -0.002683 0.324920
-0.111879 -0.029290 -0.315983
-0.073558 0.000065 0.311326
-0.085019 -0.032811 0.301569
-0.123888 -0.002489 -0.318216
-0.098583 0.003263 0.293639
0.334772 -0.146205 0.325531
-0.169694 0.174797 -0.310631
0.396482 -0.359816 0.184025
-0.114799 -0.000901 -0.321914
-0.288222 -0.529040 -0.248709
-0.083788 0.023673 0.319372
-0.069035 -0.211730 0.125360
-0.128909 -0.019224 -0.316116
-0.105938 -0.017556 0.310889
-0.095830 -0.005241 0.291427
-0.088038 -0.020721 0.293959
-0.213551 -0.491947 -0.099779
-0.091777 0.005588 -0.311080
-0.066260 -0.079154 -0.291180
-0.127437 0.008577 -0.315806
-0.267464 0.039631 -0.078781
-0.097911 -0.029626 0.310308
-0.108105 0.017914 0.318051
-0.066047 0.028838 -0.332126
0.002371 0.126528 0.271407
0.404016 -0.369056 -0.175872
-0.085980 -0.021719 0.307794
-0.271999 0.828825 0.187688
0.308807 -0.598201 -0.257713
-0.042085 -0.004112 -0.296276
-0.099286 -0.575925 0.299088
-0.097911 -0.004290 -0.311022
0.016147 -0.140353 -0.295789
0.042396 0.071352 0.071315
-0.105382 -0.016643 -0.321648
0.322527 -0.355397 -0.312547
0.448052 -0.602879 -0.245976
0.014146 0.065264 -0.313378
-0.090628 -0.032681 -0.313687
-0.102181 -0.004619 0.297560
-0.109379 -0.006063 -0.295717
-0.131035 -0.044591 -0.313954
-0.132089 0.008119 -0.311713
-0.088326 -0.008152 0.295864
-0.225167 -0.251966 -0.299203
-0.068930 -0.000351 0.313316
-0.107561 -0.005409 -0.316455
-0.086074 0.023312 0.313212
-0.094681 -0.015773 0.291997
-0.105509 -0.017684 0.319040
-0.092948 -0.246638 -0.218797
-0.176766 0.683706 0.328045
-0.100537 -0.050506 -0.308447
-0.073309 0.003255 -0.306668
0.251541 -0.019184 -0.142782
0.506412 -0.571176 -0.160804
-0.120865 0.019709 -0.311014
-0.170071 0.940579 -0.102468
0.163823 -0.333970 -0.275912
-0.092155 0.002562 -0.304997
-0.088884 0.586144 0.297914
-0.122699 -0.044048 -0.314628
-0.122482 -0.040321 -0.300166
-0.099589 0.005188 -0.298716
-0.136294 0.010591 0.317550
-0.101850 0.275104 0.220776
-0.039874 -0.552730 0.254116
-0.255863 0.179564 0.166418
-0.072005 -0.003873 -0.297413
-0.062439 0.085712 0.090748
-0.116601 0.064590 0.300688
-0.075105 0.005208 0.315107
-0.112463 0.001612 -0.323347
-0.277400 -0.257955 -0.072314
-0.087524 -0.034694 0.318815
-0.109610 -0.041849 -0.308137
-0.115842 -0.245468 -0.186339
-0.086352 -0.008191 0.303050
0.332763 -0.423051 0.160776
-0.117547 -0.029376 -0.322350
-0.093923 -0.069861 -0.307095
-0.093528 -0.013967 0.297364
-0.074512 -0.046350 0.288432
-0.080119 0.631464 -0.024643
-0.101805 -0.033906 -0.315943
-0.093941 0.324810 -0.254999
0.324051 -0.311453 0.321204
-0.262602 -0.036486 -0.064220
0.190558 0.171715 -0.301264
-0.095235 -0.008247 0.297948
-0.096002 -0.008003 0.295201
-0.087986 -0.022738 -0.307235
-0.128576 -0.005078 -0.307684
-0.083286 -0.059485 -0.297414
-0.115649 -0.043649 -0.320658
-0.112235 0.070749 -0.201807
-0.099722 -0.021017 -0.293288
-0.283428 0.868875 -0.165916
-0.138068 -0.411302 0.044087
-0.103320 -0.004039 -0.314659
-0.088416 -0.170803 0.283343
-0.090172 -0.016673 0.302166
-0.133735 -0.049784 -0.312140
-0.038181 0.005372 -0.306227
-0.255051 -0.227495 -0.171529
-0.113370 -0.062521 -0.315651
-0.275758 -0.213216 -0.300590
-0.131279 -0.044055 -0.323525
-0.254789 -0.460976 0.281062
-0.131787 -0.039113 -0.313836
-0.099009 -0.013144 0.315848
0.373782 -0.514859 -0.131874
-0.059752 -0.011098 0.299327
0.332590 -0.037635 -0.151777
-0.271084 0.463745 -0.021444
-0.119776 0.116384 -0.323699
-0.085483 -0.014759 0.314268
-0.079159 -0.011079 0.312837
-0.073494 -0.011643 0.309849
0.004296 0.101868 0.197363
0.326924 -0.558450 0.073318
-0.115395 0.022395 0.295519
-0.084888 0.017836 -0.298402
-0.095373 0.000845 0.313028
-0.290612 -0.292344 0.057850
-0.135954 -0.252226 0.302543
-0.101569 -0.000544 0.297639
-0.254567 0.098779 -0.144594
0.354217 0.025483 -0.303020
-0.076410 -0.016354 0.313940
-0.070492 -0.003466 -0.299260
0.123721 0.018257 0.312075
-0.101265 0.084675 -0.300681
-0.077068 -0.020171 0.314048
0.431120 -0.562819 0.294816
-0.090471 0.011242 -0.289047
0.388125 -0.002493 0.309226
-0.108325 0.011894 -0.312551
-0.269528 0.008463 -0.249558
-0.096141 -0.472244 0.016740
-0.097655 -0.021542 0.312374
-0.100665 0.205964 0.311044
-0.105867 -0.005295 -0.315721
-0.080879 -0.000649 -0.309945
-0.081537 -0.141585 0.237671
-0.092276 0.201393 0.109635
-0.240707 -0.445733 -0.147566
-0.080992 -0.007932 0.310816
-0.084772 0.003982 -0.308226
-0.098398 0.081711 0.359179
-0.118799 -0.048148 -0.316814
-0.115500 -0.029802 -0.317599
-0.086377 0.494732 0.169004
-0.091873 -0.349553 -0.294082
-0.067520 -0.037858 0.321413
-0.264146 -0.177688 0.262474
-0.091049 -0.027985 0.320646
-0.266248 -0.218062 0.174196
-0.130804 -0.016300 0.290496
0.032483 -0.076606 0.225780
-0.216254 -0.015432 -0.305846
-0.099983 -0.004628 0.314098
-0.091235 0.026420 0.318861
-0.267455 0.015233 0.178821
-0.096551 0.038371 0.299291
-0.115741 0.002583 -0.316142
-0.179448 0.530511 -0.304713
-0.068466 -0.001855 0.313360
-0.142303 -0.053722 -0.315304
-0.105201 -0.000766 -0.319530
0.445122 -0.403861 0.212588
-0.087374 -0.013882 0.312136
-0.261010 0.053316 0.292899
-0.129868 -0.020338 0.288823
-0.119561 -0.034734 -0.317800
-0.120103 -0.021094 -0.302757
-0.257548 0.320707 -0.284566
-0.120071 -0.023002 -0.313432
-0.130318 -0.024905 -0.312768
-0.089992 -0.033923 -0.316227
0.421409 -0.144797 -0.072858
-0.275944 -0.547311 0.145343
-0.092968 0.012473 0.319031
-0.099570 -0.020780 0.301996
-0.118978 -0.028016 -0.315299
-0.106402 -0.048356 -0.313409
-0.118117 -0.005074 -0.312518
-0.103095 -0.055354 -0.313326
-0.085751 -0.025155 0.302853
-0.088799 -0.025293 0.287778
-0.252152 -0.075816 -0.031206
-0.125817 -0.069201 -0.311790
-0.140975 -0.241337 0.317541
-0.089499 -0.017461 0.308945
-0.122643 -0.047853 -0.308266
-0.126440 0.007171 -0.321610
-0.098336 -0.054831 -0.315974
-0.100951 -0.000325 0.296787
0.235016 -0.472051 -0.286499
-0.257978 0.902635 0.169223
-0.283969 0.208835 0.186435
-0.128289 -0.039412 -0.298756
-0.280535 0.368437 0.091901
-0.161186 0.034640 -0.297184
0.188564 0.008520 -0.230900
-0.045095 -0.179429 -0.303991
-0.117317 -0.055710 -0.317592
-0.083531 -0.030662 -0.295407
0.215175 -0.452259 0.042805
-0.069327 -0.007651 0.306175
0.331770 -0.304572 -0.100844
-0.088792 -0.016777 0.301495
-0.280831 -0.102302 -0.173155
0.444951 0.023654 0.170807
-0.114691 -0.316235 0.191937
-0.085327 0.008036 0.307621
-0.264180 -0.630525 -0.073174
-0.073254 0.352302 -0.296479
0.174315 0.003553 -0.015324
-0.281996 0.722376 -0.273441
-0.118521 0.010374 -0.293444
-0.007042 -0.030707 0.022286
-0.083636 -0.044062 -0.308442
-0.088048 -0.000050 -0.318826
-0.201715 -0.164684 0.282965
-0.109251 -0.062273 -0.307936
-0.079086 -0.078887 -0.313856
-0.114720 0.378118 0.255249
-0.124634 -0.000379 0.289068
-0.244107 0.146718 0.296793
-0.115418 -0.033510 -0.290954
0.433834 -0.307366 0.225591
-0.071444 -0.005324 0.290101
-0.094053 -0.259986 -0.269142
-0.102046 -0.021619 -0.315085
0.430542 -0.246302 0.133431
-0.316982 -0.570165 0.192323
-0.271112 0.483198 -0.184739
-0.110573 -0.422479 0.179685
-0.089545 0.197376 -0.320344
-0.268919 -0.262255 -0.222850
0.280542 -0.177813 0.091924
-0.045260 -0.022914 -0.298381
-0.321554 0.233118 -0.073042
-0.087298 0.088244 -0.324100
-0.242538 -0.618963 0.272880
-0.061619 0.042641 0.314424
-0.239436 0.176817 0.302487
-0.081548 0.011199 -0.313155
-0.103707 -0.099170 0.302710
-0.068015 0.004807 0.309490
-0.174282 0.100195 -0.297311
-0.119379 -0.008839 -0.299094
0.095007 0.087026 -0.200381
-0.119327 -0.024046 -0.292042
-0.105776 -0.041226 0.305677
-0.093359 -0.006375 0.309441
-0.112297 -0.062136 -0.317634
-0.151213 -0.035683 0.312892
-0.098345 -0.053343 -0.303622
-0.095612 -0.012773 0.313985
-0.110994 -0.041143 0.308270
-0.260408 0.337210 -0.223751
0.131200 0.200745 -0.289676
-0.009252 0.050983 -0.303438
-0.255692 -0.365097 -0.041854
0.123148 0.083356 0.307147
0.016725 -0.014973 0.130560
-0.098960 0.009105 -0.316220
-0.174120 -0.324009 0.309520
-0.053663 0.254857 0.307774
-0.107959 -0.044441 0.290232
-0.260942 0.716249 -0.146650
-0.093633 -0.013076 -0.306830
-0.092960 -0.018398 0.311737
-0.117547 0.011003 0.296836
-0.072566 -0.162864 -0.226650
-0.086774 -0.024030 0.303009
-0.259496 0.888075 -0.036821
0.242735 -0.033233 0.319844
-0.116841 -0.037501 0.312095
-0.135490 0.125745 0.305533
-0.032864 -0.244063 0.239869
0.076844 0.089529 -0.065275
0.406840 -0.343892 0.118178
-0.135445 -0.022544 -0.311191
-0.147206 -0.012417 0.305641
-0.132986 0.123609 -0.313532
-0.070147 0.420428 0.222766
0.253270 -0.168516 0.326194
-0.096219 -0.028354 0.321123
-0.055804 -0.088493 0.309246
0.299976 0.134034 0.321571
-0.276905 0.291457 -0.033492
-0.120957 -0.017480 -0.320376
0.214248 0.028127 0.154995
-0.097142 -0.070409 0.311440
-0.097450 -0.003584 -0.313544
-0.104248 0.201353 0.305736
-0.109580 0.309996 -0.303594
-0.222712 0.012301 -0.298714
0.219070 -0.615354 -0.054022
-0.059801 -0.093981 -0.261928
0.184012 0.021890 -0.301870
-0.110968 0.014490 -0.313497
-0.226128 0.210339 0.221873
-0.085346 -0.019252 0.320230
-0.138417 -0.149659 0.327798
-0.268729 0.380245 0.125789
-0.140826 0.228797 0.013241
0.279266 -0.255372 0.290105
-0.110973 -0.022540 -0.310590
-0.112461 -0.016482 0.312949
-0.089975 -0.013610 0.320418
-0.117653 -0.032232 -0.321139
-0.098527 -0.083351 -0.301359
-0.098839 0.004159 -0.322683
-0.226592 0.124557 -0.292700
-0.112265 -0.021886 0.321350
-0.040971 -0.065277 -0.290966
-0.098298 -0.006017 0.294347
-0.131923 -0.160023 -0.289144
-0.234196 -0.112334 -0.284849
-0.078932 0.710364 0.307294
-0.126411 0.009578 0.295287
0.359397 -0.206919 -0.297567
-0.106549 -0.024247 0.305802
-0.226330 -0.586743 -0.283598
-0.094952 -0.017031 0.305357
-0.100263 -0.038619 -0.308297
0.008632 0.913584 0.253451
-0.192725 0.134881 0.300134
-0.091292 -0.033977 -0.298933
-0.086101 -0.021685 0.308588
-0.126101 -0.039871 -0.315554
-0.083326 -0.025134 0.316531
-0.128517 0.070182 0.302996
-0.114816 -0.034838 -0.298629
-0.120779 -0.055978 -0.316437
-0.249309 -0.056664 -0.188148
-0.069859 -0.011907 -0.318407
-0.089855 -0.000537 0.304682
-0.094798 -0.009376 -0.307314
0.424371 -0.263334 0.077548
-0.109375 -0.003739 0.281141
-0.095725 0.359777 0.093764
-0.085317 -0.023519 -0.316998
-0.083927 0.012211 -0.318602
-0.115780 -0.021552 -0.304465
-0.266911 0.111184 0.183639
0.015066 0.712414 -0.270267
-0.108701 -0.021282 0.294531
-0.305573 -0.519873 -0.109040
-0.105313 -0.056650 -0.316180
-0.256791 0.444515 0.206823
0.272813 0.194503 -0.117997
-0.273856 0.210481 -0.259594
-0.124994 -0.024149 -0.291814
0.439767 -0.333322 0.303856
-0.085580 0.022263 -0.302568
0.138335 0.171348 -0.189854
-0.139604 -0.009554 0.305865
-0.111855 -0.044941 -0.316591
-0.104113 -0.004700 -0.315300
-0.150685 -0.002625 -0.290882
-0.226114 -0.074396 0.290875
-0.102968 0.798808 -0.041726
0.302985 -0.358041 0.046898
-0.091947 -0.030825 0.312895
-0.106018 -0.022721 0.320154
0.417157 -0.602114 0.058199
0.073569 0.107378 0.305449
-0.110091 -0.001395 -0.315438
-0.117005 0.030941 0.315738
-0.091392 0.013865 0.312227
-0.091160 -0.007894 -0.311833
0.132220 -0.026929 -0.295944
-0.093139 -0.028156 0.320907
0.042386 -0.040102 0.317359
-0.111585 0.604607 -0.312940
-0.304772 -0.376494 0.032374
-0.300858 0.788427 0.286968
-0.096190 -0.032159 0.316134
-0.097872 -0.029050 0.321625
-0.094046 -0.032994 0.313134
-0.254947 0.536721 -0.037965
0.397862 0.092303 0.228034
-0.084148 -0.586342 -0.265293
-0.158224 0.119955 -0.292996
-0.090380 0.833187 -0.160782
-0.110037 -0.528914 0.172628
-0.125168 -0.040579 -0.316878
-0.072895 -0.027505 -0.316968
0.189442 -0.090372 0.311375
-0.126680 0.074722 0.301615
-0.261841 -0.026595 -0.027731
-0.213003 0.931490 -0.071840
-0.161739 0.914418 -0.254526
-0.145509 0.212681 0.324317
-0.156486 -0.668185 -0.166919
0.423941 0.120770 0.016886
-0.096982 -0.026238 0.291280
0.042616 0.006657 -0.308506
-0.134960 -0.037390 0.291408
-0.048204 -0.008868 0.306413
0.358830 -0.575511 -0.028425
-0.087238 -0.010640 0.311874
-0.107138 -0.075437 -0.313582
-0.115729 -0.020955 -0.315909
0.404204 -0.013693 0.016899
-0.098230 -0.022757 0.291485
-0.151165 -0.278492 0.322099
0.287183 -0.602708 0.177876
-0.090292 -0.032356 -0.293042
-0.132245 0.737283 0.306178
-0.246813 0.840086 -0.249815
0.267106 -0.458629 0.306101
0.455617 -0.482177 -0.215656
-0.086154 0.057091 -0.304419
-0.074011 0.191490 -0.206567
-0.077255 0.000238 -0.305162
-0.096840 -0.017167 0.316404
0.315423 -0.269421 -0.263563
-0.003507 0.024420 0.348431
0.191830 -0.069589 0.164729
-0.117996 -0.038060 0.292931
-0.100830 -0.036729 -0.296670
-0.102792 -0.001734 0.289114
-0.089696 0.238146 -0.281114
-0.039693 0.103587 -0.290728
0.159324 -0.442814 -0.031736
-0.059671 0.004430 0.304459
0.223722 -0.549758 -0.301719
-0.111861 -0.112410 -0.293776
-0.076519 0.647940 -0.274372
0.389930 -0.005142 -0.264640
-0.259044 -0.472871 0.217892
-0.074227 -0.005657 0.306449
-0.091770 -0.028154 0.323153
-0.255872 0.046969 -0.269535
-0.104999 -0.003057 0.292770
-0.117751 0.001495 -0.318754
0.253360 0.167782 -0.306711
0.408907 -0.472750 -0.301289
-0.092531 0.284577 -0.158679
-0.215057 -0.262999 -0.073804
-0.100141 -0.046134 0.304895
-0.114874 -0.018147 -0.312663
-0.118549 0.016314 0.310781
-0.102100 -0.024158 0.314262
-0.077640 -0.021170 0.292193
-0.117632 0.118586 0.336252
-0.115967 -0.038401 -0.306600
0.185857 0.112066 -0.270880
-0.117261 -0.013158 0.291614
0.196913 -0.230076 0.291983
-0.130163 -0.005445 0.271590
-0.131148 -0.031266 -0.308734
-0.073003 0.003734 -0.305292
-0.154394 0.630841 -0.305283
-0.036878 0.935416 0.102384
-0.137804 0.693669 -0.314067
-0.094666 0.159088 -0.280973
-0.189904 -0.174587 -0.273531
-0.115789 -0.047924 -0.298077
-0.124970 0.463707 0.294783
-0.137067 -0.064116 0.304552
-0.100608 0.013278 -0.297573
0.322766 -0.233804 -0.306251
-0.273302 -0.007723 0.018727
-0.115875 -0.005177 -0.297400
0.383673 -0.255551 0.190399
-0.126539 -0.014994 -0.309578
0.190040 -0.128429 0.310353
-0.110461 -0.018008 -0.305867
-0.120354 -0.066554 -0.310217
-0.077329 -0.016197 0.308531
-0.126616 -0.010837 0.313217
-0.106482 -0.037364 -0.316683
0.000183 0.095117 -0.217585
-0.066294 -0.023035 0.311095
-0.104961 0.759164 0.147881
0.170387 0.076453 0.307287
-0.092943 -0.016539 0.311062
-0.133532 -0.007811 -0.320176
-0.262972 0.382284 0.227910
-0.119289 0.811406 0.027079
-0.074604 0.014768 -0.303776
0.284543 0.045315 -0.302571
-0.072693 -0.005643 0.313608
0.355864 0.126542 -0.052859
-0.252693 -0.312227 -0.235233
-0.097463 0.760927 -0.172930
-0.291422 0.091904 -0.147128
-0.261831 0.164864 -0.011454
0.340332 0.055763 0.243876
-0.249050 -0.045469 0.289122
0.375751 -0.597589 -0.254246
-0.075220 -0.013509 0.310594
-0.111684 0.004243 0.293714
-0.245637 -0.068785 0.285722
-0.127732 -0.014442 -0.308768
-0.096189 -0.019760 0.309323
-0.087186 -0.007986 0.312520
-0.116731 -0.049592 -0.313794
-0.160630 -0.020063 -0.327625
-0.189391 0.298488 -0.297517
-0.265497 0.385357 -0.063446
-0.089265 -0.017984 0.308632
0.109420 -0.082371 -0.315794
-0.068047 0.038194 -0.319225
0.332017 -0.634632 0.279743
0.368803 -0.055756 -0.325183
-0.099803 -0.167395 -0.299100
-0.102140 0.006716 -0.314011
-0.090673 -0.027871 -0.287340
-0.128105 0.473297 0.250151
0.264584 -0.183190 -0.303590
-0.052910 0.075178 0.334956
-0.113440 -0.053174 0.300716
-0.094148 -0.037874 -0.312484
-0.106576 -0.025271 -0.314573
-0.251850 -0.661723 0.226745
-0.109771 -0.025169 -0.311517
-0.081974 0.000007 0.321204
-0.116182 -0.027350 0.288301
-0.106983 -0.033015 0.306977
0.413283 0.065152 0.304407
-0.094058 0.016023 -0.305789
-0.289264 0.285790 0.175809
-0.099961 -0.017554 0.307341
-0.082022 -0.023635 0.320195
-0.157204 -0.344048 -0.298837
-0.084599 -0.000514 0.312366
-0.088618 0.003153 -0.294834
-0.082819 -0.066786 -0.307107
-0.097323 0.007375 -0.313496
-0.285486 0.804426 0.134583
-0.132427 -0.030767 -0.318442
0.197399 -0.565070 0.174160
0.002700 -0.565511 -0.088247
-0.121543 -0.030042 -0.312396
0.081282 -0.043258 -0.300366
-0.274186 0.287047 0.046323
-0.270288 0.600446 0.226753
-0.102242 -0.044358 -0.312356
-0.128544 -0.005632 -0.310604
-0.222621 -0.283204 0.172018
-0.168805 0.046917 -0.300532
-0.214192 0.523187 0.306713
-0.101386 -0.044887 -0.307906
-0.275217 0.903644 0.113643
0.408613 -0.233855 -0.306862
0.029669 0.221270 0.240271
-0.101156 0.029466 0.298235
-0.012898 -0.030113 -0.301380
-0.106144 0.000928 -0.309214
-0.129150 0.213363 0.161164
-0.262989 0.915070 0.239250
-0.166062 -0.323984 0.208617
-0.087848 -0.014109 -0.299017
-0.105972 -0.029440 -0.302345
-0.101069 -0.035016 -0.310038
-0.072276 0.001861 0.316090
-0.081250 0.001359 0.312546
-0.096596 0.013360 -0.303490
-0.080111 -0.012836 0.306302
-0.083842 -0.053596 0.302653
-0.127723 -0.047466 -0.317702
-0.113467 -0.033264 -0.294929
-0.111436 -0.032855 0.303188
-0.073832 -0.014626 0.284769
-0.223801 0.765465 0.312404
-0.125194 -0.042875 -0.312447
-0.245382 -0.551841 0.317301
-0.210388 -0.288797 -0.297789
-0.107616 -0.005053 -0.314721
-0.053830 -0.029708 0.318526
-0.136550 -0.403501 -0.067505
-0.085060 -0.020327 0.313701
-0.083785 -0.006727 0.299603
-0.055748 0.090708 0.295062
-0.113949 -0.045328 -0.293776
-0.096206 -0.007075 -0.312520
-0.117725 -0.012597 -0.314787
-0.109741 -0.005896 0.318082
-0.247175 0.111389 0.092106
-0.275595 0.748662 0.246674
-0.219764 -0.042506 -0.261796
-0.073105 0.026264 -0.301777
-0.274218 -0.430840 -0.067744
-0.097037 -0.030084 -0.299361
-0.035274 0.181248 0.298552
-0.062093 -0.028716 -0.291185
-0.098783 -0.013372 0.303436
0.423470 -0.674243 -0.240302
-0.074515 -0.001418 -0.306988
-0.095445 -0.015408 -0.313763
-0.128575 -0.012595 0.296335
-0.061293 0.007992 -0.309560
-0.095957 0.016848 -0.293716
-0.099980 -0.029403 -0.298086
-0.130107 0.288831 0.317017
-0.056774 -0.041546 -0.190044
-0.126600 -0.011756 -0.309949
-0.076110 0.103185 -0.027106
-0.114598 0.481156 0.111329
0.175758 0.224255 0.311112
-0.290215 0.070377 0.022282
-0.113726 0.032283 -0.296127
-0.113710 -0.020230 -0.306170
0.183694 -0.021911 0.321750
0.419620 -0.045107 -0.185955
-0.120786 -0.016604 -0.312131
-0.098495 0.017116 0.316067
-0.036775 -0.046150 -0.306259
-0.106938 -0.007356 0.313201
-0.104141 0.002467 0.299414
-0.088253 0.447843 -0.312922
-0.096887 0.004873 0.312882
-0.072376 -0.013978 0.295975
0.236677 -0.655091 -0.128138
-0.265719 0.799848 -0.283790
-0.144407 0.449389 -0.003206
-0.127978 -0.043411 -0.317897
-0.127305 -0.045341 -0.319501
0.027804 -0.323243 -0.265609
-0.091094 0.003791 0.290099
-0.091380 -0.002715 0.295969
-0.114237 -0.012230 -0.310615
0.141254 0.179159 -0.009528
-0.282846 0.609007 -0.216163
0.046090 -0.315203 0.021561
-0.101322 -0.018225 -0.315083
-0.111700 -0.636729 -0.089905
-0.086706 -0.033540 0.309898
-0.106375 -0.024668 0.295527
-0.246864 0.068354 -0.195141
-0.106512 -0.044379 0.315639
-0.120484 -0.068850 -0.317449
0.240683 -0.054158 0.259576
-0.127802 -0.005715 -0.294866
-0.184534 0.147084 0.191120
-0.084079 0.766469 -0.279459
-0.068615 -0.008246 0.311440
0.271497 -0.004751 -0.321689
-0.008090 0.188894 -0.001595
-0.244819 0.284296 0.312902
-0.088884 -0.030754 0.321941
-0.089693 0.732822 -0.083234
-0.150047 -0.003713 -0.303232
0.124577 0.023629 0.218426
-0.093988 -0.007930 -0.317140
-0.289424 0.344692 -0.019644
-0.073767 -0.037730 0.319398
-0.115584 -0.016459 0.308473
-0.078557 -0.013993 0.309931
-0.122630 -0.046891 0.281394
-0.245498 0.393534 -0.151073
-0.123008 -0.020067 -0.293772
-0.112593 -0.373653 0.316262
-0.118628 -0.060055 -0.294069
0.232018 -0.058911 -0.287566
0.014020 0.726327 0.013474
-0.168210 -0.549019 -0.275556
-0.131335 -0.012126 -0.308645
-0.105675 -0.096463 0.223543
-0.115566 0.034757 0.319693
0.183171 -0.016693 0.293862
0.404334 -0.574482 -0.118419
-0.119551 -0.048940 -0.304660
-0.077057 -0.025910 0.316791
-0.142406 -0.378543 -0.341340
-0.298471 0.343351 -0.181077
-0.103964 -0.002328 0.313407
-0.173999 0.457915 0.311103
-0.111697 0.584983 -0.192816
-0.133961 0.035939 -0.307222
-0.082844 -0.013813 -0.308576
-0.190471 -0.563171 0.271867
-0.116996 0.013292 0.321922
0.394464 -0.102138 -0.059676
-0.104520 -0.053971 -0.308352
-0.051091 -0.009536 0.308303
-0.142641 -0.034047 -0.318325
-0.095379 0.656658 -0.112426
-0.117348 0.009945 -0.301106
-0.104246 -0.006534 -0.317612
-0.153513 -0.085340 -0.301843
-0.100902 -0.027727 0.311524
-0.118839 -0.346014 -0.092697
-0.124970 -0.086075 -0.306463
-0.108945 -0.065068 -0.300155
-0.176632 -0.025885 0.297011
0.425046 -0.410959 -0.263507
-0.074273 -0.058716 0.298869
-0.117915 -0.034209 0.312246
-0.083241 -0.007801 0.314466
-0.127784 0.069802 -0.302831
-0.290913 0.627605 0.239231
-0.107519 -0.005034 -0.315760
-0.082584 0.048562 -0.310737
-0.142234 -0.186234 0.310955
-0.066021 -0.013529 0.308860
-0.089913 0.104817 0.321947
-0.111470 -0.009017 0.294886
0.325547 0.156835 -0.256787
-0.101492 -0.033386 0.303308
0.292694 0.159130 0.210045
0.353577 -0.137979 0.014962
-0.061048 -0.012182 -0.300828
0.348381 -0.286983 -0.305504
-0.079836 -0.033669 -0.305039
-0.105616 -0.035519 -0.317206
-0.070417 -0.005786 0.320091
-0.126849 -0.036880 -0.312552
-0.131001 -0.053901 -0.294382
-0.086564 0.009463 0.309340
0.428039 -0.206467 -0.246050
-0.123849 0.088959 0.302585
-0.123112 -0.049940 -0.311096
-0.042949 0.723342 0.128782
-0.102079 -0.025046 0.302283
-0.157347 0.100095 -0.289822
0.283110 -0.101899 -0.312562
-0.139621 0.129578 0.306721
-0.088414 -0.004499 0.307001
-0.130950 -0.032715 -0.311455
-0.110067 -0.079893 -0.304796
-0.124825 -0.056575 -0.296119
-0.129902 0.001970 -0.320775
-0.104619 -0.012479 0.284501
-0.088912 -0.019950 0.297166
-0.121721 0.002487 0.304703
-0.129548 -0.016469 -0.314203
-0.111217 0.893640 0.090256
-0.280191 0.494791 0.165282
-0.074042 -0.024135 0.316824
-0.070536 0.634323 0.202174
-0.103257 0.228242 -0.160671
-0.259528 -0.361327 -0.267267
0.015228 -0.329680 0.137851
-0.099509 -0.042137 -0.310278
0.406210 0.065383 -0.196535
-0.096629 -0.030343 -0.308416
-0.091954 -0.099278 -0.278784
-0.107246 0.028331 -0.311571
0.241467 0.081388 0.289325
-0.099622 0.554392 -0.037566
0.017567 0.025066 0.281279
0.400136 0.129262 0.145147
-0.234983 0.504918 -0.306671
-0.042457 0.433973 0.320289
-0.089434 -0.022983 -0.315919
-0.113818 -0.034133 -0.306728
-0.102058 -0.279317 0.203998
-0.101469 -0.006619 0.312676
-0.114668 -0.006649 -0.302207
-0.065665 -0.066532 0.307513
-0.194469 -0.246838 -0.293339
0.399812 0.088897 -0.311856
0.460148 -0.332107 -0.102070
-0.268180 -0.111047 -0.211926
-0.090579 -0.563205 -0.306643
-0.117745 0.006220 0.310340
-0.262189 0.196614 -0.200638
-0.098514 -0.018679 0.289496
-0.096178 -0.008465 -0.297512
-0.108608 -0.005629 0.310194
-0.118509 0.012539 -0.303551
-0.281244 0.010022 0.122657
-0.121901 -0.022467 -0.321217
-0.113132 -0.028732 -0.317193
-0.094374 -0.000953 0.308776
-0.054263 0.130233 -0.285364
-0.118242 -0.209170 0.301034
0.432673 -0.197186 -0.127568
-0.294408 0.441040 -0.261034
-0.087042 -0.047640 0.301838
-0.099136 -0.076357 -0.301194
0.239050 -0.494879 0.123384
-0.272154 0.757145 -0.015570
-0.263382 -0.023278 0.204949
-0.289253 0.407075 0.168927
-0.096976 0.272802 0.285093
0.106852 -0.099430 0.282889
-0.126445 0.001396 -0.299664
-0.136806 -0.026639 -0.305866
-0.271324 0.753745 -0.110533
-0.283547 -0.227522 0.205725
-0.130403 -0.176376 -0.222559
-0.100192 -0.016189 0.289906
-0.128728 -0.625039 0.241893
-0.080772 0.218781 0.273682
-0.092323 0.001215 0.285477
-0.173224 0.142879 -0.290914
-0.115115 -0.009030 -0.316049
-0.101247 -0.026729 0.313049
-0.087316 -0.005495 -0.305353
-0.098697 0.010970 0.314444
-0.119957 -0.009426 -0.319304
-0.073302 0.020200 -0.308360
-0.121822 -0.033467 -0.310621
-0.112598 -0.012858 -0.319313
-0.280376 0.339136 -0.105216
-0.092685 0.327662 -0.100311
0.197898 -0.268972 -0.294190
-0.103143 -0.031551 0.310997
-0.063912 0.000373 -0.314157
-0.105698 -0.030736 0.317064
-0.271446 0.623626 0.072485
-0.122575 -0.048163 -0.301371
-0.128030 0.154979 0.304574
-0.086604 -0.031325 -0.313363
-0.075111 0.000144 0.305223
-0.055540 0.623459 0.125880
-0.105119 0.004794 -0.307428
0.410116 -0.266276 0.296009
-0.245517 -0.007707 0.205413
-0.097038 -0.002448 -0.316773
-0.106242 0.917501 0.215471
-0.226794 0.443971 0.074152
0.386170 -0.558856 -0.307251
-0.074765 -0.028453 -0.297880
-0.074111 -0.032789 0.309848
0.368789 -0.665406 -0.155162
-0.103979 -0.036944 -0.319128
0.392032 -0.208678 0.277835
0.268410 -0.233689 -0.294854
-0.096532 -0.160765 -0.315422
-0.125977 -0.030523 0.295867
0.392824 -0.549177 0.181540
-0.241811 0.248658 0.310267
-0.089679 0.001398 -0.319046
-0.232761 0.725104 -0.320163
-0.078390 -0.007452 0.315019
-0.072726 0.409819 -0.091250
-0.056814 0.845199 0.048941
-0.127769 -0.053811 -0.302983
0.172260 -0.163235 -0.285974
-0.088909 0.327189 -0.197861
-0.107435 -0.060249 -0.302130
0.352144 -0.066779 0.289269
-0.084872 -0.010697 -0.301508
-0.214986 -0.529299 0.141467
-0.074445 -0.009937 0.307663
0.407716 -0.236935 0.004196
-0.114214 -0.042993 -0.312649
-0.128806 -0.051780 -0.313169
-0.117400 -0.119529 -0.302883
-0.090510 0.011600 0.318347
0.389457 0.000003 -0.315260
-0.112747 -0.034792 -0.305488
0.247924 0.039212 0.313545
-0.085357 0.027574 0.319283
0.331983 0.023031 -0.222505
-0.229773 -0.320277 0.118216
-0.149540 -0.147535 -0.109786
-0.104722 -0.013669 0.289314
0.217814 -0.314976 0.302827
0.385316 -0.033259 0.118966
-0.108826 -0.051761 -0.294876
-0.130600 -0.041493 -0.318171
-0.138894 -0.173094 0.309776
0.172159 0.179094 0.271940
-0.118194 0.313466 0.174081
-0.270344 0.540096 -0.208040
-0.095141 -0.015314 0.317201
0.127420 -0.025057 -0.292844
0.156810 -0.148921 -0.248511
-0.052057 -0.007846 0.312330
0.272617 -0.035715 0.319699
-0.101817 -0.015089 -0.298519
-0.129129 0.620375 0.331184
-0.112145 -0.025726 -0.312822
-0.098554 -0.000255 -0.314641
-0.107274 -0.019601 0.317844
0.092182 0.032821 0.312505
-0.065482 -0.010942 -0.301605
0.321237 -0.277976 -0.068795
-0.265261 0.667959 -0.307875
-0.092106 -0.015562 -0.311764
0.075367 -0.249388 -0.290316
-0.097880 -0.007875 0.316554
-0.095066 -0.179861 0.309021
-0.108067 -0.006390 -0.317670
-0.268846 0.278422 -0.115196
0.248319 -0.088910 0.066223
-0.235273 -0.205549 0.285757
-0.098812 0.264860 -0.252194
-0.056546 -0.000209 -0.298431
-0.115984 -0.024944 -0.313193
-0.150770 -0.441463 0.307908
0.258462 -0.025269 -0.040423
-0.089810 -0.001628 -0.309878
-0.120898 -0.038836 -0.318458
-0.105844 -0.042707 -0.316352
-0.256248 0.086057 0.226290
-0.089858 -0.063695 0.293910
-0.319316 0.521169 0.032775
-0.050731 -0.042895 -0.306896
0.422101 -0.620010 0.285717
-0.121382 -0.045571 -0.308324
-0.070643 0.016310 0.302330
-0.125294 -0.020137 -0.310367
-0.113959 -0.265768 -0.300906
-0.259725 0.144080 -0.291658
-0.057741 0.846955 0.184771
-0.067705 -0.036773 0.309150
-0.121227 -0.019609 -0.312402
0.236331 0.112484 -0.274027
-0.216726 0.631174 0.315364
-0.133514 -0.064728 -0.318400
-0.121307 -0.020208 -0.319885
-0.105141 -0.000378 0.318152
0.176436 -0.536484 -0.252134
-0.281734 0.722270 0.036120
-0.083638 0.757476 0.250962
-0.125730 -0.039930 -0.299689
-0.131585 -0.004759 -0.316652
0.349577 -0.148467 -0.323001
0.136549 0.009423 -0.296617
-0.091354 -0.004436 0.306973
-0.077068 -0.020056 0.299815
-0.124268 -0.035013 -0.317374
-0.085103 -0.021009 -0.311993
-0.105441 0.022856 -0.307787
-0.107437 0.952111 -0.001347
-0.121820 -0.038677 -0.307138
-0.173942 -0.086765 -0.310049
-0.301798 0.428922 0.120852
-0.102814 -0.001536 -0.309145
-0.097827 -0.048148 -0.314084
0.077017 -0.357590 0.296605
-0.259099 -0.455692 -0.295345
-0.087285 0.795068 0.293888
-0.083885 -0.076959 -0.290074
-0.276949 -0.519540 -0.190230
-0.058979 -0.028513 0.317231
0.434882 -0.523667 -0.106907
-0.113752 0.176429 0.324179
-0.070081 -0.454577 0.255388
0.159100 -0.040384 -0.286491
-0.029717 -0.200878 0.296178
0.372093 -0.593874 0.316450
-0.060664 -0.000677 -0.295771
-0.166882 0.376472 0.289646
-0.101267 -0.015358 -0.314900
-0.072620 0.095565 -0.327236
-0.109047 -0.010600 0.308179
-0.104989 -0.003683 -0.319098
-0.088215 -0.028499 0.313048
-0.181757 -0.372434 0.098521
-0.139989 0.021146 0.305003
-0.095903 -0.032446 -0.307414
-0.112365 0.011980 -0.315632
-0.238206 -0.672016 -0.222103
-0.088287 -0.021241 0.300835
0.231625 -0.263754 0.025654
-0.202747 0.259111 -0.304767
-0.263127 0.945853 0.001429
-0.126813 0.015248 0.314466
-0.089589 0.906969 0.159684
-0.047004 0.828128 -0.082293
-0.149444 -0.028784 -0.312443
-0.127321 -0.044649 -0.307607
-0.175355 0.268463 -0.280881
-0.108075 -0.007097 0.308169
-0.099031 -0.038193 -0.309721
-0.108790 0.035863 -0.301813
-0.112722 -0.018160 -0.035319
-0.089824 -0.002399 0.312805
-0.103389 -0.016775 0.292541
-0.100160 -0.036335 -0.299286
-0.071605 0.339454 0.228513
-0.110318 -0.014439 -0.306941
0.409216 -0.460444 0.235857
-0.092892 -0.045421 0.308817
-0.085463 0.168171 -0.300343
0.158290 0.106021 0.103444
0.344073 0.162468 0.225735
-0.280511 -0.139218 -0.121621
-0.092089 -0.013828 0.315223
0.287803 -0.673776 -0.193902
-0.099633 -0.033681 0.314037
-0.245734 -0.107902 0.248727
-0.283072 0.392642 0.271571
-0.082910 0.002097 -0.313802
-0.095291 -0.006712 0.298369
0.410735 -0.122917 -0.144612
-0.122981 -0.016443 -0.313820
-0.107868 0.006331 0.289041
-0.107404 0.065879 0.316461
-0.112257 -0.040999 -0.299228
-0.046297 -0.002326 -0.302350
0.265056 -0.353175 0.312582
-0.123223 -0.005506 -0.313111
-0.086405 0.038345 -0.307416
-0.022310 0.017179 -0.284212
-0.095861 0.027827 -0.311523
-0.222326 -0.524556 -0.012148
-0.246629 0.033552 0.259133
-0.234205 0.602855 -0.149612
-0.087013 0.032525 0.315929
-0.094775 -0.032062 -0.295461
-0.078945 0.029063 -0.295036
-0.085939 0.031948 -0.301112
-0.174496 0.923048 0.284130
-0.119356 -0.042628 -0.311607
-0.096643 -0.057152 0.317661
-0.013056 0.917541 -0.228994
-0.094680 -0.004914 0.316041
-0.076376 -0.042936 -0.307774
-0.082514 0.023227 0.303841
-0.108732 0.002591 0.306749
-0.109407 -0.046899 -0.290796
-0.085083 -0.002375 0.314884
-0.297057 -0.559455 0.126671
-0.106424 -0.028191 0.297985
-0.062197 0.009064 -0.303617
-0.118901 -0.031713 -0.314211
-0.101042 -0.291229 -0.274787
0.407785 -0.406980 0.303914
-0.094136 -0.012674 0.308447
-0.108870 0.245331 -0.292089
-0.096192 -0.546416 0.300858
-0.125670 -0.008728 -0.315944
-0.096524 0.007239 0.315584
-0.078152 -0.015100 -0.317292
-0.244975 -0.336656 0.315347
0.380135 -0.518453 0.058902
-0.084564 -0.017624 0.306890
-0.165696 -0.507281 0.300478
-0.275700 0.710154 0.309836
-0.034558 -0.034070 -0.307978
-0.253553 -0.184140 0.094839
-0.093584 0.958583 -0.051972
-0.099000 -0.017694 0.291622
0.235845 -0.605334 0.245056
-0.151604 -0.019421 0.309262
-0.138241 -0.182342 0.130478
-0.110597 -0.044973 -0.321237
-0.220973 -0.079171 -0.306369
-0.152743 -0.573449 0.126359
-0.268113 0.351655 0.196593
0.394344 -0.031475 0.212122
0.404412 0.067950 -0.059724
-0.042994 0.029702 0.302776
-0.110959 0.674641 0.137386
-0.105015 -0.055648 -0.293429
-0.112295 -0.006035 0.318933
-0.075472 -0.024373 0.311546
0.020650 -0.013725 -0.299953
-0.074937 0.226402 -0.222764
-0.144041 -0.051944 -0.320143
-0.089473 0.031056 0.308976
-0.107577 0.000619 0.302843
-0.108585 -0.008092 -0.316938
-0.064207 -0.015814 0.302422
-0.081613 -0.018534 0.315231
-0.211581 -0.071139 -0.155985
-0.120278 -0.121536 -0.275731
0.418585 -0.163778 0.228827
0.326502 -0.007962 -0.000336
0.398615 -0.262109 -0.129358
-0.123563 -0.033080 -0.314030
0.311789 -0.601229 -0.140626
-0.113304 0.002389 -0.311986
-0.308487 -0.539642 -0.020938
-0.090736 0.020297 -0.321522
-0.275357 0.670413 0.180650
-0.036262 0.000053 -0.288719
-0.119805 -0.045883 -0.314549
-0.083688 -0.028318 0.312483
0.130500 -0.393760 -0.255643
0.260320 -0.206504 0.279787
-0.050569 -0.058470 -0.298500
-0.116416 -0.008042 -0.314480
-0.132650 -0.047739 -0.321496
-0.099824 -0.032186 -0.315672
-0.125955 -0.070194 -0.312949
-0.263276 0.189728 0.060514
-0.104254 -0.004401 0.314506
-0.128768 -0.044693 0.301673
-0.160585 -0.317240 -0.297176
0.147826 -0.036071 0.293901
-0.070960 0.700523 -0.320722
-0.069362 -0.010812 -0.314767
-0.111382 -0.015507 -0.321708
0.273841 -0.523023 0.310493
-0.104430 0.012415 0.320816
-0.121683 0.013963 -0.302173
-0.223156 -0.169697 -0.228533
-0.106246 -0.001543 0.320024
-0.080105 0.899710 0.297870
-0.075697 -0.012921 0.307241
-0.130572 -0.046190 -0.304004
-0.110084 -0.189568 0.290326
-0.044960 -0.370149 -0.203182
-0.165755 0.065311 0.315717
-0.139862 -0.096971 0.105837
0.286352 -0.076933 -0.306393
-0.108649 -0.057195 -0.315439
-0.099598 0.006554 0.296931
-0.082555 -0.054560 0.308848
0.362948 -0.194357 0.312174
-0.298165 -0.309273 -0.091916
-0.096943 -0.007184 -0.309595
-0.104573 -0.052635 -0.292632
-0.098133 -0.018442 -0.310097
-0.121413 -0.035704 -0.294925
-0.102873 0.409446 0.286259
-0.106694 0.000421 -0.312794
-0.098827 -0.039864 -0.296454
-0.112081 0.009008 -0.301837
-0.126636 -0.054195 -0.307703
-0.135299 -0.023108 -0.316549
-0.150250 0.340865 0.311361
-0.093805 -0.017839 0.311268
-0.101778 -0.030957 0.313992
-0.302116 0.419796 -0.118876
-0.268639 0.319798 0.249998
0.431240 -0.112329 0.020423
-0.097166 0.006105 0.295637
-0.056581 -0.096436 0.296150
-0.125643 -0.044539 -0.308631
-0.088465 -0.024427 -0.296311
-0.118539 -0.036036 -0.299345
-0.097848 0.514527 0.311699
0.215263 -0.336208 0.198250
-0.097562 -0.021379 0.307420
-0.107725 -0.025184 -0.313185
-0.190060 -0.256662 0.307138
0.392847 -0.113570 0.300273
-0.267481 0.871172 0.034065
-0.095491 -0.013939 -0.317097
-0.290216 -0.506096 0.097574
0.302909 0.097276 -0.295670
-0.098537 -0.030959 0.306589
-0.126010 -0.084804 -0.303106
-0.250231 -0.061374 0.104421
0.060320 0.075673 -0.295588
-0.130300 -0.079889 -0.314269
-0.266942 0.465643 0.294261
-0.093720 0.892647 -0.175194
-0.103248 -0.014752 0.299332
-0.268096 -0.253604 0.025046
0.339490 -0.603227 0.274305
0.361600 0.201086 0.081750
0.257385 -0.303914 -0.304952
-0.104047 -0.095994 0.289964
-0.103449 -0.303436 0.269342
-0.094816 -0.054307 -0.314434
-0.148775 0.306535 0.271278
-0.099720 -0.008647 0.297816
-0.120134 -0.015830 -0.313847
-0.035720 0.100554 -0.127526
-0.074656 -0.001905 0.299425
0.409297 -0.234949 0.270941
-0.102057 -0.047013 0.312256
-0.122358 -0.021742 -0.313379
-0.093163 -0.000685 0.298275
-0.136360 -0.042633 -0.316198
-0.126605 -0.012785 -0.312330
-0.088884 0.252549 0.101480
-0.131885 -0.036438 -0.300545
-0.091223 -0.016637 0.308280
-0.084769 0.013867 -0.297847
-0.117076 -0.024080 -0.311917
-0.094171 -0.015980 0.288463
0.172261 -0.043833 -0.296678
0.378299 -0.535599 0.307251
0.212400 -0.073457 0.285144
-0.105864 -0.006832 0.316960
-0.272169 0.261823 -0.210863
-0.091917 -0.034231 0.315920
-0.110967 -0.046183 -0.302120
-0.117940 -0.022870 -0.299475
-0.099597 -0.092310 -0.297166
0.123577 0.111911 -0.311166
0.126077 -0.176370 0.163328
-0.107051 0.431261 -0.277336
-0.026143 -0.440929 0.259268
-0.131505 -0.036530 -0.316965
-0.170828 -0.585543 -0.049268
0.353322 0.162365 -0.193865
-0.129730 -0.069976 -0.304673
0.028276 0.020129 -0.086228
-0.096434 -0.009857 0.306521
0.233770 0.059380 -0.170729
-0.119136 0.060582 0.307528
-0.250674 -0.288031 0.277014
-0.266492 -0.171100 -0.044544
-0.115249 -0.022461 -0.312154
0.036117 0.030692 0.309554
-0.093311 0.268481 0.269500
0.393930 -0.202558 0.257735
-0.087239 0.059632 -0.291068
-0.158488 0.186320 0.310358
-0.103277 -0.013324 -0.314417
-0.098596 -0.032048 -0.314066
-0.094285 -0.004581 0.315473
0.309446 -0.437956 -0.008989
0.310052 -0.083013 0.312282
-0.115883 -0.002359 -0.316755
-0.092453 0.874119 -0.015907
-0.054964 -0.103232 0.313765
-0.259673 -0.090426 0.201096
0.313862 -0.205085 -0.287805
-0.110459 -0.045167 -0.320543
-0.086337 0.173191 -0.284273
0.334275 -0.086919 0.118124
-0.254447 0.400157 -0.276745
-0.110776 0.122820 -0.318040
-0.094401 0.009128 0.297003
-0.119675 -0.021216 -0.315301
-0.305082 -0.571669 -0.159746
-0.112842 0.229825 -0.071545
-0.106646 -0.516610 -0.205796
-0.235577 0.436738 -0.303032
-0.194342 0.017679 0.302185
-0.204431 -0.296350 0.321268
-0.253350 -0.414939 -0.230428
-0.123714 -0.044220 0.290295
-0.121058 -0.018717 -0.316281
-0.273237 0.718706 -0.229144
0.439096 -0.204722 -0.155568
-0.147980 -0.081103 -0.309003
-0.270555 -0.352052 -0.147222
-0.184087 0.128267 -0.301189
-0.254440 -0.139060 0.142261
-0.085226 -0.033620 0.306714
0.025183 -0.008585 -0.273727
-0.130125 -0.022642 -0.322525
-0.105620 -0.010959 -0.313908
-0.113978 -0.063453 -0.309445
0.162045 -0.403333 -0.155284
-0.098564 -0.038352 -0.315083
-0.230626 -0.100447 0.011732
-0.127702 -0.043637 -0.309710
-0.082938 0.782630 0.064680
-0.087847 0.008132 0.314012
-0.123231 -0.040993 -0.302210
0.008419 0.093039 0.311518
-0.156825 0.311325 -0.313576
0.196946 -0.416886 0.290228
-0.137434 0.014754 0.310686
-0.243101 0.861368 0.313774
-0.103608 -0.017897 -0.311252
-0.101808 0.003351 -0.311851
-0.138214 -0.006267 0.287931
-0.060437 0.000547 0.297389
-0.124113 -0.030236 -0.323679
-0.102497 -0.018130 0.325027
-0.243047 -0.014924 -0.248334
0.413993 -0.385594 -0.292748
-0.076758 0.007855 0.310338
-0.108648 -0.008425 -0.298581
-0.085744 -0.012070 0.321545
-0.101684 -0.021541 -0.314402
-0.093876 -0.007100 0.309433
-0.240538 0.848304 -0.109182
-0.107594 -0.014129 0.293734
-0.105289 0.568229 -0.248794
0.084040 0.118890 0.266981
-0.106231 0.173182 0.037444
-0.092942 -0.019738 0.316063
0.405048 0.040144 0.083872
-0.110490 0.449135 -0.100769
-0.319478 0.665056 0.116693
-0.264312 0.121977 -0.241312
-0.097636 -0.005039 0.296903
-0.087311 -0.037030 0.312475
-0.092314 -0.018648 0.315474
0.245212 -0.258170 -0.235397
-0.071706 -0.026018 0.315939
-0.084624 0.027825 0.319569
-0.092967 0.014332 -0.316703
-0.111501 -0.032245 -0.305834
-0.129556 -0.016163 0.308423
-0.100909 -0.032884 -0.305391
-0.274042 -0.311279 0.138030
-0.297758 -0.395183 0.098303
-0.105971 -0.053167 0.295913
-0.104310 0.269938 0.186322
0.033477 -0.040378 0.322757
0.285525 -0.384366 -0.235952
-0.188278 -0.009177 -0.290717
-0.124476 -0.010822 0.300505
-0.326370 -0.544936 -0.170054
0.327136 -0.078384 -0.311743
-0.100815 0.148911 0.300111
0.108382 0.014741 -0.309279
-0.131676 -0.064429 -0.322686
-0.098812 0.386462 -0.279081
-0.094303 0.645986 0.251744
0.247703 0.123546 0.315959
-0.110385 -0.051459 -0.313077
-0.191879 0.864235 -0.307531
-0.270082 -0.104126 -0.097943
-0.086549 0.016610 -0.298976
-0.270955 0.123479 0.134710
-0.261623 -0.407834 0.257621
-0.093543 -0.492342 -0.256918
0.351667 -0.178030 0.203242
-0.278192 0.116180 -0.074588
-0.095199 -0.007306 0.315201
-0.093448 -0.021794 0.280269
-0.119073 -0.009149 0.311075
-0.123265 0.358544 -0.046179
-0.105461 -0.008743 -0.301667
-0.094875 -0.010652 -0.304903
-0.105725 0.011228 -0.301711
-0.061839 0.199832 0.196977
-0.064136 -0.006801 0.309244
-0.179010 -0.582754 -0.157819
-0.033538 -0.057278 -0.291177
-0.099743 -0.029355 -0.312182
0.126285 0.103320 0.314801
-0.072001 -0.018562 -0.309575
-0.274639 -0.192644 0.124788
-0.121890 -0.034715 -0.307991
-0.119803 -0.062904 -0.314567
0.072083 -0.091442 -0.296727
0.224024 -0.167524 0.262438
-0.074577 0.552562 0.062093
-0.071112 -0.005123 0.295742
-0.121648 0.383109 0.148340
-0.119816 -0.093897 -0.282770
-0.206422 -0.303558 -0.140394
-0.085347 -0.033893 0.313873
-0.124254 -0.043623 -0.313551
-0.125894 0.059637 -0.319954
0.401541 -0.051101 0.143105
-0.125556 -0.014523 -0.308357
-0.098107 -0.051725 0.308814
-0.227901 0.365921 -0.282223
-0.105689 -0.045918 -0.298853
0.342200 0.007360 -0.280902
-0.089863 -0.021313 -0.303530
-0.201485 -0.118276 0.290857
-0.096824 -0.005055 0.309792
0.367819 -0.304090 -0.293523
-0.078987 0.012729 -0.300179
-0.104489 -0.280730 0.239309
-0.248695 0.222315 -0.187228
-0.100728 0.066478 -0.291503
-0.117286 -0.034220 -0.315294
-0.118095 0.047974 0.291550
-0.135693 -0.006761 0.292453
0.198991 -0.257568 -0.168624
-0.150285 0.410028 0.318894
-0.131151 0.004566 0.311123
-0.044922 -0.030469 0.292076
-0.258582 0.598123 -0.271410
-0.125071 -0.031869 -0.310140
-0.029482 -0.402488 -0.017142
-0.126464 -0.022489 -0.308425
0.049527 0.076450 0.313306
-0.096255 -0.021820 0.316497
-0.233896 -0.615627 -0.151725
-0.113128 0.004449 -0.305959
-0.096813 0.807652 -0.107877
-0.090472 -0.022546 0.320527
-0.079416 0.000475 0.306989
-0.075256 -0.567667 -0.179849
-0.116823 -0.036602 -0.318124
-0.145371 0.179670 -0.300356
-0.019730 0.430679 -0.297296
-0.128258 -0.047812 -0.313185
-0.170347 0.121301 0.297366
-0.052619 -0.061056 0.308626
-0.095346 0.006672 -0.294012
-0.002167 0.909270 -0.015456
0.194591 -0.072793 0.301331
0.091144 -0.085638 0.019313
-0.104228 -0.021977 0.310020
0.312993 -0.159320 -0.185393
-0.081403 -0.005576 0.294028
-0.124421 0.017701 -0.301191
-0.256785 0.584175 0.293938
-0.100666 -0.034554 -0.312500
0.439510 0.037229 -0.104421
-0.097301 0.020644 -0.297399
-0.278733 -0.473788 0.065755
-0.077816 -0.004255 0.308067
-0.083449 -0.529660 0.293755
0.230586 0.008601 -0.295715
-0.107656 -0.022854 0.307863
0.431283 -0.070049 0.063953
-0.117501 -0.019636 0.289037
-0.118461 -0.048283 -0.309938
-0.151706 0.811224 0.320571
-0.057695 -0.013091 -0.315407
-0.073169 -0.006630 0.312695
-0.080341 -0.019745 -0.312350
-0.112378 -0.026616 -0.322315
-0.122523 -0.030849 -0.313120
0.226138 -0.646568 0.212193
-0.078130 0.009672 -0.303554
-0.261971 0.841065 0.252119
-0.093712 0.686056 -0.184650
-0.159787 0.550808 0.303098
-0.056294 -0.506337 0.128811
-0.310740 0.680520 -0.050956
-0.003663 -0.033948 0.300979
-0.099246 -0.030080 0.319979
-0.051738 -0.000093 -0.312640
-0.079789 0.000044 0.316761
-0.084756 -0.019239 0.303457
-0.129651 -0.030686 -0.315219
-0.115422 -0.017173 -0.313564
-0.106569 -0.167887 0.265375
-0.102026 -0.110728 -0.283841
-0.160428 -0.115804 -0.303547
-0.097637 -0.003145 0.302255
-0.302106 0.417890 0.255920
-0.274317 -0.091109 0.121352
-0.121782 0.399395 -0.133466
-0.093560 0.046185 -0.307550
-0.091524 0.002404 -0.303067
-0.112721 -0.075390 -0.314065
-0.104691 0.065053 0.300134
-0.113840 0.269238 0.306929
-0.101814 -0.010835 0.315543
-0.103253 -0.012542 -0.308932
0.092167 0.098730 -0.319708
-0.021412 0.667825 0.322310
-0.000352 -0.059948 0.310575
-0.080268 -0.044735 -0.301649
-0.118440 -0.035282 -0.311685
-0.162034 0.222297 0.313140
-0.135398 -0.009031 -0.298411
-0.074620 -0.030355 -0.301095
-0.079224 -0.105396 -0.284952
-0.042361 0.435811 0.057830
0.139388 0.097731 -0.137131
-0.080243 -0.019789 0.311715
0.136156 -0.141382 0.324364
-0.149121 -0.200545 -0.299645
-0.012736 0.162137 0.334303
-0.114990 -0.047190 -0.315240
-0.241484 -0.544183 0.047651
-0.100835 -0.006741 -0.309597
-0.073584 0.010024 -0.290629
-0.263436 0.154852 -0.115026
-0.053778 -0.432293 -0.175920
-0.121333 -0.219936 0.230579
-0.195300 0.282660 0.302405
-0.109830 0.002551 -0.292617
-0.108464 -0.046338 -0.315181
-0.065501 -0.034200 -0.292546
-0.103391 0.012299 0.286271
-0.136401 -0.084132 0.302500
-0.077302 -0.003185 0.306601
0.009196 0.746775 -0.143037
-0.263283 0.055794 -0.210402
0.413256 -0.019256 0.246389
0.304471 -0.424424 -0.302831
-0.167957 0.157558 0.311560
-0.129738 -0.060207 -0.320897
-0.085595 -0.028204 -0.304920
-0.101124 -0.011618 -0.310470
-0.158014 -0.153711 -0.289640
-0.184172 0.074676 0.322305
-0.082425 0.000319 -0.293409
-0.102528 -0.006637 -0.308651
-0.267910 0.485618 -0.114664
-0.087074 0.243377 0.307580
0.387957 -0.168515 -0.232747
-0.287575 0.400363 0.012257
0.015040 0.198822 -0.222105
-0.103528 -0.019516 0.321692
-0.216417 -0.429617 0.304461
-0.075447 -0.013194 0.314720
0.117734 -0.618648 0.213409
-0.125279 -0.061537 -0.314151
-0.085475 0.175077 -0.284167
-0.071956 0.011179 -0.307279
-0.104337 0.838791 -0.211089
-0.273309 0.529429 0.104146
-0.109994 -0.027540 -0.290200
-0.155913 -0.071160 0.297693
-0.049603 0.806462 -0.202880
-0.088843 0.137348 -0.301406
0.257467 -0.548991 -0.293010
-0.107180 -0.094569 -0.249786
-0.124586 -0.047792 -0.315013
-0.195679 -0.156247 -0.289752
-0.167962 -0.454044 0.117350
-0.093790 -0.000132 0.315772
0.059231 -0.147002 0.315725
-0.105215 -0.002466 0.308087
-0.107259 -0.011135 -0.309823
0.213806 0.091353 -0.085524
-0.268105 0.923262 -0.127671
-0.076479 0.859167 0.144270
-0.128928 0.957538 0.067120
-0.062449 -0.007244 -0.303279
0.412931 -0.043631 -0.166711
-0.033128 -0.454444 -0.273102
-0.104195 0.958587 0.147771
-0.124559 -0.095195 -0.284046
-0.246401 -0.087250 0.289416
-0.126809 0.005940 -0.314310
-0.180444 0.936315 0.171293
-0.080335 -0.001433 0.293959
0.453125 -0.470607 0.022821
-0.109607 0.587524 0.147287
-0.059693 0.589671 -0.323636
-0.131445 0.225717 -0.309992
0.425965 -0.438010 0.200359
-0.125569 -0.038720 -0.316828
-0.109769 0.003054 0.308038
-0.123340 -0.574312 -0.279490
-0.207343 -0.344688 -0.295583
-0.111457 -0.014617 -0.298686
-0.160468 0.123769 0.307320
-0.272920 0.266916 0.132750
-0.078473 0.010443 -0.301156
-0.245086 -0.146509 -0.213596
-0.081030 -0.000508 0.321535
0.318540 0.047709 0.334697
-0.088115 -0.021901 0.309448
-0.077131 0.012696 0.131485
0.417993 -0.537270 -0.310129
0.341346 0.092639 -0.319288
-0.250068 0.752334 0.118016
-0.106526 -0.007691 0.299716
-0.082445 0.035012 -0.328468
-0.140189 -0.308912 0.110587
-0.047875 -0.014731 -0.305271
-0.107466 -0.002148 -0.313097
-0.274725 0.225790 -0.124852
-0.087611 -0.015577 -0.314138
-0.111131 0.571180 0.240141
-0.095500 -0.219620 -0.276586
0.252582 -0.389224 -0.280749
-0.087853 0.687181 0.184896
-0.014298 -0.223767 -0.285655
-0.047534 0.277387 -0.287255
-0.169897 -0.590218 0.293529
-0.087609 -0.029880 0.313454
