0.297385 0.000502 -0.375815
-0.066817 -0.022021 -0.388611
0.357935 -0.348631 0.437450
-0.083432 -0.013253 0.364209
-0.100609 -0.025258 -0.383289
-0.078835 -0.015354 0.380519
-0.055438 -0.015233 -0.380113
-0.109872 -0.021426 -0.364080
-0.175685 -0.676910 0.231610
-0.103454 -0.006834 0.374754
0.427856 -0.184890 -0.223769
-0.116113 -0.025710 -0.361960
-0.103867 -0.005867 0.384231
-0.118095 -0.015530 0.361869
-0.095391 -0.020008 0.381522
-0.080894 -0.015755 -0.366811
0.295725 -0.574284 -0.440755
-0.046078 -0.009332 -0.387354
-0.186950 -0.061542 -0.360719
-0.074468 -0.010290 -0.393746
-0.332660 0.020467 -0.205588
-0.085929 -0.016729 0.388362
-0.405175 0.304717 0.016810
-0.065963 0.034605 -0.416643
-0.427124 0.561574 -0.132127
-0.088747 -0.016983 0.387191
-0.078411 -0.027352 -0.382684
0.035353 0.017662 0.218966
-0.091458 -0.030212 -0.358087
0.185215 -0.008960 0.352553
0.054239 -0.013530 0.445736
-0.338813 0.446083 0.340622
-0.078641 -0.005660 0.358429
-0.085185 -0.013564 0.365011
-0.078650 -0.015083 0.377407
-0.454552 0.430939 -0.092404
-0.074803 -0.021913 -0.393961
-0.065317 -0.017203 -0.383192
-0.116672 0.440252 0.406384
0.523583 0.012807 -0.060876
-0.099282 -0.019417 0.384603
-0.041925 -0.023367 -0.384131
0.024270 -0.192962 0.039070
-0.042430 0.002525 -0.393283
-0.089341 -0.019683 -0.395527
-0.008507 0.019914 0.129073
0.009829 -0.009355 -0.391071
-0.355661 0.327081 -0.296977
-0.090613 -0.044474 0.362916
0.149591 -0.003675 0.399118
-0.080990 -0.010850 0.371158
-0.093636 -0.025191 -0.382574
-0.096090 -0.013150 -0.379806
0.298044 -0.214382 0.402809
-0.417632 0.107162 0.108481
0.420019 -0.230703 0.144580
-0.090326 -0.008601 -0.386316
-0.392773 0.006595 -0.023703
0.183162 -0.055088 -0.151918
-0.084364 -0.027850 0.374091
0.181273 -0.098054 -0.046595
-0.112417 -0.017416 0.364529
-0.107400 -0.014956 0.393083
-0.037302 -0.000004 0.382774
-0.082582 -0.588970 0.283538
0.287497 -0.076659 0.179306
-0.092204 -0.011810 0.375284
0.364726 -0.753582 0.398796
-0.059961 -0.030874 -0.383482
-0.337311 0.160905 0.259174
-0.100374 -0.029882 0.370782
-0.090408 -0.002082 0.388012
0.380009 -0.082220 0.258108
-0.111638 -0.015510 0.370943
-0.037577 -0.023391 -0.393477
0.109829 -0.049196 -0.148981
-0.063469 -0.025427 -0.381007
0.362304 0.009987 0.296226
-0.117310 -0.013692 0.378217
-0.090280 -0.005674 0.383980
-0.084652 -0.009734 -0.381332
-0.245594 0.037828 -0.080752
-0.058640 -0.041179 -0.375039
-0.416966 0.428286 -0.204349
-0.428399 -0.039594 -0.016528
-0.095879 -0.002874 0.377732
-0.094819 -0.019746 0.383166
0.518654 -0.109188 0.122234
0.186129 -0.557030 -0.378686
0.276185 0.021328 0.009633
0.261488 0.054178 -0.425451
-0.092205 -0.025543 -0.398225
-0.027496 -0.007862 0.374352
-0.090236 -0.012803 0.360957
-0.039024 -0.019561 -0.390157
-0.312557 -0.000652 -0.061444
-0.099702 -0.011661 0.372435
0.102741 0.388117 -0.433569
-0.228080 0.227905 0.449626
0.074200 -0.027575 -0.436680
-0.080457 -0.013366 -0.378485
0.393819 -0.037218 0.394245
-0.067980 -0.004478 -0.405650
0.177348 0.001313 0.420101
0.010253 0.091189 -0.469237
0.456433 -0.008231 -0.121472
-0.351315 0.434032 -0.316121
-0.341960 0.428171 -0.356255
-0.090565 -0.013983 0.382201
-0.385239 0.366534 0.027156
-0.035688 0.001818 -0.409652
-0.042056 -0.034781 -0.403525
-0.081669 -0.027114 -0.383336
0.263207 0.055910 -0.445619
-0.128137 -0.000319 0.361751
0.212880 0.014744 -0.365584
0.416174 0.053601 -0.145199
-0.042475 -0.016392 -0.397085
-0.424497 0.457065 0.171400
-0.094040 -0.009943 0.377186
-0.087198 0.007798 0.287338
-0.253083 0.034470 -0.384990
-0.005960 -0.027986 0.401576
-0.079477 0.005607 0.357341
0.106786 -0.012532 -0.431792
-0.340394 0.615535 -0.464057
-0.082786 -0.007305 0.381158
0.084998 -0.024455 -0.414665
-0.302994 -0.096177 -0.187392
-0.101187 -0.019557 0.358559
-0.077250 -0.018397 -0.385065
-0.166056 -0.023652 0.373283
-0.099113 -0.024891 0.371574
0.031838 0.008041 -0.420797
-0.257544 0.003408 0.297174
0.410865 -0.115563 0.067826
0.200113 0.095307 -0.360230
0.386606 -0.538307 0.222653
-0.136424 -0.023801 -0.351671
-0.050726 -0.003238 -0.389210
-0.105735 -0.024786 0.363169
-0.250841 -0.028325 -0.015196
-0.108807 -0.017776 0.376479
-0.079662 -0.030483 -0.380895
0.470871 -0.096353 -0.268693
-0.171736 0.039443 -0.311819
-0.108741 0.568972 0.513704
0.219973 -0.698527 -0.398724
-0.248017 -0.013582 0.209776
-0.292921 0.067386 -0.287787
-0.121142 -0.000869 0.357549
-0.116747 -0.028066 0.383579
-0.077590 -0.030658 -0.376873
0.033836 0.006401 0.417121
-0.156092 0.021893 0.380255
-0.457773 0.389389 -0.075674
-0.112165 -0.048410 0.431575
-0.071124 -0.027772 -0.379774
-0.083740 -0.028768 -0.407234
0.332232 0.033389 -0.145605
-0.308556 0.234370 0.336764
-0.064896 -0.019452 -0.373310
-0.039750 -0.023419 -0.387047
-0.047566 -0.019713 0.210406
-0.118500 -0.007135 0.370658
0.474001 0.038882 -0.254202
-0.121798 -0.008511 0.380138
-0.123061 -0.110284 -0.294024
0.286266 0.029818 0.338197
-0.224181 0.208080 -0.419187
0.407796 -0.481193 0.415312
-0.080276 0.234237 0.400317
-0.079738 -0.019921 -0.382997
-0.023491 -0.026049 -0.382566
-0.001748 0.008704 -0.390694
-0.225694 -0.020475 0.189807
-0.212834 0.046184 -0.268206
0.466063 -0.000626 0.209831
-0.075648 -0.035218 -0.379946
-0.095455 -0.082456 0.089643
-0.070484 -0.010963 -0.379907
-0.389889 0.503948 0.206393
-0.367334 0.174989 -0.232924
0.071264 -0.036294 -0.414510
0.430680 0.021855 0.320571
-0.063382 -0.058494 0.403319
-0.249067 -0.002194 0.344529
0.303443 0.051394 -0.304040
-0.281764 -0.019970 -0.132797
-0.114768 -0.006032 0.389078
0.183175 -0.045872 0.049834
-0.393426 0.332132 -0.169238
-0.075682 -0.003127 0.376974
-0.124955 -0.036749 0.487174
-0.080362 -0.067925 0.030255
-0.075575 -0.010656 -0.381003
0.388164 0.011277 0.383557
0.077077 0.002328 -0.456325
-0.064771 -0.028715 -0.383106
-0.091996 -0.018398 0.381791
-0.299048 0.143129 0.358544
-0.062524 -0.036214 -0.392772
-0.094937 -0.023045 -0.376952
-0.100705 -0.010786 0.378188
0.231121 0.033059 0.193249
-0.368659 0.373692 0.247002
-0.082673 -0.009863 0.383611
-0.057394 -0.020716 -0.403056
-0.036934 0.027573 -0.409420
0.011628 0.015935 -0.378827
0.007806 -0.046042 0.268298
-0.088100 -0.012078 0.368332
-0.049731 -0.014712 -0.389245
-0.053998 -0.012851 0.371585
-0.077344 -0.018357 -0.377475
-0.066805 -0.030313 -0.398269
0.036372 0.020036 -0.417667
-0.303096 -0.461460 -0.304550
-0.226283 -0.089168 0.336862
-0.059168 -0.023071 -0.378668
-0.050122 0.002307 0.378872
0.443469 0.028672 -0.324530
-0.099431 -0.026654 -0.391492
0.283846 0.070921 0.402527
-0.430000 0.481548 -0.234828
-0.111878 -0.020081 -0.375760
-0.124689 -0.172160 -0.407943
-0.015230 -0.025161 -0.393662
0.340119 0.036622 0.151980
0.203406 0.020508 -0.510231
-0.204182 -0.121773 -0.215351
-0.209410 -0.037840 0.325320
-0.113258 -0.012898 0.365509
0.483782 -0.024480 -0.374623
-0.080693 -0.017236 -0.386204
0.066067 -0.073547 -0.055706
-0.104665 -0.029788 -0.380732
-0.195284 0.019548 -0.347654
0.234044 -0.005393 -0.367609
-0.506215 0.634454 0.099405
-0.032348 -0.035657 -0.396055
-0.349223 0.006572 0.221926
-0.435477 0.552803 -0.260987
0.439031 -0.205639 0.254348
-0.166911 -0.023163 0.392451
-0.001003 0.012909 -0.095244
-0.085381 -0.018865 -0.382033
-0.032741 0.019226 0.396259
-0.176827 0.288524 0.459430
0.413790 -0.148547 -0.038331
-0.065941 -0.020833 -0.393575
-0.103766 -0.013176 0.364444
-0.098543 -0.023008 -0.387196
-0.067215 -0.019195 0.369828
-0.092859 -0.009526 0.373767
-0.080500 -0.015886 0.382512
-0.086602 -0.014805 0.387584
-0.087515 -0.009848 0.393566
0.330377 0.047823 0.407631
-0.230571 -0.159591 0.287333
-0.048115 -0.033903 -0.402711
-0.047939 -0.028988 -0.386487
-0.187512 -0.025601 0.355118
-0.281194 -0.575449 -0.387402
-0.055497 -0.008668 -0.385243
-0.075059 0.002395 0.371759
-0.063329 -0.011060 -0.394447
0.422010 0.180918 -0.344898
-0.077884 -0.026050 -0.384867
-0.108358 -0.001076 0.363213
-0.119621 -0.035017 -0.366387
0.117922 0.015793 -0.404248
0.459707 -0.012602 -0.438299
-0.063877 -0.021848 -0.389043
-0.016846 0.003808 0.409377
0.006285 -0.003039 0.374493
-0.077907 -0.013946 -0.385074
-0.085868 -0.020666 0.335457
-0.081062 -0.023590 -0.384499
-0.081077 -0.017394 0.381224
-0.079783 -0.043182 -0.373550
-0.044585 -0.008382 -0.376312
0.555079 -0.011309 -0.316671
-0.211923 -0.005682 0.294627
-0.097004 -0.020405 0.371491
0.070530 0.017998 -0.433600
0.382065 0.199160 0.542096
-0.151659 -0.059841 0.391522
0.187934 0.062385 -0.388294
0.070628 0.018917 -0.384472
0.151784 -0.087903 0.078232
-0.344219 0.453832 -0.418559
-0.197789 -0.015588 0.378097
0.324758 -0.234325 -0.294419
-0.077636 -0.023006 -0.373826
-0.094390 -0.007353 0.379454
-0.093664 -0.018218 -0.382767
0.549494 -0.002435 0.040385
0.117863 0.018438 -0.381647
0.037234 0.004433 -0.284302
0.346246 -0.639518 0.257383
-0.088422 -0.011514 0.366704
0.217049 0.340897 -0.512430
-0.034053 0.034911 0.417393
-0.317296 0.510112 0.395138
-0.069335 -0.007228 -0.395346
-0.126065 -0.014344 0.370026
-0.406637 0.578073 -0.273199
-0.061364 -0.020955 -0.395020
-0.053999 -0.029226 -0.382554
-0.128632 -0.038483 0.373177
-0.034454 -0.007562 -0.393498
0.138091 -0.065935 0.467962
-0.156173 -0.428558 -0.361189
-0.083083 -0.025254 -0.386252
-0.125320 -0.009567 0.371227
-0.100455 -0.010486 0.384335
0.288240 -0.023060 -0.324841
-0.041815 -0.029881 -0.379837
-0.084247 -0.016020 -0.391068
-0.087954 -0.010134 0.392135
0.278384 0.115032 -0.536341
-0.059138 0.038664 0.468156
0.426230 -0.318626 -0.406397
-0.004670 0.029254 0.292113
-0.436706 0.409994 -0.255757
-0.045944 -0.029181 -0.389892
-0.295526 0.233506 -0.367722
0.150539 0.030434 0.237039
-0.076008 -0.030352 -0.374472
-0.147895 -0.632191 -0.437584
-0.219252 -0.063103 0.240868
-0.067496 0.014609 0.385629
-0.055838 -0.027444 -0.400516
-0.071973 -0.021493 -0.389421
-0.071223 -0.023493 -0.387753
0.300088 0.002736 0.397974
0.010129 0.322390 -0.504196
-0.029879 -0.019686 -0.399327
-0.101747 -0.040857 -0.377928
0.473435 -0.165976 -0.139270
0.365143 0.097116 0.405683
-0.090065 -0.029871 -0.382088
-0.172508 0.032605 -0.350372
-0.109023 -0.019509 0.365765
-0.094272 -0.015774 0.381430
-0.364218 0.151357 0.432482
-0.061507 -0.030855 -0.403620
0.097130 -0.000123 -0.451031
-0.097884 -0.025723 -0.395453
-0.086885 -0.013617 0.385126
-0.122940 -0.019889 -0.371198
0.151685 -0.508230 -0.190627
-0.085456 -0.020576 -0.388944
0.168276 0.263133 0.511872
-0.091990 -0.014859 0.374143
-0.104575 -0.009018 0.350181
0.220217 -0.087290 0.419751
-0.101415 -0.018316 0.347605
-0.112361 -0.028271 -0.378216
-0.430160 0.355468 -0.139657
-0.042784 -0.004011 0.385292
-0.044898 -0.018082 0.388057
-0.112074 -0.013735 0.380122
-0.050144 -0.018041 -0.391734
-0.099478 -0.016427 0.371616
-0.055292 -0.017246 -0.371541
0.144533 -0.404347 0.215344
-0.095968 0.000125 0.355535
-0.016365 -0.021560 -0.379401
-0.093428 -0.009922 0.380993
0.025118 -0.156313 -0.350026
0.447297 -0.027363 0.352018
-0.292280 -0.432468 0.358927
-0.067234 -0.014247 -0.392689
-0.226770 -0.548079 0.245067
0.332085 0.148232 -0.478397
-0.050164 -0.004630 -0.381851
-0.090189 -0.022444 -0.382261
-0.067741 -0.020130 -0.384532
-0.324067 0.054326 -0.437623
-0.332046 0.395348 -0.235892
-0.433037 0.414461 -0.009139
-0.359597 0.005162 0.268460
0.490302 -0.001159 0.112178
0.115235 0.025629 -0.143219
-0.062131 -0.022129 -0.372090
0.139263 -0.350161 0.392669
0.377795 -0.048113 -0.339239
-0.317225 0.329305 -0.202360
-0.064338 -0.020605 -0.376693
0.008744 -0.094708 -0.313131
-0.325242 -0.081386 0.030538
-0.281470 0.029566 0.278856
-0.253899 -0.017701 -0.363258
0.301437 0.063520 0.377303
-0.101564 -0.023934 0.377085
-0.092904 -0.011841 0.379367
0.162526 0.034234 0.149786
0.426259 -0.016363 -0.468369
-0.101788 -0.038201 -0.364437
0.013558 -0.002655 0.059842
0.106921 0.270312 0.459299
-0.472423 0.542902 0.190623
-0.062617 -0.010124 -0.380220
-0.289041 -0.284421 0.366965
0.429285 -0.687799 0.356243
-0.082880 -0.015674 -0.390216
-0.169863 -0.041002 -0.443646
-0.093685 -0.038194 -0.382189
-0.087924 0.005855 0.410129
-0.319259 0.234095 -0.301264
-0.103162 -0.009895 0.371478
-0.076191 0.001326 0.374565
-0.055051 -0.016005 0.378353
-0.041169 -0.026963 -0.407301
-0.175749 -0.042455 0.323840
-0.096431 -0.005436 0.370017
-0.030216 -0.023023 -0.423615
-0.099752 -0.017053 0.373942
-0.386742 0.334786 0.286327
-0.076549 -0.024881 -0.388470
-0.098241 -0.025024 -0.374501
-0.067043 -0.026876 -0.380704
-0.054531 0.002567 -0.408434
0.305769 0.041857 0.060358
0.004363 0.418369 0.419933
-0.060563 -0.023564 -0.389563
0.264146 0.128045 0.390865
-0.090422 -0.020777 -0.381963
-0.438355 0.445025 -0.165989
-0.075940 -0.010458 0.365602
-0.477515 0.492544 -0.050978
-0.436884 0.558128 0.052145
-0.088096 -0.468068 -0.189514
-0.105122 -0.015388 0.378609
-0.437497 0.358067 0.101237
-0.087818 -0.031913 -0.403209
-0.090549 -0.023490 -0.396612
-0.032059 -0.008868 0.396256
-0.061883 -0.026685 -0.391557
-0.354828 0.579931 -0.239715
-0.093080 -0.015389 -0.376457
-0.366040 0.446830 0.058562
-0.032814 -0.003257 -0.386787
-0.083558 -0.020627 0.356954
-0.282610 -0.076812 0.275680
0.437734 0.007004 -0.288627
-0.089677 -0.028216 -0.373788
-0.088784 -0.009970 0.377259
-0.073569 -0.030053 -0.390772
-0.070174 -0.011902 0.372482
-0.319852 0.546045 -0.488986
0.154128 0.056213 -0.285175
0.343192 0.016249 -0.449010
0.097115 -0.650848 0.143298
0.486539 -0.057696 -0.468113
-0.175040 0.368370 -0.367864
-0.101086 -0.000925 0.378615
0.078470 0.018794 -0.424839
-0.080277 -0.028665 0.379889
-0.101634 -0.029620 -0.373421
-0.067992 -0.025744 -0.373343
-0.340455 0.052891 0.120812
0.186758 -0.074422 0.323034
-0.042645 -0.012880 -0.079526
-0.090102 -0.025639 -0.376220
0.093305 -0.246713 -0.113527
-0.051124 -0.016506 -0.399129
-0.067968 -0.594945 0.109862
-0.103044 0.004465 0.354148
-0.159898 -0.005306 -0.420116
-0.358692 0.396041 -0.126626
-0.074012 -0.014838 -0.377093
0.247046 -0.557470 0.425853
0.129021 0.066686 0.434683
-0.095545 -0.025694 -0.365331
-0.062902 -0.025036 -0.396388
-0.006421 -0.076669 -0.254673
-0.300917 0.354339 -0.425874
-0.071016 -0.015189 0.367522
-0.052638 -0.228687 -0.256718
-0.105955 -0.006357 0.371986
-0.022859 0.055119 0.442249
-0.065363 -0.020399 -0.394392
-0.147845 0.362186 -0.483383
-0.352057 0.647342 -0.350398
0.235008 0.113603 0.443652
0.482266 0.060861 -0.419008
-0.061488 0.006799 0.384735
-0.097768 -0.002572 0.362113
-0.105190 -0.018500 0.378637
-0.291993 -0.644267 0.188639
-0.096889 -0.018653 -0.379804
0.150755 -0.532313 0.070132
-0.124112 -0.025288 -0.363218
0.078602 0.018624 -0.424901
-0.068403 0.030877 0.204216
-0.093529 -0.017014 0.380968
-0.466363 0.483696 0.038492
-0.053041 0.011259 0.395701
0.287633 -0.113527 -0.282286
-0.085573 0.049058 -0.304332
-0.119646 -0.014933 0.363064
-0.097976 -0.008209 0.378680
-0.080495 -0.019650 -0.382574
-0.106190 -0.024991 0.378785
0.004896 -0.014344 0.413166
-0.085942 -0.015848 -0.377793
-0.097174 -0.011765 0.357908
0.335035 0.050020 0.371622
-0.052467 0.017602 -0.438461
0.441547 -0.061708 0.277345
-0.080757 -0.027446 -0.384545
-0.287403 -0.128606 -0.409562
-0.093789 -0.015876 0.380289
0.031807 -0.239255 0.085237
-0.106229 -0.016345 -0.377241
-0.085754 -0.011321 0.378687
-0.089767 -0.000147 0.356714
-0.050602 0.013064 0.380653
-0.234442 -0.198171 -0.256778
-0.071923 -0.020996 -0.382839
0.115494 0.001489 -0.436058
-0.181856 -0.164248 -0.365778
-0.295092 -0.018558 -0.030667
-0.100889 -0.010159 0.393407
-0.083588 -0.013926 0.398227
-0.136537 0.127306 -0.389471
0.140973 0.045065 0.278382
0.439037 -0.023642 -0.405267
-0.087638 -0.002769 0.386443
-0.438950 0.480609 0.187438
0.328813 -0.606426 -0.286850
0.171330 0.001682 -0.458354
-0.177437 -0.235332 0.363789
-0.070590 -0.024410 -0.377375
0.106005 -0.100392 -0.259808
0.129469 0.003399 0.054444
-0.057591 -0.047238 -0.400890
0.428628 0.006101 -0.368269
0.471353 -0.227008 -0.435854
0.113581 0.256271 -0.525811
-0.070957 -0.022414 -0.388071
-0.109388 0.006840 0.358569
-0.053272 -0.020594 -0.385579
-0.099658 -0.023684 -0.374620
0.126264 -0.011711 -0.422186
-0.095321 -0.022105 0.360119
-0.139948 0.074425 -0.387159
-0.079971 -0.017249 0.384207
-0.054829 -0.029627 -0.384918
-0.096929 -0.003842 0.395674
-0.096104 -0.013788 0.360125
-0.085592 -0.008399 0.380743
-0.135329 -0.074589 -0.343388
-0.307290 0.428188 0.387637
0.038510 -0.014682 -0.414008
-0.048060 -0.043831 -0.377102
0.279877 -0.071087 -0.112641
0.468635 -0.380695 -0.367802
-0.104352 -0.015016 -0.386477
-0.448001 0.648744 -0.256865
0.257363 -0.158618 -0.439546
-0.067715 -0.020932 -0.372776
-0.227291 0.371570 0.458985
-0.097464 -0.021879 -0.371860
-0.056054 -0.001170 -0.383522
-0.043979 -0.010386 -0.385618
-0.098462 -0.006817 0.383708
-0.168847 0.029448 0.141734
0.059457 -0.692495 0.349878
-0.209520 0.003800 0.081103
-0.083936 -0.016885 -0.371790
0.048872 0.022093 0.082262
0.007467 0.090479 0.398482
-0.097210 -0.009738 0.388229
-0.064784 -0.035465 -0.401456
-0.227268 -0.121802 -0.141127
-0.093421 -0.014960 0.368260
-0.072054 -0.022673 -0.383173
-0.068773 -0.112567 -0.206229
-0.057995 0.011993 0.377210
0.421566 -0.149634 0.240749
-0.078825 -0.018620 -0.378699
0.079937 -0.009374 -0.406996
-0.059105 0.000997 0.359288
0.019819 0.060514 0.394010
-0.388401 0.404534 -0.069694
-0.086233 -0.021173 -0.385867
-0.242904 0.146858 -0.360143
0.378199 -0.009427 0.391317
-0.362185 -0.054242 -0.051424
0.240117 0.104155 -0.455324
-0.045338 0.007222 0.370717
-0.074064 -0.012804 0.368030
-0.050455 -0.017442 -0.397766
0.034669 -0.002284 -0.396449
-0.052550 -0.027467 -0.394854
-0.076797 -0.023972 -0.392698
-0.066378 -0.018609 -0.164117
0.123692 0.044577 -0.446894
-0.414417 0.495299 -0.206133
-0.128626 -0.202495 0.060253
-0.100251 -0.026863 -0.372440
-0.109443 -0.037718 0.348339
-0.088211 -0.012516 0.376962
-0.084412 -0.030470 -0.378704
-0.056245 -0.028936 -0.368692
-0.290764 -0.080481 -0.228068
-0.104433 -0.029855 -0.376473
-0.284751 -0.032136 -0.261623
-0.104481 -0.029464 -0.367215
-0.189939 -0.077718 0.400877
-0.091005 -0.024850 -0.387592
-0.093928 -0.015960 0.382444
0.438384 -0.122777 -0.396307
-0.056254 0.002173 0.375713
0.314524 -0.006675 -0.115488
-0.456161 0.246122 -0.019093
0.064431 0.020205 -0.325838
-0.099754 -0.001901 0.387196
-0.096529 -0.009657 0.380897
-0.104082 -0.006906 0.376131
0.117166 0.008719 0.166572
0.278685 -0.520587 0.095545
-0.104134 -0.012906 0.361599
-0.068630 -0.010123 -0.378554
-0.104317 -0.009505 0.378666
-0.342052 -0.160266 0.118595
0.106773 0.002921 0.403485
-0.114897 -0.008651 0.352885
-0.267716 -0.002489 -0.103311
0.402256 0.136692 -0.546872
-0.104627 -0.013219 0.382580
-0.018742 -0.007095 -0.410604
0.223653 0.064952 0.452147
0.020573 0.045841 -0.463432
-0.080736 -0.011266 0.371286
0.509042 -0.067497 0.475781
-0.028540 -0.000029 -0.391101
0.371088 0.067291 0.478109
-0.090798 -0.028511 -0.381756
-0.286711 -0.009051 -0.252761
-0.037246 -0.501459 0.012115
-0.099221 -0.016513 0.375788
0.019261 0.337794 0.530786
-0.079896 -0.025991 -0.396595
-0.038271 -0.006216 -0.406085
0.021311 -0.134682 0.210527
-0.054631 0.023407 0.065081
-0.110243 0.017792 -0.368805
-0.078537 -0.009978 0.378187
-0.028952 -0.001414 -0.404872
-0.156008 -0.014892 0.248783
-0.082502 -0.025643 -0.396593
-0.082549 -0.012809 -0.381492
-0.325225 0.304754 0.256678
-0.133606 -0.033642 -0.366951
-0.181136 0.006803 0.381810
-0.260155 -0.045576 0.349456
-0.087050 -0.020828 0.376080
-0.324785 -0.076605 0.300440
-0.048666 -0.005371 0.359056
0.129451 -0.110511 0.194930
-0.118364 -0.051354 -0.402619
-0.091841 -0.019339 0.375361
-0.086038 0.012628 0.387781
-0.311917 -0.030064 0.125888
-0.115814 0.003000 0.389314
-0.088700 -0.015820 -0.376334
-0.257098 0.314108 -0.435842
-0.101642 -0.018321 0.382941
-0.101059 -0.029165 -0.368015
-0.079109 -0.027806 -0.381733
0.486054 -0.046133 0.323337
-0.102927 -0.013110 0.384223
-0.286549 0.043337 0.333309
-0.110197 0.000279 0.364774
-0.048201 -0.027726 -0.398136
-0.088289 -0.022680 -0.377662
-0.255229 0.069359 -0.352151
-0.092675 -0.030622 -0.370446
-0.109302 -0.015810 -0.372043
-0.074586 -0.024130 -0.388710
0.480452 -0.095784 -0.073477
-0.278629 -0.211963 0.308834
-0.106025 -0.024421 0.370519
-0.045972 0.003086 0.376553
-0.065141 -0.020995 -0.374948
-0.082851 -0.029185 -0.376305
-0.097829 -0.022177 -0.385719
-0.069530 -0.019146 -0.379829
-0.096665 -0.025865 0.378463
-0.089973 -0.035244 0.362398
-0.324136 -0.118399 -0.046160
-0.084489 -0.025222 -0.365647
-0.083886 -0.179457 0.325044
-0.102623 -0.014927 0.382281
-0.071667 -0.033578 -0.389819
-0.098829 -0.021305 -0.380224
-0.067126 -0.020312 -0.387596
-0.083470 0.010562 0.363576
0.319380 -0.096288 -0.420091
-0.415847 0.515635 0.177764
-0.378081 0.026955 0.220524
-0.062330 -0.020718 -0.387195
-0.369398 0.140098 0.047824
-0.009314 0.004456 -0.412569
0.281497 0.009548 -0.256955
0.090896 -0.103084 -0.449206
-0.086675 -0.022951 -0.376852
-0.054096 -0.004916 -0.385415
0.319083 -0.226027 0.083010
-0.141266 -0.032405 0.367822
0.320931 -0.114958 -0.200937
-0.057409 -0.009246 0.392139
-0.235870 -0.060093 -0.147616
0.476864 0.054039 0.233947
-0.180660 -0.078466 0.354427
-0.109999 -0.016471 0.378250
-0.186049 -0.575828 -0.262439
-0.066309 0.403464 -0.539487
0.194570 -0.024542 -0.058836
-0.393795 0.438904 -0.278327
0.037234 -0.011937 -0.407917
0.072313 -0.067433 0.014234
-0.157720 -0.023041 -0.333685
-0.065915 -0.026048 -0.396192
-0.263029 -0.002996 0.243744
-0.078714 -0.034840 -0.374527
-0.278686 -0.013440 -0.355753
-0.276500 0.161298 0.330910
-0.074052 -0.013088 0.441060
-0.255754 0.025299 0.311556
-0.065078 -0.018964 -0.378255
0.474456 -0.014810 0.274678
-0.077240 0.002598 0.351530
-0.068716 0.001509 -0.368691
-0.102262 -0.018929 -0.370288
0.471986 -0.078441 0.143925
-0.293438 -0.632225 0.361993
-0.391249 0.239768 -0.223022
-0.167466 -0.099874 0.321782
-0.062446 0.096783 -0.454455
-0.311957 -0.077747 -0.323432
0.229671 -0.134143 0.031600
0.022771 -0.005617 -0.419438
-0.394480 0.022152 -0.078115
0.010793 -0.013306 -0.209776
-0.242724 -0.689197 0.405940
0.062620 0.051626 0.422914
-0.112977 0.058715 0.462276
-0.082853 -0.028565 -0.381527
0.035457 0.007239 0.386441
-0.076906 0.022194 0.369630
-0.045672 0.058021 -0.416159
-0.051493 -0.023966 -0.379314
0.192270 -0.008490 -0.216632
-0.083640 0.006395 -0.364100
-0.086117 0.004811 0.353615
-0.078975 -0.013717 0.377195
-0.051849 -0.022437 -0.390900
-0.164978 0.010145 0.370912
-0.009699 -0.034804 -0.389345
-0.107333 -0.010490 0.377361
-0.058726 0.008474 0.381019
-0.346863 0.108666 -0.288497
0.217076 0.487031 -0.504147
0.181930 0.031815 -0.323575
-0.327688 -0.193776 -0.117978
0.228145 0.071142 0.392789
0.053540 -0.126118 0.117707
-0.087428 -0.022037 -0.371300
-0.178621 -0.048749 0.340281
0.158948 0.396871 0.486190
0.043786 0.001269 0.392038
-0.428456 0.460657 -0.149121
-0.082051 -0.017740 -0.391361
-0.093400 -0.015298 0.376723
-0.074449 0.005890 0.367055
0.060267 -0.144392 -0.179731
-0.063571 0.024915 0.390140
-0.465685 0.543941 -0.074499
0.295372 -0.040865 0.391398
-0.095792 -0.016871 0.367121
-0.044470 0.092062 0.447267
0.139126 -0.176912 0.320819
0.132736 0.034455 -0.026129
0.477201 -0.082460 0.237643
-0.075286 -0.015928 -0.387381
0.012147 -0.002476 0.431193
-0.066439 0.018286 -0.463288
-0.238419 0.276495 0.303305
0.313370 -0.090431 0.399567
-0.088139 -0.021512 0.373573
-0.040553 0.036821 0.429553
0.417550 0.393666 0.492404
-0.366743 0.087479 -0.082210
-0.102577 -0.025742 -0.396101
0.260310 0.011777 0.145106
0.081438 -0.051884 0.361485
-0.022049 0.009337 -0.377359
0.051414 0.218587 0.382732
-0.085433 0.273783 -0.506541
-0.164305 0.071960 -0.349603
0.293715 -0.550416 -0.074543
0.145801 -0.025616 -0.267426
0.238187 0.076772 -0.393656
-0.077059 -0.015915 -0.379189
-0.292934 0.040283 0.219053
-0.075707 -0.007060 0.395173
0.095327 0.035257 0.320674
-0.394965 0.179355 0.151150
-0.104271 0.008120 0.016093
0.304617 -0.026738 0.391244
-0.089354 -0.028817 -0.374302
-0.096901 -0.011655 0.386226
-0.102412 -0.018263 0.381590
-0.086281 -0.027106 -0.376955
0.130505 -0.033009 -0.318716
-0.073700 -0.029834 -0.390757
-0.269773 -0.004180 -0.425253
-0.110395 -0.020823 0.384879
0.217884 0.027092 -0.435883
-0.093057 -0.004648 0.371539
-0.095067 -0.027189 -0.382724
0.052389 0.017049 -0.377616
-0.276769 0.469713 0.440497
-0.094564 -0.007968 0.366945
0.463868 0.036449 -0.517199
-0.101145 -0.015561 0.383311
-0.207441 -0.111459 -0.410093
-0.109010 -0.015327 0.355280
-0.112452 -0.008292 -0.376306
-0.283542 0.636066 0.379386
-0.331231 0.015146 0.401219
0.020680 -0.030325 -0.412608
-0.099492 -0.014551 0.383345
-0.091728 -0.028522 -0.375322
-0.107915 -0.012556 0.375515
-0.073112 0.012015 0.315381
-0.037902 -0.004463 -0.389472
-0.063702 -0.021228 -0.391165
-0.359908 -0.081984 -0.201801
-0.105792 -0.025237 -0.388481
-0.093437 -0.041275 0.351930
-0.067659 -0.021395 -0.375409
0.473425 -0.145163 0.008131
-0.103124 -0.005303 0.365282
-0.316323 0.092486 0.030378
-0.087381 -0.023230 -0.380666
-0.042145 -0.029848 -0.400810
-0.047142 -0.032556 -0.379699
-0.332515 -0.032144 0.184435
-0.088734 0.546704 -0.502407
-0.091605 -0.009874 0.360004
-0.249142 -0.320247 -0.159580
-0.071766 0.007952 -0.291593
-0.396686 0.241676 0.202466
0.270906 0.050514 -0.181207
-0.230933 0.061815 -0.378811
-0.008557 -0.017381 -0.413809
0.434857 0.039977 0.410802
-0.031778 -0.013655 -0.392328
0.224673 0.038125 -0.242248
-0.120372 -0.019529 0.379643
-0.085836 -0.020984 -0.379498
-0.092274 -0.023952 -0.387773
-0.039077 -0.009305 -0.406915
-0.149148 0.005869 0.158940
-0.425873 0.458810 -0.059127
0.354383 -0.130012 0.178152
-0.109329 -0.010880 0.366757
-0.102239 -0.020430 0.387601
0.475332 -0.661795 0.094343
0.145035 0.116858 0.515605
-0.078922 -0.024620 -0.390784
-0.096170 -0.008285 0.383970
-0.106206 -0.019698 0.390349
-0.093352 -0.025549 -0.376874
0.154855 -0.021829 -0.470265
-0.099903 -0.016035 0.387328
0.194002 -0.070759 0.402339
-0.163529 0.442189 -0.511963
-0.373638 -0.223077 0.003244
-0.389102 0.455636 0.280319
-0.114511 -0.021273 0.372521
-0.101657 -0.022932 0.365273
-0.104610 -0.014078 0.372490
-0.425138 0.345135 -0.032704
0.464976 0.057875 0.373352
-0.014396 -0.682134 -0.372508
0.097751 0.232754 -0.391411
-0.385813 0.501107 -0.279405
-0.049010 -0.497698 0.215663
-0.068985 -0.030266 -0.384741
-0.067024 -0.028984 -0.403557
0.290032 -0.119777 0.353564
0.034804 0.070759 0.492311
-0.200316 -0.074463 -0.037191
-0.518904 0.643027 -0.075208
-0.415383 0.617406 -0.374535
-0.172281 0.004820 0.248074
-0.161304 -0.702984 -0.286996
0.466727 0.021433 0.003625
-0.074424 -0.023387 0.361478
0.110313 0.056107 -0.474497
-0.096344 -0.046443 0.365175
-0.074220 -0.011644 0.391701
0.385862 -0.581196 -0.157507
-0.116658 -0.014441 0.368892
-0.086137 -0.022830 -0.385860
-0.079129 -0.034373 -0.391007
0.382797 0.007296 0.011492
-0.085627 -0.004684 0.366112
-0.005863 0.042437 0.392854
0.242126 -0.591824 0.220713
0.040290 -0.006943 -0.401268
-0.342347 0.476624 0.398658
-0.405068 0.514309 -0.307202
0.377209 -0.103920 0.395660
0.484808 -0.039749 -0.302415
0.149757 0.096348 -0.442614
-0.019575 0.013301 -0.175679
-0.102477 -0.006461 -0.384615
-0.099743 -0.019817 0.377532
0.333456 -0.035888 -0.371466
0.189845 0.011033 0.321168
0.211606 -0.016633 0.169489
-0.079649 -0.018394 0.357724
-0.075905 -0.028494 -0.383482
-0.119430 -0.020043 0.360978
-0.016372 0.108176 -0.386648
-0.060976 -0.015998 -0.410298
0.166951 -0.518588 -0.074763
0.027120 -0.052567 0.371384
0.234125 -0.413744 -0.404552
-0.173669 -0.038360 -0.350933
-0.284726 0.380051 -0.361481
0.470363 0.020050 -0.372418
-0.305829 -0.149005 0.371791
-0.070166 -0.017861 0.392244
-0.112045 -0.014229 0.375426
-0.241848 0.044093 -0.309433
-0.079834 -0.025957 0.360070
-0.056794 -0.029939 -0.408419
0.341374 0.373763 -0.537477
0.406173 0.039171 -0.429333
-0.157664 0.059592 -0.172001
-0.170663 -0.106353 -0.089113
-0.106132 -0.002468 0.393546
-0.097150 -0.015560 -0.376551
-0.189004 -0.006031 0.420262
-0.104743 -0.018280 0.387067
-0.082166 0.000126 0.368544
0.100445 0.080518 0.363071
-0.114163 -0.020299 -0.377670
0.287409 0.074699 -0.355039
-0.099580 -0.022876 0.351897
0.262573 -0.075276 0.460598
0.083111 0.022494 0.417993
-0.098608 -0.019131 -0.372028
-0.041928 -0.027597 -0.392729
-0.278943 0.452078 -0.414708
-0.421007 0.581867 0.170644
-0.279446 0.441805 -0.458530
-0.278449 0.014217 -0.226407
-0.248013 -0.109834 -0.298302
-0.042239 -0.026052 -0.379059
-0.060735 0.459265 0.525356
-0.087248 -0.018361 0.378456
0.014459 0.006942 -0.423633
0.346156 0.046145 -0.385449
-0.307465 -0.038294 -0.000056
-0.093290 -0.021103 -0.370468
0.374913 0.008995 0.215443
-0.075660 -0.024576 -0.395084
0.297006 0.025208 0.456238
-0.082195 -0.019225 -0.385617
-0.067464 -0.028971 -0.410085
-0.082659 -0.015986 0.379970
-0.127862 -0.015934 0.374187
-0.059710 -0.013064 -0.389804
0.034222 0.008461 -0.146004
-0.098069 -0.009730 0.342354
-0.367315 0.477401 0.218297
0.230282 0.221910 0.485429
-0.111045 -0.020832 0.374242
-0.113660 -0.026889 -0.373084
-0.250804 0.160307 0.405855
-0.429809 0.444650 0.042974
-0.058938 -0.014729 -0.388928
0.265805 0.229821 -0.476606
-0.087458 -0.012473 0.382837
0.330886 0.046812 -0.030715
-0.268878 -0.005586 -0.312573
-0.384241 0.456152 -0.224477
-0.400107 -0.066328 -0.139210
-0.278942 -0.001446 -0.024177
0.359286 0.055762 0.304411
-0.265439 0.022119 0.455432
0.439664 -0.673709 -0.399004
-0.088917 -0.013105 0.393211
-0.115126 -0.025697 0.410073
-0.284981 -0.054360 0.264726
0.035046 -0.045011 -0.438598
-0.093801 -0.011965 0.381661
-0.123835 -0.012093 0.381416
-0.100495 -0.020061 -0.370494
-0.071046 -0.111867 -0.359481
-0.232480 0.114289 -0.458011
-0.431491 0.196572 -0.093863
-0.117537 -0.010005 0.350528
0.137326 -0.086561 -0.390844
0.080724 0.087753 -0.384227
0.325695 -0.600257 0.361123
0.375789 0.033402 -0.366745
-0.028680 -0.017980 -0.399581
-0.076016 -0.016399 -0.397200
-0.032505 -0.025849 -0.366062
-0.325488 0.308304 0.308999
0.388532 0.022905 -0.336375
0.140037 -0.001272 0.320078
-0.280642 0.001597 0.336949
-0.114450 -0.029570 -0.384903
-0.086054 -0.020532 -0.378584
-0.239011 -0.726107 0.321430
-0.104087 -0.027492 -0.380592
-0.085245 -0.014986 0.394793
-0.080148 0.009615 0.385547
-0.120830 -0.021285 0.380042
0.439641 0.246726 0.444127
-0.073784 -0.025013 -0.386447
-0.364496 0.051266 0.178321
-0.085239 -0.015122 0.378862
-0.072001 -0.017232 0.373570
-0.067456 -0.041876 -0.376898
-0.096776 -0.021087 0.382651
-0.037889 -0.018127 -0.384920
-0.044783 -0.035350 -0.406679
-0.072822 -0.018310 -0.390198
-0.460565 0.475496 0.105299
-0.096403 -0.023429 -0.387465
0.209821 -0.464316 0.265049
0.018504 -0.695117 -0.047042
-0.060975 -0.039029 -0.399568
0.229378 0.013835 -0.420027
-0.376036 0.045387 0.038065
-0.401748 0.431089 0.186988
-0.095858 -0.021879 -0.371937
-0.083385 -0.018890 -0.382085
-0.111527 -0.034303 0.360916
-0.073141 0.027192 -0.404236
-0.375112 0.337276 0.369381
-0.154779 -0.050009 -0.347048
-0.465181 0.525617 0.092157
0.401497 0.037160 -0.377120
0.156606 0.175955 0.387321
0.111515 0.065505 0.406803
-0.075980 -0.008070 -0.361170
-0.067554 -0.014188 -0.385323
-0.138900 -0.000576 0.079630
-0.421784 0.507015 0.246026
-0.092321 -0.057570 0.259503
0.100716 0.011052 -0.418099
-0.020314 -0.018607 -0.401998
-0.075869 -0.025860 -0.373857
-0.096645 -0.010196 0.386643
-0.094932 -0.013796 0.376420
-0.054679 -0.018094 -0.388932
-0.100257 -0.016220 0.370023
-0.105745 0.002619 0.377427
-0.068426 -0.015628 -0.381456
-0.075538 -0.016149 -0.373958
-0.086782 0.006823 0.371708
-0.074722 -0.028981 0.364051
-0.393331 0.430047 0.352534
-0.104757 -0.020220 -0.379625
-0.242201 -0.175121 0.413014
-0.236372 -0.079738 -0.362971
-0.072629 -0.014978 -0.377432
-0.099857 -0.027429 0.377634
-0.053659 -0.295457 -0.121841
-0.086417 -0.007140 0.374077
-0.068741 -0.004964 0.377659
0.120091 0.147058 0.450196
-0.050646 -0.015704 -0.384094
-0.079391 -0.020463 -0.381772
-0.070086 -0.026870 -0.392864
-0.117611 -0.029672 0.358330
-0.263699 -0.014936 0.047156
-0.415947 0.445530 0.234028
-0.336006 -0.013784 -0.368017
0.001484 -0.030971 -0.385445
-0.163617 -0.213167 -0.114130
-0.051955 -0.005808 -0.407493
0.094789 0.028299 0.276773
-0.038180 -0.036494 -0.380709
-0.104478 -0.021547 0.377719
0.378190 -0.692581 -0.496218
-0.035574 -0.014189 -0.392466
-0.106712 -0.033687 -0.369328
-0.102332 0.001703 0.378941
-0.191573 -0.016339 -0.347663
-0.084548 -0.025190 -0.373139
-0.080969 -0.020985 -0.378681
-0.075285 0.106584 0.467152
0.024183 -0.064855 -0.184068
-0.118264 -0.024943 -0.370990
0.029946 -0.025616 -0.018246
-0.307555 0.244316 0.145891
0.290821 0.471271 0.469177
-0.413977 -0.067003 0.076949
-0.003540 -0.023622 -0.407240
-0.068346 -0.030363 -0.385820
0.214242 -0.011796 0.469865
0.518472 -0.011273 -0.202542
-0.106558 -0.031620 -0.381801
-0.123229 -0.008502 0.377373
-0.145340 -0.011718 -0.348090
-0.095307 -0.011862 0.385356
-0.097746 0.010484 0.363158
-0.202073 0.271656 -0.395114
-0.101489 -0.005756 0.379367
-0.105342 -0.025586 0.360973
0.189772 -0.630759 -0.212403
-0.404267 0.502372 -0.322895
-0.383763 0.207879 0.000287
-0.084747 -0.021026 -0.376785
-0.086968 -0.026579 -0.368432
0.000168 -0.107526 -0.417783
-0.083210 0.014666 0.367573
-0.099521 -0.008265 0.368233
-0.071274 -0.034487 -0.382267
0.207802 0.014392 -0.016540
-0.412451 0.406741 -0.227905
0.061419 -0.384858 -0.027431
0.130185 0.036732 -0.429529
-0.027028 -0.629459 -0.180736
-0.069593 0.012691 0.385810
-0.030218 -0.001905 0.381148
-0.154191 -0.002866 -0.139580
-0.096232 -0.009346 0.395320
-0.072464 -0.025779 -0.384919
0.344973 0.002429 0.191111
-0.052543 -0.031301 -0.380495
-0.067604 -0.028074 0.133694
-0.301383 0.491143 -0.404306
-0.095015 -0.005130 0.384486
0.290250 0.139333 -0.395368
0.050437 0.028254 0.007210
-0.272259 0.076248 0.469001
-0.108926 -0.031392 0.377759
-0.396833 0.456822 -0.129056
-0.042467 -0.004759 -0.391828
0.126458 -0.032263 0.115315
-0.066494 -0.034472 -0.393221
-0.434782 0.124318 -0.015897
-0.110039 -0.011505 0.376474
-0.121642 -0.022274 0.374809
-0.097480 -0.018187 0.375339
-0.058756 0.019259 0.389105
-0.380567 0.192633 -0.190673
-0.043953 -0.005682 -0.384258
-0.102062 -0.027355 0.375562
-0.035085 -0.032313 -0.390236
0.263839 -0.040978 -0.462075
-0.394029 0.435474 -0.026651
-0.181726 0.000678 -0.405639
-0.069446 -0.030059 -0.405059
0.066458 -0.018029 0.249825
-0.182179 -0.080830 0.360667
0.237756 0.008521 0.299705
0.359184 -0.417451 -0.266823
-0.090520 -0.020827 -0.376645
-0.094098 -0.012505 0.379949
-0.120305 -0.057021 -0.425045
-0.386558 0.085459 -0.231735
-0.099603 -0.015515 0.377651
-0.264467 0.293548 0.465128
-0.320908 0.371330 -0.286244
-0.101390 -0.009310 -0.376959
-0.075013 -0.019802 -0.395264
-0.158292 -0.422541 0.339556
-0.109175 -0.010738 0.375049
0.402689 0.019439 -0.104072
-0.065798 -0.017044 -0.383010
0.054880 0.004583 0.392334
-0.097317 -0.019230 -0.395530
-0.355320 0.430046 -0.181163
-0.057722 -0.025557 -0.384797
-0.071170 -0.033046 -0.386857
0.036443 -0.031577 -0.466351
-0.122261 -0.015048 0.373803
-0.023780 -0.217873 -0.058798
-0.085054 -0.015389 -0.384439
-0.069908 -0.026163 -0.384796
-0.184267 -0.051547 0.376496
0.528923 -0.024939 -0.431323
-0.268836 -0.018107 0.279830
-0.111454 -0.011070 0.370716
-0.098146 -0.009377 0.372038
-0.061950 -0.038703 -0.390161
-0.425416 0.386229 0.274877
-0.060910 -0.001152 -0.376179
-0.102935 -0.006409 -0.364365
-0.176162 -0.038627 0.349429
-0.064398 0.003972 0.383119
0.014843 0.034847 0.321718
-0.118971 -0.009029 0.365746
0.394230 0.428010 -0.433912
0.057677 0.012901 0.402079
0.287553 0.033676 0.211851
0.362700 -0.114746 -0.007188
-0.055183 -0.020097 -0.389968
0.358069 0.010836 -0.352023
-0.004003 -0.020139 -0.382568
-0.078854 -0.030810 -0.367361
-0.088896 -0.014948 0.384366
-0.084770 -0.031140 -0.388514
-0.120725 -0.046406 -0.366025
-0.094751 -0.017185 0.381908
0.477054 -0.013495 -0.265770
0.140808 -0.010837 0.386026
-0.092774 -0.019828 -0.372166
-0.362671 0.425076 0.174792
-0.019325 0.018269 0.389400
-0.056376 -0.011226 -0.354818
0.290201 0.012838 -0.419847
0.104327 0.044959 0.413548
-0.078914 0.050231 0.372874
-0.105691 -0.027312 -0.372917
-0.006080 0.028588 -0.412304
-0.065317 -0.010932 -0.384994
-0.108317 -0.019066 -0.364398
-0.116299 0.025475 0.380374
-0.029933 -0.009102 0.379029
-0.043420 -0.023035 0.389059
-0.092555 -0.014071 -0.377697
-0.436461 0.487836 0.081607
-0.425766 0.341898 0.191631
-0.084147 -0.026049 0.371223
-0.278042 0.395069 0.311232
-0.265779 0.021905 -0.126319
-0.098668 0.052876 -0.474006
-0.052874 -0.246282 0.226341
-0.099906 -0.031019 -0.374338
0.453886 0.018999 -0.190120
-0.088243 -0.026230 -0.378179
-0.181435 -0.088957 -0.295870
-0.077232 -0.022621 -0.382720
0.288757 0.023534 0.293793
-0.365054 0.328471 -0.060409
0.127477 0.041812 0.363971
0.387919 0.053327 0.155429
-0.371112 0.326796 -0.374993
0.083304 0.513736 0.500609
-0.085149 -0.013731 -0.389790
-0.082845 -0.021858 -0.373009
-0.055531 -0.100875 0.275075
-0.090404 -0.014294 0.383442
-0.035673 -0.005578 -0.397438
0.039279 0.026092 0.369814
-0.224868 -0.052159 -0.309314
0.440098 0.253061 -0.461014
0.492732 -0.076995 -0.171296
-0.304213 0.012226 -0.322409
-0.199385 -0.206986 -0.370313
-0.108856 -0.010415 0.377792
-0.282344 0.033159 -0.184145
-0.045384 0.031377 0.405271
-0.096120 -0.022150 -0.379018
-0.119510 -0.004885 0.376540
-0.099519 -0.008584 -0.370597
-0.261093 -0.067854 0.074139
-0.062555 0.035421 -0.396885
-0.081928 -0.026907 -0.372571
-0.092051 -0.019307 0.378511
0.082761 0.028918 -0.238760
-0.205954 -0.040378 0.347894
0.404010 -0.086261 -0.134610
-0.379142 0.215455 -0.284128
-0.023401 -0.054525 0.455512
-0.137561 -0.023981 -0.365711
0.295715 -0.278772 0.240686
-0.461487 0.476413 -0.010370
-0.279897 -0.056441 0.126256
-0.380288 0.124534 0.203048
-0.251563 0.026672 0.202124
0.208919 -0.092782 0.267739
0.044475 0.008923 -0.417233
-0.093307 -0.031600 -0.403141
-0.468957 0.486805 -0.127856
-0.098226 -0.075042 0.193713
0.132250 0.008913 -0.329941
-0.095402 -0.016244 0.371532
-0.102147 -0.642579 0.457463
-0.080859 0.037503 0.275355
-0.066070 0.006907 0.394868
-0.228996 0.075393 -0.356000
-0.075767 -0.022479 -0.391906
-0.095000 -0.012535 0.380906
0.023512 -0.013714 -0.417287
-0.100462 -0.010059 0.380112
-0.084703 -0.026583 -0.365614
0.089308 -0.012278 -0.418503
-0.072439 -0.029208 -0.393912
-0.090143 -0.020479 -0.373281
-0.401757 0.125921 -0.141280
-0.297391 0.104332 -0.206479
0.241350 -0.073083 -0.387649
-0.110055 -0.015770 0.384408
-0.051497 -0.026677 -0.407392
-0.111238 -0.014064 0.375396
-0.446731 0.403818 0.043885
-0.131938 0.003114 -0.369235
-0.195034 0.005592 0.429321
-0.097346 -0.029057 -0.366056
-0.089679 -0.019551 0.382214
-0.347327 0.387605 0.209121
0.161857 0.012154 -0.396637
0.395188 0.002853 0.466938
-0.309975 -0.062732 0.207207
-0.068002 -0.022997 -0.400358
-0.391688 0.635357 0.395272
-0.386344 0.290408 0.099127
0.421106 -0.483042 -0.393671
-0.099960 0.049926 -0.379703
-0.177660 -0.048791 0.349690
0.388620 -0.750439 -0.322756
-0.095073 -0.028230 -0.384428
0.411405 0.031593 0.494692
0.308243 -0.027122 -0.394070
0.059971 -0.043908 -0.281344
-0.097548 -0.022041 0.356770
0.361422 -0.200171 0.335625
-0.274275 0.095745 0.274463
-0.068197 -0.018747 -0.374843
-0.354910 0.457169 -0.355523
-0.086446 -0.021229 0.390195
-0.266659 0.228283 -0.279720
-0.410763 0.506261 0.085776
-0.062884 -0.026958 -0.380641
0.178319 -0.086919 -0.448626
-0.209573 0.136320 -0.312516
-0.046607 -0.022585 -0.397464
0.333451 0.002065 0.491022
-0.043307 -0.029264 -0.389278
-0.054259 -0.008589 0.387051
-0.078438 -0.007019 0.383437
0.512860 -0.087241 -0.008702
-0.067494 -0.023167 -0.383761
-0.084498 -0.025191 -0.385311
-0.154829 -0.052945 -0.373921
-0.074909 -0.015274 0.374236
0.415092 0.090428 -0.446299
-0.079508 -0.030919 -0.384587
0.306736 0.126884 0.536111
0.071456 0.008892 0.366142
0.311150 0.067906 -0.239726
-0.275339 -0.099373 0.250407
-0.008910 -0.108206 -0.083857
-0.094953 -0.022015 0.358823
0.380500 -0.041987 0.387286
0.483820 0.047933 0.068322
-0.015641 -0.009601 -0.397231
-0.109411 -0.021991 -0.360808
-0.225337 0.008066 0.348190
0.276654 0.329513 0.416284
-0.303918 0.001900 0.030962
-0.412005 0.333827 -0.237196
-0.090522 -0.015972 0.381523
0.257547 0.018061 -0.323149
0.166158 -0.066143 -0.283792
-0.060110 -0.009971 0.385544
0.299428 0.075332 0.449323
-0.043022 -0.027206 -0.393785
-0.285420 0.430518 0.403949
-0.076774 -0.029002 -0.384082
-0.099393 -0.030271 -0.366189
-0.095338 -0.012848 0.375629
0.132681 0.041642 0.490480
-0.066656 -0.014478 -0.379108
0.242672 -0.187969 -0.076729
-0.368554 0.410816 -0.402133
-0.089060 -0.024518 -0.375746
0.131880 -0.215055 -0.407379
-0.108829 -0.015503 0.381349
-0.106156 -0.168619 0.415299
-0.100464 -0.012426 -0.379596
-0.365323 0.063322 -0.142600
0.258733 -0.072431 0.079295
0.031416 -0.011184 0.318810
-0.244124 0.057944 -0.261311
-0.021508 -0.033072 -0.399581
-0.084878 -0.032630 -0.375063
-0.121021 -0.013180 0.378251
0.261689 -0.037095 -0.021448
-0.068118 -0.035899 -0.382034
-0.100602 -0.021471 -0.386736
-0.093447 -0.030564 -0.371518
-0.210618 0.005709 0.110738
-0.107787 -0.027764 0.369272
-0.458139 0.366215 0.025836
-0.014728 0.003647 -0.410634
0.430371 -0.633438 0.484832
-0.070606 -0.021870 -0.404785
-0.068677 0.002722 0.374349
-0.075707 -0.016506 -0.391764
-0.183016 -0.090927 -0.373566
-0.044213 -0.029950 -0.318734
-0.340694 0.506249 0.326079
-0.091042 -0.017297 0.383630
-0.092652 -0.028194 -0.385584
0.267048 0.356894 -0.399936
-0.349960 0.408200 0.465976
-0.061183 -0.025782 -0.392649
-0.081830 -0.027692 -0.387449
-0.108065 -0.010182 0.384000
0.298849 -0.273680 -0.456077
-0.469102 0.433837 0.018310
-0.407216 0.471588 0.329175
-0.063601 -0.017654 -0.378284
-0.076772 -0.019405 -0.402499
0.369401 0.077697 -0.398749
0.145477 0.093901 -0.504479
-0.073731 0.005416 0.409204
-0.058311 -0.000718 0.395408
-0.113643 -0.025312 -0.362269
-0.039428 -0.036227 -0.387454
-0.054594 -0.018673 -0.384871
-0.460329 0.685948 0.038292
-0.062924 -0.019950 -0.390567
-0.080232 -0.023969 -0.386447
-0.421287 0.243144 0.111203
-0.087933 -0.013133 -0.379591
-0.086053 -0.025250 -0.388265
-0.030948 -0.132938 0.414626
-0.256750 -0.042728 -0.454760
-0.241643 0.570103 0.453885
0.111405 -0.022200 -0.393561
-0.309584 -0.110817 -0.294234
-0.095837 -0.029072 0.361924
0.410779 -0.185804 -0.342497
-0.050606 0.082791 0.354208
-0.079399 -0.010137 0.397379
0.273961 -0.008849 -0.379420
0.045347 -0.092292 0.371719
0.450652 -0.270356 0.442922
-0.064160 0.003284 -0.381035
-0.296623 0.174559 0.411701
-0.074715 -0.018464 -0.386389
0.101436 0.000953 -0.317036
-0.117649 -0.003171 0.362151
-0.064883 -0.033029 -0.381782
-0.088787 -0.023225 0.389658
-0.174161 -0.125274 0.236699
-0.102720 0.002208 0.369014
-0.062008 -0.019723 -0.391560
-0.049732 -0.020768 -0.408906
-0.270281 -0.714895 -0.354382
-0.099455 -0.011975 0.355272
0.219186 -0.325342 -0.008570
-0.204356 0.018335 -0.475765
-0.479112 0.564570 -0.003753
-0.161092 0.006570 0.346600
-0.381085 0.530220 0.327533
-0.386471 0.495758 -0.154314
-0.084647 -0.028698 -0.377445
-0.099385 -0.023149 -0.396056
-0.147745 0.166378 -0.463670
-0.103600 -0.008365 0.376183
-0.093108 -0.028888 -0.382834
-0.032319 -0.015667 -0.377552
-0.054801 -0.115301 -0.005024
-0.099734 -0.011812 0.363379
-0.106919 -0.003615 0.358866
-0.047108 -0.016420 -0.388101
-0.212877 0.070445 0.283813
-0.085913 -0.029927 -0.362960
0.470337 -0.100841 0.363001
-0.078478 -0.012686 0.375652
0.110479 0.039003 -0.341676
0.212402 0.015900 0.098189
0.363796 0.191412 0.375939
-0.359604 -0.111845 -0.113051
-0.095211 -0.017520 0.386291
0.308038 -0.692524 -0.317396
-0.080374 -0.013475 0.393042
0.019154 -0.058094 0.162939
-0.363005 0.155839 0.299167
-0.062494 -0.018850 -0.388940
-0.099930 -0.019581 0.364887
0.531650 -0.059795 -0.116247
-0.053925 -0.020475 -0.399090
-0.104358 -0.023046 0.358084
0.057523 0.031317 0.330861
-0.077764 -0.028921 -0.375004
-0.032419 -0.014420 -0.398965
0.365008 -0.053766 0.469897
-0.078892 -0.017790 -0.362397
0.095567 0.120048 -0.493220
0.200581 0.047985 -0.383158
-0.067974 -0.021348 -0.395879
-0.147126 -0.350093 -0.026977
-0.216191 0.032553 0.428755
-0.433203 0.371357 -0.115903
-0.102160 -0.011932 0.379537
-0.116548 -0.002928 -0.347252
-0.083598 0.045695 -0.375835
-0.048178 0.004439 -0.392035
-0.410011 0.551766 0.397094
-0.091764 -0.024984 -0.396415
-0.153069 -0.037762 0.421420
-0.279838 0.579779 -0.415847
-0.096700 -0.023078 0.382874
0.163529 -0.021591 -0.395445
-0.008925 0.026380 0.484469
-0.100440 -0.017997 0.373848
0.051126 0.011673 -0.406912
-0.079313 -0.013935 0.395124
-0.281517 -0.299030 0.200279
-0.098593 -0.024704 0.367131
-0.043527 -0.026706 -0.373090
-0.114045 -0.031547 -0.376726
-0.141344 -0.028417 -0.303002
0.472205 -0.011923 0.403406
-0.108661 -0.013092 0.375095
0.010366 0.225402 -0.461803
-0.039901 -0.496029 0.401483
-0.090264 -0.014988 -0.397996
-0.104906 -0.024621 0.371966
-0.074843 -0.016282 -0.397339
-0.121073 -0.022454 0.390781
0.374770 -0.289024 0.276736
-0.095954 -0.015601 0.380354
-0.156677 -0.057778 0.456082
-0.361845 0.453139 0.306239
0.076378 0.048981 -0.379518
-0.262477 -0.118132 0.078785
-0.437730 0.663898 -0.134337
-0.126516 -0.004866 0.362434
0.317227 -0.684275 0.423331
-0.056547 0.041574 0.392043
-0.177567 -0.092072 0.126415
-0.064481 -0.015830 -0.392876
0.112532 -0.011509 -0.390670
-0.124275 -0.455899 0.200951
-0.346949 0.080804 0.248100
0.426155 0.047151 0.244755
0.440159 0.041180 -0.061334
-0.039536 -0.014679 0.395420
-0.353307 0.422149 0.277517
-0.030074 -0.010450 -0.399708
-0.120565 -0.024423 0.372446
-0.094571 -0.016695 0.374015
0.232333 0.022422 -0.406221
0.019099 0.034200 -0.283648
-0.075115 -0.020390 -0.392689
-0.105925 0.004130 0.359541
-0.123705 -0.030328 0.358773
-0.062674 -0.026726 -0.388916
-0.085795 -0.008234 0.361659
-0.023013 -0.000021 0.389354
-0.071984 -0.036171 -0.063775
-0.194702 0.036905 -0.368978
0.554357 0.004069 0.200321
0.316135 -0.060178 -0.031326
0.420207 -0.066915 -0.276936
-0.075425 -0.021859 -0.390132
0.281998 -0.558172 -0.289540
-0.069078 -0.025409 -0.407457
-0.270769 -0.480417 -0.144165
-0.049662 -0.037107 -0.396247
-0.438578 0.430269 0.169298
0.106064 -0.051353 -0.391315
-0.074999 -0.014616 -0.381538
-0.095949 -0.018053 0.380689
0.105133 -0.507864 -0.398370
0.342447 -0.077429 0.299671
-0.067357 -0.018677 -0.367751
-0.109058 -0.019237 -0.378104
-0.079236 -0.023851 -0.390761
-0.080064 -0.029522 -0.386704
-0.085599 -0.032292 -0.370668
-0.377895 -0.011467 0.076815
-0.111486 -0.014513 0.369466
-0.064125 -0.018987 0.373637
-0.166814 -0.017025 -0.358247
0.259807 0.039019 0.400234
-0.195317 0.494794 -0.403334
-0.099918 -0.029062 -0.368706
-0.083644 -0.023814 -0.394684
0.415679 -0.066654 0.463412
-0.109440 -0.003086 0.392186
-0.069809 -0.004334 -0.407223
-0.202549 0.003144 -0.200019
-0.102083 -0.019056 0.385205
-0.335006 0.600161 0.493325
-0.018049 0.009674 0.396472
-0.101265 -0.025327 -0.371406
-0.102208 -0.006340 0.363572
-0.156202 -0.092624 -0.304715
-0.065548 -0.088823 0.409968
-0.038547 -0.070888 0.076312
0.324553 0.052685 -0.348422
-0.108866 -0.026476 -0.370188
-0.093202 -0.017033 0.361551
-0.071248 -0.006456 0.380385
0.369677 0.045662 0.390590
-0.298781 -0.168874 -0.250807
-0.076801 -0.019978 -0.389549
0.018689 0.062214 -0.427754
-0.074356 -0.024295 -0.386054
-0.059352 -0.027082 -0.381816
-0.108792 0.379646 0.449361
-0.079104 -0.019242 -0.386690
-0.039823 -0.039796 -0.383400
-0.006212 -0.013308 -0.409248
-0.099078 -0.027487 -0.372205
-0.088302 -0.029110 -0.382374
-0.076010 0.267538 0.496517
-0.069127 -0.014123 0.379453
-0.099208 -0.021811 0.384674
-0.413234 0.246651 -0.142870
-0.337467 0.074889 0.342804
0.455376 -0.039466 -0.038235
-0.071736 0.010853 0.371846
0.059724 -0.080979 0.431452
-0.084226 -0.017664 -0.387788
-0.135092 0.037403 -0.367053
-0.034988 -0.033541 -0.389091
-0.220609 0.342126 0.386826
0.232030 -0.183579 0.175574
-0.119555 -0.011778 0.379473
-0.066269 -0.029419 -0.382642
-0.112940 -0.017735 0.389522
0.421355 0.125726 0.452847
-0.441819 0.524827 -0.005733
-0.103496 -0.031208 -0.382659
-0.317088 -0.452334 0.012284
0.359020 0.102850 -0.414292
0.075691 0.010037 0.272050
-0.070113 -0.026714 -0.383572
-0.207905 -0.107335 0.023298
0.198502 0.023530 -0.277347
-0.088225 -0.020452 -0.376864
-0.347708 0.209135 0.353486
-0.358833 0.551532 -0.375490
-0.102657 -0.061827 0.360504
-0.229094 -0.187868 -0.007735
0.328525 -0.394273 0.395141
0.376772 0.122379 -0.016409
0.337555 -0.029099 -0.470404
-0.114781 -0.023822 0.365134
-0.087857 -0.009443 0.334342
-0.088716 -0.022315 -0.385549
-0.183033 0.132003 0.359604
-0.085114 -0.009300 0.361202
-0.078581 -0.024769 -0.393957
0.052350 0.001919 -0.071836
-0.078743 -0.004804 0.367393
0.503569 0.016422 0.485450
0.182648 0.028088 0.364106
-0.094253 0.066063 -0.374088
-0.083176 -0.009936 0.368299
-0.097765 -0.020634 -0.373538
0.016102 0.003528 -0.396482
-0.174333 0.055517 0.005065
-0.080578 -0.020375 -0.374345
-0.101609 -0.011845 0.370840
-0.057951 -0.006306 -0.395407
-0.074790 -0.027561 -0.383499
-0.091251 -0.019425 0.380380
0.219627 -0.015132 -0.449839
0.438940 -0.007149 0.409771
0.247105 0.046816 0.508072
-0.100696 -0.010170 0.371068
-0.355247 0.039821 -0.282082
-0.082038 -0.015490 0.385847
-0.110157 -0.024892 -0.377399
0.172575 0.034586 -0.439997
-0.037047 -0.016129 -0.391290
0.177405 0.193694 -0.470726
0.134959 -0.205278 0.080987
-0.275025 0.354516 -0.366755
-0.028787 -0.255384 0.387150
-0.076587 -0.014077 -0.380190
-0.192333 -0.517963 -0.063489
0.399896 0.044343 -0.246576
0.176577 0.004133 -0.374116
0.125829 -0.021304 -0.094081
-0.084576 -0.003302 0.394908
0.264995 0.012702 -0.190285
-0.114036 -0.020248 0.358131
-0.091863 0.033127 0.410783
-0.413618 -0.166791 0.011032
-0.066390 -0.026565 -0.380266
0.217368 0.025021 0.369798
-0.170649 0.070602 0.346011
0.443019 -0.011623 0.340634
-0.066771 0.048519 -0.388234
-0.230106 0.042377 0.385097
-0.090683 -0.029098 -0.389271
-0.081712 -0.027142 -0.383808
-0.104361 -0.013263 0.375867
0.271527 -0.322307 -0.099405
0.316465 0.003714 0.348693
-0.073984 -0.027182 -0.378133
-0.435658 0.493716 -0.038421
-0.108951 -0.067551 0.369872
-0.296135 -0.020304 0.167046
0.305749 0.045309 -0.411839
-0.091297 -0.022195 -0.366161
-0.164913 0.050906 -0.408067
0.317532 -0.054506 0.062496
-0.319310 0.141888 -0.298252
0.128824 0.123169 -0.392985
-0.086344 -0.011520 0.362861
-0.087896 -0.030301 -0.376375
-0.306817 -0.235472 -0.369881
-0.118604 0.034992 -0.088931
-0.216973 -0.004877 -0.297479
-0.313962 0.221158 -0.453395
-0.219050 0.090374 0.338768
-0.062935 -0.026750 0.412826
-0.185524 -0.036074 -0.384626
-0.111160 -0.021257 0.366970
-0.071261 -0.026028 -0.376664
-0.347311 0.486656 -0.301452
0.439549 -0.055505 -0.219085
-0.091029 -0.016751 -0.379250
-0.267524 -0.109807 -0.232773
-0.317312 -0.019565 -0.291945
-0.255917 -0.136964 0.172642
-0.107023 -0.016795 0.373601
0.199357 0.003179 -0.407581
-0.088156 -0.021727 -0.386521
-0.111948 0.007167 -0.370684
-0.085594 -0.024373 -0.401124
0.198096 -0.184157 -0.293330
-0.079974 -0.016320 -0.383594
-0.152116 -0.152373 -0.011938
-0.088601 -0.023255 -0.382145
-0.421310 0.493000 0.158310
-0.108480 -0.017031 0.371926
-0.074118 -0.010185 -0.394185
0.171358 0.094988 0.430414
-0.267943 0.130176 -0.385053
0.201980 -0.209599 0.424566
0.187923 0.003571 0.404709
-0.393035 0.484928 0.377475
-0.087194 -0.027915 -0.382715
-0.090952 -0.018373 -0.379202
-0.113049 -0.010103 0.354257
0.213774 0.049615 0.412085
-0.077838 -0.017380 -0.377030
-0.099775 -0.011924 0.383951
-0.108229 -0.028761 -0.222779
0.384098 0.040146 -0.414686
-0.084150 -0.020827 0.385078
-0.062974 -0.013049 -0.383416
-0.100301 -0.011871 0.387932
-0.097398 -0.040670 -0.365489
-0.070054 -0.002956 0.370848
-0.423437 0.503476 -0.096554
-0.077389 -0.006090 0.362686
-0.224738 0.408967 -0.447477
0.185957 0.000927 0.249631
-0.028167 -0.006732 -0.004388
-0.091724 -0.012963 0.366230
0.406125 0.064243 0.085361
-0.321540 0.259681 -0.138175
-0.455260 0.427330 0.091589
-0.328869 -0.017239 -0.274068
-0.052679 -0.025914 0.373768
-0.082707 -0.014047 0.383334
-0.091565 -0.010680 0.379090
0.323593 -0.135500 -0.366444
-0.089107 -0.018437 0.382171
-0.100408 -0.011356 0.382025
-0.053089 -0.027502 -0.385828
-0.067137 -0.013861 -0.378071
-0.109292 -0.013035 0.392009
-0.173026 -0.014490 -0.346614
-0.302823 -0.133028 0.237849
-0.291157 -0.185365 0.238722
-0.097154 -0.022929 0.358745
-0.050911 0.038083 0.167406
0.107902 -0.087071 0.285901
0.446024 -0.101982 -0.319383
-0.131283 0.026181 -0.401841
-0.112019 -0.012652 0.378867
-0.299103 -0.648506 -0.284867
0.339806 0.069720 -0.442212
-0.000415 0.129980 0.515416
0.215906 0.027290 -0.344568
-0.093974 -0.019822 -0.369898
-0.104741 0.282345 -0.408988
-0.257838 0.469299 0.403200
0.308533 0.314633 0.516374
-0.080325 -0.021911 -0.377393
-0.414266 0.534260 -0.409541
-0.269812 -0.114534 -0.085959
-0.061765 -0.022181 -0.383561
-0.307867 -0.011800 0.097465
-0.315089 -0.086362 0.437153
-0.037671 -0.525950 -0.286566
0.370311 -0.044301 0.125289
-0.173232 0.013244 -0.017207
-0.108077 -0.009185 0.375059
-0.084197 -0.011838 0.370985
-0.087517 -0.012484 0.379574
-0.281463 0.184575 -0.124057
-0.039876 -0.021109 -0.390951
-0.045651 -0.028863 -0.391009
-0.048897 0.021717 -0.419734
0.083379 0.026738 0.164618
-0.100552 -0.019369 0.385898
-0.131234 -0.348480 -0.234218
0.155129 0.031698 -0.398941
-0.065288 -0.015524 -0.387262
0.242153 0.070942 0.301393
-0.069605 -0.018394 -0.383950
-0.365437 -0.102593 0.202753
-0.055537 -0.028978 -0.383592
-0.094992 -0.036336 -0.372369
0.164952 -0.028696 -0.395537
0.286289 -0.025784 0.267865
-0.371407 0.370792 0.103202
-0.064758 -0.011117 0.384280
-0.293512 0.111603 0.178490
0.018924 -0.031001 -0.406334
-0.046519 0.003767 -0.369291
-0.094148 -0.012454 0.381650
-0.071760 -0.029731 -0.381114
-0.171491 0.049368 -0.376606
0.480557 0.055133 0.142638
-0.103872 -0.021972 -0.364994
-0.083238 -0.016404 0.366333
-0.336292 0.151395 -0.387194
-0.078638 -0.003055 -0.364663
0.347682 0.057456 -0.315936
-0.082453 -0.021233 -0.376523
-0.019684 0.035995 0.415840
-0.057040 -0.018885 0.383864
0.360342 0.055111 -0.478098
-0.126854 -0.039195 -0.408886
-0.010105 -0.074615 0.348463
-0.336583 -0.015884 -0.208608
0.011961 -0.010179 -0.362118
-0.081764 -0.031420 -0.399327
-0.172009 0.073241 0.343042
-0.128240 -0.021798 0.358642
0.200189 -0.136289 -0.187881
-0.119208 0.356694 0.520871
-0.108381 -0.007202 0.377307
0.075405 0.008117 0.445012
-0.390482 0.399251 -0.272471
-0.064327 -0.018936 -0.397165
-0.027394 -0.550946 -0.091224
-0.118859 -0.021891 -0.383826
0.204616 0.056107 0.357482
-0.088119 -0.008914 0.381219
-0.315029 -0.629157 -0.183463
-0.106965 -0.012946 -0.372853
-0.428292 0.486845 -0.216837
-0.090233 -0.011387 0.378152
-0.091958 -0.005353 0.378888
0.097540 -0.629106 -0.211667
-0.058668 -0.016482 -0.376160
-0.014083 0.066281 -0.335774
0.038262 0.499463 -0.502913
-0.093028 -0.023567 -0.386389
-0.098408 -0.001890 0.367732
0.115275 -0.075192 0.360248
-0.086268 -0.020951 -0.390211
-0.396233 0.572299 -0.019112
0.270438 0.005460 0.372691
0.121659 -0.162237 0.009825
-0.097712 -0.015923 0.391230
0.340059 0.001710 -0.193064
-0.100109 -0.003919 0.390661
-0.059206 -0.012185 -0.408781
-0.350166 0.399295 0.341102
0.024510 0.001596 -0.389096
0.508323 0.046355 -0.143025
-0.053908 -0.001683 -0.387869
-0.179150 -0.197791 0.146661
-0.094828 -0.008496 0.372336
-0.113564 -0.075188 0.418480
0.247717 0.054870 -0.482571
-0.104296 -0.013156 0.379080
0.467727 -0.020386 0.051459
-0.066863 -0.007534 0.373557
-0.064995 -0.026396 -0.377497
-0.365548 0.472688 0.445395
-0.089838 -0.041199 -0.343977
-0.093758 -0.007359 0.376705
-0.192682 0.048846 -0.328142
-0.070378 -0.033033 -0.397375
-0.043798 -0.018028 -0.394163
0.288366 -0.723014 0.309968
-0.110136 -0.020689 -0.345155
-0.399455 0.481615 0.274918
-0.328425 0.453391 -0.319439
-0.279931 0.383235 0.394720
-0.002698 -0.635139 0.033691
-0.461608 0.453036 -0.052642
0.083812 -0.008510 0.480004
-0.098024 -0.021039 0.371761
-0.095902 -0.027886 -0.365541
-0.096513 -0.010623 0.387077
-0.015965 0.003235 0.358585
-0.079064 -0.034611 -0.389774
-0.053379 -0.024225 -0.388525
-0.207339 -0.092165 0.316290
-0.072027 -0.022796 -0.477012
-0.074292 -0.017211 -0.388786
-0.047802 -0.010708 0.373566
-0.382439 0.201126 0.261029
-0.344939 -0.090956 0.154268
-0.313062 0.107791 -0.235958
-0.020760 -0.028203 -0.378660
-0.067906 -0.010810 -0.375589
-0.084977 -0.024014 -0.371642
0.034979 0.000436 0.428142
0.028836 0.203371 0.455449
-0.212197 -0.009924 0.286715
-0.100490 -0.019865 -0.363717
0.180473 0.087984 -0.421007
-0.200917 0.450336 0.524479
0.218120 0.010459 0.382512
-0.037812 -0.020429 -0.388815
-0.093906 -0.033037 -0.363892
-0.265551 0.051515 0.384756
0.038110 -0.006164 -0.416425
-0.055872 -0.030540 -0.378256
0.054976 -0.091121 -0.373806
-0.313601 0.238757 0.071081
0.196285 0.010817 -0.097457
-0.073495 -0.023005 0.391466
0.214618 -0.058837 0.414289
0.080656 0.058105 -0.443079
0.139218 0.070003 0.366222
-0.074270 -0.027238 -0.378517
-0.412052 -0.577901 0.058725
-0.058444 -0.033371 -0.387486
-0.054793 -0.008834 -0.384126
-0.323979 -0.024747 -0.092587
0.122988 -0.390901 -0.275788
-0.018729 -0.072437 0.353505
-0.183466 0.165238 0.454327
-0.043580 -0.027029 -0.396284
-0.084451 -0.027696 -0.369351
-0.077115 -0.024996 -0.377476
-0.115919 -0.010019 0.350537
-0.139986 0.036038 0.367313
-0.138857 -0.025603 0.349803
-0.370222 0.456479 -0.217522
-0.333947 -0.031386 -0.187183
0.538406 0.024550 0.340896
0.381625 -0.043702 -0.464138
-0.238638 -0.042651 0.306386
-0.081116 -0.024232 -0.399872
-0.042574 -0.020524 -0.405484
-0.085336 -0.023998 -0.381783
-0.095644 -0.023543 -0.374548
-0.077228 -0.021073 0.331910
-0.065809 -0.017240 -0.382726
-0.075915 -0.032139 -0.391121
-0.430028 0.324673 -0.097089
-0.159433 0.082481 0.396407
0.362048 0.012046 -0.293826
-0.454219 0.201621 0.041440
0.151441 0.013635 -0.201443
-0.071372 -0.004935 0.311444
-0.193379 -0.046952 0.446929
-0.105572 -0.022279 0.381452
0.125593 -0.544014 0.355834
-0.090114 -0.018063 -0.369071
-0.054422 -0.004609 -0.225350
-0.048340 -0.013755 -0.373755
-0.347288 0.506580 -0.344130
-0.452595 0.321931 0.053987
-0.069751 -0.034743 -0.398453
-0.122272 -0.017106 0.360617
-0.265146 0.496641 -0.349741
-0.168748 0.013300 -0.250592
0.388611 -0.084798 -0.444126
-0.096963 -0.075298 -0.205649
-0.068120 -0.022922 -0.388198
-0.167879 -0.003907 -0.415840
-0.220507 -0.088065 0.263252
-0.095304 -0.016617 0.377861
0.087377 -0.128817 0.430092
-0.107229 -0.012066 0.375399
-0.082075 -0.022582 -0.362908
0.264112 0.016968 -0.084872
-0.445221 0.551248 -0.175611
-0.383178 0.529839 0.231599
-0.431708 0.683408 0.203382
-0.063121 -0.032029 -0.373778
0.380141 0.016734 -0.207293
-0.041078 -0.288369 -0.388145
-0.383113 0.603512 0.278982
-0.045136 -0.002232 -0.387396
-0.239345 0.010671 0.319757
-0.081700 -0.017420 -0.383986
-0.443169 0.595631 0.274844
-0.095016 -0.019776 0.368983
0.408841 -0.398341 0.000418
-0.392361 0.325333 0.140460
-0.084499 0.442934 -0.418381
-0.000136 0.137849 -0.533364
0.455984 -0.148528 0.329185
-0.110223 -0.029967 -0.369441
-0.123921 -0.022508 0.377002
-0.091818 -0.540542 -0.362216
-0.213199 -0.078481 -0.328981
-0.060725 -0.026166 -0.387566
0.073428 -0.010497 0.399088
-0.376425 0.005403 0.131601
0.024741 0.028082 -0.396539
-0.114093 -0.046919 -0.100582
-0.139075 0.047343 0.293406
0.346154 0.146199 0.447704
-0.101328 -0.020104 0.374308
0.055583 -0.010745 0.140743
0.384622 -0.203683 -0.448051
0.350133 0.262281 -0.466786
-0.418503 0.457305 0.113843
-0.096559 -0.012934 0.361184
-0.094150 -0.021890 -0.243213
-0.056319 -0.144852 0.174307
-0.042414 -0.009596 -0.396234
-0.091262 -0.024984 -0.369595
-0.379445 0.028603 -0.169449
-0.108500 -0.025097 -0.373090
-0.218421 0.383580 0.419146
-0.156956 -0.048550 -0.328324
0.396399 -0.043958 -0.373982
-0.274630 0.477759 0.351050
-0.032134 -0.075176 -0.373932
-0.012957 0.346428 -0.387564
-0.185556 -0.537163 0.370680
-0.113196 -0.015172 0.379709
