0.276713 -0.057816 -0.437478
-0.089321 -0.077213 -0.464048
0.187906 -0.256508 0.317931
-0.102019 -0.041018 0.478020
-0.103803 -0.069289 -0.461930
-0.057125 -0.020835 0.467690
-0.099806 -0.059030 -0.463455
-0.086280 -0.075543 -0.460047
-0.070991 -0.795920 0.087117
-0.106414 0.000427 0.471598
0.407590 -0.133499 -0.126779
-0.116876 -0.106114 -0.460257
-0.089198 -0.071728 0.448725
0.009352 -0.107521 0.427099
-0.061364 -0.024275 0.474334
-0.101457 -0.079886 -0.467451
0.137759 -0.637220 -0.352934
-0.157526 -0.067421 -0.442680
-0.091289 -0.134211 -0.449261
-0.054073 -0.095016 -0.443362
-0.319215 0.047145 -0.310808
-0.111965 -0.025267 0.452122
-0.275257 0.504746 0.019770
-0.114430 -0.090193 -0.456850
-0.250337 0.907088 -0.130375
-0.132994 -0.039831 0.452181
-0.082755 -0.061350 -0.475553
-0.096393 0.057654 0.209659
-0.182726 -0.090056 -0.453189
-0.065001 -0.071148 0.427053
-0.053591 -0.054725 0.461157
-0.263477 0.552702 0.367169
-0.042488 -0.067279 0.468322
-0.112220 -0.074634 0.452578
-0.093834 -0.009153 0.458904
-0.224751 0.731290 -0.068172
-0.119005 -0.049748 -0.467028
-0.092730 -0.064366 -0.457060
-0.104849 0.513353 0.381845
0.552056 0.016574 -0.047162
-0.104889 -0.008757 0.467591
-0.139084 -0.089598 -0.458415
-0.077252 -0.235158 0.110197
0.010322 -0.025310 -0.480101
-0.112744 -0.081793 -0.464637
-0.033355 0.028008 0.163488
-0.073732 -0.025314 -0.492683
-0.261999 0.404628 -0.364286
-0.093727 -0.018016 0.457121
0.009584 -0.033954 0.460289
-0.098612 -0.069336 0.448298
-0.139964 -0.047707 -0.468432
-0.087589 -0.089741 -0.461215
0.213421 -0.227539 0.401599
-0.322473 0.354840 0.120219
0.301826 -0.202573 0.084761
-0.126565 -0.076547 -0.466519
-0.272089 0.235124 -0.004264
0.114114 -0.054354 -0.219746
-0.094880 -0.035190 0.457538
0.228043 -0.186702 -0.117185
-0.005782 -0.102559 0.440458
-0.102136 -0.034425 0.481017
0.016168 0.008423 0.500552
-0.008750 -0.674545 0.179077
0.298984 -0.108121 0.228310
-0.092352 -0.031300 0.459992
0.244426 -0.699468 0.226579
-0.083015 -0.055538 -0.466711
-0.106623 0.407798 0.326957
-0.075737 -0.035171 0.462821
-0.149803 -0.022569 0.448059
0.394391 -0.087552 0.239998
-0.141918 -0.018985 0.443149
-0.115457 -0.100964 -0.462088
0.055627 -0.126771 -0.294846
-0.118957 -0.117307 -0.435728
0.381132 -0.046973 0.254080
-0.110893 -0.033630 0.461127
-0.102465 -0.026015 0.442016
-0.084090 -0.049006 -0.490690
-0.159648 0.217194 0.024344
0.058500 -0.189872 -0.378867
-0.333370 0.673143 -0.165177
-0.367562 0.131873 -0.031877
-0.118561 -0.023313 0.448733
-0.139597 -0.011641 0.450873
0.533826 -0.126947 0.095233
0.009425 -0.723676 -0.364796
0.250039 0.074757 -0.030666
0.238855 -0.025397 -0.485583
-0.159286 -0.079144 -0.450302
-0.057966 -0.048259 0.459256
-0.060594 -0.077804 0.459020
-0.118312 -0.075570 -0.452834
-0.205238 0.129861 -0.013773
-0.124154 -0.025730 0.459554
0.113174 0.393931 -0.458674
-0.141681 0.371329 0.490345
-0.117398 -0.051862 -0.450947
-0.089023 -0.060833 -0.470317
0.223596 -0.163349 0.422817
-0.157334 -0.105798 -0.458628
0.074626 -0.078964 0.440804
-0.058341 0.016823 -0.442903
0.452910 -0.018356 -0.112468
-0.119235 0.738868 -0.322068
-0.243784 0.436076 -0.397569
-0.059233 -0.031917 0.466300
-0.127095 0.662498 0.044830
-0.077251 -0.089413 -0.447885
-0.029219 -0.070033 -0.461705
-0.086560 -0.070601 -0.472807
0.287389 -0.091540 -0.429922
-0.091552 -0.033238 0.453015
0.056292 -0.108494 -0.390055
0.467732 0.048398 -0.130447
-0.098908 -0.079046 -0.463612
-0.298975 0.740654 0.165480
-0.079230 -0.008949 0.466079
-0.196239 0.052820 0.448482
-0.216931 -0.002337 -0.430647
0.047092 -0.153983 0.440139
-0.069643 -0.017778 0.464902
0.014192 -0.079050 -0.453466
-0.126071 0.870776 -0.389737
-0.124056 -0.018459 0.445839
-0.074304 -0.094167 -0.451234
-0.322887 -0.117643 -0.176390
-0.097084 -0.056662 0.445271
-0.107557 -0.060024 -0.469413
-0.094789 -0.122845 0.424514
-0.099645 -0.029934 0.472008
-0.107646 -0.033515 -0.467488
-0.314456 -0.003134 0.300687
0.398242 -0.151498 0.019983
0.131084 0.130181 -0.419837
0.369947 -0.667408 0.111314
-0.121576 -0.078638 -0.474511
-0.108807 -0.137960 -0.428445
-0.044308 -0.081212 0.454448
-0.297855 0.007157 -0.038517
-0.157862 -0.023097 0.446464
-0.098712 -0.074243 -0.465153
0.349361 -0.107177 -0.285941
-0.166210 0.250900 -0.466076
-0.069557 0.738283 0.402499
0.112579 -0.672677 -0.470425
-0.279165 0.002373 0.212502
-0.321657 0.186624 -0.300068
-0.077283 -0.080145 0.461961
-0.115364 -0.028854 0.461208
-0.097968 -0.078698 -0.462424
-0.076459 -0.066429 0.430363
-0.100951 -0.033442 0.467915
-0.318413 0.560712 -0.076658
-0.117162 -0.124262 0.423534
-0.144106 -0.017144 -0.465280
-0.118419 -0.104332 -0.459889
0.341835 0.077003 -0.202274
-0.226977 0.402944 0.428187
-0.157311 -0.099030 -0.446290
-0.119028 -0.100112 -0.437972
-0.182330 -0.055011 0.269028
-0.147295 -0.049705 0.464418
0.456313 0.049727 -0.288214
-0.122196 -0.034039 0.457668
-0.166629 -0.120563 -0.422102
0.241561 -0.092023 0.380743
-0.132267 0.349430 -0.465024
0.389265 -0.505388 0.209654
-0.103807 0.269565 0.430840
-0.092711 -0.059603 -0.473276
-0.138521 -0.095384 -0.439129
-0.030819 -0.087657 -0.450403
-0.149159 0.089704 0.259109
-0.166484 0.134574 -0.314800
0.492162 -0.000008 0.210709
-0.155669 -0.083523 -0.460178
-0.242037 -0.013606 0.101787
-0.114829 -0.036027 -0.456086
-0.187936 0.823131 0.249837
-0.278435 0.333651 -0.345708
-0.022030 -0.043002 -0.467648
0.375725 0.030173 0.351990
-0.055280 -0.083961 0.479744
0.048036 0.001969 0.519795
0.276906 0.076568 -0.267375
-0.277305 -0.045714 -0.158694
-0.110251 -0.039942 0.444835
0.145075 0.022784 -0.051916
-0.268956 0.464232 -0.216817
-0.156938 -0.008426 0.465680
-0.272937 -0.017452 0.446653
-0.196879 -0.005152 0.018661
-0.071384 -0.039488 -0.466899
0.280825 -0.088760 0.316840
0.193026 -0.179238 -0.407714
-0.093388 -0.124282 -0.441840
-0.115352 -0.036059 0.452632
-0.226127 0.235484 0.449202
-0.105970 -0.057855 -0.464032
-0.090483 -0.083434 -0.468109
-0.121540 -0.012994 0.452463
0.168152 0.048744 0.192257
-0.284976 0.495556 0.274391
-0.107601 -0.061385 0.452316
-0.126669 -0.076384 -0.464322
-0.120659 -0.106002 -0.456181
-0.155728 -0.081576 -0.460998
-0.123790 -0.184919 0.292885
-0.056278 -0.138472 0.458702
-0.089740 -0.066195 -0.470246
-0.012489 -0.096908 0.447132
-0.084401 -0.064273 -0.459237
-0.149500 -0.068074 -0.458686
-0.130411 -0.084533 -0.458261
-0.217457 -0.565416 -0.215643
-0.270871 -0.138245 0.323971
-0.120751 -0.114588 -0.438839
-0.097805 -0.020505 0.450946
0.415710 0.109328 -0.374579
-0.088944 -0.086684 -0.472617
0.298794 0.023500 0.441064
-0.341911 0.727752 -0.293170
-0.144095 -0.066822 -0.457385
-0.065004 -0.216478 -0.451671
-0.076828 -0.047350 -0.468864
0.340791 0.011747 0.146237
0.167302 0.088881 -0.526549
-0.227902 -0.234833 -0.187600
-0.091851 -0.036321 0.475028
-0.154699 -0.012721 0.456531
0.433749 -0.090702 -0.301378
-0.149604 -0.082261 -0.448812
-0.009380 -0.091232 -0.018922
-0.109948 -0.142570 -0.441471
-0.144989 -0.023446 -0.450551
0.046226 -0.158559 -0.449481
-0.278944 0.936773 0.086041
-0.080857 -0.104745 -0.451684
-0.349239 0.120263 0.203906
-0.328915 0.797037 -0.282376
0.499350 -0.289914 0.054002
-0.152431 -0.123082 0.466492
-0.079668 0.082409 -0.072436
-0.138859 -0.056193 -0.457402
-0.109708 -0.023802 0.461219
-0.114301 0.369491 0.489763
0.319843 -0.339289 -0.076743
-0.114015 -0.070769 -0.466415
-0.128711 -0.068418 0.445920
-0.101446 -0.068435 -0.468822
-0.132188 -0.112748 0.447121
-0.120620 -0.101615 0.458771
-0.053811 0.006591 0.466592
-0.086368 -0.022406 0.457854
-0.162393 -0.004574 0.455013
0.298676 -0.102420 0.361208
-0.170476 -0.198835 0.245978
-0.097152 -0.086505 -0.453447
-0.134687 -0.077806 -0.456394
-0.075219 -0.164014 0.396783
-0.125692 -0.706269 -0.313831
-0.060396 -0.091186 -0.463107
-0.095141 -0.021776 0.459458
-0.170653 -0.066582 -0.450673
0.398688 0.222966 -0.276913
-0.098953 -0.080301 -0.463806
-0.122658 -0.033404 0.451541
-0.011057 -0.139734 -0.443345
-0.070193 -0.078082 -0.447316
0.432246 -0.051111 -0.411176
-0.089317 -0.069934 -0.464663
-0.067927 -0.022874 0.485367
-0.045370 -0.072686 0.478128
-0.123290 -0.074850 -0.459711
-0.064226 -0.035408 0.479355
-0.120499 -0.050686 -0.465126
-0.078981 -0.053486 0.455205
-0.128009 -0.121691 -0.434781
-0.117856 -0.098279 -0.452741
0.479400 -0.061621 -0.330993
-0.221254 0.048300 0.460572
-0.115595 -0.024124 0.454505
0.008075 -0.012713 -0.478566
0.343106 0.188915 0.478053
-0.274228 -0.010388 0.443090
0.106832 -0.032163 -0.496116
-0.033038 0.024597 -0.467678
0.105923 -0.165107 0.123708
-0.265549 0.715713 -0.438806
-0.176600 -0.113020 0.477433
0.292103 -0.316621 -0.163133
-0.084166 -0.085596 -0.471933
-0.045208 -0.040007 0.477563
-0.113833 -0.095180 -0.467887
0.535385 0.000646 0.029716
-0.042031 0.008322 -0.504283
-0.113151 0.066748 -0.456662
0.261481 -0.798578 0.066996
-0.078934 -0.076913 0.444109
0.249758 0.258063 -0.560199
-0.012706 -0.043232 0.488289
-0.163269 0.789052 0.356429
-0.140616 -0.109069 -0.432409
-0.072280 -0.056102 0.463086
-0.302091 0.897411 -0.242026
-0.110592 -0.072615 -0.466113
-0.106442 -0.086649 -0.456084
-0.033988 -0.075259 0.424455
-0.121144 -0.085736 -0.437636
0.104624 -0.085132 0.455782
-0.038909 -0.469999 -0.374012
-0.132380 -0.079737 -0.455227
0.069974 -0.066117 0.470241
-0.089491 -0.029055 0.470062
0.137915 -0.033430 -0.414544
-0.149538 -0.084577 -0.441637
-0.126215 -0.081969 -0.454033
-0.100115 -0.041281 0.459355
0.264787 0.164027 -0.479342
-0.142890 -0.087861 0.473840
0.251091 -0.349998 -0.323977
-0.153947 -0.069604 0.389366
-0.303285 0.577728 -0.222882
-0.102486 -0.074824 -0.460552
-0.214717 0.357580 -0.495743
0.003979 -0.000127 0.297358
-0.140703 -0.080983 -0.440271
-0.077981 -0.707078 -0.497790
-0.298585 -0.130857 0.240265
-0.053208 0.018520 0.478166
-0.179119 -0.093459 -0.420885
-0.108276 -0.099058 -0.446365
-0.101054 -0.095868 -0.463847
0.345529 0.002938 0.499088
-0.096220 0.241479 -0.503408
-0.103657 -0.087210 -0.456663
-0.115468 -0.122063 -0.430289
0.421218 -0.172497 -0.161640
0.384363 0.065465 0.490206
-0.096428 -0.095583 -0.467079
-0.130072 -0.100566 -0.476823
-0.063741 -0.001125 0.471093
-0.106793 -0.017084 0.455444
-0.262485 0.304437 0.437882
-0.111394 -0.090484 -0.466522
-0.058073 -0.082510 -0.465688
-0.138916 -0.095182 -0.447776
-0.119732 0.006410 0.451420
-0.189717 -0.017612 -0.462558
0.136409 -0.663725 -0.118274
-0.130664 -0.071751 -0.469453
0.173025 0.308521 0.574372
-0.116534 -0.037147 0.455158
-0.103742 -0.009632 0.469692
0.174407 -0.172816 0.438679
-0.087157 -0.081384 0.455754
-0.064484 -0.084227 -0.467461
-0.341918 0.553492 -0.157179
-0.129743 0.003681 0.461413
-0.077782 -0.082736 0.466560
-0.082489 -0.011530 0.478018
-0.090393 -0.073078 -0.456809
-0.094020 -0.026084 0.475236
-0.129995 -0.061523 -0.456709
0.241051 -0.666642 0.120992
-0.152293 -0.027813 0.448116
0.069809 -0.176656 -0.432223
-0.095740 -0.018259 0.452198
0.023670 -0.246621 -0.383890
0.393591 -0.127421 0.339270
-0.170880 -0.520125 0.200639
-0.105184 -0.074119 -0.456484
-0.155132 -0.617334 0.047149
0.341664 0.096071 -0.432821
-0.038323 -0.085748 -0.433254
-0.095542 -0.054101 -0.476141
-0.039342 -0.081259 -0.457412
-0.311869 0.169759 -0.450566
-0.133108 0.584824 -0.271672
-0.359608 0.654765 -0.032655
-0.307374 0.142544 0.339201
0.459793 -0.075104 0.110890
0.165167 0.195034 -0.260201
-0.062995 -0.083175 -0.462585
0.004357 -0.598856 0.285067
0.236401 -0.256019 -0.279183
-0.107450 0.490489 -0.290033
-0.119981 -0.100225 -0.442119
-0.096467 -0.165822 -0.324572
-0.349650 -0.053727 0.034452
-0.341786 0.082282 0.357456
-0.256095 -0.060362 -0.439264
0.319899 -0.262553 0.290844
-0.111252 -0.049891 0.458578
-0.078481 -0.023028 0.455369
0.147912 0.157921 0.276780
0.432791 -0.080772 -0.378531
-0.114996 -0.091506 -0.456211
-0.028077 0.104921 0.069326
0.060580 0.230021 0.468595
-0.297485 0.893076 0.208790
-0.079881 -0.036082 -0.468345
-0.202008 -0.282103 0.414200
0.449995 -0.725705 0.295349
-0.113708 -0.096025 -0.445428
-0.214452 -0.124384 -0.436305
-0.104819 -0.091697 -0.457117
-0.147424 -0.018791 0.465450
-0.121276 0.353452 -0.362607
-0.229861 0.008087 0.447320
-0.059266 -0.030189 0.471348
-0.081412 -0.112843 0.462474
-0.083790 -0.077171 -0.462430
-0.059380 -0.120059 0.467850
-0.054760 -0.068609 0.437353
-0.116866 -0.071569 -0.473475
-0.061745 -0.012994 0.462574
-0.298788 0.497984 0.344310
-0.125910 -0.066195 -0.448799
-0.151600 -0.063783 -0.454781
-0.052085 -0.064019 -0.480708
-0.116405 -0.122380 -0.440956
0.296696 0.080815 0.106103
0.029838 0.294319 0.434932
-0.064138 -0.088826 -0.468950
0.244027 0.172506 0.435443
-0.083403 -0.089674 -0.465843
-0.304248 0.631003 -0.143552
-0.144161 -0.067541 0.466916
-0.363896 0.838843 -0.050284
-0.207901 0.934143 0.027942
0.011774 -0.585925 -0.067890
-0.089252 -0.040783 0.447428
-0.287877 0.564804 0.139162
-0.104421 -0.061008 -0.466756
-0.086834 -0.133250 -0.455349
-0.132304 -0.095717 0.445566
-0.059864 -0.070424 -0.474626
-0.122947 0.908914 -0.174846
-0.053673 -0.051913 -0.481440
-0.152494 0.799814 0.026578
-0.144823 -0.066728 -0.450550
-0.073570 -0.082984 0.460436
-0.259037 -0.073422 0.401368
0.414832 0.055111 -0.292554
-0.081972 -0.104038 -0.461233
-0.078320 -0.004732 0.467299
-0.093440 -0.087258 -0.455957
-0.048791 -0.031853 0.483245
-0.123794 0.800451 -0.368315
0.061301 0.077391 -0.400797
0.284653 0.027123 -0.490910
0.222332 -0.780828 -0.025467
0.363289 -0.134750 -0.377609
-0.096772 0.444319 -0.371285
-0.126469 -0.023811 0.473293
-0.020450 -0.096570 -0.434744
-0.016642 -0.128140 0.441807
-0.139571 -0.075632 -0.463182
-0.135989 -0.096157 -0.436616
-0.327561 0.236296 0.132947
0.146385 -0.183272 0.377694
-0.129648 0.012516 -0.102212
-0.106249 -0.068910 -0.466416
0.133153 -0.516967 -0.090805
-0.110193 -0.051678 -0.450049
0.047765 -0.744815 -0.132222
-0.096776 -0.020691 0.462765
-0.134413 -0.096940 -0.426213
-0.135228 0.487153 -0.174262
-0.139735 -0.051907 -0.451993
0.082642 -0.575880 0.340962
0.047000 -0.074099 0.464179
-0.124011 -0.042739 -0.460320
-0.079127 -0.065823 -0.464002
-0.091332 -0.131036 -0.320911
-0.249582 0.516983 -0.439762
-0.081103 -0.078785 0.465675
-0.025622 -0.309256 -0.142305
-0.086099 -0.040744 0.473171
-0.294597 0.043103 0.424632
-0.144870 -0.056392 -0.454001
-0.167292 0.398953 -0.496501
-0.209119 0.899510 -0.265571
0.234782 0.016206 0.489314
0.501504 0.001835 -0.412318
-0.024218 -0.020270 0.471503
-0.187714 0.049842 0.449540
-0.096018 -0.001584 0.459153
-0.296764 -0.746411 0.014314
-0.140867 -0.054281 -0.467346
0.083904 -0.697992 0.064495
-0.085737 -0.021025 -0.479147
-0.048860 -0.062277 -0.498044
-0.075614 0.031489 0.397589
-0.123450 -0.005257 0.451090
-0.329107 0.756634 0.048848
-0.141249 -0.050073 0.452704
0.262634 -0.186877 -0.224026
-0.176576 0.074223 -0.392488
-0.140656 -0.059593 0.446908
-0.122759 0.000315 0.457444
-0.088892 -0.064250 -0.468365
-0.062762 -0.005858 0.487341
0.010655 -0.052820 0.462043
-0.070426 -0.068027 -0.462994
-0.096512 -0.081414 0.453154
0.265128 0.124891 0.409477
-0.183288 -0.001191 -0.485955
0.398218 -0.078302 0.253779
-0.147123 -0.056331 -0.459169
-0.275790 -0.188560 -0.439564
-0.131269 -0.011124 0.455573
0.034854 -0.398312 0.073647
-0.155390 -0.052467 -0.453750
-0.112367 -0.008995 0.453432
-0.075845 -0.002897 0.479617
-0.138136 -0.044537 0.447104
-0.180110 -0.379191 -0.181519
-0.133840 -0.095762 -0.468149
0.073626 -0.061358 -0.494023
-0.116505 -0.090628 -0.452710
-0.309762 -0.049807 -0.099477
-0.122835 -0.074983 0.447103
-0.121290 -0.018127 0.461649
-0.228609 0.174697 -0.456783
0.067828 0.066805 0.227600
0.343772 -0.120637 -0.454768
-0.132694 -0.009928 0.467667
-0.347223 0.761961 0.226170
0.274156 -0.663002 -0.193834
0.098694 -0.057059 -0.433174
-0.030564 -0.306785 0.395850
-0.104294 -0.102539 -0.463701
0.077269 -0.188784 -0.257649
0.100954 0.095217 0.012695
-0.084352 -0.131086 -0.463650
0.300210 -0.130172 -0.398356
0.371518 -0.250862 -0.366742
0.097391 0.262446 -0.538670
0.005874 -0.076320 -0.468948
-0.043959 -0.072055 0.465553
-0.115354 -0.081716 -0.442793
-0.058780 -0.051187 -0.475327
-0.079035 -0.006933 -0.484050
-0.067186 -0.019627 0.469134
-0.176920 0.044765 -0.457908
-0.126645 -0.026576 0.448129
-0.062452 -0.068873 -0.466093
-0.078545 -0.040511 0.449786
-0.073647 -0.027529 0.472266
-0.118410 -0.035251 0.464026
-0.081981 -0.015716 -0.495882
-0.206073 0.593507 0.393315
-0.050020 -0.121378 -0.453576
-0.115350 -0.080237 -0.464915
0.241404 -0.083589 -0.186541
0.413755 -0.243788 -0.288559
-0.158353 -0.092353 -0.461708
-0.269154 0.906322 -0.214424
0.108877 -0.212905 -0.419126
-0.117859 -0.082322 -0.453484
-0.112927 0.539019 0.466931
-0.099776 -0.087720 -0.462378
-0.156461 -0.076554 -0.440610
-0.098860 -0.072974 -0.453117
-0.109276 -0.001406 0.450969
-0.169432 0.230695 0.214059
-0.000810 -0.711045 0.466800
-0.332967 0.194630 0.159680
-0.114343 -0.074385 -0.455406
0.043969 0.032453 0.077829
-0.040828 0.187364 0.408087
-0.118225 -0.034145 0.456744
-0.106403 -0.079677 -0.465353
-0.277303 -0.112064 -0.100173
-0.067736 -0.043401 0.464998
-0.075523 -0.080944 -0.450217
-0.116296 -0.236282 -0.205098
-0.021421 -0.077219 0.452710
0.466049 -0.134153 0.205320
-0.086978 -0.054777 -0.469311
-0.067336 -0.192075 -0.451413
-0.074993 -0.054819 0.453738
-0.039801 -0.126747 0.430798
-0.137094 0.628316 -0.073799
-0.081564 -0.045124 -0.471739
-0.112759 0.305127 -0.378031
0.320870 -0.084161 0.453639
-0.323084 -0.034823 -0.021363
0.192815 0.207150 -0.456209
-0.042795 -0.099193 0.448593
-0.070806 -0.046562 0.457540
-0.143610 -0.068525 -0.441423
-0.150575 -0.055501 -0.467341
-0.134370 -0.097797 -0.468143
-0.126199 -0.087171 -0.450985
-0.192379 0.034148 -0.231457
0.083475 -0.025404 -0.389550
-0.311836 0.820543 -0.190654
-0.225815 -0.237013 0.113295
-0.135157 -0.040865 -0.467129
-0.011740 -0.098304 0.445436
-0.059382 -0.070229 0.473930
-0.131502 -0.069735 -0.449420
-0.072104 -0.135309 -0.443365
-0.301759 -0.057719 -0.284405
-0.096629 -0.047214 -0.479916
-0.323489 -0.002710 -0.395417
-0.151437 -0.067824 -0.461080
-0.183295 -0.176605 0.432983
-0.119534 -0.073271 -0.462384
-0.115454 -0.034042 0.458841
0.390292 -0.228826 -0.290338
-0.026300 -0.054561 0.457832
0.251684 0.077505 -0.104203
-0.308546 0.463162 -0.074049
-0.028381 0.013435 -0.443017
-0.116816 -0.022463 0.458120
-0.105870 -0.021330 0.455232
-0.101194 -0.014712 0.442536
0.028050 0.049704 0.201232
0.254992 -0.583799 0.077251
-0.088773 -0.043846 0.465190
-0.112030 -0.104736 -0.465610
-0.080437 0.000908 0.471035
-0.273359 -0.209542 0.040125
0.091687 0.010339 0.485040
-0.098939 -0.074063 0.454888
-0.330949 0.045690 -0.145213
0.402030 0.051623 -0.468646
-0.111337 -0.051975 0.458759
-0.137632 -0.084378 -0.449926
0.237153 0.052586 0.499070
0.016691 -0.040000 -0.437369
-0.125171 -0.009653 0.459961
0.408449 -0.249393 0.322790
-0.119452 -0.061747 -0.455033
0.330136 0.043137 0.485595
-0.094513 -0.051057 -0.474919
-0.286604 -0.119090 -0.461734
-0.051435 -0.600652 -0.009740
-0.165170 -0.004161 0.449813
0.074616 0.310770 0.536680
-0.091594 -0.050753 -0.470401
-0.099392 -0.062621 -0.471556
-0.049542 -0.242057 0.242721
-0.074536 0.102048 0.112159
-0.171339 -0.267574 -0.275814
-0.083461 -0.000980 0.468249
-0.103057 -0.055838 -0.452891
-0.239521 0.068864 0.437146
-0.096008 -0.084024 -0.479168
-0.117641 -0.083409 -0.449111
-0.104610 0.497070 0.349940
-0.084070 -0.093929 -0.444626
-0.157520 -0.129312 0.446110
-0.205580 -0.017408 0.439148
-0.088905 -0.065908 0.454658
-0.329946 -0.010664 0.356813
-0.083980 -0.040141 0.457667
0.107184 -0.226356 0.202444
-0.128721 -0.067804 -0.474697
-0.110427 -0.023762 0.465281
-0.086098 -0.015955 0.469003
-0.338540 -0.008904 0.128447
-0.130687 -0.023834 0.497906
-0.108474 -0.080585 -0.451250
-0.187223 0.496308 -0.425868
-0.067415 -0.090580 0.446204
-0.132862 -0.120169 -0.445676
-0.066757 -0.070832 -0.465898
0.495104 -0.107230 0.288251
-0.101662 -0.032975 0.461803
-0.256251 0.058500 0.435165
-0.109571 -0.098958 0.450080
-0.101640 -0.090496 -0.458089
-0.084900 -0.099752 -0.443086
-0.244186 0.238081 -0.440396
-0.075342 -0.078002 -0.457109
-0.119528 -0.076287 -0.464853
-0.093207 -0.082060 -0.473654
0.457039 -0.112936 -0.103661
-0.164268 -0.260709 0.250792
-0.119605 -0.000377 0.469583
-0.074010 -0.086178 0.445097
-0.079825 -0.054156 -0.462481
-0.112998 -0.102620 -0.456822
-0.150064 -0.070383 -0.455490
-0.072680 -0.045629 -0.459595
-0.084223 -0.012820 0.464977
-0.196153 -0.007943 0.457313
-0.352751 -0.114294 -0.021270
-0.143107 -0.075098 -0.455251
-0.065957 -0.196690 0.253355
-0.102959 -0.034343 0.454324
-0.143241 -0.076519 -0.439041
-0.100745 -0.082517 -0.467381
-0.155085 -0.056900 -0.457701
-0.151869 -0.001309 0.442698
0.215264 -0.200945 -0.471908
-0.309921 0.824737 0.193567
-0.327586 0.230619 0.245641
-0.098945 -0.068111 -0.472817
-0.303768 0.295810 0.032248
-0.123132 -0.076212 -0.439588
0.193194 -0.100660 -0.300863
-0.021145 -0.148937 -0.438581
-0.086133 -0.076527 -0.466560
-0.064272 -0.131514 -0.432260
0.257668 -0.449706 0.088250
-0.128522 -0.113814 0.444330
0.311662 -0.177872 -0.097225
-0.116166 -0.050673 0.474963
-0.286536 -0.069165 -0.178101
0.511542 -0.009697 0.263563
-0.125797 -0.148399 0.408487
-0.132129 -0.013979 0.449177
-0.141348 -0.582445 -0.054836
-0.097531 0.290399 -0.560257
0.161616 -0.092870 -0.042798
-0.306590 0.649515 -0.364479
-0.139814 -0.133549 -0.402260
0.051098 0.014193 0.070865
-0.115657 -0.109182 -0.474003
-0.136264 -0.051161 -0.463508
-0.326958 -0.036454 0.361585
-0.105858 -0.068351 -0.464607
-0.190342 -0.054670 -0.479848
-0.132745 0.338942 0.378563
-0.095734 -0.107576 0.447197
-0.292071 0.110460 0.367786
-0.120116 -0.085639 -0.462996
0.435432 -0.009855 0.311129
0.025657 -0.143681 0.413419
-0.094621 -0.040154 -0.465181
-0.116496 -0.071107 -0.451271
0.421955 -0.166575 0.127945
-0.163703 -0.679014 0.210866
-0.289147 0.451816 -0.293132
-0.179827 -0.126528 0.419086
-0.084126 0.103694 -0.510825
-0.309965 -0.127714 -0.325818
0.175018 -0.251760 0.064641
0.012315 -0.105251 -0.437325
-0.305562 0.184020 -0.060338
-0.084582 0.070853 -0.423318
-0.183296 -0.656788 0.380697
-0.077421 -0.042059 0.463018
-0.161269 0.104506 0.500324
-0.079959 -0.062410 -0.472837
0.001119 -0.091849 0.462979
-0.188189 -0.022058 0.450304
0.031278 -0.056454 -0.478295
-0.145498 -0.081233 -0.439155
0.149311 0.078106 -0.271444
-0.174513 -0.049534 -0.465478
-0.071746 -0.065696 0.457836
-0.072724 -0.015135 0.464182
-0.088335 -0.084659 -0.467639
-0.106882 -0.038900 0.474427
-0.112103 -0.081984 -0.463622
-0.194614 -0.002145 0.449954
-0.076090 -0.024025 0.457732
-0.264554 0.219928 -0.363425
0.176883 0.385910 -0.454020
0.072357 0.021592 -0.381866
-0.303541 -0.186963 -0.123567
0.202176 0.060175 0.434358
0.015696 -0.109160 0.112830
-0.107488 -0.100762 -0.459765
-0.228076 0.007708 0.457191
0.161278 0.352418 0.432098
-0.147442 -0.058089 0.455325
-0.259765 0.775660 -0.146278
-0.078396 -0.066987 -0.441398
-0.130473 -0.018988 0.472727
-0.131058 -0.009012 0.444255
0.059058 -0.288247 -0.136959
-0.079464 -0.025069 0.473278
-0.292219 0.821803 -0.031233
0.238601 -0.104585 0.457339
-0.101977 -0.026259 0.460409
-0.105169 0.089961 0.471097
0.081380 -0.253643 0.229999
0.085755 0.056318 -0.128407
0.458489 -0.146810 0.188202
-0.132993 -0.042357 -0.463746
-0.152192 -0.077157 0.454109
-0.085644 0.041160 -0.511293
-0.018083 0.308467 0.387147
0.231978 -0.191192 0.412704
-0.102209 -0.040246 0.465336
-0.088279 -0.070767 0.437568
0.310873 0.340338 0.496480
-0.260918 0.345586 -0.063536
-0.127054 -0.071441 -0.477982
0.191327 0.084239 0.108261
-0.034638 -0.151195 0.372263
-0.150645 -0.114218 -0.426250
0.022143 0.241989 0.323364
-0.030942 0.249591 -0.473535
-0.189711 0.080086 -0.469640
0.315312 -0.688711 -0.003750
-0.064708 0.025584 -0.342543
0.173901 -0.015449 -0.461055
-0.094082 -0.073649 -0.460812
-0.354575 0.184494 0.224687
-0.104056 -0.019563 0.468034
0.086899 0.022889 0.508079
-0.274154 0.331695 0.147190
-0.201264 0.090450 0.053515
0.239913 -0.099874 0.425691
-0.132246 -0.108059 -0.449822
-0.179372 -0.018845 0.457236
-0.061681 -0.031577 0.481900
-0.118086 -0.097555 -0.471631
-0.015361 -0.150392 -0.330174
-0.127157 -0.053384 -0.453149
-0.310303 0.025534 -0.490383
-0.136498 -0.035970 0.470744
0.077532 -0.101912 -0.453751
-0.083565 -0.021366 0.458666
-0.133540 -0.067994 -0.451880
-0.158259 -0.036540 -0.477052
-0.134421 0.632205 0.445487
-0.054166 -0.129933 0.422466
0.396238 0.011272 -0.429228
-0.118448 -0.018709 0.459409
-0.169372 -0.243084 -0.451712
0.016855 -0.095297 0.462753
-0.085350 -0.027793 -0.465456
-0.130423 0.759731 0.382835
-0.324050 0.072101 0.383046
-0.068810 -0.074662 -0.450579
-0.076663 0.017372 0.460563
-0.106196 -0.082278 -0.466513
-0.194494 0.025969 0.454292
-0.303553 0.072301 0.447163
-0.143430 -0.052618 -0.460387
-0.087048 -0.082047 -0.468593
-0.326242 -0.068601 -0.237437
-0.104747 -0.095993 -0.460769
-0.129292 -0.009634 0.465215
-0.099023 -0.073133 -0.462549
0.487845 -0.188288 0.064708
-0.049774 -0.073754 0.464122
-0.096645 0.454255 0.081781
-0.089613 -0.077634 -0.476727
-0.082288 -0.100684 -0.449465
-0.140405 -0.105775 -0.458685
-0.325363 0.114934 0.126445
0.001995 0.624974 -0.425397
-0.054668 -0.053604 0.462630
-0.214574 -0.405979 -0.094580
-0.217810 0.100151 -0.463963
-0.287282 0.391947 0.249477
0.268764 0.192626 -0.264869
-0.292591 0.081317 -0.383979
0.018705 -0.105742 -0.439026
0.398972 -0.088314 0.358482
-0.059322 -0.084139 -0.450999
0.176011 0.112255 -0.234960
-0.149642 -0.088455 0.429228
-0.095110 -0.077863 -0.464575
-0.095574 -0.097872 -0.463938
-0.113398 -0.031236 -0.453643
-0.320510 -0.033747 0.286817
-0.150198 0.821007 -0.068092
0.282588 -0.228329 0.123080
-0.212768 -0.006581 0.442551
-0.101436 -0.029262 0.457407
0.546940 -0.634745 -0.122935
0.137696 0.146962 0.519974
-0.121775 -0.070119 -0.464451
-0.109169 -0.029758 0.455560
-0.104223 -0.036127 0.452622
-0.079312 -0.070997 -0.454066
0.093121 -0.122246 -0.408257
-0.063701 -0.017417 0.474460
0.082084 -0.116590 0.425543
-0.107827 0.552547 -0.420381
-0.250587 -0.249923 -0.054178
-0.287502 0.737953 0.324490
-0.106083 -0.032812 0.462283
-0.154623 -0.034547 0.451861
-0.139057 -0.065300 0.450955
-0.278331 0.567149 -0.028346
0.423355 0.100886 0.373551
0.039105 -0.692824 -0.450378
0.099334 0.211546 -0.394721
-0.124999 0.856356 -0.257538
0.171915 -0.586269 0.191364
-0.143295 -0.057243 -0.462224
-0.097156 -0.070419 -0.472313
0.165438 -0.204508 0.334715
-0.103969 0.023513 0.461412
-0.269788 -0.070993 -0.059813
-0.261090 0.928064 -0.034339
-0.256306 0.860455 -0.333080
-0.152556 0.107494 0.446892
-0.035550 -0.776299 -0.254647
0.457168 0.011785 0.029133
-0.001467 -0.149998 0.434109
0.062374 -0.063897 -0.524420
-0.072974 -0.056245 0.467095
-0.104160 -0.013320 0.466509
0.345680 -0.595766 0.041255
-0.116016 -0.002767 0.465069
-0.082298 -0.071813 -0.464844
-0.091367 -0.026049 -0.475696
0.412145 -0.052851 0.034988
-0.063375 -0.054456 0.450095
-0.123632 0.019137 0.497589
0.172776 -0.684160 0.153922
-0.121111 -0.079916 -0.451893
-0.202853 0.721383 0.388544
-0.212923 0.873681 -0.287651
0.331313 -0.083725 0.441251
0.489172 -0.168058 -0.279988
-0.002953 -0.032615 -0.463786
-0.140774 0.085485 -0.207120
-0.090546 -0.100886 -0.440235
-0.103447 -0.018002 0.465139
0.288289 -0.050264 -0.443831
0.082511 -0.008062 0.422922
0.115383 -0.126216 0.211939
-0.079235 -0.078969 0.459707
-0.113356 -0.079822 -0.460635
-0.072131 -0.064031 0.460856
-0.084418 0.135022 -0.424325
-0.108942 -0.038668 -0.489133
0.192806 -0.654074 0.016286
-0.096348 -0.050431 0.461560
0.010777 -0.518058 -0.340886
-0.165249 -0.070601 -0.476887
-0.143131 0.632076 -0.322290
0.436920 0.007340 -0.379187
-0.305807 -0.175686 0.343678
-0.113885 -0.020178 0.465546
-0.113144 0.002223 0.467410
-0.260426 0.104221 -0.393877
-0.060210 -0.036921 0.450267
-0.113095 -0.076434 -0.467165
0.326222 0.275414 -0.432812
0.424676 -0.079474 -0.389131
-0.152502 0.209409 -0.151421
-0.223278 -0.224014 -0.121531
-0.093973 -0.022984 0.468920
-0.101843 -0.058298 -0.469943
-0.122643 -0.095790 0.419549
-0.117591 -0.031341 0.457384
-0.054147 -0.072598 0.460376
0.027212 0.093084 0.450597
-0.121992 -0.056120 -0.442793
0.218174 0.065369 -0.411263
-0.083883 -0.078168 0.451133
0.188672 -0.128432 0.411207
-0.083946 -0.031551 0.412609
-0.084676 -0.064950 -0.467899
-0.094455 -0.097845 -0.458545
-0.150522 0.554851 -0.426425
-0.174996 0.923404 0.120947
-0.209213 0.611892 -0.438462
-0.262715 0.024161 -0.345241
-0.250264 -0.165573 -0.345373
-0.113184 -0.067878 -0.455468
-0.028050 0.448730 0.471990
-0.128935 -0.004096 0.446618
-0.133514 -0.108188 -0.455944
0.269812 0.021671 -0.448557
-0.316092 -0.057635 -0.014446
-0.133584 -0.071265 -0.461865
0.460676 -0.039923 0.150109
-0.110928 -0.063850 -0.458217
0.256486 -0.002059 0.459081
-0.132498 -0.105408 -0.448560
-0.090427 -0.058834 -0.474460
-0.126013 -0.014371 0.456845
-0.150770 -0.018049 0.458437
-0.093578 -0.067976 -0.477911
0.022663 0.047131 -0.217179
-0.106481 -0.006311 0.445752
-0.124355 0.727690 0.238151
0.235266 0.257056 0.482590
-0.155798 -0.036063 0.450199
-0.137197 -0.089582 -0.435018
-0.280645 0.362603 0.352053
-0.243676 0.863795 0.047691
-0.204040 -0.062724 -0.447002
0.273603 0.211481 -0.432635
-0.063042 0.000287 0.471345
0.330575 0.092740 -0.020476
-0.236081 -0.110766 -0.407674
-0.196568 0.776793 -0.304424
-0.363538 0.010477 -0.144176
-0.359195 0.025283 0.004940
0.357016 0.149480 0.271352
-0.284589 0.015313 0.464751
0.476422 -0.697111 -0.251577
-0.112184 -0.022768 0.466001
-0.054034 -0.134437 0.445606
-0.308159 -0.118237 0.345363
-0.114067 -0.070575 -0.454816
-0.146094 -0.021979 0.445962
-0.128454 0.002530 0.477064
-0.098670 -0.088475 -0.467919
-0.083307 -0.084206 -0.467249
-0.162093 0.215555 -0.472242
-0.314170 0.358050 -0.051582
-0.084603 -0.040103 0.462958
0.109982 -0.111959 -0.451572
0.013706 0.138349 -0.442522
0.265967 -0.572484 0.171920
0.415992 0.076249 -0.473037
-0.095460 -0.041238 -0.448227
-0.122267 -0.051690 -0.457580
-0.001196 -0.115234 -0.479481
-0.194486 0.443763 0.417654
0.370883 -0.014709 -0.363464
0.024229 0.051269 0.430077
-0.311723 0.060629 0.420912
-0.197063 -0.033977 -0.466747
-0.087631 -0.063732 -0.476086
-0.093949 -0.687550 0.262620
-0.072188 -0.068573 -0.465577
-0.183294 -0.023846 0.479029
-0.056314 -0.053795 0.448550
-0.101706 -0.030230 0.459137
0.400833 0.161748 0.416844
-0.126937 -0.070278 -0.464940
-0.271710 0.268149 0.260596
-0.131422 0.000122 0.445063
-0.066695 -0.007681 0.467732
-0.108115 -0.082188 -0.428793
-0.102468 -0.047760 0.450914
-0.109136 -0.113865 -0.447686
-0.087381 -0.067120 -0.449652
-0.121408 -0.076678 -0.461675
-0.335941 0.742065 0.111789
-0.090753 -0.064329 -0.473575
0.082318 -0.606591 0.269539
0.122275 -0.930675 -0.055200
-0.072442 -0.097945 -0.472081
0.100530 -0.040579 -0.497358
-0.351742 0.198680 0.057150
-0.253801 0.618066 0.245779
-0.127036 -0.080683 -0.459005
-0.099038 -0.090504 -0.448130
-0.215134 -0.149620 0.219419
-0.132015 -0.030313 -0.483622
-0.304860 0.446393 0.460080
-0.079451 -0.125887 -0.453792
-0.353607 0.863624 0.087583
0.377711 -0.003558 -0.367325
0.154505 0.224810 0.404805
-0.038712 -0.076507 0.450633
-0.072259 -0.126224 -0.443543
-0.101329 -0.072727 -0.465207
-0.177331 0.072818 0.143957
-0.330212 0.836452 0.290215
-0.197028 -0.016005 0.380375
-0.118986 -0.057282 -0.454205
-0.180601 -0.061873 -0.439253
-0.120481 -0.099694 -0.455511
-0.142814 -0.017814 0.455851
-0.093050 -0.029170 0.446670
-0.144130 -0.072877 -0.449353
-0.095698 -0.020827 0.454161
-0.069319 -0.067138 0.482905
-0.111237 -0.103779 -0.437684
-0.154990 -0.067098 -0.448806
-0.109297 -0.037429 0.456859
-0.058141 -0.037745 0.451427
-0.309226 0.637790 0.433718
-0.182805 -0.077670 -0.437883
-0.290833 -0.254433 0.431863
-0.202217 -0.145784 -0.437069
-0.119092 -0.061226 -0.466699
-0.093460 -0.043692 0.466835
-0.035879 -0.515491 0.055119
-0.094664 -0.040494 0.459021
-0.077140 -0.013169 0.454162
0.065255 0.057400 0.508610
-0.132885 -0.063892 -0.442912
-0.086888 -0.068436 -0.473058
-0.084120 -0.085664 -0.459968
-0.154099 -0.006064 0.460077
-0.299291 -0.039413 0.106591
-0.312744 0.652768 0.311594
-0.332891 -0.012552 -0.394436
-0.000938 -0.145928 -0.415059
-0.194573 -0.262208 -0.077182
-0.151445 -0.116688 -0.443360
0.036383 0.096682 0.415673
-0.121690 -0.095971 -0.446095
-0.111759 -0.031167 0.449977
0.364825 -0.711798 -0.295758
-0.111282 -0.048490 -0.466124
-0.091174 -0.068699 -0.473087
-0.260003 0.019676 0.444437
-0.148669 -0.087134 -0.472895
-0.107752 -0.124386 -0.449016
-0.044444 -0.106570 -0.439243
-0.116968 0.275574 0.482736
-0.125986 -0.138186 -0.207598
-0.136469 -0.095007 -0.440834
-0.051649 -0.034549 -0.022061
-0.119520 0.497642 0.174362
0.170820 0.423693 0.526863
-0.352389 0.037520 0.160046
-0.077817 0.004658 -0.416038
-0.093044 -0.073620 -0.463678
0.167642 -0.028955 0.489472
0.540968 -0.046499 -0.254507
-0.089992 -0.049461 -0.477838
-0.121475 -0.012274 0.453908
-0.049507 -0.090160 -0.457516
-0.141077 -0.013870 0.457013
-0.103788 0.027860 0.475246
-0.098028 0.437915 -0.438374
-0.091456 -0.020904 0.461161
-0.074686 -0.048387 0.465851
0.288644 -0.794475 -0.077966
-0.291364 0.766737 -0.405583
-0.250705 0.428420 -0.020722
-0.059732 -0.068068 -0.468425
-0.126364 -0.079323 -0.460707
-0.046193 -0.185554 -0.382700
-0.113809 0.033306 0.466052
-0.054578 -0.122890 0.434014
-0.127885 -0.098401 -0.459881
0.208040 0.064171 -0.026344
-0.295711 0.505695 -0.242047
0.057909 -0.635656 0.106615
0.023262 -0.031498 -0.460675
-0.088447 -0.688256 -0.071729
-0.061275 -0.043956 0.475111
-0.087163 -0.050769 0.449409
-0.205350 -0.001467 -0.173074
-0.153292 -0.038904 0.463091
-0.092031 -0.082388 -0.473764
0.252858 0.106346 0.200693
-0.072732 -0.040766 -0.458242
-0.188273 0.026908 0.185465
-0.131128 0.710540 -0.422273
-0.092884 -0.015658 0.477461
0.280359 0.229155 -0.437589
0.071978 0.062427 -0.029127
-0.305830 0.134604 0.424170
-0.076707 -0.080581 0.442650
-0.148437 0.769402 -0.142463
-0.126027 -0.076674 -0.435133
0.117105 0.076207 0.134929
-0.056279 -0.101841 -0.462868
-0.353684 0.321171 -0.023423
-0.097765 -0.045403 0.469348
-0.152679 -0.022684 0.454037
-0.087736 -0.037415 0.456008
-0.142578 -0.077908 0.454784
-0.289652 0.326726 -0.183149
-0.124524 -0.062063 -0.452521
-0.071384 0.035931 0.469137
-0.125430 -0.087645 -0.462461
0.200566 -0.106888 -0.423223
-0.119966 0.703102 -0.016621
-0.003328 -0.236374 -0.430062
-0.118947 -0.088214 -0.448737
-0.029512 -0.123169 0.293389
-0.033511 -0.160757 0.454216
0.266443 -0.069917 0.298909
0.383508 -0.601621 -0.137562
-0.112860 -0.074142 -0.454249
-0.076976 -0.020714 0.476484
-0.069054 -0.096859 -0.471389
-0.271633 0.281873 -0.274458
-0.139137 -0.032986 0.457020
-0.200480 0.421984 0.436865
-0.121765 0.482291 -0.346268
-0.132561 -0.079419 -0.458612
-0.087480 -0.067346 -0.469572
-0.009079 -0.454338 0.279824
-0.038175 -0.040512 0.467310
0.408492 -0.009272 -0.109301
-0.072787 -0.074198 -0.456395
-0.005811 -0.105171 0.378075
-0.183024 -0.058260 -0.443404
-0.135199 0.668672 -0.196607
-0.135692 -0.091175 -0.461754
-0.043260 -0.080495 -0.472368
-0.063401 -0.059922 -0.418489
-0.084871 -0.017345 0.459134
-0.099655 -0.298817 -0.061362
-0.047934 -0.071921 -0.468342
-0.094032 -0.099560 -0.459069
-0.172290 -0.032908 0.479681
0.421920 -0.159321 -0.366568
-0.175005 -0.040135 0.434436
-0.138829 -0.013188 0.456962
-0.106194 -0.014248 0.465168
-0.056310 -0.091755 -0.474795
-0.331686 0.546339 0.249456
-0.084163 -0.058307 -0.486697
-0.068840 0.047688 -0.499417
-0.075292 -0.018300 0.475893
-0.089994 -0.014828 0.447598
-0.070002 0.089052 0.443517
-0.083686 -0.079612 0.468211
0.249920 0.345921 -0.434062
-0.126522 0.022963 0.459817
0.253306 0.191259 0.247796
0.316496 -0.205222 -0.021853
-0.107333 -0.079201 -0.441400
0.341446 0.007937 -0.435474
-0.080384 -0.087097 -0.464892
-0.053249 -0.068537 -0.463619
-0.082493 -0.015396 0.480187
-0.108254 -0.077117 -0.451955
-0.162006 -0.101966 -0.441404
-0.112722 -0.034060 0.471979
0.423564 -0.012357 -0.260747
-0.077578 0.027363 0.484821
-0.087610 -0.078237 -0.451063
-0.134458 0.712627 0.135189
-0.115513 -0.032514 0.451368
-0.108568 -0.037408 -0.474052
0.180859 -0.076827 -0.441606
-0.178401 0.116749 0.485813
-0.076416 -0.027968 0.481128
-0.137762 -0.074958 -0.470705
-0.116086 -0.112966 -0.450646
-0.115153 -0.063488 -0.452373
-0.148992 -0.054284 -0.471297
-0.129539 -0.070468 0.445016
-0.134437 -0.019082 0.469118
-0.073316 -0.023273 0.474786
-0.144649 -0.039706 -0.465285
-0.262579 0.867921 0.140237
-0.345174 0.500353 0.158793
-0.108136 -0.023348 0.475200
-0.107044 0.616997 0.326470
-0.137102 0.034940 -0.129714
-0.208157 -0.004029 -0.457459
0.033766 -0.346458 0.243368
-0.104617 -0.053868 -0.468884
0.419939 0.026701 -0.187377
-0.090332 -0.096970 -0.460047
-0.169445 -0.070932 -0.453353
-0.067869 -0.118080 -0.451980
0.277750 0.003843 0.304181
-0.103368 0.478321 -0.047777
0.061704 -0.029846 0.508493
0.393001 0.057496 0.200986
-0.332119 0.430883 -0.398562
0.191695 0.380611 0.524741
-0.123174 -0.053874 -0.459383
-0.126010 -0.115583 -0.455550
-0.191891 -0.138790 0.213694
-0.128489 -0.023371 0.465139
-0.128486 -0.099827 -0.472330
-0.000480 -0.043926 0.450568
-0.157831 -0.067910 -0.462846
0.380487 0.275145 -0.458767
0.495953 -0.106737 -0.186737
-0.295849 0.006633 -0.277163
-0.077620 -0.362618 -0.384234
-0.109649 -0.076092 0.450407
-0.359626 0.138313 -0.201040
-0.033960 -0.052346 0.457773
-0.107813 -0.072370 -0.458612
-0.084912 -0.016929 0.464266
-0.132135 -0.051642 -0.459622
-0.348700 -0.041196 0.082567
-0.086632 -0.066271 -0.471383
-0.100698 -0.072265 -0.454395
-0.099570 -0.054600 0.452091
-0.079126 0.053858 -0.183727
-0.047524 -0.013481 0.445002
0.379047 -0.095341 -0.113091
-0.335659 0.357341 -0.328749
0.043526 -0.134599 0.426486
-0.106563 -0.085310 -0.468983
0.130224 -0.424853 0.164369
-0.316896 0.809174 -0.047893
-0.271968 -0.098188 0.182508
-0.331185 0.365884 0.257608
-0.184590 0.246479 0.341826
0.153472 -0.144896 0.346536
-0.136210 -0.081590 -0.441329
-0.122354 -0.079497 -0.471054
-0.367635 0.777415 -0.181791
-0.318607 -0.122175 0.206513
-0.159715 -0.007110 -0.495827
-0.071545 -0.103672 0.448838
-0.094161 -0.692424 0.477157
-0.196337 0.079797 0.328118
-0.050127 -0.078956 0.446448
-0.199149 0.097682 -0.440105
-0.110382 -0.086732 -0.467398
-0.136251 -0.004847 0.453922
-0.124797 -0.107830 -0.452524
-0.090999 -0.036592 0.467727
-0.111881 -0.072090 -0.464447
0.010248 -0.063492 -0.464225
-0.132518 -0.076598 -0.452515
-0.081567 -0.085866 -0.469266
-0.294938 0.319903 -0.090039
-0.146194 0.295179 -0.221750
0.194533 -0.171648 -0.449332
-0.093012 -0.067226 0.463772
-0.055426 -0.075092 -0.465820
-0.077639 -0.056706 0.450468
-0.268619 0.700916 0.050212
-0.060804 -0.097140 -0.451383
-0.198052 -0.032737 0.449094
-0.070885 -0.037164 -0.467888
-0.094898 -0.071795 0.461416
-0.117242 0.550621 0.258849
-0.050930 -0.039102 -0.452789
0.441238 -0.047573 0.425351
-0.351304 -0.021812 0.253856
-0.079257 -0.047439 -0.469988
-0.141374 0.887332 0.349224
-0.247276 0.396379 0.127831
0.368172 -0.546277 -0.276741
-0.116840 -0.083395 -0.455780
-0.130029 -0.025583 0.464052
0.401956 -0.757220 -0.176005
-0.125332 -0.103766 -0.456212
0.379570 0.005244 0.446431
0.297073 -0.124241 -0.436494
-0.031926 -0.166332 -0.284844
-0.073691 -0.085453 0.460613
0.306157 -0.263025 0.187207
-0.253189 0.288604 0.461040
-0.124404 -0.064497 -0.460245
-0.287003 0.685149 -0.421425
-0.076392 -0.047198 0.464746
-0.130480 0.389146 -0.270641
-0.160929 0.897595 0.023683
-0.111778 -0.071114 -0.465672
0.188620 -0.103093 -0.406987
0.003320 0.273482 -0.313423
-0.106539 -0.110044 -0.447375
0.283797 -0.126880 0.446160
-0.090913 -0.061596 -0.464970
-0.143146 -0.236275 0.336025
-0.115394 0.003962 0.454555
0.554427 -0.131164 -0.055680
-0.103384 -0.060223 -0.471539
-0.103365 -0.071055 -0.462531
-0.124025 -0.087061 -0.463668
-0.080045 -0.039094 0.470286
0.439914 0.161204 -0.396728
-0.139559 -0.064890 -0.454749
0.224342 0.142475 0.493156
-0.023691 0.051658 0.479109
0.388784 0.023272 -0.265900
-0.345513 -0.110372 0.156024
-0.123168 -0.157353 -0.091642
-0.064242 -0.097234 0.455158
0.236448 -0.234826 0.349970
0.408012 -0.040044 0.140029
-0.084225 -0.074645 -0.458260
-0.101121 -0.081047 -0.472521
-0.060612 -0.067069 0.456234
0.295342 0.324597 0.382924
-0.128676 0.278102 0.140199
-0.330756 0.535910 -0.299182
-0.113127 -0.084269 0.447145
0.187397 0.081858 -0.367692
0.147658 -0.148352 -0.359293
-0.060821 -0.030331 0.455556
0.314166 0.075134 0.474481
-0.104603 -0.070558 -0.433119
-0.138995 0.525958 0.432491
-0.083905 -0.099267 -0.466752
-0.109597 -0.077270 -0.460415
-0.107044 -0.025133 0.466571
0.131445 0.031689 0.538437
-0.105313 -0.092247 -0.463593
0.322450 -0.403815 -0.103959
-0.315954 0.548125 -0.373004
-0.109433 -0.088736 -0.453417
0.044972 -0.217991 -0.410310
-0.092238 -0.058325 0.464464
-0.153340 -0.082819 0.465489
-0.092575 -0.043527 -0.469732
-0.322532 0.196939 -0.161864
0.177764 -0.136998 0.103389
0.006698 -0.022596 0.485596
-0.160893 0.212278 -0.312176
-0.091344 -0.077850 -0.470823
-0.155516 -0.069663 -0.465854
-0.157887 -0.080035 0.460424
0.291760 -0.144027 -0.011188
-0.085148 -0.100093 -0.467925
-0.131708 -0.063568 -0.459592
-0.082994 -0.104512 -0.437918
-0.314584 0.051915 0.267212
0.028872 -0.084604 0.438891
-0.367033 0.542937 0.008437
-0.018931 -0.081758 -0.457131
0.399623 -0.710914 0.350986
-0.138320 -0.066299 -0.462801
-0.019343 -0.120944 0.444499
-0.104918 -0.099107 -0.447566
-0.137509 -0.124217 -0.427747
-0.193997 0.089501 -0.454475
-0.074730 0.798391 0.316480
-0.032759 -0.008918 0.464724
-0.095942 -0.075415 -0.468120
0.202044 0.309349 -0.368969
-0.183087 0.580424 0.481074
-0.096306 -0.079770 -0.467478
-0.093837 -0.090217 -0.470748
-0.098106 -0.020233 0.451750
0.059864 -0.235676 -0.329232
-0.308446 0.739664 0.057410
-0.135491 0.735151 0.325289
-0.151826 -0.041008 -0.452280
-0.110218 -0.078929 -0.473954
0.412787 0.050299 -0.473678
0.073298 0.070086 -0.487843
-0.144571 -0.006423 0.437386
-0.023932 -0.039625 0.480161
-0.116362 -0.079361 -0.453138
-0.012427 -0.123651 -0.460831
-0.105174 -0.070781 -0.435586
-0.254216 0.953087 0.031290
-0.108507 -0.085504 -0.451887
-0.102098 -0.064450 -0.457215
-0.370967 0.435755 0.168047
-0.136475 -0.065135 -0.450362
-0.105645 -0.085209 -0.470194
0.076702 -0.252679 0.387990
-0.227143 -0.087874 -0.472295
-0.143688 0.771388 0.422406
-0.104975 -0.114319 -0.439605
-0.303623 -0.197814 -0.307076
-0.087135 -0.060557 0.466674
0.329865 -0.221110 -0.256424
-0.124567 0.115775 0.431521
-0.042248 -0.120152 0.478293
0.123199 -0.106313 -0.445639
-0.038417 -0.242494 0.321267
0.389147 -0.287422 0.332567
-0.132953 -0.078659 -0.451602
-0.198244 0.355642 0.433281
-0.110489 -0.086810 -0.459162
-0.027702 -0.079034 -0.453318
-0.106815 -0.041467 0.457666
-0.124839 -0.113594 -0.448366
-0.164106 -0.010079 0.465597
-0.281198 -0.129956 0.111840
-0.109899 -0.008350 0.479366
-0.079168 -0.084142 -0.471946
-0.143804 -0.065314 -0.460694
-0.268970 -0.673439 -0.134607
-0.094638 -0.085895 0.458327
0.246630 -0.615497 -0.116660
-0.228715 0.096815 -0.441289
-0.305007 0.938688 -0.010044
-0.115536 -0.038618 0.479311
-0.198172 0.887758 0.282070
-0.142312 0.834514 -0.126680
-0.120118 -0.081055 -0.460815
-0.089948 -0.077595 -0.471314
-0.140986 0.278459 -0.454271
-0.128386 -0.014379 0.455676
-0.129118 -0.065322 -0.458412
-0.032447 -0.092764 -0.461060
-0.150234 -0.135602 -0.018203
-0.109297 -0.044126 0.432847
-0.079386 -0.063073 0.457259
-0.122702 -0.069448 -0.448085
-0.122416 0.316190 0.317754
-0.087351 -0.083470 -0.466397
0.412570 -0.208578 0.417151
-0.107417 -0.044416 0.455862
-0.018185 0.099336 -0.410385
0.199050 0.105263 0.119683
0.380604 0.223730 0.352301
-0.342865 -0.076343 -0.133304
-0.142649 -0.039531 0.446495
0.146676 -0.787167 -0.224503
-0.132104 -0.015236 0.466232
-0.199332 -0.120968 0.186802
-0.329512 0.325583 0.368195
-0.126112 -0.065987 -0.453326
-0.095824 -0.060698 0.478042
0.512203 -0.139229 -0.139958
-0.111070 -0.063559 -0.463296
-0.126769 -0.042858 0.454989
-0.081115 0.006045 0.492411
-0.146460 -0.076509 -0.463103
-0.138737 -0.073030 -0.453104
0.216426 -0.158484 0.476673
-0.089793 -0.063127 -0.466427
0.015525 0.035020 -0.477175
-0.066988 -0.060918 -0.458694
-0.101859 -0.064574 -0.464195
-0.214603 -0.549956 0.043807
-0.215581 0.030177 0.419597
-0.285480 0.634607 -0.073764
-0.091829 -0.037776 0.458757
-0.129282 -0.129935 -0.445709
-0.186339 0.004715 -0.421549
-0.091292 -0.087008 -0.469263
-0.303109 0.860627 0.368528
-0.126692 -0.092605 -0.460611
-0.050892 0.008356 0.479785
-0.012032 0.744566 -0.345963
-0.167053 0.028823 0.448682
0.092778 -0.081482 -0.427474
-0.087838 0.003749 0.498448
-0.111022 -0.102600 0.440628
-0.188733 -0.071505 -0.449675
-0.102826 -0.016983 0.458061
-0.210895 -0.407967 0.154765
-0.042853 -0.099715 0.466938
-0.099517 -0.077783 -0.476484
-0.124131 -0.101244 -0.454787
-0.220351 0.049416 -0.468294
0.419320 -0.100334 0.406070
-0.085469 -0.016345 0.456334
-0.135846 0.197173 -0.455721
-0.050229 -0.616160 0.477903
-0.099030 -0.069166 -0.462930
-0.201082 -0.039696 0.430518
-0.081366 -0.069629 -0.475362
-0.157493 -0.057213 0.418942
0.325310 -0.507699 0.068888
-0.134461 -0.001208 0.456932
-0.068376 -0.232297 0.434834
-0.290349 0.631709 0.377878
0.056829 -0.054311 -0.459008
-0.253644 -0.175922 0.084209
-0.200041 0.942624 -0.091733
-0.150984 -0.025837 0.435437
0.228859 -0.642761 0.456907
-0.051903 -0.089067 0.492382
-0.242385 -0.182724 0.091947
-0.147833 -0.060493 -0.450361
0.016452 -0.090522 -0.469405
-0.102704 -0.566718 0.188708
-0.271983 0.251539 0.346966
0.411147 0.039908 0.260820
0.389191 0.068719 -0.042724
-0.083724 0.020766 0.473653
-0.158909 0.645299 0.245886
-0.178251 -0.079249 -0.436242
-0.100803 -0.023931 0.468501
-0.107524 -0.012432 0.475887
0.186489 -0.044720 -0.448341
-0.057611 0.144805 -0.253152
-0.096937 -0.075793 -0.466993
-0.046871 -0.086884 0.458264
-0.111015 -0.071688 0.456060
-0.082357 -0.067391 -0.471134
-0.035962 -0.050800 0.465431
-0.114902 -0.024231 0.461668
-0.241699 -0.172682 -0.159279
-0.207622 -0.055626 -0.437391
0.514882 -0.089248 0.172608
0.383337 -0.116631 -0.007622
0.418544 -0.101568 -0.199313
-0.112738 -0.059357 -0.454967
0.173795 -0.557329 -0.269558
-0.098488 -0.078777 -0.468374
-0.252720 -0.557284 -0.067421
-0.099585 -0.074223 -0.458155
-0.363958 0.611843 0.187779
-0.046194 0.003027 -0.471115
-0.084370 -0.063449 -0.462956
-0.066630 -0.032775 0.474145
-0.132051 -0.617488 -0.467833
0.212378 -0.144828 0.225749
-0.156791 -0.047301 -0.457113
-0.108416 -0.054155 -0.468857
-0.137935 -0.095094 -0.472229
-0.145391 -0.047380 -0.459047
-0.103879 -0.098189 -0.455748
-0.319744 0.115803 0.038496
-0.093819 -0.007642 0.451602
-0.178239 -0.007241 0.453070
-0.089032 -0.055367 -0.452586
0.196556 -0.044227 0.459316
-0.119404 0.632803 -0.385846
-0.132617 -0.076000 -0.461058
-0.082509 -0.074996 -0.476909
0.274451 -0.226867 0.432886
-0.107865 -0.065259 0.459946
-0.061005 -0.099153 -0.454936
-0.210300 -0.140062 -0.290811
-0.098835 -0.029644 0.472534
-0.198885 0.833249 0.394880
-0.139634 -0.048078 0.450814
-0.137217 -0.117138 -0.453849
-0.204048 0.068650 0.448611
-0.100810 -0.212367 -0.362484
-0.036145 -0.167319 0.439436
-0.085719 -0.123176 0.136152
0.264525 -0.060291 -0.355730
-0.137085 -0.084678 -0.463715
-0.095971 -0.050474 0.477127
-0.117946 -0.006596 0.472214
0.372342 0.005306 0.471070
-0.321996 -0.156727 -0.213741
-0.095549 -0.084215 -0.451473
-0.161191 -0.103450 -0.465313
-0.131479 -0.073425 -0.443587
-0.081707 -0.080638 -0.449120
-0.167313 0.377568 0.442237
-0.121526 -0.047234 -0.458600
-0.105284 -0.081550 -0.447680
-0.094466 -0.074415 -0.464102
-0.145584 -0.056020 -0.453624
-0.062806 -0.035363 -0.481810
-0.062123 0.278439 0.542411
-0.082140 -0.047171 0.458051
-0.149163 -0.016350 0.466304
-0.333920 0.405435 -0.207120
-0.302495 0.216719 0.439870
0.422279 -0.128767 -0.062518
-0.089238 -0.021420 0.457547
0.045130 -0.120376 0.464822
-0.068221 -0.063307 -0.461296
-0.102955 -0.100955 -0.446653
-0.135586 -0.062316 -0.420287
-0.177967 0.441749 0.459770
0.195913 -0.283832 0.203593
-0.094490 -0.007765 0.472506
-0.103262 -0.096019 -0.452529
-0.051840 0.000198 0.476246
0.393738 0.089171 0.459004
-0.331441 0.823112 0.030332
-0.102913 -0.089240 -0.441923
-0.373801 -0.614990 0.000721
0.330419 0.100245 -0.426221
-0.061082 0.014710 0.414842
-0.087919 -0.057779 -0.472166
-0.250817 -0.136546 0.017797
0.136954 0.026089 -0.348434
-0.134274 -0.067767 -0.451521
-0.274213 0.376349 0.433658
-0.079863 0.869399 -0.284385
-0.064174 -0.087182 0.437801
-0.228535 -0.243936 -0.006007
0.300115 -0.532144 0.277766
0.346343 -0.031926 -0.002202
0.305219 -0.068389 -0.429446
-0.057859 -0.076871 0.443805
-0.183596 0.022307 0.440325
-0.071121 -0.096151 -0.471875
-0.224496 0.312162 0.348681
-0.094966 0.008720 0.449167
-0.073719 -0.061465 -0.485931
-0.028903 0.047974 -0.132228
-0.061935 -0.057483 0.470317
0.454253 0.027786 0.436723
0.046576 -0.062503 0.442775
-0.129246 0.002406 -0.475370
-0.117168 -0.014852 0.462497
-0.105463 -0.052227 -0.468375
-0.151980 0.010572 -0.465385
-0.113719 0.114667 0.023323
-0.140329 -0.073418 -0.462253
-0.106477 -0.030366 0.448866
-0.088746 -0.056098 -0.459297
-0.144909 -0.064537 -0.453051
-0.123936 -0.071265 0.450295
0.116855 -0.061291 -0.502529
0.389928 -0.138737 0.439002
0.269372 -0.014091 0.478603
-0.103027 -0.024712 0.459206
-0.288328 0.152594 -0.333220
-0.097549 -0.048698 0.459310
-0.103562 -0.068767 -0.466874
-0.048741 0.011786 -0.456204
-0.102400 -0.056845 -0.459659
0.153582 0.193907 -0.481713
0.176985 -0.492256 0.166051
-0.171548 0.378678 -0.401711
0.026045 -0.312273 0.390489
-0.102046 -0.058976 -0.466685
-0.184389 -0.647908 0.067629
0.380860 0.084686 -0.239033
0.033067 -0.016830 -0.509751
0.003202 -0.075906 -0.138620
-0.136828 -0.018892 0.459343
0.240081 0.048117 -0.209617
-0.073484 -0.031232 0.475657
-0.033610 -0.068907 0.436799
-0.285956 -0.134570 -0.031213
-0.066486 -0.087117 -0.457975
0.096855 -0.025536 0.445828
-0.087621 0.288897 0.291514
0.415971 0.045012 0.390482
-0.110633 -0.066610 -0.474551
-0.265268 0.011500 0.432762
-0.060592 -0.116726 -0.473601
-0.150606 -0.069502 -0.459291
-0.099776 -0.035934 0.457958
0.301506 -0.576348 -0.087012
0.189893 -0.132651 0.349474
-0.045318 -0.059173 -0.479107
-0.141514 0.889108 -0.094138
-0.174557 -0.175948 0.308812
-0.320840 -0.034557 0.201376
0.290345 -0.003705 -0.474425
-0.088989 -0.068261 -0.468700
-0.162559 0.058899 -0.486317
0.283749 -0.096467 0.040755
-0.180677 0.323145 -0.431769
0.050863 0.093871 -0.454564
-0.068924 -0.024587 0.472903
-0.110756 -0.084002 -0.469249
-0.183042 -0.282871 -0.303724
-0.123514 0.032975 -0.080464
-0.104624 -0.210868 -0.338740
-0.299493 0.348002 -0.427209
-0.338496 0.099898 0.367472
-0.070303 0.063179 0.483857
-0.093481 -0.099308 -0.451110
-0.071788 -0.077661 0.441176
-0.100892 -0.081170 -0.470337
-0.198737 0.669447 -0.342511
0.429405 -0.047522 -0.171344
-0.155083 -0.057947 -0.457158
-0.227208 -0.114387 -0.260947
-0.230488 0.048937 -0.488480
-0.319801 -0.134384 0.092211
-0.138581 -0.032538 0.439417
0.125031 -0.045940 -0.468699
-0.106063 -0.078654 -0.473604
-0.073704 -0.074945 -0.473822
-0.070196 -0.085650 -0.463437
0.022009 -0.244077 -0.284862
-0.098304 -0.093870 -0.466351
-0.197750 -0.151658 -0.004153
-0.096845 -0.087287 -0.456345
-0.114483 0.880272 0.103323
-0.062510 -0.034412 0.466976
-0.125280 -0.085853 -0.455137
0.095757 0.082294 0.479012
-0.214041 0.266928 -0.475461
0.029845 -0.274036 0.392144
-0.007957 -0.069179 0.449746
-0.319005 0.774292 0.416820
-0.116577 -0.110863 -0.442495
-0.097614 -0.068581 -0.470918
-0.130090 -0.015015 0.470337
0.120911 -0.058336 0.433003
-0.098811 -0.063141 -0.467621
-0.094725 -0.033990 0.469509
-0.291157 -0.059707 -0.231183
0.355576 -0.017715 -0.475627
-0.142479 -0.019144 0.445552
-0.149461 -0.078201 -0.458046
-0.097071 -0.031833 0.470558
-0.120816 -0.077680 -0.464816
-0.114358 -0.019067 0.460146
-0.315467 0.797445 -0.111702
-0.084699 -0.030442 0.453161
-0.125935 0.582328 -0.342942
0.145918 -0.008394 0.273040
-0.081649 0.019243 0.004791
-0.076893 -0.082963 0.454792
0.391395 0.063999 0.100592
-0.145263 0.395258 -0.146435
-0.295380 0.675685 0.122849
-0.318193 0.050431 -0.287990
-0.092993 -0.095909 0.436291
-0.054593 -0.032643 0.473284
-0.109254 -0.015686 0.456885
0.208980 -0.202656 -0.357766
-0.113350 -0.029303 0.442275
-0.143533 -0.022619 0.460139
-0.083662 -0.046993 -0.475946
-0.122750 -0.085655 -0.459095
-0.147192 -0.017353 0.453388
-0.198546 -0.087772 -0.459388
-0.275434 -0.165921 0.261728
-0.320137 -0.222134 0.201828
-0.059359 -0.074891 0.471068
-0.139880 0.099980 0.184649
0.046823 -0.206869 0.331374
0.422954 -0.152384 -0.271870
-0.009961 -0.121404 -0.443494
-0.183794 -0.007220 0.454107
-0.258477 -0.749673 -0.024563
0.294716 0.007725 -0.477602
-0.067784 0.188285 0.452261
0.118698 0.017020 -0.447171
-0.137111 -0.079954 -0.473973
-0.030594 0.288509 -0.427702
-0.132997 0.594746 0.399917
0.294833 0.304684 0.510298
-0.050973 -0.083007 -0.467643
-0.266124 0.809073 -0.431653
-0.328682 -0.120448 -0.101607
-0.123523 -0.061356 -0.468624
-0.330716 0.014742 0.063447
-0.284904 -0.102379 0.446999
0.015737 -0.638521 -0.258391
0.376833 -0.105659 0.111656
-0.213775 0.054748 -0.064108
-0.129677 -0.003968 0.461549
-0.137598 -0.119647 0.429821
-0.130955 -0.010344 0.448425
-0.094777 0.270077 -0.041035
-0.135570 -0.072913 -0.451224
-0.094774 -0.093540 -0.461966
-0.184493 -0.077189 -0.447897
-0.013198 0.107779 0.234282
-0.115496 -0.015698 0.448937
-0.067743 -0.420392 -0.206607
-0.060315 -0.117302 -0.470484
-0.135584 -0.058788 -0.456417
0.253587 0.094254 0.320245
-0.137457 -0.071542 -0.455339
-0.304220 -0.105676 0.236302
-0.123075 -0.085009 -0.457964
-0.109488 -0.080672 -0.471337
0.050824 -0.112831 -0.466032
0.288331 -0.127079 0.296509
-0.135867 0.619185 0.063118
-0.106424 -0.043634 0.449729
-0.128352 0.361333 0.206481
-0.026500 -0.133988 -0.449594
-0.177789 -0.078951 -0.420806
-0.120541 -0.015400 0.457318
-0.082890 -0.092188 -0.450495
-0.116449 -0.017435 -0.495862
0.446631 0.019992 0.156077
-0.119068 -0.062155 -0.459905
-0.099485 -0.025847 0.449294
-0.305758 0.301946 -0.404409
-0.085903 -0.097609 -0.454289
0.388269 0.061814 -0.317950
-0.063288 -0.057275 -0.462279
-0.122904 -0.089723 0.449011
-0.100481 -0.006016 0.420436
0.321722 0.000649 -0.454611
-0.100895 -0.115729 -0.431778
-0.040764 -0.138677 0.442201
-0.333782 0.071967 -0.231483
-0.075546 -0.050346 -0.492350
-0.137194 -0.086952 -0.459519
-0.203564 0.201227 0.416778
-0.074249 -0.085126 0.449506
0.161723 -0.220716 -0.172267
-0.073131 0.386683 0.525350
-0.110669 -0.027768 0.448077
-0.049889 -0.061063 0.445352
-0.215109 0.594334 -0.370097
-0.079886 -0.064147 -0.470890
0.178449 -0.689052 -0.016327
-0.197802 -0.064741 -0.445959
0.141941 0.059279 0.394197
-0.103306 -0.005184 0.473154
-0.203214 -0.808991 -0.063582
-0.099996 -0.063998 -0.465269
-0.215192 0.862848 -0.177700
-0.121747 -0.038593 0.452021
-0.078084 -0.049891 0.442369
0.172757 -0.690734 -0.048456
-0.106613 -0.071718 -0.465760
-0.135883 0.080647 -0.417682
0.047005 0.323422 -0.489966
-0.098339 -0.078193 -0.459662
-0.123786 -0.001163 0.471665
0.023492 -0.128968 0.422701
-0.147288 -0.076940 -0.457476
-0.122468 0.923551 -0.034255
0.144390 -0.113980 0.433044
0.129557 -0.269674 0.048418
-0.121610 -0.007375 0.470738
0.385046 -0.106403 -0.221597
-0.128196 -0.004280 0.460413
-0.120461 -0.145981 -0.451375
-0.277770 0.543087 0.430518
-0.160125 -0.064037 -0.419468
0.521385 0.004449 -0.154501
-0.134039 -0.105809 -0.449743
-0.151889 -0.307425 0.140614
-0.122486 -0.011356 0.452407
-0.018306 -0.221098 0.346558
0.235018 0.033984 -0.482323
-0.165419 -0.064943 0.423305
0.449342 -0.066497 0.029262
-0.150531 -0.017765 0.451008
-0.109997 -0.072098 -0.451868
-0.238622 0.726266 0.419433
-0.176912 -0.019434 -0.462104
-0.124600 -0.020659 0.451134
-0.216000 -0.082707 -0.397509
-0.111853 -0.054743 -0.465369
-0.081860 -0.057470 -0.472756
0.005289 -0.779740 0.156149
-0.083403 -0.142879 -0.418211
-0.252759 0.781745 0.308990
-0.183231 0.653561 -0.281691
-0.221560 0.488318 0.451879
0.036510 -0.761117 0.016710
-0.325598 0.707270 -0.089179
-0.015605 -0.051881 0.440059
-0.137237 -0.019277 0.460957
-0.032456 -0.086375 -0.466029
-0.108913 -0.017702 0.470101
-0.126111 -0.037862 0.448881
-0.099397 -0.074363 -0.464160
-0.133009 -0.075885 -0.443191
-0.170288 -0.153568 0.381957
-0.100238 -0.082578 -0.426694
0.019058 -0.126765 -0.455924
-0.112735 -0.053211 0.455279
-0.303444 0.452544 0.282131
-0.333502 -0.119737 0.153065
-0.198960 0.316994 -0.287057
-0.094878 -0.078479 -0.455170
-0.141979 -0.053122 -0.440380
-0.027971 -0.095213 -0.466972
-0.122989 -0.034673 0.462140
-0.036696 0.197091 0.473164
-0.109630 0.013870 0.446793
-0.104149 -0.068379 -0.452673
0.150133 0.106950 -0.449369
-0.005853 0.619839 0.426755
0.164460 -0.107235 0.491357
-0.098439 -0.075029 -0.456356
-0.084962 -0.099688 -0.462865
-0.194742 0.240351 0.473173
-0.100299 -0.060411 -0.449489
-0.069904 -0.084288 -0.468764
-0.132665 -0.029284 -0.440298
-0.120611 0.503517 0.082761
0.118152 0.064384 -0.186470
-0.098145 -0.028087 0.470783
0.128306 -0.119032 0.443607
-0.116483 -0.062196 -0.457811
0.145215 0.198423 0.420899
-0.097000 -0.096058 -0.465033
-0.434910 -0.708990 -0.060426
-0.088440 -0.051512 -0.465066
-0.116438 -0.067536 -0.447112
-0.352220 0.120743 -0.094844
0.111646 -0.599481 -0.196554
-0.200712 -0.121495 0.377918
-0.196387 0.330892 0.434367
-0.097805 -0.100092 -0.436632
-0.064756 -0.092317 -0.467144
-0.036173 -0.116601 -0.439809
-0.088817 -0.044893 0.464634
-0.107679 0.006345 0.442678
-0.049205 -0.083863 0.467072
-0.132773 0.772779 -0.238618
-0.334982 0.012143 -0.271483
0.500167 0.017841 0.359900
0.254487 -0.137620 -0.438603
-0.205122 0.010046 0.482872
-0.158117 -0.089834 -0.455014
-0.117967 -0.125869 -0.436907
-0.087977 -0.086474 -0.466467
0.007633 -0.106749 -0.456752
-0.197588 0.018525 0.474043
-0.021044 -0.107303 -0.480189
-0.032544 -0.091201 -0.450374
-0.325559 0.464560 -0.127706
-0.142616 0.218155 0.516949
0.372432 -0.081671 -0.251723
-0.322814 0.427679 0.034561
-0.011318 0.099020 -0.261683
-0.115441 -0.084906 0.431854
-0.118427 -0.138534 0.467064
-0.096530 -0.077864 0.465704
0.041932 -0.716225 0.259118
-0.109218 -0.063286 -0.461592
-0.094356 0.035417 -0.278083
-0.113520 -0.085685 -0.454864
-0.189256 0.788134 -0.382307
-0.358840 0.448090 0.080352
-0.145301 -0.085576 -0.450135
-0.074429 -0.002927 0.472038
-0.122264 0.729463 -0.347141
-0.178336 0.072244 -0.500147
0.255059 -0.142511 -0.422765
-0.173729 -0.202508 -0.288418
-0.116187 -0.047980 -0.463730
-0.113762 -0.071811 -0.446096
-0.225875 -0.207837 0.215786
-0.110921 -0.046285 0.454164
0.061968 -0.155184 0.436906
-0.113198 -0.001588 0.459017
-0.127843 -0.069962 -0.460720
0.185162 0.097684 -0.109055
-0.306838 0.917191 -0.146475
-0.138101 0.848962 0.212054
-0.216243 0.915084 0.162832
-0.096413 -0.073474 -0.459955
0.435668 0.013095 -0.199446
-0.009748 -0.331991 -0.343387
-0.072128 0.900433 0.227187
-0.242455 -0.010529 -0.435177
-0.298131 0.006237 0.389023
-0.153486 -0.037702 -0.449877
-0.270875 0.888287 0.272723
-0.060730 -0.041490 0.459622
0.313328 -0.413627 -0.090652
-0.201888 0.503085 0.223131
0.038646 0.506046 -0.520495
0.012327 0.168304 -0.472375
0.442336 -0.209122 0.250345
-0.152897 -0.069893 -0.466613
-0.122538 -0.032282 0.453389
-0.021503 -0.597965 -0.322475
-0.216999 -0.175755 -0.355803
-0.076932 -0.071695 -0.426902
-0.089288 -0.041367 0.443879
-0.309407 0.166550 0.121064
-0.089860 -0.031410 -0.470892
-0.208689 -0.201896 -0.198962
-0.090426 0.147398 0.491870
0.322347 0.167435 0.461171
-0.095759 -0.001507 0.460491
-0.024638 -0.064823 0.207067
0.266455 -0.215344 -0.378861
0.387411 0.176195 -0.474516
-0.268911 0.763092 0.144601
-0.084158 -0.039383 0.463757
-0.200449 -0.104921 -0.390930
-0.108485 -0.197935 0.183438
-0.062592 -0.069674 -0.465728
-0.074342 -0.035528 -0.470118
-0.371874 0.261111 -0.153696
-0.095785 -0.073423 -0.457625
-0.210732 0.472771 0.385973
-0.056631 -0.197132 -0.444957
0.315168 -0.199557 -0.273519
-0.098220 0.637719 0.317956
0.005282 -0.192787 -0.451690
0.075589 0.287100 -0.407061
-0.028873 -0.616104 0.304485
-0.091762 -0.030874 0.469264
