0.194608 -0.013947 -0.253163
-0.095924 -0.014648 -0.267498
0.198705 -0.227310 0.382953
-0.184684 -0.001415 0.272719
-0.101217 -0.014608 -0.243106
-0.158242 0.000717 0.260148
-0.074651 -0.008532 -0.259270
-0.113893 -0.011837 -0.236831
-0.117989 -0.659430 0.203868
-0.168454 0.015606 0.270159
0.308450 -0.035269 -0.117827
-0.117914 -0.008008 -0.261382
-0.173116 0.011979 0.283454
-0.149401 -0.006149 0.275172
-0.151090 -0.000065 0.281532
-0.122625 -0.020443 -0.255210
0.278947 -0.625254 -0.380435
-0.050462 -0.014717 -0.250579
-0.140556 -0.014457 -0.228602
-0.115983 -0.009311 -0.256984
-0.166804 0.002429 -0.205595
-0.171964 0.015627 0.269673
-0.362739 0.294467 0.035066
-0.121896 -0.007162 -0.236019
-0.442490 0.562220 -0.159995
-0.176760 0.004195 0.271569
-0.077539 -0.010874 -0.265727
-0.004240 0.015458 0.196867
-0.127871 0.000356 -0.256191
0.064758 -0.002471 0.302727
-0.017789 -0.004419 0.314210
-0.351564 0.360210 0.283656
-0.132751 0.010272 0.274145
-0.114885 -0.014406 0.268097
-0.137404 0.010269 0.270892
-0.385333 0.356939 -0.090185
-0.070215 -0.006742 -0.263736
-0.095993 -0.011049 -0.257817
-0.245922 0.297333 0.371646
0.468577 -0.023885 -0.029663
-0.179680 0.006701 0.265037
-0.109651 -0.009905 -0.250826
0.042265 -0.088034 0.006484
-0.066643 -0.022934 -0.258600
-0.115544 -0.006858 -0.262701
0.009420 0.014811 0.112044
-0.138607 -0.019434 -0.241852
-0.340427 0.282527 -0.257780
-0.140953 -0.009937 0.265998
0.012011 -0.003472 0.304892
-0.122248 0.004582 0.271838
-0.076732 -0.018833 -0.248513
-0.120154 -0.008532 -0.245624
0.149145 -0.133586 0.266261
-0.311008 0.123904 0.095775
0.265222 -0.168022 0.117499
-0.092054 -0.005257 -0.261638
-0.249681 0.031222 -0.019754
0.165144 -0.052872 -0.096011
-0.169210 0.006015 0.263194
0.165759 -0.108849 -0.027560
-0.163837 -0.006344 0.269405
-0.154666 -0.004296 0.265847
-0.094789 -0.000786 0.304673
-0.065197 -0.594902 0.225370
0.239340 -0.009149 0.098211
-0.158913 0.001588 0.255021
0.320152 -0.747106 0.273179
-0.089360 -0.010047 -0.253499
-0.266451 0.179224 0.245005
-0.176261 0.005322 0.273775
-0.160924 0.004058 0.269171
0.281294 0.002262 0.147624
-0.165449 0.008386 0.272915
-0.086712 -0.005091 -0.257220
0.115213 -0.028694 -0.089625
-0.135805 -0.029217 -0.237523
0.280282 0.014060 0.188279
-0.153442 0.006209 0.275621
-0.148714 0.008054 0.265761
-0.142872 -0.016777 -0.256043
-0.192868 -0.005508 -0.126601
-0.080393 -0.003437 -0.248477
-0.389558 0.359838 -0.167029
-0.314598 0.027504 0.016919
-0.175308 0.007760 0.264209
-0.146698 -0.002977 0.268313
0.406866 -0.048496 0.116435
0.122391 -0.550452 -0.342031
0.233419 0.013188 0.015643
0.166417 0.035707 -0.357753
-0.129328 -0.022081 -0.246995
-0.123645 0.000080 0.246051
-0.183342 0.009968 0.260772
-0.069785 -0.021896 -0.249671
-0.243810 0.036900 -0.056993
-0.177872 -0.000268 0.264747
0.108402 0.323761 -0.424964
-0.219506 0.195549 0.369593
0.012091 -0.020836 -0.246601
-0.122945 -0.012442 -0.241780
0.329766 -0.007988 0.334466
-0.091758 -0.016614 -0.240966
0.148166 -0.007756 0.326085
-0.050813 0.004537 -0.280367
0.371751 0.005843 -0.067381
-0.322982 0.343185 -0.246443
-0.336934 0.333538 -0.281955
-0.163011 0.001482 0.263474
-0.356372 0.344617 0.019241
-0.113093 -0.005480 -0.230367
-0.088776 -0.006385 -0.254957
-0.089463 -0.017509 -0.262449
0.215867 0.028493 -0.337773
-0.160765 -0.005076 0.267102
0.060526 0.005161 -0.269520
0.333580 0.040999 -0.080272
-0.080416 -0.013991 -0.254011
-0.413141 0.405038 0.141782
-0.164379 0.001485 0.269960
-0.151046 0.011045 0.267941
-0.108311 0.033360 -0.277509
-0.139737 -0.002614 0.289388
-0.173706 0.008016 0.261060
-0.046043 -0.031511 -0.256233
-0.384171 0.509746 -0.384221
-0.167999 0.010751 0.261734
-0.061847 -0.017075 -0.234343
-0.182868 -0.028306 -0.127344
-0.162801 0.004866 0.281502
-0.092123 -0.017031 -0.250107
-0.102968 0.001509 0.256677
-0.179692 0.013676 0.281741
-0.091114 -0.009761 -0.268402
-0.158863 -0.007290 0.261887
0.270464 -0.057270 -0.003187
0.164792 0.027085 -0.244793
0.340136 -0.558982 0.244335
-0.124593 -0.017718 -0.260213
-0.088537 -0.007889 -0.256458
-0.191400 0.009366 0.276327
-0.146371 0.019582 0.028259
-0.183479 0.004774 0.273598
-0.071070 -0.003754 -0.259413
0.466449 -0.055130 -0.182050
-0.086352 -0.010852 -0.233693
-0.191546 0.418594 0.462962
0.154139 -0.690225 -0.441399
-0.150342 0.002313 0.243048
-0.223137 0.061396 -0.206305
-0.175596 0.009335 0.257042
-0.173725 -0.003207 0.274988
-0.097066 -0.016662 -0.256683
-0.164541 0.006974 0.271618
-0.180965 0.012219 0.262721
-0.402217 0.341767 -0.065913
-0.176485 0.003995 0.240586
-0.105188 -0.018144 -0.227510
-0.108664 -0.002864 -0.263924
0.291067 0.032409 -0.071142
-0.281910 0.187308 0.301701
-0.092873 -0.018604 -0.254554
-0.065590 -0.025339 -0.253408
-0.087480 -0.015429 0.184145
-0.183469 0.014873 0.270000
0.410209 0.078140 -0.205023
-0.178605 0.011632 0.276683
-0.068050 -0.052744 -0.191393
0.240919 -0.013220 0.216966
-0.205013 0.186054 -0.328148
0.374107 -0.570877 0.375073
-0.137648 0.136133 0.346310
-0.087597 -0.015476 -0.261343
-0.075412 -0.009930 -0.236076
-0.109816 -0.009867 -0.246156
-0.118622 -0.010857 0.132904
-0.137128 -0.015672 -0.200295
0.371558 -0.008831 0.160592
-0.109552 -0.010089 -0.253284
-0.097452 -0.047699 0.079978
-0.120700 -0.014047 -0.254826
-0.378470 0.409695 0.199436
-0.272591 0.188107 -0.230585
0.011266 -0.011572 -0.269473
0.322347 0.019528 0.240185
-0.159891 0.004343 0.275779
-0.176416 0.010900 0.262393
0.250118 0.045274 -0.162526
-0.167863 -0.023441 -0.151364
-0.155807 0.002213 0.276125
0.183805 -0.027243 0.032687
-0.372561 0.268838 -0.168400
-0.142921 0.017175 0.281323
-0.156394 -0.038311 0.330483
-0.052027 -0.005828 0.029737
-0.098278 -0.012137 -0.256422
0.320535 0.013277 0.296640
-0.072270 -0.008480 -0.297043
-0.094630 -0.019004 -0.241800
-0.145597 0.000471 0.258178
-0.199145 0.035904 0.259642
-0.087670 -0.019197 -0.254199
-0.114120 -0.010396 -0.245485
-0.168432 0.010807 0.273122
0.199950 0.027634 0.115717
-0.354999 0.333150 0.234194
-0.171920 0.001551 0.267823
-0.089603 -0.018251 -0.259124
-0.047596 -0.022569 -0.266135
-0.130392 -0.006898 -0.251594
-0.026649 -0.037686 0.206750
-0.140664 0.014708 0.277728
-0.089984 -0.020089 -0.265874
-0.126784 0.005173 0.271467
-0.098033 -0.010241 -0.248138
-0.112071 -0.018489 -0.254099
-0.033915 -0.007967 -0.316640
-0.200133 -0.554343 -0.243196
-0.193209 0.039322 0.271105
-0.093870 -0.022202 -0.247784
-0.165844 -0.000946 0.283422
0.363841 0.032516 -0.228029
-0.113211 -0.022700 -0.255507
0.243835 0.046553 0.339604
-0.388842 0.399561 -0.156289
-0.103004 -0.012859 -0.255147
-0.127662 -0.060129 -0.388641
-0.088964 -0.013473 -0.255062
0.285469 0.036079 0.082029
0.157468 0.035496 -0.393868
-0.166659 -0.015083 -0.140613
-0.175154 0.017948 0.277874
-0.154904 0.007248 0.274645
0.394232 0.010355 -0.264687
-0.099000 -0.003376 -0.264933
0.066778 -0.079291 -0.021530
-0.090234 -0.005991 -0.243095
-0.145304 -0.004197 -0.237016
0.204448 0.005671 -0.236292
-0.540011 0.621326 0.104030
-0.091573 -0.027658 -0.262315
-0.196503 0.022224 0.256418
-0.477610 0.516703 -0.207870
0.324501 -0.022138 0.190788
-0.185993 -0.000250 0.283122
0.003942 0.026026 -0.086303
-0.113103 -0.007786 -0.244317
-0.156514 0.008174 0.283098
-0.154476 0.208471 0.347234
0.234835 -0.157330 -0.088188
-0.115978 -0.007662 -0.248074
-0.168210 0.004552 0.256363
-0.128377 -0.009815 -0.239120
-0.138515 0.016857 0.271579
-0.149112 0.006985 0.276556
-0.148038 -0.001183 0.266754
-0.158871 0.011429 0.277180
-0.153641 0.003562 0.268695
0.262558 -0.007864 0.281646
-0.145720 0.013407 0.218697
-0.088712 -0.015965 -0.267926
-0.078701 -0.024169 -0.269100
-0.164355 0.015189 0.272614
-0.239743 -0.632948 -0.317658
-0.102180 -0.006606 -0.256522
-0.149294 0.000289 0.275924
-0.073268 -0.004061 -0.229588
0.342238 0.044759 -0.246348
-0.080638 -0.016836 -0.253485
-0.171067 0.005439 0.273547
-0.121706 -0.025739 -0.264578
-0.011395 0.011113 -0.284949
0.382517 0.016831 -0.325939
-0.102368 -0.011532 -0.254960
-0.110602 0.005430 0.279532
-0.109738 -0.029097 0.297637
-0.080458 -0.010807 -0.252826
-0.185028 0.001192 0.295364
-0.082008 -0.006212 -0.248844
-0.166541 0.002417 0.271231
-0.114165 -0.024707 -0.258767
-0.073177 -0.002072 -0.279941
0.471027 0.049450 -0.234720
-0.151057 -0.004245 0.249893
-0.168488 0.008167 0.276605
-0.011279 0.004513 -0.249567
0.349922 0.155095 0.463360
-0.162566 -0.001548 0.250488
0.139878 0.007877 -0.328398
-0.046584 0.011577 -0.270268
0.103790 -0.131809 0.032260
-0.388043 0.394283 -0.365713
-0.191623 0.001337 0.276985
0.221038 -0.126495 -0.178926
-0.129014 -0.028372 -0.255018
-0.159319 0.009819 0.287024
-0.118019 -0.021100 -0.252201
0.490927 -0.013573 0.039412
0.050787 -0.004068 -0.289978
-0.030498 -0.008111 -0.224904
0.311260 -0.643414 0.243456
-0.155425 0.000554 0.282412
0.162936 0.210291 -0.435266
-0.139241 0.013200 0.300381
-0.331858 0.389827 0.304317
-0.118016 -0.015940 -0.251455
-0.175450 0.010243 0.283490
-0.392192 0.558661 -0.251951
-0.074257 -0.014293 -0.251655
-0.089454 -0.022733 -0.254205
-0.167838 -0.012952 0.283051
-0.093450 -0.013348 -0.255605
0.039476 -0.032023 0.353043
-0.075970 -0.426881 -0.211779
-0.097000 -0.010278 -0.241625
-0.189479 0.003233 0.252429
-0.161901 0.003299 0.268417
0.182198 -0.006702 -0.218575
-0.098833 -0.018093 -0.251612
-0.110771 -0.014455 -0.245273
-0.173929 0.008385 0.277260
0.244953 0.066704 -0.549973
-0.153930 -0.009733 0.278422
0.271565 -0.316148 -0.321059
-0.043290 -0.000492 0.252909
-0.370184 0.348164 -0.200408
-0.094529 -0.014335 -0.258551
-0.278948 0.235365 -0.302552
0.085188 0.008073 0.186205
-0.075355 -0.019001 -0.267938
-0.141909 -0.703047 -0.462070
-0.202186 0.030099 0.263304
-0.178359 -0.003178 0.287673
-0.098865 -0.021200 -0.236481
-0.088382 -0.005021 -0.252383
-0.116090 -0.013509 -0.251753
0.251005 0.006505 0.329593
-0.015516 0.179429 -0.408616
-0.099155 -0.011564 -0.252599
-0.099370 -0.016511 -0.258256
0.315825 -0.039576 -0.048612
0.306144 0.065395 0.347845
-0.099950 -0.017478 -0.243850
-0.087045 -0.017332 -0.251470
-0.183147 0.005668 0.270509
-0.182145 0.008755 0.273353
-0.280517 0.175763 0.327623
-0.092449 -0.015876 -0.250490
-0.025423 -0.004578 -0.252137
-0.112785 -0.007496 -0.247982
-0.160539 -0.000471 0.258473
-0.125115 -0.012148 -0.238981
0.135457 -0.473171 -0.084008
-0.113776 -0.015714 -0.249805
0.169794 0.223583 0.465299
-0.163607 -0.001402 0.268991
-0.180377 0.005049 0.281059
0.114057 -0.008918 0.348548
-0.167266 0.003423 0.260255
-0.114077 -0.005257 -0.251032
-0.375628 0.333977 -0.119001
-0.186151 0.003857 0.278967
-0.151665 0.012146 0.282396
-0.164784 0.003389 0.260377
-0.123554 -0.002841 -0.241665
-0.155424 0.004610 0.269183
-0.106089 -0.013301 -0.238525
0.124852 -0.277010 0.073067
-0.180305 0.002846 0.260789
-0.135172 -0.020094 -0.256104
-0.147118 0.001825 0.255445
0.088465 -0.060393 -0.206806
0.376064 -0.027957 0.285520
-0.187182 -0.533047 0.234130
-0.075590 -0.016599 -0.247109
-0.134174 -0.550246 0.173325
0.272833 0.087250 -0.409803
-0.105897 -0.007908 -0.250435
-0.094432 -0.006900 -0.259953
-0.077249 -0.004317 -0.264892
-0.224422 0.122634 -0.329913
-0.336082 0.311075 -0.217190
-0.413253 0.359641 0.009243
-0.216837 0.059663 0.249596
0.435610 0.020497 0.088352
0.133199 0.028870 -0.093329
-0.075104 -0.002356 -0.247119
0.101011 -0.344410 0.277483
0.193392 -0.040230 -0.153294
-0.300563 0.281729 -0.191546
-0.061474 -0.016287 -0.270915
-0.050308 -0.039987 -0.233047
-0.254063 -0.082570 0.069448
-0.143274 0.020620 0.222971
-0.089229 -0.005093 -0.242408
0.252528 -0.002239 0.278534
-0.185059 0.007927 0.257826
-0.158027 0.005648 0.274742
0.132826 0.021881 0.112518
0.350825 0.034436 -0.343985
-0.100520 -0.019481 -0.244275
0.021529 0.014357 0.054720
0.108009 0.186888 0.375281
-0.487690 0.539189 0.206243
-0.104542 -0.012212 -0.251085
-0.148993 -0.116046 0.248369
0.490297 -0.653843 0.391564
-0.095294 -0.003856 -0.249953
-0.157160 0.047248 -0.348949
-0.082643 -0.014028 -0.236296
-0.176102 0.014647 0.267570
-0.254675 0.228703 -0.245943
-0.150940 0.001866 0.267573
-0.171161 0.008307 0.294735
-0.176532 0.000844 0.274554
-0.096416 -0.013507 -0.252653
-0.215688 0.032874 0.255979
-0.150471 -0.003838 0.269547
-0.101192 -0.009154 -0.269856
-0.168755 0.010663 0.279296
-0.352976 0.287548 0.239530
-0.083900 -0.018103 -0.256368
-0.114074 -0.018029 -0.248318
-0.090712 -0.019312 -0.257294
-0.098502 0.009007 -0.234453
0.219810 0.033229 0.047987
-0.031293 0.228133 0.354753
-0.087824 -0.012499 -0.249705
0.271007 0.035228 0.271952
-0.095547 -0.015325 -0.257257
-0.396036 0.367601 -0.109804
-0.166589 0.003747 0.280652
-0.461131 0.425744 -0.012422
-0.457981 0.577212 0.064627
-0.070207 -0.504430 -0.084747
-0.168068 0.003303 0.263414
-0.364621 0.329634 0.095862
-0.081600 -0.012683 -0.265212
-0.092348 -0.011435 -0.240277
-0.167760 -0.005496 0.270502
-0.076516 -0.012881 -0.248702
-0.408694 0.467809 -0.197984
-0.066154 -0.015642 -0.255759
-0.379101 0.388162 0.030643
-0.097055 -0.004811 -0.250824
-0.170036 0.005886 0.273851
-0.194201 -0.005958 0.246337
0.360030 -0.010191 -0.192116
-0.110596 -0.019294 -0.240027
-0.147416 -0.004263 0.266607
-0.095976 -0.008529 -0.247240
-0.140483 0.001603 0.265374
-0.344699 0.457806 -0.396189
0.113270 0.040530 -0.204654
0.251396 0.038145 -0.336205
0.143352 -0.592382 0.154009
0.413538 0.001811 -0.408784
-0.227823 0.294182 -0.261730
-0.160306 0.012092 0.293432
-0.068474 -0.006412 -0.245141
-0.163941 0.000459 0.259104
-0.104354 -0.022892 -0.249552
-0.100791 -0.010170 -0.266821
-0.235868 0.063442 0.111085
0.159648 -0.007817 0.244043
-0.028048 -0.016792 -0.058396
-0.095259 -0.018761 -0.254697
0.102903 -0.248137 -0.063072
-0.100864 -0.018775 -0.260310
-0.087904 -0.642289 0.075564
-0.159913 0.006834 0.267510
-0.056347 -0.009310 -0.257646
-0.344863 0.308418 -0.126660
-0.066440 -0.005626 -0.255897
0.223580 -0.540340 0.366545
-0.010817 -0.011690 0.303160
-0.088968 -0.010800 -0.267861
-0.116020 -0.018022 -0.260793
-0.026695 -0.040474 -0.209185
-0.310618 0.288991 -0.376709
-0.145216 -0.002659 0.258264
-0.015388 -0.110177 -0.170632
-0.165237 0.007772 0.275456
-0.158749 0.025803 0.294515
-0.111010 -0.008529 -0.251722
-0.204798 0.243747 -0.399392
-0.443962 0.613334 -0.305444
0.180641 0.048265 0.363856
0.452313 -0.014265 -0.348061
-0.099108 -0.022978 0.285289
-0.129008 0.001358 0.284645
-0.180329 0.004712 0.274790
-0.330246 -0.653725 0.148482
-0.105217 -0.014967 -0.250081
0.135033 -0.457027 0.063010
-0.142426 -0.011676 -0.241811
-0.033799 0.003390 -0.306336
-0.113957 0.007141 0.183813
-0.174570 0.004805 0.257458
-0.456824 0.443755 0.051228
-0.174621 0.011232 0.284356
0.229891 -0.036549 -0.125509
-0.111150 -0.002938 -0.178064
-0.186048 0.005143 0.278194
-0.171304 0.008638 0.281160
-0.079233 -0.008406 -0.262608
-0.144432 0.007850 0.275546
-0.153884 -0.001593 0.269375
-0.084675 -0.014940 -0.254543
-0.181097 0.017552 0.264954
0.270920 0.027141 0.238141
-0.090475 -0.012605 -0.263286
0.315229 -0.008476 0.220951
-0.087716 -0.016487 -0.244442
-0.194399 0.010855 -0.267976
-0.156093 0.003435 0.278491
0.076908 -0.203216 0.063653
-0.132342 -0.010394 -0.252606
-0.173298 0.000755 0.265762
-0.157570 -0.000127 0.262392
-0.166809 -0.001756 0.277645
-0.175978 -0.039606 -0.202909
-0.095964 -0.011628 -0.243969
-0.015281 -0.016395 -0.303674
-0.143504 -0.005721 -0.271497
-0.196873 -0.010477 -0.023484
-0.160384 0.012544 0.279197
-0.155551 0.000509 0.267172
-0.121626 0.012202 -0.342539
0.120681 0.026580 0.168886
0.307857 -0.068741 -0.344982
-0.144218 0.007800 0.273142
-0.414242 0.414073 0.181794
0.308104 -0.598766 -0.258191
0.054989 -0.011671 -0.322403
-0.120426 -0.103806 0.267703
-0.073453 -0.015984 -0.259146
0.117417 -0.044404 -0.142176
0.124067 0.024967 0.043893
-0.121497 -0.030610 -0.249791
0.368509 -0.002011 -0.224932
0.424587 -0.057634 -0.382906
0.027538 0.129188 -0.507901
-0.109922 -0.018236 -0.240611
-0.166807 0.004440 0.252454
-0.081120 -0.015083 -0.240616
-0.088990 -0.008342 -0.258514
0.033390 -0.025481 -0.261248
-0.157941 0.009616 0.272833
-0.089884 -0.015912 -0.270233
-0.164087 0.005146 0.271444
-0.064696 -0.018003 -0.255753
-0.176353 -0.002279 0.304550
-0.170591 0.005871 0.277723
-0.161712 0.004090 0.263393
-0.113683 -0.041631 -0.249034
-0.336266 0.324259 0.316791
-0.056108 -0.030537 -0.240626
-0.087656 -0.011352 -0.257623
0.183034 -0.028687 -0.068545
0.398015 -0.286583 -0.253771
-0.101616 -0.022981 -0.237410
-0.515492 0.583703 -0.232951
0.188746 -0.114247 -0.421972
-0.085481 -0.020376 -0.267729
-0.289225 0.286658 0.357519
-0.092666 -0.005699 -0.247368
-0.119254 -0.004656 -0.251886
-0.083949 -0.005651 -0.260373
-0.169933 0.014215 0.264269
-0.201244 0.027382 0.222019
0.028253 -0.670103 0.376719
-0.164852 0.006780 0.110731
-0.148997 -0.006857 -0.247709
0.080681 0.020196 0.067316
-0.039381 -0.011436 0.249402
-0.153015 0.005388 0.277565
-0.077379 -0.017872 -0.260724
-0.115398 -0.053481 -0.067031
-0.158824 0.007048 0.265418
-0.076104 -0.010556 -0.255883
-0.086594 -0.071020 -0.143864
-0.127062 0.004309 0.275833
0.259600 -0.021302 0.166537
-0.104872 -0.014257 -0.246078
-0.052159 -0.004178 -0.252666
-0.156986 0.001761 0.272642
-0.128706 -0.001175 0.303307
-0.322104 0.329133 -0.062754
-0.121972 -0.014998 -0.262397
-0.179667 0.027830 -0.252569
0.270541 0.028299 0.290506
-0.263685 -0.007238 -0.039567
0.162964 0.074799 -0.389756
-0.160205 0.006616 0.271997
-0.112422 -0.016149 0.254383
-0.081835 -0.019545 -0.266047
-0.100645 -0.012346 -0.259680
-0.093616 -0.018139 -0.270114
-0.102813 -0.014841 -0.251268
-0.093188 -0.011289 -0.158330
0.061171 0.007607 -0.316959
-0.419735 0.455289 -0.153545
-0.051111 -0.194874 0.032733
-0.104582 -0.016543 -0.256395
-0.142445 -0.006602 0.265627
-0.140221 -0.009103 0.263851
-0.109238 -0.008138 -0.251054
-0.105378 -0.015903 -0.245890
-0.188092 -0.051231 -0.250172
-0.118418 -0.018889 -0.255265
-0.151289 -0.018292 -0.243560
-0.139554 -0.009651 -0.249750
-0.168403 0.032361 0.283161
-0.112022 -0.015516 -0.248679
-0.166914 0.004605 0.258584
0.304569 -0.028392 -0.282862
-0.134666 0.011429 0.278806
0.261685 0.007792 -0.029370
-0.388714 0.256865 -0.042496
-0.049382 -0.000450 -0.255397
-0.161804 0.016887 0.273009
-0.151266 0.005603 0.255604
-0.176873 0.006819 0.270284
0.107954 0.012500 0.110865
0.249576 -0.479088 0.100397
-0.173969 0.004430 0.251427
-0.102931 -0.014049 -0.249498
-0.169916 0.001393 0.264022
-0.215672 -0.089378 0.180420
-0.037933 0.001332 0.302745
-0.160166 0.000423 0.246379
-0.196583 -0.001752 -0.065625
0.387692 0.086523 -0.474712
-0.163021 0.010006 0.279052
-0.111123 -0.013208 -0.246808
0.149995 0.034043 0.329225
-0.093196 0.010600 -0.335686
-0.142679 0.006213 0.277270
0.433011 -0.000632 0.358572
-0.111678 -0.004288 -0.234956
0.309991 0.080796 0.421645
-0.097524 -0.015536 -0.243516
-0.152188 -0.023292 -0.242578
-0.017025 -0.452600 0.016191
-0.174065 0.006972 0.275729
0.021914 0.235145 0.447179
-0.100850 -0.024342 -0.258251
-0.077990 -0.009211 -0.246923
0.029991 -0.058844 0.160888
-0.061098 0.042045 0.085503
-0.068880 0.010621 -0.308951
-0.171602 0.010488 0.271438
-0.115237 -0.000159 -0.252613
-0.118920 -0.013747 0.210414
-0.113664 -0.019860 -0.253871
-0.105777 -0.019110 -0.238347
-0.280785 0.305342 0.233750
-0.098347 -0.019417 -0.264261
-0.144425 0.000788 0.306431
-0.165288 -0.006870 0.274058
-0.173459 -0.006843 0.266198
-0.199303 0.058995 0.275289
-0.155172 0.005513 0.287585
0.103093 -0.084292 0.112542
-0.131194 -0.022829 -0.259604
-0.166875 0.010573 0.268992
-0.142919 -0.000661 0.262239
-0.198227 -0.002964 0.124382
-0.171070 0.014553 0.278714
-0.084684 -0.015925 -0.264178
-0.256855 0.292394 -0.347441
-0.168069 -0.000351 0.272887
-0.098590 -0.013475 -0.249977
-0.096415 -0.010446 -0.247580
0.446846 -0.018490 0.288461
-0.172167 0.007839 0.275948
-0.207235 0.026979 0.244945
-0.167884 0.000342 0.270092
-0.080356 -0.017351 -0.254105
-0.100205 -0.012897 -0.253022
-0.177455 0.053516 -0.289636
-0.086103 -0.022312 -0.240535
-0.109946 -0.006801 -0.255856
-0.078464 -0.016972 -0.259519
0.412653 -0.057183 -0.053670
-0.222401 0.008059 0.250167
-0.154844 0.018954 0.288127
-0.172092 -0.004455 0.288762
-0.090306 -0.012939 -0.262032
-0.102752 -0.016181 -0.238106
-0.088144 -0.008397 -0.266042
-0.063858 -0.005975 -0.252883
-0.167572 0.003444 0.260995
-0.147879 -0.000209 0.287001
-0.197666 -0.042097 0.007482
-0.097352 -0.008438 -0.225064
-0.064713 -0.065132 0.252109
-0.170382 0.008506 0.268417
-0.105194 -0.020809 -0.250356
-0.085255 -0.015874 -0.247755
-0.097220 -0.006542 -0.262040
-0.176021 0.004122 0.272079
0.208439 -0.017723 -0.309448
-0.397610 0.482309 0.191623
-0.254228 0.095814 0.236763
-0.094007 -0.016212 -0.264749
-0.276851 0.141119 0.053343
-0.112255 -0.001128 -0.234652
0.163977 -0.013949 -0.148111
0.046852 -0.035841 -0.335102
-0.120071 -0.015027 -0.243995
-0.089522 -0.004565 -0.259218
0.224782 -0.104530 0.094895
-0.153481 0.002693 0.264984
0.211093 -0.022185 -0.089501
-0.140635 -0.005962 0.290513
-0.120624 -0.035577 -0.110159
0.435875 0.024261 0.200684
-0.153813 -0.003455 0.273798
-0.154648 0.006264 0.256176
-0.175953 -0.601380 -0.173476
-0.082383 0.272981 -0.429162
0.182658 0.000279 -0.022066
-0.372772 0.388514 -0.248810
-0.051681 -0.001664 -0.246492
0.105787 -0.032446 0.018153
-0.118044 -0.008744 -0.265662
-0.087142 -0.005789 -0.268820
-0.189505 -0.013437 0.248747
-0.105813 -0.023455 -0.257212
-0.139063 -0.011669 -0.270119
-0.243022 0.131711 0.267013
-0.151399 -0.035614 0.253125
-0.199394 0.026479 0.260901
-0.119954 -0.007049 -0.246967
0.404615 -0.028338 0.228146
-0.167014 0.006185 0.268533
-0.110375 -0.016303 -0.261124
-0.118898 -0.009659 -0.253265
0.336085 -0.036876 0.117777
-0.490103 -0.669299 0.271706
-0.333661 0.250012 -0.196852
-0.121349 -0.016115 0.179785
-0.051172 0.008263 -0.275630
-0.207497 -0.051476 -0.266694
0.153546 -0.178581 -0.009264
-0.088472 -0.030509 -0.247551
-0.315683 0.051085 -0.077017
-0.044055 -0.013254 -0.170046
-0.320329 -0.685198 0.420419
0.008052 0.016739 0.340713
-0.104997 0.049403 0.378862
-0.093919 -0.014151 -0.248590
-0.108383 -0.006531 0.294214
-0.175870 -0.014893 0.255526
-0.085935 -0.004683 -0.266287
-0.076263 -0.017390 -0.257202
0.148443 0.026474 -0.148084
-0.109344 -0.007302 -0.248981
-0.159249 -0.000826 0.272851
-0.162755 0.012530 0.284479
-0.094592 -0.010225 -0.249195
-0.153589 0.017785 0.275049
-0.084913 -0.025010 -0.256367
-0.157352 0.011050 0.275018
-0.186509 0.009040 0.269554
-0.232706 0.088049 -0.304065
0.213670 0.345333 -0.488741
0.096121 0.009246 -0.223167
-0.215713 -0.100536 -0.076284
0.207178 0.033772 0.238359
0.107191 -0.061961 0.050630
-0.096406 -0.017798 -0.251580
-0.183153 0.009928 0.243882
0.160249 0.273452 0.384021
-0.096449 0.012245 0.263526
-0.407198 0.391709 -0.106191
-0.105700 -0.018383 -0.248468
-0.151933 0.002604 0.268796
-0.184717 0.004606 0.248898
0.094923 -0.110464 -0.079647
-0.168550 0.012747 0.286172
-0.454591 0.496932 -0.047459
0.178412 0.031221 0.273500
-0.177194 0.007678 0.275378
-0.124021 -0.002176 0.307425
0.078225 -0.070146 0.224753
0.100682 0.014372 -0.044387
0.457163 -0.057750 0.169874
-0.107097 -0.009910 -0.243921
-0.071904 -0.008160 0.301416
-0.108751 -0.011360 -0.295047
-0.242607 0.237844 0.314237
0.216914 -0.018204 0.318803
-0.148711 0.008140 0.273640
-0.146296 -0.009569 0.272538
0.344936 0.242816 0.391640
-0.275762 0.110627 -0.022522
-0.111044 -0.015752 -0.259001
0.223779 0.011721 0.083191
0.065950 0.008290 0.222173
-0.092416 -0.008463 -0.274788
-0.000373 0.021598 0.301781
-0.124902 0.197650 -0.406488
-0.051449 0.042487 -0.249747
0.286215 -0.646819 0.012253
0.119121 -0.000412 -0.192145
0.209920 0.044734 -0.313326
-0.070967 -0.008667 -0.251702
-0.241321 0.059190 0.229539
-0.157321 0.003362 0.264865
0.021562 0.003898 0.281864
-0.300368 0.184668 0.159072
-0.079531 -0.025476 -0.006490
0.269018 -0.012784 0.314647
-0.099620 -0.014654 -0.247487
-0.159646 -0.000282 0.263313
-0.154364 0.004424 0.276724
-0.107356 -0.011000 -0.258448
0.098344 -0.032118 -0.233929
-0.084007 -0.012912 -0.264446
-0.177239 0.051782 -0.320608
-0.122598 0.000040 0.267198
0.026261 -0.006898 -0.307999
-0.183442 0.009375 0.261642
-0.063573 0.004888 -0.248916
-0.081315 0.007860 -0.266468
-0.291903 0.382471 0.355894
-0.152967 0.021900 0.286992
0.424906 0.059275 -0.411634
-0.189956 0.006863 0.263701
-0.128385 0.009453 -0.303873
-0.163737 -0.004254 0.271466
-0.114000 -0.021890 -0.232654
-0.424063 0.506893 0.347899
-0.211467 0.096182 0.321828
-0.075471 -0.005213 -0.251184
-0.165427 0.000785 0.253984
-0.094691 -0.021597 -0.260365
-0.154747 0.010712 0.265146
-0.139195 0.007108 0.234947
-0.138158 -0.020089 -0.247716
-0.059726 -0.016166 -0.266395
-0.207638 -0.000949 -0.183055
-0.117042 -0.016456 -0.259614
-0.137251 -0.002029 0.277398
-0.075419 -0.003899 -0.246175
0.340307 -0.059982 0.034496
-0.164730 -0.003846 0.275808
-0.219683 0.044633 0.032301
-0.095771 -0.013600 -0.249807
-0.068424 -0.016846 -0.257923
-0.081552 -0.019925 -0.248597
-0.231118 -0.000226 0.207137
-0.233876 0.422350 -0.427296
-0.160972 -0.010204 0.275982
-0.048475 -0.195666 -0.048478
-0.060321 0.018047 -0.243110
-0.321290 0.258341 0.219558
0.183172 0.095316 -0.149301
-0.145649 -0.000328 -0.238485
-0.071812 -0.015068 -0.246904
0.345405 0.073406 0.316019
-0.073142 -0.019012 -0.254608
0.192768 0.042021 -0.152910
-0.139202 0.017313 0.259107
-0.098844 -0.016128 -0.249598
-0.116536 -0.013878 -0.250127
-0.066680 -0.018654 -0.232974
-0.131767 0.002575 0.232362
-0.387646 0.388924 -0.043623
0.194505 -0.079782 0.119077
-0.174454 0.010940 0.262093
-0.182218 -0.004592 0.275867
0.367490 -0.726281 0.106299
0.113743 0.137450 0.457703
-0.077905 -0.012979 -0.252188
-0.172723 0.002396 0.275429
-0.167226 0.006262 0.269081
-0.093452 -0.013459 -0.253738
0.116365 -0.061651 -0.414060
-0.160873 0.004089 0.280408
0.143565 -0.023008 0.272398
-0.208476 0.331538 -0.442598
-0.214413 -0.232058 -0.003747
-0.358000 0.397953 0.268405
-0.162799 0.000050 0.267138
-0.142666 -0.001609 0.272731
-0.163135 0.004577 0.265992
-0.375513 0.320099 -0.015479
0.390860 0.030373 0.272005
0.011054 -0.631934 -0.396506
0.060255 0.086510 -0.363035
-0.386917 0.407827 -0.220471
0.026528 -0.334259 0.161487
-0.105146 -0.015168 -0.242415
-0.076750 -0.010673 -0.262689
0.194011 -0.079453 0.274482
-0.014086 0.054109 0.387116
-0.145114 -0.031460 -0.014861
-0.534394 0.632718 -0.113166
-0.476628 0.545103 -0.349887
-0.172500 0.020598 0.253686
-0.117989 -0.672268 -0.274094
0.434219 0.032868 0.013116
-0.168085 0.006586 0.273900
0.070044 0.025560 -0.358328
-0.182084 0.000108 0.277979
-0.139208 0.001877 0.273958
0.346724 -0.540066 -0.150670
-0.192260 0.013718 0.268710
-0.117246 -0.008505 -0.254473
-0.069371 -0.015525 -0.249580
0.328665 0.009459 0.012289
-0.181099 0.005070 0.283091
-0.003815 -0.009747 0.282365
0.202260 -0.596226 0.268361
-0.076482 -0.015394 -0.234895
-0.342462 0.375582 0.287652
-0.404611 0.437807 -0.232382
0.300401 0.011109 0.258832
0.451092 -0.027717 -0.278512
0.035226 0.033422 -0.321605
-0.047273 0.022936 -0.126469
-0.138120 -0.016598 -0.239799
-0.140912 -0.007377 0.270557
0.288525 -0.015474 -0.242122
0.165755 0.003126 0.253617
0.207045 -0.031696 0.091251
-0.141086 -0.006062 0.270493
-0.110489 -0.007414 -0.240998
-0.164832 0.001607 0.257271
-0.073837 -0.002672 -0.246957
-0.159039 -0.008651 -0.260986
0.100172 -0.329407 -0.038332
-0.104312 -0.018844 0.262451
0.211012 -0.455779 -0.345766
-0.124079 -0.009281 -0.259720
-0.320736 0.345137 -0.276623
0.400426 0.018891 -0.284494
-0.200682 0.040399 0.294624
-0.134805 0.004188 0.264664
-0.179853 0.010004 0.276820
-0.140416 -0.000729 -0.218887
-0.176415 -0.005477 0.262747
-0.102878 -0.009474 -0.255717
0.269989 0.232503 -0.470676
0.368528 0.033906 -0.295923
-0.133264 0.025754 -0.179281
-0.105060 -0.057279 -0.061153
-0.140308 0.005265 0.297246
-0.077166 -0.004066 -0.251187
-0.117816 0.000344 0.294202
-0.170962 0.002748 0.262595
-0.181091 -0.007103 0.273662
0.062295 0.011416 0.250856
-0.112593 -0.019406 -0.263073
0.224913 0.013093 -0.192057
-0.166720 0.001972 0.258240
0.241249 -0.050489 0.410037
-0.042119 0.001070 0.322746
-0.125898 -0.014146 -0.254002
-0.101195 -0.013875 -0.255583
-0.320904 0.343143 -0.294712
-0.447104 0.571532 0.152757
-0.301674 0.374365 -0.362056
-0.184498 -0.002686 -0.128345
-0.128190 -0.030616 -0.246762
-0.077929 -0.011071 -0.244206
-0.073910 0.341308 0.455700
-0.160823 0.003219 0.258706
-0.081693 -0.010293 -0.268944
0.304349 0.006706 -0.313566
-0.202657 -0.038715 0.035947
-0.134072 -0.010146 -0.247755
0.325254 0.008728 0.120771
-0.091531 -0.009475 -0.256981
0.179984 0.014018 0.323456
-0.093040 -0.012556 -0.245937
-0.120947 -0.024942 -0.250573
-0.144151 -0.004198 0.271124
-0.174590 0.006036 0.273246
-0.087487 -0.018483 -0.257123
0.044511 0.015963 -0.171300
-0.076134 -0.011118 0.260898
-0.374358 0.353847 0.154560
0.190590 0.155623 0.379522
-0.176634 0.005922 0.281572
-0.101718 -0.010476 -0.244783
-0.241080 0.154672 0.306679
-0.410206 0.429812 0.108816
-0.103392 -0.006680 -0.257052
0.235837 0.138974 -0.409047
-0.152810 -0.005502 0.271452
0.300899 0.038150 -0.009792
-0.125358 -0.023621 -0.272626
-0.354205 0.388923 -0.212801
-0.239255 0.053436 -0.111764
-0.222210 -0.003898 0.011145
0.311583 0.034448 0.152195
-0.176633 0.025318 0.345324
0.474740 -0.633268 -0.421176
-0.146009 0.009941 0.268596
-0.162780 0.014943 0.265356
-0.182091 -0.042252 0.243479
-0.034860 -0.002115 -0.315041
-0.174380 0.002701 0.281283
-0.141771 0.012731 0.278002
-0.096447 -0.007743 -0.255787
-0.123753 -0.029831 -0.229394
-0.215996 0.160206 -0.395376
-0.314301 0.183664 -0.063559
-0.175709 0.002855 0.273009
0.160712 -0.028718 -0.252895
-0.022287 -0.006529 -0.273015
0.284753 -0.641050 0.320920
0.287545 0.023209 -0.244001
-0.083492 -0.022947 -0.253126
-0.080064 -0.005446 -0.264600
-0.077130 -0.029097 -0.235287
-0.300011 0.274793 0.295660
0.231961 -0.010317 -0.173517
0.072986 0.005534 0.255456
-0.172764 0.002252 0.271435
-0.073517 -0.017203 -0.255374
-0.092620 -0.014814 -0.250082
-0.241741 -0.748287 0.266853
-0.103301 -0.010085 -0.248135
-0.151549 0.008015 0.279641
-0.197251 0.003791 0.284969
-0.170024 0.001891 0.265716
0.499440 0.196163 0.352502
-0.096798 -0.014119 -0.234140
-0.235040 0.072043 0.199436
-0.168662 0.008523 0.268452
-0.182222 0.014135 0.269827
-0.107384 -0.033824 -0.258806
-0.156662 0.003038 0.272099
-0.076448 -0.019733 -0.252712
-0.121882 -0.002063 -0.260823
-0.105665 -0.011683 -0.252453
-0.452216 0.452671 0.136433
-0.108122 -0.015010 -0.260517
0.124932 -0.449741 0.224929
0.070418 -0.600170 -0.013537
-0.069396 -0.013880 -0.246010
0.182153 0.012298 -0.313244
-0.296809 0.090368 0.015213
-0.387822 0.365951 0.170693
-0.107934 -0.010190 -0.258255
-0.095467 -0.016603 -0.250744
-0.111350 -0.017001 0.266396
-0.061814 -0.002549 -0.269973
-0.318648 0.329697 0.303321
-0.134365 -0.020395 -0.254034
-0.479470 0.521528 0.107966
0.331239 0.039088 -0.314931
0.179053 0.026741 0.307910
-0.054780 -0.037097 0.320960
-0.112002 -0.014169 -0.266712
-0.091741 -0.006146 -0.247945
-0.114592 -0.010765 0.053906
-0.439638 0.466532 0.233889
-0.106648 -0.043190 0.209454
-0.077590 -0.006367 -0.255652
-0.075784 -0.016454 -0.254512
-0.091913 -0.011645 -0.259137
-0.153171 0.000940 0.272876
-0.154622 0.000524 0.265200
-0.098579 -0.015179 -0.245413
-0.179590 0.012603 0.261496
-0.127539 0.003027 0.259740
-0.074963 -0.010437 -0.258608
-0.102527 -0.008902 -0.251130
-0.184174 -0.006549 0.278991
-0.174816 -0.002855 0.272343
-0.375267 0.347058 0.295255
-0.067994 -0.024082 -0.274188
-0.178052 0.019502 0.301630
-0.139584 -0.013795 -0.253271
-0.091563 -0.011282 -0.256739
-0.159569 0.001163 0.271778
0.010079 -0.275837 -0.021350
-0.171564 0.008027 0.278303
-0.108279 -0.012002 0.249419
0.050045 0.059017 0.363058
-0.106678 -0.019861 -0.269487
-0.078402 -0.015786 -0.256201
-0.090055 -0.013908 -0.254530
-0.162009 0.009490 0.258600
-0.163932 0.001022 0.061112
-0.370556 0.399167 0.225055
-0.222264 0.096996 -0.336248
-0.102435 -0.009090 -0.241772
-0.112213 -0.039074 -0.094031
-0.127958 -0.005143 -0.246699
0.047126 0.005759 0.230989
-0.101805 -0.018248 -0.264606
-0.179053 0.015293 0.267266
0.341833 -0.738741 -0.381799
-0.105987 -0.018398 -0.238226
-0.094824 -0.019797 -0.252674
-0.217620 -0.015356 0.274886
-0.132685 -0.002567 -0.238782
-0.098733 -0.007192 -0.247848
-0.115396 -0.013796 -0.245092
-0.166525 0.118396 0.374295
0.013813 -0.028044 -0.121613
-0.117179 -0.011782 -0.237479
0.029604 -0.017881 -0.012944
-0.282815 0.218506 0.200956
0.220574 0.320698 0.470934
-0.264164 -0.001354 0.094199
-0.027623 -0.014853 -0.271412
-0.059761 -0.016424 -0.270930
0.103936 0.014338 0.388439
0.484104 -0.005130 -0.159467
-0.079207 -0.018971 -0.270519
-0.167675 0.010489 0.275759
-0.075587 -0.017702 -0.234181
-0.180452 0.017927 0.280363
-0.167647 0.011395 0.267442
-0.211055 0.228920 -0.311460
-0.175771 0.011477 0.272831
-0.137868 0.000912 0.274354
0.201618 -0.685057 -0.133501
-0.397891 0.423887 -0.273164
-0.308449 0.214953 -0.004827
-0.070212 -0.005868 -0.248204
-0.105415 -0.014648 -0.240117
0.047328 -0.004451 -0.244451
-0.127419 -0.006536 0.284280
-0.141786 0.006788 0.275482
-0.075138 -0.017624 -0.250815
0.154614 0.005399 0.029632
-0.370110 0.315936 -0.226924
0.033084 -0.374978 0.020917
-0.004067 0.016387 -0.290515
-0.086266 -0.643407 -0.098027
-0.155006 0.020253 0.284199
-0.166197 0.011797 0.267852
-0.094178 0.001818 -0.100358
-0.155612 0.001041 0.277169
-0.089549 -0.011170 -0.250953
0.245072 0.029305 0.118267
-0.107718 -0.009438 -0.253667
-0.136806 0.002888 0.136983
-0.362206 0.412492 -0.337271
-0.169931 0.020566 0.280326
0.186124 0.046241 -0.284644
0.078057 0.039188 -0.001342
-0.221540 0.150536 0.397279
-0.163682 0.003604 0.281603
-0.374781 0.381271 -0.087267
-0.073725 -0.018454 -0.248939
0.157945 -0.013597 0.080958
-0.098094 -0.013776 -0.252337
-0.337876 0.139290 -0.008564
-0.149792 -0.007909 0.278849
-0.182615 0.011604 0.279156
-0.153291 -0.003342 0.276385
-0.164445 0.007838 0.277415
-0.316637 0.195803 -0.143910
-0.098346 -0.008915 -0.254746
-0.165983 -0.014231 0.273319
-0.113837 -0.018448 -0.239674
0.193724 -0.032841 -0.400237
-0.398265 0.392268 -0.018353
-0.127059 0.000745 -0.286251
-0.092258 -0.011693 -0.252142
0.088284 -0.013217 0.142626
-0.165563 0.008694 0.268534
0.202825 0.001656 0.191298
0.250933 -0.322602 -0.136778
-0.108308 -0.008362 -0.251172
-0.145837 0.010314 0.277764
-0.196146 0.009001 -0.377575
-0.292332 0.155786 -0.227987
-0.144841 0.004944 0.271137
-0.247588 0.271666 0.377794
-0.321773 0.320331 -0.248036
-0.077221 -0.018871 -0.250683
-0.088655 -0.015833 -0.250938
-0.091298 -0.282560 0.223040
-0.167984 0.002645 0.265499
0.326487 -0.004818 -0.038921
-0.076850 -0.012048 -0.254027
-0.089623 -0.004888 0.225793
-0.098235 -0.021661 -0.247411
-0.347322 0.342704 -0.178487
-0.082747 -0.018955 -0.250859
-0.100857 -0.022102 -0.265007
0.006792 -0.043991 -0.397054
-0.176415 0.013838 0.273978
-0.006354 -0.149182 -0.031988
-0.122920 -0.014691 -0.246696
-0.092468 -0.019621 -0.250628
-0.182730 0.012340 0.270528
0.449405 -0.010086 -0.334735
-0.160156 -0.013625 0.259999
-0.162718 0.011967 0.271627
-0.174207 0.005301 0.270839
-0.140276 -0.018281 -0.235237
-0.339624 0.329689 0.239852
-0.065765 -0.017561 -0.253780
-0.114455 -0.007835 -0.256003
-0.109841 -0.000684 0.268621
-0.138780 -0.000249 0.276999
-0.068394 0.019774 0.236406
-0.178469 0.007043 0.251622
0.354880 0.263668 -0.369180
-0.004190 -0.001771 0.253256
0.265525 0.033760 0.155275
0.199488 -0.099334 -0.049659
-0.134755 -0.013331 -0.244318
0.277978 -0.013134 -0.214235
-0.044650 -0.002733 -0.276836
-0.096304 -0.016742 -0.246416
-0.169414 0.010618 0.281095
-0.100988 -0.015050 -0.259094
-0.123008 -0.008545 -0.245477
-0.167214 0.016572 0.265165
0.420865 0.017875 -0.187946
-0.054631 -0.014681 0.274904
-0.101462 -0.012996 -0.257830
-0.386348 0.357916 0.108368
-0.175900 0.020235 0.276689
-0.115144 -0.028292 -0.233225
0.254790 0.014081 -0.322625
-0.072210 -0.027447 0.334041
-0.141511 0.002882 0.274158
-0.115789 -0.013008 -0.258321
-0.074321 -0.009369 -0.240172
-0.121417 -0.008664 -0.251625
-0.110832 -0.005803 -0.253652
-0.175950 -0.000451 0.255569
-0.148490 0.009327 0.286298
-0.178387 0.020585 0.264166
-0.120672 -0.009747 -0.251140
-0.416597 0.486993 0.113870
-0.388127 0.341742 0.151237
-0.160236 0.007696 0.277497
-0.312073 0.334978 0.264708
-0.157224 -0.018191 -0.106649
-0.063047 0.044525 -0.368994
-0.022496 -0.202901 0.172444
-0.104924 -0.018190 -0.251888
0.397654 0.038019 -0.115056
-0.087376 -0.011630 -0.254613
-0.112112 -0.056106 -0.176412
-0.121919 -0.021033 -0.244638
0.223895 0.002678 0.186468
-0.321636 0.284892 -0.017853
0.079388 0.008043 0.344106
0.363251 0.042981 0.175510
-0.297992 0.261572 -0.316642
0.056523 0.341623 0.470305
-0.114399 -0.010591 -0.251962
-0.112517 -0.016167 -0.256422
-0.016234 -0.037109 0.190413
-0.165097 0.005855 0.277215
-0.102056 0.001101 -0.247600
-0.151734 0.002427 0.262569
-0.109624 -0.018705 -0.251666
0.441823 0.108026 -0.335647
0.412350 -0.026446 -0.123557
-0.112805 0.001385 -0.256477
-0.108994 -0.090849 -0.291593
-0.178317 0.005597 0.257592
-0.223470 0.035065 -0.158528
-0.168838 -0.007764 0.306398
-0.092770 -0.013461 -0.257324
-0.172460 0.016630 0.263221
-0.102693 -0.006537 -0.241169
-0.180058 -0.041459 0.065085
-0.105342 -0.019734 -0.278126
-0.096520 -0.011267 -0.249841
-0.152440 0.004630 0.274421
0.014708 0.007364 -0.181855
-0.172714 0.013937 0.279704
0.307890 -0.023330 -0.077853
-0.307975 0.249288 -0.272917
-0.081709 -0.015588 0.326700
-0.089199 -0.023905 -0.256325
0.186288 -0.180418 0.154017
-0.414510 0.440102 0.004604
-0.169192 -0.026319 0.137143
-0.300467 0.131223 0.221196
-0.162906 -0.003778 0.203541
0.203569 -0.051349 0.163518
-0.063300 -0.020690 -0.254242
-0.113756 -0.022771 -0.241093
-0.428248 0.440835 -0.097669
-0.111233 -0.054182 0.172787
0.018922 -0.004315 -0.225731
-0.177393 0.020775 0.269815
-0.080497 -0.669912 0.475231
-0.124313 0.013161 0.229664
-0.125116 0.024430 0.294532
-0.141015 0.010957 -0.235229
-0.082406 -0.010804 -0.265296
-0.175498 0.012608 0.278197
-0.105832 -0.021993 -0.238470
-0.168356 -0.003325 0.267687
-0.104854 -0.017047 -0.234852
-0.086895 -0.013922 -0.237366
-0.074816 -0.014418 -0.261391
-0.075275 -0.005398 -0.251017
-0.291295 0.124002 -0.124701
-0.245374 0.087335 -0.136477
0.190286 -0.011438 -0.303497
-0.146794 -0.004697 0.269294
-0.084025 -0.019177 -0.249822
-0.187841 0.010468 0.256092
-0.376782 0.373494 0.048365
-0.113180 -0.010174 -0.244968
-0.235044 0.052987 0.283854
-0.084208 -0.014390 -0.255163
-0.144877 0.018760 0.277357
-0.344366 0.313700 0.161379
0.018351 -0.011248 -0.277642
0.320945 0.051291 0.423675
-0.205392 -0.030499 0.253292
-0.078248 -0.014436 -0.260472
-0.431737 0.584274 0.341077
-0.332769 0.252451 0.129850
0.372620 -0.553231 -0.318094
-0.118836 -0.013682 -0.224053
-0.193441 0.009433 0.261581
0.525081 -0.703487 -0.207883
-0.090512 -0.006183 -0.263780
0.372383 0.078204 0.427535
0.215973 -0.005398 -0.242908
0.034057 -0.039951 -0.165915
-0.164523 -0.000025 0.267480
0.257403 -0.096074 0.234345
-0.230320 0.059677 0.279153
-0.096727 -0.017487 -0.252436
-0.326844 0.382610 -0.284261
-0.152815 0.008609 0.295617
-0.251689 0.175499 -0.216572
-0.409608 0.442026 0.056133
-0.100273 -0.017178 -0.253170
0.136128 -0.009100 -0.332689
-0.174126 0.095048 -0.241602
-0.095599 -0.014482 -0.248383
0.258822 -0.000020 0.416330
-0.115200 -0.022464 -0.256300
-0.120540 0.019295 0.284470
-0.158290 0.008638 0.281128
0.412717 -0.041493 0.058426
-0.085626 -0.004736 -0.249644
-0.095298 -0.007771 -0.250078
-0.162035 -0.007983 -0.228538
-0.152775 0.007731 0.272749
0.391966 0.051067 -0.319036
-0.105924 -0.014813 -0.256206
0.198955 0.088771 0.462594
-0.078705 0.012571 0.257223
0.244859 0.040254 -0.150976
-0.186261 -0.047389 0.185768
-0.006372 -0.060580 -0.085621
-0.175974 -0.001551 0.251952
0.266294 0.044726 0.253317
0.525305 0.207803 0.103783
-0.074166 -0.008934 -0.263926
-0.132405 -0.007525 -0.245386
-0.171572 0.007685 0.266327
0.194439 0.227495 0.283033
-0.232692 0.028965 0.058688
-0.325382 0.326396 -0.220522
-0.163941 0.009189 0.277809
0.192817 0.022252 -0.190019
0.166519 -0.039653 -0.210352
-0.121424 0.013268 0.293064
0.224487 0.045086 0.366728
-0.079625 -0.013808 -0.260366
-0.336373 0.344581 0.295903
-0.099972 -0.010773 -0.252398
-0.109158 -0.018659 -0.241180
-0.181137 0.001383 0.260827
0.042759 0.083499 0.408720
-0.097903 -0.004370 -0.257146
0.148831 -0.223929 -0.029588
-0.344707 0.371978 -0.357005
-0.091087 -0.010499 -0.245588
0.013042 -0.186757 -0.357251
-0.150593 -0.001945 0.270451
-0.155890 -0.084889 0.334426
-0.085113 -0.005464 -0.259961
-0.264359 0.041641 -0.089063
0.191760 -0.069294 0.040685
-0.123879 0.008086 0.242857
-0.131252 0.002661 -0.228671
-0.082886 -0.019217 -0.256414
-0.100732 -0.017124 -0.249733
-0.176368 -0.012992 0.258622
0.222382 -0.025556 -0.015990
-0.101516 -0.021430 -0.260585
-0.087454 -0.011503 -0.237427
-0.115319 -0.011295 -0.239083
-0.147497 -0.016892 0.191261
-0.155538 0.003647 0.295259
-0.401417 0.323273 0.013501
-0.084621 -0.013542 -0.258353
0.323988 -0.613197 0.391537
-0.095864 -0.014595 -0.264443
-0.124214 0.006385 0.263565
-0.056656 -0.010312 -0.261445
-0.107711 -0.010493 -0.254376
-0.095508 -0.039848 -0.219917
-0.374161 0.416569 0.254263
-0.168864 -0.012778 0.284017
-0.109536 -0.012181 -0.251204
0.207639 0.250204 -0.293149
-0.294228 0.323490 0.380378
-0.100889 -0.008931 -0.255668
-0.088199 -0.014334 -0.255893
-0.178290 0.004761 0.272236
0.135577 -0.255048 -0.466949
-0.419901 0.396001 0.043692
-0.331814 0.355935 0.246378
-0.089742 -0.019841 -0.225619
-0.101160 -0.011855 -0.250837
0.303219 0.062098 -0.364652
0.103924 0.058165 -0.398504
-0.163564 -0.001958 0.283336
-0.132842 0.002356 0.284165
-0.109756 -0.016215 -0.240095
-0.097342 -0.015908 -0.256699
-0.082698 -0.014605 -0.257877
-0.497212 0.682813 -0.004714
-0.073880 -0.017653 -0.248219
-0.107722 -0.008717 -0.250225
-0.342996 0.225113 0.143614
-0.092657 -0.006363 -0.251416
-0.109234 -0.013142 -0.256453
-0.044622 -0.108512 0.339884
-0.165714 0.035872 -0.344222
-0.312867 0.476541 0.384614
0.015563 -0.020839 -0.252866
-0.199456 -0.034732 -0.212448
-0.157928 0.006105 0.277605
0.313590 -0.031739 -0.227966
-0.115331 0.006440 0.211369
-0.171803 0.008443 0.265128
0.189760 -0.016491 -0.266872
0.033155 -0.083856 0.284622
0.371427 -0.224355 0.326909
-0.087003 -0.010234 -0.259892
-0.223541 0.104495 0.287909
-0.113046 -0.012716 -0.256543
0.032269 -0.013347 -0.233492
-0.193884 0.006552 0.280440
-0.100225 -0.012851 -0.247288
-0.161216 0.009492 0.272755
-0.149099 -0.037744 0.159675
-0.162371 -0.008144 0.268048
-0.106693 -0.016286 -0.247997
-0.111794 -0.005237 -0.249489
-0.306492 -0.735294 -0.341609
-0.158868 -0.006008 0.269907
0.103003 -0.297711 0.012485
-0.139931 0.100548 -0.362945
-0.508033 0.584109 -0.013583
-0.169254 0.016808 0.286707
-0.381367 0.483303 0.295886
-0.402854 0.412300 -0.133634
-0.113431 -0.018846 -0.255837
-0.109679 -0.013437 -0.249357
-0.124204 0.126529 -0.350029
-0.169421 0.014641 0.269159
-0.090814 -0.022258 -0.243471
-0.077215 -0.019753 -0.257143
-0.017063 -0.091304 0.024584
-0.166931 0.011078 0.289026
-0.172878 0.001641 0.274512
-0.064702 -0.018943 -0.255395
-0.178734 0.058032 0.276959
-0.118696 -0.012591 -0.254313
0.388813 -0.032979 0.329397
-0.175461 0.009928 0.282460
0.004150 0.038194 -0.241650
0.162417 0.027089 0.076633
0.345041 0.181326 0.290204
-0.216786 -0.024967 -0.096168
-0.176297 0.001253 0.268282
0.240936 -0.672134 -0.305932
-0.182399 0.004693 0.275187
-0.014441 -0.020456 0.132342
-0.264772 0.140894 0.288967
-0.066269 -0.019483 -0.260339
-0.141845 0.011409 0.276957
0.501537 0.004057 -0.077907
-0.089598 -0.007627 -0.256116
-0.159654 -0.010162 0.246916
0.055271 0.017459 0.227293
-0.081027 -0.020597 -0.244823
-0.088182 -0.014299 -0.242221
0.293730 -0.078026 0.327677
-0.094862 -0.014011 -0.252973
-0.011898 0.033480 -0.384706
0.038698 -0.009093 -0.248578
-0.082366 -0.010970 -0.245268
-0.129095 -0.383550 -0.016735
-0.164209 0.010591 0.287897
-0.351862 0.331048 -0.088675
-0.172762 0.005205 0.265655
-0.137739 -0.012452 -0.249807
-0.098850 -0.001808 -0.242038
-0.125084 -0.014408 -0.240096
-0.459845 0.493151 0.338048
-0.097165 -0.014033 -0.256736
-0.135557 0.006197 0.285453
-0.313523 0.523530 -0.386603
-0.152130 0.004977 0.262380
0.169679 -0.012609 -0.289924
-0.097220 0.033233 0.340236
-0.158417 0.000130 0.273183
-0.099285 -0.013255 -0.241862
-0.149169 -0.001318 0.263999
-0.087867 -0.136292 0.132861
-0.168985 0.002702 0.280822
-0.098116 -0.012797 -0.249723
-0.115980 -0.020290 -0.247800
-0.113119 -0.012258 -0.219998
0.390608 0.039809 0.324232
-0.175606 0.013929 0.280852
-0.053543 0.070008 -0.359772
-0.033044 -0.514687 0.308419
-0.092209 -0.006852 -0.263516
-0.161847 -0.004972 0.279186
-0.114718 -0.022311 -0.250500
-0.158076 -0.001049 0.295093
0.229845 -0.291039 0.241820
-0.163395 0.006798 0.270192
-0.140822 0.013046 0.294370
-0.382637 0.362912 0.245686
-0.000375 -0.016681 -0.240726
-0.186371 -0.072944 0.072329
-0.480592 0.670630 -0.205651
-0.163910 0.006590 0.263909
0.174156 -0.699451 0.446249
-0.165255 -0.011576 0.289860
-0.130710 -0.029990 0.107895
-0.090891 -0.010443 -0.257364
-0.061026 -0.039880 -0.235708
-0.096709 -0.410521 0.101502
-0.232499 0.089816 0.247195
0.347413 0.011624 0.199179
0.361910 0.025257 -0.002036
-0.177285 0.002540 0.256311
-0.342058 0.351808 0.231932
-0.069328 -0.012900 -0.263694
-0.153024 0.000801 0.272571
-0.158431 0.008775 0.269310
0.145652 -0.000364 -0.342469
-0.020871 0.054560 -0.162653
-0.065445 -0.013335 -0.269727
-0.167497 0.002221 0.274152
-0.164910 -0.003080 0.265559
-0.086142 -0.012934 -0.265461
-0.162064 -0.013562 0.264047
-0.090269 0.012441 0.281060
-0.054803 -0.033581 -0.033907
-0.153592 -0.014642 -0.228432
0.497150 -0.006302 0.159473
0.310272 -0.019854 0.015567
0.287278 -0.003665 -0.134624
-0.097415 -0.012482 -0.249217
0.189540 -0.594091 -0.232484
-0.109668 -0.017533 -0.255205
-0.184643 -0.494304 -0.085669
-0.089823 -0.004993 -0.258956
-0.384442 0.364924 0.161563
-0.018597 -0.001469 -0.238759
-0.078971 -0.017150 -0.254255
-0.150908 -0.005713 0.282886
0.045358 -0.441093 -0.369268
0.231774 -0.055318 0.147830
-0.074757 0.001335 -0.276441
-0.098119 -0.013616 -0.244288
-0.104034 -0.018599 -0.250419
-0.092751 -0.015202 -0.257289
-0.083803 -0.013703 -0.242381
-0.252244 0.025848 0.063084
-0.184541 0.010506 0.269674
-0.206162 0.009165 0.271057
-0.119802 -0.014003 -0.208660
0.215680 -0.015861 0.315218
-0.284670 0.407194 -0.331612
-0.125217 -0.018134 -0.245797
-0.095687 -0.011623 -0.255527
0.383736 -0.030591 0.392035
-0.182512 0.014713 0.265125
-0.090454 0.000706 -0.249731
-0.152876 0.006622 -0.201643
-0.171663 -0.001643 0.276370
-0.366232 0.455963 0.407435
-0.162355 0.020963 0.266356
-0.115673 -0.008473 -0.246859
-0.152057 0.017400 0.268491
-0.117993 -0.016431 -0.221164
-0.098770 -0.005573 0.275728
0.016026 -0.061358 0.076287
0.226444 0.025456 -0.201631
-0.144716 -0.006524 -0.248623
-0.167257 0.004744 0.260493
-0.136200 0.012654 0.273466
0.292496 0.018433 0.351967
-0.191714 -0.035230 -0.129339
-0.091788 -0.014732 -0.252661
-0.041900 0.011051 -0.308440
-0.085307 -0.008414 -0.240277
-0.105819 -0.016703 -0.241148
-0.141194 0.274323 0.364148
-0.102144 -0.013835 -0.245659
-0.113312 -0.002868 -0.242417
-0.084675 -0.013884 -0.251222
-0.092929 -0.006642 -0.249772
-0.094997 -0.011302 -0.248430
-0.107215 0.222416 0.415217
-0.153633 0.001628 0.266344
-0.162129 0.005377 0.274332
-0.352287 0.231271 -0.120298
-0.228823 0.118879 0.288607
0.348747 -0.029996 -0.009169
-0.171733 0.009179 0.279180
-0.002814 -0.047149 0.350350
-0.114720 -0.014642 -0.247331
-0.107840 -0.021051 -0.241325
-0.120883 -0.012387 -0.245206
-0.221246 0.239602 0.336469
0.178980 -0.156620 0.115489
-0.160309 0.006202 0.266437
-0.083156 -0.018564 -0.255650
-0.140762 -0.012835 0.270421
0.372697 0.126985 0.395817
-0.449510 0.515311 0.027756
-0.109846 -0.009626 -0.259438
-0.271616 -0.496377 0.071259
0.295463 0.079792 -0.323449
0.061098 0.008045 0.204251
-0.100113 -0.003035 -0.258897
-0.128429 -0.071310 0.042436
0.181298 0.012405 -0.178661
-0.095909 -0.015247 -0.254182
-0.317895 0.255751 0.302724
-0.370051 0.477253 -0.282398
-0.189610 -0.040832 0.283610
-0.162205 -0.049996 -0.002791
0.207137 -0.464877 0.326490
0.313229 0.204848 0.066403
0.285156 -0.005048 -0.372650
-0.167633 0.005356 0.272122
-0.150005 -0.010941 0.286313
-0.136008 -0.012126 -0.257718
-0.212016 0.086181 0.290901
-0.167962 0.008124 0.268358
-0.083008 -0.027815 -0.258261
0.056659 0.015436 -0.096783
-0.150687 0.012341 0.284777
0.450135 0.028020 0.387551
0.108899 -0.022369 0.261633
-0.069142 -0.016881 -0.270657
-0.181707 0.004084 0.266310
-0.130034 -0.020096 -0.258535
-0.132449 -0.019928 -0.240938
-0.155722 -0.007942 -0.021561
-0.117017 -0.003073 -0.263406
-0.175113 0.006049 0.265693
-0.090869 -0.007650 -0.252778
-0.081279 -0.014947 -0.260717
-0.150938 0.001722 0.272703
0.184623 0.007144 -0.325049
0.329300 0.018034 0.348189
0.177413 0.038468 0.400903
-0.185913 0.011966 0.278711
-0.240353 0.052847 -0.232603
-0.156633 0.006375 0.262606
-0.102099 -0.018624 -0.251539
0.022162 -0.008260 -0.303240
-0.103920 -0.019928 -0.236842
0.126952 0.120918 -0.391670
0.142983 -0.250098 0.093611
-0.289428 0.311357 -0.275390
0.019151 -0.135135 0.293962
-0.102856 -0.014764 -0.258858
-0.197425 -0.577879 0.083369
0.330412 0.037649 -0.161379
0.107704 -0.006665 -0.281725
0.106455 -0.032213 -0.026409
-0.165487 0.018740 0.264883
0.224096 -0.001798 -0.086247
-0.144384 -0.006478 0.264173
-0.090765 -0.009191 0.287093
-0.243971 -0.058946 0.015548
-0.067357 -0.013787 -0.253186
0.159555 -0.046925 0.279259
-0.086301 0.017429 0.276865
0.346965 0.013197 0.280736
-0.072852 -0.014115 -0.251404
-0.195981 -0.005775 0.316634
-0.115412 -0.017129 -0.254087
-0.082484 -0.009209 -0.260336
-0.178980 0.005123 0.277477
0.183205 -0.264485 -0.088509
0.199571 -0.019340 0.264448
-0.076489 -0.013270 -0.252031
-0.412741 0.467668 -0.033002
-0.179786 -0.027701 0.219350
-0.226521 0.003854 0.195161
0.240452 0.030338 -0.288146
-0.079120 -0.016645 -0.255526
-0.155158 0.008657 -0.263073
0.257826 -0.022823 0.029491
-0.246291 0.191262 -0.284679
0.077059 0.020503 -0.268869
-0.161846 0.014997 0.262691
-0.106169 -0.010505 -0.258722
-0.151892 -0.146860 -0.224682
-0.068280 0.004558 -0.017840
-0.086722 0.010370 -0.220240
-0.265286 0.225558 -0.378225
-0.211707 0.043331 0.289912
-0.139448 -0.003431 0.300780
-0.121260 -0.009816 -0.252204
-0.177617 -0.008662 0.263370
-0.094456 -0.008320 -0.262079
-0.346134 0.380007 -0.214959
0.332416 -0.008952 -0.116443
-0.106244 -0.017518 -0.246193
-0.149299 -0.038772 -0.263098
-0.160219 -0.000693 -0.261880
-0.196914 -0.019013 0.162199
-0.173978 -0.005966 0.247255
0.131496 -0.014018 -0.303853
-0.076682 -0.011827 -0.251799
-0.069180 -0.017430 -0.264062
-0.090069 -0.019952 -0.249302
0.131283 -0.125254 -0.232206
-0.069823 -0.008671 -0.269104
-0.043737 -0.070571 0.060521
-0.110457 -0.015009 -0.248892
-0.372250 0.428986 0.152513
-0.162168 0.002566 0.249300
-0.081572 -0.014419 -0.253600
0.104480 0.006423 0.308836
-0.226399 0.097034 -0.343511
0.124342 -0.108725 0.321862
-0.020148 0.005806 0.284545
-0.401426 0.409275 0.328559
-0.085377 -0.011488 -0.259700
-0.079057 -0.010076 -0.251311
-0.168298 0.006800 0.265908
-0.006773 -0.003298 0.276601
-0.099279 -0.010757 -0.251886
-0.167560 0.000437 0.271519
-0.086181 -0.004816 -0.207791
0.302357 0.012048 -0.271816
-0.161785 0.009412 0.269014
-0.101439 -0.015297 -0.264081
-0.176981 0.005939 0.268202
-0.083293 -0.012193 -0.251671
-0.167371 0.015488 0.251552
-0.387796 0.496594 -0.123771
-0.168742 0.005777 0.260602
-0.297848 0.322218 -0.329718
0.143729 0.007934 0.141603
-0.010984 0.006087 -0.000108
-0.147783 0.008545 0.300902
0.343353 0.039669 0.048957
-0.286196 0.250230 -0.129131
-0.409582 0.362227 0.078999
-0.212119 0.002085 -0.251089
-0.183941 0.015601 0.260333
-0.149782 0.005396 0.286665
-0.159876 0.003927 0.270397
0.210735 -0.042466 -0.165261
-0.154455 0.005271 0.278830
-0.148121 0.007735 0.270905
-0.102607 -0.007518 -0.248388
-0.074296 -0.014563 -0.251039
-0.181141 0.010257 0.271819
-0.124373 -0.004123 -0.249032
-0.178315 0.023793 0.270537
-0.207455 -0.005426 0.229489
-0.160039 0.004783 0.270392
-0.034846 0.031253 0.152700
0.107891 -0.033659 0.163134
0.321068 0.003546 -0.166571
-0.128456 -0.007164 -0.248324
-0.182226 0.009893 0.266927
-0.394461 -0.689741 -0.249991
0.257945 0.037952 -0.342047
-0.032025 0.132932 0.430099
0.176976 0.026506 -0.274448
-0.073321 -0.017164 -0.269640
-0.201620 0.162295 -0.308235
-0.304772 0.325428 0.319179
0.284607 0.215170 0.438537
-0.074029 -0.008983 -0.254093
-0.439137 0.466805 -0.340052
-0.204239 -0.074864 -0.051580
-0.098735 -0.006550 -0.254969
-0.238670 -0.002619 0.106653
-0.187430 0.091204 0.353508
-0.014385 -0.387707 -0.165852
0.284262 -0.026667 0.079300
-0.142631 -0.014010 -0.053722
-0.171933 0.007516 0.274915
-0.155199 0.010090 0.265460
-0.166345 0.003548 0.267002
-0.231719 0.109518 -0.087021
-0.072860 -0.022466 -0.248992
-0.067089 -0.007558 -0.261416
-0.117639 -0.020840 -0.238002
0.075469 0.024284 0.140856
-0.178656 -0.000021 0.271585
-0.022984 -0.271742 -0.092241
0.017690 0.023209 -0.356697
-0.085193 -0.008683 -0.255461
0.195044 0.043708 0.179608
-0.101532 -0.016285 -0.249138
-0.193546 0.002782 0.172382
-0.090062 -0.011030 -0.244301
-0.091165 -0.010402 -0.254430
0.147945 -0.021505 -0.292560
0.257680 -0.031705 0.158472
-0.326312 0.296737 0.078993
-0.188376 0.015810 0.266400
-0.254057 0.118609 0.168084
-0.097013 -0.014313 -0.246568
-0.123519 -0.012292 -0.242772
-0.175163 0.003242 0.275300
-0.098786 -0.014214 -0.256232
-0.101611 -0.005706 -0.232073
0.365358 0.035441 0.118428
-0.126838 -0.018306 -0.246737
-0.164262 0.000656 0.250789
-0.295067 0.201529 -0.307536
-0.144881 0.003756 -0.246705
0.272467 0.011752 -0.170396
-0.093176 -0.015095 -0.244511
-0.026440 -0.005767 0.350250
-0.122873 0.013270 0.269004
0.335198 0.018639 -0.399003
-0.125279 -0.014488 -0.233137
-0.040461 -0.047046 0.226059
-0.193491 0.019833 -0.205607
-0.046537 0.001235 -0.236597
-0.082942 -0.014127 -0.258903
-0.147936 0.007925 0.247667
-0.184003 0.014890 0.273917
0.143531 -0.148395 -0.103971
-0.195621 0.234798 0.438328
-0.170720 0.005249 0.278699
0.021502 -0.014979 0.278251
-0.343565 0.341093 -0.261245
-0.109730 -0.010860 -0.254044
0.033165 -0.473948 -0.077859
-0.136578 -0.012681 -0.247212
0.218082 0.012157 0.237966
-0.165091 0.007222 0.261088
-0.261499 -0.656049 -0.107744
-0.081642 0.000627 -0.272145
-0.375066 0.402836 -0.151375
-0.174312 0.012075 0.281834
-0.164465 0.007856 0.268533
-0.035124 -0.549099 -0.200092
-0.067945 -0.011336 -0.255118
-0.081854 -0.009773 -0.240127
-0.038067 0.362796 -0.468936
-0.089875 -0.016932 -0.261300
-0.155415 -0.004431 0.276435
0.047013 -0.017880 0.279027
-0.131697 -0.008463 -0.238788
-0.427850 0.572014 -0.059919
0.192699 -0.001299 0.268328
0.073026 -0.228967 0.020324
-0.180793 0.011886 0.272016
0.256808 -0.018019 -0.101237
-0.157792 0.012775 0.263846
-0.072366 -0.030855 -0.250758
-0.368444 0.323363 0.272850
-0.085468 -0.014518 -0.288319
0.464650 0.050282 -0.047618
-0.077848 -0.011461 -0.251941
-0.163093 -0.045157 0.125446
-0.169362 0.008905 0.267748
-0.106397 0.037818 0.295195
0.230962 0.065021 -0.413679
-0.175902 0.012021 0.277398
0.390320 0.025258 0.073613
-0.193373 -0.003419 0.277665
-0.075762 -0.011691 -0.256343
-0.351670 0.352062 0.365750
-0.104922 -0.016882 -0.273303
-0.169143 0.016799 0.282143
-0.150970 -0.008875 -0.241167
-0.089549 -0.007399 -0.256741
-0.058930 -0.008139 -0.252455
0.193973 -0.678708 0.210007
-0.123734 -0.005596 -0.232797
-0.375101 0.415235 0.247678
-0.348885 0.322759 -0.252936
-0.304267 0.293175 0.352174
0.017714 -0.440653 0.140891
-0.423429 0.396101 -0.038104
-0.004982 0.015390 0.321432
-0.185213 0.006085 0.278731
-0.074858 -0.017385 -0.255011
-0.151321 0.005910 0.272301
-0.185427 0.008396 0.278055
-0.091453 -0.013856 -0.259665
-0.077213 -0.013694 -0.248085
-0.184916 -0.051906 0.251671
-0.048914 -0.018206 -0.223980
-0.119665 -0.015168 -0.255400
-0.185183 0.020585 0.265956
-0.316806 0.201005 0.240212
-0.224391 -0.021536 0.143741
-0.216506 0.110936 -0.191471
-0.147731 -0.012398 -0.233183
-0.065375 -0.011663 -0.259494
-0.094242 -0.011916 -0.257920
-0.111013 -0.001765 0.283647
-0.073010 0.071571 0.354268
-0.185306 0.014470 0.269801
-0.080133 -0.011581 -0.256848
0.131447 0.041096 -0.313568
-0.218463 0.325026 0.407225
0.086027 -0.014519 0.274345
-0.086245 -0.023109 -0.257477
-0.109589 -0.015075 -0.250499
-0.195482 0.030549 0.299156
-0.077867 -0.008029 -0.261327
-0.096029 -0.015457 -0.257216
0.012455 0.000454 -0.259348
-0.301385 0.215820 0.079073
0.163100 0.039707 -0.055351
-0.144827 0.002834 0.274379
0.183888 -0.029791 0.325525
0.010753 0.003317 -0.314179
0.116178 0.013497 0.261604
-0.088934 -0.021639 -0.247768
-0.376085 -0.654969 -0.006411
-0.090307 -0.016923 -0.248607
-0.090256 -0.005479 -0.237392
-0.213580 -0.024696 -0.065221
0.099627 -0.251056 -0.196377
-0.121344 0.014181 0.269291
-0.196118 0.115493 0.344153
-0.128592 -0.017947 -0.254121
-0.096867 -0.009932 -0.251252
-0.090607 -0.024317 -0.255888
-0.179344 0.018550 0.266707
-0.171612 0.008278 0.270512
-0.143582 0.017687 0.278111
-0.375141 0.385584 -0.201563
-0.223790 -0.013205 -0.201089
0.462683 0.014909 0.277631
0.264266 -0.001218 -0.297846
-0.165943 -0.002732 0.298740
-0.102071 -0.015970 -0.252775
-0.090061 -0.012243 -0.234107
-0.093316 -0.011117 -0.252783
-0.080428 -0.017882 -0.246877
-0.150703 0.008169 0.291435
-0.088076 -0.022757 -0.230006
-0.099433 -0.009081 -0.225190
-0.346416 0.280711 -0.068510
-0.127636 0.012123 0.277386
0.241945 -0.003422 -0.162959
-0.358800 0.227855 0.040329
0.094327 0.048904 -0.133865
-0.170886 0.015470 0.275639
-0.156595 0.010446 0.275078
-0.173028 0.000157 0.271229
0.107162 -0.536223 0.290889
-0.118855 -0.007780 -0.244859
-0.164504 -0.030418 -0.168470
-0.096105 -0.002466 -0.264076
-0.365059 0.398752 -0.271228
-0.386742 0.291402 0.074424
-0.128948 -0.006361 -0.243887
-0.148496 0.002431 0.276049
-0.354804 0.439463 -0.309541
-0.105461 0.001941 -0.220809
0.314081 -0.030383 -0.393759
-0.055498 -0.026698 -0.141255
-0.089386 -0.014701 -0.254875
-0.135826 -0.020873 -0.218871
-0.205530 0.001138 0.249523
-0.190637 0.011576 0.271030
0.104188 -0.032420 0.324624
-0.161165 -0.004340 0.268412
-0.103756 -0.016891 -0.251714
0.212894 0.033763 -0.035187
-0.482717 0.523411 -0.105623
-0.380934 0.464989 0.244949
-0.491348 0.678135 0.198823
-0.055030 -0.005588 -0.260045
0.316498 0.007764 -0.118214
-0.047816 -0.105520 -0.373514
-0.437034 0.552690 0.228495
-0.092750 -0.016183 -0.238557
-0.165163 -0.013783 0.249664
-0.111175 -0.008494 -0.258929
-0.501509 0.580574 0.289967
-0.152228 0.010753 0.259461
0.281541 -0.223331 -0.037241
-0.348063 0.263026 0.192222
-0.170058 0.322157 -0.392681
-0.059879 0.094243 -0.418392
0.322712 -0.038645 0.236094
-0.141487 -0.008408 -0.254134
-0.186840 -0.001949 0.249756
-0.086809 -0.589959 -0.364865
-0.175840 0.008940 -0.259419
-0.109770 -0.001788 -0.216588
-0.040003 -0.011763 0.236778
-0.278137 0.051504 0.163435
-0.092990 -0.002331 -0.265226
-0.088160 -0.044694 -0.102413
-0.168322 0.005152 0.236002
0.259722 0.121504 0.396171
-0.149091 -0.007335 0.259666
0.063489 -0.036408 0.073863
0.296777 -0.167224 -0.281397
0.340740 0.168124 -0.421295
-0.369424 0.383466 0.103176
-0.159336 0.006774 0.270320
-0.071339 -0.032360 -0.212214
-0.023732 -0.080124 0.128519
-0.102947 0.000197 -0.271152
-0.111764 -0.012864 -0.221047
-0.266444 0.068427 -0.169772
-0.109719 -0.005830 -0.230377
-0.348928 0.310475 0.299778
-0.150020 -0.011678 -0.222019
0.276796 0.009362 -0.189947
-0.371695 0.376417 0.292625
-0.093239 -0.019133 -0.238080
-0.098672 0.215408 -0.288657
-0.157155 -0.626953 0.319221
-0.171664 0.007129 0.276628
